<?xml version="1.0" encoding="utf-8"?>
<!-- Generator: Adobe Illustrator 22.1.0, SVG Export Plug-In . SVG Version: 6.00 Build 0)  -->
<svg version="1.1" id="Layer_1" xmlns="http://www.w3.org/2000/svg" xmlns:xlink="http://www.w3.org/1999/xlink" x="0px" y="0px"
	 viewBox="0 0 668.7 52.2" style="enable-background:new 0 0 668.7 52.2;" xml:space="preserve">
<style type="text/css">
	.st0{fill:none;}
	.st1{fill:#CCCCCC;}
</style>
<title>Asset 15</title>
<line class="st0" x1="0.2" y1="0.6" x2="51.6" y2="0.6"/>
<line class="st0" x1="51.6" y1="0.6" x2="102.6" y2="0.6"/>
<line class="st0" x1="102.6" y1="0.6" x2="153.6" y2="0.6"/>
<line class="st0" x1="153.6" y1="0.6" x2="204.6" y2="0.6"/>
<line class="st0" x1="204.6" y1="0.6" x2="255.5" y2="0.6"/>
<line class="st0" x1="255.5" y1="0.6" x2="306.5" y2="0.6"/>
<line class="st0" x1="306.5" y1="0.6" x2="357" y2="0.6"/>
<line class="st0" x1="357" y1="0.6" x2="413.1" y2="0.6"/>
<line class="st0" x1="413.1" y1="0.6" x2="464.1" y2="0.6"/>
<line class="st0" x1="464.1" y1="0.6" x2="515.1" y2="0.6"/>
<line class="st0" x1="515.1" y1="0.6" x2="566.1" y2="0.6"/>
<line class="st0" x1="566.1" y1="0.6" x2="617" y2="0.6"/>
<line class="st0" x1="617" y1="0.6" x2="668.5" y2="0.6"/>
<line class="st0" x1="668" y1="51.2" x2="668" y2="1.1"/>
<g>
	<path class="st1" d="M668.6,52.3h-52.2V0h52.2V52.3z M617.6,51h49.8V1.3h-49.8V51z"/>
</g>
<g>
	<path class="st1" d="M617.6,52.3h-52.2V0h52.2V52.3z M566.6,51h49.8V1.3h-49.8V51z"/>
</g>
<g>
	<path class="st1" d="M566.6,52.3h-52.2V0h52.2V52.3z M515.6,51h49.8V1.3h-49.8V51z"/>
</g>
<g>
	<path class="st1" d="M515.6,52.3h-52.2V0h52.2V52.3z M464.6,51h49.8V1.3h-49.8V51z"/>
</g>
<g>
	<path class="st1" d="M464.6,52.3h-52.2V0h52.2V52.3z M413.6,51h49.8V1.3h-49.8V51z"/>
</g>
<g>
	<path class="st1" d="M413.6,52.3h-56.8L356.7,0h56.9V52.3z M358.1,51h54.3V1.3H358L358.1,51z"/>
</g>
<g>
	<path class="st1" d="M358,52.3h-52.2V0H358V52.3z M307,51h49.8V1.3H307V51z"/>
</g>
<g>
	<path class="st1" d="M307,52.3h-52.2V0H307V52.3z M256,51h49.8V1.3H256V51z"/>
</g>
<g>
	<path class="st1" d="M256,52.3h-52.2V0H256V52.3z M205,51h49.8V1.3H205V51z"/>
</g>
<g>
	<path class="st1" d="M205,52.3h-52.2V0H205V52.3z M154,51h49.8V1.3H154V51z"/>
</g>
<g>
	<path class="st1" d="M154,52.3h-52.2V0H154V52.3z M103,51h49.8V1.3H103V51z"/>
</g>
<g>
	<path class="st1" d="M103,52.3H50.7V0H103V52.3z M52,51h49.8V1.3H52V51z"/>
</g>
<g>
	<path class="st1" d="M52,52.3H0L-0.3,0H52V52.3z M1.2,51h49.5V1.3H1L1.2,51z"/>
</g>
<line class="st0" x1="0.6" y1="51.2" x2="0.6" y2="1.1"/>
<line class="st0" x1="51.6" y1="51.2" x2="51.6" y2="1.1"/>
<line class="st0" x1="102.6" y1="51.2" x2="102.6" y2="1.1"/>
<line class="st0" x1="153.6" y1="51.2" x2="153.6" y2="1.1"/>
<line class="st0" x1="204.6" y1="51.2" x2="204.6" y2="1.1"/>
<line class="st0" x1="255.5" y1="51.2" x2="255.5" y2="1.1"/>
<line class="st0" x1="306.5" y1="51.2" x2="306.5" y2="1.1"/>
<line class="st0" x1="357.5" y1="51.2" x2="357.5" y2="1.1"/>
<line class="st0" x1="413.1" y1="51.2" x2="413.1" y2="1.1"/>
<line class="st0" x1="464.1" y1="51.2" x2="464.1" y2="1.1"/>
<line class="st0" x1="515.1" y1="51.2" x2="515.1" y2="1.1"/>
<line class="st0" x1="566.1" y1="51.2" x2="566.1" y2="1.1"/>
<line class="st0" x1="617" y1="51.2" x2="617" y2="1.1"/>
<line class="st0" x1="0.2" y1="51.6" x2="51.6" y2="51.6"/>
<line class="st0" x1="51.6" y1="51.6" x2="102.6" y2="51.6"/>
<line class="st0" x1="102.6" y1="51.6" x2="153.6" y2="51.6"/>
<line class="st0" x1="153.6" y1="51.6" x2="204.6" y2="51.6"/>
<line class="st0" x1="204.6" y1="51.6" x2="255.5" y2="51.6"/>
<line class="st0" x1="255.5" y1="51.6" x2="306.5" y2="51.6"/>
<line class="st0" x1="306.5" y1="51.6" x2="357.5" y2="51.6"/>
<line class="st0" x1="357.5" y1="51.6" x2="413.1" y2="51.6"/>
<line class="st0" x1="413.1" y1="51.6" x2="464.1" y2="51.6"/>
<line class="st0" x1="464.1" y1="51.6" x2="515.1" y2="51.6"/>
<line class="st0" x1="515.1" y1="51.6" x2="566.1" y2="51.6"/>
<line class="st0" x1="566.1" y1="51.6" x2="617" y2="51.6"/>
<line class="st0" x1="617" y1="51.6" x2="668.5" y2="51.6"/>
<path d="M24.4,22.8l1.6-3c0.1-0.1,0.1-0.1,0.2-0.1h2.4c0.1,0,0.1,0,0,0.1l-2.7,3c-0.1,0-0.1,0.1-0.2,0.1L24.4,22.8
	C24.4,22.9,24.4,22.9,24.4,22.8z"/>
<path d="M74.6,19.7H77c0.1,0,0.2,0,0.2,0.1l1.6,3c0,0.1,0,0.1-0.1,0.1h-1.4c-0.1,0-0.1,0-0.2-0.1l-2.7-3
	C74.5,19.7,74.5,19.7,74.6,19.7z"/>
<path d="M124.8,22.8l2.3-3c0-0.1,0.1-0.1,0.2-0.1h1.5c0.1,0,0.2,0,0.2,0.1l2.3,3c0.1,0.1,0.1,0.1,0,0.1h-1.9c-0.1,0-0.2,0-0.2-0.1
	l-1.2-1.5l-1.2,1.5c-0.1,0.1-0.1,0.1-0.2,0.1h-1.9C124.8,22.9,124.7,22.9,124.8,22.8z"/>
<path d="M176.3,22.4v-1.9c0-0.1,0-0.1,0.1-0.1c0,0,0,0,0,0h1.6c0.1,0,0.1,0.1,0.1,0.1c0,0,0,0,0,0v1.9c0,0.1-0.1,0.1-0.1,0.1h-1.6
	C176.3,22.5,176.3,22.4,176.3,22.4z M180.1,20.4h1.6c0.1,0,0.1,0.1,0.1,0.1c0,0,0,0,0,0v1.9c0,0.1-0.1,0.1-0.1,0.1h-1.6
	c-0.1,0-0.1,0-0.1-0.1c0,0,0,0,0,0v-1.9C180,20.4,180,20.4,180.1,20.4C180.1,20.3,180.1,20.3,180.1,20.4L180.1,20.4z"/>
<path d="M226.8,22.6c0-1.3,0.4-2.6,1.9-2.7c0.3,0,0.7,0.1,0.9,0.3l1,0.7c0.2,0.1,0.5,0.2,0.7,0.2c0.3,0,0.7-0.4,0.7-1.1
	c0-0.1,0-0.1,0.1-0.1c0,0,0,0,0,0h0.9c0.1,0,0.1,0,0.1,0.1c0,0,0,0,0,0c0,1.2-0.4,2.7-1.9,2.7c-0.3,0-0.7-0.1-0.9-0.3l-1-0.7
	c-0.2-0.1-0.4-0.2-0.7-0.2c-0.5,0.1-0.8,0.6-0.7,1.1c0,0.1-0.1,0.1-0.1,0.1H227C226.9,22.7,226.9,22.7,226.8,22.6
	C226.8,22.6,226.8,22.6,226.8,22.6z"/>
<path d="M278.6,20.8h4.9c0.1,0,0.1,0,0.1,0.1c0,0,0,0,0,0v1.4c0,0.1-0.1,0.1-0.1,0.1l0,0h-4.9c-0.1,0-0.1-0.1-0.1-0.1c0,0,0,0,0,0
	v-1.4C278.5,20.8,278.5,20.8,278.6,20.8C278.6,20.8,278.6,20.7,278.6,20.8z"/>
<path d="M331.1,20.5h1.9c0.1,0,0.1,0.1,0.1,0.1c0,0,0,0,0,0v1.9c0,0.1-0.1,0.1-0.1,0.1h-1.9c-0.1,0-0.1,0-0.1-0.1c0,0,0,0,0,0v-1.9
	C331,20.5,331,20.5,331.1,20.5z"/>
<path d="M385.3,19c1.2,0,2.1,1,2.1,2.1s-1,2.1-2.1,2.1s-2.1-1-2.1-2.1C383.2,20,384.2,19,385.3,19L385.3,19z M384.3,21.1
	c0,0.6,0.5,1.1,1.1,1.1c0.6,0,1.1-0.5,1.1-1.1c0-0.6-0.5-1.1-1.1-1.1C384.7,20.1,384.3,20.5,384.3,21.1
	C384.3,21.2,384.3,21.2,384.3,21.1L384.3,21.1z"/>
<path d="M435.8,19.9h1.2c0.1,0,0.1,0.1,0.1,0.1c0,0,0,0,0,0c0.1,0.8,0.8,1.4,1.6,1.3c0.7-0.1,1.2-0.6,1.3-1.3c0-0.1,0.1-0.1,0.1-0.1
	h1.2c0.1,0,0.1,0,0.1,0.1c0,0,0,0,0,0c-0.1,1.6-1.5,2.9-3.1,2.8c-1.5-0.1-2.7-1.3-2.8-2.8C435.7,20,435.7,19.9,435.8,19.9
	C435.8,19.9,435.8,19.9,435.8,19.9z"/>
<path d="M486.4,19.7h1.9c0.1,0,0.1,0,0.2,0.1l1.1,1.5l1.2-1.5c0.1-0.1,0.1-0.1,0.2-0.1h1.9c0.1,0,0.1,0,0,0.1l-2.3,3
	c0,0.1-0.1,0.1-0.2,0.1h-1.5c-0.1,0-0.2,0-0.2-0.1l-2.3-3C486.3,19.8,486.3,19.7,486.4,19.7z"/>
<path d="M537,22.8l1.6-3c0.1-0.1,0.1-0.1,0.2-0.1h2.4c0.1,0,0.1,0,0,0.1l-2.7,3c-0.1,0-0.1,0.1-0.2,0.1L537,22.8
	C537,22.9,537,22.9,537,22.8z M540.2,22.8l1.6-3c0-0.1,0.1-0.1,0.2-0.1h2.4c0.1,0,0.1,0,0,0.1l-2.6,3c-0.1,0-0.1,0.1-0.2,0.1
	L540.2,22.8C540.2,22.9,540.1,22.9,540.2,22.8L540.2,22.8z"/>
<path d="M589.8,41l1.3-3c0-0.1,0.1-0.1,0.2-0.1h1.3c0.1,0,0.1,0,0.1,0.1l-1.1,3c0,0.1-0.1,0.1-0.2,0.1L589.8,41
	C589.8,41.1,589.8,41.1,589.8,41z"/>
<path d="M642.7,41l1.3-3c0-0.1,0.1-0.1,0.2-0.1h1.3c0.1,0,0.1,0,0.1,0.1l-1.1,3c0,0.1-0.1,0.1-0.2,0.1L642.7,41
	C642.7,41.1,642.6,41.1,642.7,41z"/>
</svg>
