<?xml version="1.0" encoding="utf-8"?>
<!-- Generator: Adobe Illustrator 22.1.0, SVG Export Plug-In . SVG Version: 6.00 Build 0)  -->
<svg version="1.1" id="Layer_1" xmlns="http://www.w3.org/2000/svg" xmlns:xlink="http://www.w3.org/1999/xlink" x="0px" y="0px"
	 viewBox="0 0 668.5 103.1" style="enable-background:new 0 0 668.5 103.1;" xml:space="preserve">
<style type="text/css">
	.st0{fill:#CCCCCC;}
	.st1{fill:none;stroke:#CCCCCC;stroke-width:1.25;stroke-miterlimit:10;}
	.st2{opacity:0;fill:none;stroke:#FFFFFF;stroke-width:1.25;stroke-miterlimit:10;}
</style>
<title>Asset 16</title>
<g>
	<rect x="514.3" y="0" class="st0" width="50.9" height="1.2"/>
</g>
<g>
	<rect x="514.1" y="1.1" class="st0" width="1.2" height="50.5"/>
</g>
<line class="st1" x1="514.7" y1="102.1" x2="514.7" y2="51.6"/>
<line class="st1" x1="514.3" y1="102.5" x2="565.2" y2="102.5"/>
<g>
	<rect x="565.2" y="0" class="st0" width="51.8" height="1.2"/>
</g>
<g>
	<rect x="565" y="1.1" class="st0" width="1.2" height="50.5"/>
</g>
<g>
	<rect x="616" y="1.1" class="st0" width="1.2" height="50.5"/>
</g>
<line class="st1" x1="565.7" y1="102.1" x2="565.7" y2="51.6"/>
<line class="st1" x1="616.6" y1="102.1" x2="616.6" y2="51.6"/>
<line class="st1" x1="565.2" y1="102.5" x2="617" y2="102.5"/>
<g>
	<rect x="0.2" y="0" class="st0" width="51.4" height="1.2"/>
</g>
<g>
	<rect x="51.6" y="0" class="st0" width="50.9" height="1.2"/>
</g>
<g>
	<rect x="102.5" y="0" class="st0" width="50.9" height="1.2"/>
</g>
<g>
	<rect x="153.5" y="0" class="st0" width="50.9" height="1.2"/>
</g>
<g>
	<rect x="204.4" y="0" class="st0" width="50.9" height="1.2"/>
</g>
<g>
	<rect x="255.3" y="0" class="st0" width="51" height="1.2"/>
</g>
<g>
	<rect x="0" y="1.1" class="st0" width="1.2" height="50"/>
</g>
<g>
	<rect x="50.9" y="1.1" class="st0" width="1.2" height="50"/>
</g>
<g>
	<rect x="101.9" y="1.1" class="st0" width="1.2" height="50"/>
</g>
<g>
	<rect x="152.8" y="1.1" class="st0" width="1.2" height="50"/>
</g>
<line class="st1" x1="0.2" y1="51.6" x2="51.6" y2="51.6"/>
<line class="st1" x1="0.6" y1="102.1" x2="0.6" y2="52"/>
<line class="st1" x1="51.6" y1="51.6" x2="102.5" y2="51.6"/>
<line class="st1" x1="51.6" y1="102.1" x2="51.6" y2="52"/>
<line class="st1" x1="102.5" y1="51.6" x2="153.4" y2="51.6"/>
<line class="st1" x1="102.5" y1="102.1" x2="102.5" y2="52"/>
<line class="st1" x1="153.5" y1="51.6" x2="203.9" y2="51.6"/>
<line class="st1" x1="153.5" y1="102.1" x2="153.5" y2="52"/>
<g>
	<rect x="203.8" y="1.1" class="st0" width="1.2" height="50"/>
</g>
<line class="st1" x1="203.9" y1="51.6" x2="254.9" y2="51.6"/>
<line class="st1" x1="204.4" y1="102.1" x2="204.4" y2="52"/>
<g>
	<rect x="254.7" y="1.1" class="st0" width="1.2" height="50"/>
</g>
<line class="st1" x1="254.9" y1="51.6" x2="305.8" y2="51.6"/>
<line class="st1" x1="255.3" y1="102.1" x2="255.3" y2="52"/>
<g>
	<rect x="306.3" y="0" class="st0" width="50.9" height="1.2"/>
</g>
<g>
	<rect x="357.2" y="0" class="st0" width="55.6" height="1.2"/>
</g>
<g>
	<rect x="305.7" y="1.1" class="st0" width="1.2" height="50"/>
</g>
<line class="st1" x1="305.8" y1="51.6" x2="356.8" y2="51.6"/>
<line class="st1" x1="306.3" y1="102.1" x2="306.3" y2="52"/>
<g>
	<rect x="356.6" y="1.1" class="st0" width="1.2" height="50"/>
</g>
<line class="st1" x1="356.8" y1="51.6" x2="412.4" y2="51.6"/>
<line class="st1" x1="357.2" y1="102.1" x2="357.2" y2="52"/>
<g>
	<rect x="412.8" y="0" class="st0" width="50.9" height="1.2"/>
</g>
<g>
	<rect x="412.2" y="1.1" class="st0" width="1.2" height="50"/>
</g>
<line class="st1" x1="412.4" y1="51.6" x2="463.3" y2="51.6"/>
<line class="st1" x1="412.8" y1="102.1" x2="412.8" y2="52"/>
<g>
	<rect x="463.8" y="0" class="st0" width="50.5" height="1.2"/>
</g>
<g>
	<rect x="463.1" y="1.1" class="st0" width="1.2" height="50"/>
</g>
<line class="st1" x1="463.3" y1="51.6" x2="514.3" y2="51.6"/>
<line class="st1" x1="463.8" y1="102.1" x2="463.8" y2="52"/>
<line class="st1" x1="515.2" y1="51.6" x2="565.2" y2="51.6"/>
<line class="st1" x1="566.1" y1="51.6" x2="616.1" y2="51.6"/>
<line class="st1" x1="0.2" y1="102.5" x2="51.6" y2="102.5"/>
<line class="st1" x1="51.6" y1="102.5" x2="102.5" y2="102.5"/>
<line class="st1" x1="102.5" y1="102.5" x2="153.4" y2="102.5"/>
<line class="st1" x1="153.5" y1="102.5" x2="204.4" y2="102.5"/>
<line class="st1" x1="204.4" y1="102.5" x2="255.3" y2="102.5"/>
<line class="st1" x1="255.3" y1="102.5" x2="306.3" y2="102.5"/>
<line class="st1" x1="306.3" y1="102.5" x2="357.2" y2="102.5"/>
<line class="st1" x1="357.2" y1="102.5" x2="412.8" y2="102.5"/>
<line class="st1" x1="412.8" y1="102.5" x2="463.8" y2="102.5"/>
<line class="st1" x1="463.8" y1="102.5" x2="514.3" y2="102.5"/>
<line class="st2" x1="617.8" y1="51.6" x2="668.5" y2="51.6"/>
<path d="M19.6,36.7L24,19.8c0-0.1,0.1-0.1,0.1-0.1c0,0,0,0,0,0h8.1c0.1,0,0.1,0,0.1,0.1c0,0,0,0,0,0v1.9c0,0.1,0,0.1-0.1,0.1
	c0,0,0,0,0,0h-4.7v5.3h4.1c0.1,0,0.1,0.1,0.1,0.1c0,0,0,0,0,0v1.9c0,0.1-0.1,0.1-0.1,0.1c0,0,0,0,0,0h-4.1v5.4h4.7
	c0.1,0,0.1,0,0.1,0.1c0,0,0,0,0,0v1.9c0,0.1,0,0.1-0.1,0.1c0,0,0,0,0,0h-6.7c-0.1,0-0.1,0-0.1-0.1c0,0,0,0,0,0V33h-2.8l-0.9,3.6
	c0,0.1-0.1,0.1-0.1,0.1h-1.9C19.7,36.8,19.6,36.7,19.6,36.7z M25.5,30.9v-7.7c0-0.1,0-0.1-0.1-0.1c0,0,0,0,0,0h-0.1
	c-0.1,0-0.1,0-0.1,0.1l-1.9,7.7H25.5z"/>
<path d="M71.8,33.3V23.1c-0.1-1.8,1.4-3.4,3.2-3.5c0,0,0,0,0,0h7.6c0.1,0,0.2,0,0.2,0.1v1.9c0,0.1-0.1,0.1-0.2,0.1h-4.1v5.3h3.6
	c0.1,0,0.1,0.1,0.1,0.1c0,0,0,0,0,0v1.9c0,0.1-0.1,0.1-0.1,0.1c0,0,0,0,0,0h-3.6v5.4h4.1c0.1,0,0.2,0,0.2,0.1v1.9
	c0,0.1-0.1,0.1-0.2,0.1h-7.6C73.2,36.7,71.8,35.2,71.8,33.3C71.8,33.3,71.8,33.3,71.8,33.3z M75.1,34.7c0.8,0,1.3-0.4,1.3-1.4V23.2
	c0-1-0.5-1.4-1.3-1.4s-1.3,0.4-1.3,1.4v10.1C73.8,34.2,74.3,34.7,75.1,34.7z"/>
<path d="M123.7,27.2h1.2v-7.4c0-0.1,0-0.1,0.1-0.1c0,0,0,0,0,0h3.3c2.6,0,4.1,1.6,4.1,4.2v8.5c0,3-1.6,4.4-4.3,4.4H125
	c-0.1,0-0.1-0.1-0.1-0.1c0,0,0,0,0,0v-7.6h-1.2c-0.1,0-0.1,0-0.1-0.1c0,0,0,0,0,0v-1.6C123.6,27.3,123.6,27.2,123.7,27.2
	C123.7,27.2,123.7,27.2,123.7,27.2z M128.1,27.2c0.1,0,0.1,0.1,0.1,0.1c0,0,0,0,0,0v1.6c0,0.1,0,0.1-0.1,0.1c0,0,0,0,0,0H127v5.6
	h1.3c1.4,0,1.9-0.7,1.9-2.2V24c0-1.4-0.5-2.2-1.9-2.2H127v5.4H128.1z"/>
<path d="M174.7,27.2h1.2v-7.4c0-0.1,0-0.1,0.1-0.1c0,0,0,0,0,0h3.3c2.6,0,4.1,1.6,4.1,4.2v8.5c0,3-1.6,4.4-4.3,4.4H176
	c-0.1,0-0.1-0.1-0.1-0.1c0,0,0,0,0,0v-7.6h-1.2c-0.1,0-0.1,0-0.1-0.1c0,0,0,0,0,0v-1.6C174.6,27.3,174.6,27.2,174.7,27.2z
	 M179.1,27.2c0.1,0,0.1,0.1,0.1,0.1c0,0,0,0,0,0v1.6c0,0.1,0,0.1-0.1,0.1c0,0,0,0,0,0H178v5.6h1.3c1.4,0,1.9-0.7,1.9-2.2V24
	c0-1.4-0.5-2.2-1.9-2.2H178v5.4H179.1z"/>
<path d="M225,22.1h1.1v-2.3c0-0.1,0-0.1,0.1-0.1c0,0,0,0,0,0h1.9c0.1,0,0.1,0.1,0.1,0.1c0,0,0,0,0,0v2.3h3.2v-2.3
	c0-0.1,0-0.1,0.1-0.1c0,0,0,0,0,0h1.9c0.1,0,0.1,0.1,0.1,0.1c0,0,0,0,0,0v2.3h1.1c0,0,0.1,0,0.1,0.1c0,0,0,0,0,0v1.6
	c0,0.1,0,0.1-0.1,0.1h-1.1v12.7c0,0.1-0.1,0.1-0.1,0.1c0,0,0,0,0,0h-1.9c-0.1,0-0.1,0-0.1-0.1c0,0,0,0,0,0v-7.4h-3.2v7.4
	c0,0.1,0,0.1-0.1,0.1c0,0,0,0,0,0h-1.9c-0.1,0-0.1,0-0.1-0.1c0,0,0,0,0,0V24H225c-0.1,0-0.1-0.1-0.1-0.1c0,0,0,0,0,0v-1.7
	C224.9,22.1,224.9,22.1,225,22.1z M228.3,24v3.2h3.2V24H228.3z"/>
<path d="M279.9,24h1.9c0.1,0,0.1,0,0.1,0.1c0,0,0,0,0,0v12.5c0,0.1,0,0.1-0.1,0.1c0,0,0,0,0,0h-1.9c-0.1,0-0.1-0.1-0.1-0.1
	c0,0,0,0,0,0V24.1C279.8,24,279.8,24,279.9,24z"/>
<path d="M329.2,36.7V19.8c0-0.1,0-0.1,0.1-0.1c0,0,0,0,0,0h1.9c0.1,0,0.1,0,0.1,0.1c0,0,0,0,0,0v14.8h3.8c0.1,0,0.1,0.1,0.1,0.1
	c0,0,0,0,0,0v1.9c0,0.1,0,0.1-0.1,0.1c0,0,0,0,0,0h-5.8C329.3,36.8,329.2,36.7,329.2,36.7C329.2,36.7,329.2,36.7,329.2,36.7z
	 M332.6,27.3c0-0.1,0-0.1,0.1-0.1c0,0,0,0,0,0h1.9c0.1,0,0.1,0,0.1,0.1c0,0,0,0,0,0v1.9c0,0.1-0.1,0.1-0.1,0.1c0,0,0,0,0,0h-1.9
	c-0.1,0-0.1-0.1-0.1-0.1V27.3z"/>
<path d="M381.9,28.1l1.3-0.4v-7.9c0-0.1,0-0.1,0.1-0.1c0,0,0,0,0,0h1.9c0.1,0,0.1,0.1,0.1,0.1c0,0,0,0,0,0V27l0.8-0.3
	c0.1,0,0.1,0,0.2,0.1c0,0,0,0,0,0l0.4,1.2c0,0.1,0,0.1-0.1,0.2c0,0,0,0,0,0l-1.3,0.5v6h3.8c0.1,0,0.1,0.1,0.1,0.1c0,0,0,0,0,0v1.9
	c0,0.1,0,0.1-0.1,0.1c0,0,0,0,0,0h-5.8c-0.1,0-0.1-0.1-0.1-0.1c0,0,0,0,0,0v-7.3l-0.7,0.2c-0.1,0-0.1,0-0.2-0.1l-0.4-1.2
	C381.8,28.2,381.9,28.2,381.9,28.1C381.9,28.1,381.9,28.1,381.9,28.1z"/>
<path d="M434.8,33.4v-1c0-0.1,0.1-0.1,0.1-0.1h1.9c0.1,0,0.1,0.1,0.1,0.1v1.1c-0.1,0.7,0.5,1.4,1.2,1.4c0,0,0.1,0,0.1,0
	c0.7,0,1.3-0.5,1.3-1.2c0-0.1,0-0.1,0-0.2v-1.2c0-0.6-0.2-1.2-0.6-1.7l-1.8-2.3c0,0-1-1.1-1.4-1.7c-0.7-0.8-1-1.8-1-2.8V23
	c0-1.9,1.6-3.5,3.5-3.5c1.9,0,3.4,1.6,3.4,3.5c0,0,0,0.1,0,0.1v1c0,0.1-0.1,0.1-0.1,0.1c0,0,0,0,0,0h-1.9c-0.1,0-0.1,0-0.1-0.1
	c0,0,0,0,0,0V23c0.1-0.7-0.4-1.3-1.1-1.4c-0.1,0-0.1,0-0.2,0c-0.7,0-1.3,0.5-1.3,1.3c0,0.1,0,0.1,0,0.2v0.7c0.1,0.8,0.4,1.5,0.9,2.1
	l1.4,1.7c0,0,1,1.1,1.3,1.7c0.8,1,1.1,2.2,1,3.4v0.8c0,1.9-1.6,3.4-3.5,3.4C436.3,36.9,434.7,35.3,434.8,33.4L434.8,33.4z M437.3,42
	v-4c0-0.1,0-0.1,0.1-0.1c0,0,0,0,0,0h1.9c0.1,0,0.1,0,0.1,0.1c0,0,0,0,0,0v1.9c0,0.1,0,0.2-0.1,0.2l-2,2
	C437.3,42.1,437.3,42.1,437.3,42z"/>
<path d="M485.3,19.7h7.9c0.1,0,0.1,0.1,0.1,0.1c0,0,0,0,0,0v1.9c0,0.1,0,0.1-0.1,0.1c0,0,0,0,0,0h-2.9v5.4h1.1c0.1,0,0.1,0,0.1,0.1
	c0,0,0,0,0,0v1.6c0,0.1,0,0.1-0.1,0.1c0,0,0,0,0,0h-1.1v7.6c0,0.1,0,0.1-0.1,0.1c0,0,0,0,0,0h-1.9c-0.1,0-0.1,0-0.1-0.1c0,0,0,0,0,0
	v-7.6H487c-0.1,0-0.1,0-0.1-0.1c0,0,0,0,0,0v-1.6c0-0.1,0-0.1,0.1-0.1c0,0,0,0,0,0h1.1v-5.4h-2.8c-0.1,0-0.1-0.1-0.1-0.1
	c0,0,0,0,0,0v-1.9C485.2,19.7,485.2,19.7,485.3,19.7C485.3,19.7,485.3,19.7,485.3,19.7z"/>
<path d="M536.2,19.7h7.9c0.1,0,0.1,0.1,0.1,0.1c0,0,0,0,0,0v1.9c0,0.1,0,0.1-0.1,0.1c0,0,0,0,0,0h-2.9v14.8c0,0.1,0,0.1-0.1,0.1
	c0,0,0,0,0,0h-1.9c-0.1,0-0.1,0-0.1-0.1c0,0,0,0,0,0V21.8h-2.9c-0.1,0-0.1-0.1-0.1-0.1c0,0,0,0,0,0v-1.9
	C536.1,19.7,536.2,19.7,536.2,19.7C536.2,19.7,536.2,19.7,536.2,19.7z M539.2,37.9h1.9c0.1,0,0.1,0,0.1,0.1c0,0,0,0,0,0v1.9
	c0,0.1,0,0.2-0.1,0.2l-2,2c-0.1,0-0.1,0-0.1,0V38C539.1,37.9,539.1,37.9,539.2,37.9C539.2,37.9,539.2,37.9,539.2,37.9z"/>
<path d="M588.2,40.9V19.8c0-0.1,0-0.1,0.1-0.1c0,0,0,0,0,0h1.9c0.1,0,0.1,0,0.1,0.1c0,0,0,0,0,0v4.8c0.9-1,2.5-1,3.5-0.1
	c0.5,0.5,0.8,1.1,0.8,1.7v8.2c0,1.3-1.1,2.4-2.5,2.4c-0.7,0-1.4-0.4-1.8-1V41c0,0.1,0,0.1-0.1,0.1c0,0,0,0,0,0h-1.9
	C588.2,41.1,588.2,41.1,588.2,40.9C588.2,41,588.2,41,588.2,40.9z M590.3,33.6c0,0.6,0.5,1.1,1.1,1.1s1.1-0.5,1.1-1.1v-6.5
	c0-0.6-0.5-1.1-1.1-1.1s-1.1,0.5-1.1,1.1V33.6z"/>
<path d="M20.7,85.4v-3.6c0.1-1.4,1.3-2.4,2.6-2.3c0.6,0,1.2,0.3,1.6,0.8v-2.2c0.1-0.5-0.3-1.1-0.8-1.2c-0.1,0-0.2,0-0.3,0
	c-0.6,0-1,0.4-1.1,0.9c0,0.1,0,0.1,0,0.2c0,0.1,0,0.1-0.1,0.1c0,0,0,0,0,0h-1.9c-0.1,0-0.1-0.1-0.1-0.1c0,0,0,0,0,0
	c-0.1-1.7,1.3-3.2,3-3.3c0.1,0,0.1,0,0.2,0c0.8,0,1.6,0.3,2.1,0.8c0.6-0.5,1.4-0.8,2.2-0.8c1.8,0,3.2,1.4,3.2,3.2c0,0.1,0,0.1,0,0.2
	v3c0,0.1-0.1,0.1-0.1,0.1c0,0,0,0,0,0h-4.2v3.3c-0.1,0.5,0.3,1.1,0.8,1.1c0.1,0,0.2,0,0.2,0c0.6,0,1-0.4,1.1-0.9c0-0.1,0-0.1,0-0.2
	c0-0.1,0.1-0.1,0.1-0.1c0,0,0,0,0,0h1.9c0.1,0,0.1,0.1,0.1,0.1l0,0c0.1,1.7-1.3,3.2-3,3.3c-0.1,0-0.1,0-0.2,0
	c-1.1,0-2.2-0.6-2.7-1.6c-0.5,1.3-1.9,1.9-3.2,1.4C21.4,87.4,20.7,86.4,20.7,85.4L20.7,85.4z M22.9,82.8v1.8c0,0.6,0.5,1.1,1.1,1.1
	c0.6,0,1.1-0.5,1.1-1.1c0,0,0,0,0,0v-1.8c0-0.6-0.5-1.1-1.1-1.1C23.4,81.7,22.9,82.2,22.9,82.8C22.9,82.8,22.9,82.8,22.9,82.8z
	 M29.3,79.5v-1.4c0.1-0.5-0.3-1.1-0.8-1.1c-0.1,0-0.1,0-0.2,0c-0.5-0.1-1,0.3-1.1,0.9c0,0.1,0,0.2,0,0.3v1.4H29.3z"/>
<path d="M71.9,84.1v-5.5c0-2.6,1.5-3.8,3.2-3.8c0.8,0,1.5,0.3,2.1,0.8c0.6-0.5,1.4-0.8,2.2-0.8c1.8,0,3.2,1.4,3.2,3.2
	c0,0.1,0,0.1,0,0.2V82c0,0.1,0,0.1-0.1,0.1c0,0,0,0,0,0h-4.2v2.5c0,0.6,0.5,1.1,1.1,1.1c0.6,0,1.1-0.5,1.1-1.1c0,0,0,0,0,0
	c0-0.1,0.1-0.1,0.1-0.1c0,0,0,0,0,0h1.9c0.1,0,0.1,0,0.1,0.1c0,0,0,0,0,0c0.1,1.8-1.3,3.2-3.1,3.3c0,0-0.1,0-0.1,0
	c-0.8,0-1.6-0.3-2.2-0.8c-0.6,0.5-1.3,0.8-2.1,0.8C73.4,87.9,71.9,86.7,71.9,84.1z M74,84.6c-0.1,0.5,0.3,1.1,0.8,1.1
	c0.1,0,0.2,0,0.2,0c0.6,0,1-0.4,1-1c0-0.1,0-0.1,0-0.1v-6.5c0.1-0.5-0.3-1.1-0.8-1.1c-0.1,0-0.1,0-0.2,0c-0.5-0.1-1,0.3-1.1,0.9
	c0,0.1,0,0.2,0,0.3V84.6z M80.4,80.2v-2.2c0-0.6-0.5-1.1-1.1-1.1c-0.6,0-1.1,0.5-1.1,1.1c0,0,0,0,0,0v2.2L80.4,80.2z"/>
<path d="M124.7,84.1v-5.5c0-2.9,1.3-3.8,2.6-3.8c0.2,0,0.4,0,0.6,0.1l-0.3-0.9l-1,0.4c-0.1,0-0.1,0-0.2-0.1l-0.4-1.2
	c0-0.1,0-0.1,0.1-0.1c0,0,0,0,0,0l1-0.3l-0.6-1.7c0,0,0-0.1,0.1-0.1c0,0,0,0,0,0h1.8c0.1,0,0.1,0,0.2,0.1l0.4,1.1l1.3-0.4
	c0.1,0,0.1,0,0.2,0.1c0,0,0,0,0,0l0.4,1.2c0,0.1,0,0.1-0.1,0.2c0,0,0,0,0,0l-1.3,0.5l1,2.9c0.5,1.2,0.7,2.4,0.6,3.7v4.2
	c0,2.6-1.5,3.8-3.2,3.8S124.7,86.7,124.7,84.1z M127.9,85.7c0.5,0.1,1-0.4,1.1-0.9c0-0.1,0-0.2,0-0.3v-6.5c0-0.6-0.5-1.1-1.1-1.1
	c-0.6,0-1.1,0.5-1.1,1.1c0,0,0,0,0,0v6.5c-0.1,0.5,0.3,1.1,0.8,1.1C127.8,85.7,127.8,85.7,127.9,85.7z"/>
<path d="M175.7,85.4v-8.3c0-1.3,1.1-2.4,2.5-2.4c0.7,0,1.3,0.3,1.8,0.8v-1.4h-1.1c0,0-0.1,0-0.1-0.1c0,0,0,0,0,0v-1.6
	c0-0.1,0-0.1,0.1-0.1h1.1v-1.6c0-0.1,0.1-0.1,0.1-0.1h1.9c0.1,0,0.1,0.1,0.1,0.1v1.6h1.1c0.1,0,0.1,0.1,0.1,0.1v1.6
	c0,0.1-0.1,0.1-0.1,0.1c0,0,0,0,0,0h-1.1v13.4c0,0.1,0,0.1-0.1,0.1c0,0,0,0,0,0h-1.9c-0.1,0-0.1-0.1-0.1-0.1c0,0,0,0,0,0v-0.5
	c-0.5,0.5-1.1,0.8-1.8,0.8C176.8,87.9,175.8,86.8,175.7,85.4z M177.9,78.1v6.5c0,0.6,0.5,1.1,1.1,1.1c0.6,0,1.1-0.5,1.1-1.1
	c0,0,0,0,0,0v-6.5c0-0.6-0.5-1.1-1.1-1.1C178.3,77,177.9,77.5,177.9,78.1C177.9,78.1,177.9,78.1,177.9,78.1z"/>
<path d="M225.4,72.1c0-0.1,0.1-0.1,0.1-0.1h1.1v-1.2c0-0.1,0.1-0.1,0.1-0.1h1.9c0.1,0,0.1,0,0.1,0.1c0,0,0,0,0,0V72h1.2
	c0,0,0.1,0,0.1,0.1c0,0,0,0,0,0v1.6c0,0.1-0.1,0.1-0.1,0.1h-1.1v1.7c0.9-1,2.5-1,3.5-0.1c0.5,0.5,0.8,1.1,0.8,1.7v10.4
	c0,0.1,0,0.1-0.1,0.1c0,0,0,0,0,0h-1.9c-0.1,0-0.1,0-0.1-0.1c0,0,0,0,0,0v-9.5c0.1-0.6-0.4-1.1-1-1.2c-0.6-0.1-1.1,0.4-1.2,1
	c0,0.1,0,0.1,0,0.2v9.5c0,0.1,0,0.1-0.1,0.1c0,0,0,0,0,0h-1.9c-0.1,0-0.1-0.1-0.1-0.1c0,0,0,0,0,0V73.8h-1.1c-0.1,0-0.1-0.1-0.1-0.1
	c0,0,0,0,0,0L225.4,72.1z"/>
<path d="M279.8,87.6V70.8c0-0.1,0.1-0.1,0.1-0.1h1.9c0.1,0,0.1,0,0.1,0.1c0,0,0,0,0,0v16.9c0,0.1,0,0.1-0.1,0.1c0,0,0,0,0,0h-1.9
	C279.8,87.7,279.8,87.7,279.8,87.6C279.8,87.6,279.8,87.6,279.8,87.6z"/>
<path d="M330.5,70.6h1.9c0.1,0,0.1,0.1,0.1,0.1v14c0,0.8,0.4,1,1,1c0.1,0,0.1,0,0.1,0.1c0,0,0,0,0,0v1.9c0,0.1-0.1,0.1-0.1,0.1
	c-1.9,0-3.1-0.6-3.1-3V70.8C330.4,70.7,330.4,70.6,330.5,70.6z M333.9,78.1h1.9c0.1,0,0.1,0,0.1,0.1c0,0,0,0,0,0v1.9
	c0,0.1,0,0.1-0.1,0.1c0,0,0,0,0,0h-1.9c-0.1,0-0.1,0-0.1-0.1c0,0,0,0,0,0v-1.9C333.8,78.2,333.8,78.1,333.9,78.1
	C333.9,78.1,333.9,78.1,333.9,78.1L333.9,78.1z"/>
<path d="M382.4,79.1l1.2-0.4v-7.9c0-0.1,0.1-0.1,0.1-0.1h1.9c0.1,0,0.1,0,0.1,0.1c0,0,0,0,0,0v7.2l0.8-0.3c0.1,0,0.1,0,0.1,0.1
	l0.4,1.2c0,0.1,0,0.1-0.1,0.2c0,0,0,0,0,0l-1.3,0.5v5.1c0,0.8,0.4,1,1,1c0.1,0,0.1,0,0.1,0.1v1.9c0,0.1-0.1,0.1-0.1,0.1c0,0,0,0,0,0
	c-1.9,0-3.1-0.6-3.1-3v-4.5l-0.7,0.3c-0.1,0-0.1,0-0.2-0.1l-0.4-1.3C382.3,79.2,382.4,79.1,382.4,79.1z"/>
<path d="M435.2,84.6c0-0.1,0.1-0.1,0.1-0.1h1.9c0.1,0,0.1,0,0.1,0.1c0,0,0,0,0,0l0,0c0,0.6,0.5,1,1,1s1-0.5,1-1v-0.5
	c0-0.4-0.2-0.7-0.7-1.2l-2.6-2.7c-1.2-1.3-1.2-3.3,0.1-4.5c1.3-1.2,3.3-1.2,4.5,0.1c0.6,0.6,0.9,1.4,0.9,2.2l0,0
	c0,0.1,0,0.1-0.1,0.1c0,0,0,0,0,0h-1.9c-0.1,0-0.1,0-0.1-0.1c0,0,0,0,0,0l0,0c0-0.6-0.4-1-0.9-1.1c0,0-0.1,0-0.1,0
	c-0.5,0-1,0.3-1,0.8c0,0.1,0,0.1,0,0.2v0.3c0,0.7,0.6,1.1,1.1,1.6l1.6,1.6c0.9,0.7,1.4,1.8,1.4,2.9v0.3c0,1.7-1.4,3.2-3.1,3.2
	C436.5,87.8,435.1,86.4,435.2,84.6z M437.4,88.8h1.9c0.1,0,0.1,0.1,0.1,0.1c0,0,0,0,0,0v1.9c0,0.1,0,0.2-0.1,0.2l-2,2h-0.1V89
	c0-0.1,0-0.1,0.1-0.2C437.3,88.8,437.4,88.8,437.4,88.8z"/>
<path d="M487.3,78.3c0-0.1,0.1-0.1,0.1-0.1h1v-1.4h-1c-0.1,0-0.1-0.1-0.1-0.1V75c0-0.1,0.1-0.1,0.1-0.1h1v-3c0-0.1,0-0.1,0.1-0.1
	c0,0,0,0,0,0h1.9c0.1,0,0.1,0,0.1,0.1c0,0,0,0,0,0v3.1h1.3c0.1,0,0.1,0,0.1,0.1v1.6c0,0.1-0.1,0.1-0.1,0.1c0,0,0,0,0,0h-1.3v1.4h1.3
	c0.1,0,0.1,0,0.1,0.1c0,0,0,0,0,0v1.6c0,0.1,0,0.1-0.1,0.1c0,0,0,0,0,0h-1.3v4.6c0,0.8,0.4,1,1,1h0.2c0.1,0,0.1,0,0.1,0.1
	c0,0,0,0,0,0v1.9c0,0.1,0,0.1-0.1,0.1c0,0,0,0,0,0h-0.2c-2,0-3.2-0.5-3.2-3V80h-1c-0.1,0-0.1-0.1-0.1-0.1c0,0,0,0,0,0L487.3,78.3z"
	/>
<path d="M537.6,75c0-0.1,0.1-0.1,0.1-0.1c0,0,0,0,0,0h1v-3.1c0-0.1,0-0.1,0.1-0.1c0,0,0,0,0,0h1.9c0.1,0,0.1,0.1,0.1,0.1l0,0v3.1
	h1.3c0.1,0,0.1,0.1,0.1,0.1v1.6c0,0.1,0,0.1-0.1,0.1c0,0,0,0,0,0h-1.3v7.8c0,0.8,0.4,1,1,1h0.2c0.1,0,0.1,0.1,0.1,0.1c0,0,0,0,0,0
	v1.9c0,0.1,0,0.1-0.1,0.1c0,0,0,0,0,0h-0.2c-2,0-3.2-0.5-3.2-3v-8h-1c-0.1,0-0.1,0-0.1-0.1c0,0,0,0,0,0L537.6,75z M539.4,93v-4
	c0-0.1,0-0.1,0.1-0.1c0,0,0,0,0,0h1.9c0.1,0,0.1,0,0.1,0.1c0,0,0,0,0,0v1.9c0,0.1,0,0.2-0.1,0.2l-2,2
	C539.5,93.1,539.4,93.1,539.4,93z"/>
<path d="M588.3,87.6V70.8c0-0.1,0.1-0.1,0.1-0.1h1.9c0.1,0,0.1,0,0.1,0.1c0,0,0,0,0,0v4.8c0.9-1,2.5-1,3.5-0.1
	c0.5,0.5,0.8,1.1,0.8,1.7v4c0,1.3-1.1,2.4-2.5,2.4c-0.7,0-1.4-0.4-1.8-1v5.1c0,0.1,0,0.1-0.1,0.1c0,0,0,0,0,0h-1.9
	C588.4,87.8,588.3,87.8,588.3,87.6C588.3,87.7,588.3,87.6,588.3,87.6z M590.5,80.3c0,0.6,0.5,1.1,1.1,1.1s1.1-0.5,1.1-1.1v-2.2
	c0-0.6-0.5-1.1-1.1-1.1s-1.1,0.5-1.1,1.1V80.3z"/>
</svg>
