<?xml version="1.0" encoding="utf-8"?>
<!-- Generator: Adobe Illustrator 22.1.0, SVG Export Plug-In . SVG Version: 6.00 Build 0)  -->
<svg version="1.1" id="Layer_1" xmlns="http://www.w3.org/2000/svg" xmlns:xlink="http://www.w3.org/1999/xlink" x="0px" y="0px"
	 viewBox="0 0 668.5 52.2" style="enable-background:new 0 0 668.5 52.2;" xml:space="preserve">
<style type="text/css">
	.st0{fill:none;}
	.st1{opacity:0;}
	.st2{fill:#CCCCCC;}
</style>
<title>Asset 18</title>
<line class="st0" x1="463.2" y1="0.6" x2="515.1" y2="0.6"/>
<line class="st0" x1="463.7" y1="51.1" x2="463.7" y2="1.1"/>
<line class="st0" x1="514.6" y1="51.1" x2="514.6" y2="1.1"/>
<line class="st0" x1="463.2" y1="51.6" x2="515.1" y2="51.6"/>
<line class="st0" x1="0.2" y1="0.6" x2="51.6" y2="0.6"/>
<line class="st0" x1="51.6" y1="0.6" x2="102.5" y2="0.6"/>
<line class="st0" x1="102.5" y1="0.6" x2="153.4" y2="0.6"/>
<line class="st0" x1="153.4" y1="0.6" x2="204.4" y2="0.6"/>
<line class="st0" x1="204.4" y1="0.6" x2="255.3" y2="0.6"/>
<line class="st0" x1="255.3" y1="0.6" x2="306.2" y2="0.6"/>
<line class="st0" x1="306.2" y1="0.6" x2="357.2" y2="0.6"/>
<line class="st0" x1="357.2" y1="0.6" x2="412.8" y2="0.6"/>
<line class="st0" x1="412.8" y1="0.6" x2="463.2" y2="0.6"/>
<line class="st0" x1="0.6" y1="51.1" x2="0.6" y2="1.1"/>
<line class="st0" x1="51.6" y1="51.1" x2="51.6" y2="1.1"/>
<line class="st0" x1="102.5" y1="51.1" x2="102.5" y2="1.1"/>
<line class="st0" x1="153.4" y1="51.1" x2="153.4" y2="1.1"/>
<line class="st0" x1="204.4" y1="51.1" x2="204.4" y2="1.1"/>
<line class="st0" x1="255.3" y1="51.1" x2="255.3" y2="1.1"/>
<line class="st0" x1="306.2" y1="51.1" x2="306.2" y2="1.1"/>
<line class="st0" x1="357.2" y1="51.1" x2="357.2" y2="1.1"/>
<line class="st0" x1="412.8" y1="51.1" x2="412.8" y2="1.1"/>
<line class="st0" x1="0.2" y1="51.6" x2="51.6" y2="51.6"/>
<line class="st0" x1="51.6" y1="51.6" x2="102.5" y2="51.6"/>
<line class="st0" x1="102.5" y1="51.6" x2="153.4" y2="51.6"/>
<line class="st0" x1="153.4" y1="51.6" x2="204.4" y2="51.6"/>
<line class="st0" x1="204.4" y1="51.6" x2="255.3" y2="51.6"/>
<line class="st0" x1="255.3" y1="51.6" x2="306.2" y2="51.6"/>
<line class="st0" x1="306.2" y1="51.6" x2="357.2" y2="51.6"/>
<line class="st0" x1="357.2" y1="51.6" x2="412.8" y2="51.6"/>
<line class="st0" x1="412.8" y1="51.6" x2="463.2" y2="51.6"/>
<path d="M23.6,20.9l1.9-1.2c0.1-0.1,0.1-0.1,0.2-0.1h1.9c0.1,0,0.1,0,0.1,0.1c0,0,0,0,0,0v16.9c0,0.1-0.1,0.1-0.1,0.1c0,0,0,0,0,0
	h-1.9c-0.1,0-0.1,0-0.1-0.1c0,0,0,0,0,0V22.1l-2,1.3c0,0-0.1,0-0.1,0v-2.2C23.5,21.1,23.6,21,23.6,20.9z"/>
<path d="M73.2,36.7V35c0-0.7,0.2-1.4,0.6-2l4.2-7.1c0.5-0.8,0.8-1.8,0.7-2.8c0.1-0.7-0.4-1.4-1.2-1.4c-0.1,0-0.1,0-0.2,0
	c-0.7,0-1.3,0.6-1.3,1.3c0,0.1,0,0.1,0,0.2v1.1c0,0.1,0,0.1-0.1,0.1c0,0,0,0,0,0H74c-0.1,0-0.1-0.1-0.1-0.1c0,0,0,0,0,0v-1
	c-0.1-1.9,1.4-3.5,3.3-3.6c0,0,0,0,0.1,0c1.9,0,3.5,1.6,3.5,3.5v0.8c-0.1,1-0.5,1.9-1,2.8l-3.9,7c-0.1,0.3-0.3,0.7-0.4,1H80
	c0.1,0,0.1,0,0.1,0.1c0,0,0,0,0,0v1.9c0,0.1-0.1,0.1-0.1,0.1c0,0,0,0,0,0h-6.7C73.2,36.8,73.2,36.7,73.2,36.7
	C73.2,36.7,73.2,36.7,73.2,36.7z"/>
<path d="M124.8,32.2h1.9c0.1,0,0.1,0,0.1,0.1c0,0,0,0,0,0v1c0,0.9,0.3,1.4,1.1,1.4c0.8,0,1.1-0.5,1.1-1.4v-3.7
	c0.1-0.7-0.4-1.3-1.1-1.4c-0.1,0-0.1,0-0.2,0H127c-0.1,0-0.1,0-0.1-0.1c0,0,0,0,0,0v-1.9c0,0,0-0.1,0.1-0.1h0.4
	c0.7,0,1.5-0.9,1.5-2.5V23c0-0.9-0.3-1.4-1.1-1.4s-1.1,0.6-1.1,1.4v1.1c0,0.1,0,0.1-0.1,0.1c0,0,0,0,0,0h-1.9
	c-0.1,0-0.1-0.1-0.1-0.1c0,0,0,0,0,0v-1c-0.2-1.8,1.1-3.4,2.9-3.5c1.8-0.2,3.4,1.1,3.5,2.9c0,0.2,0,0.4,0,0.6v0.8
	c0.1,1-0.3,2-0.9,2.8l-0.2,0.3c0.9,1,1.3,2.3,1.2,3.6v3c0.1,1.8-1.3,3.4-3.1,3.5c0,0-0.1,0-0.1,0c-1.8,0-3.3-1.6-3.2-3.4
	c0-0.1,0-0.1,0-0.2v-1c-0.1,0-0.1-0.1-0.1-0.2C124.6,32.2,124.7,32.2,124.8,32.2z"/>
<path d="M175.6,32.1c0-0.1,0-0.2,0-0.2l2.5-12c0-0.1,0.1-0.1,0.1-0.1c0,0,0,0,0,0h2c0.1,0,0.1,0,0.1,0.1L177.9,32h1.5v-2.6
	c0-0.1,0.1-0.1,0.1-0.1c0,0,0,0,0,0h1.9c0.1,0,0.1,0,0.1,0.1c0,0,0,0,0,0V32h0.9c0.1,0,0.1,0,0.1,0.1c0,0,0,0,0,0V34
	c0,0.1,0,0.1-0.1,0.1c0,0,0,0,0,0h-0.9v2.5c0,0.1-0.1,0.1-0.1,0.1c0,0,0,0,0,0h-1.9c-0.1,0-0.1,0-0.1-0.1c0,0,0,0,0,0v-2.6h-3.6
	c-0.1,0-0.1,0-0.1-0.1c0,0,0,0,0,0L175.6,32.1z"/>
<path d="M226.8,19.8c0-0.1,0.1-0.1,0.1-0.1l0,0h5.9c0.1,0,0.1,0,0.1,0.1v1.9c0,0.1,0,0.1-0.1,0.1h-3.9v3.5c0.5-0.3,1-0.5,1.6-0.5
	c1.5,0,2.8,1.3,2.7,2.9v5.9c0.1,1.8-1.2,3.3-3,3.4c-1.8,0.1-3.3-1.2-3.4-3c0-0.2,0-0.3,0-0.5v-1.1c0-0.1,0.1-0.1,0.1-0.1l0,0h1.9
	c0.1,0,0.1,0.1,0.1,0.1c0,0,0,0,0,0v0.9c0,1,0.3,1.5,1.1,1.6s1-0.6,1-1.6v-4.8c0-1-0.3-1.5-1-1.5s-1.1,0.6-1.1,1.5v0.4
	c0,0.1-0.1,0.1-0.1,0.1h-1.9c-0.1,0-0.1,0-0.1-0.1c0,0,0,0,0,0L226.8,19.8z"/>
<path d="M277.3,33.4v-3.1c0-0.1,0-0.2,0-0.4c0-0.5,0.1-1,0.3-1.5l3.2-8.6c0-0.1,0.1-0.1,0.2-0.1h1.8c0.1,0,0.1,0,0.1,0.1l-2.5,7
	c0.5-0.1,0.9-0.1,1.4,0c1.5,0.4,2.4,1.8,2.4,3.3v3.3c0.1,1.9-1.4,3.5-3.3,3.6c-1.9,0.1-3.5-1.4-3.6-3.3
	C277.2,33.6,277.2,33.5,277.3,33.4L277.3,33.4z M279.4,33.4c-0.1,0.7,0.5,1.3,1.2,1.4c0.7,0.1,1.3-0.5,1.4-1.2c0-0.1,0-0.2,0-0.2
	v-3.2c0.1-0.7-0.4-1.3-1.1-1.4c-0.1,0-0.1,0-0.2,0c-0.7,0-1.3,0.6-1.3,1.3c0,0.1,0,0.1,0,0.2V33.4z"/>
<path d="M328,36.7l5.3-14.9h-3v1.3c0,0.1-0.1,0.1-0.1,0.1h-1.9c-0.1,0-0.1,0-0.1-0.1c0,0,0,0,0,0v-3.4c0-0.1,0-0.1,0.1-0.1
	c0,0,0,0,0,0h7.3c0.1,0,0.1,0,0.1,0.1c0,0,0,0,0,0v1.7c0,0.1,0,0.2,0,0.3l-5.3,14.9c0,0.1-0.1,0.1-0.2,0.1L328,36.7
	C328,36.8,328,36.7,328,36.7z"/>
<path d="M381.8,23c-0.2-1.8,1.1-3.3,2.9-3.5s3.3,1.1,3.5,2.9c0,0.2,0,0.3,0,0.5v2.7c0,0.8-0.3,1.7-0.9,2.3c0.6,0.6,0.9,1.5,0.9,2.3
	v3.4c0.1,1.8-1.2,3.3-3,3.4c-1.8,0.1-3.3-1.2-3.4-3c0-0.2,0-0.3,0-0.5v-3.4c0-0.9,0.3-1.7,0.9-2.4c-0.6-0.7-0.9-1.5-0.9-2.4V23z
	 M383.9,25.3c0,1,0.3,1.5,1.1,1.6s1.1-0.6,1.1-1.6v-2c0-1-0.3-1.6-1.1-1.6s-1.1,0.6-1.1,1.6V25.3z M383.9,33.3c0,1,0.3,1.6,1.1,1.6
	s1.1-0.6,1.1-1.6v-2.9c0-1-0.3-1.6-1.1-1.6s-1.1,0.6-1.1,1.6V33.3z"/>
<path d="M434.9,23c0-1.9,1.6-3.5,3.5-3.5c1.9,0,3.4,1.6,3.4,3.5c0,0,0,0.1,0,0.1v3.1c0,0.1,0,0.2,0,0.4c0,0.5-0.1,1-0.3,1.5
	l-3.2,8.6c0,0.1-0.1,0.1-0.2,0.1h-1.8c-0.1,0-0.1,0-0.1-0.1l2.5-7c-0.4,0.1-0.9,0.1-1.4,0c-1.5-0.4-2.5-1.8-2.4-3.3L434.9,23z
	 M437,23.1v3.2c-0.1,0.7,0.4,1.4,1.2,1.4c0.1,0,0.1,0,0.2,0c0.7,0,1.3-0.6,1.3-1.3c0-0.1,0-0.1,0-0.2V23c0-0.9-0.5-1.4-1.3-1.4
	c-0.7,0-1.3,0.5-1.4,1.2C437,22.9,437,23,437,23.1L437,23.1z"/>
<path d="M486,23c-0.2-1.8,1.1-3.3,2.9-3.5c1.8-0.2,3.3,1.1,3.5,2.9c0,0.2,0,0.3,0,0.5v10.7c0.1,1.8-1.2,3.3-3,3.4
	c-1.8,0.1-3.3-1.2-3.4-3c0-0.2,0-0.3,0-0.5V23z M488.1,33.3c0,1,0.3,1.5,1.1,1.5s1.1-0.6,1.1-1.6V23.1c0-1-0.3-1.5-1.1-1.5
	s-1.1,0.6-1.1,1.5V33.3z"/>
<line class="st0" x1="515.8" y1="51.6" x2="668.5" y2="51.6"/>
<line class="st0" x1="0.5" y1="0.6" x2="51.9" y2="0.6"/>
<line class="st0" x1="51.9" y1="0.6" x2="102.9" y2="0.6"/>
<line class="st0" x1="102.9" y1="0.6" x2="153.9" y2="0.6"/>
<line class="st0" x1="153.9" y1="0.6" x2="204.9" y2="0.6"/>
<line class="st0" x1="204.9" y1="0.6" x2="255.8" y2="0.6"/>
<line class="st0" x1="255.8" y1="0.6" x2="306.8" y2="0.6"/>
<line class="st0" x1="306.8" y1="0.6" x2="357.3" y2="0.6"/>
<line class="st0" x1="357.3" y1="0.6" x2="413.4" y2="0.6"/>
<line class="st0" x1="413.4" y1="0.6" x2="464.4" y2="0.6"/>
<line class="st0" x1="464.4" y1="0.6" x2="515.4" y2="0.6"/>
<line class="st0" x1="515.4" y1="0.6" x2="566.4" y2="0.6"/>
<line class="st0" x1="566.4" y1="0.6" x2="617.3" y2="0.6"/>
<g class="st1">
	<path class="st2" d="M668.2,52.3H616V0h52.2V52.3z M617.2,51H667V1.3h-49.8V51z"/>
</g>
<g>
	<path class="st2" d="M515.9,52.3h-52.2V0h52.2V52.3z M464.9,51h49.8V1.3h-49.8L464.9,51L464.9,51z"/>
</g>
<g>
	<path class="st2" d="M464.9,52.3h-52.2V0h52.2V52.3z M413.9,51h49.8V1.3h-49.8V51z"/>
</g>
<g>
	<path class="st2" d="M413.9,52.3h-56.8L357,0h56.9V52.3z M358.4,51h54.3V1.3h-54.4L358.4,51z"/>
</g>
<g>
	<path class="st2" d="M358.3,52.3h-52.2V0h52.2V52.3z M307.3,51h49.8V1.3h-49.8V51z"/>
</g>
<g>
	<path class="st2" d="M307.3,52.3h-52.2V0h52.2V52.3z M256.3,51h49.8V1.3h-49.8V51z"/>
</g>
<g>
	<path class="st2" d="M256.3,52.3h-52.2V0h52.2V52.3z M205.3,51h49.8V1.3h-49.8V51z"/>
</g>
<g>
	<path class="st2" d="M205.3,52.3h-52.2V0h52.2V52.3z M154.3,51h49.8V1.3h-49.8V51z"/>
</g>
<g>
	<path class="st2" d="M154.3,52.3h-52.2V0h52.2V52.3z M103.3,51h49.8V1.3h-49.8V51z"/>
</g>
<g>
	<path class="st2" d="M103.3,52.3H51V0h52.3V52.3z M52.3,51h49.8V1.3H52.3V51z"/>
</g>
<g>
	<path class="st2" d="M52.3,52.3h-52L0,0h52.3V52.3z M1.5,51H51V1.3H1.3L1.5,51z"/>
</g>
<line class="st0" x1="0.9" y1="51.2" x2="0.9" y2="1.1"/>
<line class="st0" x1="51.9" y1="51.2" x2="51.9" y2="1.1"/>
<line class="st0" x1="102.9" y1="51.2" x2="102.9" y2="1.1"/>
<line class="st0" x1="153.9" y1="51.2" x2="153.9" y2="1.1"/>
<line class="st0" x1="204.9" y1="51.2" x2="204.9" y2="1.1"/>
<line class="st0" x1="255.8" y1="51.2" x2="255.8" y2="1.1"/>
<line class="st0" x1="306.8" y1="51.2" x2="306.8" y2="1.1"/>
<line class="st0" x1="357.8" y1="51.2" x2="357.8" y2="1.1"/>
<line class="st0" x1="413.4" y1="51.2" x2="413.4" y2="1.1"/>
<line class="st0" x1="464.4" y1="51.2" x2="464.4" y2="1.1"/>
<line class="st0" x1="515.4" y1="51.2" x2="515.4" y2="1.1"/>
<line class="st0" x1="668.2" y1="51.2" x2="668.2" y2="1.1"/>
<line class="st0" x1="0.5" y1="51.6" x2="51.9" y2="51.6"/>
<line class="st0" x1="51.9" y1="51.6" x2="102.9" y2="51.6"/>
<line class="st0" x1="102.9" y1="51.6" x2="153.9" y2="51.6"/>
<line class="st0" x1="153.9" y1="51.6" x2="204.9" y2="51.6"/>
<line class="st0" x1="204.9" y1="51.6" x2="255.8" y2="51.6"/>
<line class="st0" x1="255.8" y1="51.6" x2="306.8" y2="51.6"/>
<line class="st0" x1="306.8" y1="51.6" x2="357.8" y2="51.6"/>
<line class="st0" x1="357.8" y1="51.6" x2="413.4" y2="51.6"/>
<line class="st0" x1="413.4" y1="51.6" x2="464.4" y2="51.6"/>
<line class="st0" x1="464.4" y1="51.6" x2="515.4" y2="51.6"/>
<line class="st0" x1="515.4" y1="51.6" x2="566.4" y2="51.6"/>
<line class="st0" x1="566.4" y1="51.6" x2="617.3" y2="51.6"/>
</svg>
