<?xml version="1.0" encoding="utf-8"?>
<!-- Generator: Adobe Illustrator 22.1.0, SVG Export Plug-In . SVG Version: 6.00 Build 0)  -->
<svg version="1.1" id="Layer_1" xmlns="http://www.w3.org/2000/svg" xmlns:xlink="http://www.w3.org/1999/xlink" x="0px" y="0px"
	 viewBox="0 0 668.2 103.1" style="enable-background:new 0 0 668.2 103.1;" xml:space="preserve">
<style type="text/css">
	.st0{fill:none;stroke:#CCCCCC;stroke-width:1.25;stroke-miterlimit:10;}
</style>
<title>Asset 14</title>
<line class="st0" x1="0.2" y1="0.6" x2="51.6" y2="0.6"/>
<line class="st0" x1="51.6" y1="0.6" x2="102.5" y2="0.6"/>
<line class="st0" x1="102.5" y1="0.6" x2="153.5" y2="0.6"/>
<line class="st0" x1="153.5" y1="0.6" x2="204.4" y2="0.6"/>
<line class="st0" x1="204.4" y1="0.6" x2="255.4" y2="0.6"/>
<line class="st0" x1="255.4" y1="0.6" x2="306.3" y2="0.6"/>
<line class="st0" x1="306.3" y1="0.6" x2="357.2" y2="0.6"/>
<line class="st0" x1="0.6" y1="51.1" x2="0.6" y2="1.1"/>
<line class="st0" x1="51.6" y1="51.1" x2="51.6" y2="1.1"/>
<line class="st0" x1="102.5" y1="51.1" x2="102.5" y2="1.1"/>
<line class="st0" x1="153.5" y1="51.1" x2="153.5" y2="1.1"/>
<line class="st0" x1="204.4" y1="51.1" x2="204.4" y2="1.1"/>
<line class="st0" x1="255.4" y1="51.1" x2="255.4" y2="1.1"/>
<line class="st0" x1="306.3" y1="51.1" x2="306.3" y2="1.1"/>
<line class="st0" x1="357.2" y1="51.1" x2="357.2" y2="1.1"/>
<line class="st0" x1="412.8" y1="51.1" x2="412.8" y2="1.1"/>
<line class="st0" x1="463.8" y1="51.1" x2="463.8" y2="1.1"/>
<line class="st0" x1="514.7" y1="51.1" x2="514.7" y2="1.1"/>
<line class="st0" x1="565.7" y1="51.1" x2="565.7" y2="1.1"/>
<line class="st0" x1="616.6" y1="51.1" x2="616.6" y2="1.1"/>
<line class="st0" x1="667.6" y1="51.1" x2="667.6" y2="1.1"/>
<line class="st0" x1="0.2" y1="51.6" x2="51.6" y2="51.6"/>
<line class="st0" x1="51.6" y1="51.6" x2="102.5" y2="51.6"/>
<line class="st0" x1="102.5" y1="51.6" x2="153.5" y2="51.6"/>
<line class="st0" x1="153.5" y1="51.6" x2="204.4" y2="51.6"/>
<line class="st0" x1="204.4" y1="51.6" x2="255.4" y2="51.6"/>
<line class="st0" x1="255.4" y1="51.6" x2="306.3" y2="51.6"/>
<line class="st0" x1="306.3" y1="51.6" x2="357.2" y2="51.6"/>
<line class="st0" x1="357.2" y1="51.6" x2="412.8" y2="51.6"/>
<line class="st0" x1="412.8" y1="51.6" x2="463.8" y2="51.6"/>
<line class="st0" x1="463.8" y1="51.6" x2="514.7" y2="51.6"/>
<line class="st0" x1="514.7" y1="51.6" x2="565.7" y2="51.6"/>
<line class="st0" x1="565.7" y1="51.6" x2="616.6" y2="51.6"/>
<line class="st0" x1="616.6" y1="51.6" x2="668" y2="51.6"/>
<line class="st0" x1="357.2" y1="0.6" x2="412.8" y2="0.6"/>
<line class="st0" x1="412.8" y1="0.6" x2="463.8" y2="0.6"/>
<line class="st0" x1="463.8" y1="0.6" x2="514.7" y2="0.6"/>
<line class="st0" x1="514.7" y1="0.6" x2="565.7" y2="0.6"/>
<line class="st0" x1="565.7" y1="0.6" x2="616.6" y2="0.6"/>
<line class="st0" x1="616.6" y1="0.6" x2="668" y2="0.6"/>
<line class="st0" x1="0.6" y1="102.1" x2="0.6" y2="52"/>
<line class="st0" x1="51.6" y1="102.1" x2="51.6" y2="52"/>
<line class="st0" x1="102.5" y1="102.1" x2="102.5" y2="52"/>
<line class="st0" x1="153.5" y1="102.1" x2="153.5" y2="52"/>
<line class="st0" x1="204.4" y1="102.1" x2="204.4" y2="52"/>
<line class="st0" x1="255.4" y1="102.1" x2="255.4" y2="52"/>
<line class="st0" x1="306.3" y1="102.1" x2="306.3" y2="52"/>
<line class="st0" x1="357.2" y1="102.1" x2="357.2" y2="52"/>
<line class="st0" x1="412.8" y1="102.1" x2="412.8" y2="52"/>
<line class="st0" x1="463.8" y1="102.1" x2="463.8" y2="52"/>
<line class="st0" x1="514.7" y1="102.1" x2="514.7" y2="52"/>
<line class="st0" x1="565.7" y1="102.1" x2="565.7" y2="52"/>
<line class="st0" x1="616.6" y1="102.1" x2="616.6" y2="52"/>
<line class="st0" x1="667.6" y1="102.1" x2="667.6" y2="52"/>
<line class="st0" x1="0.2" y1="102.5" x2="51.6" y2="102.5"/>
<line class="st0" x1="51.6" y1="102.5" x2="102.5" y2="102.5"/>
<line class="st0" x1="102.5" y1="102.5" x2="153.5" y2="102.5"/>
<line class="st0" x1="153.5" y1="102.5" x2="204.4" y2="102.5"/>
<line class="st0" x1="204.4" y1="102.5" x2="255.4" y2="102.5"/>
<line class="st0" x1="255.4" y1="102.5" x2="306.3" y2="102.5"/>
<line class="st0" x1="306.3" y1="102.5" x2="357.2" y2="102.5"/>
<line class="st0" x1="357.2" y1="102.5" x2="412.8" y2="102.5"/>
<line class="st0" x1="412.8" y1="102.5" x2="463.8" y2="102.5"/>
<line class="st0" x1="463.8" y1="102.5" x2="514.7" y2="102.5"/>
<line class="st0" x1="514.7" y1="102.5" x2="565.7" y2="102.5"/>
<line class="st0" x1="565.7" y1="102.5" x2="616.6" y2="102.5"/>
<line class="st0" x1="616.6" y1="102.5" x2="668" y2="102.5"/>
<path d="M22.9,34.5v-8.2c0-1.3,1.1-2.4,2.5-2.4c0.7,0,1.3,0.3,1.8,0.8v-0.5c0-0.1,0-0.1,0.1-0.1c0,0,0,0,0,0h1.9
	c0.1,0,0.1,0.1,0.1,0.1v12.6c0,0.1-0.1,0.1-0.1,0.1c0,0,0,0,0,0h-1.8c-0.1,0-0.1,0-0.1-0.1c0,0,0,0,0,0v-1c-0.4,0.8-1.1,1.2-1.9,1.3
	C24,36.9,22.9,35.8,22.9,34.5z M26.1,34.8c0.6,0,1-0.4,1.1-0.9c0-0.1,0-0.2,0-0.2v-6.5c0-0.6-0.5-1.1-1.1-1.1S25,26.5,25,27.1
	c0,0,0,0,0,0v6.5c-0.1,0.5,0.3,1.1,0.8,1.2C25.9,34.8,26,34.8,26.1,34.8z"/>
<path d="M74,19.7h1.9c0.1,0,0.1,0,0.1,0.1c0,0,0,0,0,0v4.8c0.9-1,2.5-1,3.5-0.1c0.5,0.5,0.8,1.1,0.8,1.7v8.2c0,1.4-1.2,2.5-2.5,2.4
	c-0.7,0-1.3-0.3-1.8-0.8v0.5c0,0.1-0.1,0.1-0.1,0.1c0,0,0,0,0,0H74c-0.1,0-0.1,0-0.1-0.1c0,0,0,0,0,0V19.8
	C73.9,19.7,73.9,19.7,74,19.7C74,19.7,74,19.7,74,19.7z M76,33.6c0,0.6,0.5,1.1,1.1,1.1c0.6,0,1.1-0.5,1.1-1.1c0,0,0,0,0,0v-6.5
	c0-0.6-0.5-1.1-1.1-1.1c-0.6,0-1.1,0.5-1.1,1.1c0,0,0,0,0,0V33.6z"/>
<path d="M125,27.6c0-2.6,1.5-3.8,3.2-3.8c1.7,0,3.1,1.3,3.2,3c0,0.1,0,0.2,0,0.2c0,0.1,0,0.1-0.1,0.1c0,0,0,0,0,0h-1.9
	c-0.1,0-0.1,0-0.1-0.1c0,0,0,0,0,0c0.1-0.5-0.3-1-0.9-1.1c0,0-0.1,0-0.1,0c-0.5-0.1-1,0.3-1.1,0.9c0,0.1,0,0.2,0,0.3v6.5
	c0,0.6,0.5,1.1,1.1,1.1s1.1-0.5,1.1-1.1c0,0,0,0,0,0c0-0.1,0-0.1,0.1-0.1c0,0,0,0,0,0h1.9c0.1,0,0.1,0.1,0.1,0.1c0,0,0,0,0,0
	c0.1,1.7-1.2,3.2-2.9,3.3c-0.1,0-0.2,0-0.3,0c-1.7,0-3.2-1.2-3.2-3.8L125,27.6z"/>
<path d="M175.7,34.5v-8.2c0-1.3,1.1-2.4,2.5-2.4c0.7,0,1.3,0.3,1.8,0.8v-4.8c0-0.1,0-0.1,0.1-0.1c0,0,0,0,0,0h1.9
	c0.1,0,0.1,0.1,0.1,0.1c0,0,0,0,0,0v16.9c0,0.1-0.1,0.1-0.1,0.1h-1.9c-0.1,0-0.1,0-0.1-0.1c0,0,0,0,0,0v-0.5c-0.9,1-2.5,1-3.5,0.1
	C176,35.8,175.7,35.2,175.7,34.5L175.7,34.5z M179,34.8c0.6,0,1-0.4,1-1c0-0.1,0-0.1,0-0.2v-6.5c0.1-0.6-0.4-1.1-1-1.2
	c-0.6-0.1-1.1,0.4-1.2,1c0,0.1,0,0.1,0,0.2v6.5c-0.1,0.5,0.3,1.1,0.8,1.2C178.8,34.8,178.9,34.8,179,34.8L179,34.8z"/>
<path d="M226.8,33.1v-5.5c0-2.6,1.5-3.8,3.2-3.8c1.8,0,3.2,1.4,3.2,3.2c0,0.1,0,0.1,0,0.2v3.8c0,0.1-0.1,0.1-0.1,0.1c0,0,0,0,0,0
	h-4.1v2.5c0,0.6,0.5,1.1,1.1,1.1s1.1-0.5,1.1-1.1c0,0,0,0,0,0c0-0.1,0-0.1,0.1-0.1c0,0,0,0,0,0h1.9c0.1,0,0.1,0,0.1,0.1c0,0,0,0,0,0
	c0.1,1.7-1.3,3.2-3,3.3c-0.1,0-0.1,0-0.2,0C228.3,36.9,226.8,35.7,226.8,33.1z M231.1,29.3v-2.2c0-0.6-0.5-1.1-1.1-1.1
	s-1.1,0.5-1.1,1.1c0,0,0,0,0,0v2.2H231.1z"/>
<path d="M278.3,25.7v-1.6c0-0.1,0-0.1,0.1-0.1c0,0,0,0,0,0h1v-1.3c0-2.5,1.2-3,3.2-3h0.4c0.1,0,0.1,0,0.1,0.1c0,0,0,0,0,0v1.9
	c0,0.1,0,0.1-0.1,0.1c0,0,0,0,0,0h-0.4c-0.7,0-1.1,0.2-1.1,1V24h1.5c0.1,0,0.1,0,0.1,0.1c0,0,0,0,0,0v1.6c0,0.1-0.1,0.1-0.1,0.1
	c0,0,0,0,0,0h-1.5v10.8c0,0.1-0.1,0.1-0.1,0.1h-1.9c-0.1,0-0.1,0-0.1-0.1c0,0,0,0,0,0V25.8h-1C278.3,25.8,278.3,25.8,278.3,25.7
	C278.3,25.7,278.3,25.7,278.3,25.7z"/>
<path d="M328.6,26.2c0-1.4,1.2-2.5,2.5-2.4c0.7,0,1.3,0.3,1.7,0.8v-0.5c0-0.1,0.1-0.1,0.1-0.1h1.9c0.1,0,0.1,0,0.1,0.1c0,0,0,0,0,0
	v13.3c0,2.6-1.5,3.8-3.2,3.8c-1.7,0.1-3.1-1.3-3.2-3c0-0.1,0-0.2,0-0.3c0-0.1,0-0.1,0.1-0.1h1.9c0.1,0,0.1,0.1,0.1,0.1
	c0,0.6,0.5,1.1,1.1,1.1s1.1-0.5,1.1-1.1v-2.8c-0.9,1-2.5,1-3.5,0.1c-0.5-0.5-0.8-1.1-0.8-1.7V26.2z M330.7,27.1v5.4
	c0,0.6,0.5,1.1,1.1,1.1s1.1-0.5,1.1-1.1v-5.4c0-0.6-0.5-1.1-1.1-1.1S330.7,26.5,330.7,27.1z"/>
<path d="M381.9,36.7V19.8c0-0.1,0-0.1,0.1-0.1c0,0,0,0,0,0h1.9c0.1,0,0.1,0.1,0.1,0.1c0,0,0,0,0,0v4.8c0.9-1,2.5-1,3.5-0.1
	c0.5,0.5,0.8,1.1,0.8,1.7v10.4c0,0.1-0.1,0.1-0.1,0.1c0,0,0,0,0,0h-1.9c-0.1,0-0.1,0-0.1-0.1c0,0,0,0,0,0v-9.5
	c0-0.6-0.5-1.1-1.1-1.1s-1.1,0.5-1.1,1.1v9.5c0,0.1-0.1,0.1-0.1,0.1H382C381.9,36.8,381.9,36.8,381.9,36.7
	C381.9,36.7,381.9,36.7,381.9,36.7z"/>
<path d="M437.3,19.8c0-0.1,0-0.1,0.1-0.1c0,0,0,0,0,0h1.9c0.1,0,0.1,0,0.1,0.1c0,0,0,0,0,0v1.9c0,0.1,0,0.1-0.1,0.1c0,0,0,0,0,0
	h-1.9c-0.1,0-0.1-0.1-0.1-0.1c0,0,0,0,0,0V19.8z M437.3,36.7V24.1c0-0.1,0-0.1,0.1-0.1c0,0,0,0,0,0h1.9c0.1,0,0.1,0,0.1,0.1
	c0,0,0,0,0,0v12.6c0,0.1-0.1,0.1-0.1,0.1c0,0,0,0,0,0h-1.9C437.3,36.8,437.3,36.7,437.3,36.7z"/>
<path d="M487.1,39.2c0-0.1,0.1-0.1,0.1-0.1c0,0,0,0,0,0c0.6,0,1-0.2,1-1v-14c0-0.1,0-0.1,0.1-0.1h1.9c0.1,0,0.1,0,0.1,0.1
	c0,0,0,0,0,0v14.1c0,2.4-1.2,3-3.1,3c-0.1,0-0.1,0-0.1-0.1c0,0,0,0,0,0L487.1,39.2z M488.2,19.8c0-0.1,0-0.1,0.1-0.1c0,0,0,0,0,0
	h1.9c0.1,0,0.1,0,0.1,0.1c0,0,0,0,0,0v1.9c0,0.1,0,0.1-0.1,0.1c0,0,0,0,0,0h-1.9c-0.1,0-0.1,0-0.1-0.1c0,0,0,0,0,0V19.8z"/>
<path d="M536.9,19.8c0-0.1,0-0.1,0.1-0.1c0,0,0,0,0,0h1.9c0.1,0,0.1,0,0.1,0.1c0,0,0,0,0,0v9.3l3-5c0-0.1,0.1-0.1,0.2-0.1h2
	c0.1,0,0.1,0,0,0.1l-3.1,5l3.5,7.6c0,0.1,0,0.1-0.1,0.1h-2c-0.1,0-0.1,0-0.2-0.1l-2.5-5.6l-1,1.5v4c0,0.1-0.1,0.1-0.1,0.1
	c0,0,0,0,0,0H537c-0.1,0-0.1-0.1-0.1-0.1L536.9,19.8z"/>
<path d="M589.8,33.9V19.8c0-0.1,0-0.1,0.1-0.1c0,0,0,0,0,0h1.9c0.1,0,0.1,0.1,0.1,0.1c0,0,0,0,0,0v14c0,0.8,0.3,1,1,1
	c0.1,0,0.1,0,0.1,0.1c0,0,0,0,0,0v1.9c0,0.1-0.1,0.1-0.1,0.1l0,0C591,36.9,589.8,36.4,589.8,33.9z"/>
<path d="M636.9,24h1.9c0.1,0,0.1,0,0.1,0.1c0,0,0,0,0,0v0.5c0.9-1,2.5-1,3.5-0.1c0.2,0.2,0.3,0.3,0.4,0.5c0.7-1.2,2.2-1.6,3.4-0.9
	c0.7,0.4,1.2,1.2,1.2,2.1v10.4c0,0.1-0.1,0.1-0.1,0.1c0,0,0,0,0,0h-1.9c-0.1,0-0.1-0.1-0.1-0.1v-9.5c0-0.6-0.5-1.1-1.1-1.1
	s-1.1,0.5-1.1,1.1v9.5c0,0.1-0.1,0.1-0.1,0.1c0,0,0,0,0,0h-1.9c-0.1,0-0.1,0-0.1-0.1c0,0,0,0,0,0v-9.5c0-0.6-0.5-1.1-1.1-1.1
	s-1.1,0.5-1.1,1.1v9.5c0,0.1-0.1,0.1-0.1,0.1c0,0,0,0,0,0h-1.9c-0.1,0-0.1,0-0.1-0.1c0,0,0,0,0,0V24.1C636.8,24,636.9,24,636.9,24z"
	/>
<path d="M22.9,87.6V75c0-0.1,0-0.1,0.1-0.1c0,0,0,0,0,0h1.9c0.1,0,0.1,0,0.1,0.1c0,0,0,0,0,0v0.5c0.9-1,2.5-1.1,3.5-0.1
	c0.5,0.5,0.8,1.1,0.8,1.8v10.5c0,0.1-0.1,0.1-0.1,0.1c0,0,0,0,0,0h-1.9c-0.1,0-0.1-0.1-0.1-0.1l0,0v-9.5c0-0.6-0.5-1.1-1.1-1.1
	c-0.6,0-1.1,0.5-1.1,1.1c0,0,0,0,0,0v9.5c0,0.1-0.1,0.1-0.1,0.1c0,0,0,0,0,0H23C23,87.7,22.9,87.7,22.9,87.6L22.9,87.6z"/>
<path d="M73.9,84.1v-5.5c0-2.6,1.5-3.8,3.2-3.8s3.2,1.2,3.2,3.8v5.5c0,2.6-1.5,3.8-3.2,3.8S73.9,86.7,73.9,84.1z M76,84.6
	c0,0.6,0.5,1.1,1.1,1.1c0.6,0,1.1-0.5,1.1-1.1c0,0,0,0,0,0v-6.5c0-0.6-0.5-1.1-1.1-1.1c-0.6,0-1.1,0.5-1.1,1.1c0,0,0,0,0,0V84.6z"/>
<path d="M124.8,91.9V75c0-0.1,0-0.1,0.1-0.1c0,0,0,0,0,0h1.9c0.1,0,0.1,0,0.1,0.1c0,0,0,0,0,0v0.5c0.9-1,2.5-1.1,3.5-0.1
	c0.5,0.5,0.8,1.1,0.8,1.8v8.2c0,1.4-1.1,2.5-2.5,2.5c-0.7,0-1.3-0.3-1.8-0.8v4.8c0,0.1-0.1,0.1-0.1,0.1c0,0,0,0,0,0H125
	C124.9,92,124.9,92,124.8,91.9C124.8,91.9,124.8,91.9,124.8,91.9z M127,84.6c0,0.6,0.5,1.1,1.1,1.1c0.6,0,1.1-0.5,1.1-1.1
	c0,0,0,0,0,0v-6.5c0-0.6-0.5-1.1-1.1-1.1c-0.6,0-1.1,0.5-1.1,1.1c0,0,0,0,0,0V84.6z"/>
<path d="M175.8,85.4v-8.2c0-1.4,1.1-2.4,2.5-2.4c0.7,0,1.3,0.3,1.8,0.8v-0.7h2.1v17c0,0.1-0.1,0.1-0.1,0.1h-1.9
	c-0.1,0-0.1,0-0.1-0.1c0,0,0,0,0,0v-4.8c-0.9,1-2.5,1-3.5,0.1C176.1,86.7,175.8,86.1,175.8,85.4z M179,85.7c0.6,0,1-0.4,1.1-0.9
	c0-0.1,0-0.2,0-0.2v-6.5c0.1-0.6-0.4-1.1-1-1.2c-0.6-0.1-1.1,0.4-1.2,1c0,0.1,0,0.1,0,0.2v6.5c-0.1,0.5,0.3,1.1,0.8,1.2
	C178.8,85.7,178.9,85.7,179,85.7L179,85.7z"/>
<path d="M227.8,74.9h1.9c0.1,0,0.1,0,0.1,0.1c0,0,0,0,0,0v0.5c0.5-0.5,1.3-0.8,2-0.8c0.3,0,0.5,0,0.8,0.1c0.1,0,0.1,0.1,0.1,0.2v1.9
	c0,0.1,0,0.1-0.1,0.1s-0.4,0-0.6,0c-1.1-0.1-2.1,0.7-2.2,1.8c0,0.2,0,0.3,0,0.5v8.4c0,0.1-0.1,0.1-0.1,0.1c0,0,0,0,0,0h-1.9
	c-0.1,0-0.1-0.1-0.1-0.1L227.8,74.9C227.8,75,227.8,74.9,227.8,74.9z"/>
<path d="M277.8,84.5h1.9c0.1,0,0.1,0.1,0.1,0.1c0,0,0,0,0,0v0.1c0,0.6,0.5,1,1,1s1-0.5,1-1v-0.5c0-0.4-0.2-0.7-0.7-1.2l-2.6-2.8
	c-1.2-1.2-1.2-3.3,0-4.5c1.2-1.2,3.3-1.2,4.5,0c0.6,0.6,0.9,1.4,0.9,2.3l0,0c0,0.1-0.1,0.1-0.1,0.1H282c-0.1,0-0.1,0-0.1-0.1
	c0,0,0,0,0,0l0,0c0-0.6-0.4-1-0.9-1.1c0,0-0.1,0-0.1,0c-0.5,0-1,0.3-1,0.9c0,0,0,0.1,0,0.1v0.3c0,0.7,0.6,1.1,1.1,1.6l1.6,1.6
	c0.9,0.7,1.4,1.8,1.4,2.9v0.3c0,1.8-1.4,3.2-3.1,3.2c0,0,0,0,0,0c-1.8,0-3.2-1.5-3.2-3.3c0,0,0,0,0,0
	C277.7,84.5,277.8,84.5,277.8,84.5C277.8,84.5,277.8,84.5,277.8,84.5z"/>
<path d="M329.2,76.7V75c0-0.1,0-0.1,0.1-0.1c0,0,0,0,0,0h1v-3.1c0-0.1,0-0.1,0.1-0.1c0,0,0,0,0,0h1.9c0.1,0,0.1,0,0.1,0.1
	c0,0,0,0,0,0v3.1h1.3c0.1,0,0.1,0,0.1,0.1c0,0,0,0,0,0v1.6c0,0.1-0.1,0.1-0.1,0.1c0,0,0,0,0,0h-1.3v7.8c0,0.8,0.4,1,1.1,1h0.2
	c0.1,0,0.1,0,0.1,0.1c0,0,0,0,0,0v1.9c0,0.1-0.1,0.1-0.1,0.1c0,0,0,0,0,0h-0.2c-2,0-3.2-0.5-3.2-3v-8h-1
	C329.3,76.7,329.3,76.7,329.2,76.7z"/>
<path d="M382,74.9h1.9c0.1,0,0.1,0,0.1,0.1v9.5c0,0.6,0.5,1.1,1.1,1.1s1.1-0.5,1.1-1.1V75c0-0.1,0-0.1,0.1-0.1c0,0,0,0,0,0h1.9
	c0.1,0,0.1,0.1,0.1,0.1c0,0,0,0,0,0v12.6c0,0.1-0.1,0.1-0.1,0.1h-1.9c-0.1,0-0.1-0.1-0.1-0.1v-0.5c-0.5,0.5-1.1,0.8-1.8,0.8
	c-1.3,0-2.4-1.1-2.5-2.4V75C381.9,74.9,381.9,74.9,382,74.9z"/>
<path d="M434.5,74.9h1.9c0.1,0,0.1,0.1,0.1,0.1c0,0,0,0,0,0l1.8,8.7l1.9-8.7c0-0.1,0.1-0.1,0.1-0.1c0,0,0,0,0,0h1.9
	c0.1,0,0.1,0,0.1,0.1l-2.9,12.6c0,0.1-0.1,0.1-0.1,0.1h-1.9c-0.1,0-0.1,0-0.1-0.1L434.4,75C434.4,75,434.4,74.9,434.5,74.9z"/>
<path d="M483,74.9h1.9c0.1,0,0.1,0.1,0.1,0.1c0,0,0,0,0,0l1.6,8.7l1.6-8.7c0-0.1,0.1-0.1,0.1-0.1c0,0,0,0,0,0h1.9
	c0.1,0,0.1,0.1,0.2,0.1l1.6,8.7l1.6-8.7c0-0.1,0.1-0.1,0.1-0.1h1.9c0.1,0,0.1,0,0.1,0.1c0,0,0,0,0,0l-2.6,12.6
	c0,0.1-0.1,0.1-0.1,0.1h-1.9c-0.1,0-0.1-0.1-0.1-0.1l-1.6-8.6l-1.6,8.6c0,0.1-0.1,0.1-0.1,0.1h-1.9c-0.1,0-0.1,0-0.2-0.1L483,74.9
	L483,74.9z"/>
<path d="M536.5,87.6l2.7-6.3l-2.7-6.3c0-0.1,0-0.1,0.1-0.1h2c0.1,0,0.1,0.1,0.2,0.1l1.6,3.9l1.6-3.9c0-0.1,0.1-0.1,0.2-0.1h2
	c0.1,0,0.1,0,0.1,0.1l-2.7,6.3l2.7,6.3c0,0.1,0,0.1-0.1,0.1h-2c-0.1,0-0.1,0-0.2-0.1l-1.6-3.9l-1.6,3.9c0,0.1-0.1,0.1-0.2,0.1
	L536.5,87.6C536.5,87.7,536.4,87.7,536.5,87.6z"/>
<path d="M587.3,74.9h1.9c0.1,0,0.1,0.1,0.1,0.1c0,0,0,0,0,0l1.8,8.7l1.9-8.7c0-0.1,0.1-0.1,0.1-0.1c0,0,0,0,0,0h1.9
	c0.1,0,0.1,0,0.1,0.1l-2.6,11.2l-0.6,2.8c-0.7,2.8-1.8,3-3.8,3c-0.1,0-0.1,0-0.1-0.1c0,0,0,0,0,0V90c0-0.1,0-0.1,0.1-0.1
	c0,0,0,0,0,0c0.6,0,1.4,0,1.7-1.2l0.2-1L587.2,75C587.2,75,587.3,74.9,587.3,74.9z"/>
<path d="M639.1,87.6v-1.8c0-0.1,0-0.2,0-0.2l3.7-8.6h-3.3c-0.1,0-0.1,0-0.1-0.1c0,0,0,0,0,0V75c0-0.1,0-0.1,0.1-0.1c0,0,0,0,0,0h5.6
	c0.1,0,0.1,0,0.1,0.1c0,0,0,0,0,0v1.8c0,0.1,0,0.1,0,0.2l-3.7,8.6h3.6c0.1,0,0.1,0,0.1,0.1c0,0,0,0,0,0v1.9c0,0.1-0.1,0.1-0.1,0.1
	c0,0,0,0,0,0L639.1,87.6C639.2,87.7,639.1,87.7,639.1,87.6z"/>
</svg>
