<svg id="592db7d4-1c62-49e3-9447-f4bd6fa82cf2" data-name="Layer 1" xmlns="http://www.w3.org/2000/svg" viewBox="0 0 6683 5194.09"><defs><style>.\31 0b67dcb-a7f3-4917-8e74-6b8e99362931{opacity:0;}</style></defs><title>Untitled-1</title><path d="M48.89,659.86V45.65A11.31,11.31,0,0,1,60.1,34.45h59.08c6.11,0,10.18,4.07,12.22,9.16L251.59,380.77,368.73,43.61q3.06-9.16,12.22-9.16H440a11.31,11.31,0,0,1,11.21,11.2V659.86A11.31,11.31,0,0,1,440,671.07H371.79c-6.11,0-12.23-5.09-12.23-11.21V314.56l-82.5,231.22c-1,3.06-4.08,8.15-12.23,8.15H235.3c-8.15,0-11.21-6.11-12.23-8.15l-82.5-231.22v345.3c0,6.12-6.12,11.21-12.23,11.21H60.1C53,671.07,48.89,667,48.89,659.86Z"/><path d="M520.5,204.55c0-7.13,5.09-11.2,10.19-11.2h68.24c6.12,0,12.23,5.09,12.23,10.18l61.11,285.21,61.12-285.21c0-6.11,6.11-10.18,12.22-10.18h68.25c6.11,0,10.18,4.07,10.18,11.2v1L730.33,613,707.92,716.9C685.51,808.58,655,830,563.28,830a11.3,11.3,0,0,1-11.2-11.21V749.5a11.3,11.3,0,0,1,11.2-11.2h2c22.41,0,42.78,0,53-36.67L626.44,665,520.5,204.55Z"/><path d="M889.23,193.35h68.25a11.3,11.3,0,0,1,11.2,11.2v5.09a109.38,109.38,0,0,1,64.18-20.37c11.2,0,20.37,1,30.55,4.08,6.11,2,7.13,6.11,7.13,12.22V272.8c0,4.07-1,6.11-4.07,8.15-2,1-5.09,1-8.15,1a124.59,124.59,0,0,0-19.35-2c-46.86,0-71.31,29.54-71.31,76.39V660.88a11.31,11.31,0,0,1-11.2,11.21H888.21A11.31,11.31,0,0,1,877,660.88V204.55C878,198.44,883.12,193.35,889.23,193.35Z"/><path d="M1137.77,193.35h28.52v-108c0-6.12,5.09-12.23,11.21-12.23h68.24c6.11,0,12.22,6.11,12.22,12.23v108h39.73a11.3,11.3,0,0,1,11.2,11.2v59.08a11.3,11.3,0,0,1-11.2,11.2H1258v275c0,25.46,10.19,29.53,30.56,29.53h8.15c6.11,0,11.21,6.12,11.21,12.23v68.24a11.31,11.31,0,0,1-11.21,11.21h-8.15c-84.54,0-123.25-27.5-123.25-116.12V274.83h-28.52a11.3,11.3,0,0,1-11.2-11.2V204.55C1126.57,198.44,1130.64,193.35,1137.77,193.35Z"/><path d="M1396.49,658.85V45.65c0-6.11,5.1-12.22,11.21-12.22h68.24c6.12,0,11.21,6.11,11.21,12.22v163c17.31-13.25,37.69-19.36,59.08-19.36,52,0,97.78,41.77,97.78,94.73V659.86c0,6.12-6.11,11.21-12.22,11.21h-68.25a11.3,11.3,0,0,1-11.2-11.21V315.58c0-21.39-11.21-34.63-31.58-34.63-28.52,0-32.59,21.39-32.59,34.63V659.86A11.31,11.31,0,0,1,1477,671.07h-68.24Q1396.5,669.54,1396.49,658.85Z"/><path d="M1731.61,331.88c0-76.4,40.74-143.63,123.25-143.63,73.34,0,122.23,58.06,122.23,129.37V456.14a11.3,11.3,0,0,1-11.2,11.21H1822.27v82.51c0,21.39,12.22,33.61,32.59,33.61,9.17,0,30.56-3.06,30.56-33.61a11.3,11.3,0,0,1,11.2-11.21h68.25a11.3,11.3,0,0,1,11.2,11.21c-2,70.28-49.91,126.3-122.23,126.3-82.5,0-123.25-68.24-123.25-144.64V331.88Zm90.66,55h64.17V314.56c0-21.39-11.21-34.63-30.56-34.63-20.37,0-32.6,13.24-32.6,34.63v72.32Z"/><path d="M2058.58,283c0-53,44.82-94.73,96.77-94.73,21.39,0,41.76,6.12,59.08,19.36v-4.08a11.3,11.3,0,0,1,11.2-11.2h69.26a11.3,11.3,0,0,1,11.21,11.2V689.4c0,76.4-40.74,145.66-123.25,145.66-73.34,0-123.25-53-123.25-125.29,0-2,0-6.11,1-7.13,2-2,5.09-5.09,10.18-5.09H2138c6.11,0,12.22,5.09,12.22,11.21,0,22.41,12.23,35.65,31.58,35.65s31.58-13.24,31.58-35.65v-87.6c-17.32,13.24-37.69,19.35-59.08,19.35-51.95,0-96.77-41.76-96.77-94.73V283Zm124.27,265.86c19.35,0,31.58-13.24,31.58-34.64V315.58c0-21.39-12.23-34.63-31.58-34.63s-31.58,13.24-31.58,34.63V514.2C2150.25,535.6,2162.48,548.84,2182.85,548.84Z"/><path d="M2405.92,582.45V283c0-53,42.78-94.73,95.75-94.73,21.39,0,41.76,6.12,59.08,19.36v-4.08a11.3,11.3,0,0,1,11.2-11.2h68.25a11.3,11.3,0,0,1,11.2,11.2V658.85a11.3,11.3,0,0,1-11.2,11.2H2576a11.3,11.3,0,0,1-11.21-11.2V644.58c-17.31,19.36-38.7,29.54-64.17,29.54C2449.72,676.16,2405.92,634.4,2405.92,582.45Zm90.66-266.87V550.87c0,29.54,19.35,34.64,31.57,34.64,20.37,0,31.58-13.25,31.58-34.64V315.58c0-22.41-11.21-35.65-31.58-35.65C2515.93,279.93,2496.58,284,2496.58,315.58Z"/><path d="M2718.63,204.55c0-6.11,6.11-11.2,11.2-11.2h28.52V150.57c0-88.62,39.73-116.12,123.25-116.12h15.28a11.3,11.3,0,0,1,11.21,11.2v69.27a11.3,11.3,0,0,1-11.21,11.2H2881.6c-21.39,0-31.57,5.09-31.57,29.54v37.69h46.85a11.3,11.3,0,0,1,11.21,11.2v59.08a11.3,11.3,0,0,1-11.21,11.2H2850v385a11.3,11.3,0,0,1-11.21,11.21h-68.24c-6.11,0-12.23-5.09-12.23-11.21v-385h-28.52a11.3,11.3,0,0,1-11.2-11.2Z"/><path d="M3002.82,34.45h69.26a11.31,11.31,0,0,1,11.21,11.2V555c0,24.44,9.16,29.54,28.52,29.54a11.3,11.3,0,0,1,11.2,11.2V665a11.3,11.3,0,0,1-11.2,11.2c-81.49,0-120.2-31.58-120.2-116.12V45.65C2991.61,38.52,2996.71,34.45,3002.82,34.45Z"/><path d="M3320.62,188.25c82.51,0,122.23,67.23,122.23,143.63V532.54c0,75.38-39.72,144.64-122.23,144.64s-123.25-68.25-123.25-144.64V331.88C3197.37,255.48,3237.09,188.25,3320.62,188.25Zm0,396.24c9.17,0,30.56-3.06,30.56-33.62V314.56c0-21.39-11.21-34.63-30.56-34.63-20.37,0-32.6,13.24-32.6,34.63V550.87C3288,572.26,3300.25,584.49,3320.62,584.49Z"/><path d="M3536.56,659.86V204.55a11.3,11.3,0,0,1,11.21-11.2H3616a11.31,11.31,0,0,1,11.21,11.2v4.08c17.31-13.25,37.68-19.36,59.07-19.36,51.95,0,95.75,40.75,95.75,93.71v377.9a11.31,11.31,0,0,1-11.2,11.21h-68.25a11.31,11.31,0,0,1-11.2-11.21V314.56c0-21.39-11.21-34.63-30.56-34.63-12.22,0-32.6,5.09-32.6,34.63v345.3a11.3,11.3,0,0,1-11.2,11.21h-68.25C3541.65,671.07,3536.56,667,3536.56,659.86Z"/><path d="M3879.83,152.6V39.54a1,1,0,0,1,1-1h22.41c17.31,0,27.5,10.19,27.5,28.52V79.26c0,10.19-4.08,18.34-10.19,23.43l17.32,50.93v1h-13.24a1,1,0,0,1-1-1l-15.28-45.83h-12.22V152.6a1,1,0,0,1-1,1l-15.28-1C3880.85,153.62,3879.83,153.62,3879.83,152.6Zm14.26-60.09h8.15c10.18,0,13.24-5.1,13.24-14.26V68.06c0-9.17-3.06-14.26-13.24-14.26h-8.15Z"/><path d="M3906.31,8a88.69,88.69,0,0,0-88.62,88.62c0,48.89,39.73,87.6,88.62,87.6s88.62-39.73,88.62-87.6C3993.91,47.69,3954.18,8,3906.31,8Zm-1,162a73.34,73.34,0,1,1,73.34-73.34A73,73,0,0,1,3905.29,169.92Z"/><path d="M4375.88,547.82h51.95q3.06,0,3.06,3v29.54c0,24.45,8.15,38.71,29.54,38.71,20.37,0,28.52-14.26,28.52-38.71V477.54c0-25.47-15.28-38.71-36.67-38.71H4436q-3.06,0-3.06-3.06V383.82a3.26,3.26,0,0,1,3.06-3.05h12.22c18.34,0,40.75-24.45,40.75-69.27V297.24c0-24.44-8.15-38.7-28.52-38.7-21.39,1-29.54,15.28-29.54,38.7v28.52q0,3.06-3.06,3.06h-51.95q-3,0-3.05-3.06V297.24c0-54,34.63-98.8,87.6-98.8,51.95,0,87.6,43.8,87.6,96.77v22.41c0,33.61-5.1,45.83-26.49,76.39l-7.13,8.15c20.37,20.37,32.6,54,32.6,99.82v80.47c0,51.95-34.63,95.75-87.6,95.75s-87.6-43.8-87.6-98.81V550.87C4372.83,549.86,4373.85,547.82,4375.88,547.82Z"/><path d="M4629.51,294.19c0-53,38.71-94.73,87.6-94.73,47.88,0,87.6,41.76,87.6,91.67V584.49c0,50.93-38.7,92.69-87.6,92.69s-87.6-41.76-87.6-93.71Zm58.06,283.17c0,26.48,7.13,41.76,29.54,41.76,21.39,0,28.52-16.3,28.52-42.78v-276c0-26.48-7.13-41.76-28.52-41.76-22.41,0-29.54,16.29-29.54,41.76Z"/><path d="M4949.35,321.69h51.95q3.06,0,3.06,3.06V339c12.22-13.25,29.54-21.39,49.91-21.39,24.44,0,46.85,13.24,58.06,32.59,11.2-20.37,32.59-32.59,58.06-32.59,36.67,0,67.22,30.55,67.22,66.2V668c0,2-1,3.06-3,3.06h-52q-3.06,0-3.06-3.06V408.27c0-22.41-13.24-31.58-28.52-31.58-16.29,0-29.54,9.17-29.54,31.58V669c0,2-1,3.06-3.05,3.06h-51.95c-2,0-3.05-1-3.05-3.06V408.27c0-22.41-13.25-31.58-28.53-31.58-16.29,0-29.53,9.17-29.53,31.58V669q0,3.06-3.06,3.06h-51.95c-2,0-3.05-1-3.05-3.06V325.76C4946.3,323.73,4947.31,321.69,4949.35,321.69Z"/><path d="M5317.06,384.84c0-35.65,30.56-66.21,67.23-66.21,20.37,0,36.67,8.15,49.91,21.39V325.76q0-3,3.06-3.05h51.95a2.7,2.7,0,0,1,3.05,3.05V690.42c0,70.28-41.76,103.9-87.6,103.9-43.8,0-86.58-28.52-87.6-89.64-1-2,1-3,3.06-3h50.93c2,0,3.06,1,3.06,3,0,21.39,13.24,31.58,29.54,31.58s28.52-10.19,28.52-31.58V627.27c-12.23,13.24-29.54,21.39-49.92,21.39-36.66,0-67.22-30.56-67.22-66.21V384.84Zm58.06,23.43V557c0,21.39,13.25,31.57,29.54,31.57s28.52-10.18,28.52-31.57V408.27c0-21.39-13.24-31.58-28.52-31.58C5388.37,376.69,5375.12,386.88,5375.12,408.27Z"/><path d="M62.13,1020.45v-10.19a1,1,0,0,1,1-1H82.51a1,1,0,0,1,1,1v11.2c0,9.17,6.12,14.27,14.27,15.28,8.14,0,14.26-5.09,14.26-15.28v-12.22a32.71,32.71,0,0,0-6.12-18.33L86.58,967.48s-10.19-11.21-14.26-17.32c-8.15-12.22-10.19-16.29-10.19-28.52v-8.15c0-19.35,16.3-36.67,35.66-36.67,20.37,0,35.65,16.3,35.65,37.69V924.7a1,1,0,0,1-1,1H113.06a1,1,0,0,1-1-1V913.49c0-9.16-5.1-14.26-13.25-15.28-8.15,0-14.26,5.1-14.26,15.28v7.13c0,10.19,6.11,16.3,9.17,21.39L109,960.35s10.19,11.2,14.26,17.32c8.15,12.22,10.19,18.33,10.19,35.65v8.14c0,19.36-16.3,36.67-35.65,36.67C77.41,1058.13,62.13,1040.82,62.13,1020.45Z"/><path d="M163,1018.41v-57c0-26.49,15.27-38.71,33.61-38.71,17.31,0,33.61,12.22,33.61,38.71v57c0,26.48-15.28,39.72-33.61,39.72C178.25,1057.12,163,1044.89,163,1018.41Zm21.39,5.09c0,8.15,5.09,12.23,11.2,12.23s11.2-4.08,11.2-12.23V956.27c0-8.14-5.09-12.22-11.2-12.22s-11.2,4.08-11.2,12.22Z"/><path d="M256.69,1032.67V947.11c0-13.24,11.2-25.47,25.46-25.47,7.13,0,14.26,3.06,18.34,8.15V879.88a1,1,0,0,1,1-1h19.36a1,1,0,0,1,1,1v175.2a1,1,0,0,1-1,1H301.5a1,1,0,0,1-1-1V1049c-5.1,5.09-11.21,8.15-18.34,8.15C268.91,1057.12,256.69,1045.91,256.69,1032.67Zm33.61,2c6.11,0,11.2-4.08,11.2-12.23V955.26c0-8.15-5.09-12.23-11.2-12.23s-11.21,4.08-11.21,12.23v67.22C279.09,1031.65,284.19,1034.71,290.3,1034.71Z"/><path d="M353.45,879.88a1,1,0,0,1,1-1h19.35a1,1,0,0,1,1,1v19.35a1,1,0,0,1-1,1H354.47a1,1,0,0,1-1-1Zm0,175.2V924.7a1,1,0,0,1,1-1h19.35a1,1,0,0,1,1,1v130.38a1,1,0,0,1-1,1H354.47A1,1,0,0,1,353.45,1055.08Z"/><path d="M406.42,922.66h19.35a1,1,0,0,1,1,1v98.8c0,8.15,5.09,12.23,11.21,12.23s11.2-4.08,11.2-12.23v-98.8a1,1,0,0,1,1-1h19.35a1,1,0,0,1,1,1v130.38a1,1,0,0,1-1,1H450.22a1,1,0,0,1-1-1V1049c-5.09,5.09-11.2,8.15-18.33,8.15a25.23,25.23,0,0,1-25.47-25.47v-107C405.4,923.68,405.4,922.66,406.42,922.66Z"/><path d="M502.17,922.66h19.35a1,1,0,0,1,1,1v5.09c5.09-5.09,11.2-8.15,18.33-8.15,9.17,0,17.32,5.1,22.41,12.23,4.08-7.13,12.23-12.23,22.41-12.23a25.23,25.23,0,0,1,25.47,25.47v108a1,1,0,0,1-1,1H590.78a1,1,0,0,1-1-1v-98.8c0-8.15-5.1-12.23-11.21-12.23s-11.2,4.08-11.2,12.23v98.8a1,1,0,0,1-1,1H547a1,1,0,0,1-1-1v-98.8c0-8.15-5.1-12.23-11.21-12.23s-11.2,4.08-11.2,12.23v98.8a1,1,0,0,1-1,1H503.19a1,1,0,0,1-1-1V924.7A1.41,1.41,0,0,1,502.17,922.66Z"/><path d="M685.51,960.35c0-26.48,15.28-38.71,33.62-38.71,16.3,0,32.59,10.19,33.61,33.62a1,1,0,0,1-1,1H732.37a1,1,0,0,1-1-1c0-8.15-5.09-12.23-11.2-12.23s-11.21,4.08-11.21,12.23v67.22c0,8.15,5.1,12.23,11.21,12.23s11.2-4.08,11.2-12.23a1,1,0,0,1,1-1h19.35a1,1,0,0,1,1,1c-1,23.43-16.3,34.64-33.61,34.64s-33.62-13.25-33.62-39.73Z"/><path d="M774.13,1055.08V879.88a1,1,0,0,1,1-1H794.5a1,1,0,0,1,1,1v49.91c5.1-5.09,11.21-8.15,18.34-8.15a25.22,25.22,0,0,1,25.46,25.47v108a1,1,0,0,1-1,1H819a1,1,0,0,1-1-1V956.27c0-8.14-5.09-12.22-11.2-12.22s-11.21,4.08-11.21,12.22v98.81a1,1,0,0,1-1,1H775.15Z"/><path d="M869.88,1026.56V879.88a1,1,0,0,1,1-1h19.35a1,1,0,0,1,1,1v144.64c0,8.15,4.07,10.19,10.19,10.19a1,1,0,0,1,1,1v19.35a1,1,0,0,1-1,1C882.1,1057.12,869.88,1051,869.88,1026.56Z"/><path d="M925.9,1018.41v-57c0-26.49,15.28-38.71,33.62-38.71,17.31,0,33.61,12.22,33.61,38.71v57c0,26.48-15.28,39.72-33.61,39.72C941.18,1057.12,925.9,1044.89,925.9,1018.41Zm22.41,5.09c0,8.15,5.09,12.23,11.21,12.23s11.2-4.08,11.2-12.23V956.27c0-8.14-5.09-12.22-11.2-12.22s-11.21,4.08-11.21,12.22Z"/><path d="M1021.65,922.66H1041a1,1,0,0,1,1,1v5.09a28.48,28.48,0,0,1,20.37-8.15,22.38,22.38,0,0,1,8.15,1c1,0,1,1,1,2V943c0,1,0,1-1,1-2,0-4.07-1-6.11-1-12.22,0-22.41,7.13-22.41,23.43v87.6a1,1,0,0,1-1,1h-19.35a1,1,0,0,1-1-1V924.7C1020.63,923.68,1020.63,922.66,1021.65,922.66Z"/><path d="M1096,879.88a1,1,0,0,1,1-1h19.35a1,1,0,0,1,1,1v19.35a1,1,0,0,1-1,1H1097a1,1,0,0,1-1-1Zm0,175.2V924.7a1,1,0,0,1,1-1h19.35a1,1,0,0,1,1,1v130.38a1,1,0,0,1-1,1H1097A1,1,0,0,1,1096,1055.08Z"/><path d="M1148,1032.67V947.11c0-13.24,11.2-25.47,25.46-25.47,7.13,0,14.26,3.06,18.34,8.15V879.88a1,1,0,0,1,1-1h19.36a1,1,0,0,1,1,1v175.2a1,1,0,0,1-1,1h-19.36a1,1,0,0,1-1-1V1049c-5.1,5.09-11.21,8.15-18.34,8.15C1159.16,1057.12,1148,1045.91,1148,1032.67Zm33.61,2c6.11,0,11.2-4.08,11.2-12.23V955.26c0-8.15-5.09-12.23-11.2-12.23s-11.2,4.08-11.2,12.23v67.22C1169.35,1031.65,1174.44,1034.71,1181.57,1034.71Z"/><path d="M1240.65,1018.41v-57c0-26.49,15.28-38.71,33.61-38.71,16.3,0,33.62,12.22,33.62,35.65V998a1,1,0,0,1-1,1h-43.8v25.46c0,8.15,5.09,12.22,11.2,12.22s11.21-4.07,11.21-12.22a1,1,0,0,1,1-1h19.35a1,1,0,0,1,1,1c-1,22.41-16.3,34.63-33.62,34.63C1255.93,1057.12,1240.65,1044.89,1240.65,1018.41Zm44.82-39.73V956.27c0-8.14-5.1-12.22-11.21-12.22s-11.2,4.08-11.2,12.22v22.41Z"/><path d="M1377.14,967.48c0-41.76,12.22-84.54,35.65-120.19,0-1,1-1,2-1h23.43a1,1,0,0,1,1,1c-26.48,34.63-38.7,76.39-38.7,120.19s12.22,85.56,38.7,120.19c1,1,0,1-1,1h-23.43a3.56,3.56,0,0,1-2-1C1389.36,1053,1377.14,1010.26,1377.14,967.48Z"/><path d="M1467.8,1055.08V879.88a1,1,0,0,1,1-1h17.32c1,0,1,1,2,1l42.78,112v-112a1,1,0,0,1,1-1h19.35a1,1,0,0,1,1,1v175.2a1,1,0,0,1-1,1H1534c-1,0-1-1-2-1l-42.78-112v112a1,1,0,0,1-1,1h-19.36A1,1,0,0,1,1467.8,1055.08Z"/><path d="M1586,1032.67V947.11c0-13.24,11.21-25.47,25.47-25.47,7.13,0,14.26,3.06,18.33,8.15V924.7a1,1,0,0,1,1-1h19.35a1,1,0,0,1,1,1v130.38a1,1,0,0,1-1,1h-18.33a1,1,0,0,1-1-1v-10.19c-4.07,7.13-10.19,13.24-20.37,13.24C1597.16,1057.12,1586,1045.91,1586,1032.67Zm32.6,2c6.11,0,11.2-4.08,11.2-12.23V955.26c0-8.15-5.09-12.23-11.2-12.23s-11.21,4.08-11.21,12.23v67.22C1607.34,1031.65,1612.44,1034.71,1618.55,1034.71Z"/><path d="M1720.41,876.82c20.37,0,36.67,18.34,36.67,38.71v10.19a1,1,0,0,1-1,1H1736.7a3.56,3.56,0,0,1-2-1v-9.17c0-11.2-5.1-18.34-14.26-18.34s-15.28,7.13-15.28,18.34v100.84c0,11.2,6.11,17.32,15.28,18.34,9.16,0,14.26-6.12,14.26-18.34V1007.2c0-1,1-1,2-1h19.36a1,1,0,0,1,1,1v11.21c0,21.39-16.3,38.71-36.67,38.71s-36.67-18.34-36.67-39.73V916.55C1683.74,894.14,1700,876.82,1720.41,876.82Z"/><path d="M1783.56,1026.56V879.88a1,1,0,0,1,1-1h19.35a1,1,0,0,1,1,1v144.64c0,8.15,4.07,10.19,10.19,10.19a1,1,0,0,1,1,1v19.35a1,1,0,0,1-1,1C1795.78,1057.12,1783.56,1051,1783.56,1026.56Z"/><path d="M1838.56,846.27H1862a3.56,3.56,0,0,1,2,1c23.43,35.65,35.65,78.43,35.65,120.19S1887.46,1052,1864,1087.67c0,1-1,1-2,1h-23.43a1,1,0,0,1-1-1c26.49-34.63,38.71-76.39,38.71-120.19s-12.22-85.56-38.71-120.19A1,1,0,0,1,1838.56,846.27Z"/><path d="M48.89,1938.69V1447.46a9.05,9.05,0,0,1,9-9H105.1c4.89,0,8.15,3.26,9.78,7.34L211,1715.47l93.68-269.64q2.44-7.33,9.78-7.34h47.25a9.05,9.05,0,0,1,9,9v491.23a9,9,0,0,1-9,9H307.14c-4.89,0-9.78-4.07-9.78-9V1662.52l-66,184.93c-.81,2.44-3.26,6.51-9.77,6.51H198a10.51,10.51,0,0,1-9.77-6.51l-66-184.93v276.17c0,4.89-4.89,9-9.77,9H57.85C52.15,1947.65,48.89,1944.39,48.89,1938.69Z"/><path d="M426.07,1574.54c0-5.7,4.08-9,8.15-9H488.8c4.89,0,9.78,4.07,9.78,8.15l48.88,228.1,48.88-228.1c0-4.89,4.88-8.15,9.77-8.15h54.58c4.89,0,8.15,3.26,8.15,9v.82l-75,325.85L576,1984.31c-17.92,73.32-42.36,90.42-115.68,90.42a9,9,0,0,1-9-9v-55.39a9,9,0,0,1,9-9h1.63c17.92,0,34.21,0,42.36-29.33l6.52-29.33-84.73-368.22Z"/><path d="M721,1565.58h54.58a9,9,0,0,1,9,9v4.07a87.42,87.42,0,0,1,51.32-16.29,80.69,80.69,0,0,1,24.44,3.26c4.89,1.63,5.7,4.89,5.7,9.78v53.76c0,3.26-.81,4.89-3.26,6.52-1.62.81-4.07.81-6.51.81a100.41,100.41,0,0,0-15.48-1.63c-37.47,0-57,23.63-57,61.1V1939.5a9,9,0,0,1-9,9H720.16a9,9,0,0,1-9-9v-365C712,1569.65,716.09,1565.58,721,1565.58Z"/><path d="M919.75,1565.58h22.81v-86.35c0-4.89,4.07-9.78,9-9.78h54.58c4.89,0,9.78,4.89,9.78,9.78v86.35h31.77a9,9,0,0,1,9,9v47.25a9,9,0,0,1-9,9h-31.77v220c0,20.36,8.15,23.62,24.44,23.62h6.52c4.88,0,9,4.89,9,9.78v54.58a9,9,0,0,1-9,9h-6.52c-67.62,0-98.57-22-98.57-92.87v-224H918.94a9,9,0,0,1-9-9v-47.25C910.79,1569.65,914.05,1565.58,919.75,1565.58Z"/><path d="M1126.67,1937.87V1447.46c0-4.89,4.07-9.78,9-9.78h54.58c4.89,0,9,4.89,9,9.78V1577.8c13.85-10.59,30.15-15.48,47.25-15.48,41.55,0,78.21,33.4,78.21,75.76v300.61c0,4.89-4.89,9-9.78,9h-54.58a9,9,0,0,1-9-9V1663.34c0-17.11-9-27.7-25.25-27.7-22.81,0-26.07,17.11-26.07,27.7v275.35a9,9,0,0,1-9,9h-54.58Q1126.67,1946.42,1126.67,1937.87Z"/><path d="M1394.69,1676.37c0-61.1,32.59-114.86,98.57-114.86,58.66,0,97.76,46.43,97.76,103.46v110.79a9,9,0,0,1-9,9H1467.19v66c0,17.1,9.78,26.88,26.07,26.88,7.33,0,24.44-2.44,24.44-26.88a9,9,0,0,1,9-9h54.58a9,9,0,0,1,9,9c-1.62,56.21-39.91,101-97.75,101-66,0-98.58-54.58-98.58-115.68V1676.37Zm72.5,44h51.33v-57.84c0-17.1-9-27.7-24.44-27.7-16.3,0-26.07,10.6-26.07,27.7v57.84Z"/><path d="M1656.19,1637.27c0-42.36,35.85-75.76,77.39-75.76,17.11,0,33.4,4.88,47.25,15.47v-3.25a9,9,0,0,1,9-9h55.4a9,9,0,0,1,9,9v388.58c0,61.1-32.59,116.5-98.57,116.5-58.66,0-98.57-42.36-98.57-100.2,0-1.63,0-4.89.81-5.71,1.63-1.63,4.07-4.07,8.15-4.07h53.76c4.89,0,9.78,4.07,9.78,9,0,17.92,9.78,28.51,25.25,28.51s25.26-10.59,25.26-28.51v-70.06c-13.85,10.59-30.14,15.48-47.25,15.48-41.55,0-77.39-33.4-77.39-75.76V1637.27Zm99.39,212.62c15.48,0,25.25-10.59,25.25-27.7V1663.34c0-17.11-9.77-27.7-25.25-27.7s-25.26,10.59-25.26,27.7v158.85C1729.51,1839.3,1739.29,1849.89,1755.58,1849.89Z"/><path d="M1934,1876.78V1637.27c0-42.36,34.21-75.76,76.57-75.76,17.11,0,33.4,4.88,47.25,15.47v-3.25a9,9,0,0,1,9-9h54.58a9,9,0,0,1,9,9v364.14a9,9,0,0,1-9,9H2070a9,9,0,0,1-9-9v-11.4c-13.85,15.48-31,23.62-51.32,23.62C1969,1951.72,1934,1918.32,1934,1876.78Zm72.5-213.44v188.18c0,23.63,15.48,27.7,25.25,27.7,16.3,0,25.26-10.59,25.26-27.7V1663.34c0-17.92-9-28.52-25.26-28.52C2022,1634.82,2006.49,1638.08,2006.49,1663.34Z"/><path d="M2184.08,1574.54c0-4.89,4.89-9,9-9h22.81v-34.22c0-70.87,31.77-92.87,98.58-92.87h12.22a9.05,9.05,0,0,1,9,9v55.39a9,9,0,0,1-9,9h-12.22c-17.11,0-25.26,4.08-25.26,23.63v30.14h37.48a9,9,0,0,1,9,9v47.25a9,9,0,0,1-9,9h-37.48v307.94a9,9,0,0,1-9,9h-54.58c-4.89,0-9.78-4.07-9.78-9V1630.75H2193a9,9,0,0,1-9-9Z"/><path d="M2411.37,1438.49h55.39a9.05,9.05,0,0,1,9,9v407.32c0,19.55,7.33,23.62,22.81,23.62a9.05,9.05,0,0,1,9,9v55.39a9,9,0,0,1-9,9c-65.18,0-96.13-25.25-96.13-92.87V1447.46C2402.41,1441.75,2406.48,1438.49,2411.37,1438.49Z"/><path d="M2665.54,1561.51c66,0,97.76,53.76,97.76,114.86v160.49c0,60.28-31.77,115.68-97.76,115.68S2567,1898,2567,1836.86V1676.37C2567,1615.27,2598.74,1561.51,2665.54,1561.51Zm0,316.89c7.33,0,24.44-2.44,24.44-26.88v-189c0-17.1-9-27.7-24.44-27.7-16.29,0-26.07,10.6-26.07,27.7v189C2639.47,1868.63,2649.25,1878.4,2665.54,1878.4Z"/><path d="M2838.24,1938.69V1574.54a9,9,0,0,1,9-9h54.58a9,9,0,0,1,9,9v3.26c13.85-10.59,30.14-15.48,47.25-15.48,41.54,0,76.57,32.59,76.57,75V1939.5a9,9,0,0,1-9,9H2971a9,9,0,0,1-9-9v-277c0-17.1-9-27.7-24.44-27.7-9.77,0-26.07,4.08-26.07,27.7v276.17a9,9,0,0,1-9,9H2848C2842.32,1947.65,2838.24,1944.39,2838.24,1938.69Z"/><path d="M3112.78,1533v-90.42a.8.8,0,0,1,.81-.82h17.93c13.85,0,22,8.15,22,22.81v9.78c0,8.15-3.26,14.66-8.14,18.74l13.85,40.73v.81h-10.59a.8.8,0,0,1-.82-.81l-12.22-36.66h-9.78V1533a.8.8,0,0,1-.81.82l-12.22-.82C3113.59,1533.81,3112.78,1533.81,3112.78,1533Zm11.41-48.06h6.51c8.15,0,10.59-4.07,10.59-11.41v-8.14c0-7.33-2.44-11.41-10.59-11.41h-6.51Z"/><path d="M3134,1417.31a70.93,70.93,0,0,0-70.87,70.88c0,39.1,31.77,70.06,70.87,70.06s70.88-31.77,70.88-70.06C3204,1449.09,3172.25,1417.31,3134,1417.31Zm-.81,129.53a58.66,58.66,0,1,1,58.65-58.65A58.41,58.41,0,0,1,3133.15,1546.84Z"/><path d="M3509.51,1849.08h41.55a2.15,2.15,0,0,1,2.44,2.44v23.63c0,19.55,6.52,30.95,23.63,30.95,16.29,0,22.81-11.4,22.81-30.95v-82.28c0-20.37-12.22-31-29.33-31h-13a2.16,2.16,0,0,1-2.45-2.44v-41.55a2.61,2.61,0,0,1,2.45-2.45h9.77c14.67,0,32.59-19.55,32.59-55.39v-11.41c0-19.55-6.52-31-22.81-31-17.11.81-23.63,12.22-23.63,31v22.81a2.16,2.16,0,0,1-2.44,2.45h-41.55a2.16,2.16,0,0,1-2.44-2.45v-22.81c0-43.17,27.7-79,70.06-79,41.55,0,70.06,35,70.06,77.39V1665c0,26.88-4.07,36.66-21.18,61.1l-5.7,6.51c16.29,16.3,26.06,43.18,26.06,79.84v64.36c0,41.54-27.69,76.57-70.06,76.57s-70.06-35-70.06-79v-22.81C3507.07,1850.71,3507.88,1849.08,3509.51,1849.08Z"/><path d="M3712.36,1646.23c0-42.36,31-75.76,70.06-75.76,38.29,0,70.06,33.4,70.06,73.32V1878.4c0,40.74-31,74.14-70.06,74.14s-70.06-33.4-70.06-75Zm46.44,226.47c0,21.18,5.7,33.4,23.62,33.4,17.11,0,22.81-13,22.81-34.21V1651.12c0-21.18-5.7-33.4-22.81-33.4-17.92,0-23.62,13-23.62,33.4Z"/><path d="M3968.16,1668.23h41.55a2.15,2.15,0,0,1,2.44,2.44v11.4c9.78-10.59,23.63-17.1,39.92-17.1,19.55,0,37.47,10.59,46.43,26.07,9-16.3,26.07-26.07,46.44-26.07,29.33,0,53.76,24.44,53.76,53v227.29a2.16,2.16,0,0,1-2.44,2.44h-41.55a2.16,2.16,0,0,1-2.44-2.44V1737.47c0-17.92-10.59-25.25-22.81-25.25-13,0-23.62,7.33-23.62,25.25V1946a2.16,2.16,0,0,1-2.45,2.44h-41.55a2.16,2.16,0,0,1-2.44-2.44V1737.47c0-17.92-10.59-25.25-22.81-25.25-13,0-23.62,7.33-23.62,25.25V1946a2.16,2.16,0,0,1-2.45,2.44H3969a2.16,2.16,0,0,1-2.44-2.44V1671.48C3965.72,1669.85,3966.53,1668.23,3968.16,1668.23Z"/><path d="M4262.25,1718.73c0-28.51,24.44-53,53.76-53,16.3,0,29.33,6.52,39.92,17.11v-11.41a2.16,2.16,0,0,1,2.45-2.44h41.54a2.16,2.16,0,0,1,2.45,2.44v291.65c0,56.21-33.4,83.09-70.06,83.09-35,0-69.25-22.81-70.06-71.69-.82-1.63.81-2.44,2.44-2.44h40.73a2.16,2.16,0,0,1,2.45,2.44c0,17.11,10.59,25.26,23.62,25.26s22.81-8.15,22.81-25.26v-61.91c-9.77,10.59-23.62,17.11-39.92,17.11-29.32,0-53.76-24.44-53.76-53v-158Zm46.43,18.74v118.94c0,17.11,10.59,25.25,23.63,25.25s22.81-8.14,22.81-25.25V1737.47c0-17.11-10.59-25.25-22.81-25.25C4319.27,1712.22,4308.68,1720.36,4308.68,1737.47Z"/><path d="M59.48,2227.07v-8.14a.8.8,0,0,1,.82-.82H75.78a.8.8,0,0,1,.81.82v9c0,7.33,4.89,11.4,11.41,12.22,6.51,0,11.4-4.08,11.4-12.22v-9.78a26.16,26.16,0,0,0-4.89-14.66L79,2184.71s-8.14-9-11.4-13.85c-6.52-9.77-8.15-13-8.15-22.81v-6.51c0-15.48,13-29.33,28.52-29.33,16.29,0,28.51,13,28.51,30.14v8.15a.8.8,0,0,1-.82.81H100.22a.8.8,0,0,1-.82-.81v-9c0-7.34-4.07-11.41-10.59-12.22-6.52,0-11.4,4.07-11.4,12.22v5.7c0,8.14,4.88,13,7.33,17.11L97,2179s8.14,9,11.4,13.85c6.52,9.77,8.15,14.66,8.15,28.51v6.52c0,15.48-13,29.33-28.51,29.33C71.7,2257.22,59.48,2243.37,59.48,2227.07Z"/><path d="M140.13,2225.44v-45.62c0-21.18,12.22-31,26.89-31,13.85,0,26.88,9.77,26.88,31v45.62c0,21.18-12.22,31.78-26.88,31.78C152.35,2256.4,140.13,2246.62,140.13,2225.44Zm17.11,4.08c0,6.51,4.07,9.77,9,9.77s9-3.26,9-9.77v-53.77c0-6.52-4.07-9.78-9-9.78s-9,3.26-9,9.78Z"/><path d="M215.08,2236.85v-68.43a20.7,20.7,0,0,1,20.37-20.37c5.7,0,11.4,2.45,14.66,6.52v-39.92a.8.8,0,0,1,.82-.81H266.4a.8.8,0,0,1,.82.81v140.12a.8.8,0,0,1-.82.82H250.93a.8.8,0,0,1-.82-.82v-4.89c-4.07,4.08-9,6.52-14.66,6.52C224.86,2256.4,215.08,2247.44,215.08,2236.85Zm26.88,1.63c4.89,0,9-3.26,9-9.78v-53.76c0-6.52-4.08-9.78-9-9.78s-9,3.26-9,9.78v53.76C233,2236,237.08,2238.48,242,2238.48Z"/><path d="M292.47,2114.65a.8.8,0,0,1,.82-.81h15.47a.8.8,0,0,1,.82.81v15.48a.8.8,0,0,1-.82.81H293.29a.8.8,0,0,1-.82-.81Zm0,140.12V2150.5a.8.8,0,0,1,.82-.82h15.47a.8.8,0,0,1,.82.82v104.27a.8.8,0,0,1-.82.82H293.29A.8.8,0,0,1,292.47,2254.77Z"/><path d="M334.83,2148.87h15.48a.8.8,0,0,1,.82.81v79c0,6.52,4.07,9.78,9,9.78s9-3.26,9-9.78v-79a.79.79,0,0,1,.81-.81h15.48a.8.8,0,0,1,.82.81V2254a.8.8,0,0,1-.82.81H369.86a.79.79,0,0,1-.81-.81v-4.08c-4.07,4.08-9,6.52-14.66,6.52A20.17,20.17,0,0,1,334,2236V2150.5C334,2149.68,334,2148.87,334.83,2148.87Z"/><path d="M411.41,2148.87h15.48a.79.79,0,0,1,.81.81v4.08c4.08-4.08,9-6.52,14.67-6.52,7.33,0,13.85,4.07,17.92,9.77,3.26-5.7,9.78-9.77,17.92-9.77a20.17,20.17,0,0,1,20.37,20.36V2254a.8.8,0,0,1-.82.81H482.28a.79.79,0,0,1-.81-.81v-79c0-6.52-4.07-9.78-9-9.78s-9,3.26-9,9.78v79a.8.8,0,0,1-.82.81H447.26a.8.8,0,0,1-.82-.81v-79c0-6.52-4.07-9.78-9-9.78s-9,3.26-9,9.78v79a.8.8,0,0,1-.82.81H412.23a.8.8,0,0,1-.82-.81V2150.5A1.13,1.13,0,0,1,411.41,2148.87Z"/><path d="M558.05,2179c0-21.18,12.22-31,26.88-31,13,0,26.07,8.15,26.88,26.89a.79.79,0,0,1-.81.81H595.52a.79.79,0,0,1-.81-.81c0-6.52-4.08-9.78-9-9.78s-9,3.26-9,9.78v53.76c0,6.52,4.08,9.78,9,9.78s9-3.26,9-9.78a.79.79,0,0,1,.81-.81H611a.79.79,0,0,1,.81.81c-.81,18.74-13,27.7-26.88,27.7s-26.88-10.59-26.88-31.77Z"/><path d="M628.92,2254.77V2114.65a.8.8,0,0,1,.82-.81h15.47a.8.8,0,0,1,.82.81v39.92c4.07-4.07,9-6.52,14.66-6.52a20.17,20.17,0,0,1,20.37,20.37v86.35a.8.8,0,0,1-.82.82H664.77a.8.8,0,0,1-.82-.82v-79c0-6.52-4.07-9.78-9-9.78s-9,3.26-9,9.78v79a.8.8,0,0,1-.82.82H629.74Z"/><path d="M705.5,2232V2114.65a.79.79,0,0,1,.81-.81h15.48a.8.8,0,0,1,.82.81v115.68c0,6.52,3.25,8.15,8.14,8.15a.8.8,0,0,1,.82.81v15.48a.8.8,0,0,1-.82.82C715.27,2256.4,705.5,2251.51,705.5,2232Z"/><path d="M750.3,2225.44v-45.62c0-21.18,12.22-31,26.89-31,13.85,0,26.88,9.77,26.88,31v45.62c0,21.18-12.22,31.78-26.88,31.78C762.52,2256.4,750.3,2246.62,750.3,2225.44Zm17.93,4.08c0,6.51,4.07,9.77,9,9.77s9-3.26,9-9.77v-53.77c0-6.52-4.08-9.78-9-9.78s-9,3.26-9,9.78Z"/><path d="M826.88,2148.87h15.48a.79.79,0,0,1,.81.81v4.08a22.74,22.74,0,0,1,16.3-6.52,18,18,0,0,1,6.51.81c.82,0,.82.82.82,1.63v15.48c0,.81,0,.81-.82.81-1.63,0-3.25-.81-4.88-.81-9.78,0-17.93,5.7-17.93,18.74V2254a.79.79,0,0,1-.81.81H826.88a.79.79,0,0,1-.81-.81V2150.5C826.07,2149.68,826.07,2148.87,826.88,2148.87Z"/><path d="M886.35,2114.65a.79.79,0,0,1,.81-.81h15.48a.8.8,0,0,1,.82.81v15.48a.8.8,0,0,1-.82.81H887.16a.79.79,0,0,1-.81-.81Zm0,140.12V2150.5a.8.8,0,0,1,.81-.82h15.48a.8.8,0,0,1,.82.82v104.27a.8.8,0,0,1-.82.82H887.16A.8.8,0,0,1,886.35,2254.77Z"/><path d="M927.9,2236.85v-68.43c0-10.59,9-20.37,20.36-20.37,5.71,0,11.41,2.45,14.67,6.52v-39.92a.79.79,0,0,1,.81-.81h15.48a.79.79,0,0,1,.81.81v140.12a.8.8,0,0,1-.81.82H963.74a.8.8,0,0,1-.81-.82v-4.89c-4.08,4.08-9,6.52-14.67,6.52C936.86,2256.4,927.9,2247.44,927.9,2236.85Zm26.88,1.63c4.89,0,9-3.26,9-9.78v-53.76c0-6.52-4.07-9.78-9-9.78s-9,3.26-9,9.78v53.76C945,2236,949.08,2238.48,954.78,2238.48Z"/><path d="M1002,2225.44v-45.62c0-21.18,12.22-31,26.88-31,13,0,26.89,9.77,26.89,28.51v31.77a.8.8,0,0,1-.82.82h-35v20.36c0,6.52,4.08,9.78,9,9.78s9-3.26,9-9.78a.8.8,0,0,1,.82-.81h15.48a.79.79,0,0,1,.81.81c-.81,17.92-13,27.7-26.88,27.7C1014.25,2256.4,1002,2246.62,1002,2225.44Zm35.84-31.77v-17.92c0-6.52-4.07-9.78-9-9.78s-9,3.26-9,9.78v17.92Z"/><path d="M1111.19,2184.71a176.86,176.86,0,0,1,28.51-96.13c0-.81.82-.81,1.63-.81h18.74a.8.8,0,0,1,.82.81c-21.19,27.7-31,61.1-31,96.13s9.77,68.43,31,96.13c.81.81,0,.81-.82.81h-18.74a2.87,2.87,0,0,1-1.63-.81C1121,2253.14,1111.19,2218.93,1111.19,2184.71Z"/><path d="M1183.7,2254.77V2114.65a.79.79,0,0,1,.81-.81h13.85c.81,0,.81.81,1.63.81l34.21,89.61v-89.61a.8.8,0,0,1,.82-.81h15.48a.79.79,0,0,1,.81.81v140.12a.8.8,0,0,1-.81.82h-13.85c-.82,0-.82-.82-1.63-.82l-34.22-89.61v89.61a.8.8,0,0,1-.81.82h-15.48A.8.8,0,0,1,1183.7,2254.77Z"/><path d="M1278.19,2236.85v-68.43c0-10.59,9-20.37,20.37-20.37,5.7,0,11.41,2.45,14.66,6.52v-4.07a.8.8,0,0,1,.82-.82h15.48a.8.8,0,0,1,.81.82v104.27a.8.8,0,0,1-.81.82h-14.67a.8.8,0,0,1-.81-.82v-8.15c-3.26,5.71-8.15,10.6-16.29,10.6C1287.16,2256.4,1278.19,2247.44,1278.19,2236.85Zm26.07,1.63c4.89,0,9-3.26,9-9.78v-53.76c0-6.52-4.07-9.78-9-9.78s-9,3.26-9,9.78v53.76C1295.3,2236,1299.38,2238.48,1304.26,2238.48Z"/><path d="M1385.73,2112.21c16.29,0,29.33,14.66,29.33,30.95v8.15a.8.8,0,0,1-.82.82h-15.48a2.86,2.86,0,0,1-1.63-.82V2144c0-9-4.07-14.66-11.4-14.66s-12.22,5.7-12.22,14.66v80.65c0,9,4.89,13.85,12.22,14.66,7.33,0,11.4-4.88,11.4-14.66v-8.15c0-.81.82-.81,1.63-.81h15.48a.8.8,0,0,1,.82.81v9c0,17.11-13,31-29.33,31s-29.33-14.66-29.33-31.77V2144C1356.4,2126.06,1369.44,2112.21,1385.73,2112.21Z"/><path d="M1436.24,2232V2114.65a.79.79,0,0,1,.81-.81h15.48a.79.79,0,0,1,.81.81v115.68c0,6.52,3.26,8.15,8.15,8.15a.8.8,0,0,1,.82.81v15.48a.8.8,0,0,1-.82.82C1446,2256.4,1436.24,2251.51,1436.24,2232Z"/><path d="M1480.23,2087.77H1499a2.83,2.83,0,0,1,1.63.81,176.27,176.27,0,0,1,0,192.26c0,.81-.81.81-1.63.81h-18.73a.8.8,0,0,1-.82-.81c21.18-27.7,31-61.1,31-96.13s-9.78-68.43-31-96.13A.8.8,0,0,1,1480.23,2087.77Z"/><path d="M34.63,2960.35V2567.51a7.23,7.23,0,0,1,7.17-7.17H79.58c3.91,0,6.52,2.61,7.82,5.86l76.88,215.65L239.2,2566.2q2-5.86,7.82-5.86H284.8a7.23,7.23,0,0,1,7.17,7.17v392.84a7.23,7.23,0,0,1-7.17,7.17H241.15c-3.9,0-7.81-3.26-7.81-7.17V2739.5l-52.77,147.89c-.66,2-2.61,5.21-7.82,5.21h-18.9a8.4,8.4,0,0,1-7.81-5.21L93.27,2739.5v220.85c0,3.91-3.91,7.17-7.82,7.17H41.8C37.24,2967.52,34.63,2964.91,34.63,2960.35Z"/><path d="M336.27,2669.14c0-4.56,3.26-7.17,6.52-7.17h43.65c3.91,0,7.81,3.26,7.81,6.52l39.09,182.41,39.09-182.41c0-3.91,3.91-6.52,7.82-6.52H523.9c3.91,0,6.52,2.61,6.52,7.17v.65l-59.94,260.6-14.33,66.45c-14.34,58.63-33.88,72.31-92.52,72.31a7.22,7.22,0,0,1-7.16-7.16v-44.3a7.23,7.23,0,0,1,7.16-7.17h1.31c14.33,0,27.36,0,33.87-23.45l5.22-23.46-67.76-294.47Z"/><path d="M572.11,2662h43.65a7.23,7.23,0,0,1,7.17,7.17v3.26a69.91,69.91,0,0,1,41-13,64.59,64.59,0,0,1,19.55,2.6c3.9,1.31,4.56,3.91,4.56,7.82v43c0,2.6-.66,3.91-2.61,5.21-1.3.65-3.26.65-5.21.65a80,80,0,0,0-12.38-1.3c-30,0-45.6,18.89-45.6,48.86V2961a7.23,7.23,0,0,1-7.17,7.16H571.46a7.23,7.23,0,0,1-7.17-7.16V2669.14C564.94,2665.23,568.2,2662,572.11,2662Z"/><path d="M731.07,2662h18.25v-69.06c0-3.9,3.25-7.81,7.16-7.81h43.65c3.91,0,7.82,3.91,7.82,7.81V2662h25.41a7.23,7.23,0,0,1,7.16,7.17v37.79a7.22,7.22,0,0,1-7.16,7.16H808V2890c0,16.29,6.51,18.9,19.54,18.9h5.22c3.91,0,7.16,3.91,7.16,7.81v43.65a7.23,7.23,0,0,1-7.16,7.17h-5.22c-54.07,0-78.83-17.59-78.83-74.27V2714.09H730.42a7.22,7.22,0,0,1-7.16-7.16v-37.79C723.91,2665.23,726.51,2662,731.07,2662Z"/><path d="M896.55,2959.7V2567.51c0-3.91,3.26-7.82,7.17-7.82h43.65c3.91,0,7.16,3.91,7.16,7.82v104.23c11.08-8.46,24.11-12.37,37.79-12.37,33.23,0,62.54,26.71,62.54,60.59v240.39c0,3.91-3.9,7.17-7.81,7.17H1003.4a7.23,7.23,0,0,1-7.17-7.17v-220.2c0-13.68-7.17-22.15-20.2-22.15-18.24,0-20.84,13.68-20.84,22.15v220.2a7.23,7.23,0,0,1-7.17,7.17H904.37Q896.56,2966.55,896.55,2959.7Z"/><path d="M1110.89,2750.58c0-48.87,26.06-91.86,78.83-91.86,46.91,0,78.18,37.13,78.18,82.73v88.61a7.23,7.23,0,0,1-7.17,7.16h-91.86V2890c0,13.68,7.82,21.5,20.85,21.5,5.87,0,19.55-1.95,19.55-21.5a7.22,7.22,0,0,1,7.16-7.16h43.65a7.23,7.23,0,0,1,7.17,7.16c-1.3,45-31.92,80.79-78.18,80.79-52.77,0-78.83-43.65-78.83-92.51V2750.58Zm58,35.18h41.05V2739.5c0-13.68-7.17-22.15-19.55-22.15-13,0-20.84,8.47-20.84,22.15v46.26Z"/><path d="M1320,2719.3c0-33.87,28.67-60.58,61.89-60.58,13.68,0,26.71,3.9,37.79,12.37v-2.6a7.23,7.23,0,0,1,7.16-7.17h44.31a7.23,7.23,0,0,1,7.16,7.17v310.76c0,48.86-26.06,93.16-78.83,93.16-46.91,0-78.83-33.88-78.83-80.13,0-1.31,0-3.91.65-4.56,1.31-1.31,3.26-3.26,6.52-3.26h43c3.91,0,7.81,3.26,7.81,7.17,0,14.33,7.82,22.8,20.2,22.8s20.2-8.47,20.2-22.8v-56c-11.08,8.47-24.11,12.38-37.79,12.38-33.23,0-61.89-26.71-61.89-60.59V2719.3Zm79.48,170c12.38,0,20.2-8.47,20.2-22.15v-127c0-13.68-7.82-22.15-20.2-22.15s-20.19,8.47-20.19,22.15v127C1378.65,2880.87,1386.47,2889.34,1399.5,2889.34Z"/><path d="M1542.18,2910.84V2719.3c0-33.87,27.36-60.58,61.24-60.58,13.68,0,26.71,3.9,37.78,12.37v-2.6a7.23,7.23,0,0,1,7.17-7.17H1692a7.23,7.23,0,0,1,7.17,7.17V2959.7a7.23,7.23,0,0,1-7.17,7.17h-41a7.23,7.23,0,0,1-7.17-7.17v-9.12c-11.08,12.38-24.76,18.9-41,18.9C1570.19,2970.78,1542.18,2944.07,1542.18,2910.84Zm58-170.69v150.5c0,18.89,12.38,22.15,20.2,22.15,13,0,20.19-8.47,20.19-22.15v-150.5c0-14.33-7.16-22.8-20.19-22.8C1612.54,2717.35,1600.16,2720,1600.16,2740.15Z"/><path d="M1742.19,2669.14c0-3.91,3.9-7.17,7.16-7.17h18.24v-27.36c0-56.68,25.41-74.27,78.83-74.27h9.78a7.23,7.23,0,0,1,7.16,7.17v44.3a7.22,7.22,0,0,1-7.16,7.16h-9.78c-13.68,0-20.19,3.26-20.19,18.9V2662h30a7.23,7.23,0,0,1,7.16,7.17v37.79a7.23,7.23,0,0,1-7.16,7.16h-30v246.26a7.23,7.23,0,0,1-7.17,7.17h-43.65c-3.91,0-7.82-3.26-7.82-7.17V2714.09h-18.24a7.22,7.22,0,0,1-7.16-7.16Z"/><path d="M1924,2560.34h44.3a7.23,7.23,0,0,1,7.17,7.17v325.74c0,15.64,5.86,18.89,18.24,18.89a7.23,7.23,0,0,1,7.17,7.17v44.3a7.23,7.23,0,0,1-7.17,7.17c-52.12,0-76.88-20.2-76.88-74.27v-329A6.84,6.84,0,0,1,1924,2560.34Z"/><path d="M2127.22,2658.72c52.77,0,78.17,43,78.17,91.86v128.34c0,48.21-25.4,92.51-78.17,92.51s-78.84-43.65-78.84-92.51V2750.58C2048.38,2701.71,2073.79,2658.72,2127.22,2658.72Zm0,253.42c5.86,0,19.54-1.95,19.54-21.49V2739.5c0-13.68-7.17-22.15-19.54-22.15-13,0-20.85,8.47-20.85,22.15v151.15C2106.37,2904.33,2114.19,2912.14,2127.22,2912.14Z"/><path d="M2265.33,2960.35V2669.14a7.23,7.23,0,0,1,7.17-7.17h43.65a7.23,7.23,0,0,1,7.16,7.17v2.6c11.08-8.46,24.11-12.37,37.79-12.37,33.23,0,61.24,26.06,61.24,59.93V2961a7.23,7.23,0,0,1-7.17,7.16h-43.65a7.22,7.22,0,0,1-7.16-7.16V2739.5c0-13.68-7.17-22.15-19.55-22.15-7.82,0-20.85,3.26-20.85,22.15v220.85a7.23,7.23,0,0,1-7.16,7.17h-43.65C2268.59,2967.52,2265.33,2964.91,2265.33,2960.35Z"/><path d="M2484.88,2635.91V2563.6a.64.64,0,0,1,.65-.65h14.34c11.07,0,17.59,6.51,17.59,18.24V2589c0,6.51-2.61,11.72-6.52,15l11.08,32.57v.66h-8.47a.64.64,0,0,1-.65-.66l-9.78-29.31h-7.81v28.66a.64.64,0,0,1-.65.65l-9.78-.65C2485.53,2636.56,2484.88,2636.56,2484.88,2635.91Zm9.12-38.43h5.22c6.51,0,8.46-3.26,8.46-9.13v-6.51c0-5.86-1.95-9.12-8.46-9.12H2494Z"/><path d="M2501.82,2543.4a56.72,56.72,0,0,0-56.68,56.68c0,31.27,25.41,56,56.68,56s56.68-25.41,56.68-56C2557.85,2568.81,2532.44,2543.4,2501.82,2543.4Zm-.65,103.59a46.91,46.91,0,1,1,46.91-46.91A46.72,46.72,0,0,1,2501.17,2647Z"/><path d="M2802.16,2888.69h33.22a1.73,1.73,0,0,1,2,2v18.89c0,15.63,5.21,24.75,18.89,24.75,13,0,18.24-9.12,18.24-24.75v-65.8c0-16.29-9.77-24.76-23.45-24.76H2840.6a1.73,1.73,0,0,1-2-1.95V2783.8a2.08,2.08,0,0,1,2-2h7.81c11.73,0,26.06-15.64,26.06-44.3v-9.13c0-15.63-5.21-24.75-18.24-24.75-13.68.65-18.89,9.77-18.89,24.75v18.25a1.73,1.73,0,0,1-2,1.95h-33.22a1.73,1.73,0,0,1-2-1.95v-18.25c0-34.52,22.15-63.19,56-63.19,33.23,0,56,28,56,61.89v14.33c0,21.5-3.26,29.32-16.94,48.87l-4.56,5.21c13,13,20.85,34.53,20.85,63.84v51.47c0,33.23-22.15,61.24-56,61.24s-56-28-56-63.19v-18.24C2800.2,2890,2800.85,2888.69,2802.16,2888.69Z"/><path d="M2964.38,2726.47c0-33.88,24.76-60.59,56-60.59,30.62,0,56,26.71,56,58.64v187.62c0,32.58-24.75,59.29-56,59.29s-56-26.71-56-59.94Zm37.13,181.11c0,16.94,4.56,26.71,18.9,26.71,13.68,0,18.24-10.42,18.24-27.36V2730.38c0-16.94-4.56-26.71-18.24-26.71-14.34,0-18.9,10.42-18.9,26.71Z"/><path d="M3169,2744.06h33.22a1.73,1.73,0,0,1,2,2v9.13a42.66,42.66,0,0,1,31.92-13.69c15.64,0,30,8.47,37.13,20.85,7.17-13,20.85-20.85,37.14-20.85,23.45,0,43,19.55,43,42.35v181.77a1.73,1.73,0,0,1-2,1.95h-33.22a1.73,1.73,0,0,1-2-1.95V2799.44c0-14.34-8.47-20.2-18.24-20.2-10.42,0-18.89,5.86-18.89,20.2v166.78a1.73,1.73,0,0,1-2,2h-33.22a1.73,1.73,0,0,1-2-2V2799.44c0-14.34-8.47-20.2-18.24-20.2-10.42,0-18.89,5.86-18.89,20.2v166.78a1.73,1.73,0,0,1-2,2H3169.6a1.73,1.73,0,0,1-2-2V2746.67C3167,2745.36,3167.64,2744.06,3169,2744.06Z"/><path d="M3404.13,2784.45c0-22.8,19.55-42.34,43-42.34,13,0,23.46,5.21,31.93,13.68v-9.12a1.73,1.73,0,0,1,2-2h33.23a1.73,1.73,0,0,1,2,2V2979.9c0,44.95-26.71,66.45-56,66.45-28,0-55.37-18.24-56-57.33-.65-1.3.66-1.95,2-1.95h32.57a1.73,1.73,0,0,1,2,1.95c0,13.68,8.47,20.2,18.89,20.2s18.24-6.52,18.24-20.2v-49.51a42.67,42.67,0,0,1-31.92,13.68c-23.45,0-43-19.55-43-42.35V2784.45Zm37.14,15v95.11c0,13.69,8.47,20.2,18.89,20.2s18.24-6.51,18.24-20.2v-95.11c0-13.68-8.47-20.2-18.24-20.2C3449.74,2779.24,3441.27,2785.76,3441.27,2799.44Z"/><path d="M43.1,3191v-6.51a.64.64,0,0,1,.65-.65H56.13a.64.64,0,0,1,.65.65v7.16c0,5.87,3.91,9.12,9.12,9.78,5.22,0,9.12-3.26,9.12-9.78v-7.81a21,21,0,0,0-3.9-11.73l-12.38-15A134.58,134.58,0,0,1,49.62,3146c-5.22-7.82-6.52-10.42-6.52-18.24v-5.21c0-12.38,10.43-23.46,22.8-23.46,13,0,22.81,10.43,22.81,24.11v6.51a.64.64,0,0,1-.66.65H75.68a.64.64,0,0,1-.66-.65v-7.16c0-5.87-3.25-9.13-8.46-9.78-5.22,0-9.13,3.26-9.13,9.78v4.56c0,6.51,3.91,10.42,5.87,13.68l9.77,11.72a137.52,137.52,0,0,1,9.12,11.08c5.21,7.82,6.52,11.73,6.52,22.8v5.21c0,12.38-10.43,23.46-22.81,23.46C52.87,3215.09,43.1,3204,43.1,3191Z"/><path d="M107.6,3189.68V3153.2c0-16.94,9.77-24.76,21.5-24.76,11.07,0,21.5,7.82,21.5,24.76v36.48c0,16.94-9.78,25.41-21.5,25.41C117.37,3214.44,107.6,3206.62,107.6,3189.68Zm13.68,3.26c0,5.21,3.26,7.81,7.17,7.81s7.16-2.6,7.16-7.81v-43c0-5.21-3.25-7.82-7.16-7.82s-7.17,2.61-7.17,7.82Z"/><path d="M167.54,3198.8v-54.73a16.54,16.54,0,0,1,16.28-16.28,15.26,15.26,0,0,1,11.73,5.21v-31.92a.64.64,0,0,1,.65-.66h12.38a.64.64,0,0,1,.65.66v112.05a.64.64,0,0,1-.65.65H196.2a.64.64,0,0,1-.65-.65v-3.91a16.32,16.32,0,0,1-11.73,5.22C175.35,3214.44,167.54,3207.27,167.54,3198.8Zm21.5,1.3c3.9,0,7.16-2.6,7.16-7.82v-43c0-5.22-3.26-7.82-7.16-7.82s-7.17,2.6-7.17,7.82v43C181.87,3198.15,185.13,3200.1,189,3200.1Z"/><path d="M229.43,3101.08a.64.64,0,0,1,.65-.66h12.38a.64.64,0,0,1,.65.66v12.37a.64.64,0,0,1-.65.66H230.08a.64.64,0,0,1-.65-.66Zm0,112.05v-83.39a.64.64,0,0,1,.65-.65h12.38a.64.64,0,0,1,.65.65v83.39a.64.64,0,0,1-.65.65H230.08A.64.64,0,0,1,229.43,3213.13Z"/><path d="M263.3,3128.44h12.38a.64.64,0,0,1,.65.65v63.19c0,5.22,3.26,7.82,7.17,7.82s7.17-2.6,7.17-7.82v-63.19a.64.64,0,0,1,.65-.65H303.7a.64.64,0,0,1,.65.65v83.39a.64.64,0,0,1-.65.65H291.32a.64.64,0,0,1-.65-.65v-3.26a16.32,16.32,0,0,1-11.73,5.22,16.13,16.13,0,0,1-16.29-16.29v-68.41C262.65,3129.09,262.65,3128.44,263.3,3128.44Z"/><path d="M324.54,3128.44h12.38a.64.64,0,0,1,.65.65v3.26a16.31,16.31,0,0,1,11.73-5.21,17.89,17.89,0,0,1,14.33,7.81,16.56,16.56,0,0,1,30.62,8.47v69.06a.64.64,0,0,1-.65.65H381.22a.64.64,0,0,1-.65-.65v-63.19c0-5.22-3.25-7.82-7.16-7.82s-7.17,2.6-7.17,7.82v63.19a.64.64,0,0,1-.65.65H353.21a.64.64,0,0,1-.65-.65v-63.19c0-5.22-3.26-7.82-7.17-7.82s-7.16,2.6-7.16,7.82v63.19a.64.64,0,0,1-.66.65H325.2a.64.64,0,0,1-.66-.65v-82.74A.9.9,0,0,1,324.54,3128.44Z"/><path d="M441.81,3152.54c0-16.93,9.78-24.75,21.5-24.75,10.43,0,20.85,6.51,21.5,21.5a.64.64,0,0,1-.65.65H471.78a.64.64,0,0,1-.65-.65c0-5.22-3.26-7.82-7.17-7.82s-7.16,2.6-7.16,7.82v43c0,5.22,3.25,7.82,7.16,7.82s7.17-2.6,7.17-7.82a.64.64,0,0,1,.65-.65h12.38a.64.64,0,0,1,.65.65c-.65,15-10.42,22.16-21.5,22.16s-21.5-8.47-21.5-25.41Z"/><path d="M498.49,3213.13V3101.08a.64.64,0,0,1,.65-.66h12.38a.64.64,0,0,1,.65.66V3133a16.31,16.31,0,0,1,11.73-5.21,16.13,16.13,0,0,1,16.29,16.28v69.06a.64.64,0,0,1-.65.65H527.16a.64.64,0,0,1-.65-.65v-63.19c0-5.21-3.26-7.82-7.17-7.82s-7.17,2.61-7.17,7.82v63.19a.64.64,0,0,1-.65.65H499.14Z"/><path d="M559.73,3194.89v-93.81a.64.64,0,0,1,.65-.66h12.38a.64.64,0,0,1,.65.66v92.51c0,5.21,2.61,6.51,6.52,6.51a.64.64,0,0,1,.65.65v12.38a.64.64,0,0,1-.65.65C567.55,3214.44,559.73,3210.53,559.73,3194.89Z"/><path d="M595.56,3189.68V3153.2c0-16.94,9.78-24.76,21.5-24.76,11.08,0,21.5,7.82,21.5,24.76v36.48c0,16.94-9.77,25.41-21.5,25.41C605.34,3214.44,595.56,3206.62,595.56,3189.68Zm14.34,3.26c0,5.21,3.25,7.81,7.16,7.81s7.17-2.6,7.17-7.81v-43c0-5.21-3.26-7.82-7.17-7.82s-7.16,2.61-7.16,7.82Z"/><path d="M656.8,3128.44h12.38a.64.64,0,0,1,.65.65v3.26a18.19,18.19,0,0,1,13-5.21,14.42,14.42,0,0,1,5.22.65c.65,0,.65.65.65,1.3v12.38c0,.65,0,.65-.65.65-1.31,0-2.61-.65-3.91-.65-7.82,0-14.34,4.56-14.34,15v56a.64.64,0,0,1-.65.65H656.8a.64.64,0,0,1-.65-.65v-82.74C656.15,3129.09,656.15,3128.44,656.8,3128.44Z"/><path d="M704.36,3101.08a.64.64,0,0,1,.65-.66h12.38a.64.64,0,0,1,.65.66v12.37a.64.64,0,0,1-.65.66H705a.64.64,0,0,1-.65-.66Zm0,112.05v-83.39a.64.64,0,0,1,.65-.65h12.38a.64.64,0,0,1,.65.65v83.39a.64.64,0,0,1-.65.65H705A.64.64,0,0,1,704.36,3213.13Z"/><path d="M737.59,3198.8v-54.73a16.55,16.55,0,0,1,16.29-16.28A15.22,15.22,0,0,1,765.6,3133v-31.92a.64.64,0,0,1,.65-.66h12.38a.64.64,0,0,1,.65.66v112.05a.64.64,0,0,1-.65.65H766.25a.64.64,0,0,1-.65-.65v-3.91a16.29,16.29,0,0,1-11.72,5.22C744.76,3214.44,737.59,3207.27,737.59,3198.8Zm21.5,1.3c3.91,0,7.16-2.6,7.16-7.82v-43c0-5.22-3.25-7.82-7.16-7.82s-7.17,2.6-7.17,7.82v43C751.27,3198.15,754.53,3200.1,759.09,3200.1Z"/><path d="M796.87,3189.68V3153.2c0-16.94,9.78-24.76,21.5-24.76,10.43,0,21.5,7.82,21.5,22.8v25.41a.64.64,0,0,1-.65.65h-28v16.29c0,5.21,3.25,7.82,7.16,7.82s7.17-2.61,7.17-7.82a.64.64,0,0,1,.65-.65h12.38a.64.64,0,0,1,.65.65c-.65,14.33-10.42,22.15-21.5,22.15C806.65,3214.44,796.87,3206.62,796.87,3189.68Zm28.67-25.41v-14.33c0-5.21-3.26-7.82-7.17-7.82s-7.16,2.61-7.16,7.82v14.33Z"/><path d="M884.17,3157.1A141.32,141.32,0,0,1,907,3080.23c0-.65.65-.65,1.3-.65h15a.64.64,0,0,1,.65.65c-16.93,22.15-24.75,48.86-24.75,76.87s7.82,54.73,24.75,76.88c.66.65,0,.65-.65.65h-15a2.27,2.27,0,0,1-1.3-.65C892,3211.83,884.17,3184.47,884.17,3157.1Z"/><path d="M942.16,3213.13V3101.08a.64.64,0,0,1,.65-.66h11.07c.65,0,.65.66,1.31.66l27.36,71.66v-71.66a.64.64,0,0,1,.65-.66h12.38a.64.64,0,0,1,.65.66v112.05a.64.64,0,0,1-.65.65H984.5c-.65,0-.65-.65-1.3-.65l-27.36-71.66v71.66a.64.64,0,0,1-.65.65H942.81A.64.64,0,0,1,942.16,3213.13Z"/><path d="M1017.73,3198.8v-54.73a16.55,16.55,0,0,1,16.29-16.28,15.22,15.22,0,0,1,11.72,5.21v-3.26a.64.64,0,0,1,.65-.65h12.38a.64.64,0,0,1,.65.65v83.39a.64.64,0,0,1-.65.65h-11.72a.64.64,0,0,1-.66-.65v-6.51c-2.6,4.56-6.51,8.47-13,8.47C1024.9,3214.44,1017.73,3207.27,1017.73,3198.8Zm20.85,1.3c3.91,0,7.16-2.6,7.16-7.82v-43c0-5.22-3.25-7.82-7.16-7.82s-7.17,2.6-7.17,7.82v43C1031.41,3198.15,1034.67,3200.1,1038.58,3200.1Z"/><path d="M1103.73,3099.12c13,0,23.45,11.73,23.45,24.76v6.51a.64.64,0,0,1-.65.65h-12.38a2.27,2.27,0,0,1-1.3-.65v-5.86c0-7.17-3.26-11.73-9.12-11.73s-9.78,4.56-9.78,11.73V3189c0,7.16,3.91,11.07,9.78,11.72,5.86,0,9.12-3.9,9.12-11.72v-6.52c0-.65.65-.65,1.3-.65h12.38a.64.64,0,0,1,.65.65v7.17c0,13.68-10.42,24.76-23.45,24.76s-23.46-11.73-23.46-25.41v-64.5C1080.27,3110.2,1090.7,3099.12,1103.73,3099.12Z"/><path d="M1144.12,3194.89v-93.81a.64.64,0,0,1,.65-.66h12.38a.64.64,0,0,1,.65.66v92.51c0,5.21,2.61,6.51,6.51,6.51a.64.64,0,0,1,.66.65v12.38a.64.64,0,0,1-.66.65C1151.94,3214.44,1144.12,3210.53,1144.12,3194.89Z"/><path d="M1179.3,3079.58h15a2.31,2.31,0,0,1,1.31.65,141,141,0,0,1,0,153.75c0,.65-.66.65-1.31.65h-15a.64.64,0,0,1-.65-.65c16.94-22.15,24.75-48.86,24.75-76.88s-7.81-54.72-24.75-76.87A.64.64,0,0,1,1179.3,3079.58Z"/><path d="M27.25,3800.75V3486.17a5.79,5.79,0,0,1,5.74-5.74H63.25c3.13,0,5.21,2.09,6.26,4.7l61.56,172.68,60-172.68q1.56-4.7,6.26-4.7h30.26a5.79,5.79,0,0,1,5.74,5.74v314.58a5.79,5.79,0,0,1-5.74,5.74h-35c-3.13,0-6.26-2.61-6.26-5.74V3623.9l-42.25,118.42c-.52,1.57-2.09,4.17-6.26,4.17H122.72a6.73,6.73,0,0,1-6.26-4.17L74.2,3623.9v176.85c0,3.13-3.13,5.74-6.26,5.74H33C29.34,3806.49,27.25,3804.4,27.25,3800.75Z"/><path d="M268.79,3567.56c0-3.66,2.61-5.74,5.22-5.74H309c3.13,0,6.26,2.61,6.26,5.21l31.3,146.08L377.82,3567c0-3.13,3.13-5.21,6.26-5.21h35c3.13,0,5.21,2.08,5.21,5.74v.52l-48,208.67L364.78,3830c-11.48,47-27.13,57.91-74.08,57.91a5.79,5.79,0,0,1-5.74-5.74v-35.47a5.79,5.79,0,0,1,5.74-5.74h1c11.48,0,21.92,0,27.13-18.78l4.18-18.78-54.26-235.8Z"/><path d="M457.64,3561.82h34.95a5.79,5.79,0,0,1,5.74,5.74v2.6a56,56,0,0,1,32.87-10.43,51.43,51.43,0,0,1,15.65,2.09c3.13,1,3.65,3.13,3.65,6.26v34.43c0,2.09-.52,3.13-2.09,4.17a10.16,10.16,0,0,1-4.17.52,64.09,64.09,0,0,0-9.91-1c-24,0-36.52,15.13-36.52,39.13v156a5.79,5.79,0,0,1-5.74,5.74H457.12a5.79,5.79,0,0,1-5.74-5.74V3567.56A6.67,6.67,0,0,1,457.64,3561.82Z"/><path d="M584.93,3561.82h14.61v-55.3c0-3.13,2.61-6.26,5.74-6.26h35a6.73,6.73,0,0,1,6.26,6.26v55.3h20.35a5.79,5.79,0,0,1,5.74,5.74v30.25a5.79,5.79,0,0,1-5.74,5.74H646.49v140.86c0,13,5.22,15.13,15.65,15.13h4.18c3.13,0,5.73,3.13,5.73,6.26v34.95a5.78,5.78,0,0,1-5.73,5.74h-4.18c-43.3,0-63.12-14.09-63.12-59.47V3603.55H584.41a5.79,5.79,0,0,1-5.74-5.74v-30.25C579.19,3564.43,581.28,3561.82,584.93,3561.82Z"/><path d="M717.44,3800.23V3486.17c0-3.13,2.61-6.26,5.74-6.26h35c3.13,0,5.74,3.13,5.74,6.26v83.47a49,49,0,0,1,30.26-9.91c26.61,0,50.08,21.39,50.08,48.52v192.5c0,3.13-3.13,5.74-6.26,5.74H803a5.79,5.79,0,0,1-5.74-5.74V3624.42c0-11-5.74-17.74-16.17-17.74-14.61,0-16.7,11-16.7,17.74v176.33a5.79,5.79,0,0,1-5.74,5.74H723.7Q717.45,3805.71,717.44,3800.23Z"/><path d="M889.08,3632.77c0-39.13,20.86-73.56,63.12-73.56,37.56,0,62.6,29.73,62.6,66.25v70.95a5.79,5.79,0,0,1-5.74,5.74H935.51v42.26c0,11,6.26,17.21,16.69,17.21,4.7,0,15.65-1.56,15.65-17.21a5.79,5.79,0,0,1,5.74-5.74h34.95a5.79,5.79,0,0,1,5.74,5.74c-1,36-25.56,64.69-62.6,64.69-42.26,0-63.13-35-63.13-74.08V3632.77Zm46.43,28.17h32.86v-37c0-11-5.74-17.74-15.65-17.74-10.43,0-16.69,6.78-16.69,17.74v37Z"/><path d="M1056.54,3607.73c0-27.13,23-48.52,49.56-48.52a49,49,0,0,1,30.26,9.91V3567a5.77,5.77,0,0,1,5.73-5.73h35.48a5.78,5.78,0,0,1,5.74,5.73v248.85c0,39.13-20.87,74.6-63.13,74.6-37.56,0-63.12-27.13-63.12-64.17,0-1,0-3.13.52-3.65a7.17,7.17,0,0,1,5.22-2.61h34.43c3.13,0,6.26,2.61,6.26,5.74,0,11.48,6.26,18.26,16.17,18.26s16.17-6.78,16.17-18.26v-44.86a48.94,48.94,0,0,1-30.25,9.91c-26.61,0-49.56-21.39-49.56-48.52V3607.73Zm63.64,136.16c9.92,0,16.18-6.79,16.18-17.74V3624.42c0-11-6.26-17.74-16.18-17.74s-16.17,6.78-16.17,17.74v101.73C1103.49,3737.1,1109.75,3743.89,1120.18,3743.89Z"/><path d="M1234.43,3761.1V3607.73c0-27.13,21.91-48.52,49-48.52a49,49,0,0,1,30.26,9.91V3567a5.78,5.78,0,0,1,5.74-5.73h35a5.78,5.78,0,0,1,5.74,5.73v233.2a5.79,5.79,0,0,1-5.74,5.74h-32.87a5.78,5.78,0,0,1-5.73-5.74v-7.31c-8.87,9.92-19.83,15.13-32.87,15.13C1256.87,3809.1,1234.43,3787.71,1234.43,3761.1Zm46.43-136.68v120.51c0,15.13,9.91,17.74,16.18,17.74,10.43,0,16.17-6.79,16.17-17.74V3624.42c0-11.48-5.74-18.26-16.17-18.26C1290.77,3606.16,1280.86,3608.25,1280.86,3624.42Z"/><path d="M1394.59,3567.56a6.17,6.17,0,0,1,5.74-5.74h14.61v-21.91c0-45.39,20.34-59.48,63.12-59.48h7.83a5.78,5.78,0,0,1,5.73,5.74v35.48a5.78,5.78,0,0,1-5.73,5.74h-7.83c-11,0-16.17,2.6-16.17,15.12v19.31h24a5.78,5.78,0,0,1,5.73,5.74v30.25a5.78,5.78,0,0,1-5.73,5.74h-24v197.2a5.79,5.79,0,0,1-5.74,5.74h-35c-3.13,0-6.26-2.61-6.26-5.74v-197.2h-14.61a5.79,5.79,0,0,1-5.74-5.74Z"/><path d="M1540.14,3480.43h35.48a5.78,5.78,0,0,1,5.73,5.74V3747c0,12.52,4.7,15.12,14.61,15.12a5.79,5.79,0,0,1,5.74,5.74v35.48a5.79,5.79,0,0,1-5.74,5.74c-41.73,0-61.56-16.18-61.56-59.48V3486.17A5.48,5.48,0,0,1,1540.14,3480.43Z"/><path d="M1702.91,3559.21c42.25,0,62.6,34.43,62.6,73.56v102.77c0,38.6-20.35,74.08-62.6,74.08s-63.13-34.95-63.13-74.08V3632.77C1639.78,3593.64,1660.13,3559.21,1702.91,3559.21Zm0,202.93c4.69,0,15.65-1.56,15.65-17.21v-121c0-11-5.74-17.74-15.65-17.74-10.44,0-16.7,6.78-16.7,17.74v121C1686.21,3755.88,1692.47,3762.14,1702.91,3762.14Z"/><path d="M1813.51,3800.75V3567.56a5.78,5.78,0,0,1,5.73-5.74h35a5.79,5.79,0,0,1,5.74,5.74v2.08a48.94,48.94,0,0,1,30.25-9.91c26.61,0,49,20.87,49,48v193.54a5.79,5.79,0,0,1-5.74,5.74h-35a5.79,5.79,0,0,1-5.74-5.74V3623.9c0-11-5.74-17.74-15.65-17.74-6.26,0-16.69,2.61-16.69,17.74v176.85a5.79,5.79,0,0,1-5.74,5.74h-35C1816.11,3806.49,1813.51,3804.4,1813.51,3800.75Z"/><path d="M1989.31,3541V3483a.51.51,0,0,1,.53-.52h11.47c8.87,0,14.09,5.22,14.09,14.61v6.26a15.29,15.29,0,0,1-5.22,12l8.87,26.08v.52h-6.78a.51.51,0,0,1-.52-.52l-7.83-23.47h-6.26V3541a.51.51,0,0,1-.52.52l-7.83-.52C1989.84,3541.47,1989.31,3541.47,1989.31,3541Zm7.31-30.78h4.17c5.22,0,6.78-2.61,6.78-7.3v-5.22c0-4.7-1.56-7.3-6.78-7.3h-4.17Z"/><path d="M2002.88,3466.87a45.43,45.43,0,0,0-45.39,45.39c0,25,20.35,44.86,45.39,44.86s45.38-20.34,45.38-44.86C2047.74,3487.22,2027.4,3466.87,2002.88,3466.87Zm-.52,83a37.56,37.56,0,1,1,37.56-37.56A37.41,37.41,0,0,1,2002.36,3549.82Z"/><path d="M2243.38,3743.36H2270a1.39,1.39,0,0,1,1.57,1.57v15.13c0,12.52,4.17,19.82,15.13,19.82,10.43,0,14.6-7.3,14.6-19.82v-52.69c0-13-7.82-19.83-18.78-19.83h-8.35a1.38,1.38,0,0,1-1.56-1.56v-26.61a1.66,1.66,0,0,1,1.56-1.56h6.26c9.4,0,20.87-12.52,20.87-35.48V3615c0-12.52-4.17-19.82-14.6-19.82-11,.52-15.13,7.82-15.13,19.82v14.61a1.39,1.39,0,0,1-1.57,1.56h-26.6a1.38,1.38,0,0,1-1.57-1.56V3615c0-27.65,17.74-50.6,44.87-50.6,26.6,0,44.86,22.43,44.86,49.56v11.47c0,17.22-2.61,23.48-13.56,39.13l-3.66,4.17c10.44,10.44,16.7,27.65,16.7,51.13v41.21c0,26.61-17.74,49-44.87,49s-44.86-22.43-44.86-50.6v-14.61C2241.81,3744.41,2242.33,3743.36,2243.38,3743.36Z"/><path d="M2373.28,3613.46c0-27.12,19.82-48.51,44.86-48.51,24.52,0,44.87,21.39,44.87,47v150.24c0,26.09-19.83,47.48-44.87,47.48s-44.86-21.39-44.86-48Zm29.73,145c0,13.57,3.65,21.39,15.13,21.39,11,0,14.61-8.34,14.61-21.91V3616.59c0-13.56-3.65-21.39-14.61-21.39-11.48,0-15.13,8.35-15.13,21.39Z"/><path d="M2537.08,3627.55h26.61a1.39,1.39,0,0,1,1.57,1.56v7.31a34.17,34.17,0,0,1,25.56-11c12.52,0,24,6.78,29.73,16.7,5.74-10.44,16.7-16.7,29.74-16.7,18.78,0,34.43,15.65,34.43,33.91v145.55a1.38,1.38,0,0,1-1.56,1.57h-26.61a1.38,1.38,0,0,1-1.56-1.57v-133c0-11.47-6.79-16.17-14.61-16.17-8.35,0-15.13,4.7-15.13,16.17v133.55a1.38,1.38,0,0,1-1.56,1.57h-26.61a1.39,1.39,0,0,1-1.57-1.57V3671.89c0-11.47-6.78-16.17-14.6-16.17-8.35,0-15.13,4.7-15.13,16.17v133.55a1.39,1.39,0,0,1-1.57,1.57h-26.6a1.39,1.39,0,0,1-1.57-1.57v-175.8C2535.52,3628.59,2536,3627.55,2537.08,3627.55Z"/><path d="M2725.41,3659.89c0-18.25,15.65-33.91,34.43-33.91,10.44,0,18.79,4.18,25.57,11v-7.3a1.38,1.38,0,0,1,1.56-1.57h26.61a1.38,1.38,0,0,1,1.56,1.57V3816.4c0,36-21.39,53.21-44.86,53.21-22.43,0-44.34-14.6-44.87-45.91-.52-1,.53-1.56,1.57-1.56h26.08a1.38,1.38,0,0,1,1.57,1.56c0,11,6.78,16.18,15.13,16.18s14.6-5.22,14.6-16.18v-39.64a34.16,34.16,0,0,1-25.56,11c-18.78,0-34.43-15.65-34.43-33.91V3659.89Zm29.74,12v76.17c0,11,6.78,16.17,15.13,16.17s14.61-5.22,14.61-16.17v-76.17c0-10.95-6.79-16.17-14.61-16.17C2761.93,3655.72,2755.15,3660.94,2755.15,3671.89Z"/><path d="M34,3985.43v-5.22a.51.51,0,0,1,.52-.52h9.92a.51.51,0,0,1,.52.52V3986c0,4.69,3.13,7.3,7.3,7.82,4.17,0,7.3-2.6,7.3-7.82v-6.26a16.73,16.73,0,0,0-3.13-9.39l-9.91-12a110.3,110.3,0,0,1-7.3-8.87c-4.18-6.26-5.22-8.35-5.22-14.61v-4.17c0-9.91,8.35-18.78,18.26-18.78,10.43,0,18.26,8.35,18.26,19.3v5.22a.51.51,0,0,1-.52.52H60.12a.51.51,0,0,1-.53-.52v-5.74c0-4.7-2.6-7.3-6.78-7.83-4.17,0-7.3,2.61-7.3,7.83v3.65c0,5.22,3.13,8.35,4.69,11l7.83,9.39a108.1,108.1,0,0,1,7.3,8.87c4.18,6.26,5.22,9.39,5.22,18.25V3986c0,9.91-8.35,18.78-18.26,18.78C41.86,4004.73,34,3995.86,34,3985.43Z"/><path d="M85.68,3984.38v-29.21c0-13.56,7.82-19.83,17.21-19.83,8.87,0,17.22,6.27,17.22,19.83v29.21c0,13.57-7.83,20.35-17.22,20.35C93.5,4004.21,85.68,3998,85.68,3984.38ZM96.63,3987c0,4.18,2.61,6.26,5.74,6.26s5.74-2.08,5.74-6.26v-34.43c0-4.17-2.61-6.26-5.74-6.26s-5.74,2.09-5.74,6.26Z"/><path d="M133.67,3991.69v-43.82a13.26,13.26,0,0,1,13.05-13,12.22,12.22,0,0,1,9.39,4.18v-25.57a.51.51,0,0,1,.52-.52h9.91a.51.51,0,0,1,.52.52v89.73a.51.51,0,0,1-.52.53h-9.91a.52.52,0,0,1-.52-.53V4000a13.07,13.07,0,0,1-9.39,4.18C139.93,4004.21,133.67,3998.47,133.67,3991.69Zm17.22,1c3.13,0,5.74-2.09,5.74-6.26V3952c0-4.17-2.61-6.26-5.74-6.26s-5.74,2.09-5.74,6.26v34.43C145.15,3991.17,147.76,3992.73,150.89,3992.73Z"/><path d="M183.23,3913.43a.52.52,0,0,1,.53-.52h9.91a.51.51,0,0,1,.52.52v9.92a.51.51,0,0,1-.52.52h-9.91a.51.51,0,0,1-.53-.52Zm0,89.73v-66.77a.52.52,0,0,1,.53-.52h9.91a.51.51,0,0,1,.52.52v66.77a.51.51,0,0,1-.52.53h-9.91A.52.52,0,0,1,183.23,4003.16Z"/><path d="M210.36,3935.34h9.91a.52.52,0,0,1,.53.53v50.6c0,4.17,2.6,6.26,5.73,6.26s5.74-2.09,5.74-6.26v-50.6a.51.51,0,0,1,.52-.53h9.92a.52.52,0,0,1,.52.53v66.77a.51.51,0,0,1-.52.52h-9.92a.51.51,0,0,1-.52-.52V4000a13.07,13.07,0,0,1-9.39,4.18,12.92,12.92,0,0,1-13-13v-54.78C209.84,3935.87,209.84,3935.34,210.36,3935.34Z"/><path d="M259.4,3935.34h9.91a.52.52,0,0,1,.52.53v2.6a13.1,13.1,0,0,1,9.39-4.17,14.34,14.34,0,0,1,11.48,6.26,13.26,13.26,0,0,1,24.52,6.78v55.3a.51.51,0,0,1-.52.52h-9.91a.51.51,0,0,1-.52-.52V3952c0-4.17-2.61-6.26-5.74-6.26s-5.74,2.09-5.74,6.26v50.6a.51.51,0,0,1-.52.52h-9.92a.51.51,0,0,1-.52-.52V3952c0-4.17-2.61-6.26-5.74-6.26s-5.73,2.09-5.73,6.26v50.6a.52.52,0,0,1-.53.52h-9.91a.51.51,0,0,1-.52-.52v-66.25A.73.73,0,0,1,259.4,3935.34Z"/><path d="M353.3,3954.65c0-13.57,7.83-19.83,17.22-19.83,8.35,0,16.69,5.22,17.22,17.22a.52.52,0,0,1-.53.52H377.3a.51.51,0,0,1-.52-.52c0-4.17-2.61-6.26-5.74-6.26s-5.74,2.09-5.74,6.26v34.43c0,4.17,2.61,6.26,5.74,6.26s5.74-2.09,5.74-6.26a.51.51,0,0,1,.52-.52h9.91a.51.51,0,0,1,.53.52c-.53,12-8.35,17.74-17.22,17.74s-17.22-6.78-17.22-20.35Z"/><path d="M398.69,4003.16v-89.73a.51.51,0,0,1,.52-.52h9.91a.51.51,0,0,1,.53.52V3939a12.92,12.92,0,0,1,22.43,8.87v55.29a.51.51,0,0,1-.52.53h-9.92a.52.52,0,0,1-.52-.53v-50.6c0-4.17-2.61-6.26-5.74-6.26s-5.73,2.09-5.73,6.26v50.6a.52.52,0,0,1-.53.53h-9.91Z"/><path d="M447.73,3988.56v-75.13a.51.51,0,0,1,.52-.52h9.91a.51.51,0,0,1,.52.52v74.08c0,4.18,2.09,5.22,5.22,5.22a.51.51,0,0,1,.52.52v9.91a.51.51,0,0,1-.52.53C454,4004.21,447.73,4001.08,447.73,3988.56Z"/><path d="M476.42,3984.38v-29.21c0-13.56,7.83-19.83,17.22-19.83,8.87,0,17.21,6.27,17.21,19.83v29.21c0,13.57-7.82,20.35-17.21,20.35C484.25,4004.21,476.42,3998,476.42,3984.38ZM487.9,3987c0,4.18,2.61,6.26,5.74,6.26s5.74-2.08,5.74-6.26v-34.43c0-4.17-2.61-6.26-5.74-6.26s-5.74,2.09-5.74,6.26Z"/><path d="M525.46,3935.34h9.91a.52.52,0,0,1,.52.53v2.6a14.6,14.6,0,0,1,10.44-4.17,11.5,11.5,0,0,1,4.17.52c.52,0,.52.52.52,1v9.91c0,.52,0,.52-.52.52-1,0-2.09-.52-3.13-.52-6.26,0-11.48,3.65-11.48,12v44.86a.51.51,0,0,1-.52.52h-9.91a.51.51,0,0,1-.52-.52v-66.25C524.94,3935.87,524.94,3935.34,525.46,3935.34Z"/><path d="M563.54,3913.43a.52.52,0,0,1,.53-.52H574a.51.51,0,0,1,.52.52v9.92a.51.51,0,0,1-.52.52h-9.91a.51.51,0,0,1-.53-.52Zm0,89.73v-66.77a.52.52,0,0,1,.53-.52H574a.51.51,0,0,1,.52.52v66.77a.51.51,0,0,1-.52.53h-9.91A.52.52,0,0,1,563.54,4003.16Z"/><path d="M590.15,3991.69v-43.82a13.25,13.25,0,0,1,13-13,12.21,12.21,0,0,1,9.39,4.18v-25.57a.51.51,0,0,1,.52-.52H623a.51.51,0,0,1,.52.52v89.73a.51.51,0,0,1-.52.53H613.1a.52.52,0,0,1-.52-.53V4000a13.07,13.07,0,0,1-9.39,4.18A12.81,12.81,0,0,1,590.15,3991.69Zm17.22,1c3.13,0,5.73-2.09,5.73-6.26V3952c0-4.17-2.6-6.26-5.73-6.26s-5.74,2.09-5.74,6.26v34.43C601.11,3991.17,603.71,3992.73,607.37,3992.73Z"/><path d="M637.62,3984.38v-29.21c0-13.56,7.83-19.83,17.22-19.83,8.35,0,17.21,6.27,17.21,18.26V3974a.51.51,0,0,1-.52.52H649.1v13c0,4.18,2.61,6.26,5.74,6.26s5.74-2.08,5.74-6.26a.51.51,0,0,1,.52-.52H671a.51.51,0,0,1,.52.52c-.52,11.48-8.34,17.74-17.21,17.74C645.45,4004.21,637.62,3998,637.62,3984.38Zm23-20.34v-11.48c0-4.17-2.61-6.26-5.74-6.26s-5.74,2.09-5.74,6.26V3964Z"/><path d="M707.53,3958.3a113.2,113.2,0,0,1,18.26-61.56c0-.52.52-.52,1-.52h12a.51.51,0,0,1,.52.52c-13.56,17.74-19.82,39.13-19.82,61.56s6.26,43.82,19.82,61.56c.52.52,0,.52-.52.52h-12a1.82,1.82,0,0,1-1-.52C713.79,4002.12,707.53,3980.21,707.53,3958.3Z"/><path d="M754,4003.16v-89.73a.51.51,0,0,1,.52-.52h8.87c.52,0,.52.52,1,.52l21.91,57.39v-57.39a.52.52,0,0,1,.53-.52h9.91a.51.51,0,0,1,.52.52v89.73a.51.51,0,0,1-.52.53h-8.87c-.52,0-.52-.53-1-.53l-21.92-57.38v57.38a.51.51,0,0,1-.52.53h-9.91A.52.52,0,0,1,754,4003.16Z"/><path d="M814.47,3991.69v-43.82a13.26,13.26,0,0,1,13-13,12.22,12.22,0,0,1,9.39,4.18v-2.61a.51.51,0,0,1,.52-.52h9.91a.51.51,0,0,1,.52.52v66.77a.51.51,0,0,1-.52.53H838a.52.52,0,0,1-.52-.53V3998c-2.09,3.65-5.22,6.78-10.43,6.78C820.21,4004.21,814.47,3998.47,814.47,3991.69Zm16.7,1c3.13,0,5.74-2.09,5.74-6.26V3952c0-4.17-2.61-6.26-5.74-6.26s-5.74,2.09-5.74,6.26v34.43C825.43,3991.17,828,3992.73,831.17,3992.73Z"/><path d="M883.34,3911.87c10.43,0,18.78,9.39,18.78,19.82v5.22a.51.51,0,0,1-.52.52h-9.92a1.82,1.82,0,0,1-1-.52v-4.7c0-5.73-2.61-9.39-7.3-9.39s-7.83,3.66-7.83,9.39v51.65c0,5.74,3.13,8.87,7.83,9.39,4.69,0,7.3-3.13,7.3-9.39v-5.22c0-.52.52-.52,1-.52h9.92a.51.51,0,0,1,.52.52v5.74c0,11-8.35,19.83-18.78,19.83s-18.78-9.39-18.78-20.35v-51.65C864.56,3920.74,872.9,3911.87,883.34,3911.87Z"/><path d="M915.68,3988.56v-75.13a.51.51,0,0,1,.52-.52h9.92a.51.51,0,0,1,.52.52v74.08c0,4.18,2.08,5.22,5.21,5.22a.51.51,0,0,1,.53.52v9.91a.52.52,0,0,1-.53.53C921.94,4004.21,915.68,4001.08,915.68,3988.56Z"/><path d="M943.85,3896.22h12a1.86,1.86,0,0,1,1,.52,113,113,0,0,1,0,123.12c0,.52-.53.52-1,.52h-12a.51.51,0,0,1-.52-.52c13.57-17.74,19.83-39.13,19.83-61.56s-6.26-43.82-19.83-61.56A.51.51,0,0,1,943.85,3896.22Z"/><path d="M20.37,4477.28V4225.81a4.63,4.63,0,0,1,4.59-4.59H49.15a5.38,5.38,0,0,1,5,3.75l49.21,138,48-138a4.92,4.92,0,0,1,5-3.75h24.19a4.62,4.62,0,0,1,4.58,4.59v251.47a4.62,4.62,0,0,1-4.58,4.59h-28c-2.5,0-5-2.08-5-4.59V4335.91l-33.78,94.66a4.86,4.86,0,0,1-5,3.34H96.69a5.36,5.36,0,0,1-5-3.34l-33.78-94.66v141.37c0,2.51-2.51,4.59-5,4.59H25C22,4481.87,20.37,4480.2,20.37,4477.28Z"/><path d="M213.46,4290.87a4.29,4.29,0,0,1,4.17-4.59h28c2.5,0,5,2.08,5,4.17l25,116.77,25-116.77c0-2.5,2.5-4.17,5-4.17h27.94c2.5,0,4.17,1.67,4.17,4.59v.41L299.37,4458.1l-9.17,42.54c-9.18,37.53-21.69,46.29-59.22,46.29a4.63,4.63,0,0,1-4.59-4.59V4514a4.63,4.63,0,0,1,4.59-4.58h.83c9.18,0,17.52,0,21.69-15l3.34-15-43.38-188.5Z"/><path d="M364.43,4286.28h27.95a4.62,4.62,0,0,1,4.58,4.59V4293a44.79,44.79,0,0,1,26.28-8.34,41.29,41.29,0,0,1,12.51,1.67c2.5.83,2.92,2.5,2.92,5v27.53a3.37,3.37,0,0,1-1.67,3.33,8.09,8.09,0,0,1-3.34.42,50.68,50.68,0,0,0-7.92-.83c-19.18,0-29.19,12.09-29.19,31.27v124.7a4.64,4.64,0,0,1-4.59,4.59H364a4.63,4.63,0,0,1-4.59-4.59V4290.87A5.33,5.33,0,0,1,364.43,4286.28Z"/><path d="M466.19,4286.28h11.68v-44.21c0-2.5,2.08-5,4.59-5H510.4a5.38,5.38,0,0,1,5,5v44.21h16.27a4.63,4.63,0,0,1,4.59,4.59v24.18a4.63,4.63,0,0,1-4.59,4.59H515.4v112.6c0,10.43,4.17,12.1,12.52,12.1h3.33c2.5,0,4.59,2.5,4.59,5v27.94a4.63,4.63,0,0,1-4.59,4.59h-3.33c-34.62,0-50.47-11.26-50.47-47.54V4319.64H465.78a4.62,4.62,0,0,1-4.59-4.59v-24.18C461.6,4288.36,463.27,4286.28,466.19,4286.28Z"/><path d="M572.12,4476.87V4225.81c0-2.51,2.09-5,4.59-5h27.94c2.5,0,4.59,2.5,4.59,5v66.72a39.15,39.15,0,0,1,24.19-7.92c21.27,0,40,17.1,40,38.78v153.89c0,2.51-2.5,4.59-5,4.59H640.52a4.62,4.62,0,0,1-4.59-4.59v-141c0-8.75-4.59-14.18-12.93-14.18-11.68,0-13.34,8.76-13.34,14.18v141a4.63,4.63,0,0,1-4.59,4.59H577.13C573.79,4481.45,572.12,4479.79,572.12,4476.87Z"/><path d="M709.33,4343c0-31.28,16.68-58.81,50.46-58.81,30,0,50.05,23.77,50.05,53v56.72a4.63,4.63,0,0,1-4.59,4.58h-58.8v33.78c0,8.76,5,13.77,13.34,13.77,3.76,0,12.51-1.26,12.51-13.77a4.63,4.63,0,0,1,4.59-4.58h27.94a4.63,4.63,0,0,1,4.59,4.58c-.83,28.78-20.44,51.72-50,51.72-33.78,0-50.46-27.95-50.46-59.22V4343Zm37.12,22.52h26.27v-29.61c0-8.76-4.59-14.18-12.51-14.18-8.34,0-13.35,5.42-13.35,14.18v29.61Z"/><path d="M843.2,4323c0-21.69,18.35-38.79,39.62-38.79a39.09,39.09,0,0,1,24.19,7.93v-1.67a4.63,4.63,0,0,1,4.59-4.59H940a4.63,4.63,0,0,1,4.58,4.59v198.93c0,31.28-16.68,59.64-50.46,59.64-30,0-50.46-21.69-50.46-51.3,0-.83,0-2.5.41-2.92a5.76,5.76,0,0,1,4.18-2.09h27.52c2.5,0,5,2.09,5,4.59,0,9.18,5,14.6,12.93,14.6s12.93-5.42,12.93-14.6v-35.86a39.15,39.15,0,0,1-24.19,7.92c-21.27,0-39.62-17.1-39.62-38.78V4323Zm50.88,108.85c7.92,0,12.93-5.43,12.93-14.18v-81.33c0-8.75-5-14.18-12.93-14.18s-12.93,5.43-12.93,14.18v81.33C880.73,4426.4,885.74,4431.83,894.08,4431.83Z"/><path d="M985.41,4445.59V4323a39.62,39.62,0,0,1,63.39-30.86v-1.67a4.64,4.64,0,0,1,4.59-4.59h27.94a4.63,4.63,0,0,1,4.59,4.59v186.42a4.62,4.62,0,0,1-4.59,4.58h-26.27a4.63,4.63,0,0,1-4.59-4.58V4471c-7.09,7.92-15.85,12.09-26.27,12.09C1003.35,4484,985.41,4466.86,985.41,4445.59Zm37.12-109.27v96.34c0,12.09,7.92,14.18,12.93,14.18,8.34,0,12.93-5.42,12.93-14.18v-96.34c0-9.17-4.59-14.59-12.93-14.59C1030.45,4321.73,1022.53,4323.39,1022.53,4336.32Z"/><path d="M1113.45,4290.87a4.92,4.92,0,0,1,4.58-4.59h11.68v-17.52c0-36.28,16.26-47.54,50.46-47.54h6.26a4.63,4.63,0,0,1,4.59,4.59v28.36a4.63,4.63,0,0,1-4.59,4.58h-6.26c-8.76,0-12.93,2.09-12.93,12.1v15.43h19.19a4.63,4.63,0,0,1,4.59,4.59v24.18a4.63,4.63,0,0,1-4.59,4.59h-19.19v157.64a4.62,4.62,0,0,1-4.58,4.59h-28c-2.5,0-5-2.08-5-4.59V4319.64H1118a4.62,4.62,0,0,1-4.58-4.59Z"/><path d="M1229.8,4221.22h28.36a4.63,4.63,0,0,1,4.59,4.59v208.52c0,10,3.75,12.09,11.67,12.09A4.63,4.63,0,0,1,1279,4451v28.36a4.63,4.63,0,0,1-4.59,4.59c-33.36,0-49.21-12.93-49.21-47.55v-210.6A4.38,4.38,0,0,1,1229.8,4221.22Z"/><path d="M1359.92,4284.19c33.78,0,50,27.53,50,58.81v82.15c0,30.86-16.26,59.22-50,59.22s-50.46-27.94-50.46-59.22V4343C1309.46,4311.72,1325.72,4284.19,1359.92,4284.19Zm0,162.23c3.75,0,12.51-1.25,12.51-13.76v-96.75c0-8.76-4.59-14.18-12.51-14.18-8.34,0-13.35,5.42-13.35,14.18v96.75C1346.57,4441.42,1351.58,4446.42,1359.92,4446.42Z"/><path d="M1448.33,4477.28V4290.87a4.63,4.63,0,0,1,4.59-4.59h27.94a4.63,4.63,0,0,1,4.59,4.59v1.66a39.15,39.15,0,0,1,24.19-7.92c21.27,0,39.2,16.68,39.2,38.37V4477.7a4.64,4.64,0,0,1-4.59,4.59h-27.94a4.64,4.64,0,0,1-4.59-4.59V4335.91c0-8.76-4.58-14.18-12.51-14.18-5,0-13.34,2.08-13.34,14.18v141.37a4.63,4.63,0,0,1-4.59,4.59h-27.94C1450.42,4481.87,1448.33,4480.2,1448.33,4477.28Z"/><path d="M1588.88,4269.6v-46.3a.4.4,0,0,1,.41-.41h9.18c7.09,0,11.26,4.17,11.26,11.67v5a12.2,12.2,0,0,1-4.17,9.59l7.09,20.85v.42h-5.42a.41.41,0,0,1-.42-.42l-6.26-18.76h-5v18.35a.4.4,0,0,1-.42.41l-6.25-.41C1589.29,4270,1588.88,4270,1588.88,4269.6Zm5.83-24.61h3.34c4.17,0,5.42-2.09,5.42-5.84V4235c0-3.75-1.25-5.84-5.42-5.84h-3.34Z"/><path d="M1599.72,4210.38a36.07,36.07,0,1,0,0,72.14c20,0,36.28-16.26,36.28-35.86C1635.59,4226.64,1619.32,4210.38,1599.72,4210.38Zm-.42,66.31a30,30,0,1,1,30-30A29.9,29.9,0,0,1,1599.3,4276.69Z"/><path d="M1792,4431.41h21.27a1.11,1.11,0,0,1,1.25,1.25v12.09c0,10,3.33,15.85,12.09,15.85,8.34,0,11.68-5.84,11.68-15.85v-42.12c0-10.42-6.26-15.84-15-15.84h-6.68a1.11,1.11,0,0,1-1.25-1.26v-21.27a1.34,1.34,0,0,1,1.25-1.25h5c7.5,0,16.68-10,16.68-28.36v-5.83c0-10-3.34-15.85-11.68-15.85-8.76.42-12.09,6.25-12.09,15.85v11.67a1.1,1.1,0,0,1-1.25,1.25H1792a1.1,1.1,0,0,1-1.25-1.25v-11.67c0-22.11,14.18-40.46,35.86-40.46,21.27,0,35.87,17.94,35.87,39.62v9.18c0,13.76-2.09,18.76-10.85,31.28l-2.92,3.33c8.35,8.34,13.35,22.11,13.35,40.87v32.95c0,21.27-14.18,39.2-35.87,39.2s-35.86-17.93-35.86-40.45v-11.68C1790.73,4432.24,1791.14,4431.41,1792,4431.41Z"/><path d="M1895.82,4327.57c0-21.69,15.85-38.79,35.87-38.79,19.6,0,35.86,17.1,35.86,37.53v120.11c0,20.85-15.84,37.95-35.86,37.95s-35.87-17.1-35.87-38.36Zm23.77,115.93c0,10.85,2.92,17.1,12.1,17.1,8.75,0,11.67-6.67,11.67-17.51v-113c0-10.85-2.92-17.1-11.67-17.1-9.18,0-12.1,6.67-12.1,17.1Z"/><path d="M2026.77,4338.83H2048a1.1,1.1,0,0,1,1.25,1.25v5.83a27.34,27.34,0,0,1,20.44-8.75,27.69,27.69,0,0,1,23.77,13.34c4.59-8.34,13.35-13.34,23.77-13.34,15,0,27.53,12.51,27.53,27.1v116.36a1.11,1.11,0,0,1-1.25,1.25h-21.27a1.1,1.1,0,0,1-1.25-1.25V4374.27c0-9.17-5.43-12.92-11.68-12.92-6.67,0-12.1,3.75-12.1,12.92V4481a1.1,1.1,0,0,1-1.25,1.25h-21.27a1.11,1.11,0,0,1-1.25-1.25V4374.27c0-9.17-5.42-12.92-11.68-12.92-6.67,0-12.09,3.75-12.09,12.92V4481a1.11,1.11,0,0,1-1.25,1.25h-21.27a1.11,1.11,0,0,1-1.25-1.25V4340.49C2025.52,4339.66,2025.94,4338.83,2026.77,4338.83Z"/><path d="M2177.33,4364.68c0-14.59,12.51-27.11,27.52-27.11,8.34,0,15,3.34,20.44,8.76v-5.84a1.1,1.1,0,0,1,1.25-1.25h21.27a1.11,1.11,0,0,1,1.25,1.25V4489.8c0,28.77-17.1,42.53-35.87,42.53-17.93,0-35.45-11.67-35.86-36.7-.42-.83.41-1.25,1.25-1.25h20.85a1.11,1.11,0,0,1,1.25,1.25c0,8.76,5.42,12.93,12.09,12.93s11.68-4.17,11.68-12.93v-31.69a27.31,27.31,0,0,1-20.43,8.76c-15,0-27.53-12.51-27.53-27.11v-80.91Zm23.77,9.59v60.89c0,8.76,5.42,12.93,12.09,12.93s11.68-4.17,11.68-12.93v-60.89c0-8.75-5.42-12.92-11.68-12.92C2206.52,4361.35,2201.1,4365.52,2201.1,4374.27Z"/><path d="M25.79,4624.92v-4.17a.41.41,0,0,1,.42-.42h7.92a.41.41,0,0,1,.42.42v4.58c0,3.76,2.5,5.84,5.84,6.26,3.34,0,5.84-2.08,5.84-6.26v-5a13.44,13.44,0,0,0-2.5-7.51l-7.93-9.59a88.09,88.09,0,0,1-5.84-7.09c-3.33-5-4.17-6.67-4.17-11.68v-3.33c0-7.93,6.68-15,14.6-15,8.34,0,14.6,6.68,14.6,15.44v4.17a.41.41,0,0,1-.42.41H46.65a.4.4,0,0,1-.42-.41v-4.59c0-3.76-2.09-5.84-5.42-6.26-3.34,0-5.84,2.09-5.84,6.26v2.92c0,4.17,2.5,6.67,3.75,8.76l6.26,7.5a88.09,88.09,0,0,1,5.84,7.09c3.33,5,4.17,7.51,4.17,14.6v3.33c0,7.93-6.68,15-14.6,15C32.05,4640.35,25.79,4633.26,25.79,4624.92Z"/><path d="M67.08,4624.08v-23.35c0-10.84,6.26-15.85,13.76-15.85,7.09,0,13.77,5,13.77,15.85v23.35c0,10.85-6.26,16.27-13.77,16.27C73.34,4639.93,67.08,4634.93,67.08,4624.08Zm8.76,2.09c0,3.34,2.08,5,4.59,5s4.58-1.66,4.58-5v-27.53c0-3.33-2.08-5-4.58-5s-4.59,1.67-4.59,5Z"/><path d="M105.45,4629.92v-35a10.6,10.6,0,0,1,10.43-10.43,9.79,9.79,0,0,1,7.5,3.34v-20.43a.41.41,0,0,1,.42-.42h7.92a.41.41,0,0,1,.42.42v71.73a.41.41,0,0,1-.42.41H123.8a.4.4,0,0,1-.42-.41v-2.51a10.42,10.42,0,0,1-7.5,3.34C110.45,4639.93,105.45,4635.34,105.45,4629.92Zm13.76.84c2.5,0,4.59-1.67,4.59-5v-27.52c0-3.34-2.09-5-4.59-5s-4.59,1.67-4.59,5v27.52C114.62,4629.51,116.71,4630.76,119.21,4630.76Z"/><path d="M145.07,4567.37a.41.41,0,0,1,.42-.42h7.92a.41.41,0,0,1,.42.42v7.92a.41.41,0,0,1-.42.42h-7.92a.41.41,0,0,1-.42-.42Zm0,71.73v-53.38a.41.41,0,0,1,.42-.42h7.92a.41.41,0,0,1,.42.42v53.38a.41.41,0,0,1-.42.41h-7.92A.4.4,0,0,1,145.07,4639.1Z"/><path d="M166.75,4584.88h7.93a.41.41,0,0,1,.42.42v40.45c0,3.34,2.08,5,4.58,5s4.59-1.67,4.59-5V4585.3a.41.41,0,0,1,.42-.42h7.92a.41.41,0,0,1,.42.42v53.38a.41.41,0,0,1-.42.42h-7.92a.41.41,0,0,1-.42-.42v-2.09a10.43,10.43,0,0,1-7.51,3.34,10.32,10.32,0,0,1-10.42-10.42v-43.79C166.34,4585.3,166.34,4584.88,166.75,4584.88Z"/><path d="M206,4584.88h7.92a.41.41,0,0,1,.42.42v2.08a10.45,10.45,0,0,1,7.5-3.33,11.46,11.46,0,0,1,9.18,5,10.6,10.6,0,0,1,19.6,5.42v44.21a.41.41,0,0,1-.42.42h-7.92a.41.41,0,0,1-.42-.42v-40.45c0-3.34-2.08-5-4.58-5s-4.59,1.67-4.59,5v40.45a.41.41,0,0,1-.42.42h-7.92a.41.41,0,0,1-.42-.42v-40.45c0-3.34-2.09-5-4.59-5s-4.59,1.67-4.59,5v40.45a.4.4,0,0,1-.41.42h-7.93a.41.41,0,0,1-.41-.42v-53A.58.58,0,0,1,206,4584.88Z"/><path d="M281,4600.31c0-10.84,6.26-15.85,13.77-15.85,6.67,0,13.34,4.17,13.76,13.77a.41.41,0,0,1-.42.41h-7.92a.4.4,0,0,1-.42-.41c0-3.34-2.08-5-4.59-5s-4.58,1.67-4.58,5v27.52c0,3.34,2.08,5,4.58,5s4.59-1.67,4.59-5a.41.41,0,0,1,.42-.42h7.92a.41.41,0,0,1,.42.42c-.42,9.59-6.67,14.18-13.76,14.18S281,4634.51,281,4623.67Z"/><path d="M317.31,4639.1v-71.73a.4.4,0,0,1,.41-.42h7.93a.41.41,0,0,1,.42.42v20.43a10.44,10.44,0,0,1,7.5-3.34A10.33,10.33,0,0,1,344,4594.89v44.21a.41.41,0,0,1-.42.41h-7.92a.4.4,0,0,1-.42-.41v-40.46c0-3.33-2.08-5-4.59-5s-4.58,1.67-4.58,5v40.46a.41.41,0,0,1-.42.41h-7.93Z"/><path d="M356.51,4627.42v-60.05a.41.41,0,0,1,.42-.42h7.92a.41.41,0,0,1,.42.42v59.22c0,3.33,1.67,4.17,4.17,4.17a.4.4,0,0,1,.42.41v7.93a.41.41,0,0,1-.42.41C361.51,4639.93,356.51,4637.43,356.51,4627.42Z"/><path d="M379.45,4624.08v-23.35c0-10.84,6.25-15.85,13.76-15.85,7.09,0,13.76,5,13.76,15.85v23.35c0,10.85-6.25,16.27-13.76,16.27C385.7,4639.93,379.45,4634.93,379.45,4624.08Zm9.17,2.09c0,3.34,2.09,5,4.59,5s4.59-1.66,4.59-5v-27.53c0-3.33-2.09-5-4.59-5s-4.59,1.67-4.59,5Z"/><path d="M418.65,4584.88h7.92a.41.41,0,0,1,.42.42v2.08a11.66,11.66,0,0,1,8.34-3.33,9.35,9.35,0,0,1,3.34.41c.41,0,.41.42.41.84v7.92c0,.42,0,.42-.41.42-.84,0-1.67-.42-2.5-.42-5,0-9.18,2.92-9.18,9.59v35.87a.41.41,0,0,1-.42.42h-7.92a.41.41,0,0,1-.42-.42v-53C418.23,4585.3,418.23,4584.88,418.65,4584.88Z"/><path d="M449.09,4567.37a.41.41,0,0,1,.42-.42h7.92a.41.41,0,0,1,.42.42v7.92a.41.41,0,0,1-.42.42h-7.92a.41.41,0,0,1-.42-.42Zm0,71.73v-53.38a.41.41,0,0,1,.42-.42h7.92a.41.41,0,0,1,.42.42v53.38a.41.41,0,0,1-.42.41h-7.92A.4.4,0,0,1,449.09,4639.1Z"/><path d="M470.36,4629.92v-35a10.6,10.6,0,0,1,10.43-10.43,9.8,9.8,0,0,1,7.51,3.34v-20.43a.4.4,0,0,1,.41-.42h7.93a.41.41,0,0,1,.41.42v71.73a.4.4,0,0,1-.41.41h-7.93a.4.4,0,0,1-.41-.41v-2.51a10.44,10.44,0,0,1-7.51,3.34A10.25,10.25,0,0,1,470.36,4629.92Zm13.77.84c2.5,0,4.58-1.67,4.58-5v-27.52c0-3.34-2.08-5-4.58-5s-4.59,1.67-4.59,5v27.52C479.12,4629.51,481.21,4630.76,484.13,4630.76Z"/><path d="M508.31,4624.08v-23.35c0-10.84,6.26-15.85,13.77-15.85,6.67,0,13.76,5,13.76,14.6v16.26a.41.41,0,0,1-.42.42H517.49v10.43c0,3.33,2.08,5,4.59,5s4.58-1.67,4.58-5a.41.41,0,0,1,.42-.42H535a.41.41,0,0,1,.42.42c-.42,9.17-6.67,14.18-13.76,14.18C514.57,4639.93,508.31,4634.93,508.31,4624.08Zm18.35-16.26v-9.18c0-3.33-2.08-5-4.58-5s-4.59,1.67-4.59,5v9.18Z"/><path d="M564.2,4603.23A90.51,90.51,0,0,1,578.79,4554c0-.42.42-.42.84-.42h9.59a.41.41,0,0,1,.42.42c-10.85,14.18-15.85,31.28-15.85,49.21s5,35,15.85,49.21c.41.42,0,.42-.42.42h-9.59a1.47,1.47,0,0,1-.84-.42C569.2,4638.26,564.2,4620.75,564.2,4603.23Z"/><path d="M601.31,4639.1v-71.73a.41.41,0,0,1,.42-.42h7.09c.42,0,.42.42.84.42l17.51,45.87v-45.87a.41.41,0,0,1,.42-.42h7.92a.41.41,0,0,1,.42.42v71.73a.41.41,0,0,1-.42.41h-7.09c-.41,0-.41-.41-.83-.41l-17.52-45.88v45.88a.4.4,0,0,1-.41.41h-7.93A.4.4,0,0,1,601.31,4639.1Z"/><path d="M649.69,4629.92v-35a10.6,10.6,0,0,1,10.43-10.43,9.76,9.76,0,0,1,7.5,3.34v-2.08a.41.41,0,0,1,.42-.42H676a.41.41,0,0,1,.41.42v53.38a.4.4,0,0,1-.41.41h-7.51a.4.4,0,0,1-.42-.41v-4.17c-1.67,2.92-4.17,5.42-8.34,5.42A10.83,10.83,0,0,1,649.69,4629.92Zm13.35.84c2.5,0,4.58-1.67,4.58-5v-27.52c0-3.34-2.08-5-4.58-5s-4.59,1.67-4.59,5v27.52C658.45,4629.51,660.54,4630.76,663,4630.76Z"/><path d="M704.74,4566.11c8.34,0,15,7.51,15,15.85v4.17a.41.41,0,0,1-.42.42h-7.93a1.46,1.46,0,0,1-.83-.42v-3.75c0-4.59-2.08-7.51-5.84-7.51s-6.25,2.92-6.25,7.51v41.29c0,4.58,2.5,7.09,6.25,7.5,3.76,0,5.84-2.5,5.84-7.5v-4.17c0-.42.42-.42.83-.42h7.93a.41.41,0,0,1,.42.42v4.58c0,8.76-6.68,15.85-15,15.85s-15-7.51-15-16.26v-41.29C689.73,4573.2,696.4,4566.11,704.74,4566.11Z"/><path d="M730.6,4627.42v-60.05a.41.41,0,0,1,.42-.42h7.92a.41.41,0,0,1,.42.42v59.22c0,3.33,1.66,4.17,4.17,4.17a.4.4,0,0,1,.41.41v7.93a.4.4,0,0,1-.41.41C735.6,4639.93,730.6,4637.43,730.6,4627.42Z"/><path d="M753.12,4553.6h9.59a1.47,1.47,0,0,1,.84.42,90.28,90.28,0,0,1,0,98.42c0,.42-.42.42-.84.42h-9.59a.41.41,0,0,1-.42-.42c10.85-14.18,15.85-31.28,15.85-49.21s-5-35-15.85-49.21A.41.41,0,0,1,753.12,4553.6Z"/><path d="M14.26,5025.38V4823.89a3.71,3.71,0,0,1,3.68-3.67H37.32a4.3,4.3,0,0,1,4,3l39.43,110.59,38.43-110.59a3.93,3.93,0,0,1,4-3h19.38a3.7,3.7,0,0,1,3.67,3.67v201.49a3.7,3.7,0,0,1-3.67,3.67H120.18a4,4,0,0,1-4-3.67V4912.1L89.11,4988a3.91,3.91,0,0,1-4,2.68H75.41a4.3,4.3,0,0,1-4-2.68L44.33,4912.1v113.28a4,4,0,0,1-4,3.67H17.94A3.35,3.35,0,0,1,14.26,5025.38Z"/><path d="M169,4876a3.44,3.44,0,0,1,3.34-3.68h22.39c2,0,4,1.67,4,3.34l20.05,93.56,20.05-93.56c0-2,2-3.34,4-3.34h22.38c2,0,3.34,1.34,3.34,3.68v.33L237.79,5010l-7.35,34.08c-7.35,30.07-17.37,37.08-47.44,37.08a3.71,3.71,0,0,1-3.68-3.67v-22.72a3.71,3.71,0,0,1,3.68-3.68h.66c7.36,0,14,0,17.38-12l2.67-12L169,4876Z"/><path d="M289.92,4872.34h22.39A3.71,3.71,0,0,1,316,4876v1.67a35.91,35.91,0,0,1,21-6.68,33.06,33.06,0,0,1,10,1.33c2,.67,2.34,2,2.34,4v22.06a2.71,2.71,0,0,1-1.33,2.67,6.61,6.61,0,0,1-2.68.33,41.34,41.34,0,0,0-6.34-.67c-15.37,0-23.39,9.69-23.39,25.06v99.91a3.71,3.71,0,0,1-3.68,3.67H289.58a3.7,3.7,0,0,1-3.67-3.67V4876A4.26,4.26,0,0,1,289.92,4872.34Z"/><path d="M371.45,4872.34h9.35v-35.41a4,4,0,0,1,3.68-4h22.38a4.3,4.3,0,0,1,4,4v35.41h13a3.71,3.71,0,0,1,3.67,3.68v19.38a3.7,3.7,0,0,1-3.67,3.67h-13v90.22c0,8.35,3.35,9.69,10,9.69h2.67a4,4,0,0,1,3.68,4v22.39a3.71,3.71,0,0,1-3.68,3.67H420.9c-27.73,0-40.43-9-40.43-38.09v-91.89h-9.36a3.7,3.7,0,0,1-3.67-3.67V4876A4,4,0,0,1,371.45,4872.34Z"/><path d="M456.32,5025V4823.89a4,4,0,0,1,3.67-4h22.39a4,4,0,0,1,3.67,4v53.46a31.39,31.39,0,0,1,19.38-6.34c17,0,32.08,13.7,32.08,31.07v123.3a4,4,0,0,1-4,3.67H511.11a3.7,3.7,0,0,1-3.67-3.67V4912.44c0-7-3.68-11.36-10.36-11.36-9.36,0-10.69,7-10.69,11.36v112.94a3.71,3.71,0,0,1-3.68,3.67H460.33C457.65,5028.72,456.32,5027.38,456.32,5025Z"/><path d="M566.24,4917.78c0-25.05,13.37-47.11,40.43-47.11,24.06,0,40.1,19.05,40.1,42.44v45.44a3.7,3.7,0,0,1-3.67,3.67H596v27.07c0,7,4,11,10.69,11,3,0,10-1,10-11a3.71,3.71,0,0,1,3.67-3.68h22.39a3.71,3.71,0,0,1,3.68,3.68c-.67,23.05-16.38,41.43-40.1,41.43-27.06,0-40.43-22.39-40.43-47.45v-65.49ZM596,4935.83h21V4912.1c0-7-3.67-11.36-10-11.36-6.68,0-10.69,4.35-10.69,11.36v23.73Z"/><path d="M673.5,4901.75c0-17.38,14.7-31.08,31.74-31.08a31.38,31.38,0,0,1,19.38,6.35v-1.34a3.71,3.71,0,0,1,3.68-3.67H751a3.71,3.71,0,0,1,3.68,3.67v159.38c0,25.06-13.37,47.79-40.43,47.79-24.06,0-40.43-17.38-40.43-41.1,0-.67,0-2,.33-2.34a4.58,4.58,0,0,1,3.34-1.67h22a4,4,0,0,1,4,3.67c0,7.35,4,11.7,10.36,11.7s10.36-4.35,10.36-11.7v-28.73a31.38,31.38,0,0,1-19.38,6.35c-17,0-31.74-13.7-31.74-31.08v-86.2Zm40.77,87.2c6.34,0,10.35-4.34,10.35-11.36v-65.15c0-7-4-11.36-10.35-11.36s-10.36,4.34-10.36,11.36v65.15C703.57,4984.61,707.58,4989,714.27,4989Z"/><path d="M787.44,5000v-98.23A31.75,31.75,0,0,1,838.23,4877v-1.34a3.7,3.7,0,0,1,3.67-3.67h22.39a3.71,3.71,0,0,1,3.68,3.67V5025a3.72,3.72,0,0,1-3.68,3.68h-21a3.71,3.71,0,0,1-3.68-3.68v-4.68c-5.68,6.35-12.69,9.69-21,9.69A30.17,30.17,0,0,1,787.44,5000Zm29.74-87.54v77.18c0,9.69,6.35,11.36,10.36,11.36,6.68,0,10.35-4.34,10.35-11.36v-77.18c0-7.35-3.67-11.7-10.35-11.7C823.53,4900.74,817.18,4902.08,817.18,4912.44Z"/><path d="M890,4876a4,4,0,0,1,3.67-3.68h9.36v-14c0-29.07,13-38.09,40.43-38.09h5a3.71,3.71,0,0,1,3.68,3.67v22.72a3.71,3.71,0,0,1-3.68,3.68h-5c-7,0-10.36,1.67-10.36,9.69v12.36h15.37a3.71,3.71,0,0,1,3.68,3.68v19.38a3.71,3.71,0,0,1-3.68,3.67H933.12v126.31a3.7,3.7,0,0,1-3.67,3.67H907.06a4,4,0,0,1-4-3.67V4899.07h-9.36a3.7,3.7,0,0,1-3.67-3.67Z"/><path d="M983.24,4820.22H1006a3.71,3.71,0,0,1,3.68,3.67V4991c0,8,3,9.69,9.35,9.69a3.71,3.71,0,0,1,3.68,3.67v22.73a3.71,3.71,0,0,1-3.68,3.67c-26.73,0-39.42-10.36-39.42-38.09V4823.89A3.5,3.5,0,0,1,983.24,4820.22Z"/><path d="M1087.49,4870.67c27.06,0,40.1,22.06,40.1,47.11v65.83c0,24.72-13,47.45-40.1,47.45s-40.43-22.39-40.43-47.45v-65.83C1047.06,4892.73,1060.09,4870.67,1087.49,4870.67Zm0,130c3,0,10-1,10-11V4912.1c0-7-3.67-11.36-10-11.36-6.68,0-10.69,4.35-10.69,11.36v77.52C1076.8,4996.64,1080.81,5000.65,1087.49,5000.65Z"/><path d="M1158.33,5025.38V4876a3.71,3.71,0,0,1,3.67-3.68h22.39a3.71,3.71,0,0,1,3.67,3.68v1.33a31.39,31.39,0,0,1,19.38-6.34c17,0,31.41,13.36,31.41,30.74v124a3.7,3.7,0,0,1-3.67,3.67h-22.39a3.71,3.71,0,0,1-3.68-3.67V4912.1c0-7-3.67-11.36-10-11.36-4,0-10.69,1.67-10.69,11.36v113.28a3.71,3.71,0,0,1-3.68,3.67h-22.39C1160,5029.05,1158.33,5027.71,1158.33,5025.38Z"/><path d="M1270.93,4859v-37.09a.32.32,0,0,1,.33-.33h7.35c5.68,0,9,3.34,9,9.35v4a9.79,9.79,0,0,1-3.34,7.69l5.68,16.7v.34h-4.34a.33.33,0,0,1-.33-.34l-5-15h-4V4859a.32.32,0,0,1-.33.33l-5-.33C1271.26,4859.31,1270.93,4859.31,1270.93,4859Zm4.68-19.72h2.67c3.34,0,4.34-1.67,4.34-4.67v-3.35c0-3-1-4.67-4.34-4.67h-2.67Z"/><path d="M1279.62,4811.53a28.91,28.91,0,1,0,29.06,29.07C1308.35,4824.56,1295.32,4811.53,1279.62,4811.53Zm-.34,53.13a24.06,24.06,0,1,1,24.06-24.06A24,24,0,0,1,1279.28,4864.66Z"/><path d="M1433.65,4988.62h17a.88.88,0,0,1,1,1v9.69c0,8,2.68,12.7,9.69,12.7,6.68,0,9.36-4.68,9.36-12.7v-33.74c0-8.36-5-12.7-12-12.7h-5.35a.89.89,0,0,1-1-1v-17a1.07,1.07,0,0,1,1-1h4c6,0,13.37-8,13.37-22.72v-4.68c0-8-2.68-12.69-9.36-12.69-7,.33-9.69,5-9.69,12.69v9.36a.88.88,0,0,1-1,1h-17a.88.88,0,0,1-1-1v-9.36c0-17.7,11.36-32.41,28.73-32.41,17,0,28.74,14.37,28.74,31.75v7.35c0,11-1.67,15-8.69,25.06l-2.34,2.67c6.68,6.68,10.69,17.71,10.69,32.74V5000c0,17-11.36,31.41-28.73,31.41s-28.74-14.37-28.74-32.41v-9.36C1432.65,4989.29,1433,4988.62,1433.65,4988.62Z"/><path d="M1516.85,4905.42c0-17.37,12.7-31.07,28.73-31.07,15.71,0,28.74,13.7,28.74,30.07v96.23c0,16.71-12.7,30.41-28.74,30.41s-28.73-13.7-28.73-30.74Zm19,92.89c0,8.69,2.34,13.7,9.69,13.7,7,0,9.36-5.35,9.36-14v-90.55c0-8.69-2.34-13.7-9.36-13.7-7.35,0-9.69,5.34-9.69,13.7Z"/><path d="M1621.77,4914.44h17a.89.89,0,0,1,1,1v4.67a21.9,21.9,0,0,1,16.37-7,22.19,22.19,0,0,1,19,10.69c3.67-6.68,10.69-10.69,19-10.69,12,0,22,10,22,21.72v93.22a.88.88,0,0,1-1,1h-17a.88.88,0,0,1-1-1v-85.21c0-7.35-4.34-10.35-9.36-10.35-5.34,0-9.69,3-9.69,10.35v85.54a.88.88,0,0,1-1,1h-17a.88.88,0,0,1-1-1v-85.54c0-7.35-4.35-10.35-9.36-10.35-5.34,0-9.69,3-9.69,10.35v85.54a.88.88,0,0,1-1,1h-17a.88.88,0,0,1-1-1v-112.6C1620.76,4915.11,1621.1,4914.44,1621.77,4914.44Z"/><path d="M1742.39,4935.16c0-11.69,10-21.72,22-21.72a22.41,22.41,0,0,1,16.37,7v-4.68a.89.89,0,0,1,1-1h17a.89.89,0,0,1,1,1V5035.4c0,23.05-13.7,34.08-28.74,34.08-14.37,0-28.4-9.36-28.73-29.4-.34-.67.33-1,1-1h16.71a.89.89,0,0,1,1,1c0,7,4.34,10.35,9.69,10.35s9.35-3.34,9.35-10.35v-25.4a21.87,21.87,0,0,1-16.37,7c-12,0-22-10-22-21.72v-64.82Zm19,7.68v48.79c0,7,4.35,10.36,9.69,10.36s9.36-3.35,9.36-10.36v-48.79c0-7-4.35-10.35-9.36-10.35C1765.78,4932.49,1761.43,4935.83,1761.43,4942.84Z"/><path d="M18.6,5143.66v-3.34a.33.33,0,0,1,.34-.34h6.35a.33.33,0,0,1,.33.34V5144c0,3,2,4.68,4.68,5,2.67,0,4.68-1.67,4.68-5v-4a10.73,10.73,0,0,0-2-6l-6.35-7.69A68.06,68.06,0,0,1,22,5120.6c-2.68-4-3.35-5.34-3.35-9.35v-2.68c0-6.34,5.35-12,11.7-12,6.68,0,11.69,5.34,11.69,12.36v3.34a.32.32,0,0,1-.33.33H35.31a.32.32,0,0,1-.33-.33v-3.68a4.6,4.6,0,0,0-4.35-5c-2.67,0-4.68,1.67-4.68,5v2.34c0,3.34,2,5.35,3,7l5,6a69.28,69.28,0,0,1,4.68,5.68c2.67,4,3.34,6,3.34,11.7V5144c0,6.35-5.34,12-11.69,12C23.62,5156,18.6,5150.34,18.6,5143.66Z"/><path d="M51.68,5143v-18.71c0-8.69,5-12.7,11-12.7,5.68,0,11,4,11,12.7V5143c0,8.69-5,13-11,13C56.69,5155.69,51.68,5151.68,51.68,5143Zm7,1.67c0,2.67,1.67,4,3.68,4s3.67-1.34,3.67-4v-22.05c0-2.68-1.67-4-3.67-4s-3.68,1.33-3.68,4Z"/><path d="M82.42,5147.67V5119.6a8.49,8.49,0,0,1,8.36-8.35,7.82,7.82,0,0,1,6,2.67v-16.37a.33.33,0,0,1,.33-.34h6.35a.33.33,0,0,1,.34.34V5155a.33.33,0,0,1-.34.33H97.12a.32.32,0,0,1-.33-.33v-2a8.36,8.36,0,0,1-6,2.68C86.43,5155.69,82.42,5152,82.42,5147.67Zm11,.67c2,0,3.67-1.34,3.67-4v-22.06c0-2.67-1.67-4-3.67-4s-3.68,1.34-3.68,4v22.06C89.77,5147.33,91.44,5148.34,93.45,5148.34Z"/><path d="M114.17,5097.55a.33.33,0,0,1,.33-.34h6.35a.33.33,0,0,1,.33.34v6.35a.32.32,0,0,1-.33.33H114.5a.32.32,0,0,1-.33-.33Zm0,57.47v-42.77a.32.32,0,0,1,.33-.33h6.35a.32.32,0,0,1,.33.33V5155a.32.32,0,0,1-.33.33H114.5A.32.32,0,0,1,114.17,5155Z"/><path d="M131.54,5111.58h6.35a.33.33,0,0,1,.33.34v32.41c0,2.67,1.67,4,3.68,4s3.67-1.34,3.67-4v-32.41a.33.33,0,0,1,.34-.34h6.35a.33.33,0,0,1,.33.34v42.76a.33.33,0,0,1-.33.34h-6.35a.33.33,0,0,1-.34-.34V5153a8.36,8.36,0,0,1-6,2.68,8.27,8.27,0,0,1-8.35-8.36v-35.08C131.21,5111.92,131.21,5111.58,131.54,5111.58Z"/><path d="M163,5111.58h6.35a.33.33,0,0,1,.33.34v1.67a8.39,8.39,0,0,1,6-2.68,9.19,9.19,0,0,1,7.35,4,8.49,8.49,0,0,1,15.7,4.35v35.41a.33.33,0,0,1-.33.34H192a.33.33,0,0,1-.34-.34v-32.41c0-2.67-1.67-4-3.67-4s-3.68,1.34-3.68,4v32.41a.33.33,0,0,1-.33.34h-6.35a.33.33,0,0,1-.33-.34v-32.41c0-2.67-1.67-4-3.68-4s-3.67,1.34-3.67,4v32.41a.33.33,0,0,1-.34.34h-6.35a.33.33,0,0,1-.33-.34v-42.43A.46.46,0,0,1,163,5111.58Z"/><path d="M223.09,5123.94c0-8.68,5-12.69,11-12.69,5.34,0,10.69,3.34,11,11a.33.33,0,0,1-.33.34h-6.35a.33.33,0,0,1-.33-.34c0-2.67-1.67-4-3.68-4s-3.67,1.34-3.67,4v22.06c0,2.67,1.67,4,3.67,4s3.68-1.34,3.68-4a.33.33,0,0,1,.33-.34h6.35a.33.33,0,0,1,.33.34c-.33,7.68-5.34,11.36-11,11.36s-11-4.35-11-13Z"/><path d="M252.16,5155v-57.47a.33.33,0,0,1,.34-.34h6.34a.33.33,0,0,1,.34.34v16.37a8.28,8.28,0,0,1,14.37,5.68V5155a.33.33,0,0,1-.34.33h-6.35a.32.32,0,0,1-.33-.33v-32.41c0-2.68-1.67-4-3.68-4s-3.67,1.33-3.67,4V5155a.33.33,0,0,1-.34.33H252.5Z"/><path d="M283.57,5145.66v-48.11a.33.33,0,0,1,.33-.34h6.35a.33.33,0,0,1,.34.34V5145c0,2.68,1.33,3.35,3.34,3.35a.32.32,0,0,1,.33.33V5155a.32.32,0,0,1-.33.33C287.58,5155.69,283.57,5153.68,283.57,5145.66Z"/><path d="M302,5143v-18.71c0-8.69,5-12.7,11-12.7,5.68,0,11,4,11,12.7V5143c0,8.69-5,13-11,13C307,5155.69,302,5151.68,302,5143Zm7.35,1.67c0,2.67,1.67,4,3.67,4s3.68-1.34,3.68-4v-22.05c0-2.68-1.67-4-3.68-4s-3.67,1.33-3.67,4Z"/><path d="M333.36,5111.58h6.34a.33.33,0,0,1,.34.34v1.67a9.34,9.34,0,0,1,6.68-2.68,7.22,7.22,0,0,1,2.67.34c.34,0,.34.33.34.67v6.34c0,.34,0,.34-.34.34-.66,0-1.33-.34-2-.34-4,0-7.35,2.34-7.35,7.69v28.73a.33.33,0,0,1-.34.34h-6.34a.33.33,0,0,1-.34-.34v-42.43C333,5111.92,333,5111.58,333.36,5111.58Z"/><path d="M357.75,5097.55a.33.33,0,0,1,.33-.34h6.35a.33.33,0,0,1,.33.34v6.35a.32.32,0,0,1-.33.33h-6.35a.32.32,0,0,1-.33-.33Zm0,57.47v-42.77a.32.32,0,0,1,.33-.33h6.35a.32.32,0,0,1,.33.33V5155a.32.32,0,0,1-.33.33h-6.35A.32.32,0,0,1,357.75,5155Z"/><path d="M374.79,5147.67V5119.6a8.48,8.48,0,0,1,8.35-8.35,7.84,7.84,0,0,1,6,2.67v-16.37a.33.33,0,0,1,.33-.34h6.35a.33.33,0,0,1,.33.34V5155a.32.32,0,0,1-.33.33h-6.35a.32.32,0,0,1-.33-.33v-2a8.4,8.4,0,0,1-6,2.68A8.2,8.2,0,0,1,374.79,5147.67Zm11,.67c2,0,3.68-1.34,3.68-4v-22.06c0-2.67-1.67-4-3.68-4s-3.67,1.34-3.67,4v22.06C381.8,5147.33,383.48,5148.34,385.81,5148.34Z"/><path d="M405.19,5143v-18.71c0-8.69,5-12.7,11-12.7,5.35,0,11,4,11,11.7v13a.33.33,0,0,1-.34.33H412.54V5145c0,2.68,1.68,4,3.68,4s3.68-1.33,3.68-4a.32.32,0,0,1,.33-.33h6.35a.32.32,0,0,1,.33.33c-.33,7.35-5.34,11.36-11,11.36C410.21,5155.69,405.19,5151.68,405.19,5143Zm14.71-13v-7.35c0-2.68-1.68-4-3.68-4s-3.68,1.33-3.68,4V5130Z"/><path d="M450,5126.28a72.51,72.51,0,0,1,11.69-39.42c0-.34.34-.34.67-.34H470a.33.33,0,0,1,.33.34c-8.69,11.36-12.7,25.06-12.7,39.42s4,28.07,12.7,39.43c.33.33,0,.33-.33.33h-7.69a1.19,1.19,0,0,1-.67-.33A70.91,70.91,0,0,1,450,5126.28Z"/><path d="M479.71,5155v-57.47a.33.33,0,0,1,.33-.34h5.68c.33,0,.33.34.67.34l14,36.75v-36.75a.33.33,0,0,1,.34-.34h6.34a.33.33,0,0,1,.34.34V5155a.33.33,0,0,1-.34.33h-5.68c-.33,0-.33-.33-.66-.33l-14-36.76V5155a.32.32,0,0,1-.33.33H480A.32.32,0,0,1,479.71,5155Z"/><path d="M518.46,5147.67V5119.6a8.49,8.49,0,0,1,8.36-8.35,7.8,7.8,0,0,1,6,2.67v-1.67a.33.33,0,0,1,.34-.33h6.34a.33.33,0,0,1,.34.33V5155a.33.33,0,0,1-.34.33h-6a.32.32,0,0,1-.33-.33v-3.34c-1.34,2.34-3.35,4.34-6.69,4.34A8.67,8.67,0,0,1,518.46,5147.67Zm10.7.67c2,0,3.67-1.34,3.67-4v-22.06c0-2.67-1.67-4-3.67-4s-3.68,1.34-3.68,4v22.06C525.48,5147.33,527.15,5148.34,529.16,5148.34Z"/><path d="M562.57,5096.55c6.68,0,12,6,12,12.69v3.34a.33.33,0,0,1-.34.34h-6.34a1.15,1.15,0,0,1-.67-.34v-3c0-3.68-1.67-6-4.68-6s-5,2.34-5,6v33.08c0,3.67,2,5.68,5,6,3,0,4.68-2,4.68-6v-3.35c0-.33.33-.33.67-.33h6.34a.33.33,0,0,1,.34.33V5143c0,7-5.35,12.7-12,12.7s-12-6-12-13v-33.08C550.54,5102.23,555.89,5096.55,562.57,5096.55Z"/><path d="M583.29,5145.66v-48.11a.33.33,0,0,1,.33-.34H590a.33.33,0,0,1,.33.34V5145c0,2.68,1.34,3.35,3.34,3.35a.33.33,0,0,1,.34.33V5155a.33.33,0,0,1-.34.33C587.3,5155.69,583.29,5153.68,583.29,5145.66Z"/><path d="M601.33,5086.52H609a1.15,1.15,0,0,1,.67.34,72.27,72.27,0,0,1,0,78.85c0,.33-.33.33-.67.33h-7.68a.33.33,0,0,1-.34-.33c8.69-11.36,12.7-25.06,12.7-39.43s-4-28.06-12.7-39.42A.33.33,0,0,1,601.33,5086.52Z"/><g class="10b67dcb-a7f3-4917-8e74-6b8e99362931"><path d="M6682,1V5207.74H1V1H6682m1-1H0V5208.74H6683V0Z"/></g></svg>