<svg id="bf985b42-332c-4570-a6d0-163812ecb484" data-name="Layer 1" xmlns="http://www.w3.org/2000/svg" viewBox="0 0 6683 5194.09"><defs><style>.\31 0e2c187-e9e6-478a-b921-d27465ae6b7f{opacity:0;}</style></defs><title>Untitled-1 copy</title><g class="10e2c187-e9e6-478a-b921-d27465ae6b7f"><path d="M6682,.27V5207H1V.27H6682m1-1H0V5208H6683V-.73Z"/></g><path d="M818.58,3.67h-33a2.62,2.62,0,0,0-2.44,2.44h0V350.64a2.63,2.63,0,0,0,2.44,2.45h39.09a2.63,2.63,0,0,0,2.45-2.45h0v-215l53.76,150.28c0,1.22,1.22,2.44,3.66,2.44h17.11a2.62,2.62,0,0,0,2.44-2.44l53.76-150.28V351.87a2.62,2.62,0,0,0,2.44,2.44h39.1a2.62,2.62,0,0,0,2.44-2.44h0V7.33a2.62,2.62,0,0,0-2.44-2.44h-33c-1.22,0-3.67,1.22-3.67,2.44L893.1,206.48,822.24,7.33A3.9,3.9,0,0,0,818.58,3.67Z"/><path d="M1072.7,90.41V267.56c0,61.09,36.65,90.41,77,90.41s77-29.32,77-90.41V90.41c0-62.31-35.43-90.41-77-90.41S1072.7,29.32,1072.7,90.41Zm42.76-11a33.08,33.08,0,1,1,66-4.88V277.34a33.08,33.08,0,0,1-66,4.89V79.41Z"/><path d="M1336.6,354.31h39.1a2.62,2.62,0,0,0,2.44-2.44h0V47.65h58.64a2.63,2.63,0,0,0,2.45-2.45h0V7.33a2.63,2.63,0,0,0-2.45-2.44H1275.51a2.62,2.62,0,0,0-2.44,2.44h0v39.1a2.62,2.62,0,0,0,2.44,2.44h58.65V353.09a4.26,4.26,0,0,0,2.44,1.22Z"/><path d="M1490.54,7.33V351.87a2.62,2.62,0,0,0,2.44,2.44h39.1a2.62,2.62,0,0,0,2.44-2.44h0V200.37h66V350.64a2.63,2.63,0,0,0,2.44,2.45h37.88c1.22,0,2.44-1.22,3.66-2.45V7.33c0-1.22-1.22-2.44-3.66-2.44h-37.88a2.62,2.62,0,0,0-2.44,2.44h0V157.61h-66V7.33a2.62,2.62,0,0,0-2.44-2.44H1493c-1.22-1.22-2.44,0-2.44,2.44Z"/><path d="M1844.85,47.65a2.63,2.63,0,0,0,2.44-2.45h0V7.33a2.62,2.62,0,0,0-2.44-2.44H1719a2.62,2.62,0,0,0-2.44,2.44h0V351.87a2.62,2.62,0,0,0,2.44,2.44h125.84a2.62,2.62,0,0,0,2.44-2.44h0v-39.1a2.62,2.62,0,0,0-2.44-2.44h-85.52v-110h73.3c2.45,0,3.67-1.22,3.67-2.45V160.05c0-1.22-1.22-3.67-2.45-3.67h-73.3V47.65Z"/><path d="M1908.38,354.31h39.1a2.62,2.62,0,0,0,2.44-2.44h0V212.59h37.88l46.42,139.28c0,1.22,2.45,2.44,3.67,2.44h41.54c1.22,0,2.44-1.22,1.22-2.44l-52.54-154c20.77-13.43,31.77-39.09,31.77-70.86V90.41c0-53.76-29.32-85.52-83.08-85.52h-67.2a2.62,2.62,0,0,0-2.44,2.44h0V351.87C1905.94,353.09,1907.16,354.31,1908.38,354.31Zm41.54-306.66h25.66c30.54,0,39.09,15.88,39.09,44V123.4c0,28.1-9.77,45.2-39.09,45.2h-25.66Z"/><path d="M2353.1,354.31a2.62,2.62,0,0,0,2.44-2.44h0V194.26h29.33a2.62,2.62,0,0,0,2.44-2.44V153.94a2.62,2.62,0,0,0-2.44-2.44h-90.41c-13.44,0-30.55-18.33-30.55-51.32V79.41c0-19.54,6.11-31.76,22-31.76h31.77a2.63,2.63,0,0,0,2.44-2.45h0V7.33a2.62,2.62,0,0,0-2.44-2.44H2285.9c-37.87,1.22-67.19,33-66,70.86h0v28.1c0,13.44,1.22,28.1,7.33,40.32,3.66,7.33,8.55,13.44,14.66,19.55-22,13.43-25.66,40.31-25.66,78.19v40.32c0,39.09,31.77,70.86,70.87,72.08ZM2259,281V223.58c0-7.33,2.45-15.88,7.34-22,4.88-4.89,12.21-7.33,19.54-7.33h25.66V310.33H2285.9c-14.66,0-26.87-11-26.87-25.66,0-1.22,0-2.44,0-3.67Z"/><path d="M2524.15,354.31h63.53c56.2,0,88-29.32,88-90.41V89.19c0-53.76-29.32-85.52-83.08-85.52h-67.19a2.63,2.63,0,0,0-2.45,2.44h0V350.64c-1.22,2.45-1.22,3.67,1.23,3.67Zm41.54-306.66h25.65c30.55,0,39.1,15.88,39.1,44V265.12c0,30.54-11,45.21-39.1,45.21h-25.65Z"/><path d="M2867.46,351.87a2.62,2.62,0,0,0,2.44,2.44h40.32a2.62,2.62,0,0,0,2.44-2.44L2840.58,7.33c0-1.22-1.22-2.44-3.66-2.44h-39.1a2.62,2.62,0,0,0-2.44,2.44h0l-70.87,344.54a2.63,2.63,0,0,0,2.45,2.44h39.09a2.63,2.63,0,0,0,2.45-2.44h0l14.66-74.53H2854Zm-77-118.51,26.88-141.73,26.88,141.73Z"/><path d="M3114.25,281V7.33a2.62,2.62,0,0,0-2.44-2.44h-39.1a2.62,2.62,0,0,0-2.44,2.44h0V279.78c2.44,17.11-11,33-28.1,35.43h-4.89c-18.32,0-33-14.66-33-31.76V7.33a2.63,2.63,0,0,0-2.45-2.44h-39.09a2.63,2.63,0,0,0-2.45,2.44h0V279.78c0,42.76,33,77,75.75,78.19,42.76-1.22,77-34.2,78.19-77Z"/><path d="M3259.64,358c40.32,0,77-29.32,77-90.41V169.82a2.62,2.62,0,0,0-2.44-2.44h-69.64a2.62,2.62,0,0,0-2.44,2.44h0V207.7c0,2.44,1.22,2.44,2.44,2.44h29.32v68.42a33.08,33.08,0,0,1-66,4.89v-204a33.08,33.08,0,1,1,66-4.88V97.74c0,2.44,1.22,2.44,2.44,2.44h37.88a2.62,2.62,0,0,0,2.44-2.44h0V90.41c0-62.31-36.65-90.41-77-90.41s-77,29.32-77,90.41V267.56C3182.67,328.65,3219.32,358,3259.64,358Z"/><path d="M3516.21,354.31h37.88c1.22,0,2.44-1.22,3.66-2.44V7.33c0-1.22-1.22-2.44-3.66-2.44h-37.88a2.62,2.62,0,0,0-2.44,2.44h0V157.61h-66V7.33a2.62,2.62,0,0,0-2.44-2.44h-39.1a2.62,2.62,0,0,0-2.44,2.44h0V351.87a2.62,2.62,0,0,0,2.44,2.44h39.1a2.62,2.62,0,0,0,2.44-2.44h0V200.37h66V350.64c0,2.45,1.22,3.67,2.44,3.67Z"/><path d="M3774,45.2V7.33a2.62,2.62,0,0,0-2.44-2.44H3610.29a2.63,2.63,0,0,0-2.45,2.44h0v39.1a2.63,2.63,0,0,0,2.45,2.44h58.64V353.09a2.62,2.62,0,0,0,2.44,2.44h39.1a2.62,2.62,0,0,0,2.44-2.44h0V47.65h58.65A2.63,2.63,0,0,0,3774,45.2Z"/><path d="M3956,351.87v-39.1a2.62,2.62,0,0,0-2.44-2.44h-85.52v-110h73.3c2.45,0,3.67-1.22,3.67-2.45V160.05c0-1.22-1.23-3.67-2.45-3.67h-73.3V47.65h85.52a2.63,2.63,0,0,0,2.44-2.45h0V7.33a2.62,2.62,0,0,0-2.44-2.44H3829a2.62,2.62,0,0,0-2.44,2.44h0V351.87a2.62,2.62,0,0,0,2.44,2.44h125.84a4.26,4.26,0,0,0,1.22-2.44Z"/><path d="M4017.13,354.31h39.1a2.62,2.62,0,0,0,2.44-2.44h0V212.59h37.87L4143,351.87c0,1.22,2.45,2.44,3.67,2.44h41.54c1.22,0,2.44-1.22,1.22-2.44l-52.54-154c20.77-13.44,31.77-39.09,31.77-70.86V90.41c0-53.76-30.55-85.52-83.08-85.52h-67.2a2.62,2.62,0,0,0-2.44,2.44h0V351.87c-1.22,1.22,0,2.44,1.22,2.44Zm41.54-306.66h25.66c30.54,0,39.09,15.88,39.09,44V123.4c0,28.1-9.77,45.2-39.09,45.2h-25.66Z"/><path d="M4301.8,358c39.1,0,72.08-31.76,72.08-72.08V270c0-34.21-4.88-47.65-20.77-70.86-7.33-12.22-26.88-34.21-26.88-34.21l-29.32-35.43a69.61,69.61,0,0,1-19.55-42.77V73.31c-1.22-14.67,8.56-28.11,23.22-29.33h3.66c14.66,0,25.66,11,26.88,25.66V95.3a2.62,2.62,0,0,0,2.44,2.44h39.1a2.62,2.62,0,0,0,2.44-2.44h0v-22c1.23-39.1-29.32-72.09-68.41-73.31h-1.23c-39.09,0-70.86,31.77-70.86,72.08V89.19c0,25.65,3.67,34.21,19.55,57.42,8.55,11,28.1,34.21,28.1,34.21l36.65,46.43c7.33,9.77,12.22,23.21,12.22,35.43v23.21c1.22,14.66-8.55,28.1-23.21,29.32h-3.67a27.11,27.11,0,0,1-26.88-26.88V263.9a2.62,2.62,0,0,0-2.44-2.44h-39.1a2.62,2.62,0,0,0-2.44,2.44h0v20.77c-1.22,40.32,30.54,72.08,70.86,73.3Z"/><path d="M4441.08,395.85l40.32-40.32c1.22-1.22,1.22-2.44,1.22-4.89V311.55a2.63,2.63,0,0,0-2.44-2.45h-39.1a2.63,2.63,0,0,0-2.44,2.45h0v83.08C4438.64,397.07,4438.64,397.07,4441.08,395.85Z"/><path d="M4757.51,185.71V149.05c0-41.54-24.43-68.41-66-68.41h-51.31a5.25,5.25,0,0,0-4.89,4.88h0V348.2a5.26,5.26,0,0,0,4.89,4.89h29.32c2.44,0,4.88-1.22,4.88-4.89h0V252.9h17.11C4733.08,254.13,4757.51,228.47,4757.51,185.71Zm-39.09-1.22c0,22-7.33,30.54-26.88,30.54h-17.11V121h17.11c19.55,0,26.88,8.56,26.88,30.55Z"/><path d="M4780.73,349.42c0,2.45,1.22,4.89,3.66,4.89h30.55c2.44,0,4.88-1.22,4.88-4.89l11-53.76h48.87l11,53.76a5.26,5.26,0,0,0,4.89,4.89h29.32c2.45,0,4.89-1.22,4.89-3.67v-1.22h0l-55-263.9c-1.22-2.44-2.44-3.66-4.88-3.66h-29.33c-2.44,0-4.88,1.22-4.88,4.88l-55,262.68Zm74.52-182,17.11,89.19h-34.21Z"/><path d="M5066.62,233.36c15.88-13.44,25.66-34.21,23.21-55v-28.1c0-41.54-23.21-68.42-66-68.42h-51.32c-2.44,0-4.88,1.22-4.88,4.88h0V349.42a5.25,5.25,0,0,0,4.88,4.89h29.33c2.44,0,4.88-1.22,4.88-3.67h0V246.79h24.44l34.21,103.85a6.7,6.7,0,0,0,6.1,3.67h30.55a4.48,4.48,0,0,0,3.66-1.22c1.23-1.22,1.23-2.45,0-4.89ZM5052,175.93c1.22,8.56-1.22,15.89-6.11,23.22a24.29,24.29,0,0,1-22,8.55h-17.11V122.18h17.11c19.54,0,26.88,8.55,26.88,30.54Z"/><path d="M5175.35,354.31h29.33c2.44,0,4.88-1.22,4.88-3.67h0V121h41.54c2.45,0,4.89-1.22,4.89-4.88h0V86.74a5.25,5.25,0,0,0-4.89-4.88H5128.93c-2.45,0-4.89,1.22-4.89,3.66h0v29.32c0,2.45,1.22,4.89,3.67,4.89h41.54V348.2c1.22,3.67,2.44,6.11,6.1,6.11Z"/><path d="M5398.94,354.31h29.32c2.44,0,4.88-1.22,4.88-4.89h0V121h41.54c2.45,0,4.89-1.22,4.89-4.88h0V86.74a5.25,5.25,0,0,0-4.89-4.88H5352.51c-2.45,0-4.89,1.22-4.89,4.88h0v29.33a5.26,5.26,0,0,0,4.89,4.88h41.54V349.42a5.25,5.25,0,0,0,4.89,4.89Z"/><path d="M5512.56,86.74h0l41.54,262.68c0,2.45,1.22,4.89,4.89,6.11h30.54a5.26,5.26,0,0,0,4.89-4.89L5625,169.82l30.54,180.82a5.26,5.26,0,0,0,4.89,4.89h29.32c2.45,0,4.89-1.22,4.89-4.89h0L5736.14,88c0-2.45-1.22-4.89-3.67-4.89h-30.54A5.26,5.26,0,0,0,5697,88h0l-22,177.15L5644.51,86.74a5.26,5.26,0,0,0-4.89-4.88h-34.21a5.25,5.25,0,0,0-4.88,4.88L5573.65,263.9l-22-177.16a5.26,5.26,0,0,0-4.89-4.88h-29.32c-2.45,0-4.89,1.22-4.89,4.88Z"/><path d="M5777.68,285.89c0,37.88,19.55,72.08,61.09,72.08s61.08-34.2,61.08-72.08V151.5c0-37.88-19.54-72.09-61.08-72.09s-61.09,34.21-61.09,72.09Zm39.1-144.17c-2.45-11,6.1-22,17.1-24.43h4.89c12.21,0,22,8.55,22,20.77V293.22c1.22,12.22-7.33,23.21-18.33,24.44h-3.66c-11,1.22-22-8.56-22-19.55V141.72Z"/><path d="M2370.2,854.46h30.55a2.62,2.62,0,0,0,2.44-2.44l11-57.43h55l11,57.43a2.63,2.63,0,0,0,2.45,2.44h30.54c1.22,0,1.22-1.22,1.22-2.44l-55-268.79c0-1.22-1.22-2.44-3.66-2.44h-30.55a4.26,4.26,0,0,0-2.44,1.22h0l-56.2,268.78Q2368.37,854.47,2370.2,854.46Zm70.87-204,20.77,110h-42.77Z"/><path d="M2691.53,853.24,2650,733.5a64.85,64.85,0,0,0,24.43-55V649.2c0-41.54-23.21-66-64.75-66h-52.54a4.26,4.26,0,0,0-2.44,1.22h0V853.24a2.62,2.62,0,0,0,2.44,2.44h30.55a4.26,4.26,0,0,0,2.44-1.22h0V745.72h29.32l35.43,108.74a2.63,2.63,0,0,0,2.45,2.44h31.76C2691.53,854.46,2691.53,853.24,2691.53,853.24Zm-50.1-178.38c0,22-7.33,34.21-30.54,34.21h-20.77V615h20.77c23.21,0,30.54,12.22,30.54,34.21Z"/><path d="M2840.58,615V584.45a4.26,4.26,0,0,0-1.22-2.44H2713.52a4.3,4.3,0,0,0-2.45,1.22h0v30.54a4.29,4.29,0,0,0,1.23,2.45h45.2V852a4.26,4.26,0,0,0,1.22,2.44h30.55a4.26,4.26,0,0,0,2.44-1.22h0v-237h45.21c2.44,0,3.66,0,3.66-1.23Z"/><path d="M2967.64,854.46H2997a2.63,2.63,0,0,0,2.45-2.44V583.23a2.63,2.63,0,0,0-2.45-2.44h-29.32a4.26,4.26,0,0,0-2.44,1.22h0V699.3h-51.31V583.23a4.25,4.25,0,0,0-1.23-2.44h-30.54a4.26,4.26,0,0,0-2.44,1.22h0V850.79a2.63,2.63,0,0,0,2.44,2.45h30.54a2.63,2.63,0,0,0,2.45-2.45h0V733.5h51.31V850.79C2965.2,854.46,2966.42,854.46,2967.64,854.46Z"/><path d="M3115.48,858.12a60,60,0,0,0,59.86-59.86V584.45a4.26,4.26,0,0,0-1.22-2.44h-30.54a4.26,4.26,0,0,0-2.45,1.22h0V794.59c1.22,13.44-7.33,25.66-20.77,26.88h-4.88a25.81,25.81,0,0,1-25.66-25.66V584.45a4.26,4.26,0,0,0-1.22-2.44h-30.55a4.26,4.26,0,0,0-2.44,1.22h0V794.59C3055.61,830,3082.49,856.9,3115.48,858.12Z"/><path d="M3350.05,677.3V648c0-41.54-23.21-66-64.75-66h-52.54a4.26,4.26,0,0,0-2.44,1.22h0V852a2.62,2.62,0,0,0,2.44,2.44h30.55a4.26,4.26,0,0,0,2.44-1.22h0V744.5h29.32l35.43,108.74a2.63,2.63,0,0,0,2.45,2.44h31.76c1.23,0,1.23-1.22,1.23-2.44L3325.62,733.5C3342.72,720.07,3351.27,699.3,3350.05,677.3Zm-34.21-2.44c0,22-7.33,34.21-30.54,34.21h-20.77V615h20.77c23.21,0,30.54,12.22,30.54,34.21Z"/><path d="M3590.74,798.26V781.15a4.26,4.26,0,0,0-1.22-2.44h-29.33a2.62,2.62,0,0,0-2.44,2.44h0v14.66c0,17.11-8.55,28.1-22,28.1s-23.21-9.77-23.21-28.1V640.65c0-17.1,8.55-26.88,23.21-28.1s22,9.78,22,28.1v14.66a2.63,2.63,0,0,0,2.44,2.45h29.33a2.63,2.63,0,0,0,2.44-2.45h0V639.43c1.22-31.77-22-57.42-53.76-59.87-31.76-1.22-57.42,22-59.86,53.76V795.81c-2.45,31.77,20.77,58.65,52.53,61.09s58.65-20.77,61.09-52.53C3590.74,803.14,3590.74,800.7,3590.74,798.26Z"/><path d="M3637.16,820.25h30.55a2.62,2.62,0,0,1,2.44,2.44v30.55a2.62,2.62,0,0,1-2.44,2.44h-30.55a2.62,2.62,0,0,1-2.44-2.44V822.69C3635.94,821.47,3635.94,820.25,3637.16,820.25Z"/><path d="M3851,858.12c31.77-1.22,57.42-28.1,56.2-59.86V781.15a4.26,4.26,0,0,0-1.22-2.44h-29.32a2.62,2.62,0,0,0-2.44,2.44h0v14.66c0,17.11-8.56,28.1-22,28.1s-23.21-9.77-23.21-28.1V640.65c0-17.1,8.55-26.88,23.21-28.1s22,9.78,22,28.1v14.66a2.63,2.63,0,0,0,2.44,2.45H3906a2.63,2.63,0,0,0,2.44-2.45h0V639.43c2.45-31.77-22-58.64-52.53-59.87-31.77-2.44-58.64,22-59.87,52.54V795.81c-3.66,33,22,61.09,55,62.31Z"/><path d="M3956,854.46h92.86a4.26,4.26,0,0,0,2.44-1.22h0V822.69a4.26,4.26,0,0,0-1.22-2.44H3989V584.45a4.26,4.26,0,0,0-1.22-2.44h-30.55a4.26,4.26,0,0,0-2.44,1.22h0V852C3954.82,854.46,3954.82,854.46,3956,854.46Z"/><path d="M4123.42,853.24l11-57.43h55l11,57.43a2.63,2.63,0,0,0,2.45,2.44h30.54c1.22,0,1.22-1.22,1.22-2.44l-55-268.79a2.62,2.62,0,0,0-2.44-2.44h-30.54a4.26,4.26,0,0,0-2.45,1.22h0L4088,852c0,1.22,0,2.44,1.22,2.44h30.55A5.34,5.34,0,0,0,4123.42,853.24Zm39.1-202.81,20.77,110h-42.76Z"/><path d="M4278.59,854.46h30.54a4.26,4.26,0,0,0,2.44-1.22h0V744.5h29.33l35.43,108.74a2.62,2.62,0,0,0,2.44,2.44h31.77c1.22,0,1.22-1.22,1.22-2.44l-41.54-119.73a64.86,64.86,0,0,0,24.43-55V649.2c0-41.54-23.21-66-64.75-66h-52.53a4.26,4.26,0,0,0-2.45,1.22h0V853.24a4.49,4.49,0,0,0,3.67,1.22Zm33-238.24h20.77c23.22,0,30.55,12.21,30.55,34.21v24.43c0,22-7.33,34.21-30.55,34.21h-20.77Z"/><path d="M4454.52,854.46h30.54a4.3,4.3,0,0,0,2.45-1.22h0V777.49l24.43-45.21L4554.7,852a2.63,2.63,0,0,0,2.45,2.44h31.76c1.22,0,2.45-1.22,1.22-2.44l-59.86-158.83,57.42-110c0-1.22,0-1.22-1.22-1.22h-29.32c-1.23,0-2.45,0-2.45,1.22l-67.19,134.39V583.23a4.25,4.25,0,0,0-1.23-2.44h-30.54a4.26,4.26,0,0,0-2.44,1.22h0V850.79c0,2.45,0,3.67,1.22,3.67Z"/><path d="M4730.64,616.22a4.25,4.25,0,0,0,2.44-1.23h0V584.45a4.26,4.26,0,0,0-1.22-2.44h-97.74a4.3,4.3,0,0,0-2.45,1.22h0V852a2.63,2.63,0,0,0,2.45,2.44h97.74a2.62,2.62,0,0,0,2.44-2.44h0V821.47a4.26,4.26,0,0,0-1.22-2.44h-66V733.5h57.43a2.62,2.62,0,0,0,2.44-2.44V704.18a2.62,2.62,0,0,0-2.44-2.44H4667.1V616.22Z"/><path d="M1974.36,854.46h29.32a2.62,2.62,0,0,0,2.44-2.44l1.22-8.56c6.11,8.56,15.89,12.22,26.88,12.22,22-1.22,40.32-15.88,45.21-37.87L2100.2,688.3c3.66-17.1-8.56-34.21-25.66-37.87h-7.33c-11,0-22,4.88-30.54,12.21l12.21-75.75c0-1.22,0-1.22-1.22-2.44h-29.32a2.62,2.62,0,0,0-2.44,2.44L1974.36,852c-2.45,1.22-1.23,2.44,0,2.44Zm55-151.5c1.22-11,9.77-18.33,19.54-18.33s15.89,6.11,13.44,18.33l-15.88,101.41c0,9.77-8.55,18.32-19.55,18.32-9.77,0-15.88-4.88-14.66-18.32Z"/><path d="M2105.08,921.66c30.55,0,50.1-3.67,67.2-46.43l17.1-45.21,68.42-175.93c0-1.22,0-2.44-1.22-2.44h-29.32a2.62,2.62,0,0,0-2.44,2.44L2173.5,790.93l-7.33-136.84a2.62,2.62,0,0,0-2.44-2.44h-29.32c-1.23,0-1.23,1.22-1.23,2.44l14.67,199.15-6.11,15.88c-3.67,12.22-17.11,19.55-29.33,18.33a2.62,2.62,0,0,0-2.44,2.44l-4.89,29.32v2.45Z"/><path d="M1326.39,1366.62H1300a2.1,2.1,0,0,0-2,2h0v275.19a2.11,2.11,0,0,0,2,2h31.23a2.11,2.11,0,0,0,2-2h0V1472l42.94,120c0,1,1,2,2.93,2h13.66a2.11,2.11,0,0,0,2-2l42.94-120v172.72a2.09,2.09,0,0,0,1.95,2h31.22a2.1,2.1,0,0,0,2-2h0V1369.55a2.11,2.11,0,0,0-2-2h-26.34c-1,0-2.93,1-2.93,2l-55.62,159.06-56.6-159.06A3.11,3.11,0,0,0,1326.39,1366.62Z"/><path d="M1529.36,1435.9v141.5c0,48.79,29.28,72.21,61.48,72.21s61.48-23.42,61.48-72.21V1435.9c0-49.77-28.3-72.21-61.48-72.21S1529.36,1387.11,1529.36,1435.9Zm34.16-8.78a26.42,26.42,0,1,1,52.69-3.9v162a26.42,26.42,0,1,1-52.69,3.9v-162Z"/><path d="M1740.15,1646.68h31.22a2.09,2.09,0,0,0,2-2h0v-243h46.84a2.11,2.11,0,0,0,2-2h0v-30.25a2.11,2.11,0,0,0-2-2H1691.35a2.11,2.11,0,0,0-1.95,2h0v31.22a2.1,2.1,0,0,0,1.95,2h46.84v243a3.43,3.43,0,0,0,2,1Z"/><path d="M1863.1,1369.55v275.18a2.1,2.1,0,0,0,2,2h31.23a2.09,2.09,0,0,0,2-2h0v-121h52.7v120a2.1,2.1,0,0,0,2,2h30.25c1,0,1.95-1,2.93-2V1369.55c0-1-1-2-2.93-2h-30.25a2.1,2.1,0,0,0-2,2h0v120h-52.7v-120a2.1,2.1,0,0,0-2-2h-31.23c-1-1-2,0-2,2Z"/><path d="M2146.1,1401.75a2.11,2.11,0,0,0,2-2h0v-30.25a2.11,2.11,0,0,0-2-2H2045.58a2.11,2.11,0,0,0-1.95,2h0v275.18a2.1,2.1,0,0,0,1.95,2H2146.1a2.1,2.1,0,0,0,2-2h0v-31.22a2.11,2.11,0,0,0-2-2h-68.31v-87.82h58.55c1.95,0,2.92-1,2.92-2v-30.25c0-1-1-2.93-2-2.93h-58.55v-86.85Z"/><path d="M2196.84,1646.68h31.23a2.1,2.1,0,0,0,1.95-2h0V1533.49h30.25l37.08,111.24c0,1,2,2,2.93,2h33.18c1,0,1.95-1,1-2l-42-123c16.59-10.74,25.37-31.23,25.37-56.6V1435.9c0-42.93-23.42-68.31-66.35-68.31h-53.67a2.11,2.11,0,0,0-2,2h0v275.18C2194.89,1645.71,2195.86,1646.68,2196.84,1646.68ZM2230,1401.75h20.49c24.4,0,31.23,12.68,31.23,35.13v25.37c0,22.44-7.81,36.11-31.23,36.11H2230Z"/><path d="M2552.05,1646.68a2.1,2.1,0,0,0,1.95-2h0V1518.85h23.42a2.11,2.11,0,0,0,1.95-1.95v-30.25a2.11,2.11,0,0,0-1.95-2H2505.2c-10.73,0-24.39-14.63-24.39-41v-16.59c0-15.61,4.88-25.37,17.56-25.37h25.38a2.11,2.11,0,0,0,1.95-2h0v-30.25a2.11,2.11,0,0,0-1.95-2h-25.38a54.59,54.59,0,0,0-52.69,56.6h0v22.45c0,10.73,1,22.44,5.85,32.2a59.65,59.65,0,0,0,11.71,15.61c-17.56,10.74-20.49,32.21-20.49,62.46v32.2c0,31.23,25.37,56.6,56.6,57.57Zm-75.14-58.55v-45.86a29.25,29.25,0,0,1,5.85-17.57c3.9-3.9,9.76-5.85,15.61-5.85h20.5v92.7h-20.5c-11.71,0-21.46-8.78-21.46-20.49v-2.93Z"/><path d="M2688.66,1646.68h50.75c44.89,0,70.26-23.42,70.26-72.21V1434.93c0-42.94-23.42-68.31-66.36-68.31h-53.67a2.09,2.09,0,0,0-1.95,2h0v275.19c-1,2-1,2.92,1,2.92Zm33.18-244.93h20.49c24.4,0,31.23,12.68,31.23,35.13v138.57c0,24.39-8.78,36.1-31.23,36.1h-20.49Z"/><path d="M2962.87,1644.73a2.1,2.1,0,0,0,2,2H2997a2.1,2.1,0,0,0,1.95-2l-57.57-275.18c0-1-1-2-2.93-2h-31.23a2.11,2.11,0,0,0-1.95,2h0l-56.6,275.18a2.1,2.1,0,0,0,2,2h31.23a2.09,2.09,0,0,0,1.95-2h0l11.71-59.52h56.6Zm-61.47-94.65,21.46-113.2,21.47,113.2Z"/><path d="M3160,1588.13V1369.55a2.1,2.1,0,0,0-1.95-2h-31.22a2.11,2.11,0,0,0-2,2h0v217.61c2,13.66-8.78,26.35-22.44,28.3h-3.9c-14.64,0-26.35-11.71-26.35-25.37V1369.55a2.11,2.11,0,0,0-2-2H3039a2.1,2.1,0,0,0-1.95,2h0v217.61c0,34.15,26.35,61.48,60.5,62.45,34.15-1,61.48-27.32,62.45-61.48Z"/><path d="M3276.12,1649.61c32.2,0,61.48-23.42,61.48-72.21v-78.07a2.11,2.11,0,0,0-2-1.95H3280a2.11,2.11,0,0,0-1.95,1.95h0v30.25c0,2,1,2,1.95,2h23.42v54.65a26.42,26.42,0,1,1-52.69,3.91v-163a26.42,26.42,0,1,1,52.69-3.9v18.54c0,2,1,2,1.95,2h30.25a2.11,2.11,0,0,0,2-2h0v-5.86c0-49.77-29.28-72.21-61.48-72.21s-61.48,23.42-61.48,72.21v141.5C3214.64,1626.19,3243.92,1649.61,3276.12,1649.61Z"/><path d="M3481.05,1646.68h30.25c1,0,1.95-1,2.92-2V1369.55c0-1-1-2-2.92-2h-30.25a2.11,2.11,0,0,0-2,2h0v120H3426.4v-120a2.11,2.11,0,0,0-2-2h-31.23a2.1,2.1,0,0,0-1.95,2h0v275.18a2.09,2.09,0,0,0,1.95,2h31.23a2.1,2.1,0,0,0,2-2h0v-121h52.69v120c0,2,1,2.92,2,2.92Z"/><path d="M3687,1399.8v-30.25a2.11,2.11,0,0,0-1.95-2H3556.18a2.11,2.11,0,0,0-1.95,2h0v31.22a2.1,2.1,0,0,0,1.95,2H3603v243a2.11,2.11,0,0,0,2,2h31.22a2.11,2.11,0,0,0,2-2h0v-244H3685a2.11,2.11,0,0,0,1.95-2Z"/><path d="M3832.35,1644.73v-31.22a2.11,2.11,0,0,0-1.95-2h-68.31v-87.82h58.55c2,0,2.92-1,2.92-2v-30.25c0-1-1-2.93-1.95-2.93h-58.55v-86.85h68.31a2.1,2.1,0,0,0,2-2h0v-30.25a2.1,2.1,0,0,0-2-2H3730.86a2.1,2.1,0,0,0-2,2h0v275.18a2.09,2.09,0,0,0,2,2h100.51a3.38,3.38,0,0,0,1-2Z"/><path d="M3881.14,1646.68h31.23a2.1,2.1,0,0,0,2-2h0V1533.49h30.25l37.08,111.24c0,1,1.95,2,2.93,2h33.18c1,0,1.95-1,1-2l-42-123c16.59-10.74,25.37-31.23,25.37-56.6V1435.9c0-42.93-24.39-68.31-66.35-68.31h-53.67a2.11,2.11,0,0,0-2,2h0v275.18c-1,1,0,2,1,2Zm33.18-244.93h20.49c24.4,0,31.23,12.68,31.23,35.13v25.37c0,22.44-7.81,36.11-31.23,36.11h-20.49Z"/><path d="M4108.51,1649.61a57.68,57.68,0,0,0,57.58-57.57v-12.69c0-27.32-3.91-38.06-16.59-56.6-5.86-9.76-21.47-27.32-21.47-27.32l-23.42-28.3A55.51,55.51,0,0,1,4089,1433v-10.73c-1-11.71,6.83-22.44,18.54-23.42h2.93c11.71,0,20.49,8.78,21.47,20.49v20.5a2.11,2.11,0,0,0,1.95,2h31.23a2.1,2.1,0,0,0,2-2h0v-17.57c1-31.23-23.42-57.57-54.65-58.55h-1c-31.23,0-56.6,25.37-56.6,57.57v13.67c0,20.49,2.93,27.32,15.61,45.86,6.83,8.78,22.45,27.32,22.45,27.32l29.27,37.09c5.86,7.8,9.76,18.54,9.76,28.3V1592c1,11.71-6.83,22.44-18.54,23.42h-2.93A21.66,21.66,0,0,1,4089,1594v-19.52a2.1,2.1,0,0,0-1.95-2h-31.23a2.11,2.11,0,0,0-1.95,2h0v16.59c-1,32.2,24.4,57.58,56.6,58.55Z"/><path d="M4219.76,1679.86l32.2-32.2c1-1,1-2,1-3.9v-31.23a2.09,2.09,0,0,0-2-2h-31.22a2.1,2.1,0,0,0-2,2h0v66.36C4217.8,1680.84,4217.8,1680.84,4219.76,1679.86Z"/><path d="M4472.5,1512v-29.28c0-33.18-19.52-54.64-52.7-54.64h-41a4.2,4.2,0,0,0-3.91,3.9h0v209.8a4.2,4.2,0,0,0,3.91,3.91h23.42a3.58,3.58,0,0,0,3.9-3.91h0v-76.11h13.66C4453,1566.67,4472.5,1546.17,4472.5,1512Zm-31.23-1c0,17.57-5.85,24.4-21.47,24.4h-13.66V1460.3h13.66c15.62,0,21.47,6.83,21.47,24.39Z"/><path d="M4491,1642.78c0,2,1,3.9,2.93,3.9h24.39a3.58,3.58,0,0,0,3.91-3.9l8.78-42.94h39l8.79,42.94a4.19,4.19,0,0,0,3.9,3.9h23.42c2,0,3.9-1,3.9-2.92v-1h0L4566.18,1432c-1-2-2-2.93-3.9-2.93h-23.42A3.58,3.58,0,0,0,4535,1433L4491,1642.78Zm59.53-145.4,13.66,71.24H4536.9Z"/><path d="M4719.39,1550.08c12.68-10.74,20.49-27.33,18.54-43.92v-22.44c0-33.18-18.54-54.65-52.7-54.65h-41a3.58,3.58,0,0,0-3.91,3.91h0v209.8a4.2,4.2,0,0,0,3.91,3.9h23.42c1.95,0,3.9-1,3.9-2.92h0v-83h19.52l27.32,83a5.37,5.37,0,0,0,4.88,2.92h24.4a3.58,3.58,0,0,0,2.92-1c1-1,1-2,0-3.91Zm-11.71-45.87c1,6.83-1,12.69-4.88,18.54a19.38,19.38,0,0,1-17.57,6.83h-13.66v-68.31h13.66c15.62,0,21.47,6.84,21.47,24.4Z"/><path d="M4806.24,1646.68h23.42c1.95,0,3.9-1,3.9-2.92h0V1460.3h33.18a3.57,3.57,0,0,0,3.9-3.9h0V1433a4.2,4.2,0,0,0-3.9-3.91h-97.59c-1.95,0-3.9,1-3.9,2.93h0v23.42c0,1.95,1,3.9,2.93,3.9h33.18V1641.8c1,2.93,2,4.88,4.88,4.88Z"/><path d="M4984.81,1646.68h23.43a3.57,3.57,0,0,0,3.9-3.9h0V1460.3h33.18a3.57,3.57,0,0,0,3.9-3.9h0V1433a4.2,4.2,0,0,0-3.9-3.91h-97.59a3.58,3.58,0,0,0-3.9,3.91h0v23.42a4.19,4.19,0,0,0,3.9,3.9h33.18v182.48a4.19,4.19,0,0,0,3.9,3.9Z"/><path d="M5075.57,1433h0l33.18,209.8c0,2,1,3.9,3.9,4.88h24.4a4.19,4.19,0,0,0,3.9-3.9l24.4-144.43,24.39,144.43a4.19,4.19,0,0,0,3.9,3.9h23.42a3.58,3.58,0,0,0,3.91-3.9h0L5254.15,1434c0-2-1-3.9-2.93-3.9h-24.4a4.19,4.19,0,0,0-3.9,3.9h0l-17.57,141.5L5181,1433a4.2,4.2,0,0,0-3.9-3.91h-27.33a4.2,4.2,0,0,0-3.9,3.91l-21.47,141.49L5106.8,1433a4.2,4.2,0,0,0-3.91-3.91h-23.42a3.58,3.58,0,0,0-3.9,3.91Z"/><path d="M5287.33,1592c0,30.25,15.61,57.57,48.79,57.57s48.79-27.32,48.79-57.57V1484.69c0-30.25-15.61-57.57-48.79-57.57s-48.79,27.32-48.79,57.57Zm31.22-115.15c-1.95-8.78,4.88-17.57,13.66-19.52h3.91c9.76,0,17.56,6.83,17.56,16.59v123.93c1,9.76-5.85,18.54-14.64,19.52h-2.92c-8.79,1-17.57-6.83-17.57-15.61V1476.89Z"/><path d="M2565.71,2050.19h24.39a2.1,2.1,0,0,0,2-2l8.79-45.87h43.91l8.78,45.87a2.11,2.11,0,0,0,1.95,2h24.4c1,0,1-1,1-2l-43.92-214.69c0-1-1-2-2.92-2h-24.4a3.38,3.38,0,0,0-1.95,1h0l-44.89,214.68C2563.76,2049.21,2564.73,2050.19,2565.71,2050.19Zm56.6-163,16.58,87.83h-34.15Z"/><path d="M2822.35,2049.21l-33.18-95.63a51.77,51.77,0,0,0,19.52-43.91v-23.42c0-33.18-18.54-52.7-51.72-52.7h-42a3.38,3.38,0,0,0-2,1h0v214.68a2.1,2.1,0,0,0,2,2h24.4a3.42,3.42,0,0,0,2-1h0v-86.85h23.42l28.3,86.85a2.09,2.09,0,0,0,2,1.95h25.37C2822.35,2050.19,2822.35,2049.21,2822.35,2049.21Zm-40-142.47c0,17.57-5.85,27.32-24.39,27.32h-16.59v-75.14H2758c18.54,0,24.39,9.76,24.39,27.33Z"/><path d="M2941.41,1858.92v-24.39a3.38,3.38,0,0,0-1-2H2839.92a3.39,3.39,0,0,0-2,1h0V1858a3.43,3.43,0,0,0,1,2h36.11v188.34a3.43,3.43,0,0,0,1,2h24.4a3.38,3.38,0,0,0,1.95-1h0V1859.9h36.11c1.95,0,2.93,0,2.93-1Z"/><path d="M3042.89,2050.19h23.42a2.1,2.1,0,0,0,2-2V1833.55a2.1,2.1,0,0,0-2-2h-23.42a3.42,3.42,0,0,0-1.95,1h0v93.68h-41v-92.71a3.42,3.42,0,0,0-1-2h-24.4a3.42,3.42,0,0,0-1.95,1h0v214.68a2.1,2.1,0,0,0,1.95,2H2999a2.09,2.09,0,0,0,1.95-2h0v-93.68h41v93.68C3040.94,2050.19,3041.92,2050.19,3042.89,2050.19Z"/><path d="M3161,2053.12a47.9,47.9,0,0,0,47.82-47.82V1834.53a3.38,3.38,0,0,0-1-2h-24.4a3.43,3.43,0,0,0-1.95,1h0v168.82c1,10.74-5.85,20.5-16.59,21.47H3161a20.61,20.61,0,0,1-20.49-20.49V1834.53a3.38,3.38,0,0,0-1-2h-24.4a3.43,3.43,0,0,0-1.95,1h0v168.82C3113.15,2030.67,3134.62,2052.14,3161,2053.12Z"/><path d="M3348.33,1908.69v-23.42c0-33.18-18.54-52.69-51.72-52.69h-42a3.39,3.39,0,0,0-2,1h0v214.69a2.1,2.1,0,0,0,2,2h24.4a3.42,3.42,0,0,0,1.95-1h0v-86.85h23.42l28.3,86.85a2.09,2.09,0,0,0,2,1.95H3360c1,0,1-1,1-1.95l-32.21-95.63C3342.48,1942.85,3349.31,1926.26,3348.33,1908.69Zm-27.32-2c0,17.57-5.86,27.32-24.4,27.32H3280v-75.14h16.59c18.54,0,24.4,9.76,24.4,27.33Z"/><path d="M3540.57,2005.3v-13.66a3.39,3.39,0,0,0-1-2h-23.42a2.1,2.1,0,0,0-2,2h0v11.71c0,13.66-6.83,22.44-17.56,22.44s-18.54-7.8-18.54-22.44V1879.42c0-13.66,6.83-21.47,18.54-22.45s17.56,7.81,17.56,22.45v11.71a2.11,2.11,0,0,0,2,1.95h23.42a2.11,2.11,0,0,0,2-1.95h0v-12.69c1-25.37-17.57-45.86-42.94-47.81-25.37-1-45.86,17.56-47.82,42.93v129.79a45.51,45.51,0,0,0,90.76,6.83C3540.57,2009.2,3540.57,2007.25,3540.57,2005.3Z"/><path d="M3577.65,2022.87h24.4a2.09,2.09,0,0,1,1.95,2v24.39a2.1,2.1,0,0,1-1.95,2h-24.4a2.11,2.11,0,0,1-2-2v-24.39C3576.68,2023.84,3576.68,2022.87,3577.65,2022.87Z"/><path d="M3748.43,2053.12c25.37-1,45.86-22.45,44.88-47.82v-13.66a3.39,3.39,0,0,0-1-2h-23.42a2.09,2.09,0,0,0-2,2h0v11.71c0,13.66-6.83,22.44-17.57,22.44s-18.54-7.8-18.54-22.44V1879.42c0-13.66,6.83-21.47,18.54-22.45s17.57,7.81,17.57,22.45v11.71a2.1,2.1,0,0,0,2,1.95h23.42a2.11,2.11,0,0,0,1.95-1.95h0v-12.69c1.95-25.37-17.56-46.84-42-47.81-25.37-2-46.84,17.56-47.82,42v130.76c-2.92,26.35,17.57,48.79,43.92,49.77Z"/><path d="M3832.35,2050.19h74.16a3.38,3.38,0,0,0,1.95-1h0v-24.39a3.39,3.39,0,0,0-1-2H3858.7V1834.53a3.38,3.38,0,0,0-1-2h-24.4a3.43,3.43,0,0,0-2,1h0v214.69C3831.37,2050.19,3831.37,2050.19,3832.35,2050.19Z"/><path d="M3966,2049.21l8.78-45.86h43.91l8.79,45.86a2.1,2.1,0,0,0,1.95,2h24.39c1,0,1-1,1-2l-43.91-214.68a2.1,2.1,0,0,0-2-2h-24.39a3.39,3.39,0,0,0-1.95,1h0l-44.89,214.69c0,1,0,2,1,2h24.4A4.28,4.28,0,0,0,3966,2049.21Zm31.22-162,16.59,87.83H3979.7Z"/><path d="M4090,2050.19h24.4a3.42,3.42,0,0,0,1.95-1h0v-86.85h23.42l28.3,86.85a2.1,2.1,0,0,0,1.95,2h25.37c1,0,1-1,1-2l-33.18-95.63a51.79,51.79,0,0,0,19.51-43.91v-23.42c0-33.18-18.54-52.7-51.71-52.7h-42a3.42,3.42,0,0,0-1.95,1h0v214.68a3.58,3.58,0,0,0,2.93,1Zm26.35-190.29h16.59c18.54,0,24.39,9.76,24.39,27.32v19.52c0,17.57-5.85,27.32-24.39,27.32h-16.59Z"/><path d="M4230.49,2050.19h24.4a3.42,3.42,0,0,0,1.95-1h0v-60.5l19.52-36.1,34.15,95.63a2.11,2.11,0,0,0,1.95,2h25.37c1,0,2-1,1-2L4291,1921.38l45.87-87.83c0-1,0-1-1-1h-23.42c-1,0-1.95,0-1.95,1l-53.67,107.35V1833.55a3.42,3.42,0,0,0-1-2h-24.39a3.42,3.42,0,0,0-2,1h0v214.68c0,2,0,2.93,1,2.93Z"/><path d="M4451,1859.9a3.38,3.38,0,0,0,1.95-1h0v-24.39a3.39,3.39,0,0,0-1-2h-78.07a3.39,3.39,0,0,0-1.95,1h0v214.69a2.1,2.1,0,0,0,1.95,2H4452a2.11,2.11,0,0,0,1.95-2h0v-24.4a3.42,3.42,0,0,0-1-1.95h-52.69v-68.31h45.86a2.09,2.09,0,0,0,2-1.95v-21.47a2.1,2.1,0,0,0-2-2h-45.86V1859.9Z"/><path d="M2249.53,2050.19H2273a2.11,2.11,0,0,0,2-2l1-6.83c4.88,6.83,12.69,9.76,21.47,9.76,17.57-1,32.2-12.69,36.11-30.26l16.59-103.43c2.92-13.67-6.83-27.33-20.5-30.26h-5.85c-8.78,0-17.57,3.91-24.4,9.76l9.76-60.5c0-1,0-1-1-2h-23.42a2.1,2.1,0,0,0-1.95,2l-33.18,211.76c-2,1-1,2,0,2Zm43.92-121c1-8.79,7.8-14.64,15.61-14.64s12.69,4.88,10.74,14.64l-12.69,81c0,7.81-6.83,14.64-15.61,14.64-7.81,0-12.69-3.91-11.71-14.64Z"/><path d="M2354,2103.86c24.4,0,40-2.93,53.67-37.08l13.66-36.11,54.65-140.52c0-1,0-2-1-2h-23.42a2.11,2.11,0,0,0-2,2l-41,109.3-5.86-109.3a2.1,2.1,0,0,0-1.95-2h-23.42c-1,0-1,1-1,2l11.71,159.06-4.88,12.69c-2.92,9.76-13.66,15.61-23.42,14.64a2.1,2.1,0,0,0-2,1.95l-3.9,23.42v2Z"/><path d="M1722,2485.23h-21.18a1.69,1.69,0,0,0-1.57,1.57h0V2708a1.69,1.69,0,0,0,1.57,1.56h25.1a1.69,1.69,0,0,0,1.57-1.56h0v-138l34.5,96.46c0,.78.79,1.57,2.36,1.57h11a1.69,1.69,0,0,0,1.56-1.57l34.51-96.46v138.81a1.7,1.7,0,0,0,1.57,1.57h25.1a1.69,1.69,0,0,0,1.56-1.57h0V2487.58a1.69,1.69,0,0,0-1.56-1.57h-21.18c-.78,0-2.35.79-2.35,1.57l-44.7,127.83-45.49-127.83A2.5,2.5,0,0,0,1722,2485.23Z"/><path d="M1885.14,2540.91v113.72c0,39.21,23.53,58,49.41,58s49.41-18.82,49.41-58V2540.91c0-40-22.75-58-49.41-58S1885.14,2501.7,1885.14,2540.91Zm27.45-7.06a21.23,21.23,0,0,1,42.35-3.14V2660.9a21.23,21.23,0,0,1-42.35,3.14V2533.85Z"/><path d="M2054.54,2710.31h25.1a1.69,1.69,0,0,0,1.56-1.57h0V2513.46h37.65a1.69,1.69,0,0,0,1.57-1.57h0v-24.31a1.7,1.7,0,0,0-1.57-1.57H2015.33a1.69,1.69,0,0,0-1.57,1.57h0v25.1a1.68,1.68,0,0,0,1.57,1.56H2053v195.28a2.76,2.76,0,0,0,1.57.79Z"/><path d="M2153.36,2487.58v221.16a1.69,1.69,0,0,0,1.56,1.57H2180a1.7,1.7,0,0,0,1.57-1.57h0v-97.25h42.35V2708a1.68,1.68,0,0,0,1.57,1.56h24.31c.78,0,1.57-.78,2.35-1.56V2487.58c0-.78-.78-1.57-2.35-1.57h-24.31a1.69,1.69,0,0,0-1.57,1.57h0V2584h-42.35v-96.46A1.7,1.7,0,0,0,2180,2486h-25.1c-.78-.78-1.56,0-1.56,1.57Z"/><path d="M2380.79,2513.46a1.69,1.69,0,0,0,1.57-1.57h0v-24.31a1.7,1.7,0,0,0-1.57-1.57H2300a1.7,1.7,0,0,0-1.57,1.57h0v221.16a1.7,1.7,0,0,0,1.57,1.57h80.78a1.7,1.7,0,0,0,1.57-1.57h0v-25.1a1.69,1.69,0,0,0-1.57-1.56h-54.9v-70.59H2373c1.57,0,2.35-.78,2.35-1.57v-24.31c0-.78-.78-2.35-1.57-2.35h-47.05v-69.8Z"/><path d="M2421.57,2710.31h25.1a1.69,1.69,0,0,0,1.56-1.57h0v-89.41h24.32l29.8,89.41c0,.78,1.57,1.57,2.35,1.57h26.67c.78,0,1.56-.79.78-1.57l-33.72-98.82c13.33-8.62,20.39-25.09,20.39-45.48v-23.53c0-34.51-18.82-54.9-53.33-54.9h-43.14a1.69,1.69,0,0,0-1.56,1.57h0v221.16C2420,2709.52,2420.79,2710.31,2421.57,2710.31Zm26.66-196.85h16.47c19.61,0,25.1,10.2,25.1,28.23v20.39c0,18-6.27,29-25.1,29h-16.47Z"/><path d="M2707,2710.31a1.7,1.7,0,0,0,1.57-1.57h0V2607.57h18.82A1.69,1.69,0,0,0,2729,2606v-24.31a1.7,1.7,0,0,0-1.57-1.57h-58c-8.62,0-19.6-11.76-19.6-32.94v-13.33c0-12.55,3.92-20.39,14.11-20.39h20.4a1.68,1.68,0,0,0,1.56-1.57h0v-24.31a1.69,1.69,0,0,0-1.56-1.57h-20.4a43.87,43.87,0,0,0-42.34,45.49h0v18c0,8.62.78,18,4.7,25.88a47.84,47.84,0,0,0,9.41,12.54c-14.11,8.63-16.47,25.89-16.47,50.2V2664c0,25.09,20.39,45.48,45.49,46.27Zm-60.39-47.06v-36.86a23.47,23.47,0,0,1,4.71-14.11c3.13-3.14,7.84-4.71,12.54-4.71h16.47v74.51H2663.9c-9.41,0-17.25-7.06-17.25-16.47v-2.36Z"/><path d="M2816.83,2710.31h40.79c36.07,0,56.46-18.82,56.46-58V2540.13c0-34.51-18.82-54.9-53.33-54.9h-43.13a1.68,1.68,0,0,0-1.57,1.57h0V2708c-.78,1.56-.78,2.35.78,2.35Zm26.67-196.85H2860c19.6,0,25.09,10.2,25.09,28.23v111.37c0,19.6-7,29-25.09,29H2843.5Z"/><path d="M3037.21,2708.74a1.69,1.69,0,0,0,1.57,1.57h25.88a1.7,1.7,0,0,0,1.57-1.57L3020,2487.58c0-.78-.79-1.57-2.36-1.57h-25.09a1.69,1.69,0,0,0-1.57,1.57h0l-45.49,221.16a1.7,1.7,0,0,0,1.57,1.57h25.1a1.69,1.69,0,0,0,1.56-1.57h0l9.42-47.84h45.48Zm-49.41-76.07,17.26-91,17.25,91Z"/><path d="M3195.63,2663.25V2487.58a1.7,1.7,0,0,0-1.57-1.57H3169a1.69,1.69,0,0,0-1.56,1.57h0v174.89c1.56,11-7.06,21.17-18,22.74h-3.14c-11.76,0-21.17-9.41-21.17-20.39V2487.58a1.7,1.7,0,0,0-1.57-1.57h-25.1a1.7,1.7,0,0,0-1.57,1.57h0v174.89a49.71,49.71,0,0,0,48.63,50.19c27.45-.78,49.4-22,50.19-49.41Z"/><path d="M3289,2712.66c25.89,0,49.41-18.82,49.41-58v-62.74a1.68,1.68,0,0,0-1.57-1.57h-44.7a1.69,1.69,0,0,0-1.57,1.57h0v24.31c0,1.57.79,1.57,1.57,1.57h18.82v43.91a21.23,21.23,0,1,1-42.35,3.14v-131a21.23,21.23,0,0,1,42.35-3.14v14.91c0,1.56.79,1.56,1.57,1.56h24.31a1.68,1.68,0,0,0,1.57-1.56h0v-4.71c0-40-23.52-58-49.41-58s-49.4,18.83-49.4,58v113.72C3239.55,2693.84,3263.07,2712.66,3289,2712.66Z"/><path d="M3453.65,2710.31H3478c.78,0,1.57-.79,2.35-1.57V2487.58c0-.78-.78-1.57-2.35-1.57h-24.31a1.69,1.69,0,0,0-1.57,1.57h0V2584h-42.35v-96.46a1.69,1.69,0,0,0-1.57-1.57h-25.09a1.69,1.69,0,0,0-1.57,1.57h0v221.16a1.69,1.69,0,0,0,1.57,1.57h25.09a1.69,1.69,0,0,0,1.57-1.57h0v-97.25h42.35V2708c0,1.56.78,2.35,1.57,2.35Z"/><path d="M3619.13,2511.89v-24.31a1.7,1.7,0,0,0-1.57-1.57H3514a1.69,1.69,0,0,0-1.57,1.57h0v25.1a1.68,1.68,0,0,0,1.57,1.56h37.64v195.28a1.68,1.68,0,0,0,1.57,1.57h25.09a1.68,1.68,0,0,0,1.57-1.57h0V2513.46h37.65a1.69,1.69,0,0,0,1.57-1.57Z"/><path d="M3736,2708.74v-25.1a1.68,1.68,0,0,0-1.57-1.56h-54.9v-70.59h47.06c1.57,0,2.35-.78,2.35-1.57v-24.31c0-.78-.78-2.35-1.57-2.35h-47v-69.8h54.9a1.68,1.68,0,0,0,1.56-1.57h0v-24.31a1.69,1.69,0,0,0-1.56-1.57h-80.78a1.69,1.69,0,0,0-1.57,1.57h0v221.16a1.69,1.69,0,0,0,1.57,1.57h80.78a2.77,2.77,0,0,0,.78-1.57Z"/><path d="M3775.19,2710.31h25.1a1.7,1.7,0,0,0,1.57-1.57h0v-89.41h24.31l29.8,89.41c0,.78,1.57,1.57,2.35,1.57H3885c.78,0,1.57-.79.78-1.57l-33.72-98.82c13.33-8.62,20.39-25.09,20.39-45.48v-23.53c0-34.51-19.61-54.9-53.33-54.9H3776a1.69,1.69,0,0,0-1.57,1.57h0v221.16c-.79.78,0,1.57.78,1.57Zm26.67-196.85h16.47c19.6,0,25.09,10.2,25.09,28.23v20.39c0,18-6.27,29-25.09,29h-16.47Z"/><path d="M3957.92,2712.66a46.35,46.35,0,0,0,46.27-46.27v-10.2c0-22-3.13-30.58-13.33-45.48-4.7-7.84-17.25-22-17.25-22L3954.79,2566a44.62,44.62,0,0,1-12.55-27.45v-8.63c-.79-9.41,5.49-18,14.9-18.82h2.35c9.41,0,16.47,7.06,17.26,16.47v16.47a1.69,1.69,0,0,0,1.56,1.57h25.1a1.7,1.7,0,0,0,1.57-1.57h0v-14.12a45.56,45.56,0,0,0-43.92-47.06h-.78c-25.1,0-45.49,20.4-45.49,46.28v11c0,16.46,2.35,21.95,12.55,36.86,5.49,7.05,18,22,18,22l23.52,29.81a39.79,39.79,0,0,1,7.85,22.74v14.9c.78,9.41-5.49,18-14.91,18.82h-2.35a17.4,17.4,0,0,1-17.25-17.25v-15.69a1.69,1.69,0,0,0-1.57-1.56h-25.1a1.68,1.68,0,0,0-1.56,1.56h0v13.34c-.79,25.88,19.6,46.27,45.48,47Z"/><path d="M4047.33,2737l25.88-25.88c.78-.78.78-1.57.78-3.13v-25.1a1.69,1.69,0,0,0-1.57-1.57h-25.09a1.69,1.69,0,0,0-1.57,1.57h0v53.33C4045.76,2737.76,4045.76,2737.76,4047.33,2737Z"/><path d="M4250.45,2602.08v-23.53c0-26.66-15.68-43.91-42.35-43.91h-32.94a3.37,3.37,0,0,0-3.14,3.13h0v168.62a3.37,3.37,0,0,0,3.14,3.13H4194a2.87,2.87,0,0,0,3.14-3.13h0v-61.17h11C4234.77,2646,4250.45,2629.53,4250.45,2602.08Zm-25.1-.78c0,14.11-4.7,19.6-17.25,19.6h-11v-60.38h11c12.55,0,17.25,5.49,17.25,19.6Z"/><path d="M4265.35,2707.17c0,1.57.79,3.14,2.35,3.14h19.61a2.88,2.88,0,0,0,3.14-3.14l7.06-34.51h31.37l7.05,34.51a3.38,3.38,0,0,0,3.14,3.14h18.82c1.57,0,3.14-.79,3.14-2.35v-.79h0l-35.29-169.4c-.79-1.57-1.57-2.35-3.14-2.35h-18.82a2.87,2.87,0,0,0-3.14,3.14l-35.29,168.61Zm47.84-116.85,11,57.25h-22Z"/><path d="M4448.87,2632.67c10.19-8.63,16.47-22,14.9-35.29v-18c0-26.67-14.9-43.92-42.35-43.92h-32.94a2.87,2.87,0,0,0-3.14,3.14h0v168.61a3.38,3.38,0,0,0,3.14,3.14h18.82c1.57,0,3.14-.79,3.14-2.35h0v-66.67h15.68l22,66.67a4.33,4.33,0,0,0,3.92,2.35h19.61a2.86,2.86,0,0,0,2.35-.79c.79-.78.79-1.56,0-3.13Zm-9.41-36.86c.78,5.49-.79,10.19-3.93,14.9a15.57,15.57,0,0,1-14.11,5.49h-11v-54.9h11c12.55,0,17.25,5.49,17.25,19.61Z"/><path d="M4518.67,2710.31h18.82c1.57,0,3.13-.79,3.13-2.35h0V2560.52h26.67a2.88,2.88,0,0,0,3.14-3.14h0v-18.82a3.38,3.38,0,0,0-3.14-3.14h-78.43c-1.57,0-3.13.78-3.13,2.35h0v18.82c0,1.57.78,3.14,2.35,3.14h26.66v146.66c.79,2.35,1.57,3.92,3.93,3.92Z"/><path d="M4662.18,2710.31H4681a2.88,2.88,0,0,0,3.13-3.14h0V2560.52h26.67a2.87,2.87,0,0,0,3.13-3.14h0v-18.82a3.37,3.37,0,0,0-3.13-3.14h-78.43a2.87,2.87,0,0,0-3.14,3.14h0v18.82a3.38,3.38,0,0,0,3.14,3.14h26.67v146.65a3.38,3.38,0,0,0,3.13,3.14Z"/><path d="M4735.12,2538.56h0l26.66,168.61c0,1.57.79,3.14,3.14,3.92h19.61a3.37,3.37,0,0,0,3.13-3.13l19.61-116.07L4826.88,2708a3.37,3.37,0,0,0,3.13,3.13h18.83A2.87,2.87,0,0,0,4852,2708h0l26.67-168.62c0-1.57-.79-3.14-2.36-3.14h-19.6a3.38,3.38,0,0,0-3.14,3.14h0l-14.12,113.72-19.6-114.5a3.38,3.38,0,0,0-3.14-3.14h-22a3.37,3.37,0,0,0-3.13,3.14l-17.26,113.71-14.11-113.71a3.38,3.38,0,0,0-3.14-3.14h-18.82a2.87,2.87,0,0,0-3.14,3.14Z"/><path d="M4905.3,2666.39c0,24.31,12.55,46.27,39.21,46.27s39.22-22,39.22-46.27v-86.27c0-24.31-12.55-46.27-39.22-46.27s-39.21,22-39.21,46.27Zm25.1-92.54c-1.57-7.06,3.92-14.12,11-15.69h3.13c7.85,0,14.12,5.49,14.12,13.34v99.6c.79,7.84-4.7,14.9-11.76,15.68h-2.36c-7.05.79-14.11-5.49-14.11-12.55V2573.85Z"/><path d="M2718,3038.52h19.6a1.68,1.68,0,0,0,1.57-1.57l7.06-36.86h35.29l7.06,36.86a1.69,1.69,0,0,0,1.57,1.57h19.61c.78,0,.78-.78.78-1.57l-35.29-172.53c0-.79-.79-1.57-2.35-1.57h-19.61a2.77,2.77,0,0,0-1.57.78h0l-36.07,172.54C2716.45,3037.74,2717.23,3038.52,2718,3038.52Zm45.48-131,13.34,70.58h-27.45Z"/><path d="M2924.28,3037.74l-26.67-76.86a41.66,41.66,0,0,0,15.69-35.29v-18.82c0-26.67-14.9-42.35-41.57-42.35H2838a2.73,2.73,0,0,0-1.57.78h0v172.54a1.68,1.68,0,0,0,1.57,1.56h19.61a2.72,2.72,0,0,0,1.56-.78h0v-69.8H2878l22.74,69.8a1.69,1.69,0,0,0,1.57,1.57h20.39C2924.28,3038.52,2924.28,3037.74,2924.28,3037.74Zm-32.16-114.51c0,14.12-4.7,22-19.6,22h-13.34v-60.38h13.34c14.9,0,19.6,7.84,19.6,22Z"/><path d="M3020,2884.81V2865.2a2.76,2.76,0,0,0-.79-1.57h-80.78a2.76,2.76,0,0,0-1.57.79h0V2884a2.72,2.72,0,0,0,.79,1.57h29V3037a2.73,2.73,0,0,0,.78,1.57H2987a2.77,2.77,0,0,0,1.57-.78h0V2885.59h29c1.57,0,2.36,0,2.36-.78Z"/><path d="M3101.52,3038.52h18.82a1.69,1.69,0,0,0,1.57-1.57V2864.42a1.69,1.69,0,0,0-1.57-1.57h-18.82a2.73,2.73,0,0,0-1.57.78h0v75.29H3067v-74.5a2.73,2.73,0,0,0-.78-1.57h-19.61a2.77,2.77,0,0,0-1.57.78h0v172.54a1.7,1.7,0,0,0,1.57,1.57h19.61a1.7,1.7,0,0,0,1.57-1.57h0v-75.29h32.93v75.29C3100,3038.52,3100.73,3038.52,3101.52,3038.52Z"/><path d="M3196.41,3040.87a38.49,38.49,0,0,0,38.43-38.43V2865.2a2.77,2.77,0,0,0-.78-1.57h-19.61a2.76,2.76,0,0,0-1.57.79h0v135.67c.79,8.63-4.7,16.47-13.33,17.26h-3.14a16.57,16.57,0,0,1-16.47-16.47V2865.2a2.77,2.77,0,0,0-.78-1.57h-19.61a2.76,2.76,0,0,0-1.57.79h0v135.67C3158,3022.84,3175.24,3040.09,3196.41,3040.87Z"/><path d="M3347,2924.8V2906c0-26.66-14.9-42.35-41.57-42.35H3271.7a2.76,2.76,0,0,0-1.57.79h0V3037a1.69,1.69,0,0,0,1.57,1.57h19.61a2.77,2.77,0,0,0,1.57-.78h0v-69.8h18.82l22.74,69.8a1.69,1.69,0,0,0,1.57,1.56h20.39c.79,0,.79-.78.79-1.56l-25.88-76.86C3342.28,2952.25,3347.77,2938.92,3347,2924.8Zm-22-1.57c0,14.12-4.7,22-19.61,22h-13.33v-60.38h13.33c14.91,0,19.61,7.84,19.61,22Z"/><path d="M3501.49,3002.44v-11a2.71,2.71,0,0,0-.79-1.56h-18.82a1.69,1.69,0,0,0-1.57,1.56h0v9.42c0,11-5.49,18-14.11,18s-14.9-6.27-14.9-18v-99.6c0-11,5.49-17.26,14.9-18s14.11,6.27,14.11,18v9.41a1.7,1.7,0,0,0,1.57,1.57h18.82a1.69,1.69,0,0,0,1.57-1.57h0v-10.2c.79-20.39-14.11-36.86-34.51-38.43-20.39-.78-36.86,14.12-38.42,34.51v104.31a36.57,36.57,0,0,0,72.93,5.49C3501.49,3005.58,3501.49,3004,3501.49,3002.44Z"/><path d="M3531.29,3016.56h19.61a1.69,1.69,0,0,1,1.56,1.57v19.61a1.68,1.68,0,0,1-1.56,1.56h-19.61a1.69,1.69,0,0,1-1.57-1.56v-19.61C3530.51,3017.35,3530.51,3016.56,3531.29,3016.56Z"/><path d="M3668.53,3040.87c20.39-.78,36.86-18,36.08-38.43v-11a2.72,2.72,0,0,0-.78-1.56H3685a1.69,1.69,0,0,0-1.57,1.56h0v9.42c0,11-5.49,18-14.11,18s-14.9-6.27-14.9-18v-99.6c0-11,5.49-17.26,14.9-18s14.11,6.27,14.11,18v9.41a1.7,1.7,0,0,0,1.57,1.57h18.83a1.69,1.69,0,0,0,1.56-1.57h0v-10.2c1.57-20.39-14.11-37.64-33.72-38.43-20.39-1.57-37.64,14.12-38.43,33.73v105.09c-2.35,21.17,14.12,39.21,35.29,40Z"/><path d="M3736,3038.52h59.6a2.73,2.73,0,0,0,1.57-.78h0v-19.61a2.77,2.77,0,0,0-.78-1.57h-39.22V2865.2a2.77,2.77,0,0,0-.78-1.57h-19.61a2.71,2.71,0,0,0-1.56.79h0V3037C3735.2,3038.52,3735.2,3038.52,3736,3038.52Z"/><path d="M3843.42,3037.74l7.06-36.86h35.29l7.06,36.86a1.68,1.68,0,0,0,1.57,1.56H3914c.78,0,.78-.78.78-1.56L3879.5,2865.2a1.7,1.7,0,0,0-1.57-1.57h-19.61a2.76,2.76,0,0,0-1.57.79h0L3820.68,3037c0,.79,0,1.57.78,1.57h19.61A3.43,3.43,0,0,0,3843.42,3037.74Zm25.1-130.19,13.33,70.58H3854.4Z"/><path d="M3943,3038.52h19.61a2.77,2.77,0,0,0,1.57-.78h0v-69.8H3983l22.74,69.8a1.69,1.69,0,0,0,1.57,1.56h20.39c.79,0,.79-.78.79-1.56l-26.67-76.86a41.66,41.66,0,0,0,15.69-35.29v-18.82c0-26.67-14.9-42.35-41.57-42.35h-33.72a2.73,2.73,0,0,0-1.57.78h0v172.54a2.89,2.89,0,0,0,2.35.78Zm21.18-152.93h13.33c14.9,0,19.61,7.84,19.61,22v15.68c0,14.12-4.71,22-19.61,22H3964.2Z"/><path d="M4056,3038.52h19.6a2.73,2.73,0,0,0,1.57-.78h0v-48.63l15.69-29,27.44,76.86a1.69,1.69,0,0,0,1.57,1.57h20.39c.79,0,1.57-.78.79-1.57L4104.58,2935l36.86-70.58c0-.79,0-.79-.78-.79h-18.83c-.78,0-1.57,0-1.57.79l-43.13,86.26v-86.26a2.73,2.73,0,0,0-.78-1.57h-19.61a2.77,2.77,0,0,0-1.57.78h0v172.54c0,1.57,0,2.35.79,2.35Z"/><path d="M4233.2,2885.59a2.77,2.77,0,0,0,1.57-.78h0V2865.2a2.76,2.76,0,0,0-.79-1.57h-62.74a2.76,2.76,0,0,0-1.57.79h0V3037a1.69,1.69,0,0,0,1.57,1.57H4234a1.68,1.68,0,0,0,1.57-1.57h0v-19.6a2.73,2.73,0,0,0-.78-1.57h-42.35v-54.9h36.86a1.69,1.69,0,0,0,1.56-1.57v-17.25a1.68,1.68,0,0,0-1.56-1.57h-36.86v-54.9Z"/><path d="M2463.92,3038.52h18.82a1.68,1.68,0,0,0,1.57-1.57l.78-5.49c3.93,5.49,10.2,7.84,17.26,7.84,14.12-.78,25.88-10.19,29-24.31l13.33-83.13c2.35-11-5.49-22-16.47-24.31h-4.71c-7.06,0-14.11,3.14-19.6,7.84l7.84-48.62c0-.79,0-.79-.78-1.57h-18.83a1.69,1.69,0,0,0-1.57,1.57L2463.92,3037c-1.57.79-.78,1.57,0,1.57Zm35.29-97.25c.79-7.06,6.28-11.76,12.55-11.76s10.19,3.92,8.63,11.76l-10.2,65.1c0,6.27-5.49,11.76-12.55,11.76-6.27,0-10.19-3.14-9.41-11.76Z"/><path d="M2547.84,3081.65c19.6,0,32.15-2.35,43.13-29.8l11-29,43.92-112.94c0-.78,0-1.57-.79-1.57h-18.82a1.7,1.7,0,0,0-1.57,1.57l-32.94,87.84-4.7-87.84a1.7,1.7,0,0,0-1.57-1.57h-18.82c-.79,0-.79.79-.79,1.57l9.41,127.84-3.92,10.19c-2.35,7.84-11,12.55-18.82,11.77a1.69,1.69,0,0,0-1.57,1.56l-3.13,18.83v1.56Z"/><path d="M2056.11,3416.33H2039.3a1.34,1.34,0,0,0-1.24,1.25h0v175.53a1.33,1.33,0,0,0,1.24,1.25h19.92a1.33,1.33,0,0,0,1.24-1.25h0V3483.56l27.39,76.56c0,.62.63,1.25,1.87,1.25h8.72a1.34,1.34,0,0,0,1.24-1.25l27.39-76.56v110.18a1.33,1.33,0,0,0,1.24,1.24h19.92a1.33,1.33,0,0,0,1.25-1.24h0V3418.2a1.33,1.33,0,0,0-1.25-1.24h-16.8c-.63,0-1.87.62-1.87,1.24l-35.48,101.46L2058,3418.2A2,2,0,0,0,2056.11,3416.33Z"/><path d="M2185.58,3460.53v90.26c0,31.12,18.67,46.06,39.22,46.06s39.21-14.94,39.21-46.06v-90.26c0-31.75-18.05-46.06-39.21-46.06S2185.58,3429.4,2185.58,3460.53Zm21.79-5.6a16.85,16.85,0,1,1,33.61-2.49v103.33a16.85,16.85,0,1,1-33.61,2.48V3454.93Z"/><path d="M2320,3595H2340a1.34,1.34,0,0,0,1.25-1.24h0v-155h29.88a1.33,1.33,0,0,0,1.24-1.24h0v-19.3a1.33,1.33,0,0,0-1.24-1.24h-82.17a1.33,1.33,0,0,0-1.24,1.24h0v19.92a1.33,1.33,0,0,0,1.24,1.24h29.88v155a2.16,2.16,0,0,0,1.24.62Z"/><path d="M2398.46,3418.2v175.54a1.34,1.34,0,0,0,1.25,1.24h19.92a1.33,1.33,0,0,0,1.24-1.24h0v-77.19h33.62v76.56a1.33,1.33,0,0,0,1.24,1.25H2475c.62,0,1.24-.62,1.86-1.25V3418.2c0-.62-.62-1.24-1.86-1.24h-19.3a1.33,1.33,0,0,0-1.24,1.24h0v76.56h-33.62V3418.2a1.33,1.33,0,0,0-1.24-1.24h-19.92c-.62-.63-1.25,0-1.25,1.24Z"/><path d="M2579,3438.74a1.33,1.33,0,0,0,1.24-1.24h0v-19.3A1.33,1.33,0,0,0,2579,3417h-64.11a1.33,1.33,0,0,0-1.25,1.24h0v175.54a1.33,1.33,0,0,0,1.25,1.24H2579a1.33,1.33,0,0,0,1.24-1.24h0v-19.92a1.33,1.33,0,0,0-1.24-1.25h-43.57v-56h37.34c1.25,0,1.87-.62,1.87-1.25V3496c0-.62-.62-1.87-1.24-1.87H2536v-55.4Z"/><path d="M2611.35,3595h19.92a1.33,1.33,0,0,0,1.24-1.24h0v-71h19.3l23.65,71c0,.62,1.25,1.24,1.87,1.24h21.16c.63,0,1.25-.62.63-1.24l-26.77-78.44c10.58-6.84,16.18-19.91,16.18-36.1v-18.67c0-27.39-14.94-43.57-42.32-43.57H2612a1.34,1.34,0,0,0-1.25,1.24h0v175.54C2610.1,3594.36,2610.72,3595,2611.35,3595Zm21.16-156.24h13.07c15.56,0,19.92,8.09,19.92,22.41v16.18c0,14.32-5,23-19.92,23h-13.07Z"/><path d="M2837.93,3595a1.33,1.33,0,0,0,1.24-1.24h0v-80.3h14.94a1.34,1.34,0,0,0,1.24-1.25V3492.9a1.33,1.33,0,0,0-1.24-1.25h-46.06c-6.85,0-15.57-9.34-15.57-26.14v-10.58c0-10,3.12-16.19,11.21-16.19h16.18a1.33,1.33,0,0,0,1.25-1.24h0v-19.3a1.33,1.33,0,0,0-1.25-1.24h-16.18a34.81,34.81,0,0,0-33.61,36.1h0v14.31c0,6.85.62,14.32,3.73,20.55a38.29,38.29,0,0,0,7.47,10c-11.2,6.84-13.07,20.54-13.07,39.83v20.54c0,19.92,16.18,36.11,36.1,36.73ZM2790,3557.63v-29.25a18.64,18.64,0,0,1,3.73-11.21,14.12,14.12,0,0,1,10-3.73h13.07v59.13h-13.07c-7.47,0-13.69-5.6-13.69-13.07v-1.87Z"/><path d="M2925.07,3595h32.37c28.63,0,44.82-14.94,44.82-46.06v-89c0-27.39-14.94-43.58-42.33-43.58h-34.24a1.34,1.34,0,0,0-1.24,1.25h0v175.53c-.62,1.25-.62,1.87.62,1.87Zm21.16-156.24h13.08c15.56,0,19.91,8.09,19.91,22.41v88.39c0,15.56-5.6,23-19.91,23h-13.08Z"/><path d="M3100,3593.74a1.34,1.34,0,0,0,1.25,1.24h20.54a1.33,1.33,0,0,0,1.24-1.24l-36.72-175.54c0-.62-.62-1.24-1.87-1.24H3064.5a1.33,1.33,0,0,0-1.24,1.24h0l-36.11,175.54a1.34,1.34,0,0,0,1.25,1.24h19.92a1.33,1.33,0,0,0,1.24-1.24h0l7.47-38h36.11Zm-39.21-60.38,13.69-72.21,13.7,72.21Z"/><path d="M3225.72,3557.63V3418.2a1.33,1.33,0,0,0-1.24-1.24h-19.92a1.33,1.33,0,0,0-1.25,1.24h0V3557c1.25,8.71-5.6,16.81-14.31,18h-2.49c-9.34,0-16.81-7.47-16.81-16.18V3418.2a1.33,1.33,0,0,0-1.25-1.24h-19.91a1.33,1.33,0,0,0-1.25,1.24h0V3557a39.46,39.46,0,0,0,38.59,39.84c21.79-.62,39.22-17.43,39.84-39.22Z"/><path d="M3299.79,3596.85c20.55,0,39.22-14.94,39.22-46.06V3501a1.34,1.34,0,0,0-1.25-1.25h-35.48A1.34,1.34,0,0,0,3301,3501h0v19.29c0,1.25.62,1.25,1.24,1.25h14.94v34.86a16.85,16.85,0,0,1-33.61,2.49v-104a16.85,16.85,0,1,1,33.61-2.49v11.82c0,1.25.63,1.25,1.25,1.25h19.29a1.34,1.34,0,0,0,1.25-1.25h0v-3.73c0-31.75-18.67-46.06-39.22-46.06s-39.21,14.93-39.21,46.06v90.26C3260.58,3581.91,3279.25,3596.85,3299.79,3596.85Z"/><path d="M3430.51,3595h19.3c.62,0,1.24-.62,1.87-1.24V3418.2c0-.62-.63-1.24-1.87-1.24h-19.3a1.33,1.33,0,0,0-1.24,1.24h0v76.56h-33.62V3418.2a1.33,1.33,0,0,0-1.24-1.24h-19.92a1.33,1.33,0,0,0-1.24,1.24h0v175.54a1.33,1.33,0,0,0,1.24,1.24h19.92a1.33,1.33,0,0,0,1.24-1.24h0v-77.19h33.62v76.56c0,1.25.62,1.87,1.24,1.87Z"/><path d="M3561.85,3437.5v-19.3a1.33,1.33,0,0,0-1.24-1.24h-82.17a1.33,1.33,0,0,0-1.24,1.24h0v19.92a1.33,1.33,0,0,0,1.24,1.24h29.88v155a1.33,1.33,0,0,0,1.25,1.24h19.91a1.33,1.33,0,0,0,1.25-1.24h0V3438.74h29.88a1.33,1.33,0,0,0,1.24-1.24Z"/><path d="M3654.6,3593.74v-19.92a1.33,1.33,0,0,0-1.24-1.25h-43.58v-56h37.35c1.25,0,1.87-.62,1.87-1.25V3496c0-.62-.62-1.87-1.25-1.87h-37.34v-55.4H3654a1.33,1.33,0,0,0,1.24-1.24h0v-19.3A1.33,1.33,0,0,0,3654,3417h-64.12a1.33,1.33,0,0,0-1.24,1.24h0v175.54a1.33,1.33,0,0,0,1.24,1.24H3654a2.16,2.16,0,0,0,.62-1.24Z"/><path d="M3685.72,3595h19.92a1.33,1.33,0,0,0,1.25-1.24h0v-71h19.29l23.66,71c0,.62,1.24,1.24,1.87,1.24h21.16c.62,0,1.24-.62.62-1.24l-26.76-78.44c10.58-6.84,16.18-19.91,16.18-36.1v-18.67c0-27.39-15.56-43.57-42.33-43.57h-34.23a1.33,1.33,0,0,0-1.25,1.24h0v175.54c-.62.62,0,1.24.62,1.24Zm21.17-156.24H3720c15.56,0,19.92,8.09,19.92,22.41v16.18c0,14.32-5,23-19.92,23h-13.07Z"/><path d="M3830.76,3596.85a36.79,36.79,0,0,0,36.72-36.73V3552c0-17.43-2.49-24.28-10.58-36.1-3.73-6.23-13.69-17.43-13.69-17.43l-14.94-18.05a35.45,35.45,0,0,1-10-21.79v-6.85c-.62-7.47,4.36-14.31,11.83-14.94H3832c7.47,0,13.07,5.61,13.7,13.08V3463a1.33,1.33,0,0,0,1.24,1.24h19.92a1.34,1.34,0,0,0,1.25-1.24h0v-11.21a36.15,36.15,0,0,0-34.86-37.34h-.62c-19.92,0-36.11,16.18-36.11,36.72v8.72c0,13.07,1.87,17.42,10,29.25,4.36,5.6,14.32,17.43,14.32,17.43l18.67,23.65a31.59,31.59,0,0,1,6.23,18.06v11.82c.62,7.47-4.36,14.32-11.83,14.94H3832a13.81,13.81,0,0,1-13.69-13.69v-12.45a1.34,1.34,0,0,0-1.25-1.25h-19.91a1.34,1.34,0,0,0-1.25,1.25h0v10.58c-.62,20.54,15.56,36.73,36.1,37.35Z"/><path d="M3901.72,3616.14l20.54-20.54c.62-.62.62-1.24.62-2.49v-19.92a1.33,1.33,0,0,0-1.24-1.24h-19.92a1.34,1.34,0,0,0-1.25,1.24h0v42.33C3900.47,3616.77,3900.47,3616.77,3901.72,3616.14Z"/><path d="M4062.94,3509.08v-18.67c0-21.17-12.45-34.86-33.62-34.86h-26.14a2.68,2.68,0,0,0-2.49,2.49h0v133.83a2.69,2.69,0,0,0,2.49,2.49h14.94a2.28,2.28,0,0,0,2.49-2.49h0v-48.55h8.71C4050.49,3543.94,4062.94,3530.87,4062.94,3509.08Zm-19.92-.62c0,11.2-3.74,15.56-13.7,15.56h-8.71v-47.93h8.71c10,0,13.7,4.36,13.7,15.56Z"/><path d="M4074.76,3592.49c0,1.25.63,2.49,1.87,2.49h15.56a2.28,2.28,0,0,0,2.49-2.49l5.61-27.39h24.89l5.61,27.39a2.67,2.67,0,0,0,2.49,2.49h14.94c1.24,0,2.49-.62,2.49-1.87v-.62h0l-28-134.45c-.62-1.25-1.24-1.87-2.48-1.87h-14.94a2.28,2.28,0,0,0-2.49,2.49l-28,133.83Zm38-92.75,8.71,45.44H4104Z"/><path d="M4220.42,3533.36c8.09-6.85,13.07-17.43,11.83-28V3491c0-21.17-11.83-34.86-33.61-34.86h-26.15a2.28,2.28,0,0,0-2.49,2.49h0v133.83a2.68,2.68,0,0,0,2.49,2.49h14.94c1.25,0,2.49-.62,2.49-1.87h0V3540.2h12.45l17.43,52.91a3.42,3.42,0,0,0,3.11,1.87h15.56a2.29,2.29,0,0,0,1.87-.62c.62-.62.62-1.25,0-2.49ZM4213,3504.1c.62,4.36-.62,8.09-3.11,11.83a12.34,12.34,0,0,1-11.2,4.35h-8.72v-43.57h8.72c10,0,13.69,4.36,13.69,15.56Z"/><path d="M4275.82,3595h14.94c1.25,0,2.49-.62,2.49-1.87h0v-117h21.16a2.28,2.28,0,0,0,2.49-2.49h0v-14.94a2.68,2.68,0,0,0-2.49-2.49h-62.24c-1.25,0-2.49.62-2.49,1.87h0V3473c0,1.24.62,2.49,1.87,2.49h21.16v116.4c.62,1.87,1.24,3.11,3.11,3.11Z"/><path d="M4389.73,3595h14.94a2.28,2.28,0,0,0,2.49-2.49h0v-116.4h21.17a2.28,2.28,0,0,0,2.49-2.49h0v-14.94a2.69,2.69,0,0,0-2.49-2.49h-62.25a2.28,2.28,0,0,0-2.49,2.49h0v14.94a2.68,2.68,0,0,0,2.49,2.49h21.16v116.4a2.68,2.68,0,0,0,2.49,2.49Z"/><path d="M4447.62,3458.66h0l21.17,133.83a3.17,3.17,0,0,0,2.49,3.11h15.56a2.68,2.68,0,0,0,2.49-2.49l15.56-92.12,15.56,92.12a2.68,2.68,0,0,0,2.49,2.49h14.94a2.28,2.28,0,0,0,2.49-2.49h0l21.16-133.83c0-1.24-.62-2.49-1.86-2.49H4544.1a2.69,2.69,0,0,0-2.49,2.49h0l-11.2,90.26-15.56-90.88a2.69,2.69,0,0,0-2.49-2.49h-17.43a2.68,2.68,0,0,0-2.49,2.49l-13.69,90.26-11.21-90.26a2.68,2.68,0,0,0-2.49-2.49h-14.94a2.28,2.28,0,0,0-2.49,2.49Z"/><path d="M4582.7,3560.12c0,19.3,10,36.73,31.12,36.73s31.12-17.43,31.12-36.73v-68.47c0-19.3-10-36.72-31.12-36.72s-31.12,17.42-31.12,36.72Zm19.92-73.45c-1.25-5.6,3.11-11.2,8.71-12.45h2.49c6.23,0,11.2,4.36,11.2,10.58v79.06c.63,6.22-3.73,11.82-9.33,12.45h-1.87c-5.6.62-11.2-4.36-11.2-10v-79.68Z"/><path d="M2846.64,3859.61h15.56a1.34,1.34,0,0,0,1.25-1.25l5.6-29.25h28l5.6,29.25a1.34,1.34,0,0,0,1.25,1.25h15.56c.62,0,.62-.62.62-1.25l-28-136.94c0-.62-.62-1.24-1.87-1.24h-15.56a2.16,2.16,0,0,0-1.24.62h0l-28.64,136.94C2845.39,3859,2846,3859.61,2846.64,3859.61Zm36.1-104,10.58,56h-21.78Z"/><path d="M3010.35,3859l-21.17-61a33,33,0,0,0,12.45-28V3755c0-21.17-11.82-33.62-33-33.62h-26.76a2.17,2.17,0,0,0-1.25.62h0V3859a1.33,1.33,0,0,0,1.25,1.24h15.56a2.16,2.16,0,0,0,1.24-.62h0v-55.4h14.94l18.05,55.4a1.34,1.34,0,0,0,1.25,1.24h16.18C3010.35,3859.61,3010.35,3859,3010.35,3859Zm-25.52-90.88c0,11.2-3.74,17.43-15.56,17.43h-10.59v-47.93h10.59c11.82,0,15.56,6.22,15.56,17.43Z"/><path d="M3086.29,3737.61V3722a2.16,2.16,0,0,0-.62-1.24h-64.12a2.16,2.16,0,0,0-1.24.62h0V3737a2.17,2.17,0,0,0,.62,1.25h23v120.13a2.17,2.17,0,0,0,.62,1.25h15.57a2.16,2.16,0,0,0,1.24-.62h0V3738.23h23c1.25,0,1.87,0,1.87-.62Z"/><path d="M3151,3859.61H3166a1.34,1.34,0,0,0,1.25-1.25V3721.42a1.33,1.33,0,0,0-1.25-1.24H3151a2.17,2.17,0,0,0-1.25.62h0v59.76h-26.14v-59.14a2.15,2.15,0,0,0-.63-1.24h-15.56a2.16,2.16,0,0,0-1.24.62h0v136.94a1.34,1.34,0,0,0,1.24,1.25H3123a1.34,1.34,0,0,0,1.25-1.25h0V3798h26.14v59.75C3149.78,3859.61,3150.4,3859.61,3151,3859.61Z"/><path d="M3226.34,3861.48a30.55,30.55,0,0,0,30.5-30.5V3722a2.16,2.16,0,0,0-.62-1.24h-15.56a2.16,2.16,0,0,0-1.24.62h0v107.69c.62,6.85-3.74,13.07-10.59,13.69h-2.49a13.15,13.15,0,0,1-13.07-13.07V3722a2.16,2.16,0,0,0-.62-1.24h-15.56a2.21,2.21,0,0,0-1.25.62h0v107.69C3195.84,3847.16,3209.54,3860.85,3226.34,3861.48Z"/><path d="M3345.86,3769.35v-14.94c0-21.16-11.83-33.61-33-33.61H3286.1a2.16,2.16,0,0,0-1.24.62h0v136.94a1.33,1.33,0,0,0,1.24,1.25h15.56a2.21,2.21,0,0,0,1.25-.62h0v-55.4h14.94l18.05,55.4a1.33,1.33,0,0,0,1.24,1.24h16.19c.62,0,.62-.62.62-1.24l-20.54-61C3342.12,3791.14,3346.48,3780.56,3345.86,3769.35Zm-17.43-1.24c0,11.2-3.74,17.43-15.56,17.43h-10.59v-47.93h10.59c11.82,0,15.56,6.22,15.56,17.43Z"/><path d="M3468.48,3831v-8.72a2.16,2.16,0,0,0-.62-1.24h-14.94a1.33,1.33,0,0,0-1.24,1.24h0v7.47c0,8.72-4.36,14.32-11.21,14.32s-11.82-5-11.82-14.32v-79.05c0-8.72,4.35-13.7,11.82-14.32s11.21,5,11.21,14.32v7.47a1.33,1.33,0,0,0,1.24,1.24h14.94a1.34,1.34,0,0,0,1.25-1.24h0v-8.09c.62-16.19-11.21-29.26-27.39-30.51-16.19-.62-29.26,11.21-30.5,27.39v82.79a29,29,0,0,0,57.89,4.36C3468.48,3833.47,3468.48,3832.22,3468.48,3831Z"/><path d="M3492.14,3842.18h15.56a1.33,1.33,0,0,1,1.24,1.25V3859a1.33,1.33,0,0,1-1.24,1.24h-15.56a1.33,1.33,0,0,1-1.25-1.24v-15.56C3491.51,3842.8,3491.51,3842.18,3492.14,3842.18Z"/><path d="M3601.07,3861.48c16.18-.63,29.25-14.32,28.63-30.5v-8.72a2.16,2.16,0,0,0-.62-1.24h-14.94a1.33,1.33,0,0,0-1.24,1.24h0v7.47c0,8.72-4.36,14.32-11.21,14.32s-11.83-5-11.83-14.32v-79.05c0-8.72,4.36-13.7,11.83-14.32s11.21,5,11.21,14.32v7.47a1.33,1.33,0,0,0,1.24,1.24h14.94a1.33,1.33,0,0,0,1.24-1.24h0v-8.09a28.69,28.69,0,1,0-57.26-3.74v83.41c-1.87,16.81,11.2,31.12,28,31.75Z"/><path d="M3654.6,3859.61h47.31a2.16,2.16,0,0,0,1.24-.62h0v-15.56a2.17,2.17,0,0,0-.62-1.25h-31.12V3722a2.15,2.15,0,0,0-.63-1.24h-15.56a2.16,2.16,0,0,0-1.24.62h0v136.94C3654,3859.61,3654,3859.61,3654.6,3859.61Z"/><path d="M3739.88,3859l5.6-29.26h28l5.6,29.26a1.34,1.34,0,0,0,1.25,1.24h15.56c.62,0,.62-.62.62-1.24l-28-136.95a1.33,1.33,0,0,0-1.24-1.24h-15.56a2.17,2.17,0,0,0-1.25.62h0l-28.63,136.94c0,.63,0,1.25.62,1.25H3738A2.73,2.73,0,0,0,3739.88,3859Zm19.92-103.33,10.58,56h-21.79Z"/><path d="M3818.93,3859.61h15.56a2.17,2.17,0,0,0,1.25-.62h0v-55.4h14.94l18.05,55.4a1.33,1.33,0,0,0,1.24,1.24h16.19c.62,0,.62-.62.62-1.24l-21.16-61a33.08,33.08,0,0,0,12.45-28V3755c0-21.17-11.83-33.62-33-33.62h-26.77a2.21,2.21,0,0,0-1.25.62h0V3859a2.31,2.31,0,0,0,1.87.62Zm16.81-121.38h10.58c11.83,0,15.56,6.22,15.56,17.43v12.45c0,11.2-3.73,17.43-15.56,17.43h-10.58Z"/><path d="M3908.57,3859.61h15.56a2.16,2.16,0,0,0,1.24-.62h0v-38.6l12.45-23,21.79,61a1.33,1.33,0,0,0,1.24,1.25H3977c.62,0,1.24-.62.62-1.25l-30.5-80.92,29.26-56c0-.62,0-.62-.63-.62h-14.94c-.62,0-1.24,0-1.24.62l-34.24,68.47v-68.47a2.16,2.16,0,0,0-.62-1.24h-15.56a2.21,2.21,0,0,0-1.25.62h0v136.94c0,1.25,0,1.87.63,1.87Z"/><path d="M4049.24,3738.23a2.17,2.17,0,0,0,1.25-.62h0V3722a2.16,2.16,0,0,0-.62-1.24h-49.8a2.21,2.21,0,0,0-1.25.62h0v136.94a1.34,1.34,0,0,0,1.25,1.25h49.8a1.33,1.33,0,0,0,1.24-1.25h0V3842.8a2.16,2.16,0,0,0-.62-1.24h-33.61V3798h29.25a1.35,1.35,0,0,0,1.25-1.25v-13.69a1.34,1.34,0,0,0-1.25-1.25h-29.25v-43.57Z"/><path d="M2645,3859.61h14.94a1.33,1.33,0,0,0,1.24-1.25l.63-4.35c3.11,4.35,8.09,6.22,13.69,6.22a24.51,24.51,0,0,0,23-19.29l10.58-66c1.87-8.71-4.35-17.42-13.07-19.29h-3.73a24.57,24.57,0,0,0-15.56,6.22l6.22-38.59c0-.62,0-.62-.62-1.25h-14.94a1.35,1.35,0,0,0-1.25,1.25L2645,3858.36c-1.24.63-.62,1.25,0,1.25Zm28-77.19a10.1,10.1,0,0,1,10-9.33c5,0,8.09,3.11,6.85,9.33l-8.09,51.67c0,5-4.36,9.34-10,9.34-5,0-8.1-2.49-7.47-9.34Z"/><path d="M2711.56,3893.85c15.57,0,25.53-1.87,34.24-23.66l8.71-23,34.86-89.63c0-.63,0-1.25-.62-1.25h-14.94a1.33,1.33,0,0,0-1.24,1.25l-26.15,69.71-3.73-69.71a1.34,1.34,0,0,0-1.25-1.25H2726.5c-.62,0-.62.62-.62,1.25l7.47,101.46-3.11,8.09c-1.87,6.22-8.72,10-14.94,9.34a1.34,1.34,0,0,0-1.25,1.24l-2.49,14.94v1.25Z"/><path d="M2309.08,4184.17h-13.5a1.08,1.08,0,0,0-1,1h0v141a1.08,1.08,0,0,0,1,1h16a1.08,1.08,0,0,0,1-1h0v-88l22,61.49c0,.5.5,1,1.5,1h7a1.08,1.08,0,0,0,1-1l22-61.49v88.49a1.08,1.08,0,0,0,1,1h16a1.08,1.08,0,0,0,1-1h0v-141a1.08,1.08,0,0,0-1-1h-13.5c-.5,0-1.5.5-1.5,1l-28.5,81.5-29-81.5A1.6,1.6,0,0,0,2309.08,4184.17Z"/><path d="M2413.07,4219.67v72.49c0,25,15,37,31.5,37s31.5-12,31.5-37v-72.49c0-25.5-14.5-37-31.5-37S2413.07,4194.67,2413.07,4219.67Zm17.5-4.5a13.54,13.54,0,0,1,27-2v83a13.54,13.54,0,1,1-27,2v-83Z"/><path d="M2521.07,4327.66h16a1.08,1.08,0,0,0,1-1h0V4202.17h24a1.08,1.08,0,0,0,1-1h0v-15.5a1.08,1.08,0,0,0-1-1h-66a1.08,1.08,0,0,0-1,1h0v16a1.08,1.08,0,0,0,1,1h24v124.49a1.75,1.75,0,0,0,1,.5Z"/><path d="M2584.06,4185.67v141a1.08,1.08,0,0,0,1,1h16a1.08,1.08,0,0,0,1-1h0v-62h27v61.49a1.08,1.08,0,0,0,1,1h15.5c.5,0,1-.5,1.5-1V4185.67c0-.5-.5-1-1.5-1h-15.5a1.08,1.08,0,0,0-1,1h0v61.5h-27v-61.5a1.08,1.08,0,0,0-1-1h-16c-.5-.5-1,0-1,1Z"/><path d="M2729.05,4202.17a1.08,1.08,0,0,0,1-1h0v-15.5a1.08,1.08,0,0,0-1-1h-51.5a1.08,1.08,0,0,0-1,1h0v141a1.08,1.08,0,0,0,1,1h51.5a1.08,1.08,0,0,0,1-1h0v-16a1.08,1.08,0,0,0-1-1h-35v-45h30c1,0,1.5-.5,1.5-1v-15.5c0-.5-.5-1.5-1-1.5h-30v-44.5Z"/><path d="M2755.05,4327.66h16a1.08,1.08,0,0,0,1-1h0v-57h15.49l19,57c0,.5,1,1,1.5,1h17c.5,0,1-.5.5-1l-21.5-63c8.5-5.5,13-16,13-29v-15c0-22-12-35-34-35h-27.49a1.08,1.08,0,0,0-1,1h0v141C2754.05,4327.16,2754.55,4327.66,2755.05,4327.66Zm17-125.49h10.49c12.5,0,16,6.5,16,18v13c0,11.5-4,18.5-16,18.5h-10.49Z"/><path d="M2937,4327.66a1.08,1.08,0,0,0,1-1h0v-64.49h12a1.08,1.08,0,0,0,1-1v-15.5a1.08,1.08,0,0,0-1-1h-37c-5.5,0-12.49-7.5-12.49-21v-8.5c0-8,2.5-13,9-13h13a1.08,1.08,0,0,0,1-1h0v-15.5a1.08,1.08,0,0,0-1-1h-13a28,28,0,0,0-27,29h0v11.5c0,5.5.5,11.5,3,16.5a30.5,30.5,0,0,0,6,8c-9,5.5-10.5,16.5-10.5,32v16.49c0,16,13,29,29,29.5Zm-38.49-30v-23.49a15,15,0,0,1,3-9,11.33,11.33,0,0,1,8-3H2920v47.49h-10.5c-6,0-11-4.5-11-10.5v-1.5Z"/><path d="M3007,4327.66h26c23,0,36-12,36-37v-71.49c0-22-12-35-34-35h-27.49a1.08,1.08,0,0,0-1,1h0v141c-.5,1-.5,1.5.5,1.5Zm17-125.49h10.49c12.5,0,16,6.5,16,18v71c0,12.5-4.5,18.5-16,18.5H3024Z"/><path d="M3147.52,4326.66a1.08,1.08,0,0,0,1,1H3165a1.08,1.08,0,0,0,1-1l-29.49-141c0-.5-.5-1-1.5-1h-16a1.08,1.08,0,0,0-1,1h0l-29,141a1.08,1.08,0,0,0,1,1h16a1.08,1.08,0,0,0,1-1h0l6-30.5h29Zm-31.5-48.49,11-58,11,58Z"/><path d="M3248.51,4297.66v-112a1.08,1.08,0,0,0-1-1h-16a1.08,1.08,0,0,0-1,1h0v111.49c1,7-4.5,13.5-11.5,14.5h-2a13.35,13.35,0,0,1-13.5-13v-113a1.08,1.08,0,0,0-1-1h-16a1.08,1.08,0,0,0-1,1h0v111.49a31.69,31.69,0,0,0,31,32c17.5-.5,31.5-14,32-31.5Z"/><path d="M3308,4329.16c16.5,0,31.5-12,31.5-37v-40a1.08,1.08,0,0,0-1-1H3310a1.08,1.08,0,0,0-1,1h0v15.5c0,1,.5,1,1,1h12v28a13.54,13.54,0,1,1-27,2v-83.49a13.54,13.54,0,0,1,27-2v9.5c0,1,.5,1,1,1h15.5a1.08,1.08,0,0,0,1-1h0v-3c0-25.5-15-37-31.5-37s-31.49,12-31.49,37v72.49C3276.51,4317.16,3291.5,4329.16,3308,4329.16Z"/><path d="M3413,4327.66h15.5c.5,0,1-.5,1.5-1v-141c0-.5-.5-1-1.5-1H3413a1.08,1.08,0,0,0-1,1h0v61.5h-27v-61.5a1.08,1.08,0,0,0-1-1h-16a1.08,1.08,0,0,0-1,1h0v141a1.08,1.08,0,0,0,1,1h16a1.08,1.08,0,0,0,1-1h0v-62h27v61.49c0,1,.5,1.5,1,1.5Z"/><path d="M3518.49,4201.17v-15.5a1.08,1.08,0,0,0-1-1h-66a1.08,1.08,0,0,0-1,1h0v16a1.08,1.08,0,0,0,1,1h24v124.49a1.08,1.08,0,0,0,1,1h16a1.08,1.08,0,0,0,1-1h0v-125h24a1.08,1.08,0,0,0,1-1Z"/><path d="M3593,4326.66v-16a1.08,1.08,0,0,0-1-1h-35v-45h30c1,0,1.5-.5,1.5-1v-15.5c0-.5-.5-1.5-1-1.5h-30v-44.5h35a1.08,1.08,0,0,0,1-1h0v-15.5a1.08,1.08,0,0,0-1-1H3541a1.08,1.08,0,0,0-1,1h0v141a1.08,1.08,0,0,0,1,1h51.5a1.75,1.75,0,0,0,.5-1Z"/><path d="M3618,4327.66h16a1.08,1.08,0,0,0,1-1h0v-57h15.5l19,57c0,.5,1,1,1.5,1h17c.5,0,1-.5.5-1l-21.5-63c8.5-5.5,13-16,13-29v-15c0-22-12.5-35-34-35h-27.5a1.08,1.08,0,0,0-1,1h0v141c-.5.5,0,1,.5,1Zm17-125.49h10.5c12.49,0,16,6.5,16,18v13c0,11.5-4,18.5-16,18.5H3635Z"/><path d="M3734.47,4329.16a29.55,29.55,0,0,0,29.5-29.5v-6.5c0-14-2-19.49-8.5-29-3-5-11-14-11-14l-12-14.5a28.45,28.45,0,0,1-8-17.5v-5.5c-.5-6,3.5-11.5,9.5-12h1.5c6,0,10.5,4.5,11,10.5v10.5a1.08,1.08,0,0,0,1,1h16a1.08,1.08,0,0,0,1-1h0v-9a29,29,0,0,0-28-30h-.5a29.13,29.13,0,0,0-29,29.5v7c0,10.5,1.5,14,8,23.5,3.5,4.5,11.5,14,11.5,14l15,19a25.39,25.39,0,0,1,5,14.49v9.5c.5,6-3.5,11.5-9.5,12h-1.5a11.1,11.1,0,0,1-11-11v-10a1.08,1.08,0,0,0-1-1h-16a1.08,1.08,0,0,0-1,1h0v8.5c-.5,16.5,12.5,29.5,29,30Z"/><path d="M3791.46,4344.66l16.5-16.5c.5-.5.5-1,.5-2v-16a1.08,1.08,0,0,0-1-1h-16a1.08,1.08,0,0,0-1,1h0v34C3790.46,4345.16,3790.46,4345.16,3791.46,4344.66Z"/><path d="M3921,4258.67v-15c0-17-10-28-27-28h-21a2.15,2.15,0,0,0-2,2h0v107.49a2.15,2.15,0,0,0,2,2h12a1.83,1.83,0,0,0,2-2h0v-39h7C3911,4286.66,3921,4276.17,3921,4258.67Zm-16-.5c0,9-3,12.5-11,12.5h-7v-38.5h7c8,0,11,3.5,11,12.5Z"/><path d="M3930.45,4325.66c0,1,.5,2,1.5,2h12.5a1.83,1.83,0,0,0,2-2l4.5-22h20l4.5,22a2.15,2.15,0,0,0,2,2h12c1,0,2-.5,2-1.5v-.5h0l-22.5-108c-.5-1-1-1.5-2-1.5h-12a1.83,1.83,0,0,0-2,2l-22.5,107.49Zm30.5-74.49,7,36.49h-14Z"/><path d="M4047.44,4278.17c6.5-5.5,10.5-14,9.5-22.5v-11.5c0-17-9.5-28-27-28h-21a1.83,1.83,0,0,0-2,2h0v107.49a2.15,2.15,0,0,0,2,2h12c1,0,2-.5,2-1.5h0v-42.49h10l14,42.49a2.75,2.75,0,0,0,2.5,1.5h12.5a1.84,1.84,0,0,0,1.5-.5c.5-.5.5-1,0-2Zm-6-23.5a13.12,13.12,0,0,1-2.5,9.5,9.93,9.93,0,0,1-9,3.5h-7v-35h7c8,0,11,3.5,11,12.5Z"/><path d="M4091.94,4327.66h12c1,0,2-.5,2-1.5h0v-94h17a1.83,1.83,0,0,0,2-2h0v-12a2.15,2.15,0,0,0-2-2h-50c-1,0-2,.5-2,1.5h0v12c0,1,.5,2,1.5,2h17v93.49c.5,1.5,1,2.5,2.5,2.5Z"/><path d="M4183.43,4327.66h12a1.83,1.83,0,0,0,2-2h0v-93.49h17a1.83,1.83,0,0,0,2-2h0v-12a2.15,2.15,0,0,0-2-2h-50a1.83,1.83,0,0,0-2,2h0v12a2.15,2.15,0,0,0,2,2h17v93.49a2.15,2.15,0,0,0,2,2Z"/><path d="M4229.93,4218.17h0l17,107.49a2.55,2.55,0,0,0,2,2.5h12.5a2.15,2.15,0,0,0,2-2l12.49-74,12.5,74a2.15,2.15,0,0,0,2,2h12a1.83,1.83,0,0,0,2-2h0l17-107.49c0-1-.5-2-1.5-2h-12.5a2.15,2.15,0,0,0-2,2h0l-9,72.49-12.5-73a2.15,2.15,0,0,0-2-2h-14a2.15,2.15,0,0,0-2,2l-11,72.49-9-72.49a2.15,2.15,0,0,0-2-2h-12a1.83,1.83,0,0,0-2,2Z"/><path d="M4338.42,4299.66c0,15.5,8,29.5,25,29.5s25-14,25-29.5v-55c0-15.5-8-29.5-25-29.5s-25,14-25,29.5Zm16-59c-1-4.5,2.5-9,7-10h2c5,0,9,3.5,9,8.5v63.49c.5,5-3,9.5-7.5,10h-1.5a8.45,8.45,0,0,1-9-8v-64Z"/><path d="M2944,4544.15h12.5a1.08,1.08,0,0,0,1-1l4.5-23.5h22.5l4.5,23.5a1.08,1.08,0,0,0,1,1h12.5c.5,0,.5-.5.5-1l-22.5-110c0-.5-.5-1-1.5-1h-12.5a1.75,1.75,0,0,0-1,.5h0l-23,110Q2943.28,4544.15,2944,4544.15Zm29-83.5,8.5,45H2964Z"/><path d="M3075.52,4543.65l-17-49a26.55,26.55,0,0,0,10-22.5v-12c0-17-9.5-27-26.5-27h-21.49a1.75,1.75,0,0,0-1,.5h0v110a1.08,1.08,0,0,0,1,1H3033a1.75,1.75,0,0,0,1-.5h0v-44.5h12l14.5,44.5a1.08,1.08,0,0,0,1,1h13C3075.52,4544.15,3075.52,4543.65,3075.52,4543.65Zm-20.5-73c0,9-3,14-12.5,14H3034v-38.5h8.5c9.5,0,12.5,5,12.5,14Z"/><path d="M3136.52,4446.15v-12.5a1.75,1.75,0,0,0-.5-1h-51.5a1.75,1.75,0,0,0-1,.5h0v12.5a1.75,1.75,0,0,0,.5,1h18.5v96.5a1.75,1.75,0,0,0,.5,1h12.5a1.75,1.75,0,0,0,1-.5h0v-97H3135c1,0,1.5,0,1.5-.5Z"/><path d="M3188.51,4544.15h12a1.08,1.08,0,0,0,1-1v-110a1.08,1.08,0,0,0-1-1h-12a1.75,1.75,0,0,0-1,.5h0v48h-21v-47.5a1.75,1.75,0,0,0-.5-1h-12.49a1.75,1.75,0,0,0-1,.5h0v110a1.08,1.08,0,0,0,1,1H3166a1.08,1.08,0,0,0,1-1h0v-48h21v48C3187.51,4544.15,3188,4544.15,3188.51,4544.15Z"/><path d="M3249,4545.65a24.54,24.54,0,0,0,24.5-24.5v-87.5a1.75,1.75,0,0,0-.5-1h-12.5a1.75,1.75,0,0,0-1,.5h0v86.5c.5,5.5-3,10.5-8.5,11h-2a10.56,10.56,0,0,1-10.5-10.5v-86.5a1.75,1.75,0,0,0-.5-1h-12.5a1.75,1.75,0,0,0-1,.5h0v86.5C3224.51,4534.15,3235.51,4545.15,3249,4545.65Z"/><path d="M3345,4471.65v-12c0-17-9.5-27-26.5-27H3297a1.75,1.75,0,0,0-1,.5h0v110a1.08,1.08,0,0,0,1,1h12.5a1.75,1.75,0,0,0,1-.5h0v-44.5h12l14.5,44.5a1.08,1.08,0,0,0,1,1h13c.5,0,.5-.5.5-1l-16.5-49A26.89,26.89,0,0,0,3345,4471.65Zm-14-1c0,9-3,14-12.5,14H3310v-38.5h8.5c9.5,0,12.5,5,12.5,14Z"/><path d="M3443.49,4521.15v-7a1.75,1.75,0,0,0-.5-1h-12a1.08,1.08,0,0,0-1,1h0v6c0,7-3.5,11.5-9,11.5s-9.5-4-9.5-11.5v-63.5c0-7,3.5-11,9.5-11.5s9,4,9,11.5v6a1.08,1.08,0,0,0,1,1h12a1.08,1.08,0,0,0,1-1h0v-6.5a23.28,23.28,0,1,0-46.49-2.5v66.5a23.31,23.31,0,1,0,46.49,3.5A3.75,3.75,0,0,1,3443.49,4521.15Z"/><path d="M3462.49,4530.15H3475a1.08,1.08,0,0,1,1,1v12.5a1.08,1.08,0,0,1-1,1h-12.5a1.08,1.08,0,0,1-1-1v-12.5C3462,4530.65,3462,4530.15,3462.49,4530.15Z"/><path d="M3550,4545.65c13-.5,23.5-11.5,23-24.5v-7a1.75,1.75,0,0,0-.5-1h-12a1.08,1.08,0,0,0-1,1h0v6c0,7-3.5,11.5-9,11.5s-9.5-4-9.5-11.5v-63.5c0-7,3.5-11,9.5-11.5s9,4,9,11.5v6a1.08,1.08,0,0,0,1,1h12a1.08,1.08,0,0,0,1-1h0v-6.5a23,23,0,1,0-46-3v67c-1.5,13.5,9,25,22.49,25.5Z"/><path d="M3593,4544.15h38a1.75,1.75,0,0,0,1-.5h0v-12.5a1.75,1.75,0,0,0-.5-1h-25v-96.5a1.75,1.75,0,0,0-.5-1h-12.5a1.75,1.75,0,0,0-1,.5h0v110C3592.48,4544.15,3592.48,4544.15,3593,4544.15Z"/><path d="M3661.47,4543.65l4.5-23.5h22.5l4.5,23.5a1.08,1.08,0,0,0,1,1h12.5c.5,0,.5-.5.5-1l-22.5-110a1.08,1.08,0,0,0-1-1H3671a1.75,1.75,0,0,0-1,.5h0l-23,110c0,.5,0,1,.5,1H3660A2.19,2.19,0,0,0,3661.47,4543.65Zm16-83,8.5,45h-17.5Z"/><path d="M3725,4544.15h12.5a1.75,1.75,0,0,0,1-.5h0v-44.5h12l14.5,44.5a1.08,1.08,0,0,0,1,1h13c.5,0,.5-.5.5-1l-17-49a26.55,26.55,0,0,0,10-22.5v-12c0-17-9.5-27-26.5-27h-21.5a1.75,1.75,0,0,0-1,.5h0v110a1.84,1.84,0,0,0,1.5.5Zm13.5-97.5h8.5c9.5,0,12.5,5,12.5,14v10c0,9-3,14-12.5,14h-8.5Z"/><path d="M3797,4544.15h12.5a1.75,1.75,0,0,0,1-.5h0v-31l10-18.5,17.5,49a1.08,1.08,0,0,0,1,1h13c.5,0,1-.5.5-1l-24.5-65,23.5-45c0-.5,0-.5-.5-.5h-12c-.5,0-1,0-1,.5l-27.5,55v-55a1.75,1.75,0,0,0-.5-1h-12.5a1.75,1.75,0,0,0-1,.5h0v110c0,1,0,1.5.5,1.5Z"/><path d="M3910,4446.65a1.75,1.75,0,0,0,1-.5h0v-12.5a1.75,1.75,0,0,0-.5-1h-40a1.75,1.75,0,0,0-1,.5h0v110a1.08,1.08,0,0,0,1,1h40a1.08,1.08,0,0,0,1-1h0v-12.5a1.75,1.75,0,0,0-.5-1h-27v-35h23.49a1.08,1.08,0,0,0,1-1v-11a1.08,1.08,0,0,0-1-1H3884v-35Z"/><path d="M2782.05,4544.15h12a1.08,1.08,0,0,0,1-1l.5-3.5c2.5,3.5,6.5,5,11,5a19.7,19.7,0,0,0,18.5-15.5l8.5-53c1.5-7-3.5-14-10.5-15.5h-3a19.73,19.73,0,0,0-12.5,5l5-31c0-.5,0-.5-.5-1h-12a1.08,1.08,0,0,0-1,1l-17,108.5c-1,.5-.49,1,0,1Zm22.49-62a8.12,8.12,0,0,1,8-7.5c4,0,6.5,2.5,5.5,7.5l-6.5,41.5a7.8,7.8,0,0,1-8,7.5c-4,0-6.5-2-6-7.5Z"/><path d="M2835.54,4571.64c12.5,0,20.5-1.5,27.5-19l7-18.5,28-72c0-.5,0-1-.5-1h-12a1.08,1.08,0,0,0-1,1l-21,56-3-56a1.08,1.08,0,0,0-1-1h-12c-.5,0-.5.5-.5,1l6,81.5-2.5,6.5c-1.5,5-7,8-12,7.49a1.08,1.08,0,0,0-1,1l-2,12v1Z"/><path d="M2510.41,4829.78h-10.87a.87.87,0,0,0-.81.8h0v113.5a.88.88,0,0,0,.81.81h12.88a.87.87,0,0,0,.8-.81h0v-70.83l17.71,49.5c0,.4.4.8,1.21.8h5.63a.86.86,0,0,0,.81-.8l17.71-49.5v71.23a.86.86,0,0,0,.8.81H2570a.87.87,0,0,0,.81-.81h0V4831a.87.87,0,0,0-.81-.81H2559.1c-.4,0-1.2.4-1.2.81l-22.94,65.6-23.35-65.6A1.28,1.28,0,0,0,2510.41,4829.78Z"/><path d="M2594.12,4858.36v58.35c0,20.13,12.07,29.79,25.35,29.79s25.36-9.66,25.36-29.79v-58.35c0-20.53-11.67-29.79-25.36-29.79S2594.12,4838.23,2594.12,4858.36Zm14.09-3.63a10.89,10.89,0,0,1,21.73-1.61v66.81a10.89,10.89,0,1,1-21.73,1.61v-66.81Z"/><path d="M2681.05,4945.29h12.88a.87.87,0,0,0,.81-.81h0V4844.27h19.31a.86.86,0,0,0,.81-.81h0V4831a.86.86,0,0,0-.81-.81h-53.12a.87.87,0,0,0-.81.81h0v12.88a.87.87,0,0,0,.81.8h19.32v100.22a1.4,1.4,0,0,0,.8.4Z"/><path d="M2731.76,4831v113.49a.87.87,0,0,0,.81.81h12.88a.86.86,0,0,0,.8-.81h0v-49.9H2768v49.5a.88.88,0,0,0,.81.81h12.48c.4,0,.8-.41,1.2-.81V4831c0-.41-.4-.81-1.2-.81h-12.48a.87.87,0,0,0-.81.81h0v49.5h-21.73V4831a.86.86,0,0,0-.8-.81h-12.88c-.4-.4-.81,0-.81.81Z"/><path d="M2848.48,4844.27a.86.86,0,0,0,.8-.81h0V4831a.86.86,0,0,0-.8-.81H2807a.86.86,0,0,0-.8.81h0v113.49a.86.86,0,0,0,.8.81h41.46a.86.86,0,0,0,.8-.81h0V4931.6a.86.86,0,0,0-.8-.8h-28.17v-36.22h24.14c.81,0,1.21-.41,1.21-.81V4881.3c0-.41-.4-1.21-.8-1.21h-24.15v-35.82Z"/><path d="M2869.41,4945.29h12.88a.86.86,0,0,0,.8-.81h0V4898.6h12.48l15.29,45.88c0,.41.81.81,1.21.81h13.68c.4,0,.81-.4.4-.81l-17.3-50.71c6.84-4.43,10.46-12.88,10.46-23.34v-12.07c0-17.71-9.66-28.18-27.37-28.18h-22.13a.87.87,0,0,0-.81.81h0v113.49C2868.6,4944.89,2869,4945.29,2869.41,4945.29Zm13.68-101h8.45c10.06,0,12.88,5.23,12.88,14.49v10.46c0,9.26-3.22,14.89-12.88,14.89h-8.45Z"/><path d="M3015.9,4945.29a.86.86,0,0,0,.81-.81h0v-51.92h9.66a.86.86,0,0,0,.8-.8v-12.48a.86.86,0,0,0-.8-.8h-29.78c-4.43,0-10.07-6-10.07-16.91v-6.84c0-6.44,2-10.46,7.25-10.46h10.46a.86.86,0,0,0,.81-.81h0V4831a.86.86,0,0,0-.81-.81h-10.46a22.51,22.51,0,0,0-21.73,23.35h0v9.25c0,4.43.4,9.26,2.41,13.28a24.54,24.54,0,0,0,4.83,6.44c-7.24,4.43-8.45,13.28-8.45,25.76v13.28a24,24,0,0,0,23.34,23.75Zm-31-24.15v-18.92a12.05,12.05,0,0,1,2.42-7.24,9.14,9.14,0,0,1,6.44-2.42h8.45v38.24h-8.45a8.6,8.6,0,0,1-8.86-8.45v-1.21Z"/><path d="M3072.25,4945.29h20.93c18.51,0,29-9.66,29-29.78V4858c0-17.71-9.66-28.17-27.37-28.17h-22.14a.86.86,0,0,0-.8.8h0v113.5c-.41.81-.41,1.21.4,1.21Zm13.68-101h8.46c10.06,0,12.87,5.23,12.87,14.49v57.15c0,10.06-3.62,14.89-12.87,14.89h-8.46Z"/><path d="M3185.34,4944.48a.87.87,0,0,0,.81.81h13.28a.86.86,0,0,0,.8-.81L3176.49,4831c0-.41-.4-.81-1.21-.81H3162.4a.86.86,0,0,0-.8.81h0l-23.35,113.49a.87.87,0,0,0,.81.81h12.88a.86.86,0,0,0,.8-.81h0l4.83-24.55h23.35Zm-25.35-39,8.85-46.68,8.86,46.68Z"/><path d="M3266.64,4921.14V4831a.86.86,0,0,0-.8-.81H3253a.86.86,0,0,0-.81.81h0v89.75c.81,5.63-3.62,10.86-9.25,11.67h-1.61a10.74,10.74,0,0,1-10.87-10.47V4831a.86.86,0,0,0-.81-.81h-12.87a.86.86,0,0,0-.81.81h0v89.75a25.52,25.52,0,0,0,25,25.76c14.09-.41,25.36-11.27,25.76-25.36Z"/><path d="M3314.53,4946.5c13.29,0,25.36-9.66,25.36-29.79v-32.19a.86.86,0,0,0-.8-.81h-23a.86.86,0,0,0-.8.81h0V4897c0,.81.4.81.8.81h9.66v22.53a10.89,10.89,0,1,1-21.73,1.61v-67.21a10.89,10.89,0,0,1,21.73-1.61v7.65c0,.8.41.8.81.8h12.48a.86.86,0,0,0,.8-.8h0v-2.41c0-20.53-12.07-29.79-25.36-29.79s-25.35,9.66-25.35,29.79v58.35C3289.18,4936.84,3301.25,4946.5,3314.53,4946.5Z"/><path d="M3399.05,4945.29h12.48c.4,0,.8-.4,1.21-.81V4831c0-.41-.41-.81-1.21-.81h-12.48a.86.86,0,0,0-.8.81h0v49.5h-21.74V4831a.86.86,0,0,0-.8-.81h-12.88a.86.86,0,0,0-.8.81h0v113.49a.86.86,0,0,0,.8.81h12.88a.86.86,0,0,0,.8-.81h0v-49.9h21.74v49.5c0,.81.4,1.21.8,1.21Z"/><path d="M3484,4843.46V4831a.86.86,0,0,0-.8-.81H3430a.86.86,0,0,0-.8.81h0v12.88a.86.86,0,0,0,.8.8h19.32v100.22a.86.86,0,0,0,.81.8H3463a.86.86,0,0,0,.81-.8h0V4844.27h19.32a.86.86,0,0,0,.8-.81Z"/><path d="M3543.94,4944.48V4931.6a.86.86,0,0,0-.8-.8H3515v-36.22h24.15c.81,0,1.21-.41,1.21-.81V4881.3c0-.41-.4-1.21-.81-1.21h-24.14v-35.82h28.17a.86.86,0,0,0,.8-.81h0V4831a.86.86,0,0,0-.8-.81h-41.46a.86.86,0,0,0-.8.81h0v113.49a.86.86,0,0,0,.8.81h41.46a1.4,1.4,0,0,0,.4-.81Z"/><path d="M3564.06,4945.29h12.88a.86.86,0,0,0,.81-.81h0V4898.6h12.47l15.3,45.88c0,.41.8.81,1.21.81h13.68c.4,0,.8-.4.4-.81l-17.3-50.71c6.84-4.43,10.46-12.88,10.46-23.34v-12.07c0-17.71-10.06-28.18-27.37-28.18h-22.13a.86.86,0,0,0-.81.81h0v113.49c-.4.41,0,.81.4.81Zm13.69-101h8.45c10.06,0,12.88,5.23,12.88,14.49v10.46c0,9.26-3.22,14.89-12.88,14.89h-8.45Z"/><path d="M3657.84,4946.5a23.79,23.79,0,0,0,23.74-23.75v-5.23c0-11.27-1.61-15.7-6.84-23.35-2.41-4-8.85-11.26-8.85-11.26l-9.66-11.68a22.88,22.88,0,0,1-6.44-14.08v-4.43c-.4-4.83,2.82-9.26,7.65-9.66h1.2a8.85,8.85,0,0,1,8.86,8.45V4860a.86.86,0,0,0,.8.81h12.88a.87.87,0,0,0,.81-.81h0v-7.24a23.38,23.38,0,0,0-22.54-24.15h-.4a23.46,23.46,0,0,0-23.35,23.75V4858c0,8.45,1.21,11.27,6.44,18.92,2.82,3.62,9.26,11.27,9.26,11.27l12.07,15.29a20.41,20.41,0,0,1,4,11.67v7.65c.4,4.83-2.82,9.26-7.65,9.66h-1.21a8.93,8.93,0,0,1-8.85-8.86v-8a.86.86,0,0,0-.81-.81h-12.87a.86.86,0,0,0-.81.81h0v6.84c-.4,13.28,10.06,23.74,23.34,24.15Z"/><path d="M3703.72,4959l13.28-13.28c.4-.4.4-.8.4-1.61V4931.2a.86.86,0,0,0-.8-.8h-12.88a.87.87,0,0,0-.81.8h0v27.37C3702.91,4959.37,3702.91,4959.37,3703.72,4959Z"/><path d="M3808,4889.75v-12.08c0-13.68-8.05-22.53-21.73-22.53h-16.91a1.73,1.73,0,0,0-1.61,1.61h0v86.53a1.74,1.74,0,0,0,1.61,1.61H3779a1.48,1.48,0,0,0,1.61-1.61h0v-31.4h5.64C3799.91,4912.29,3808,4903.83,3808,4889.75Zm-12.88-.41c0,7.25-2.41,10.07-8.85,10.07h-5.64v-31h5.64c6.44,0,8.85,2.81,8.85,10.06Z"/><path d="M3815.61,4943.68c0,.8.4,1.61,1.2,1.61h10.06a1.47,1.47,0,0,0,1.61-1.61l3.63-17.71h16.1l3.62,17.71a1.73,1.73,0,0,0,1.61,1.61h9.66c.8,0,1.61-.4,1.61-1.21v-.4h0l-18.11-86.93c-.41-.81-.81-1.21-1.61-1.21h-9.66a1.47,1.47,0,0,0-1.61,1.61l-18.11,86.53Zm24.55-60,5.63,29.38h-11.27Z"/><path d="M3909.78,4905.44c5.23-4.42,8.45-11.27,7.65-18.11v-9.25c0-13.69-7.65-22.54-21.73-22.54h-16.91a1.48,1.48,0,0,0-1.61,1.61h0v86.53a1.74,1.74,0,0,0,1.61,1.61h9.66c.81,0,1.61-.4,1.61-1.21h0v-34.21h8.05l11.27,34.21a2.21,2.21,0,0,0,2,1.21h10.06a1.48,1.48,0,0,0,1.21-.4c.4-.41.4-.81,0-1.61Zm-4.83-18.91a10.51,10.51,0,0,1-2,7.64,8,8,0,0,1-7.24,2.82h-5.64v-28.17h5.64c6.44,0,8.85,2.82,8.85,10.06Z"/><path d="M3945.6,4945.29h9.66c.81,0,1.61-.4,1.61-1.21h0v-75.66h13.69a1.48,1.48,0,0,0,1.61-1.61h0v-9.66a1.73,1.73,0,0,0-1.61-1.61h-40.25c-.81,0-1.61.4-1.61,1.21h0v9.65c0,.81.4,1.61,1.21,1.61h13.68v75.27c.4,1.2.8,2,2,2Z"/><path d="M4019.25,4945.29h9.66a1.47,1.47,0,0,0,1.61-1.61h0v-75.26h13.69a1.48,1.48,0,0,0,1.61-1.61h0v-9.66a1.73,1.73,0,0,0-1.61-1.61H4004a1.48,1.48,0,0,0-1.61,1.61h0v9.66a1.74,1.74,0,0,0,1.61,1.61h13.68v75.26a1.74,1.74,0,0,0,1.61,1.61Z"/><path d="M4056.68,4857.15h0l13.69,86.53a2.05,2.05,0,0,0,1.61,2H4082a1.73,1.73,0,0,0,1.61-1.61l10.06-59.56,10.06,59.56a1.73,1.73,0,0,0,1.61,1.61H4115a1.47,1.47,0,0,0,1.61-1.61h0l13.68-86.53c0-.8-.4-1.61-1.2-1.61h-10.06a1.73,1.73,0,0,0-1.61,1.61h0l-7.25,58.36-10.06-58.76a1.73,1.73,0,0,0-1.61-1.61h-11.27a1.73,1.73,0,0,0-1.61,1.61l-8.85,58.36-7.25-58.36a1.72,1.72,0,0,0-1.61-1.61h-9.66a1.48,1.48,0,0,0-1.61,1.61Z"/><path d="M4144,4922.75c0,12.48,6.44,23.75,20.12,23.75s20.13-11.27,20.13-23.75v-44.27c0-12.48-6.44-23.75-20.13-23.75S4144,4866,4144,4878.48Zm12.88-47.49c-.81-3.62,2-7.25,5.63-8.05h1.61c4,0,7.25,2.82,7.25,6.84v51.11c.4,4-2.42,7.65-6,8.05h-1.21a6.79,6.79,0,0,1-7.24-6.44v-51.51Z"/><path d="M3021.54,5123.46h10.06a.88.88,0,0,0,.81-.81l3.62-18.91h18.11l3.62,18.91a.87.87,0,0,0,.81.81h10.06c.4,0,.4-.41.4-.81l-18.11-88.54c0-.4-.4-.81-1.21-.81h-10.06a1.39,1.39,0,0,0-.8.41h0l-18.52,88.54C3020.73,5123.05,3021.14,5123.46,3021.54,5123.46Zm23.34-67.21,6.84,36.22h-14.08Z"/><path d="M3127.39,5123.05l-13.69-39.44a21.33,21.33,0,0,0,8.05-18.11v-9.66c0-13.68-7.64-21.73-21.33-21.73h-17.3a1.4,1.4,0,0,0-.81.4h0v88.54a.86.86,0,0,0,.81.81h10.06a1.4,1.4,0,0,0,.8-.4h0v-35.82h9.66l11.67,35.82a.87.87,0,0,0,.81.8h10.46C3127.39,5123.46,3127.39,5123.05,3127.39,5123.05Zm-16.5-58.76c0,7.25-2.42,11.27-10.07,11.27H3094v-31h6.84c7.65,0,10.07,4,10.07,11.27Z"/><path d="M3176.49,5044.57v-10.06a1.4,1.4,0,0,0-.4-.8h-41.46a1.4,1.4,0,0,0-.8.4h0v10.06a1.44,1.44,0,0,0,.4.81h14.89v77.67a1.44,1.44,0,0,0,.4.81h10.07a1.39,1.39,0,0,0,.8-.41h0V5045h14.89c.81,0,1.21,0,1.21-.41Z"/><path d="M3218.35,5123.46H3228a.87.87,0,0,0,.81-.81v-88.54a.87.87,0,0,0-.81-.81h-9.65a1.39,1.39,0,0,0-.81.41h0v38.63h-16.9v-38.23a1.43,1.43,0,0,0-.41-.81h-10.06a1.39,1.39,0,0,0-.8.41h0v88.54a.86.86,0,0,0,.8.8h10.06a.86.86,0,0,0,.81-.8h0v-38.64h16.9v38.64C3217.54,5123.46,3217.94,5123.46,3218.35,5123.46Z"/><path d="M3267,5124.66a19.75,19.75,0,0,0,19.72-19.72v-70.43a1.4,1.4,0,0,0-.4-.8H3276.3a1.4,1.4,0,0,0-.8.4h0v69.63c.4,4.42-2.42,8.45-6.85,8.85H3267a8.5,8.5,0,0,1-8.45-8.45v-69.63a1.4,1.4,0,0,0-.4-.8h-10.06a1.44,1.44,0,0,0-.81.4h0v69.63A20.55,20.55,0,0,0,3267,5124.66Z"/><path d="M3344.32,5065.1v-9.66c0-13.68-7.65-21.73-21.33-21.73h-17.31a1.4,1.4,0,0,0-.8.4h0v88.54a.87.87,0,0,0,.8.81h10.06a1.43,1.43,0,0,0,.81-.41h0v-35.81h9.66l11.67,35.81a.86.86,0,0,0,.8.81h10.47c.4,0,.4-.4.4-.81l-13.28-39.44A21.66,21.66,0,0,0,3344.32,5065.1Zm-11.27-.81c0,7.25-2.42,11.27-10.06,11.27h-6.85v-31H3323c7.64,0,10.06,4,10.06,11.27Z"/><path d="M3423.6,5104.94v-5.63a1.44,1.44,0,0,0-.4-.81h-9.66a.87.87,0,0,0-.8.81h0v4.83c0,5.63-2.82,9.26-7.25,9.26s-7.64-3.22-7.64-9.26V5053c0-5.64,2.81-8.86,7.64-9.26s7.25,3.22,7.25,9.26v4.83a.86.86,0,0,0,.8.8h9.66a.87.87,0,0,0,.81-.8h0v-5.24a18.74,18.74,0,0,0-37.43-2v53.53A18.77,18.77,0,0,0,3424,5107,3,3,0,0,1,3423.6,5104.94Z"/><path d="M3438.9,5112.19H3449a.86.86,0,0,1,.8.8v10.06a.86.86,0,0,1-.8.81H3438.9a.86.86,0,0,1-.81-.81V5113C3438.49,5112.59,3438.49,5112.19,3438.9,5112.19Z"/><path d="M3509.33,5124.66a19.24,19.24,0,0,0,18.51-19.72v-5.63a1.44,1.44,0,0,0-.4-.81h-9.66a.87.87,0,0,0-.8.81h0v4.83c0,5.63-2.82,9.26-7.25,9.26s-7.65-3.22-7.65-9.26V5053c0-5.64,2.82-8.86,7.65-9.26S3517,5047,3517,5053v4.83a.86.86,0,0,0,.8.8h9.66a.86.86,0,0,0,.8-.8h0v-5.24a18.55,18.55,0,1,0-37-2.41v53.93a18.62,18.62,0,0,0,18.11,20.52Z"/><path d="M3543.94,5123.46h30.59a1.39,1.39,0,0,0,.8-.41h0V5113a1.4,1.4,0,0,0-.4-.8h-20.12v-77.68a1.39,1.39,0,0,0-.41-.8h-10.06a1.4,1.4,0,0,0-.8.4h0v88.54C3543.54,5123.46,3543.54,5123.46,3543.94,5123.46Z"/><path d="M3599.08,5123.05l3.62-18.91h18.11l3.62,18.91a.87.87,0,0,0,.81.81h10.06c.4,0,.4-.4.4-.81l-18.11-88.54a.86.86,0,0,0-.8-.8h-10.06a1.4,1.4,0,0,0-.81.4h0l-18.51,88.54c0,.4,0,.81.4.81h10.06A1.74,1.74,0,0,0,3599.08,5123.05Zm12.88-66.8,6.84,36.22h-14.09Z"/><path d="M3650.19,5123.46h10.06a1.39,1.39,0,0,0,.81-.41h0v-35.81h9.66l11.67,35.81a.86.86,0,0,0,.8.81h10.47c.4,0,.4-.4.4-.81l-13.68-39.44a21.38,21.38,0,0,0,8-18.11v-9.66c0-13.68-7.65-21.73-21.33-21.73h-17.31a1.44,1.44,0,0,0-.81.4h0v88.54a1.48,1.48,0,0,0,1.21.41Zm10.87-78.48h6.84c7.65,0,10.06,4,10.06,11.27v8c0,7.25-2.41,11.27-10.06,11.27h-6.84Z"/><path d="M3708.15,5123.46h10.06a1.39,1.39,0,0,0,.8-.41h0V5098.1l8-14.89,14.09,39.44a.87.87,0,0,0,.8.81h10.47c.4,0,.8-.41.4-.81l-19.72-52.32,18.92-36.22c0-.4,0-.4-.41-.4H3742c-.4,0-.8,0-.8.4L3719,5078.38v-44.27a1.44,1.44,0,0,0-.4-.81h-10.06a1.43,1.43,0,0,0-.81.41h0v88.54c0,.8,0,1.21.41,1.21Z"/><path d="M3799.1,5045a1.39,1.39,0,0,0,.81-.41h0v-10.06a1.4,1.4,0,0,0-.4-.8h-32.2a1.44,1.44,0,0,0-.81.4h0v88.54a.88.88,0,0,0,.81.81h32.2a.87.87,0,0,0,.8-.81h0v-10.06a1.4,1.4,0,0,0-.4-.8h-21.73v-28.18h18.91a.87.87,0,0,0,.81-.8V5074a.87.87,0,0,0-.81-.8h-18.91V5045Z"/><path d="M2891.14,5123.46h9.66a.87.87,0,0,0,.8-.81l.41-2.81c2,2.81,5.23,4,8.85,4a15.84,15.84,0,0,0,14.89-12.48l6.84-42.66c1.21-5.63-2.81-11.27-8.45-12.47h-2.41a15.89,15.89,0,0,0-10.06,4l4-25c0-.41,0-.41-.4-.81h-9.66a.87.87,0,0,0-.81.81l-13.68,87.33c-.81.4-.4.81,0,.81Zm18.11-49.91a6.54,6.54,0,0,1,6.44-6c3.22,0,5.23,2,4.43,6l-5.23,33.41a6.28,6.28,0,0,1-6.44,6c-3.22,0-5.24-1.61-4.83-6Z"/><path d="M2934.2,5145.59c10.07,0,16.5-1.2,22.14-15.29l5.63-14.89,22.54-58c0-.4,0-.8-.4-.8h-9.66a.86.86,0,0,0-.8.8l-16.91,45.08-2.41-45.08a.87.87,0,0,0-.81-.8h-9.66c-.4,0-.4.4-.4.8l4.83,65.6-2,5.24c-1.21,4-5.64,6.44-9.66,6a.88.88,0,0,0-.81.81l-1.61,9.66v.8Z"/></svg>