<?xml version="1.0" encoding="utf-8"?>
<!-- Generator: Adobe Illustrator 22.1.0, SVG Export Plug-In . SVG Version: 6.00 Build 0)  -->
<svg version="1.1" id="Layer_1" xmlns="http://www.w3.org/2000/svg" xmlns:xlink="http://www.w3.org/1999/xlink" x="0px" y="0px"
	 viewBox="0 0 668.7 307.1" style="enable-background:new 0 0 668.7 307.1;" xml:space="preserve">
<style type="text/css">
	.st0{fill:none;stroke:#CCCCCC;stroke-width:1.25;stroke-miterlimit:10;}
</style>
<title>Asset 17</title>
<line class="st0" x1="255.5" y1="204.6" x2="306.5" y2="204.6"/>
<line class="st0" x1="255.5" y1="255.1" x2="255.5" y2="205"/>
<line class="st0" x1="306.5" y1="204.6" x2="357.5" y2="204.6"/>
<line class="st0" x1="306.5" y1="255.1" x2="306.5" y2="205"/>
<line class="st0" x1="357.5" y1="204.6" x2="413.1" y2="204.6"/>
<line class="st0" x1="357.5" y1="255.1" x2="357.5" y2="205"/>
<line class="st0" x1="413.1" y1="204.6" x2="464.1" y2="204.6"/>
<line class="st0" x1="413.1" y1="255.1" x2="413.1" y2="205"/>
<line class="st0" x1="464.1" y1="204.6" x2="515.1" y2="204.6"/>
<line class="st0" x1="464.1" y1="255.1" x2="464.1" y2="205"/>
<line class="st0" x1="515.1" y1="204.6" x2="566.1" y2="204.6"/>
<line class="st0" x1="515.1" y1="255.1" x2="515.1" y2="205"/>
<line class="st0" x1="306.1" y1="255.5" x2="357.5" y2="255.5"/>
<line class="st0" x1="357.5" y1="255.5" x2="413.1" y2="255.5"/>
<line class="st0" x1="413.1" y1="255.5" x2="464.1" y2="255.5"/>
<line class="st0" x1="464.1" y1="255.5" x2="515.1" y2="255.5"/>
<line class="st0" x1="515.1" y1="255.5" x2="566.1" y2="255.5"/>
<line class="st0" x1="616.6" y1="204.6" x2="668.5" y2="204.6"/>
<line class="st0" x1="617" y1="255.1" x2="617" y2="205"/>
<line class="st0" x1="616.6" y1="255.5" x2="668.5" y2="255.5"/>
<line class="st0" x1="204.1" y1="255.5" x2="256" y2="255.5"/>
<line class="st0" x1="204.6" y1="306.1" x2="204.6" y2="256"/>
<line class="st0" x1="668" y1="255.1" x2="668" y2="205"/>
<line class="st0" x1="256" y1="255.5" x2="306.1" y2="255.5"/>
<line class="st0" x1="0.2" y1="0.6" x2="51.6" y2="0.6"/>
<line class="st0" x1="0.6" y1="51.2" x2="0.6" y2="1.1"/>
<line class="st0" x1="51.6" y1="0.6" x2="102.6" y2="0.6"/>
<line class="st0" x1="51.6" y1="51.2" x2="51.6" y2="1.1"/>
<line class="st0" x1="102.6" y1="0.6" x2="153.6" y2="0.6"/>
<line class="st0" x1="102.6" y1="51.2" x2="102.6" y2="1.1"/>
<line class="st0" x1="153.6" y1="0.6" x2="204.6" y2="0.6"/>
<line class="st0" x1="153.6" y1="51.2" x2="153.6" y2="1.1"/>
<line class="st0" x1="204.6" y1="0.6" x2="255.5" y2="0.6"/>
<line class="st0" x1="204.6" y1="51.2" x2="204.6" y2="1.1"/>
<line class="st0" x1="255.5" y1="0.6" x2="306.5" y2="0.6"/>
<line class="st0" x1="255.5" y1="51.2" x2="255.5" y2="1.1"/>
<line class="st0" x1="306.5" y1="0.6" x2="357.5" y2="0.6"/>
<line class="st0" x1="306.5" y1="51.2" x2="306.5" y2="1.1"/>
<line class="st0" x1="357.5" y1="0.6" x2="413.1" y2="0.6"/>
<line class="st0" x1="357.5" y1="51.2" x2="357.5" y2="1.1"/>
<line class="st0" x1="413.1" y1="0.6" x2="463.6" y2="0.6"/>
<line class="st0" x1="413.1" y1="51.2" x2="413.1" y2="1.1"/>
<line class="st0" x1="463.6" y1="0.6" x2="514.6" y2="0.6"/>
<line class="st0" x1="464.1" y1="51.2" x2="464.1" y2="1.1"/>
<line class="st0" x1="514.6" y1="0.6" x2="566.1" y2="0.6"/>
<line class="st0" x1="515.1" y1="51.2" x2="515.1" y2="1.1"/>
<line class="st0" x1="566.1" y1="0.6" x2="617" y2="0.6"/>
<line class="st0" x1="566.1" y1="51.2" x2="566.1" y2="1.1"/>
<line class="st0" x1="617" y1="0.6" x2="668.5" y2="0.6"/>
<line class="st0" x1="617" y1="51.2" x2="617" y2="1.1"/>
<line class="st0" x1="668" y1="51.2" x2="668" y2="1.1"/>
<line class="st0" x1="0.2" y1="51.6" x2="51.6" y2="51.6"/>
<line class="st0" x1="0.6" y1="102.1" x2="0.6" y2="52.1"/>
<line class="st0" x1="51.6" y1="102.1" x2="51.6" y2="52.1"/>
<line class="st0" x1="51.6" y1="51.6" x2="102.6" y2="51.6"/>
<line class="st0" x1="102.6" y1="51.6" x2="153.6" y2="51.6"/>
<line class="st0" x1="102.6" y1="102.1" x2="102.6" y2="52.1"/>
<line class="st0" x1="153.6" y1="102.1" x2="153.6" y2="52.1"/>
<line class="st0" x1="204.6" y1="102.1" x2="204.6" y2="52.1"/>
<line class="st0" x1="255.5" y1="102.1" x2="255.5" y2="52.1"/>
<line class="st0" x1="306.5" y1="102.1" x2="306.5" y2="52.1"/>
<line class="st0" x1="357.5" y1="102.1" x2="357.5" y2="52.1"/>
<line class="st0" x1="153.6" y1="51.6" x2="204.6" y2="51.6"/>
<line class="st0" x1="204.6" y1="51.6" x2="255.5" y2="51.6"/>
<line class="st0" x1="255.5" y1="51.6" x2="306.5" y2="51.6"/>
<line class="st0" x1="306.5" y1="51.6" x2="357.5" y2="51.6"/>
<line class="st0" x1="357.5" y1="51.6" x2="413.1" y2="51.6"/>
<line class="st0" x1="413.1" y1="51.6" x2="464.1" y2="51.6"/>
<line class="st0" x1="413.1" y1="102.1" x2="413.1" y2="52.1"/>
<line class="st0" x1="464.1" y1="102.1" x2="464.1" y2="52.1"/>
<line class="st0" x1="515.1" y1="102.1" x2="515.1" y2="52.1"/>
<line class="st0" x1="464.1" y1="51.6" x2="515.1" y2="51.6"/>
<line class="st0" x1="515.1" y1="51.6" x2="566.1" y2="51.6"/>
<line class="st0" x1="566.1" y1="51.6" x2="617" y2="51.6"/>
<line class="st0" x1="566.1" y1="102.1" x2="566.1" y2="52.1"/>
<line class="st0" x1="617" y1="51.6" x2="668.5" y2="51.6"/>
<line class="st0" x1="617" y1="102.1" x2="617" y2="52.1"/>
<line class="st0" x1="668" y1="102.1" x2="668" y2="52.1"/>
<line class="st0" x1="0.2" y1="102.6" x2="51.6" y2="102.6"/>
<line class="st0" x1="0.6" y1="153.1" x2="0.6" y2="103"/>
<line class="st0" x1="51.6" y1="102.6" x2="102.6" y2="102.6"/>
<line class="st0" x1="51.6" y1="153.1" x2="51.6" y2="103"/>
<line class="st0" x1="102.6" y1="102.6" x2="153.6" y2="102.6"/>
<line class="st0" x1="102.6" y1="153.1" x2="102.6" y2="103"/>
<line class="st0" x1="153.6" y1="102.6" x2="204.6" y2="102.6"/>
<line class="st0" x1="153.6" y1="153.1" x2="153.6" y2="103"/>
<line class="st0" x1="204.6" y1="102.6" x2="255.5" y2="102.6"/>
<line class="st0" x1="204.6" y1="153.1" x2="204.6" y2="103"/>
<line class="st0" x1="255.5" y1="102.6" x2="306.5" y2="102.6"/>
<line class="st0" x1="255.5" y1="153.1" x2="255.5" y2="103"/>
<line class="st0" x1="306.5" y1="102.6" x2="357.5" y2="102.6"/>
<line class="st0" x1="357.5" y1="102.6" x2="412.7" y2="102.6"/>
<line class="st0" x1="357.5" y1="153.1" x2="357.5" y2="103"/>
<line class="st0" x1="306.5" y1="153.1" x2="306.5" y2="103"/>
<line class="st0" x1="412.7" y1="102.6" x2="463.6" y2="102.6"/>
<line class="st0" x1="413.1" y1="153.1" x2="413.1" y2="103"/>
<line class="st0" x1="463.6" y1="102.6" x2="515.1" y2="102.6"/>
<line class="st0" x1="464.1" y1="153.1" x2="464.1" y2="103"/>
<line class="st0" x1="515.1" y1="102.6" x2="566.1" y2="102.6"/>
<line class="st0" x1="515.1" y1="153.1" x2="515.1" y2="103"/>
<line class="st0" x1="514.6" y1="153.6" x2="566.1" y2="153.6"/>
<line class="st0" x1="566.1" y1="102.6" x2="617" y2="102.6"/>
<line class="st0" x1="617" y1="102.6" x2="668.5" y2="102.6"/>
<line class="st0" x1="566.1" y1="153.1" x2="566.1" y2="103"/>
<line class="st0" x1="617" y1="153.1" x2="617" y2="103"/>
<line class="st0" x1="668" y1="153.1" x2="668" y2="103"/>
<line class="st0" x1="0.2" y1="153.6" x2="52" y2="153.6"/>
<line class="st0" x1="0.6" y1="204.1" x2="0.6" y2="154"/>
<line class="st0" x1="51.6" y1="204.1" x2="51.6" y2="154"/>
<line class="st0" x1="102.6" y1="204.1" x2="102.6" y2="154"/>
<line class="st0" x1="0.2" y1="204.6" x2="51.6" y2="204.6"/>
<line class="st0" x1="51.6" y1="204.6" x2="103" y2="204.6"/>
<line class="st0" x1="52.1" y1="153.6" x2="102.6" y2="153.6"/>
<line class="st0" x1="102.6" y1="153.6" x2="153.6" y2="153.6"/>
<line class="st0" x1="153.6" y1="153.6" x2="204.6" y2="153.6"/>
<line class="st0" x1="153.6" y1="204.1" x2="153.6" y2="154"/>
<line class="st0" x1="204.6" y1="204.1" x2="204.6" y2="154"/>
<line class="st0" x1="204.6" y1="153.6" x2="255.5" y2="153.6"/>
<line class="st0" x1="255.5" y1="153.6" x2="306.1" y2="153.6"/>
<line class="st0" x1="255.5" y1="204.1" x2="255.5" y2="154"/>
<line class="st0" x1="306.1" y1="153.6" x2="357.5" y2="153.6"/>
<line class="st0" x1="306.5" y1="204.1" x2="306.5" y2="154"/>
<line class="st0" x1="357.5" y1="153.6" x2="413.1" y2="153.6"/>
<line class="st0" x1="357.5" y1="204.1" x2="357.5" y2="154"/>
<line class="st0" x1="413.1" y1="153.6" x2="464.1" y2="153.6"/>
<line class="st0" x1="464.1" y1="153.6" x2="514.6" y2="153.6"/>
<line class="st0" x1="413.1" y1="204.1" x2="413.1" y2="154"/>
<line class="st0" x1="464.1" y1="204.1" x2="464.1" y2="154"/>
<line class="st0" x1="515.1" y1="204.1" x2="515.1" y2="154"/>
<line class="st0" x1="566.1" y1="153.6" x2="617" y2="153.6"/>
<line class="st0" x1="566.1" y1="204.1" x2="566.1" y2="154"/>
<line class="st0" x1="617" y1="153.6" x2="668.5" y2="153.6"/>
<line class="st0" x1="617" y1="204.1" x2="617" y2="154"/>
<line class="st0" x1="668" y1="204.1" x2="668" y2="154"/>
<line class="st0" x1="0.6" y1="255.5" x2="0.6" y2="205"/>
<line class="st0" x1="51.6" y1="255.1" x2="51.6" y2="205"/>
<line class="st0" x1="0.6" y1="306.1" x2="0.6" y2="255.5"/>
<line class="st0" x1="51.6" y1="306.1" x2="51.6" y2="256"/>
<line class="st0" x1="102.1" y1="204.6" x2="153.6" y2="204.6"/>
<line class="st0" x1="102.6" y1="255.1" x2="102.6" y2="205"/>
<line class="st0" x1="153.6" y1="204.6" x2="205" y2="204.6"/>
<line class="st0" x1="153.6" y1="255.1" x2="153.6" y2="205"/>
<line class="st0" x1="204.6" y1="255.1" x2="204.6" y2="205"/>
<line class="st0" x1="102.6" y1="306.1" x2="102.6" y2="256"/>
<line class="st0" x1="205" y1="204.6" x2="255.5" y2="204.6"/>
<line class="st0" x1="566.1" y1="204.6" x2="616.6" y2="204.6"/>
<line class="st0" x1="566.1" y1="255.5" x2="616.6" y2="255.5"/>
<line class="st0" x1="566.1" y1="255.1" x2="566.1" y2="205"/>
<line class="st0" x1="1.1" y1="255.5" x2="51.6" y2="255.5"/>
<line class="st0" x1="51.6" y1="255.5" x2="102.6" y2="255.5"/>
<line class="st0" x1="102.6" y1="255.5" x2="153.6" y2="255.5"/>
<line class="st0" x1="0.2" y1="306.5" x2="51.6" y2="306.5"/>
<line class="st0" x1="51.6" y1="306.5" x2="102.6" y2="306.5"/>
<line class="st0" x1="102.6" y1="306.5" x2="153.6" y2="306.5"/>
<line class="st0" x1="153.6" y1="255.5" x2="204.1" y2="255.5"/>
<line class="st0" x1="153.6" y1="306.5" x2="205" y2="306.5"/>
<line class="st0" x1="153.6" y1="306.1" x2="153.6" y2="256"/>
<path d="M25.2,34.7h1.9c0.1,0,0.1,0,0.1,0.1v1.9c0,0.1,0,0.2-0.1,0.2l-2,2c-0.1,0-0.1,0-0.1,0v-4c-0.1,0-0.1-0.1,0-0.2
	S25.1,34.6,25.2,34.7L25.2,34.7z"/>
<path d="M76.2,34.7H78c0.1,0,0.1,0,0.1,0.1c0,0,0,0,0,0v1.9c0,0.1-0.1,0.1-0.1,0.1c0,0,0,0,0,0h-1.8c-0.1,0-0.1,0-0.1-0.1
	c0,0,0,0,0,0v-1.9C76,34.7,76.1,34.7,76.2,34.7C76.1,34.7,76.2,34.7,76.2,34.7z"/>
<path d="M127.1,28.8h1.9c0.1,0,0.1,0,0.1,0.1c0,0,0,0,0,0v1.9c0,0.1-0.1,0.1-0.1,0.1c0,0,0,0,0,0h-1.9c-0.1,0-0.1-0.1-0.1-0.1
	c0,0,0,0,0,0v-1.9C127,28.8,127,28.8,127.1,28.8C127.1,28.8,127.1,28.8,127.1,28.8z M127.1,34.7h1.9c0.1,0,0.1,0,0.1,0.1
	c0,0,0,0,0,0v1.9c0,0.1,0,0.2-0.1,0.2l-2,2c-0.1,0-0.1,0-0.1,0v-4c-0.1-0.1-0.1-0.1,0-0.2C127,34.6,127.1,34.6,127.1,34.7
	L127.1,34.7z"/>
<path d="M178,28.9c0-0.1,0-0.1,0.1-0.1c0,0,0,0,0,0h1.9c0.1,0,0.1,0,0.1,0.1c0,0,0,0,0,0v1.9c0,0.1-0.1,0.1-0.1,0.1c0,0,0,0,0,0
	h-1.9c-0.1,0-0.1-0.1-0.1-0.1L178,28.9z M178.1,34.7h1.9c0.1,0,0.1,0,0.1,0.1c0,0,0,0,0,0v1.9c0,0.1-0.1,0.1-0.1,0.1c0,0,0,0,0,0
	h-1.9c-0.1,0-0.1-0.1-0.1-0.1v-1.9C178,34.7,178,34.7,178.1,34.7C178.1,34.7,178.1,34.7,178.1,34.7L178.1,34.7z"/>
<path d="M224.7,34.8c0-0.1,0-0.1,0.1-0.1c0,0,0,0,0,0h1.9c0.1,0,0.1,0.1,0.1,0.1c0,0,0,0,0,0v1.9c0,0.1-0.1,0.1-0.1,0.1h-1.9
	c-0.1,0-0.1,0-0.1-0.1c0,0,0,0,0,0V34.8z M229,36.7v-1.9c0-0.1,0-0.1,0.1-0.1c0,0,0,0,0,0h1.9c0.1,0,0.1,0.1,0.1,0.1c0,0,0,0,0,0
	v1.9c0,0.1-0.1,0.1-0.1,0.1h-1.9C229,36.8,229,36.8,229,36.7z M233.3,36.7v-1.9c0-0.1,0-0.1,0.1-0.1c0,0,0,0,0,0h1.9
	c0.1,0,0.1,0.1,0.1,0.1c0,0,0,0,0,0v1.9c0,0.1-0.1,0.1-0.1,0.1h-1.9C233.3,36.8,233.3,36.8,233.3,36.7
	C233.3,36.7,233.3,36.7,233.3,36.7L233.3,36.7z"/>
<path d="M279.7,36.7l0.8-13.1c0-0.1,0.1-0.1,0.1-0.1h0.8c0.1,0,0.1,0,0.1,0.1c0,0,0,0,0,0l0.8,13.1c0,0.1-0.1,0.1-0.1,0.1h-2.4
	C279.8,36.8,279.7,36.8,279.7,36.7C279.7,36.7,279.7,36.7,279.7,36.7z M280,19.8c0-0.1,0.1-0.1,0.1-0.1l0,0h1.9
	c0.1,0,0.1,0.1,0.1,0.1c0,0,0,0,0,0v1.9c0,0.1-0.1,0.1-0.1,0.1h-1.9c-0.1,0-0.1,0-0.1-0.1c0,0,0,0,0,0L280,19.8z"/>
<path d="M330.8,19.7h2.4c0.1,0,0.1,0,0.1,0.1c0,0,0,0,0,0l-0.8,13.1c0,0.1-0.1,0.1-0.1,0.1h-0.8c-0.1,0-0.1-0.1-0.1-0.1l-0.8-13.1
	C330.7,19.8,330.7,19.7,330.8,19.7C330.8,19.7,330.8,19.7,330.8,19.7z M330.9,34.8c0-0.1,0-0.1,0.1-0.1c0,0,0,0,0,0h1.9
	c0.1,0,0.1,0.1,0.1,0.1c0,0,0,0,0,0v1.9c0,0.1-0.1,0.1-0.1,0.1h-1.9c-0.1,0-0.1,0-0.1-0.1c0,0,0,0,0,0L330.9,34.8z"/>
<path d="M381.9,33.5v-0.8c-0.1-1,0.3-2,1-2.8l1.5-1.9c0.3-0.4,0.4-1,0.4-1.5v-2.9c0-0.1,0.1-0.1,0.1-0.1h1.9c0.1,0,0.1,0,0.1,0.1
	c0,0,0,0,0,0v3.7c0.1,0.6-0.1,1.2-0.5,1.7l-1.4,1.7c-0.6,0.6-0.9,1.4-1,2.3v0.5c-0.1,0.7,0.4,1.4,1.1,1.5c0.7,0.1,1.4-0.4,1.5-1.1
	c0-0.1,0-0.2,0-0.3v-1.1c0-0.1,0.1-0.1,0.1-0.1h1.9c0.1,0,0.1,0,0.1,0.1c0,0,0,0,0,0v1c0,1.9-1.5,3.5-3.4,3.5
	C383.5,36.9,381.9,35.4,381.9,33.5L381.9,33.5L381.9,33.5z M384.8,19.8c0-0.1,0-0.1,0.1-0.1c0,0,0,0,0,0h1.9c0.1,0,0.1,0,0.1,0.1
	c0,0,0,0,0,0v1.9c0,0.1-0.1,0.1-0.1,0.1c0,0,0,0,0,0h-1.9c-0.1,0-0.1-0.1-0.1-0.1V19.8z"/>
<path d="M435.2,24.1v-1c0-1.9,1.5-3.5,3.4-3.5c1.9,0,3.5,1.5,3.5,3.4v0.8c0.1,1-0.3,2-1,2.8l-1.5,1.9c-0.3,0.4-0.4,1-0.4,1.5V33
	c0,0.1-0.1,0.1-0.1,0.1c0,0,0,0,0,0h-1.9c-0.1,0-0.1-0.1-0.1-0.1v-3.7c-0.1-0.6,0.1-1.2,0.5-1.7l1.5-1.7c0.6-0.6,0.9-1.4,1-2.3v-0.5
	c0.1-0.7-0.5-1.4-1.2-1.4c-0.1,0-0.1,0-0.2,0c-0.7,0-1.3,0.6-1.3,1.3c0,0,0,0.1,0,0.1v1c0,0.1,0,0.1-0.1,0.1c0,0,0,0,0,0h-1.9
	c-0.1,0-0.1,0-0.2,0C435.2,24.2,435.2,24.2,435.2,24.1z M437.1,34.8c0-0.1,0-0.1,0.1-0.1c0,0,0,0,0,0h1.9c0.1,0,0.1,0,0.1,0.1
	c0,0,0,0,0,0v1.9c0,0.1-0.1,0.1-0.1,0.1c0,0,0,0,0,0h-1.9c-0.1,0-0.1,0-0.1-0.1c0,0,0,0,0,0V34.8z"/>
<path d="M488.7,28.8h1.9c0.1,0,0.1,0,0.1,0.1c0,0,0,0,0,0v1.9c0,0.1-0.1,0.1-0.1,0.1c0,0,0,0,0,0h-1.9c-0.1,0-0.1-0.1-0.1-0.1v-1.9
	C488.5,28.8,488.6,28.8,488.7,28.8C488.7,28.8,488.7,28.8,488.7,28.8z"/>
<path d="M538.6,28.8h4c0.1,0,0.1,0,0.1,0.1c0,0,0,0,0,0v1.9c0,0.1-0.1,0.1-0.1,0.1c0,0,0,0,0,0h-4c-0.1,0-0.1,0-0.1-0.1c0,0,0,0,0,0
	v-1.9C538.4,28.8,538.5,28.8,538.6,28.8C538.6,28.8,538.6,28.8,538.6,28.8z"/>
<path d="M587.6,28.8h7.9c0.1,0,0.1,0,0.1,0.1c0,0,0,0,0,0v1.9c0,0.1-0.1,0.1-0.1,0.1c0,0,0,0,0,0h-7.9c-0.1,0-0.1,0-0.1-0.1
	c0,0,0,0,0,0v-1.9C587.5,28.8,587.5,28.8,587.6,28.8C587.6,28.8,587.6,28.8,587.6,28.8z"/>
<path d="M634.1,28.8H651c0.1,0,0.1,0,0.1,0.1c0,0,0,0,0,0v1.9c0,0.1-0.1,0.1-0.1,0.1c0,0,0,0,0,0h-16.9c-0.1,0-0.1-0.1-0.1-0.1v-1.9
	C634,28.8,634,28.8,634.1,28.8C634.1,28.8,634.1,28.8,634.1,28.8z"/>
<path d="M25.3,70.7H27c0.1,0,0.1,0.1,0.1,0.1c0,0,0,0,0,0l-0.2,4c0,0.1-0.1,0.1-0.1,0.1h-1.3c-0.1,0-0.1,0-0.1-0.1c0,0,0,0,0,0
	l-0.2-4C25.2,70.8,25.2,70.7,25.3,70.7z"/>
<path d="M74.8,70.7h1.7c0,0,0.1,0,0.1,0.1c0,0,0,0,0,0l-0.2,4c0,0.1,0,0.1-0.1,0.1c0,0,0,0,0,0h-1.3c-0.1,0-0.1,0-0.1-0.1
	c0,0,0,0,0,0L74.8,70.7C74.7,70.7,74.8,70.7,74.8,70.7z M77.7,70.7h1.7c0.1,0,0.1,0,0.1,0.1l-0.2,4c0,0.1,0,0.1-0.1,0.1h-1.3
	c0,0-0.1,0-0.1-0.1l-0.2-4C77.6,70.7,77.6,70.7,77.7,70.7C77.7,70.7,77.7,70.7,77.7,70.7z"/>
<path d="M127,73c0-0.1,0-0.2,0.1-0.2l2-2c0-0.1,0.1,0,0.1,0v4c0.1,0,0.1,0.1,0,0.2c0,0.1-0.1,0.1-0.2,0h-1.9c-0.1,0-0.1-0.1-0.1-0.1
	c0,0,0,0,0,0L127,73z"/>
<path d="M178.1,70.7h1.9c0.1,0,0.1,0,0.1,0.1c0,0,0,0,0,0v1.9c0,0.1,0,0.2-0.1,0.2l-2,2c-0.1,0.1-0.1,0-0.1,0v-4
	c-0.1,0-0.1-0.1,0-0.2C178,70.6,178.1,70.6,178.1,70.7z"/>
<path d="M229.1,85.7h1.9c0.1,0,0.1,0.1,0.1,0.1c0,0,0,0,0,0v1.9c0,0.1,0,0.2-0.1,0.2l-2,2c-0.1,0-0.1,0-0.1-0.1v-4
	c0,0-0.1-0.1,0-0.2C229,85.6,229.1,85.6,229.1,85.7L229.1,85.7z"/>
<path d="M278.4,73c0-0.1,0-0.2,0.1-0.2l2-2c0-0.1,0.1,0,0.1,0v4c0,0.1,0,0.1-0.1,0.1c0,0,0,0,0,0h-1.9c-0.1,0-0.1-0.1-0.1-0.1
	c0,0,0,0,0,0L278.4,73z M281.6,74.9V73c0-0.1,0-0.2,0.1-0.2l2-2c0-0.1,0.1,0,0.1,0v4c0,0.1,0,0.1-0.1,0.1c0,0,0,0,0,0h-1.9
	C281.7,74.9,281.6,74.9,281.6,74.9C281.6,74.8,281.6,74.8,281.6,74.9L281.6,74.9z"/>
<path d="M329.4,74.8v-4c0-0.1,0-0.1,0.1-0.1c0,0,0,0,0,0h1.9c0.1,0,0.1,0.1,0.1,0.1c0,0,0,0,0,0v1.9c0,0.1,0,0.2-0.1,0.2L329.4,74.8
	C329.4,74.9,329.4,74.9,329.4,74.8z M332.6,74.8v-4c0-0.1,0-0.1,0.1-0.1c0,0,0,0,0,0h1.9c0.1,0,0.1,0,0.1,0.1c0,0,0,0,0,0v1.9
	c0,0.1,0,0.2-0.1,0.2L332.6,74.8C332.6,74.9,332.6,74.9,332.6,74.8L332.6,74.8z"/>
<path d="M382.7,89.8v-4c0-0.1,0-0.1,0.1-0.1c0,0,0,0,0,0h1.9c0.1,0,0.1,0,0.1,0.1c0,0,0,0,0,0v1.9c0,0.1,0,0.2-0.1,0.2l-2,2
	C382.7,89.9,382.7,89.9,382.7,89.8z M385.9,89.8v-4c0-0.1,0-0.1,0.1-0.1c0,0,0,0,0,0h1.9c0.1,0,0.1,0,0.1,0.1c0,0,0,0,0,0v1.9
	c0,0.1,0,0.2-0.1,0.2l-2,2C385.9,89.9,385.9,89.9,385.9,89.8z"/>
<path d="M436.6,81.2l2.5-4.1c0-0.1,0.1-0.1,0.2-0.1l1.4,0.8c0.1,0,0.1,0.1,0,0.2l-2,3.2l2,3.2c0,0.1,0,0.1,0,0.2l-1.4,0.8
	c0,0-0.1,0-0.2,0l-2.5-4.1C436.6,81.4,436.6,81.3,436.6,81.2z"/>
<path d="M487.6,78l1.4-0.8c0.1,0,0.1,0,0.2,0.1l2.5,4.1c0,0.1,0,0.1,0,0.2l-2.5,4.1c-0.1,0-0.1,0-0.2,0l-1.4-0.8c0-0.1,0-0.1,0-0.2
	l1.9-3.2l-1.9-3.2C487.6,78.1,487.6,78,487.6,78z"/>
<path d="M536.8,81.2l2.5-4.1c0-0.1,0.1-0.1,0.2-0.1l1.4,0.8c0.1,0,0.1,0.1,0,0.2l-2,3.2l2,3.2c0,0.1,0,0.1,0,0.2l-1.4,0.8
	c0,0-0.1,0-0.2,0l-2.5-4.1C536.8,81.4,536.8,81.3,536.8,81.2z M540.3,81.2l2.5-4.1c0-0.1,0.1-0.1,0.2-0.1l1.4,0.8
	c0.1,0,0.1,0.1,0,0.2l-2,3.2l2,3.2c0,0.1,0,0.1,0,0.2l-1.4,0.8c0,0-0.1,0-0.2,0l-2.5-4.1C540.2,81.4,540.2,81.3,540.3,81.2z"/>
<path d="M587.9,78l1.4-0.8c0.1,0,0.1,0,0.2,0.1l2.5,4.1c0,0.1,0,0.1,0,0.2l-2.5,4.1c-0.1,0-0.1,0-0.2,0l-1.4-0.8c0,0-0.1-0.1,0-0.2
	c0,0,0,0,0,0l1.9-3.2l-1.9-3.2C587.8,78.1,587.8,78,587.9,78z M591.3,84.6l1.9-3.2l-1.9-3.2c0-0.1,0-0.1,0-0.2l1.4-0.8
	c0.1,0,0.1,0,0.2,0.1l2.5,4.1c0,0.1,0,0.1,0,0.2l-2.5,4.1c0,0-0.1,0-0.2,0c0,0,0,0,0,0l-1.4-0.8C591.2,84.7,591.2,84.6,591.3,84.6
	L591.3,84.6z"/>
<path d="M638.6,87.8h7.9c0.1,0,0.1,0,0.1,0.1c0,0,0,0,0,0v1c0,0.1-0.1,0.1-0.1,0.1c0,0,0,0,0,0h-7.9c-0.1,0-0.1-0.1-0.1-0.1v-1
	C638.5,87.9,638.5,87.8,638.6,87.8C638.6,87.8,638.6,87.8,638.6,87.8z"/>
<path d="M23.3,130.3c0-4.1,1.2-8.2,3.4-11.6c0-0.1,0.1-0.1,0.2-0.1h2.2c0.1,0,0.1,0.1,0,0.1c-5,6.9-5,16.3,0,23.2c0,0.1,0,0.1,0,0.1
	H27c-0.1,0-0.2,0-0.2-0.1C24.5,138.4,23.3,134.4,23.3,130.3z"/>
<path d="M74.1,118.6h2.2c0.1,0,0.2,0,0.2,0.1c4.6,7.1,4.6,16.1,0,23.2c-0.1,0.1-0.1,0.1-0.2,0.1h-2.2c-0.1,0-0.1,0,0-0.1
	c5-6.9,5-16.3,0-23.2C74,118.6,74,118.6,74.1,118.6z"/>
<path d="M126.7,118.7c0-0.1,0-0.2,0.1-0.2h4c0.1,0,0.1,0.1,0.1,0.2v1.7c0,0.1-0.1,0.1-0.1,0.1c0,0,0,0,0,0h-2V140h2
	c0.1,0,0.1,0.1,0.1,0.1c0,0,0,0,0,0v1.7c0,0.1-0.1,0.1-0.1,0.1c0,0,0,0,0,0h-4c-0.1,0-0.1-0.1-0.1-0.1L126.7,118.7z"/>
<path d="M176.3,118.7c0-0.1,0-0.2,0.1-0.2h4c0.1,0,0.1,0.1,0.1,0.2v23.1c0,0.1-0.1,0.1-0.1,0.1c0,0,0,0,0,0h-4
	c-0.1,0-0.1-0.1-0.1-0.1v-1.7c0-0.1,0-0.1,0.1-0.1h2v-19.4h-2c-0.1,0-0.1-0.1-0.1-0.1V118.7z"/>
<path d="M227.5,129.6c0,0,0.1-0.1,0.1-0.1c0.9,0,1.6-0.1,1.6-1v-7.1c0.1-2.2,1.1-2.8,3.1-2.8c0.1,0,0.1,0,0.1,0.1v1.8
	c0,0.1-0.1,0.1-0.1,0.1c-0.6,0-1,0.2-1,1v6.8c0,0.7-0.3,1.4-0.8,1.9c0.5,0.5,0.8,1.1,0.8,1.9v6.9c0,0.8,0.4,1,1,1
	c0.1,0,0.1,0.1,0.1,0.1v1.8c0,0.1-0.1,0.1-0.1,0.1c0,0,0,0,0,0c-0.4,0-0.7,0-1.1-0.1c-1.2-0.2-1.9-1-2-2.8v-7c0-0.9-0.6-1-1.6-1
	c-0.1,0-0.1,0-0.1-0.1L227.5,129.6z"/>
<path d="M278.8,120.5v-1.8c0-0.1,0-0.1,0.1-0.1c2,0,3,0.6,3.1,2.8l0,0v7c0,0.9,0.6,1,1.6,1c0.1,0,0.1,0,0.1,0.1c0,0,0,0,0,0v1.4
	c0,0.1,0,0.1-0.1,0.1c-1,0-1.6,0.1-1.6,1v7c0,1.8-0.8,2.5-2,2.8c-0.4,0-0.7,0.1-1.1,0.1c-0.1,0-0.1,0-0.1-0.1v-1.8
	c0-0.1,0.1-0.1,0.1-0.1c0,0,0,0,0,0c0.6,0,1-0.2,1-1v-6.9c0-0.7,0.3-1.4,0.8-1.9c-0.6-0.5-0.9-1.2-0.8-1.9v-6.8c0-0.8-0.4-1-1-1
	C278.8,120.6,278.8,120.5,278.8,120.5z"/>
<path d="M328.1,139.9l5.8-19.2c0-0.1,0.1-0.1,0.1-0.1h1.9c0.1,0,0.1,0,0.1,0.1l-5.8,19.2c0,0.1-0.1,0.1-0.1,0.1h-1.9
	C328.1,140,328.1,140,328.1,139.9z"/>
<path d="M381.5,120.6h1.9c0.1,0,0.1,0.1,0.1,0.1c0,0,0,0,0,0l5.8,19.2c0,0.1,0,0.1-0.1,0.1h-1.9c-0.1,0-0.1,0-0.1-0.1l-5.8-19.2
	C381.4,120.6,381.4,120.6,381.5,120.6z"/>
<path d="M437.7,117.4h1.9c0.1,0,0.1,0.1,0.1,0.1v25.4c0,0.1,0,0.1-0.1,0.1c0,0,0,0,0,0h-1.9c-0.1,0-0.1,0-0.1-0.1c0,0,0,0,0,0v-25.4
	C437.6,117.4,437.6,117.4,437.7,117.4C437.7,117.4,437.7,117.4,437.7,117.4z"/>
<path d="M486,130.7l7.2-3.7c0.1,0,0.1,0,0.1,0.1v2c0,0.1,0,0.1-0.1,0.2l-5,2.5l5,2.5c0.1,0,0.1,0.1,0.1,0.2v2c0,0.1,0,0.1-0.1,0
	L486,133c-0.1,0-0.1-0.1-0.1-0.2v-1.9C485.8,130.8,485.9,130.7,486,130.7C486,130.7,486,130.7,486,130.7z"/>
<path d="M536.9,134.5c0-0.1,0.1-0.2,0.1-0.2l5-2.5l-5-2.5c-0.1,0-0.1-0.1-0.1-0.2v-2c0-0.1,0-0.1,0.1-0.1l7.2,3.7
	c0.1,0,0.1,0.1,0.1,0.2v1.9c0,0.1,0,0.1-0.1,0.2l-7.3,3.6c-0.1,0.1-0.1,0-0.1,0L536.9,134.5z"/>
<path d="M587.9,130.8v-1.9c0-0.1,0-0.1,0.1-0.2l7.2-3.6c0.1,0,0.1,0,0.1,0v2c0,0.1-0.1,0.2-0.1,0.2l-5,2.5l5,2.5
	c0.1,0,0.1,0.1,0.1,0.2v2c0,0.1,0,0.1-0.1,0.1L588,131C587.9,131,587.9,130.9,587.9,130.8z M587.9,132.8c0-0.1,0-0.1,0.1-0.1
	l7.2,3.6c0.1,0,0.1,0.1,0.1,0.2v2.1c0,0.1,0,0.1-0.1,0.1l-7.2-3.7c-0.1,0-0.1-0.1-0.1-0.2L587.9,132.8z"/>
<path d="M638.8,134.5v-2c0-0.1,0.1-0.2,0.1-0.2l5-2.5l-5-2.5c-0.1,0-0.1-0.1-0.1-0.2v-2c0-0.1,0-0.1,0.1,0l7.2,3.6
	c0.1,0,0.1,0.1,0.1,0.2v1.9c0,0.1-0.1,0.2-0.1,0.2l-7.2,3.6C638.9,134.6,638.8,134.6,638.8,134.5z M638.8,136.5
	c0-0.1,0.1-0.2,0.1-0.2l7.2-3.6c0.1,0,0.1,0,0.1,0.1v2.1c0,0.1-0.1,0.2-0.1,0.2l-7.2,3.6c-0.1,0-0.1,0-0.1-0.1L638.8,136.5z"/>
<path d="M22.2,181.7h2.9v-2.9c0-0.1,0-0.1,0.1-0.1c0,0,0,0,0,0h1.9c0.1,0,0.1,0.1,0.1,0.1v2.9h2.9c0.1,0,0.1,0,0.1,0.1c0,0,0,0,0,0
	v1.9c0,0.1-0.1,0.1-0.1,0.1c0,0,0,0,0,0h-2.9v2.9c0,0.1,0,0.1-0.1,0.1c0,0,0,0,0,0h-1.9c-0.1,0-0.1,0-0.1-0.1v-2.9h-2.9
	c-0.1,0-0.1,0-0.1-0.1c0,0,0,0,0,0v-1.9C22.1,181.8,22.1,181.7,22.2,181.7C22.2,181.7,22.2,181.7,22.2,181.7z"/>
<path d="M73.2,181.7h7.9c0.1,0,0.1,0.1,0.1,0.1c0,0,0,0,0,0v1.9c0,0.1-0.1,0.1-0.1,0.1h-7.9c-0.1,0-0.1,0-0.1-0.1c0,0,0,0,0,0v-1.9
	C73.1,181.8,73.1,181.7,73.2,181.7C73.2,181.7,73.2,181.7,73.2,181.7z"/>
<path d="M124.1,183.2v-1.9c0-0.1,0-0.1,0.1-0.1c0,0,0,0,0,0h2.9v-2.9c0-0.1,0.1-0.1,0.1-0.1c0,0,0,0,0,0h1.9c0.1,0,0.1,0,0.1,0.1
	c0,0,0,0,0,0v2.9h2.9c0.1,0,0.1,0.1,0.1,0.1c0,0,0,0,0,0v1.9c0,0.1-0.1,0.1-0.1,0.1c0,0,0,0,0,0h-2.9v2.9c0,0.1-0.1,0.1-0.1,0.1
	c0,0,0,0,0,0h-1.9c-0.1,0-0.1,0-0.1-0.1c0,0,0,0,0,0v-2.9h-2.9C124.1,183.4,124,183.3,124.1,183.2C124,183.2,124,183.2,124.1,183.2z
	 M124.2,187.6h7.9c0.1,0,0.1,0,0.1,0.1c0,0,0,0,0,0v1.9c0,0.1-0.1,0.1-0.1,0.1c0,0,0,0,0,0h-7.9c-0.1,0-0.1-0.1-0.1-0.1c0,0,0,0,0,0
	v-1.9C124.1,187.7,124.1,187.6,124.2,187.6z"/>
<path d="M175.6,180.7l1.3-1.3c0.1,0,0.1,0,0.2,0l2.1,2.1l2-2c0,0,0.1-0.1,0.1,0c0,0,0,0,0,0l1.3,1.3c0,0,0,0.1,0,0.2c0,0,0,0,0,0
	l-2,2l2,2c0,0.1,0,0.1,0,0.2l-1.3,1.3c0,0-0.1,0-0.2,0c0,0,0,0,0,0l-2-2l-2.1,2c-0.1,0-0.1,0-0.2,0l-1.3-1.3c0-0.1,0-0.1,0-0.2l2-2
	l-2-2.1C175.5,180.8,175.5,180.7,175.6,180.7z"/>
<path d="M226,183.8v-1.9c0-0.1,0-0.1,0.1-0.1c0,0,0,0,0,0h7.9c0.1,0,0.1,0.1,0.1,0.1c0,0,0,0,0,0v1.9c0,0.1-0.1,0.1-0.1,0.1h-7.9
	C226.1,183.9,226,183.8,226,183.8C226,183.8,226,183.8,226,183.8z M229,178.6c0-0.1,0-0.1,0.1-0.1c0,0,0,0,0,0h1.9
	c0.1,0,0.1,0.1,0.1,0.1c0,0,0,0,0,0v1.9c0,0.1-0.1,0.1-0.1,0.1c0,0,0,0,0,0h-1.9c-0.1,0-0.1,0-0.1-0.1V178.6z M229,185.1
	c0-0.1,0-0.1,0.1-0.1c0,0,0,0,0,0h1.9c0.1,0,0.1,0.1,0.1,0.1c0,0,0,0,0,0v1.9c0,0.1-0.1,0.1-0.1,0.1c0,0,0,0,0,0h-1.9
	c-0.1,0-0.1-0.1-0.1-0.1V185.1z"/>
<path d="M277,179.8c0-0.1,0.1-0.1,0.1-0.1c0,0,0,0,0,0h7.9c0.1,0,0.1,0.1,0.1,0.1v1.9c0,0.1,0,0.1-0.1,0.1c0,0,0,0,0,0h-7.9
	c-0.1,0-0.1,0-0.1-0.1c0,0,0,0,0,0V179.8z M277,184c0-0.1,0-0.1,0.1-0.1c0,0,0,0,0,0h7.9c0.1,0,0.1,0.1,0.1,0.1c0,0,0,0,0,0v1.9
	c0,0.1,0,0.1-0.1,0.1c0,0,0,0,0,0h-7.9c-0.1,0-0.1,0-0.1-0.1c0,0,0,0,0,0V184z"/>
<path d="M328,185.9V184c0-0.1,0-0.1,0.1-0.1c0,0,0,0,0,0h2.5l0.8-2.1h-3.3c-0.1,0-0.1-0.1-0.1-0.1c0,0,0,0,0,0v-1.9
	c0-0.1,0.1-0.1,0.1-0.1h4.1l0.8-2c0-0.1,0.1-0.1,0.1-0.1l1.6,0.6c0.1,0,0.1,0.1,0.1,0.1c0,0,0,0,0,0l-0.5,1.3h1.7
	c0.1,0,0.1,0,0.1,0.1c0,0,0,0,0,0v1.9c0,0.1,0,0.1-0.1,0.1c0,0,0,0,0,0h-2.5l-0.8,2.1h3.3c0.1,0,0.1,0,0.1,0.1c0,0,0,0,0,0v1.9
	c0,0.1,0,0.1-0.1,0.1c0,0,0,0,0,0h-4.1l-0.8,2c0,0-0.1,0.1-0.1,0l-1.6-0.6c-0.1,0-0.1-0.1-0.1-0.1c0,0,0,0,0,0l0.5-1.3h-1.7
	C328.1,186,328,186,328,185.9z"/>
<path d="M383.8,179.2c0.4,0,0.8,0.1,1.2,0.4l1.3,0.8c0.2,0.2,0.6,0.3,0.9,0.3c0.6-0.2,0.9-0.8,0.9-1.4c0-0.1,0-0.1,0.1-0.1h1.2
	c0.1,0,0.1,0.1,0.1,0.1c0,0,0,0,0,0c0,1.5-0.5,3.4-2.4,3.4c-0.4,0-0.8-0.1-1.2-0.4l-1.3-0.9c-0.3-0.2-0.6-0.3-0.9-0.2
	c-0.4,0-0.9,0.5-0.9,1.4c0,0.1,0,0.1-0.1,0.1c0,0,0,0,0,0h-1.2c-0.1,0-0.1-0.1-0.1-0.1c0,0,0,0,0,0
	C381.4,181.1,381.9,179.2,383.8,179.2z M381.4,186.7c0-1.5,0.5-3.4,2.4-3.4c0.4,0,0.8,0.1,1.2,0.4l1.3,0.9c0.3,0.2,0.6,0.3,0.9,0.2
	c0.4,0,0.9-0.5,0.9-1.4c0-0.1,0-0.1,0.1-0.1h1.2c0.1,0,0.1,0.1,0.1,0.1c0,0,0,0,0,0c0,1.5-0.5,3.4-2.4,3.4c-0.4,0-0.8-0.1-1.2-0.4
	l-1.3-0.9c-0.3-0.2-0.6-0.3-0.9-0.2c-0.4,0-0.9,0.5-0.9,1.4c0,0.1,0,0.1-0.1,0.1c0,0,0,0,0,0h-1.2
	C381.4,186.8,381.4,186.8,381.4,186.7C381.4,186.7,381.4,186.7,381.4,186.7z"/>
<path d="M434.6,183.8v-1.9c0-0.1,0-0.1,0.1-0.1c0,0,0,0,0,0h7.9c0.1,0,0.1,0,0.1,0.1c0,0,0,0,0,0v4c0,0.1-0.1,0.1-0.1,0.1
	c0,0,0,0,0,0h-1.9c-0.1,0-0.1,0-0.1-0.1c0,0,0,0,0,0v-2h-5.9C434.7,183.9,434.6,183.8,434.6,183.8z"/>
<path d="M487.4,191.9c0.6,0,1-0.2,1-1v-15.3c0-2.5,1.2-3,3.2-3h0.4c0.1,0,0.1,0,0.1,0.1c0,0,0,0,0,0v1.9c0,0.1,0,0.1-0.1,0.1h-0.4
	c-0.7,0-1.1,0.2-1.1,1V191c0,2.4-1.2,3-3.1,3c-0.1,0-0.1-0.1-0.1-0.1c0,0,0,0,0,0V192C487.3,192,487.4,191.9,487.4,191.9z"/>
<path d="M533,182.9L533,182.9c0-2,1.6-3.5,3.5-3.5l0,0c1-0.1,2.1,0.3,2.8,1c0.3,0.2,0.9,0.7,1.4,1.1c0.4-0.4,0.9-0.7,1.3-1.1
	c0.8-0.7,1.8-1.1,2.8-1h0.1c1.9,0,3.5,1.5,3.5,3.4c0,0,0,0,0,0v0.1c0,1.4-0.8,2.6-2.1,3.1c-0.4,0.2-0.9,0.3-1.4,0.3h-0.1
	c-1,0.1-2-0.3-2.8-1c-0.3-0.2-1-0.8-1.4-1.1c-0.5,0.4-1.1,0.9-1.3,1.1c-0.8,0.7-1.8,1.1-2.8,1l0,0c-0.5,0-0.9-0.1-1.4-0.3
	C533.8,185.6,533,184.3,533,182.9z M535.1,182.9c0,0.7,0.5,1.3,1.2,1.3c0,0,0.1,0,0.1,0c1-0.2,1.8-0.6,2.5-1.3
	c-0.7-0.7-1.6-1.2-2.5-1.3c-0.7-0.1-1.3,0.5-1.4,1.2C535.1,182.8,535.1,182.9,535.1,182.9L535.1,182.9z M542.4,182.9
	c0.7,0.7,1.6,1.2,2.6,1.3c0.7,0,1.3-0.6,1.3-1.3s-0.6-1.3-1.3-1.3c0,0,0,0,0,0C544,181.7,543.1,182.2,542.4,182.9L542.4,182.9z"/>
<path d="M588.6,177.8l1.7-0.9l-1.7-0.8c-0.4-0.2-0.5-0.6-0.4-1c0,0,0-0.1,0.1-0.1c0.1-0.2,0.4-0.4,0.6-0.4c0.2,0,0.3,0,0.4,0.1
	l1.6,1l-0.1-2.3c-0.1-0.4,0.2-0.7,0.6-0.8c0.1,0,0.1,0,0.2,0l0,0c0.4,0,0.7,0.3,0.8,0.6c0,0.1,0,0.1,0,0.2l-0.1,2.3l1.6-1
	c0.1-0.1,0.3-0.1,0.4-0.1c0.3,0,0.5,0.2,0.6,0.4c0.2,0.3,0.1,0.8-0.2,1c0,0-0.1,0-0.1,0.1l-1.7,0.8l1.7,0.9c0.4,0.1,0.5,0.6,0.4,0.9
	c0,0.1,0,0.1-0.1,0.1c-0.1,0.2-0.3,0.4-0.6,0.4c-0.2,0-0.3,0-0.5-0.1l-1.6-1l0.1,2.3c0,0.4-0.3,0.8-0.7,0.9c-0.4,0-0.8-0.3-0.9-0.7
	c0-0.1,0-0.1,0-0.2l0.1-2.3l-1.6,1c-0.1,0.1-0.3,0.1-0.4,0.1c-0.3,0-0.5-0.2-0.6-0.4c-0.2-0.3-0.2-0.7,0.1-0.9
	C588.5,177.9,588.5,177.8,588.6,177.8z"/>
<path d="M637.5,189l8.8-16.5c0-0.1,0.1-0.1,0.2-0.1l1.3,0.7c0,0,0.1,0.1,0,0.1l-8.8,16.5c0,0-0.1,0.1-0.1,0.1c0,0,0,0,0,0l-1.3-0.7
	C637.4,189.2,637.4,189.1,637.5,189z"/>
<path d="M24.1,225.8h4.3c2.2,0,3.2,0.7,3.2,3v9.8h-2v-1.1c-0.4,0.7-1.1,1.2-1.9,1.3c-1.4,0-2.5-1.1-2.5-2.4v-4
	c0-1.3,1.1-2.4,2.5-2.4c0.7,0,1.3,0.3,1.8,0.8v-1.8c0-0.8-0.4-1-1.1-1h-4.3c-0.7,0-1.1,0.2-1.1,1v8c0,0.6,0.2,1.2,0.6,1.6
	c0.1,0,0.1,0.1,0,0.1h-1.9c-0.1,0-0.1,0-0.2-0.1c-0.5-0.4-0.8-1.1-0.7-1.8v-8C20.8,226.5,21.9,225.8,24.1,225.8z M27.3,233.2v2.2
	c0,0.6,0.5,1.1,1.1,1.1s1.1-0.5,1.1-1.1c0,0,0,0,0,0v-2.2c0-0.6-0.5-1.1-1.1-1.1S27.3,232.6,27.3,233.2
	C27.3,233.2,27.3,233.2,27.3,233.2z"/>
<path d="M72,234.2h1.8l0.4-4h-1.6c-0.1,0-0.1-0.1-0.1-0.1v-1.6c0-0.1,0-0.1,0.1-0.1c0,0,0,0,0,0h1.8l0.4-4.6c0-0.1,0-0.1,0.1-0.1
	c0,0,0,0,0,0h1.9c0.1,0,0.1,0.1,0.1,0.1c0,0,0,0,0,0l-0.4,4.6h2.3l0.4-4.6c0-0.1,0-0.1,0.1-0.1c0,0,0,0,0,0h1.9c0.1,0,0.1,0,0.1,0.1
	c0,0,0,0,0,0l-0.4,4.6h1.4c0.1,0,0.1,0.1,0.1,0.1c0,0,0,0,0,0v1.6c0,0.1-0.1,0.1-0.1,0.1h-1.6l-0.3,4h1.4c0.1,0,0.1,0,0.1,0.1
	c0,0,0,0,0,0v1.6c0,0.1-0.1,0.1-0.1,0.1c0,0,0,0,0,0h-1.6l-0.4,4.6c0,0.1-0.1,0.1-0.1,0.1c0,0,0,0,0,0h-1.9c-0.1,0-0.1-0.1-0.1-0.1
	l0.4-4.6h-2.3l-0.4,4.6c0,0.1-0.1,0.1-0.2,0.1h-1.9c-0.1,0-0.1,0-0.1-0.1l0.4-4.6H72c-0.1,0-0.1,0-0.1-0.1c0,0,0,0,0,0v-1.6
	C71.9,234.3,71.9,234.2,72,234.2C72,234.2,72,234.2,72,234.2z M75.9,234.2h2.3l0.3-4h-2.2L75.9,234.2z"/>
<path d="M124.4,235.3c0-1.9,0.2-3.1,1.3-3.8c-0.3-0.3-0.5-0.6-0.7-1c-0.2-0.6-0.4-1.3-0.3-2v-1.4c-0.1-1.8,1.4-3.4,3.2-3.5
	c0,0,0,0,0,0h1.6c0.1,0,0.1,0,0.1,0.1c0,0,0,0,0,0v1.9c0,0.1-0.1,0.1-0.1,0.1c0,0,0,0,0,0h-1.6c-0.8,0-1.1,0.6-1.1,1.5v1
	c0,1.6,0.8,2.5,1.5,2.5h4.4c0.1,0,0.1,0.1,0.1,0.1c0,0,0,0,0,0v1.9c0,0.1-0.1,0.1-0.1,0.1h-1.4v7.7c0,0.1-0.1,0.1-0.1,0.1
	c0,0,0,0,0,0h-3.3c-1.9,0-3.5-1.6-3.5-3.5V235.3z M126.6,234.4v2.8c-0.1,0.7,0.4,1.4,1.2,1.4c0.1,0,0.1,0,0.2,0h1.3v-5.7h-1.3
	c-0.4,0-0.7,0.1-1,0.4C126.7,233.6,126.5,234,126.6,234.4L126.6,234.4z"/>
<path d="M176.7,230.6c-0.3-0.3-0.6-0.6-0.7-1c-0.3-0.6-0.4-1.3-0.3-2l0,0V227c-0.1-1.8,1.2-3.3,3-3.5c1.8-0.1,3.3,1.2,3.5,3
	c0,0.1,0,0.2,0,0.4v1.2c0,0.1-0.1,0.1-0.1,0.1h-1.9c-0.1,0-0.1-0.1-0.1-0.1v-0.9c0-1-0.3-1.6-1.1-1.6s-1.1,0.6-1.1,1.6v0.2
	c0,1.6,0.8,2.5,1.5,2.5h0.4c0.1,0,0.1,0.1,0.1,0.1v1.9c0,0.1,0,0.1-0.1,0.1c0,0,0,0,0,0h-0.9c-0.7,0-1.3,0.5-1.3,1.3
	c0,0.1,0,0.1,0,0.2v3.8c-0.1,0.7,0.4,1.4,1.2,1.5c0.1,0,0.1,0,0.2,0c0.7,0,1.3-0.6,1.3-1.3c0-0.1,0-0.1,0-0.2v-3.9
	c0-0.1,0.1-0.1,0.1-0.1h3.4c0.1,0,0.1,0.1,0.1,0.1v1.9c0,0.1,0,0.1-0.1,0.1h-1.4v1.8c0.1,1.9-1.5,3.6-3.4,3.6c0,0,0,0,0,0
	c-1.9,0-3.5-1.6-3.5-3.6v-3C175.4,232.6,175.6,231.3,176.7,230.6z"/>
<path d="M226.6,237.4v-1c0-0.1,0-0.1,0.1-0.1c0,0,0,0,0,0h1.9c0.1,0,0.1,0,0.1,0.1v1.1c-0.1,0.7,0.5,1.4,1.2,1.4c0,0,0.1,0,0.1,0
	c0.7,0,1.3-0.5,1.3-1.3c0-0.1,0-0.1,0-0.2c0,0,0-0.9,0-1.2c0-0.6-0.2-1.2-0.6-1.7l-1.8-2.3c0,0-1-1.1-1.4-1.7c-0.7-0.8-1-1.8-1-2.8
	v-0.8c0-1.5,1-2.9,2.5-3.4v-1.1h1.9v1.1c1.5,0.5,2.5,1.9,2.5,3.5v1c0,0.1-0.1,0.1-0.1,0.1h-1.9c-0.1,0-0.1,0-0.1-0.1v-1
	c0.1-0.7-0.4-1.3-1.1-1.4c-0.1,0-0.1,0-0.2,0c-0.7,0-1.3,0.5-1.3,1.3c0,0.1,0,0.1,0,0.2v0.5c0.1,0.8,0.4,1.6,0.9,2.3l1.4,1.7
	c0.5,0.5,0.9,1.1,1.3,1.7c0.8,1,1.1,2.2,1,3.4v0.8c0,1.5-1,2.9-2.5,3.4v1h-1.9v-1C227.6,240.3,226.6,238.9,226.6,237.4z"/>
<path d="M276.9,231.3v-1.6c0-0.1,0.1-0.1,0.1-0.1c0,0,0,0,0,0h1v-2.3c-0.2-2,1.3-3.7,3.2-3.9c2-0.2,3.7,1.3,3.9,3.2
	c0,0.2,0,0.3,0,0.5v1.1c0,0.1,0,0.1-0.1,0.1h-1.9c-0.1,0-0.1,0-0.1-0.1v-1c0-1.1-0.6-1.7-1.4-1.7s-1.4,0.6-1.4,1.7v2.3h2.2
	c0.1,0,0.1,0,0.1,0.1v1.6c0,0.1,0,0.1-0.1,0.1c0,0,0,0,0,0h-2.2v1.4h2.2c0.1,0,0.1,0,0.1,0.1c0,0,0,0,0,0v1.6c0,0.1,0,0.1-0.1,0.1
	c0,0,0,0,0,0h-2.2v2.3c0,1.1,0.5,1.7,1.4,1.7s1.4-0.6,1.4-1.7v-1c0-0.1,0-0.1,0.1-0.1h1.9c0.1,0,0.1,0,0.1,0.1v1.1
	c0.1,2-1.4,3.7-3.4,3.8s-3.7-1.4-3.8-3.4c0-0.2,0-0.4,0-0.5v-2.3h-1c-0.1,0-0.1-0.1-0.1-0.1c0,0,0,0,0,0V233c0-0.1,0-0.1,0.1-0.1
	c0,0,0,0,0,0h1v-1.4h-1C276.9,231.4,276.9,231.4,276.9,231.3z"/>
<path d="M327.8,231.4c0-0.1,0-0.1,0.1-0.1c0,0,0,0,0,0h1v-4.3c0-1.9,1.6-3.5,3.5-3.5c1.9,0,3.4,1.6,3.4,3.5c0,0,0,0,0,0.1v1
	c0,0.1,0,0.1-0.1,0.1h-1.9c-0.1,0-0.1-0.1-0.1-0.1c0,0,0,0,0,0v-1c0.1-0.7-0.4-1.3-1.1-1.4c0,0-0.1,0-0.1,0c-0.7,0-1.3,0.5-1.4,1.2
	c0,0.1,0,0.1,0,0.2v4.2h1.9c0.1,0,0.1,0,0.1,0.1c0,0,0,0,0,0v1.7c0,0.1,0,0.1-0.1,0.1c0,0,0,0,0,0H331v2.9c0,1.5-0.4,2.2-1.2,2.6
	h6.4c0.1,0,0.1,0,0.1,0.1c0,0,0,0,0,0v1.9c0,0.1-0.1,0.1-0.1,0.1c0,0,0,0,0,0h-8.3c-0.1,0-0.1-0.1-0.1-0.1v-1.8c0-0.1,0-0.1,0.1-0.1
	c0,0,0,0,0,0c0.6,0,1-0.2,1-1v-4.6h-1c-0.1,0-0.1-0.1-0.1-0.1c0,0,0,0,0,0L327.8,231.4z"/>
<path d="M381.1,231.3v-1.6c0-0.1,0-0.1,0.1-0.1h1v-2.6c0-1.9,1.6-3.5,3.5-3.5c1.9,0.1,3.4,1.7,3.3,3.6v1c0,0.1,0,0.1-0.1,0.1H387
	c-0.1,0-0.1-0.1-0.1-0.1c0,0,0,0,0,0v-1c0.1-0.7-0.4-1.3-1.1-1.4c0,0-0.1,0-0.1,0c-0.7,0-1.3,0.5-1.3,1.3c0,0.1,0,0.1,0,0.2v2.6h1.9
	c0.1,0,0.1,0,0.1,0.1v1.6c0,0.1,0,0.1-0.1,0.1c0,0,0,0,0,0h-1.9v1.4h1.9c0.1,0,0.1,0,0.1,0.1c0,0,0,0,0,0v1.6c0,0.1,0,0.1-0.1,0.1
	c0,0,0,0,0,0h-1.9v1.2c0,1.5-0.4,2.2-1.2,2.6h6.4c0.1,0,0.1,0.1,0.1,0.1c0,0,0,0,0,0v1.9c0,0.1-0.1,0.1-0.1,0.1h-8.3
	c-0.1,0-0.1,0-0.1-0.1c0,0,0,0,0,0v-1.8c0-0.1,0-0.1,0.1-0.1c0,0,0,0,0,0c0.6,0,1-0.2,1-1v-3h-1c-0.1,0-0.1,0-0.1-0.1c0,0,0,0,0,0
	V233c0-0.1,0-0.1,0.1-0.1c0,0,0,0,0,0h1v-1.4h-1C381.1,231.4,381.1,231.4,381.1,231.3C381.1,231.3,381.1,231.3,381.1,231.3z"/>
<path d="M434.5,223.6h2c0.1,0,0.1,0.1,0.2,0.1l2,6.8l2-6.8c0-0.1,0.1-0.1,0.2-0.1h2c0.1,0,0.1,0.1,0.1,0.1l-2.4,7.5h0.9
	c0.1,0,0.1,0,0.1,0.1v1.6c0,0.1-0.1,0.1-0.1,0.1c0,0,0,0,0,0h-1.5l-0.1,0.4v1h1.7c0.1,0,0.1,0,0.1,0.1c0,0,0,0,0,0v1.6
	c0,0.1-0.1,0.1-0.1,0.1c0,0,0,0,0,0h-1.7v4.2c0,0.1-0.1,0.1-0.1,0.1c0,0,0,0,0,0h-1.9c-0.1,0-0.1-0.1-0.1-0.1v-4.2h-1.7
	c-0.1,0-0.1,0-0.1-0.1c0,0,0,0,0,0v-1.6c0-0.1,0.1-0.1,0.1-0.1c0,0,0,0,0,0h1.7v-1l-0.1-0.4h-1.5c-0.1,0-0.1,0-0.1-0.1c0,0,0,0,0,0
	v-1.6c0-0.1,0-0.1,0.1-0.1h0.9l-2.4-7.5C434.4,223.7,434.4,223.6,434.5,223.6z"/>
<path d="M485.8,234.6h1v-10.8c0-0.1,0-0.1,0.1-0.1c0,0,0,0,0,0h6.2c0.1,0,0.1,0,0.1,0.1c0,0,0,0,0,0v1.9c0,0.1-0.1,0.1-0.1,0.1
	c0,0,0,0,0,0H489v5.3h3.6c0.1,0,0.1,0.1,0.1,0.1c0,0,0,0,0,0v1.9c0,0.1,0,0.1-0.1,0.1H489v1.3h1.7c0.1,0,0.1,0,0.1,0.1c0,0,0,0,0,0
	v1.6c0,0.1-0.1,0.1-0.1,0.1c0,0,0,0,0,0H489v4.2c0,0.1-0.1,0.1-0.1,0.1c0,0,0,0,0,0H487c-0.1,0-0.1-0.1-0.1-0.1v-4.2h-1
	c-0.1,0-0.1-0.1-0.1-0.1v-1.6C485.7,234.7,485.7,234.6,485.8,234.6C485.8,234.6,485.8,234.6,485.8,234.6z"/>
<path d="M536.8,229.7l1.1-1.1c0,0,0.1,0,0.2,0c0,0,0,0,0,0l0.7,0.7c0.6-0.3,1.2-0.5,1.9-0.5c0.7,0,1.3,0.2,1.9,0.5l0.8-0.8
	c0.1,0,0.1,0,0.2,0l1,1.1c0.1,0,0.1,0.1,0,0.2l-0.8,0.8c0.7,1.1,0.7,2.6,0,3.7l0.8,0.8c0.1,0.1,0.1,0.1,0,0.2l-1,1.1
	c-0.1,0-0.1,0-0.2,0l-0.8-0.8c-0.6,0.3-1.2,0.5-1.9,0.5c-0.7,0-1.3-0.2-1.9-0.5l-0.7,0.7c0,0-0.1,0-0.2,0c0,0,0,0,0,0l-1.1-1.1
	c0-0.1,0-0.1,0-0.2l0.7-0.7c-0.7-1.2-0.7-2.6,0-3.8l-0.7-0.7C536.7,229.8,536.7,229.8,536.8,229.7z M539.2,233.9
	c0.4,0.4,0.9,0.6,1.4,0.6c1.1,0,1.9-0.8,2-1.9c0-0.5-0.2-1-0.6-1.4c-0.4-0.4-0.9-0.6-1.4-0.6c-1.1,0.1-1.9,1-1.9,2.1
	C538.8,233.1,538.9,233.5,539.2,233.9z"/>
<path d="M587.6,227.9h2.9v-4.1c0-0.1,0.1-0.1,0.1-0.1l0,0h1.9c0.1,0,0.1,0.1,0.1,0.1c0,0,0,0,0,0v4.1h2.9c0.1,0,0.1,0,0.1,0.1
	c0,0,0,0,0,0v1.9c0,0.1-0.1,0.1-0.1,0.1c0,0,0,0,0,0h-2.9v14.9c0,0.1-0.1,0.1-0.1,0.1c0,0,0,0,0,0h-1.9c-0.1,0-0.1,0-0.1-0.1
	c0,0,0,0,0,0v-14.9h-2.9c-0.1,0-0.1,0-0.1-0.1c0,0,0,0,0,0v-1.9C587.5,228,587.6,227.9,587.6,227.9
	C587.6,227.9,587.6,227.9,587.6,227.9z"/>
<path d="M638.5,238.8c0-0.1,0-0.1,0.1-0.1c0,0,0,0,0,0h2.9v-8.6h-2.9c-0.1,0-0.1,0-0.1-0.1c0,0,0,0,0,0v-1.9c0-0.1,0-0.1,0.1-0.1
	c0,0,0,0,0,0h2.9v-4.1c0-0.1,0-0.1,0.1-0.1c0,0,0,0,0,0h1.9c0.1,0,0.1,0.1,0.1,0.1c0,0,0,0,0,0v4.1h2.9c0.1,0,0.1,0.1,0.1,0.1
	c0,0,0,0,0,0v1.9c0,0.1-0.1,0.1-0.1,0.1h-2.9v8.6h2.9c0.1,0,0.1,0.1,0.1,0.1c0,0,0,0,0,0v1.9c0,0.1-0.1,0.1-0.1,0.1h-2.9v4.2
	c0,0.1-0.1,0.1-0.1,0.1h-1.9c-0.1,0-0.1,0-0.1-0.1c0,0,0,0,0,0v-4.2h-2.9c-0.1,0-0.1,0-0.1-0.1c0,0,0,0,0,0V238.8z"/>
<path d="M21.4,291.5c0-0.1,0.1-0.1,0.1-0.1h1.9c0.1,0,0.1,0,0.1,0.1c0,0,0,0,0,0v1.1c-0.1,0.7,0.5,1.4,1.2,1.5
	c0.7,0.1,1.4-0.5,1.5-1.2c0-0.1,0-0.2,0-0.2c0,0,0-0.9,0-1.1c0-0.6-0.2-1.3-0.6-1.8l-3.1-3.9c-0.7-0.8-1.1-1.8-1-2.8v-0.8
	c0-1.4,0.8-2.6,2.1-3.2c0-0.1,0-1.1,0-1.1c0-1.9,1.6-3.5,3.5-3.5c1.9,0,3.4,1.6,3.4,3.5c0,0,0,0,0,0.1v1c0,0.1-0.1,0.1-0.1,0.1h-1.9
	c-0.1,0-0.1,0-0.1-0.1c0,0,0,0,0,0v-1c0.1-0.7-0.4-1.3-1.1-1.4c-0.1,0-0.1,0-0.2,0c-0.7,0-1.3,0.5-1.4,1.3c0,0.1,0,0.1,0,0.2v0.5
	c0.1,0.8,0.4,1.6,1,2.2c0,0,3.1,3.8,3.3,4c0.7,0.8,1.1,1.8,1,2.8v0.8c0,1.6-1.1,2.9-2.6,3.4v0.9c0.1,1.9-1.4,3.5-3.3,3.6
	c-1.9,0.1-3.5-1.4-3.6-3.3c0-0.1,0-0.2,0-0.4L21.4,291.5z M24.6,285c1.1,1.3,2.2,2.7,3.3,4c0.1,0.2,0.2,0.4,0.3,0.5
	c0.4-0.3,0.6-0.7,0.6-1.2v-0.5c-0.1-0.8-0.4-1.6-1-2.2c0,0-2-2.5-2.5-3c-0.4-0.5-0.8-1-1.1-1.5c-0.4,0.3-0.6,0.7-0.6,1.2v0.5
	C23.7,283.6,24.1,284.4,24.6,285z"/>
<path d="M71.9,281.1v-2.3c0-2.6,1.5-4.2,4-4.2h6.4c0,0,0.1,0,0.1,0.1v21.1c0,0.1-0.1,0.1-0.1,0.1h-1.9c-0.1,0-0.1,0-0.1-0.1
	c0,0,0,0,0,0v-19.1h-2.1v19.1c0,0.1-0.1,0.1-0.1,0.1h-1.9c-0.1,0-0.1,0-0.1-0.1c0,0,0,0,0,0v-10.6C73.4,285.3,71.9,283.8,71.9,281.1
	z M74,278.9v2.1c0,1.4,0.5,2.2,1.9,2.2v-6.4C74.5,276.8,74,277.5,74,278.9z"/>
<path d="M126.3,274.6h7.6c0.1,0,0.1,0.1,0.1,0.1c0,0,0,0,0,0v16.9c0,0.1,0,0.1-0.1,0.1c0,0,0,0,0,0h-7.4c-2.7,0-4.3-1.4-4.3-4.4
	v-8.5C122.3,276.2,123.7,274.6,126.3,274.6z M124.4,278.9v8.5c0,1.5,0.6,2.2,2,2.2h1.3v-12.8h-1.3
	C124.8,276.8,124.4,277.5,124.4,278.9z M129.8,276.8v12.8h2.1v-12.8H129.8z"/>
<path d="M177.1,281.6h6.2c0.1,0,0.1,0.1,0.1,0.1v6.2c0,0.1,0,0.1-0.1,0.1c0,0,0,0,0,0h-6.2c-0.1,0-0.1-0.1-0.1-0.1c0,0,0,0,0,0v-6.2
	C177,281.6,177.1,281.6,177.1,281.6L177.1,281.6z"/>
</svg>
