<?xml version="1.0" encoding="utf-8"?>
<!-- Generator: Adobe Illustrator 22.1.0, SVG Export Plug-In . SVG Version: 6.00 Build 0)  -->
<svg version="1.1" id="Layer_1" xmlns="http://www.w3.org/2000/svg" xmlns:xlink="http://www.w3.org/1999/xlink" x="0px" y="0px"
	 viewBox="0 0 668.7 103.2" style="enable-background:new 0 0 668.7 103.2;" xml:space="preserve">
<style type="text/css">
	.st0{fill:none;stroke:#CCCCCC;stroke-width:1.25;stroke-miterlimit:10;}
</style>
<title>Asset 13</title>
<g id="_x37_786837f-e967-4c13-9a57-9c142ada73db">
	<g id="_x33_84ddd05-d6a0-414c-8d63-0bdda3c5060b">
		<line class="st0" x1="0.2" y1="0.6" x2="51.6" y2="0.6"/>
		<line class="st0" x1="0.6" y1="51.2" x2="0.6" y2="1.1"/>
		<line class="st0" x1="51.6" y1="0.6" x2="102.6" y2="0.6"/>
		<line class="st0" x1="51.6" y1="51.2" x2="51.6" y2="1.1"/>
		<line class="st0" x1="102.6" y1="0.6" x2="153.6" y2="0.6"/>
		<line class="st0" x1="102.6" y1="51.2" x2="102.6" y2="1.1"/>
		<line class="st0" x1="153.6" y1="0.6" x2="204.6" y2="0.6"/>
		<line class="st0" x1="153.6" y1="51.2" x2="153.6" y2="1.1"/>
		<line class="st0" x1="204.6" y1="0.6" x2="255.5" y2="0.6"/>
		<line class="st0" x1="204.6" y1="51.2" x2="204.6" y2="1.1"/>
		<line class="st0" x1="255.5" y1="0.6" x2="306.5" y2="0.6"/>
		<line class="st0" x1="255.5" y1="51.2" x2="255.5" y2="1.1"/>
		<line class="st0" x1="306.5" y1="0.6" x2="357.5" y2="0.6"/>
		<line class="st0" x1="306.5" y1="51.2" x2="306.5" y2="1.1"/>
		<line class="st0" x1="357.5" y1="0.6" x2="413.1" y2="0.6"/>
		<line class="st0" x1="357.5" y1="51.2" x2="357.5" y2="1.1"/>
		<line class="st0" x1="413.1" y1="0.6" x2="464.1" y2="0.6"/>
		<line class="st0" x1="413.1" y1="51.2" x2="413.1" y2="1.1"/>
		<line class="st0" x1="464.1" y1="0.6" x2="515.1" y2="0.6"/>
		<line class="st0" x1="464.1" y1="51.2" x2="464.1" y2="1.1"/>
		<line class="st0" x1="515.1" y1="0.6" x2="566.1" y2="0.6"/>
		<line class="st0" x1="515.1" y1="51.2" x2="515.1" y2="1.1"/>
		<line class="st0" x1="566.1" y1="0.6" x2="617" y2="0.6"/>
		<line class="st0" x1="566.1" y1="51.2" x2="566.1" y2="1.1"/>
		<line class="st0" x1="617" y1="0.6" x2="668.5" y2="0.6"/>
		<line class="st0" x1="617" y1="51.2" x2="617" y2="1.1"/>
		<line class="st0" x1="668" y1="51.2" x2="668" y2="1.1"/>
		<line class="st0" x1="0.2" y1="51.6" x2="51.6" y2="51.6"/>
		<line class="st0" x1="0.6" y1="102.1" x2="0.6" y2="52.1"/>
		<line class="st0" x1="51.6" y1="51.6" x2="102.6" y2="51.6"/>
		<line class="st0" x1="51.6" y1="102.1" x2="51.6" y2="52.1"/>
		<line class="st0" x1="102.6" y1="51.6" x2="153.6" y2="51.6"/>
		<line class="st0" x1="102.6" y1="102.1" x2="102.6" y2="52.1"/>
		<line class="st0" x1="153.6" y1="51.6" x2="204.6" y2="51.6"/>
		<line class="st0" x1="153.6" y1="102.1" x2="153.6" y2="52.1"/>
		<line class="st0" x1="204.6" y1="51.6" x2="255.5" y2="51.6"/>
		<line class="st0" x1="204.6" y1="102.1" x2="204.6" y2="52.1"/>
		<line class="st0" x1="255.5" y1="51.6" x2="306.5" y2="51.6"/>
		<line class="st0" x1="255.5" y1="102.1" x2="255.5" y2="52.1"/>
		<line class="st0" x1="306.5" y1="51.6" x2="357.5" y2="51.6"/>
		<line class="st0" x1="306.5" y1="102.1" x2="306.5" y2="52.1"/>
		<line class="st0" x1="357.5" y1="51.6" x2="413.1" y2="51.6"/>
		<line class="st0" x1="357.5" y1="102.1" x2="357.5" y2="52.1"/>
		<line class="st0" x1="413.1" y1="51.6" x2="464.1" y2="51.6"/>
		<line class="st0" x1="413.1" y1="102.1" x2="413.1" y2="52.1"/>
		<line class="st0" x1="464.1" y1="51.6" x2="515.1" y2="51.6"/>
		<line class="st0" x1="464.1" y1="102.1" x2="464.1" y2="52.1"/>
		<line class="st0" x1="515.1" y1="51.6" x2="566.1" y2="51.6"/>
		<line class="st0" x1="515.1" y1="102.1" x2="515.1" y2="52.1"/>
		<line class="st0" x1="566.1" y1="51.6" x2="617" y2="51.6"/>
		<line class="st0" x1="566.1" y1="102.1" x2="566.1" y2="52.1"/>
		<line class="st0" x1="617" y1="51.6" x2="668.5" y2="51.6"/>
		<line class="st0" x1="617" y1="102.1" x2="617" y2="52.1"/>
		<line class="st0" x1="668" y1="102.1" x2="668" y2="52.1"/>
		<line class="st0" x1="0.2" y1="102.6" x2="51.6" y2="102.6"/>
		<line class="st0" x1="51.6" y1="102.6" x2="102.6" y2="102.6"/>
		<line class="st0" x1="102.6" y1="102.6" x2="153.6" y2="102.6"/>
		<line class="st0" x1="153.6" y1="102.6" x2="204.6" y2="102.6"/>
		<line class="st0" x1="204.6" y1="102.6" x2="255.5" y2="102.6"/>
		<line class="st0" x1="255.5" y1="102.6" x2="306.5" y2="102.6"/>
		<line class="st0" x1="306.5" y1="102.6" x2="357.5" y2="102.6"/>
		<line class="st0" x1="357.5" y1="102.6" x2="413.1" y2="102.6"/>
		<line class="st0" x1="413.1" y1="102.6" x2="464.1" y2="102.6"/>
		<line class="st0" x1="464.1" y1="102.6" x2="515.1" y2="102.6"/>
		<line class="st0" x1="515.1" y1="102.6" x2="566.1" y2="102.6"/>
		<line class="st0" x1="566.1" y1="102.6" x2="617" y2="102.6"/>
		<line class="st0" x1="617" y1="102.6" x2="668.5" y2="102.6"/>
		<path d="M21.5,36.7L25,19.8c0-0.1,0.1-0.1,0.1-0.1H27c0.1,0,0.1,0,0.1,0.1l3.5,16.9c0,0.1,0,0.1-0.1,0.1h-1.9
			c-0.1,0-0.1-0.1-0.1-0.1c0,0,0,0,0,0l-0.7-3.6h-3.5l-0.7,3.6c0,0.1-0.1,0.1-0.1,0.1c0,0,0,0,0,0h-1.9
			C21.6,36.8,21.5,36.8,21.5,36.7z M27.5,30.9L26.1,24l-1.3,6.9L27.5,30.9z"/>
		<path d="M73.3,19.8c0-0.1,0.1-0.1,0.1-0.1c0,0,0,0,0,0h3.3c2.6,0,4.1,1.6,4.1,4.2v0.6c0.1,1.4-0.5,2.7-1.6,3.5
			c1.1,0.8,1.7,2.2,1.6,3.5v1.1c0,2.6-1.5,4.2-4.1,4.2h-3.3c-0.1,0-0.1,0-0.1-0.1c0,0,0,0,0,0L73.3,19.8z M75.5,21.8V27h1.3
			c1.5,0,2-0.8,2-2.2V24c0-1.4-0.5-2.2-2-2.2L75.5,21.8z M76.8,34.7c1.5,0,2-0.8,2-2.2v-1.3c0-1.4-0.5-2.2-2-2.2h-1.3v5.7L76.8,34.7
			z"/>
		<path d="M128.3,19.5c2,0.1,3.6,1.8,3.6,3.8v1c0,0.1,0,0.1-0.1,0.1c0,0,0,0,0,0h-1.9c-0.1,0-0.1-0.1-0.2-0.1v-0.9
			c0-1.1-0.5-1.7-1.4-1.7s-1.4,0.7-1.4,1.7v9.8c0,1.1,0.6,1.7,1.4,1.7c0.9,0,1.4-0.6,1.4-1.7v-1c0-0.1,0.1-0.1,0.2-0.1h1.9
			c0.1,0,0.1,0.1,0.1,0.1v1.1c0.1,2-1.4,3.7-3.4,3.8c-2,0.1-3.7-1.4-3.8-3.4c0-0.2,0-0.4,0-0.5v-9.7
			C124.7,21.3,126.3,19.6,128.3,19.5z"/>
		<path d="M175.3,19.8c0-0.1,0.1-0.1,0.1-0.1c0,0,0,0,0,0h3.3c2.6,0,4.1,1.6,4.1,4.2v8.5c0,3-1.6,4.4-4.3,4.4h-3.1
			c-0.1,0-0.1,0-0.1-0.1c0,0,0,0,0,0V19.8z M177.5,34.7h1.3c1.4,0,1.9-0.7,1.9-2.2V24c0-1.4-0.5-2.2-1.9-2.2h-1.3V34.7z"/>
		<path d="M227.2,36.7V19.8c0-0.1,0.1-0.1,0.1-0.1c0,0,0,0,0,0h6.2c0.1,0,0.1,0,0.1,0.1c0,0,0,0,0,0v1.9c0,0.1,0,0.1-0.1,0.1
			c0,0,0,0,0,0h-4.1v5.3h3.6c0.1,0,0.1,0.1,0.1,0.1v1.9c0,0.1-0.1,0.1-0.1,0.1h-3.6v5.4h4.1c0.1,0,0.1,0,0.1,0.1c0,0,0,0,0,0v1.9
			c0,0.1,0,0.1-0.1,0.1c0,0,0,0,0,0h-6.2C227.2,36.8,227.2,36.8,227.2,36.7C227.2,36.7,227.2,36.7,227.2,36.7z"/>
		<path d="M278.3,36.7V19.8c0-0.1,0.1-0.1,0.1-0.1h6.2c0.1,0,0.1,0,0.1,0.1c0,0,0,0,0,0v1.9c0,0.1,0,0.1-0.1,0.1c0,0,0,0,0,0h-4.2
			v5.3h3.6c0.1,0,0.1,0.1,0.1,0.1v1.9c0,0.1,0,0.1-0.1,0.1h-3.6v7.4c0,0.1,0,0.1-0.1,0.1c0,0,0,0,0,0h-1.9
			C278.3,36.8,278.3,36.8,278.3,36.7C278.3,36.7,278.3,36.7,278.3,36.7z"/>
		<path d="M328.3,23.9c0-3,1.8-4.4,3.8-4.4s3.8,1.4,3.8,4.4v0.4c0,0.1-0.1,0.1-0.1,0.1c0,0,0,0,0,0h-1.9c-0.1,0-0.1,0-0.1-0.1v-0.9
			c0-0.9-0.7-1.6-1.6-1.6c-0.9,0-1.6,0.7-1.6,1.6v9.8c0,0.9,0.7,1.6,1.6,1.6c0.9,0,1.6-0.7,1.6-1.6v-3.3h-1.4c-0.1,0-0.1,0-0.1-0.1
			v-1.9c0-0.1,0-0.1,0.1-0.1c0,0,0,0,0,0h3.4c0.1,0,0.1,0.1,0.1,0.1c0,0,0,0,0,0v4.8c0,3-1.8,4.4-3.8,4.4s-3.8-1.4-3.8-4.4
			L328.3,23.9z"/>
		<path d="M381.6,36.7V19.8c0-0.1,0.1-0.1,0.1-0.1h1.9c0.1,0,0.1,0,0.1,0.1c0,0,0,0,0,0v7.4h3.2v-7.4c0-0.1,0.1-0.1,0.1-0.1
			c0,0,0,0,0,0h1.9c0.1,0,0.1,0,0.1,0.1v16.9c0,0.1-0.1,0.1-0.1,0.1c0,0,0,0,0,0h-1.9c-0.1,0-0.1,0-0.1-0.1c0,0,0,0,0,0v-7.4h-3.2
			v7.4c0,0.1,0,0.1-0.1,0.1c0,0,0,0,0,0h-1.9C381.6,36.8,381.6,36.8,381.6,36.7C381.6,36.7,381.6,36.7,381.6,36.7z"/>
		<path d="M437.5,36.7V19.8c0-0.1,0.1-0.1,0.1-0.1h1.9c0.1,0,0.1,0,0.1,0.1c0,0,0,0,0,0v16.9c0,0.1,0,0.1-0.1,0.1c0,0,0,0,0,0h-1.9
			C437.6,36.8,437.5,36.8,437.5,36.7C437.5,36.7,437.5,36.7,437.5,36.7z"/>
		<path d="M485.5,35.4l1.5-1.2c0.1,0,0.1,0,0.2,0c0.4,0.4,0.9,0.7,1.5,0.7c0.9,0,1.6-0.7,1.6-1.5c0-0.1,0-0.1,0-0.2V19.8
			c0-0.1,0.1-0.1,0.1-0.1c0,0,0,0,0,0h1.9c0.1,0,0.1,0,0.1,0.1v13.4c0,2.1-1.7,3.7-3.7,3.8c-1.2,0.1-2.4-0.5-3.2-1.5
			C485.4,35.5,485.4,35.4,485.5,35.4z"/>
		<path d="M536.8,19.8c0-0.1,0.1-0.1,0.1-0.1c0,0,0,0,0,0h1.9c0.1,0,0.1,0,0.1,0.1c0,0,0,0,0,0v8.4l4.2-8.5c0-0.1,0.1-0.1,0.2-0.1
			h1.9c0.1,0,0.1,0,0.1,0.1l-3.6,7l3.7,9.9c0,0.1,0,0.1-0.1,0.1h-2c-0.1,0-0.2-0.1-0.2-0.1l-2.7-7.5l-1.5,2.8v4.7
			c0,0.1,0,0.1-0.1,0.1c0,0,0,0,0,0h-1.9c-0.1,0-0.1,0-0.1-0.1c0,0,0,0,0,0V19.8z"/>
		<path d="M589,36.7V19.8c0-0.1,0.1-0.1,0.1-0.1h1.9c0.1,0,0.1,0,0.1,0.1c0,0,0,0,0,0v14.9h3.9c0.1,0,0.1,0,0.1,0.1c0,0,0,0,0,0v1.9
			c0,0.1,0,0.1-0.1,0.1c0,0,0,0,0,0h-5.8C589.1,36.9,589,36.8,589,36.7C589,36.8,589,36.7,589,36.7z"/>
		<path d="M637.2,36.7V19.8c0-0.1,0.1-0.1,0.1-0.1c0,0,0,0,0,0h1.6c0.1,0,0.1,0,0.2,0.1l3.5,9.8l3.4-9.8c0-0.1,0.1-0.1,0.2-0.1h1.6
			c0.1,0,0.1,0.1,0.1,0.1v16.9c0,0.1,0,0.1-0.1,0.1c0,0,0,0,0,0h-1.9c-0.1,0-0.1,0-0.1-0.1c0,0,0,0,0,0V26.1l-2.6,7.4
			c0,0.1-0.1,0.1-0.2,0.1h-0.8c-0.1,0-0.1,0-0.2-0.1l-2.7-7.4v10.6c0,0.1,0,0.1-0.1,0.1c0,0,0,0,0,0h-1.9
			C637.3,36.8,637.2,36.8,637.2,36.7C637.2,36.7,637.2,36.7,637.2,36.7z"/>
		<path d="M22,87.7V70.8c0-0.1,0-0.1,0.1-0.1c0,0,0,0,0,0h1.7c0.1,0,0.1,0.1,0.1,0.1l4.1,10.8V70.8c0-0.1,0-0.1,0.1-0.1c0,0,0,0,0,0
			h1.9c0.1,0,0.1,0,0.1,0.1c0,0,0,0,0,0v16.9c0,0.1-0.1,0.1-0.1,0.1c0,0,0,0,0,0h-1.6c-0.1,0-0.1-0.1-0.1-0.1l-4.1-10.8v10.8
			c0,0.1-0.1,0.1-0.1,0.1c0,0,0,0,0,0h-1.9C22.1,87.8,22,87.8,22,87.7C22,87.7,22,87.7,22,87.7z"/>
		<path d="M73.4,83.6v-8.7c0-3,1.8-4.4,3.8-4.4s3.8,1.4,3.8,4.4v8.7c0,3-1.8,4.4-3.8,4.4S73.4,86.6,73.4,83.6z M75.5,84.1
			c-0.1,0.9,0.6,1.7,1.5,1.7c0.9,0.1,1.7-0.6,1.7-1.5c0-0.1,0-0.2,0-0.3v-9.8c0.1-0.9-0.6-1.7-1.5-1.7c-0.9-0.1-1.7,0.6-1.7,1.5
			c0,0.1,0,0.2,0,0.3V84.1z"/>
		<path d="M124.6,70.8c0-0.1,0-0.1,0.1-0.1c0,0,0,0,0,0h3.3c2.6,0,4.1,1.6,4.1,4.2v2.3c0,2.6-1.5,4.2-4.1,4.2h-1.3v6.3
			c0,0.1-0.1,0.1-0.1,0.1c0,0,0,0,0,0h-1.9c-0.1,0-0.1-0.1-0.1-0.1c0,0,0,0,0,0L124.6,70.8z M128,79.2c1.5,0,1.9-0.8,1.9-2.2V75
			c0-1.4-0.5-2.2-1.9-2.2h-1.3v6.4L128,79.2z"/>
		<path d="M179.1,70.5c2,0,3.8,1.4,3.8,4.4v8.7c0,0.9-0.2,1.7-0.6,2.5l1.2,1c0,0,0,0.1,0,0.2c0,0,0,0,0,0l-0.9,1.1
			c0,0-0.1,0.1-0.2,0c0,0,0,0,0,0l-1.2-1c-0.6,0.5-1.4,0.7-2.2,0.7c-2,0-3.8-1.4-3.8-4.4v-8.7C175.4,71.9,177.1,70.5,179.1,70.5z
			 M179.1,85.9c0.1,0,0.2,0,0.4,0l-0.9-0.7c-0.1,0-0.1-0.1,0-0.2l0.9-1c0,0,0.1-0.1,0.1,0c0,0,0,0,0,0l1.1,0.9
			c0.1-0.2,0.1-0.4,0.1-0.6v-9.9c0-0.9-0.7-1.6-1.6-1.6s-1.6,0.7-1.6,1.6v9.8c-0.1,0.8,0.5,1.6,1.3,1.7
			C178.9,85.9,179,85.9,179.1,85.9z"/>
		<path d="M226.3,87.7V70.8c0-0.1,0-0.1,0.1-0.1c0,0,0,0,0,0h3.3c2.6,0,4.1,1.6,4.1,4.2v1.8c0.1,1.3-0.5,2.7-1.6,3.5l2.6,7.5
			c0,0.1,0,0.1-0.1,0.1h-2c-0.1,0-0.1,0-0.2-0.1l-2.2-6.8h-1.9v6.8c0,0.1-0.1,0.1-0.1,0.1h-1.9C226.4,87.8,226.3,87.8,226.3,87.7
			C226.3,87.7,226.3,87.7,226.3,87.7z M228.4,78.7h1.3c1.5,0,1.9-0.8,1.9-2.2V75c0-1.4-0.4-2.2-1.9-2.2h-1.3V78.7z"/>
		<path d="M277.6,84.4v-1c0-0.1,0.1-0.1,0.1-0.1c0,0,0,0,0,0h1.9c0.1,0,0.1,0.1,0.1,0.1v1.1c-0.1,0.7,0.5,1.4,1.2,1.4
			c0,0,0.1,0,0.1,0c0.7,0,1.3-0.5,1.3-1.2c0-0.1,0-0.1,0-0.2v-1.2c0-0.6-0.2-1.2-0.6-1.7l-1.8-2.3c0,0-1-1.1-1.4-1.7
			c-0.7-0.8-1-1.8-1-2.8V74c0-1.9,1.6-3.5,3.5-3.5c1.9,0,3.4,1.6,3.4,3.5c0,0,0,0.1,0,0.1v1c0,0.1,0,0.1-0.1,0.1c0,0,0,0,0,0h-1.9
			c-0.1,0-0.1,0-0.1-0.1c0,0,0,0,0,0v-1c0.1-0.7-0.4-1.3-1.1-1.4c-0.1,0-0.1,0-0.2,0c-0.7,0-1.3,0.5-1.3,1.3c0,0.1,0,0.1,0,0.2v0.7
			c0.1,0.8,0.4,1.5,0.9,2.1l1.4,1.7c0,0,1,1.1,1.3,1.7c0.8,1,1.1,2.2,1,3.4v0.8c0.1,1.9-1.4,3.5-3.3,3.6c-1.9,0.1-3.5-1.4-3.6-3.3
			C277.5,84.7,277.5,84.6,277.6,84.4L277.6,84.4z"/>
		<path d="M328.1,70.7h7.9c0.1,0,0.1,0,0.1,0.1c0,0,0,0,0,0v1.9c0,0.1-0.1,0.1-0.1,0.1c0,0,0,0,0,0h-2.9v14.9c0,0.1-0.1,0.1-0.1,0.1
			c0,0,0,0,0,0h-1.9c-0.1,0-0.1,0-0.1-0.1c0,0,0,0,0,0V72.8h-2.9c-0.1,0-0.1,0-0.1-0.1c0,0,0,0,0,0v-1.9
			C328,70.7,328,70.7,328.1,70.7C328.1,70.7,328.1,70.7,328.1,70.7z"/>
		<path d="M381.6,70.8c0-0.1,0-0.1,0.1-0.1c0,0,0,0,0,0h1.9c0.1,0,0.1,0.1,0.1,0.1c0,0,0,0,0,0v13.3c-0.1,0.9,0.6,1.6,1.4,1.7
			c0.1,0,0.1,0,0.2,0c0.9,0,1.6-0.6,1.6-1.5c0-0.1,0-0.2,0-0.2V70.8c0-0.1,0-0.1,0.1-0.1c0,0,0,0,0,0h1.9c0.1,0,0.1,0,0.1,0.1
			c0,0,0,0,0,0v13.4c0.1,2.1-1.5,3.8-3.6,3.9c-2.1,0.1-3.8-1.5-3.9-3.6c0-0.1,0-0.2,0-0.4L381.6,70.8z"/>
		<path d="M434.8,70.7h1.9c0.1,0,0.1,0.1,0.1,0.1c0,0,0,0,0,0l1.9,12.7l1.8-12.7c0-0.1,0.1-0.1,0.1-0.1h1.9c0.1,0,0.1,0,0.1,0.1
			c0,0,0,0,0,0l-2.9,16.9c0,0.1-0.1,0.1-0.1,0.1h-1.9c-0.1,0-0.1-0.1-0.1-0.1l-2.9-16.9C434.7,70.7,434.7,70.7,434.8,70.7z"/>
		<path d="M482.8,70.7h1.9c0.1,0,0.1,0.1,0.1,0.1c0,0,0,0,0,0l1.6,12.7l2-12.7c0-0.1,0.1-0.1,0.1-0.1c0,0,0,0,0,0h2.1
			c0.1,0,0.1,0.1,0.1,0.1c0,0,0,0,0,0l2,12.7l1.6-12.7c0-0.1,0.1-0.1,0.1-0.1c0,0,0,0,0,0h1.9c0.1,0,0.1,0,0.1,0.1l-2.7,16.9
			c0,0.1-0.1,0.1-0.1,0.1c0,0,0,0,0,0h-1.9c-0.1,0-0.1,0-0.1-0.1L489.6,75l-2.1,12.7c0,0.1-0.1,0.1-0.1,0.1c0,0,0,0,0,0h-1.9
			c-0.1,0-0.1,0-0.1-0.1l-2.6-16.9C482.7,70.7,482.7,70.7,482.8,70.7z"/>
		<path d="M536.2,87.7l3.2-8.7l-3.1-8.2c0-0.1,0-0.1,0.1-0.1h2c0.1,0,0.1,0.1,0.2,0.1l2,5.4l2-5.4c0-0.1,0.1-0.1,0.2-0.1h2
			c0.1,0,0.1,0,0.1,0.1l-3.1,8.2l3.2,8.7c0,0.1,0,0.1-0.1,0.1h-2c-0.1,0-0.1,0-0.2-0.1l-2.1-5.6l-2.1,5.6c0,0.1-0.1,0.1-0.2,0.1h-2
			C536.3,87.8,536.2,87.8,536.2,87.7z"/>
		<path d="M587.5,70.7h2c0.1,0,0.2,0.1,0.2,0.1l2,6.8l2-6.8c0-0.1,0.1-0.1,0.2-0.1h2c0.1,0,0.1,0,0.1,0.1l-3.2,9.8v7.1
			c0,0.1-0.1,0.1-0.1,0.1c0,0,0,0,0,0h-1.9c-0.1,0-0.1-0.1-0.1-0.1v-7.1l-3.2-9.8C587.3,70.7,587.4,70.7,587.5,70.7z"/>
		<path d="M639.1,85.9c0-0.1,0-0.1,0-0.2l4.6-12.9h-4.3c-0.1,0-0.1,0-0.1-0.1c0,0,0,0,0,0v-1.9c0-0.1,0-0.1,0.1-0.1h6.6
			c0.1,0,0.1,0.1,0.1,0.1c0,0,0,0,0,0v1.8c0,0.1,0,0.2,0,0.2l-4.6,12.9h4.5c0.1,0,0.1,0.1,0.1,0.1c0,0,0,0,0,0v1.9
			c0,0.1-0.1,0.1-0.1,0.1h-6.8c-0.1,0-0.1-0.1-0.1-0.1L639.1,85.9z"/>
	</g>
</g>
</svg>
