<?xml version="1.0" encoding="UTF-8"?>
<svg id="Layer_1" data-name="Layer 1" xmlns="http://www.w3.org/2000/svg" viewBox="0 0 2351 2350">
  <path d="M393,2173c-140,0-216-74-216-217V394c0-143,76-217,216-217H1958c137,0,216,74,216,217V1956c0,143-79,217-216,217H393Zm-4,177H1961c259,0,390-130,390-385V385C2351,130,2220,0,1961,0H389C131,0,0,129,0,385V1965c0,256,131,385,389,385Z"/>
  <path d="M391.52,1522.8c0,39,29,67,71,67h156c114,0,184-34,268-131l154-181,154,181c84,97,154,131,268,131h119v154c0,35,22,57,55,57,16,0,32-5,44-15l257-209c30-24,30-65,1-89l-257-208c-11-12-28-18-45-18-32,0-55,23-55,58v136h-115c-76,0-118-24-175-92l-162-190,162-190c57-68,99-92,175-92h115v139c0,35,23,58,55,58,17,0,34-6,45-17l256-207c29-24,30-66,1-90l-258-210c-12-10-28-15-44-15-33,0-55,22-55,57v151h-119c-114,0-184,34-268,131l-154,181-154-181c-84-97-154-131-268-131h-156c-42,0-71,28-71,67s31,67,71,67h158c68,0,113,24,170,92l161,190-161,190c-58,69-102,92-170,92h-158c-40,0-71,29-71,67Z"/>
</svg>