<?xml version="1.0" encoding="UTF-8"?>
<svg id="Layer_1" data-name="Layer 1" xmlns="http://www.w3.org/2000/svg" viewBox="0 0 2351 2350">
  <defs>
    <style>
      .cls-1 {
        fill: #fff;
      }
    </style>
  </defs>
  <path d="M389,2350H1961c259,0,390-130,390-385V385C2351,130,2220,0,1961,0H389C131,0,0,129,0,385V1965c0,256,131,385,389,385Z"/>
  <path class="cls-1" d="M1967.34,1286.3v-73c0-43-33-75-75-75s-77,32-77,75v66c0,127-88,212-221,212h-508v-164c0-38-24-62-61-62-16,0-33,6-49,18l-289,235c-33,27-34,72,0,99l289,236c16,11,33,18,49,18,37,0,61-24,61-62v-169h498c231,0,383-140,383-354Zm-1583-223v73c0,42,34,75,75,75s77-33,77-75v-66c0-128,88-212,221-212h508v165c0,38,25,62,61,62,16,0,33-6,49-18l289-235c33-27,33-71,0-99l-289-236c-16-11-33-18-49-18-36,0-61,24-61,62v168h-498c-231,0-383,140-383,354Z"/>
</svg>