<svg xmlns="http://www.w3.org/2000/svg" viewBox="0 0 54.38 11.49"><title>Asset 1</title><g id="Layer_2" data-name="Layer 2"><g id="Layer_1-2" data-name="Layer 1"><path d="M1.64,1.07a7.23,7.23,0,0,0,0,1.08V5.46a6.85,6.85,0,0,0,0,1H0A7.9,7.9,0,0,0,.06,5.43V2.13A6.79,6.79,0,0,0,0,1.06Zm5.45,0A5.48,5.48,0,0,0,7,2.19V3.81a14.46,14.46,0,0,1-.31,3.64,4.58,4.58,0,0,1-2.37,2.79A10.25,10.25,0,0,1,2,11.17a4.16,4.16,0,0,0-.84-1.43,6.53,6.53,0,0,0,2.59-1A3.4,3.4,0,0,0,5.42,5.72c0-.51.06-1,.06-2V2.22a6.11,6.11,0,0,0-.06-1.14Z"/><path d="M17.7,11.23A23.65,23.65,0,0,0,14,7.66a14.42,14.42,0,0,1-4.57,3.47,4.43,4.43,0,0,0-1-1.33,12.2,12.2,0,0,0,3.94-2.59A11.5,11.5,0,0,0,14.9,3.6L15,3.47l0-.09a.45.45,0,0,1,0-.11,1.28,1.28,0,0,1-.26,0h-.11l-3.6.06a9.66,9.66,0,0,0-1.3.08l0-1.52a5.18,5.18,0,0,0,1,.07h.29l4-.06a2.47,2.47,0,0,0,1.06-.13L17,2.87a2.45,2.45,0,0,0-.38.64,14.75,14.75,0,0,1-1.75,3.06,25.8,25.8,0,0,1,4,3.4ZM17.24.67A8,8,0,0,1,18.5,2.43l-.8.45a8.69,8.69,0,0,0-1.26-1.79ZM19.1,2.12A9.3,9.3,0,0,0,17.88.38L18.63,0a6.92,6.92,0,0,1,1.25,1.69Z"/><path d="M26,1.13a3.42,3.42,0,0,0-.31.86c-.92,3-1.61,5-2.38,6.84,1.88-.15,4-.4,5-.61-.13-.29-.27-.56-.56-1.1a15.83,15.83,0,0,0-1.14-1.9l1.35-.53a28.42,28.42,0,0,1,2.91,5.55L29.38,11a11.26,11.26,0,0,0-.57-1.49l-.43.1c-1.21.25-3.21.5-6.79.85a6.74,6.74,0,0,0-1.09.14L20.28,9h.31l1,0a50.39,50.39,0,0,0,1.74-4.84A18.07,18.07,0,0,0,24.24.79Z"/><path d="M38,5.67a8.29,8.29,0,0,0,1.47,2.39,6.8,6.8,0,0,0,2.2,1.57,5.73,5.73,0,0,0,1.16.4,4.67,4.67,0,0,0-.8,1.33A8.36,8.36,0,0,1,37.16,6.8a6.39,6.39,0,0,1-1.72,2.7,8.61,8.61,0,0,1-3,1.82,4,4,0,0,0-.78-1.23A6.76,6.76,0,0,0,35,8a5.32,5.32,0,0,0,1.15-2.37H33.79c-.54,0-1,0-1.51.07V4.43c.42,0,.9.07,1.5.07H36.3a17.85,17.85,0,0,0,.08-2.1h-3a13.49,13.49,0,0,0-1.55.07V1.1a11.15,11.15,0,0,0,1.55.09H41a11.94,11.94,0,0,0,1.56-.09V2.47A14.09,14.09,0,0,0,41,2.4H37.74c0,1.27,0,1.47-.09,2.1h2.93c.59,0,1.08,0,1.54-.07V5.74c-.5,0-1-.07-1.53-.07Z"/><path d="M44.05,2.25A13.81,13.81,0,0,0,44,.8,11,11,0,0,0,45.4.86H53A11.9,11.9,0,0,0,54.38.8a12,12,0,0,0-.07,1.44v7.7a9.78,9.78,0,0,0,.07,1.55H53v-.68H45.35v.68H44a11.17,11.17,0,0,0,.07-1.56Zm1.3,7.39H53V2H45.35Zm1.8-5.73A6.41,6.41,0,0,0,46.06,4V2.76a6.28,6.28,0,0,0,1.09.06h4.08a6.46,6.46,0,0,0,1.11-.06V4a6.75,6.75,0,0,0-1.11-.06H49.7V5.16h1.24a5.4,5.4,0,0,0,1-.06V6.28a5.74,5.74,0,0,0-.77-.06A6.19,6.19,0,0,1,52,7.39l-.65.36a6.1,6.1,0,0,0,1.17-.07V8.92a8.89,8.89,0,0,0-1.12-.06H47a8.07,8.07,0,0,0-1.14.06V7.68A5.94,5.94,0,0,0,47,7.75h1.43V6.22h-1a6.75,6.75,0,0,0-1,.06V5.1a5.47,5.47,0,0,0,1,.06h1V3.91ZM49.7,7.75H51a5.15,5.15,0,0,0-.76-1.2l.64-.33H49.7Z"/></g></g></svg>