<svg xmlns="http://www.w3.org/2000/svg" viewBox="0 0 106.77 56.88"><defs><style>.f0ac4063-734d-4fdc-9d57-7b731e0e6a6c{opacity:0.9;}</style></defs><title>Asset 12</title><g id="76fd7a43-6a91-4a08-b260-46f624c44012" data-name="Layer 2"><g id="b217c39d-7b62-4ea5-af9b-08502ec54069" data-name="Layer 1"><path class="f0ac4063-734d-4fdc-9d57-7b731e0e6a6c" d="M8.89,4.29a5.44,5.44,0,0,1-.3-2.22V0H6.37V.1L3.05.72a4.73,4.73,0,0,0-2.35,1A2.41,2.41,0,0,0,0,3.54,2.63,2.63,0,0,0,.3,4.82a2.82,2.82,0,0,0,.8.92,3.42,3.42,0,0,0,1.13.56,4.43,4.43,0,0,0,1.29.19,3.86,3.86,0,0,0,1.71-.35,4.49,4.49,0,0,0,1.36-1,2.73,2.73,0,0,0,.76,1.06,1.78,1.78,0,0,0,1.14.34,1.87,1.87,0,0,0,1.1-.37,1.82,1.82,0,0,0,.67-.9A2.14,2.14,0,0,1,8.89,4.29Zm-3.53.43a4.26,4.26,0,0,1-1.14.17A1.94,1.94,0,0,1,3,4.45,1.42,1.42,0,0,1,2.4,3.24a1.2,1.2,0,0,1,.28-.84,1.91,1.91,0,0,1,1-.5l2.65-.58v1.6c0,.25,0,.49,0,.71s0,.42,0,.59A3.65,3.65,0,0,1,5.36,4.72Z"/><path class="f0ac4063-734d-4fdc-9d57-7b731e0e6a6c" d="M11.46,6.14l1.16,0H14c.42,0,.83,0,1.24,0l1.09,0a1.1,1.1,0,0,0,.71-.25.83.83,0,0,0,.33-.65l-1.89-.47V0H13.28V4.79l-1.17.38c-.47.13-.7.36-.7.7a.92.92,0,0,0,0,.16A.19.19,0,0,0,11.46,6.14Z"/><path class="f0ac4063-734d-4fdc-9d57-7b731e0e6a6c" d="M30.14,4.74V0H27.92V4.74l-1.23.43c-.46.13-.7.36-.7.7A1,1,0,0,0,26,6a.21.21,0,0,0,0,.11l1.19,0h1.51c.47,0,.88,0,1.25,0l1.22,0a1.13,1.13,0,0,0,.71-.24.84.84,0,0,0,.34-.63Z"/><path class="f0ac4063-734d-4fdc-9d57-7b731e0e6a6c" d="M18.73,6.14l1.18,0h1.51c.47,0,.89,0,1.25,0l1.23,0a1.15,1.15,0,0,0,.71-.24.8.8,0,0,0,.33-.63l-2.12-.53V0H20.6V4.74l-1.22.43c-.47.13-.7.36-.7.7a.92.92,0,0,0,0,.16A.19.19,0,0,0,18.73,6.14Z"/><path class="f0ac4063-734d-4fdc-9d57-7b731e0e6a6c" d="M36.08,6.25a12.12,12.12,0,0,0,1.25.18q.64.06,1.2.06A6.49,6.49,0,0,0,41.09,6a6.09,6.09,0,0,0,2-1.37,6.36,6.36,0,0,0,1.3-2.11A7.32,7.32,0,0,0,44.86,0H42.33c0,.16,0,.28,0,.45a7.65,7.65,0,0,1-.21,1.83,4.28,4.28,0,0,1-.66,1.5,3.26,3.26,0,0,1-1.14,1,3.36,3.36,0,0,1-1.63.38,5.44,5.44,0,0,1-2.3-.5V0H34.21V5.74A3.2,3.2,0,0,0,35,6C35.31,6.1,35.68,6.18,36.08,6.25Z"/><path class="f0ac4063-734d-4fdc-9d57-7b731e0e6a6c" d="M50.86,0H48.64V4.74l-1.45.43c-.46.13-.7.36-.7.7a1,1,0,0,0,0,.16.21.21,0,0,0,0,.11l1.25,0h1.57q.7,0,1.35,0l1.33,0a1.15,1.15,0,0,0,.71-.24.8.8,0,0,0,.33-.63l-2.22-.53Z"/><path class="f0ac4063-734d-4fdc-9d57-7b731e0e6a6c" d="M55,12.18a7.12,7.12,0,0,0,3.77.8,8.23,8.23,0,0,0,2.65-.41,6.59,6.59,0,0,0,2.05-1.11,5.3,5.3,0,0,0,1.31-1.59A3.94,3.94,0,0,0,65.22,8a2.13,2.13,0,0,0-1-2,8,8,0,0,0-3.4-.76l-.7,0a17,17,0,0,1-2.63-.3c-.41-.1-.62-.33-.62-.68a2.69,2.69,0,0,1,.83-1.42,3.67,3.67,0,0,0,.64.12A4.44,4.44,0,0,0,59,3a6.54,6.54,0,0,0,2-.29,4.91,4.91,0,0,0,1.59-.88A4.06,4.06,0,0,0,63.57.41c.06-.12,0-.28.09-.41H61.53a2.5,2.5,0,0,1-.33.7,2.41,2.41,0,0,1-.76.65,2.46,2.46,0,0,1-1.14.25,2.56,2.56,0,0,1-2-.84A3,3,0,0,1,56.84,0H54.4a3.31,3.31,0,0,0,.51,1.13,3.75,3.75,0,0,0,1.72,1.34,4.7,4.7,0,0,0-1.55,1.34A2.19,2.19,0,0,0,54.71,5a1.6,1.6,0,0,0,0,.42,1.28,1.28,0,0,0,.18.44,2.09,2.09,0,0,0,.39.4,1.79,1.79,0,0,0,.68.28,6.93,6.93,0,0,0-1.8,1.69,3,3,0,0,0-.5,1.69A2.55,2.55,0,0,0,55,12.18Zm1.33-4.3a3.54,3.54,0,0,1,.79-1c.32.07.65.13,1,.17l1.36.13.73,0,.94.09a3.73,3.73,0,0,1,.93.23,1.59,1.59,0,0,1,.7.49A1.48,1.48,0,0,1,63,9a1.83,1.83,0,0,1-.37,1.16,2.92,2.92,0,0,1-.94.8,4.52,4.52,0,0,1-1.21.46,5.42,5.42,0,0,1-1.22.15,3.9,3.9,0,0,1-2.46-.67A2.1,2.1,0,0,1,56,9.11,2.46,2.46,0,0,1,56.31,7.88Z"/><path class="f0ac4063-734d-4fdc-9d57-7b731e0e6a6c" d="M77.81,0H75.58V3.34a4.43,4.43,0,0,1-3,1.43,2,2,0,0,1-1.66-.64A3.49,3.49,0,0,1,70.37,2V0H68.14V2.42A4.6,4.6,0,0,0,69,5.54a3.22,3.22,0,0,0,2.49,1A4.94,4.94,0,0,0,73.65,6a6.4,6.4,0,0,0,1.93-1.43V6.44l3.2-.22a2.41,2.41,0,0,0,1-.28.79.79,0,0,0,.37-.67l-2.39-.53Z"/><path class="f0ac4063-734d-4fdc-9d57-7b731e0e6a6c" d="M85.12,0H82.9V4.74l-1.45.43c-.47.13-.7.36-.7.7a1,1,0,0,0,0,.16.14.14,0,0,0,0,.11l1.25,0h1.57q.7,0,1.35,0l1.33,0A1.15,1.15,0,0,0,87,5.9a.8.8,0,0,0,.33-.63l-2.22-.53Z"/><path class="f0ac4063-734d-4fdc-9d57-7b731e0e6a6c" d="M96,4.17a8.24,8.24,0,0,1-1.15.42,4,4,0,0,1-1.19.18,1.36,1.36,0,0,1-1.15-.38,2.13,2.13,0,0,1-.28-1.22V0H90.08c0,1.37,0,2.65,0,3.84a2.91,2.91,0,0,0,.58,2,2.56,2.56,0,0,0,2,.65,5.06,5.06,0,0,0,2.54-.55,1.57,1.57,0,0,0,1-1.32,1,1,0,0,0,0-.23A1.19,1.19,0,0,0,96,4.17Z"/><path class="f0ac4063-734d-4fdc-9d57-7b731e0e6a6c" d="M98.62,4.94a4.49,4.49,0,0,0,1.58,1.14,5.69,5.69,0,0,0,2.23.41,6.78,6.78,0,0,0,1.91-.24,4.7,4.7,0,0,0,1.35-.61,3.11,3.11,0,0,0,.81-.81,1.6,1.6,0,0,0,.27-.84,1.83,1.83,0,0,0,0-.21.67.67,0,0,0-.1-.21,6.58,6.58,0,0,1-1.55.76,5.33,5.33,0,0,1-1.77.31,3.7,3.7,0,0,1-1.69-.35,3.59,3.59,0,0,1-1.2-1A4,4,0,0,1,99.72,2,5.8,5.8,0,0,1,99.48.27V0H97.4c0,.32-.07.63-.07,1a7.21,7.21,0,0,0,.33,2.24A4.64,4.64,0,0,0,98.62,4.94Z"/><path class="f0ac4063-734d-4fdc-9d57-7b731e0e6a6c" d="M5.44,51.1a6.48,6.48,0,0,0-1.7.25A7.8,7.8,0,0,0,2.16,52,4.44,4.44,0,0,0,1,52.91a1.56,1.56,0,0,0-.47,1,1.14,1.14,0,0,0,.3.84,1,1,0,0,0,.8.3h.24l.24,0A3,3,0,0,1,3,53.2a2.34,2.34,0,0,1,1.66-.67,1.49,1.49,0,0,1,1.26.58,2.88,2.88,0,0,1,.47,1.79v2H8.59V54.45A3.38,3.38,0,0,0,7.74,52,3.13,3.13,0,0,0,5.44,51.1Z"/><path class="f0ac4063-734d-4fdc-9d57-7b731e0e6a6c" d="M26.89,51.1a5.29,5.29,0,0,0-2.32.54,7.12,7.12,0,0,0-2.05,1.49,2.7,2.7,0,0,0-1-1.55,3.38,3.38,0,0,0-1.91-.48A5.45,5.45,0,0,0,15.51,53v-2l-3.6.75c-.48.1-.72.33-.72.68,0,.13,0,.22.05.25l2,.2v4h2.23V54.25A5.74,5.74,0,0,1,17,53.19a3.42,3.42,0,0,1,1.4-.34,2,2,0,0,1,1.68.64,3.86,3.86,0,0,1,.52,2.33v1.06h2.22V55.4c0-.12,0-.3,0-.55s0-.46-.05-.62a5.69,5.69,0,0,1,1.53-1,3.67,3.67,0,0,1,1.44-.34,2.68,2.68,0,0,1,1.21.23,1.55,1.55,0,0,1,.66.63,2.62,2.62,0,0,1,.28,1c0,.36.05.77.05,1.22v1h2.22V55.4a5.34,5.34,0,0,0-.79-3.31A2.94,2.94,0,0,0,26.89,51.1Z"/><path class="f0ac4063-734d-4fdc-9d57-7b731e0e6a6c" d="M40.4,51.1a4.79,4.79,0,0,0-2.17.52,7.08,7.08,0,0,0-1.8,1.26V44l-3.65.72c-.48.1-.72.33-.72.68v.15l0,.1,2.1.2v11h2.22V54a4.74,4.74,0,0,1,1.31-.78A4.18,4.18,0,0,1,39.23,53a2.62,2.62,0,0,1,2.41,1.2,5.86,5.86,0,0,1,.69,2.7h2.53c0-.07,0-.12,0-.18a6.53,6.53,0,0,0-1.15-4.08A3.91,3.91,0,0,0,40.4,51.1Z"/><path class="f0ac4063-734d-4fdc-9d57-7b731e0e6a6c" d="M49.81,45a1.4,1.4,0,0,0-1.13.45,1.73,1.73,0,0,0-.39,1.18c0,1,.47,1.54,1.4,1.54a1.42,1.42,0,0,0,1.1-.43,1.87,1.87,0,0,0,.4-1.26,1.5,1.5,0,0,0-.38-1.09A1.32,1.32,0,0,0,49.81,45Z"/><path class="f0ac4063-734d-4fdc-9d57-7b731e0e6a6c" d="M46.42,52.48a.54.54,0,0,0,0,.15.13.13,0,0,0,0,.1l2.17.2v4h2.22V51.05l-3.72.75C46.66,51.9,46.42,52.13,46.42,52.48Z"/><path class="f0ac4063-734d-4fdc-9d57-7b731e0e6a6c" d="M65.29,51.38c-.28,0-.58.06-.91.07s-.71,0-1.16,0-.87,0-1.16,0l-.71-.06a8.21,8.21,0,0,0-.81-.19,5.34,5.34,0,0,0-1-.09,6.68,6.68,0,0,0-2.09.32,4.76,4.76,0,0,0-1.67.92,4.26,4.26,0,0,0-1.11,1.5,4.84,4.84,0,0,0-.4,2,4.1,4.1,0,0,0,.14,1h2.44a3.69,3.69,0,0,1-.31-1.51,3.22,3.22,0,0,1,.65-2.09,2.22,2.22,0,0,1,1.85-.8,2.47,2.47,0,0,1,1.18.26,2.34,2.34,0,0,1,.85.7,2.92,2.92,0,0,1,.51,1,4,4,0,0,1,.18,1.2,3.86,3.86,0,0,1-.13,1c0,.08-.07.13-.09.21h2.13A4.57,4.57,0,0,0,64,55.35a4.1,4.1,0,0,0-.24-1.44,3.77,3.77,0,0,0-.63-1.11l.5.08a4,4,0,0,0,.6,0,1.26,1.26,0,0,0,.82-.28,1,1,0,0,0,.35-.8,2.29,2.29,0,0,0,0-.25Z"/><path class="f0ac4063-734d-4fdc-9d57-7b731e0e6a6c" d="M73.26,52.48a.42.42,0,0,0,0,.25l2.27.2v4h2.23V51.05L74,51.8C73.5,51.9,73.26,52.13,73.26,52.48Z"/><path class="f0ac4063-734d-4fdc-9d57-7b731e0e6a6c" d="M66.05,52.48a.44.44,0,0,0,0,.25l2,.2v4h2.23V51.05l-3.6.75C66.29,51.9,66.05,52.13,66.05,52.48Z"/><path class="f0ac4063-734d-4fdc-9d57-7b731e0e6a6c" d="M81.83,48.08a1.27,1.27,0,0,0,1-.4,1.61,1.61,0,0,0,.38-1.15,1.3,1.3,0,0,0-.35-1,1.28,1.28,0,0,0-.92-.33,1.25,1.25,0,0,0-1,.4,1.52,1.52,0,0,0-.36,1.07,1.5,1.5,0,0,0,.31,1A1.15,1.15,0,0,0,81.83,48.08Z"/><path class="f0ac4063-734d-4fdc-9d57-7b731e0e6a6c" d="M80.68,52.48c0,.13,0,.22,0,.25l2.17.2v4h2.22V51.05l-3.72.75C80.92,51.9,80.68,52.13,80.68,52.48Z"/><path class="f0ac4063-734d-4fdc-9d57-7b731e0e6a6c" d="M86.05,45.24a1.29,1.29,0,0,0-1,.4,1.52,1.52,0,0,0-.36,1.07,1.45,1.45,0,0,0,.33,1,1.14,1.14,0,0,0,.92.37,1.29,1.29,0,0,0,1-.4,1.61,1.61,0,0,0,.37-1.15,1.3,1.3,0,0,0-.34-1A1.28,1.28,0,0,0,86.05,45.24Z"/><path class="f0ac4063-734d-4fdc-9d57-7b731e0e6a6c" d="M92.26,51.43l0-3.35a8.34,8.34,0,0,0-1.07.33,3.52,3.52,0,0,0-1,.55l0,2.49-1.32.2c-.49.09-.73.31-.73.68a.42.42,0,0,0,0,.25l2,.17c0,1.35-.07,2.72-.09,4.1v0h2.18V52.83h.23a5.93,5.93,0,0,0,.85.05h.9a1.29,1.29,0,0,0,.94-.32,1,1,0,0,0,.33-.78,1.63,1.63,0,0,0-.05-.35Z"/><path class="f0ac4063-734d-4fdc-9d57-7b731e0e6a6c" d="M106,44.16c-.18.12-.46.32-.85.62l-1.21.94c-.42.34-.83.68-1.21,1s-.67.6-.85.78a1.26,1.26,0,0,0-.32.51,1.62,1.62,0,0,0-.1.56,1.1,1.1,0,0,0,.2.68l4-2.47a2.4,2.4,0,0,0,.73-.65,1.35,1.35,0,0,0,.2-.7,1.6,1.6,0,0,0-.17-.73A1.72,1.72,0,0,0,106,44.16Z"/><path class="f0ac4063-734d-4fdc-9d57-7b731e0e6a6c" d="M102.58,51.1a4.56,4.56,0,0,0-2,.47,5,5,0,0,0-1.68,1.32A6.57,6.57,0,0,0,97.76,55a8.27,8.27,0,0,0-.36,1.87h2.08v-.07a2,2,0,0,1,0-.34h6.66a5,5,0,0,0,.18-.86,6.36,6.36,0,0,0,.07-.86,3.57,3.57,0,0,0-1-2.66A3.87,3.87,0,0,0,102.58,51.1ZM104.36,55a.92.92,0,0,0,0,.16l-4.72.1a5.23,5.23,0,0,1,.25-1,3.45,3.45,0,0,1,.45-.9,2.29,2.29,0,0,1,.7-.65,2,2,0,0,1,1-.25,2.14,2.14,0,0,1,1.72.7,2.45,2.45,0,0,1,.6,1.67A1,1,0,0,1,104.36,55Z"/></g></g></svg>