<?xml version="1.0" encoding="utf-8"?>
<!-- Generator: Adobe Illustrator 22.1.0, SVG Export Plug-In . SVG Version: 6.00 Build 0)  -->
<svg version="1.1" id="Layer_1" xmlns="http://www.w3.org/2000/svg" xmlns:xlink="http://www.w3.org/1999/xlink" x="0px" y="0px"
	 viewBox="0 0 195.1 133.4" style="enable-background:new 0 0 195.1 133.4;" xml:space="preserve">
<style type="text/css">
	.st0{opacity:0.9;}
	.st1{opacity:0;}
	.st2{fill:none;stroke:#000000;stroke-miterlimit:10;}
</style>
<title>Asset 8</title>
<path class="st0" d="M6.8,0.1v1.1H4.6V8H3.5V1.2H1.2V0.1H6.8z"/>
<path class="st0" d="M9.1,8V0.1h1.1v2.2h3.4v1.1h-3.4V8H9.1z M13.6,8V3.5h1.1V8H13.6z"/>
<path class="st0" d="M22.6,5.7h-4.5v1.1H17V3.5h1.1v1.1h3.4V3.5h1.1V5.7z M21.5,2.3v1.1h-3.4V2.3H21.5z M18.1,8V6.8h4.5V8H18.1z"/>
<path class="st0" d="M24.9,8V2.3H26v1.1h1.1v1.1H26V8H24.9z M30.5,2.4v1.1h-3.4V2.3L30.5,2.4z"/>
<path class="st0" d="M38.3,5.7h-4.5v1.1h-1.1V3.5h1.1v1.1h3.4V3.5h1.1V5.7z M37.2,2.3v1.1h-3.4V2.3H37.2z M33.8,8V6.8h4.5V8H33.8z"
	/>
<path class="st0" d="M53,6.8V8h-3.4V6.8h1.1V3.5h-1.1V2.3h2.2v4.5H53z M51.8,0.1v1.1h-1.1V0.1H51.8z"/>
<path class="st0" d="M56.3,3.5h1.1v1.1h-1.1V3.5z M60.8,6.9V8h-4.5V6.8L60.8,6.9z M62,2.3v1.1h-4.5V2.3H62z M60.8,4.6v1.1h-3.4V4.6
	H60.8z M62,5.7v1.1h-1.2V5.7H62z"/>
<path class="st0" d="M72.1,6.8V5.7h1.1v1.1C73.2,6.8,72.1,6.8,72.1,6.8z M76.6,2.3v1.1h-3.4V2.3H76.6z M76.6,6.8V5.7h-3.4V4.6h3.4
	V3.5h1.1V8h-4.5V6.8H76.6z"/>
<path class="st0" d="M87.8,8V2.3h4.5v1.1H89V8H87.8z M92.3,8V3.5h1.1V8H92.3z"/>
<path class="st0" d="M101.3,5.7h-4.5v1.1h-1.1V3.5h1.1v1.1h3.4V3.5h1.1V5.7z M100.2,2.3v1.1h-3.4V2.3H100.2z M96.8,8V6.8h4.5V8H96.8
	z"/>
<path class="st0" d="M103.6,8V2.3h1.1v4.5h1.1V8H103.6z M107,6.8h-1.1V4.6h1.1V6.8z M108.1,6.8V2.3h1.1V8H107V6.8H108.1z"/>
<path class="st0" d="M121.6,4.6V8h-1.1V4.6h-1.1V3.5h1.1V1.2h1.1v2.2h2.2v1.1L121.6,4.6L121.6,4.6z M123.8,0.1v1.1h-2.2V0.1H123.8z
	 M125,2.3h-1.1V1.2h1.1V2.3z"/>
<path class="st0" d="M127.2,3.5h1.1v3.4h-1.1L127.2,3.5z M131.7,2.3v1.1h-3.4V2.3H131.7z M131.7,6.8V8h-3.4V6.8H131.7z M132.9,6.8
	h-1.1V3.5h1.1V6.8z"/>
<path class="st0" d="M135.1,8V2.3h1.1v1.1h1.1v1.1h-1.1V8H135.1z M140.7,2.4v1.1h-3.4V2.3L140.7,2.4z"/>
<path class="st0" d="M143,8V2.3h2.2v1.1h-1.1V8H143z M146.4,6.9h-1.1V3.5h1.1V6.9z M148.6,2.4V8h-1.1V3.5h-1.1V2.3L148.6,2.4z"/>
<path class="st0" d="M158.7,3.5h1.1v3.4h-1.1V3.5z M163.2,2.3v1.1h-3.4V2.3H163.2z M163.2,6.8V8h-3.4V6.8H163.2z M164.4,6.8h-1.1
	V3.5h1.1V6.8z"/>
<path class="st0" d="M168.9,4.6V8h-1.1V4.6h-1.1V3.5h1.1V1.2h1.1v2.2h2.2v1.1L168.9,4.6L168.9,4.6z M171.1,0.1v1.1h-2.2V0.1H171.1z
	 M172.2,2.3h-1.1V1.2h1.1V2.3z"/>
<path class="st0" d="M5.7,20.4v1.1H2.3v-1.1h1.1v-5.6H2.3v-1.1h2.2v6.8h1.2V20.4z"/>
<path class="st0" d="M13.6,20.4v1.1h-3.4v-1.1h1.1V17h-1.1v-1.1h2.2v4.5H13.6z M12.5,13.6v1.1h-1.1v-1.1H12.5z"/>
<path class="st0" d="M21.5,20.4v1.1H17v-7.9h1.1v2.2h3.4V17h-3.4v3.4H21.5z M22.6,20.4h-1.1V17h1.1V20.4z"/>
<path class="st0" d="M30.5,19.2H26v1.1h-1.1V17H26v1.1h3.4V17h1.1V19.2z M29.3,15.8V17H26v-1.1L29.3,15.8z M26,21.5v-1.1h4.5v1.1H26
	z"/>
<path class="st0" d="M32.7,21.5v-5.6h1.1V17H35v1.1h-1.2v3.4H32.7z M38.4,15.8V17H35v-1.1L38.4,15.8z"/>
<path class="st0" d="M40.6,20.4v-1.1h1.1v1.1H40.6z M45.1,15.9V17h-3.4v-1.1H45.1z M45.1,20.4v-1.1h-3.4v-1.1h3.4V17h1.1v4.5h-4.5
	v-1.1H45.1z"/>
<path class="st0" d="M53,20.4v1.1h-3.4v-1.1h1.1v-5.6h-1.1v-1.1h2.2v6.8H53V20.4z"/>
<path class="st0" d="M68.7,20.4v1.1h-3.4v-1.1h1.1V17h-1.1v-1.1h2.2v4.5H68.7z M67.6,13.6v1.1h-1.1v-1.1H67.6z"/>
<path class="st0" d="M72.1,21.5v-5.6h4.5V17h-3.4v4.5H72.1z M76.6,21.5V17h1.1v4.5H76.6z"/>
<path class="st0" d="M82.2,15.9h2.2V17h-2.2v3.4h-1.1V17H80v-1.1h1.1v-2.2h1.1V15.9z M84.5,20.4v1.1h-2.2v-1.1H84.5z M85.6,19.2v1.1
	h-1.1v-1.1H85.6z"/>
<path class="st0" d="M93.5,19.2H89v1.1h-1.2V17H89v1.1h3.4V17h1.1V19.2z M92.3,15.8V17H89v-1.1L92.3,15.8z M89,21.5v-1.1h4.5v1.1H89
	z"/>
<path class="st0" d="M95.7,21.5v-5.6h1.1V17H98v1.1h-1.2v3.4H95.7z M101.3,15.8V17H98v-1.1L101.3,15.8z"/>
<path class="st0" d="M103.6,21.5v-5.6h4.5V17h-3.4v4.5H103.6z M108.1,21.5V17h1.1v4.5H108.1z"/>
<path class="st0" d="M111.5,20.4v-1.1h1.1v1.1H111.5z M116,15.9V17h-3.4v-1.1H116z M116,20.4v-1.1h-3.4v-1.1h3.4V17h1.1v4.5h-4.5
	v-1.1H116z"/>
<path class="st0" d="M121.6,15.9h2.2V17h-2.2v3.4h-1.1V17h-1.1v-1.1h1.1v-2.2h1.1V15.9z M123.8,20.4v1.1h-2.2v-1.1H123.8z M125,19.2
	v1.1h-1.1v-1.1H125z"/>
<path class="st0" d="M131.7,20.4v1.1h-3.4v-1.1h1.1V17h-1.1v-1.1h2.2v4.5H131.7z M130.6,13.6v1.1h-1.1v-1.1H130.6z"/>
<path class="st0" d="M135.1,17h1.1v3.4h-1.1V17z M139.6,15.9V17h-3.4v-1.1H139.6z M139.6,20.4v1.1h-3.4v-1.2L139.6,20.4z
	 M140.7,20.4h-1.1V17h1.1V20.4z"/>
<path class="st0" d="M143,21.5v-5.6h4.5V17h-3.4v4.5H143z M147.5,21.5V17h1.1v4.5H147.5z"/>
<path class="st0" d="M150.9,20.4v-1.1h1.1v1.1H150.9z M155.4,15.9V17H152v-1.1H155.4z M155.4,20.4v-1.1H152v-1.1h3.4V17h1.1v4.5H152
	v-1.1H155.4z"/>
<path class="st0" d="M163.2,20.4v1.1h-3.4v-1.1h1.1v-5.6h-1.1v-1.1h2.2v6.8h1.2V20.4z"/>
<path class="st0" d="M166.6,17h5.6v1.1h-5.6V17z"/>
<path class="st0" d="M5.7,33.8V35H2.3v-1.2h1.1v-3.4H2.3v-1.1h2.2v4.5H5.7z M4.6,27.1v1.1H3.5v-1.1H4.6z"/>
<path class="st0" d="M9.1,30.5h1.1v1.1H9.1V30.5z M13.6,33.8V35H9.1v-1.2H13.6z M14.7,29.3v1.1h-4.5v-1.1H14.7z M13.6,31.6v1.1h-3.4
	v-1.1H13.6z M14.7,32.7v1.1h-1.1v-1.1H14.7z"/>
<path class="st0" d="M17,35v-5.6h2.2v1.1h-1.1V35H17z M20.4,33.9h-1.2v-3.4h1.1L20.4,33.9z M22.6,29.4V35h-1.2v-4.5h-1.1v-1.1H22.6z
	"/>
<path class="st0" d="M32.7,30.5h1.1v3.4h-1.1V30.5z M37.2,33.8v-3.4h-3.4v-1.1h3.4v-2.2h1.1V35h-4.5v-1.2H37.2z"/>
<path class="st0" d="M46.2,32.7h-4.5v1.1h-1.1v-3.4h1.1v1.1h3.4v-1.1h1.1V32.7z M45.1,29.4v1.1h-3.4v-1.1H45.1z M41.7,35v-1.2h4.5
	V35H41.7z"/>
<path class="st0" d="M48.5,32.7v-3.4h1.1v3.4H48.5z M50.7,32.7v1.1h-1.1v-1.1H50.7z M51.9,33.9V35h-1.1v-1.2L51.9,33.9z M53,33.9
	h-1.1v-1.1H53V33.9z M54.1,29.4v3.4H53v-3.4H54.1z"/>
<path class="st0" d="M62,32.7h-4.5v1.1h-1.2v-3.4h1.1v1.1h3.4v-1.1H62V32.7z M60.9,29.4v1.1h-3.4v-1.1H60.9z M57.5,35v-1.2H62V35
	H57.5z"/>
<path class="st0" d="M68.7,33.8V35h-3.4v-1.2h1.1v-5.6h-1.1v-1.1h2.2v6.7H68.7z"/>
<path class="st0" d="M72.1,30.5h1.1v3.4h-1.1V30.5z M76.6,29.3v1.1h-3.4v-1.1H76.6z M76.6,33.8V35h-3.4v-1.2H76.6z M77.7,33.8h-1.1
	v-3.4h1.1V33.8z"/>
<path class="st0" d="M84.5,33.8h-3.4V36H80v-6.7h4.5v1.1h-3.4v2.2h3.4V33.8z M85.6,32.7h-1.1v-2.2h1.1V32.7z"/>
<path class="st0" d="M92.3,33.8V35H89v-1.2h1.1v-3.4H89v-1.1h2.2v4.5H92.3z M91.2,27.1v1.1h-1.1v-1.1H91.2z"/>
<path class="st0" d="M95.7,35v-5.6h4.5v1.1h-3.4V35H95.7z M100.2,35v-4.5h1.1V35H100.2z"/>
<path class="st0" d="M103.6,30.5h1.1v2.3h-1.1V30.5z M108.1,29.3v1.1h-3.4v-1.1H108.1z M108.1,33.8h-3.4v-1.1h3.4v-2.3h1.1V35h-1.1
	V33.8z M104.7,35h3.4v1.1h-3.4V35z"/>
<path class="st0" d="M123.8,33.8V35h-3.4v-1.2h1.1v-3.4h-1.1v-1.1h2.2v4.5H123.8z M122.7,27.1v1.1h-1.1v-1.1H122.7z"/>
<path class="st0" d="M127.2,35v-5.6h4.5v1.1h-3.4V35H127.2z M131.7,35v-4.5h1.1V35H131.7z"/>
<path class="st0" d="M147.5,31.6h-3.4V35H143v-7.9h5.6v1.1h-4.5v2.2h3.4V31.6z"/>
<path class="st0" d="M150.9,35v-5.6h1.1v1.1h1.1v1.1H152V35H150.9z M156.5,29.4v1.1h-3.4v-1.2L156.5,29.4z"/>
<path class="st0" d="M158.7,33.8v-1.1h1.1v1.1H158.7z M163.2,29.3v1.1h-3.4v-1.1H163.2z M163.2,33.8v-1.1h-3.4v-1.1h3.4v-1.1h1.1V35
	h-4.5v-1.2H163.2z"/>
<path class="st0" d="M166.6,35v-5.6h4.5v1.1h-3.4V35H166.6z M171.1,35v-4.5h1.1V35H171.1z"/>
<path class="st0" d="M174.5,30.5h1.1v3.4h-1.1V30.5z M180.1,29.3v1.1h-4.5v-1.1H180.1z M180.1,33.8V35h-4.5v-1.2H180.1z"/>
<path class="st0" d="M188,32.7h-4.5v1.1h-1.1v-3.4h1.1v1.1h3.4v-1.1h1.1V32.7z M186.9,29.4v1.1h-3.4v-1.1H186.9z M183.5,35v-1.2h4.5
	V35H183.5z"/>
<path class="st0" d="M5.7,47.3v1.1H2.3v-1.1h1.1V44H2.3v-1.2h2.2v4.5H5.7z M4.6,40.6v1.1H3.5v-1.1H4.6z"/>
<path class="st0" d="M9.1,48.5v-5.6h4.5V44h-3.4v4.5H9.1z M13.6,48.5V44h1.1v4.5H13.6z"/>
<path class="st0" d="M27.1,42.8h2.2V44h-2.2v3.4H26V44h-1.1v-1.2H26v-2.2h1.1V42.8z M29.4,47.3v1.1h-2.2v-1.1H29.4z M30.5,46.2v1.1
	h-1.1v-1.1H30.5z"/>
<path class="st0" d="M32.7,48.5v-7.9h1.1v2.2h3.4V44h-3.4v4.5H32.7z M37.2,48.5V44h1.1v4.5H37.2z"/>
<path class="st0" d="M46.2,46.2h-4.5v1.1h-1.1V44h1.1v1.1h3.4V44h1.1V46.2z M45.1,42.8V44h-3.4v-1.2H45.1z M41.7,48.5v-1.1h4.5v1.1
	H41.7z"/>
<path class="st0" d="M56.3,46.2v-3.4h1.1v3.4H56.3z M60.8,47.4h-3.4v-1.1h3.4v-3.4H62v5.6h-1.2V47.4z M57.5,48.5h3.4v1.1h-3.4V48.5z
	"/>
<path class="st0" d="M69.8,46.2h-4.5v1.1h-1.1V44h1.1v1.1h3.4V44h1.1V46.2z M68.7,42.9V44h-3.4v-1.2L68.7,42.9z M65.3,48.5v-1.1h4.5
	v1.1H65.3z"/>
<path class="st0" d="M72.1,47.3v-1.1h1.1v1.1H72.1z M76.6,42.8V44h-3.4v-1.2H76.6z M76.6,47.3v-1.1h-3.4v-1.1h3.4V44h1.1v4.5h-4.5
	v-1.2H76.6z"/>
<path class="st0" d="M80,48.5v-5.6h1.1V44h1.1v1.1h-1.1v3.4H80z M85.6,42.9V44h-3.4v-1.2L85.6,42.9z"/>
<path class="st0" d="M87.8,44H89v1.1h-1.2V44z M92.3,47.4v1.1h-4.5v-1.2L92.3,47.4z M93.5,42.9V44H89v-1.2L93.5,42.9z M92.3,45.1
	v1.1H89v-1.1H92.3z M93.5,46.2v1.1h-1.1v-1.1H93.5z"/>
<path class="st0" d="M103.6,47.3v-1.1h1.1v1.1H103.6z M108.1,42.8V44h-3.4v-1.2H108.1z M108.1,47.3v-1.1h-3.4v-1.1h3.4V44h1.1v4.5
	h-4.5v-1.2H108.1z"/>
<path class="st0" d="M113.7,45.1v3.4h-1.1v-3.4h-1.1V44h1.1v-2.3h1.1V44h2.3v1.1H113.7z M116,40.6v1.1h-2.2v-1.1H116z M117.1,42.8
	H116v-1.1h1.1V42.8z"/>
<path class="st0" d="M121.6,42.8h2.2V44h-2.2v3.4h-1.1V44h-1.1v-1.2h1.1v-2.2h1.1V42.8z M123.8,47.3v1.1h-2.2v-1.1H123.8z M125,46.2
	v1.1h-1.1v-1.1H125z"/>
<path class="st0" d="M132.9,46.2h-4.5v1.1h-1.1V44h1.1v1.1h3.4V44h1.1V46.2z M131.7,42.9V44h-3.4v-1.2L131.7,42.9z M128.4,48.5v-1.1
	h4.5v1.1H128.4z"/>
<path class="st0" d="M135.1,48.5v-5.6h1.1V44h1.1v1.1h-1.1v3.4H135.1z M140.7,42.9V44h-3.4v-1.2L140.7,42.9z"/>
<path class="st0" d="M153.1,42.8h2.2V44h-2.2v3.4H152V44h-1.1v-1.2h1.1v-2.2h1.1V42.8z M155.4,47.3v1.1h-2.2v-1.1H155.4z
	 M156.5,46.2v1.1h-1.1v-1.1H156.5z"/>
<path class="st0" d="M158.7,48.5v-7.9h1.1v2.2h3.4V44h-3.4v4.5H158.7z M163.2,48.5V44h1.1v4.5H163.2z"/>
<path class="st0" d="M172.2,46.2h-4.5v1.1h-1.1V44h1.1v1.1h3.4V44h1.1V46.2z M171.1,42.9V44h-3.4v-1.2L171.1,42.9z M167.7,48.5v-1.1
	h4.5v1.1H167.7z"/>
<path class="st0" d="M5.7,58.6H2.3V62H1.2v-7.9h5.6v1.1H2.3v2.2h3.4V58.6z"/>
<path class="st0" d="M13.6,60.8V62h-3.4v-1.2h1.1v-3.4h-1.1v-1.1h2.2v4.5H13.6z M12.5,54.1v1.1h-1.1v-1.1H12.5z"/>
<path class="st0" d="M17,62v-5.7h1.1v1.1h1.1v1.1h-1.1V62H17z M22.6,56.4v1.1h-3.4v-1.2L22.6,56.4z"/>
<path class="st0" d="M24.9,57.5H26v1.1h-1.1V57.5z M29.4,60.9V62h-4.5v-1.2L29.4,60.9z M30.5,56.4v1.1H26v-1.1H30.5z M29.4,58.6v1.1
	H26v-1.1H29.4z M30.5,59.7v1.1h-1.1v-1.1H30.5z"/>
<path class="st0" d="M35,56.3h2.2v1.1H35v3.4h-1.2v-3.4h-1.1v-1.1h1.1v-2.2H35V56.3z M37.2,60.8V62H35v-1.2H37.2z M38.4,59.7v1.1
	h-1.2v-1.1H38.4z"/>
<path class="st0" d="M48.5,62v-7.9h1.1v5.6h1.1v1.1h-1.1V62H48.5z M50.7,59.8v-2.3h1.1v2.2L50.7,59.8z M53,60.8h-1.2v-1.1H53v-5.6
	h1.1V62H53V60.8z"/>
<path class="st0" d="M56.3,57.5h1.1v3.4h-1.1V57.5z M60.8,56.4v1.1h-3.4v-1.1H60.8z M60.8,60.9V62h-3.4v-1.2L60.8,60.9z M62,60.9
	h-1.1v-3.4H62V60.9z"/>
<path class="st0" d="M64.2,62v-5.7h1.1v1.1h1.1v1.1h-1.1V62H64.2z M69.8,56.4v1.1h-3.4v-1.2L69.8,56.4z"/>
<path class="st0" d="M76.6,60.8V62h-3.4v-1.2h1.1v-5.6h-1.1v-1.1h2.2v6.8h1.2V60.8z"/>
<path class="st0" d="M80,57.5h1.1v3.4H80V57.5z M84.5,60.9v-3.4h-3.4v-1.1h3.4v-2.2h1.1V62h-4.5v-1.2L84.5,60.9z"/>
<path class="st0" d="M95.7,62v-7.9h1.1v5.6H98v1.1h-1.2V62H95.7z M98,59.7v-2.2h1.1v2.2H98z M100.2,60.9H99v-1.1h1.1v-5.6h1.1V62
	h-1.1L100.2,60.9z"/>
<path class="st0" d="M103.6,60.8v-1.1h1.1v1.1H103.6z M108.1,56.3v1.1h-3.4v-1.1H108.1z M108.1,60.8v-1.1h-3.4v-1.1h3.4v-1.1h1.1V62
	h-4.5v-1.2H108.1z"/>
<path class="st0" d="M111.5,62v-5.7h1.1v1.1h1.1v1.1h-1.1V62H111.5z M117.1,56.4v1.1h-3.4v-1.2L117.1,56.4z"/>
<path class="st0" d="M122.7,60.8V62h-1.1v-1.2H122.7z"/>
<path class="st0" d="M140.7,54.1v1.1h-2.2V62h-1.1v-6.8h-2.2v-1.1C135.2,54.1,140.7,54.1,140.7,54.1z"/>
<path class="st0" d="M143,62v-7.9h1.1v2.2h3.4v1.1h-3.4V62H143z M147.5,62v-4.5h1.1V62H147.5z"/>
<path class="st0" d="M155.4,60.8V62H152v-1.2h1.1v-3.4H152v-1.1h2.2v4.5H155.4z M154.2,54.1v1.1h-1.1v-1.1H154.2z"/>
<path class="st0" d="M158.7,57.5h1.1v1.1h-1.1V57.5z M163.2,60.9V62h-4.5v-1.2L163.2,60.9z M164.4,56.4v1.1h-4.5v-1.1H164.4z
	 M163.2,58.6v1.1h-3.4v-1.1H163.2z M164.4,59.7v1.1h-1.1v-1.1H164.4z"/>
<path class="st0" d="M1.2,75.5v-5.6h4.5V71H2.3v4.5H1.2z M5.7,75.5V71h1.1v4.5H5.7z"/>
<path class="st0" d="M14.7,73.2h-4.5v1.1H9.1V71h1.1v1.1h3.4V71h1.1C14.7,71,14.7,73.2,14.7,73.2z M13.6,69.8V71h-3.4v-1.2H13.6z
	 M10.2,75.5v-1.1h4.5v1.1H10.2z"/>
<path class="st0" d="M17,75.5v-5.6h1.1v4.5h1.1v1.1H17z M20.4,74.3h-1.2v-2.2h1.1L20.4,74.3z M21.5,74.3v-4.5h1.1v5.6h-2.2v-1.1
	H21.5z"/>
<path class="st0" d="M37.2,74.3v1.1h-3.4v-1.1H35v-5.6h-1.2v-1.1H36v6.8h1.2V74.3z"/>
<path class="st0" d="M45.1,74.3v1.1h-3.4v-1.1h1.1V71h-1.1v-1.2H44v4.5H45.1z M44,67.6v1.1h-1.2v-1.1H44z"/>
<path class="st0" d="M53,74.3v1.1h-4.5v-7.9h1.1v2.2H53V71h-3.4v3.4L53,74.3z M54.1,74.3H53V71h1.1V74.3z"/>
<path class="st0" d="M62,73.2h-4.5v1.1h-1.2V71h1.1v1.1h3.4V71H62V73.2z M60.9,69.8V71h-3.4v-1.2H60.9z M57.5,75.5v-1.1H62v1.1H57.5
	z"/>
<path class="st0" d="M64.2,75.5v-5.6h1.1V71h1.1v1.1h-1.1v3.4H64.2z M69.8,69.8V71h-3.4v-1.2H69.8z"/>
<path class="st0" d="M72.1,74.3v-1.1h1.1v1.1H72.1z M76.6,69.8V71h-3.4v-1.2H76.6z M76.6,74.3v-1.1h-3.4v-1.1h3.4V71h1.1v4.5h-4.5
	v-1.2H76.6z"/>
<path class="st0" d="M84.5,74.3v1.1h-3.4v-1.1h1.1v-5.6h-1.1v-1.1h2.2v6.8h1.2V74.3z"/>
<path class="st0" d="M92.3,74.3v1.1H89v-1.1h1.1V71H89v-1.2h2.2v4.5H92.3z M91.2,67.6v1.1h-1.1v-1.1H91.2z"/>
<path class="st0" d="M95.7,71h1.1v1.1h-1.1V71z M100.2,74.4v1.1h-4.5v-1.2L100.2,74.4z M101.3,69.9V71h-4.5v-1.2L101.3,69.9z
	 M100.2,72.1v1.1h-3.4V72L100.2,72.1z M101.3,73.2v1.1h-1.1v-1.2L101.3,73.2z"/>
<path class="st0" d="M103.6,75.5v-5.6h2.2V71h-1.1v4.5H103.6z M107,74.3h-1.1V71h1.1V74.3z M109.2,69.8v5.6H108V71h-1v-1.2H109.2z"
	/>
<path class="st0" d="M113.7,74.3v1.1h-1.1v-1.1H113.7z M114.8,72.1v2.2h-1.1v-2.2H114.8z"/>
<path class="st0" d="M127.2,75.5v-5.6h1.1v4.5h1.1v1.1H127.2z M130.6,74.3h-1.1v-2.2h1.1V74.3z M131.7,74.3v-4.5h1.1v5.6h-2.2v-1.1
	H131.7z"/>
<path class="st0" d="M135.1,75.5v-7.9h1.1v2.2h3.4V71h-3.4v4.5H135.1z M139.6,75.5V71h1.1v4.5H139.6z"/>
<path class="st0" d="M147.5,74.3v1.1h-3.4v-1.1h1.1V71h-1.1v-1.2h2.2v4.5H147.5z M146.4,67.6v1.1h-1.1v-1.1H146.4z"/>
<path class="st0" d="M155.4,74.3v1.1H152v-1.1h1.1v-5.6H152v-1.1h2.2v6.8h1.2V74.3z"/>
<path class="st0" d="M158.7,71h1.1v1.1h-1.1V71z M163.2,74.4v1.1h-4.5v-1.2L163.2,74.4z M164.4,69.9V71h-4.5v-1.2L164.4,69.9z
	 M163.2,72.1v1.1h-3.4V72L163.2,72.1z M164.4,73.2v1.1h-1.1v-1.2L164.4,73.2z"/>
<path class="st0" d="M168.9,69.8h2.2V71h-2.2v3.4h-1.1V71h-1.1v-1.2h1.1v-2.2h1.1V69.8z M171.1,74.3v1.1h-2.2v-1.1H171.1z
	 M172.2,73.2v1.1h-1.1v-1.1H172.2z"/>
<path class="st0" d="M6.8,86.7H2.3v1.1H1.2v-3.4h1.1v1.1h3.4v-1.1h1.1V86.7z M5.7,83.3v1.1H2.3v-1.1H5.7z M2.3,89v-1.2h4.5V89H2.3z"
	/>
<path class="st0" d="M9.1,89v-5.7h2.2v1.1h-1.1V89H9.1z M12.5,87.9h-1.1v-3.4h1.1V87.9z M14.7,83.4V89h-1.1v-4.5h-1.1v-1.2
	L14.7,83.4z"/>
<path class="st0" d="M21.5,87.8h-3.4V90H17v-6.8h4.5v1.1h-3.4v2.2h3.4V87.8z M22.6,86.7h-1.1v-2.2h1.1V86.7z"/>
<path class="st0" d="M24.9,89v-7.9H26v2.2h3.4v1.1H26V89H24.9z M29.4,89v-4.5h1.1V89H29.4z"/>
<path class="st0" d="M32.7,87.8v-1.1h1.1v1.1H32.7z M37.2,83.3v1.1h-3.4v-1.1H37.2z M37.2,87.8v-1.1h-3.4v-1.1h3.4v-1.1h1.1V89h-4.5
	v-1.2H37.2z"/>
<path class="st0" d="M40.6,84.5h1.1v1.1h-1.1V84.5z M45.1,87.8V89h-4.5v-1.2H45.1z M46.2,83.3v1.1h-4.5v-1.1H46.2z M45.1,85.6v1.1
	h-3.4v-1.1H45.1z M46.2,86.7v1.1h-1.1v-1.1H46.2z"/>
<path class="st0" d="M53,87.8V89h-3.4v-1.2h1.1v-3.4h-1.1v-1.1h2.2v4.5H53z M51.8,81.1v1.1h-1.1v-1.1H51.8z"/>
<path class="st0" d="M56.3,84.5h1.1v1.1h-1.1V84.5z M60.8,87.8V89h-4.5v-1.2H60.8z M62,83.3v1.1h-4.5v-1.1H62z M60.8,85.6v1.1h-3.4
	v-1.1H60.8z M62,86.7v1.1h-1.2v-1.1H62z"/>
<path class="st0" d="M68.7,87.8V89h-3.4v-1.2h1.1v-3.4h-1.1v-1.1h2.2v4.5H68.7z M67.6,81.1v1.1h-1.1v-1.1H67.6z"/>
<path class="st0" d="M72.1,89v-5.7h4.5v1.1h-3.4V89H72.1z M76.6,89v-4.5h1.1V89H76.6z"/>
<path class="st0" d="M80,84.5h1.1v2.2H80V84.5z M84.5,83.3v1.1h-3.4v-1.1H84.5z M84.5,87.8h-3.4v-1.1h3.4v-2.2h1.1V89h-1.1V87.8z
	 M81.1,89h3.4v1.1h-3.4V89z"/>
<path class="st0" d="M101.3,86.7h-4.5v1.1h-1.1v-3.4h1.1v1.1h3.4v-1.1h1.1V86.7z M100.2,83.3v1.1h-3.4v-1.1H100.2z M96.8,89v-1.2
	h4.5V89H96.8z"/>
<path class="st0" d="M103.6,84.5h1.1v3.4h-1.1V84.5z M109.2,83.3v1.1h-4.5v-1.1H109.2z M109.2,87.8V89h-4.5v-1.2H109.2z"/>
<path class="st0" d="M111.5,84.5h1.1v3.4h-1.1V84.5z M116,83.3v1.1h-3.4v-1.1H116z M116,87.8V89h-3.4v-1.2H116z M117.1,87.8H116
	v-3.4h1.1V87.8z"/>
<path class="st0" d="M119.3,89v-5.7h4.5v1.1h-3.4V89H119.3z M123.8,89v-4.5h1.2V89H123.8z"/>
<path class="st0" d="M127.2,84.5h1.1v3.4h-1.1L127.2,84.5z M131.7,83.3v1.1h-3.4v-1.1H131.7z M131.7,87.8V89h-3.4v-1.2H131.7z
	 M132.9,87.8h-1.1v-3.4h1.1V87.8z"/>
<path class="st0" d="M135.1,89v-5.7h2.2v1.1h-1.1V89H135.1z M138.5,87.9h-1.1v-3.4h1.1V87.9z M140.7,83.4V89h-1.1v-4.5h-1.1v-1.2
	L140.7,83.4z"/>
<path class="st0" d="M147.5,87.8V89h-3.4v-1.2h1.1v-3.4h-1.1v-1.1h2.2v4.5H147.5z M146.4,81.1v1.1h-1.1v-1.1H146.4z"/>
<path class="st0" d="M150.9,84.5h1.1v3.4h-1.1V84.5z M156.5,83.3v1.1H152v-1.1H156.5z M156.5,87.8V89H152v-1.2H156.5z"/>
<path class="st0" d="M5.7,101.3H2.3v2.2H1.2v-6.8h4.5V98H2.3v2.2h3.4V101.3z M6.8,100.2H5.7V98h1.1C6.8,98,6.8,100.2,6.8,100.2z"/>
<path class="st0" d="M9.1,102.5v-5.6h1.1V98h1.1v1.1h-1.1v3.4H9.1z M14.7,96.8V98h-3.4v-1.2H14.7z"/>
<path class="st0" d="M17,98h1.1v3.4H17V98z M21.5,96.9V98h-3.4v-1.2L21.5,96.9z M21.5,101.4v1.1h-3.4v-1.1H21.5z M22.6,101.4h-1.2
	V98h1.1L22.6,101.4z"/>
<path class="st0" d="M24.9,98H26v1.1h-1.1V98z M29.4,101.4v1.1h-4.5v-1.1H29.4z M30.5,96.9V98H26v-1.2L30.5,96.9z M29.4,99.1v1.1H26
	v-1.1H29.4z M30.5,100.2v1.1h-1.1v-1.1H30.5z"/>
<path class="st0" d="M37.2,101.3h-3.4v2.2h-1.1v-6.8h4.5V98h-3.4v2.2h3.4V101.3z M38.4,100.2h-1.1V98h1.1V100.2z"/>
<path class="st0" d="M46.2,100.2h-4.5v1.1h-1.1V98h1.1v1.1h3.4V98h1.1V100.2z M45.1,96.8V98h-3.4v-1.2H45.1z M41.7,102.5v-1.1h4.5
	v1.1H41.7z"/>
<path class="st0" d="M48.5,102.5v-5.6h1.1V98h1.1v1.1h-1.1v3.4H48.5z M54.1,96.8V98h-3.4v-1.2H54.1z"/>
<path class="st0" d="M60.8,101.3v1.1h-3.4v-1.1h1.1V98h-1.1v-1.2h2.2v4.5H60.8z M59.7,94.6v1.1h-1.1v-1.1H59.7z"/>
<path class="st0" d="M66.5,96.8h2.2V98h-2.2v3.4h-1.1V98h-1.1v-1.2h1.1v-2.2h1.1V96.8z M68.7,101.3v1.1h-2.2v-1.1H68.7z M69.8,100.2
	v1.1h-1.1v-1.1H69.8z"/>
<path class="st0" d="M72.1,100.2v-3.4h1.1v3.4H72.1z M76.6,101.3h-3.4v-1.1h3.4v-3.4h1.1v5.6h-1.1V101.3z M73.2,102.5h3.4v1.1h-3.4
	V102.5z"/>
<path class="st0" d="M82.2,101.3v1.1h-1.1v-1.1H82.2z M83.3,99.1v2.2h-1.1v-2.2H83.3z"/>
<path class="st0" d="M100.2,101.3v1.1h-3.4v-1.1H98V98h-1.2v-1.2H99v4.5H100.2z M99.1,94.6v1.1H98v-1.1H99.1z"/>
<path class="st0" d="M103.6,102.5v-5.6h4.5V98h-3.4v4.5H103.6z M108.1,102.5V98h1.1v4.5H108.1z"/>
<path class="st0" d="M113.7,96.8h2.3V98h-2.2v3.4h-1.2V98h-1.1v-1.2h1.1v-2.2h1.1C113.7,94.6,113.7,96.8,113.7,96.8z M116,101.3v1.1
	h-2.2v-1.1H116z M117.1,100.2v1.1H116v-1.1H117.1z"/>
<path class="st0" d="M119.3,102.5v-5.6h1.1V98h1.1v1.1h-1.1v3.4H119.3z M125,96.8V98h-3.4v-1.2H125z"/>
<path class="st0" d="M127.2,98h1.1v3.4h-1.1L127.2,98z M131.7,96.9V98h-3.4v-1.2L131.7,96.9z M131.7,101.4v1.1h-3.4v-1.1H131.7z
	 M132.9,101.4h-1.1V98h1.1V101.4z"/>
<path class="st0" d="M135.1,98h1.1v3.4h-1.1V98z M139.6,101.4V98h-3.4v-1.2h3.4v-2.2h1.1v7.9h-4.5v-1.1L139.6,101.4z"/>
<path class="st0" d="M143,101.3v-4.5h1.1v4.5H143z M146.4,101.3v1.1h-2.3v-1.1H146.4z M147.5,101.3h-1.1v-1.1h1.1v-3.4h1.1v5.6h-1.1
	V101.3z"/>
<path class="st0" d="M150.9,98h1.1v3.4h-1.1V98z M156.5,96.9V98H152v-1.2L156.5,96.9z M156.5,101.4v1.1H152v-1.1H156.5z"/>
<path class="st0" d="M164.4,100.2h-4.5v1.1h-1.1V98h1.1v1.1h3.4V98h1.1V100.2z M163.2,96.8V98h-3.4v-1.2H163.2z M159.9,102.5v-1.1
	h4.5v1.1H159.9z"/>
<path class="st0" d="M166.6,98h1.1v1.1h-1.1V98z M171.1,101.4v1.1h-4.5v-1.1H171.1z M172.2,96.9V98h-4.5v-1.2L172.2,96.9z
	 M171.1,99.1v1.1h-3.4v-1.1H171.1z M172.2,100.2v1.1h-1.1v-1.1H172.2z"/>
<path class="st0" d="M5.7,114.8v1.2H2.3v-1.1h1.1v-3.4H2.3v-1.1h2.2v4.5L5.7,114.8z M4.6,108.1v1.1H3.5v-1.1H4.6z"/>
<path class="st0" d="M9.1,116v-5.6h4.5v1.1h-3.4v4.5H9.1z M13.6,116v-4.5h1.1v4.5H13.6z"/>
<path class="st0" d="M19.2,110.3h2.2v1.1h-2.2v3.4h-1.1v-3.4H17v-1.1h1.1v-2.2h1.1V110.3z M21.5,114.8v1.2h-2.2v-1.1L21.5,114.8z
	 M22.6,113.7v1.1h-1.1v-1.1H22.6z"/>
<path class="st0" d="M30.5,113.7H26v1.1h-1.1v-3.4H26v1.1h3.4v-1.1h1.1V113.7z M29.3,110.3v1.1H26v-1.1H29.3z M26,116v-1.1h4.5v1.1
	H26z"/>
<path class="st0" d="M32.7,116v-5.6h1.1v1.1H35v1.1h-1.2v3.4H32.7z M38.4,110.4v1.1H35v-1.1H38.4z"/>
<path class="st0" d="M40.6,116v-5.6h4.5v1.1h-3.4v4.5H40.6z M45.1,116v-4.5h1.1v4.5H45.1z"/>
<path class="st0" d="M48.5,114.8v-1.1h1.1v1.1H48.5z M53,110.3v1.1h-3.4v-1.1H53z M53,114.8v-1.1h-3.4v-1.1H53v-1.1h1.1v4.5h-4.5
	v-1.1L53,114.8z"/>
<path class="st0" d="M58.6,110.3h2.2v1.1h-2.2v3.4h-1.1v-3.4h-1.1v-1.1h1.1v-2.2h1.1V110.3z M60.8,114.8v1.2h-2.2v-1.1L60.8,114.8z
	 M62,113.7v1.1h-1.2v-1.1H62z"/>
<path class="st0" d="M68.7,114.8v1.2h-3.4v-1.1h1.1v-3.4h-1.1v-1.1h2.2v4.5L68.7,114.8z M67.6,108.1v1.1h-1.1v-1.1H67.6z"/>
<path class="st0" d="M72.1,111.5h1.1v3.4h-1.1V111.5z M76.6,110.3v1.1h-3.4v-1.1H76.6z M76.6,114.8v1.2h-3.4v-1.1L76.6,114.8z
	 M77.7,114.8h-1.1v-3.4h1.1V114.8z"/>
<path class="st0" d="M80,116v-5.6h4.5v1.1h-3.4v4.5H80z M84.5,116v-4.5h1.1v4.5H84.5z"/>
<path class="st0" d="M87.8,114.8v-1.1H89v1.1H87.8z M92.3,110.3v1.1H89v-1.1H92.3z M92.3,114.8v-1.1H89v-1.1h3.4v-1.1h1.1v4.5H89
	v-1.1L92.3,114.8z"/>
<path class="st0" d="M100.2,114.8v1.2h-3.4v-1.1H98v-5.6h-1.2v-1.2H99v6.8h1.2V114.8z"/>
<path class="st0" d="M111.5,111.5h1.1v1.1h-1.1V111.5z M116,114.8v1.2h-4.5v-1.1L116,114.8z M117.1,110.3v1.1h-4.5v-1.1H117.1z
	 M116,112.6v1.1h-3.4v-1.1H116z M117.1,113.7v1.1H116v-1.1H117.1z"/>
<path class="st0" d="M119.3,111.5h1.1v3.4h-1.1V111.5z M123.8,110.3v1.1h-3.4v-1.1H123.8z M123.8,114.8v1.2h-3.4v-1.1L123.8,114.8z
	 M125,114.8h-1.1v-3.4h1.2L125,114.8z"/>
<path class="st0" d="M131.7,114.8v1.2h-3.4v-1.1h1.1v-5.6h-1.1v-1.2h2.2v6.8h1.2V114.8z"/>
<path class="st0" d="M139.6,114.8v1.2h-3.4v-1.1h1.1v-3.4h-1.1v-1.1h2.2v4.5L139.6,114.8z M138.5,108.1v1.1h-1.1v-1.1H138.5z"/>
<path class="st0" d="M143,111.5h1.1v3.4H143V111.5z M147.5,114.8v-3.4h-3.4v-1.1h3.4v-2.2h1.1v7.9h-4.5v-1.1L147.5,114.8z"/>
<path class="st0" d="M150.9,114.8v-1.1h1.1v1.1H150.9z M155.4,110.3v1.1H152v-1.1H155.4z M155.4,114.8v-1.1H152v-1.1h3.4v-1.1h1.1
	v4.5H152v-1.1L155.4,114.8z"/>
<path class="st0" d="M158.7,116v-5.6h1.1v1.1h1.1v1.1h-1.1v3.4H158.7z M164.4,110.4v1.1H161v-1.1H164.4z"/>
<path class="st0" d="M171.1,114.8v1.2h-3.4v-1.1h1.1v-3.4h-1.1v-1.1h2.3v4.5L171.1,114.8z M170,108.1v1.1h-1.1v-1.1H170z"/>
<path class="st0" d="M176.7,110.3h2.3v1.1h-2.2v3.4h-1.1v-3.4h-1.1v-1.1h1.1v-2.2h1.1v2.2H176.7z M179,114.8v1.2h-2.2v-1.1
	L179,114.8z M180.1,113.7v1.1H179v-1.1H180.1z"/>
<path class="st0" d="M182.4,113.7v-3.4h1.1v3.4H182.4z M186.9,114.8h-3.4v-1.1h3.4v-3.4h1.1v5.7h-1.1V114.8z M183.5,116h3.4v1.1
	h-3.4V116z"/>
<path class="st0" d="M1.2,128.4v-1.1h1.1v1.1H1.2z M5.7,123.9v1.1H2.3v-1.1H5.7z M5.7,128.4v-1.1H2.3v-1.1h3.4V125h1.1v4.5H2.3v-1.1
	H5.7z"/>
<path class="st0" d="M9.1,125h1.1v1.1H9.1V125z M13.6,128.4v1.1H9.1v-1.1H13.6z M14.7,123.9v1.1h-4.5v-1.1H14.7z M13.6,126.1v1.1
	h-3.4v-1.1H13.6z M14.7,127.2v1.1h-1.1v-1.1L14.7,127.2z"/>
<path class="st0" d="M24.9,128.4v-1.1H26v1.1H24.9z M29.4,123.9v1.1H26v-1.1H29.4z M29.4,128.4v-1.1H26v-1.1h3.4V125h1.1v4.5H26
	v-1.1H29.4z"/>
<path class="st0" d="M40.6,129.5v-7.9h1.1v4.5H44v1.1h-2.3v2.2h-1.1V129.5z M45.1,126.1H44V125h1.1V126.1z M44,128.4v-1.1h1.1v1.1
	H44z M46.2,123.9v1.1H45v-1.1H46.2z M45.1,128.4h1.1v1.1H45L45.1,128.4z"/>
<path class="st0" d="M54.1,127.2h-4.5v1.1h-1.1V125h1.1v1.1H53V125h1.1V127.2z M53,123.8v1.2h-3.4v-1.1L53,123.8z M49.6,129.5v-1.1
	h4.5v1.1H49.6z"/>
<path class="st0" d="M56.3,127.2v-3.4h1.1v3.4H56.3z M60.8,128.4h-3.4v-1.1h3.4v-3.4H62v5.6h-1.2V128.4z M57.5,129.5h3.4v1.1h-3.4
	V129.5z"/>
<path class="st0" d="M72.1,125h1.1v3.4h-1.1V125z M77.7,123.9v1.1h-4.5v-1.1H77.7z M77.7,128.4v1.1h-4.5v-1.1H77.7z"/>
<path class="st0" d="M80,125h1.1v3.4H80V125z M84.5,123.9v1.1h-3.4v-1.1H84.5z M84.5,128.4v1.1h-3.4v-1.1H84.5z M85.6,128.4h-1.2
	V125h1.1L85.6,128.4z"/>
<path class="st0" d="M87.8,129.5v-5.6h4.5v1.2H89v4.5L87.8,129.5z M92.3,129.5V125h1.1v4.5H92.3z"/>
<path class="st0" d="M95.7,125h1.1v3.4h-1.1V125z M101.3,123.9v1.1h-4.5v-1.1H101.3z M101.3,128.4v1.1h-4.5v-1.1H101.3z"/>
<path class="st0" d="M109.2,127.2h-4.5v1.1h-1.1V125h1.1v1.1h3.4V125h1.1V127.2z M108.1,123.8v1.2h-3.4v-1.1L108.1,123.8z
	 M104.7,129.5v-1.1h4.5v1.1H104.7z"/>
<path class="st0" d="M116,128.4h-3.4v2.2h-1.1v-6.8h4.5v1.1h-3.4v2.2h3.4V128.4z M117.1,127.2H116V125h1.1V127.2z"/>
<path class="st0" d="M121.6,123.8h2.2v1.2h-2.2v3.4h-1.1V125h-1.1v-1.1h1.1v-2.3h1.1V123.8z M123.8,128.4v1.1h-2.2v-1.1H123.8z
	 M125,127.2v1.1h-1.1v-1.1C123.9,127.2,125,127.2,125,127.2z"/>
<path class="st0" d="M130.6,128.4v1.1h-1.1v-1.1H130.6z"/>
<g class="st1">
	<path class="st2" d="M195,133.4L195,133.4H0V0.1L0.1,0l0,0l195,0.1v0.1L195,133.4z M0.1,133.3l194.8,0.1L195,0.2L0.1,0.1l0,0V133.3
		z"/>
</g>
</svg>
