<?xml version="1.0" encoding="utf-8"?>
<!-- Generator: Adobe Illustrator 22.1.0, SVG Export Plug-In . SVG Version: 6.00 Build 0)  -->
<svg version="1.1" id="Layer_1" xmlns="http://www.w3.org/2000/svg" xmlns:xlink="http://www.w3.org/1999/xlink" x="0px" y="0px"
	 viewBox="0 0 195.1 133.4" style="enable-background:new 0 0 195.1 133.4;" xml:space="preserve">
<style type="text/css">
	.st0{opacity:0.9;}
	.st1{opacity:0.45;enable-background:new    ;}
	.st2{opacity:0.2;enable-background:new    ;}
	.st3{opacity:0;fill:none;stroke:#000000;stroke-miterlimit:10;}
</style>
<title>Asset 6</title>
<path class="st0" d="M0.7,4.6V1.2h1.1v3.4C1.8,4.6,0.7,4.6,0.7,4.6z"/>
<path class="st0" d="M2.9,4.6V1.2H4V0.1h1.2v1.1H4v3.4C4,4.6,2.9,4.6,2.9,4.6z M6.3,2.3v2.2H5.2V2.3H6.3z"/>
<path class="st0" d="M7.4,3.5h1.1V2.3h1.1v1.1H8.5v1.1H7.4V3.5z"/>
<path class="st0" d="M10.8,1.2h1.1v1.1H13v2.2h-1.1V2.3h-1.1C10.8,2.3,10.8,1.2,10.8,1.2z"/>
<path class="st0" d="M14.2,3.5h1.1V2.3h1.1v1.1h-1.1v1.1h-1.1C14.2,4.5,14.2,3.5,14.2,3.5z"/>
<path class="st0" d="M19.8,1.2V0.1h1.1v1.1H19.8z M20.9,2.3v2.2h-1.1V2.3H20.9z"/>
<path class="st0" d="M22,2.3h1.1v1.1h1.1v1.1h-1.1v-1H22V2.3z"/>
<path class="st0" d="M27.7,4.6V3.5h1.1V2.3H31v2.2h-1.1v-1h-1.1v1.1H27.7z"/>
<path class="st0" d="M36.7,2.3v1.1h1.1v1.1h-1.1v-1h-1.1v1.1h-1.1V2.3H36.7z"/>
<path class="st0" d="M38.9,3.5H40V2.3h1.1v1.1H40v1.1h-1.1V3.5z"/>
<path class="st0" d="M42.3,4.6V2.3h1.1v1.1h1.1V2.3h1.1v1.1h1.1V2.3h1.1v1.1h-1.1v1.1h-1.1v-1h-1.1v1.1H42.3z"/>
<path class="st0" d="M51.3,1.2h1.1V0.1h1.1v1.1h-1.1v4.5h-1.1V1.2z"/>
<path class="st0" d="M53.5,4.6V3.5h1.1V2.3h1.1v1.1h1.1v1.1h-1.1v-1h-1.1v1.1H53.5z"/>
<path class="st0" d="M58,1.2h1.1v1.1h1.1v2.2h-1.1V2.3H58V1.2z"/>
<path class="st0" d="M61.4,2.3h2.2v1.1h1.1V2.3h1.1v1.1H67v1.1h-1.1v-1h-1.1v1.1h-1.1V3.5h-1.1v1.1h-1.1V2.3H61.4z"/>
<path class="st0" d="M70.4,4.6V3.5h1.1V2.3h1.1v1.1h1.1v1.1h-1.1v-1h-1.1v1.1H70.4z"/>
<path class="st0" d="M74.9,1.2H76V0.1h1.1v1.1H76v4.5h-1.1V1.2z"/>
<path class="st0" d="M80.5,4.6V0.1h1.1v4.5H80.5z"/>
<path class="st0" d="M82.8,1.2V0.1h1.1v1.1H82.8z M83.9,2.3v2.2h-1.1V2.3H83.9z"/>
<path class="st0" d="M86.2,0.1v4.5H85V0.1H86.2z M87.3,4.6V2.3h1.1v2.2L87.3,4.6L87.3,4.6z"/>
<path class="st0" d="M89.5,3.5h1.1V2.3h1.1v1.1h-1.1v1.1h-1.1V3.5z"/>
<path class="st0" d="M92.9,1.2H94v1.1h1.1v2.2H94V2.3h-1.1V1.2z"/>
<path class="st0" d="M96.3,4.6V3.5h1.1V2.3h2.3v2.2h-1.1v-1h-1.1v1.1H96.3z"/>
<path class="st0" d="M100.8,4.6V0.1h1.1v4.5H100.8z"/>
<path class="st0" d="M105.3,1.2V0.1h1.1v1.1H105.3z M106.4,2.3v2.2h-1.1V2.3H106.4z"/>
<path class="st0" d="M109.8,2.3v1.1h1.1v1.1h-1.1v-1h-1.1v1.1h-1.1V2.3H109.8z"/>
<path class="st0" d="M112,4.6V1.2h1.1v3.4C113.1,4.6,112,4.6,112,4.6z"/>
<path class="st0" d="M114.3,3.5h1.1V2.3h1.1v1.1h-1.1v1.1h-1.1V3.5z"/>
<path class="st0" d="M117.7,1.2h1.1v1.1h1.1v2.2h-1.1V2.3h-1.1V1.2z"/>
<path class="st0" d="M123.3,2.3v1.1h1.1v1.1h-1.1v-1h-1.1v1.1H121V2.3H123.3z"/>
<path class="st0" d="M125.5,4.6V3.5h1.1V2.3h2.3v2.2h-1.1v-1h-1.1v1.1H125.5z"/>
<path class="st0" d="M130,4.6V1.2h1.1v3.4C131.1,4.6,130,4.6,130,4.6z"/>
<path class="st0" d="M132.3,1.2V0.1h1.1v1.1H132.3z M133.4,2.3v2.2h-1.1V2.3H133.4z"/>
<path class="st0" d="M134.5,4.6V3.5h1.1V2.3h1.1v1.1h1.1v1.1h-1.1v-1h-1.1v1.1H134.5z"/>
<path class="st0" d="M141.3,2.3v1.1h1.1v1.1h-1.1v-1h-1.1v1.1H139V2.3H141.3z"/>
<path class="st0" d="M143.5,4.6V3.5h1.1V2.3h2.3v2.2h-1.1v-1h-1.1v1.1H143.5z"/>
<path class="st0" d="M148,4.6V0.1h1.1v4.5H148z"/>
<path class="st0" d="M150.3,1.2V0.1h1.1v1.1H150.3z M151.4,2.3v2.2h-1.1V2.3H151.4z"/>
<path class="st0" d="M152.5,2.3h1.1v1.1h1.1v1.1h-1.1v-1h-1.1V2.3z"/>
<path class="st0" d="M155.9,2.3h2.3v1.1h1.1V2.3h1.1v1.1h1.1v1.1h-1.1v-1h-1.1v1.1h-1.1V3.5H157v1.1h-1.1V2.3z"/>
<path class="st0" d="M164.9,4.6V2.3h1.1v2.2L164.9,4.6L164.9,4.6z M166,1.2V0.1h1.1v1.1h1.1v3.4h-1.1V1.2H166z"/>
<path class="st0" d="M169.4,3.5h1.1V2.3h1.1v1.1h-1.1v1.1h-1.1V3.5z"/>
<path class="st0" d="M172.8,4.6V2.3h1.1v1.1h1.1V2.3h1.1v1.1H175v1.1L172.8,4.6L172.8,4.6z"/>
<path class="st0" d="M177.3,3.5h1.1V2.3h1.1v1.1h-1.1v1.1h-1.1V3.5z"/>
<path class="st0" d="M180.7,4.6V0.1h1.1v4.5H180.7z"/>
<path class="st0" d="M182.9,4.6V3.5h1.1V2.3h1.1v1.1h1.1v1.1h-1.1v-1H184v1.1H182.9z"/>
<path class="st0" d="M187.4,5.7V2.3h1.1v3.4H187.4z"/>
<path class="st0" d="M190.8,2.3h1.1v1.1h-1.1V2.3z"/>
<path class="st0" d="M0.7,10.1V9h1.1v1.1H0.7z M1.8,11.2v2.2H0.7v-2.2H1.8z"/>
<path class="st0" d="M5.2,11.2v1.1h1.1v1.1H5.2v-1.1H4v1.1H2.9v-2.2C2.9,11.2,5.2,11.2,5.2,11.2z"/>
<path class="st0" d="M8.5,11.2v-1.1h1.1v1.1H8.5v1.1H7.4v-1.1H8.5z M9.7,13.5v1.1H7.4v-1.1H9.7z"/>
<path class="st0" d="M13,10.1V9h1.1v1.1H13z M14.1,11.2v2.2H13v-2.2H14.1z"/>
<path class="st0" d="M17.5,11.2v1.1h1.1v1.1h-1.1v-1.1h-1.1v1.1h-1.1v-2.2C15.3,11.2,17.5,11.2,17.5,11.2z"/>
<path class="st0" d="M22,10.1h1.1V9h1.1v1.1h-1.1v4.5H22V10.1z"/>
<path class="st0" d="M25.4,10.1h1.1v1.1h1.1v2.2h-1.1v-2.2h-1.1V10.1z"/>
<path class="st0" d="M28.8,13.5v-1.1h1.1v-1.1h2.3v2.2H31v-1.1h-1.1v1.1C29.9,13.5,28.8,13.5,28.8,13.5z"/>
<path class="st0" d="M35.5,11.2v1.1h1.1v1.1h-1.1v-1.1h-1.1v1.1h-1.1v-2.2C33.3,11.2,35.5,11.2,35.5,11.2z"/>
<path class="st0" d="M37.8,12.4h1.1v-1.1H40v1.1h-1.1v1.1h-1.1C37.8,13.5,37.8,12.4,37.8,12.4z"/>
<path class="st0" d="M41.2,12.4h1.1v-1.1h1.1v1.1h-1.1v1.1h-1.1V12.4z"/>
<path class="st0" d="M46.8,10.1V9h1.1v1.1H46.8z M47.9,11.2v2.2h-1.1v-2.2H47.9z"/>
<path class="st0" d="M51.3,11.2v1.1h1.1v1.1h-1.1v-1.1h-1.1v1.1H49v-2.2C49,11.2,51.3,11.2,51.3,11.2z"/>
<path class="st0" d="M55.8,13.5v-3.4h1.1v3.4H55.8z"/>
<path class="st0" d="M58,13.5v-3.4h1.1V9h1.1v1.1h-1.1v3.4H58z M61.4,11.2v2.2h-1.1v-2.2H61.4z"/>
<path class="st0" d="M62.5,12.4h1.1v-1.1h1.1v1.1h-1.1v1.1h-1.1V12.4z"/>
<path class="st0" d="M68.2,12.4v-1.1h1.1v1.1H68.2z M70.4,13.5v-2.2h1.1v2.2H70.4v1.1h-1.1v-1.1H70.4z"/>
<path class="st0" d="M72.7,12.4h1.1v-1.1h1.1v1.1h-1.1v1.1h-1.1V12.4z"/>
<path class="st0" d="M76,13.5v-1.1h1.1v-1.1h2.2v2.2h-1.1v-1.1h-1.1v1.1C77.1,13.5,76,13.5,76,13.5z"/>
<path class="st0" d="M80.5,10.1h1.1v1.1h1.1v2.2h-1.1v-2.2h-1.1V10.1z"/>
<path class="st0" d="M83.9,11.2H85v1.1h1.1v1.1H85v-1.1h-1.1V11.2z"/>
<path class="st0" d="M89.5,13.5v-1.1h1.1v-1.1h2.2v2.2h-1.1v-1.1h-1.1v1.1C90.6,13.5,89.5,13.5,89.5,13.5z"/>
<path class="st0" d="M94,10.1h1.1V9h1.1v1.1h-1.1v4.5H94V10.1z"/>
<path class="st0" d="M97.4,13.5v-3.4h1.1v3.4H97.4z"/>
<path class="st0" d="M99.7,12.4h1.1v-1.1h1.1v1.1h-1.1v1.1h-1.1V12.4z"/>
<path class="st0" d="M103,10.1h1.1v1.1h1.1v2.2h-1.1v-2.2H103V10.1z"/>
<path class="st0" d="M108.7,13.5v-3.4h1.1v3.4H108.7z"/>
<path class="st0" d="M110.9,13.5v-3.4h1.1V9h1.1v1.1H112v3.4H110.9z M114.3,11.2v2.2h-1.1v-2.2H114.3z"/>
<path class="st0" d="M115.4,12.4h1.1v-1.1h1.1v1.1h-1.1v1.1h-1.1V12.4z"/>
<path class="st0" d="M121,10.1h1.1V9h1.1v1.1h-1.1v4.5H121V10.1z"/>
<path class="st0" d="M124.4,10.1V9h1.1v1.1H124.4z M125.5,11.2v2.2h-1.1v-2.2H125.5z"/>
<path class="st0" d="M126.7,10.1h1.1v1.1h1.1v2.2h-1.1v-2.2h-1.1V10.1z"/>
<path class="st0" d="M130,11.2h1.1v1.1h1.1v1.1h-1.1v-1.1H130V11.2z"/>
<path class="st0" d="M133.4,13.5v-3.4h1.1v3.4H133.4z"/>
<path class="st0" d="M137.9,13.5v-2.2h1.1v1.1h1.1v-1.1h1.1v1.1h1.1v-1.1h1.1v1.1h-1.1v1.1h-1.1v-1.1h-1.1v1.1
	C140.1,13.5,137.9,13.5,137.9,13.5z"/>
<path class="st0" d="M144.7,13.5v-1.1h1.1v-1.1h1.1v1.1h1.1v1.1h-1.1v-1.1h-1.1v1.1H144.7z"/>
<path class="st0" d="M149.2,10.1h1.1v1.1h1.1v2.2h-1.1v-2.2h-1.1V10.1z"/>
<path class="st0" d="M152.5,13.5V9h1.1v4.5H152.5z"/>
<path class="st0" d="M154.8,13.5v-2.2h1.1v2.2H154.8z M155.9,10.1V9h1.1v1.1h1.1v3.4H157v-3.4H155.9z"/>
<path class="st0" d="M161.5,13.5v-2.2h1.1v1.1h1.1v-1.1h1.1v1.1h1.1v-1.1h1.1v1.1h-1v1.1h-1.1v-1.1h-1.1v1.1
	C163.8,13.5,161.5,13.5,161.5,13.5z"/>
<path class="st0" d="M168.3,13.5v-1.1h1.1v-1.1h2.2v2.2h-1.1v-1.1h-1.1v1.1C169.4,13.5,168.3,13.5,168.3,13.5z"/>
<path class="st0" d="M172.8,10.1h1.1v1.1h1.1v2.2h-1.1v-2.2h-1.1V10.1z"/>
<path class="st0" d="M177.3,12.4h1.1v1.1h-1.1V12.4z"/>
<path class="st0" d="M181.8,13.5v-3.4h1.1v3.4H181.8z"/>
<path class="st0" d="M184,13.5v-3.4h1.1V9h1.1v1.1h-1.1v3.4H184z M187.4,11.2v2.2h-1.1v-2.2H187.4z"/>
<path class="st0" d="M188.5,10.1V9h1.1v1.1H188.5z M189.7,11.2v2.2h-1.1v-2.2H189.7z"/>
<path class="st0" d="M190.8,11.2h1.1v1.1h1.1v1.1h-1.1v-1.1h-1.1V11.2z"/>
<path class="st0" d="M2.9,20.1v1.1H4v1.1H2.9v-1.1H1.8v1.1H0.7v-2.2H2.9z"/>
<path class="st0" d="M5.2,21.3h1.1v-1.1h1.1v1.1H6.3v1.1H5.2V21.3z"/>
<path class="st0" d="M8.5,22.4v-2.2h1.1v1.1h1.1v-1.1h1.1v1.1H13v-1.1h1.1v1.1H13v1.1h-1.1v-1.1h-1.1v1.1H8.5z"/>
<path class="st0" d="M17.5,22.4v-4.5h1.1v4.5H17.5z"/>
<path class="st0" d="M19.8,19v-1.1h1.1V19H19.8z M20.9,20.1v2.3h-1.1v-2.2L20.9,20.1z"/>
<path class="st0" d="M23.2,17.9v4.5H22v-4.5H23.2z M24.3,22.4v-2.2h1.1v2.2H24.3z"/>
<path class="st0" d="M26.5,21.3h1.1v-1.1h1.1v1.1h-1.1v1.1h-1.1V21.3z"/>
<path class="st0" d="M29.9,19H31v1.1h1.1v2.3H31v-2.2h-1.1V19z"/>
<path class="st0" d="M33.3,22.4v-1.1h1.1v-1.1h2.3v2.2h-1.1v-1.1h-1.1v1.1H33.3z"/>
<path class="st0" d="M37.8,22.4v-4.5h1.1v4.5H37.8z"/>
<path class="st0" d="M40,19v-1.1h1.1V19H40z M41.1,20.1v2.3H40v-2.2L41.1,20.1z"/>
<path class="st0" d="M42.3,20.1h1.1v1.1h1.1v1.1h-1.1v-1.1h-1.1V20.1z"/>
<path class="st0" d="M45.7,20.1H48v1.1h1v-1.1h1.1v1.1h1.1v1.1h-1.1v-1.1H49v1.1h-1.1v-1.1h-1.1v1.1h-1.1
	C45.7,22.3,45.7,20.1,45.7,20.1z"/>
<path class="st0" d="M53.5,23.5h-1.1v-1.1h1.1V23.5z"/>
<path class="st0" d="M56.9,22.4v-2.2H58v1.1h1.1v-1.1h1.1v1.1h1.1v-1.1h1.1v1.1h-1.1v1.1h-1.1v-1.1h-1.1v1.1H56.9z"/>
<path class="st0" d="M63.7,22.4V19h1.1v-1.1h1.1V19h-1.1v3.4H63.7z M67,20.1v2.2h-1.1v-2.2H67z"/>
<path class="st0" d="M68.2,19v-1.1h1.1V19H68.2z M69.3,20.1v2.3h-1.1v-2.2L69.3,20.1z"/>
<path class="st0" d="M70.4,22.4v-4.5h1.1v4.5H70.4z"/>
<path class="st0" d="M72.7,20.1h1.1v1.1h1.1v1.1h-1.1v-1.1h-1.1V20.1z"/>
<path class="st0" d="M76,22.4V19h1.1v3.4H76z"/>
<path class="st0" d="M80.5,21.3h1.1v-1.1h1.1v1.1h-1.1v1.1h-1.1V21.3z"/>
<path class="st0" d="M83.9,20.1h2.2v1.1h1.1v-1.1h1.1v1.1h1.1v1.1h-1.1v-1.1h-1.1v1.1h-1.1v-1.1H85v1.1h-1.1V20.1z"/>
<path class="st0" d="M90.7,23.5v-3.4h1.1v3.4H90.7z"/>
<path class="st0" d="M94,22.4V19h1.1v-1.1h1.1V19h-1.1v3.4H94z M97.4,20.1v2.2h-1.1v-2.2H97.4z"/>
<path class="st0" d="M98.5,22.4v-1.1h1.1v-1.1h2.3v2.2h-1.1v-1.1h-1.1v1.1H98.5z"/>
<path class="st0" d="M103,20.1h1.1v1.1h1.1v1.1h-1.1v-1.1H103V20.1z"/>
<path class="st0" d="M106.4,19v-1.1h1.1V19H106.4z M107.5,20.1v2.3h-1.1v-2.2L107.5,20.1z"/>
<path class="st0" d="M108.7,20.1h1.1v1.1h1.1v1.1h-1.1v-1.1h-1.1V20.1z"/>
<path class="st0" d="M112,19v-1.1h1.1V19H112z M113.1,20.1v2.3H112v-2.2L113.1,20.1z"/>
<path class="st0" d="M116.5,20.1v1.1h1.1v1.1h-1.1v-1.1h-1.1v1.1h-1.1v-2.2H116.5z"/>
<path class="st0" d="M119.9,20.1V19h1.1v1.1H119.9v1.1h-1.1v-1.1H119.9z M121,22.4v1.1h-2.2v-1.1H121z"/>
<path class="st0" d="M124.4,21.3h1.1v-1.1h1.1v1.1h-1.1v1.1h-1.1V21.3z"/>
<path class="st0" d="M127.8,21.3h1.1v-1.1h1.1v1.1h-1.1v1.1h-1.1L127.8,21.3z"/>
<path class="st0" d="M131.2,22.4v-1.1h1.1v-1.1h1.1v1.1h1.1v1.1h-1.1v-1.1h-1.1v1.1H131.2z"/>
<path class="st0" d="M137.9,20.1v1.1h1.1v1.1h-1.1v-1.1h-1.1v1.1h-1.1v-2.2H137.9z"/>
<path class="st0" d="M140.2,22.4v-1.1h1.1v-1.1h1.1v1.1h1.1v1.1h-1.1v-1.1h-1.1v1.1H140.2z"/>
<path class="st0" d="M144.7,20.1h2.3v1.1h1.1v-1.1h1.1v1.1h1.1v1.1h-1.1v-1.1H148v1.1h-1.1v-1.1h-1.1v1.1h-1.1L144.7,20.1z"/>
<path class="st0" d="M151.4,19v-1.1h1.1V19H151.4z M152.5,20.1v2.3h-1.1v-2.2L152.5,20.1z"/>
<path class="st0" d="M153.7,21.3h1.1v-1.1h1.1v1.1h-1.1v1.1h-1.1V21.3z"/>
<path class="st0" d="M159.3,23.5v-3.4h1.1v3.4H159.3z"/>
<path class="st0" d="M162.7,19h1.1v1.1h1.1v2.3h-1.1v-2.2h-1.1V19z"/>
<path class="st0" d="M166,22.4v-1.1h1.1v-1.1h1.1v1.1h1.1v1.1h-1.1v-1.1h-1.1v1.1H166z"/>
<path class="st0" d="M170.5,20.1h1.1v1.1h1.1v1.1h-1.1v-1.1h-1.1V20.1z"/>
<path class="st0" d="M173.9,23.5v-3.4h1.1v3.4H173.9z"/>
<path class="st0" d="M177.3,21.3h1.1v-1.1h1.1v1.1h-1.1v1.1h-1.1V21.3z"/>
<path class="st0" d="M180.7,19h1.1v1.1h1.1v2.3h-1.1v-2.2h-1.1V19z"/>
<path class="st0" d="M184,19v-1.1h1.1V19H184z M185.1,20.1v2.3H184v-2.2L185.1,20.1z"/>
<path class="st0" d="M186.3,22.4V19h1.1v3.4H186.3z"/>
<path class="st0" d="M188.5,21.3v-1.1h1.1v1.1H188.5z M190.8,22.4v-2.2h1.1v2.2H190.8v1.1h-1.1v-1.1H190.8z"/>
<path class="st0" d="M194.2,23.5H193v-1.1h1.1L194.2,23.5z"/>
<path class="st0" d="M0.7,27.9v-1.1h1.1v1.1H0.7z M1.8,29v2.2H0.7V29H1.8z"/>
<path class="st0" d="M5.2,29v1.1h1.1v1.1H5.2v-1.1H4v1.1H2.9V29H5.2z"/>
<path class="st0" d="M7.4,31.3v-3.4h1.1v3.4H7.4z"/>
<path class="st0" d="M9.7,27.9h1.1V29h1.1v2.2h-1.1V29H9.7V27.9z"/>
<path class="st0" d="M13,31.3v-1.1h1.1V29h1.1v1.1h1.1v1.1h-1.1v-1.1h-1.1v1.1L13,31.3L13,31.3z"/>
<path class="st0" d="M17.5,31.3V29h1.1v2.2L17.5,31.3L17.5,31.3z M18.7,27.9v-1.1h1.1v1.1h1.1v3.4h-1.1v-3.4H18.7z"/>
<path class="st0" d="M22,31.3V29h1.1v2.2L22,31.3L22,31.3z M24.2,29h1.1v2.2h-1.1V29z"/>
<path class="st0" d="M26.5,30.2h1.1V29h1.1v1.1h-1.1v1.1h-1.1V30.2z"/>
<path class="st0" d="M29.9,30.2H31V29h1.1v1.1H31v1.1h-1.1V30.2z"/>
<path class="st0" d="M33.3,29h1.1v1.1h1.1v1.1h-1.1v-1.1h-1.1V29z"/>
<path class="st0" d="M38.9,27.9v-1.1H40v1.1H38.9z M40,29v2.2h-1.1V29H40z"/>
<path class="st0" d="M43.4,29v1.1h1.1v1.1h-1.1v-1.1h-1.1v1.1h-1.1V29H43.4z"/>
<path class="st0" d="M45.7,31.3v-3.4h1.1v3.4H45.7z"/>
<path class="st0" d="M47.9,30.2H49V29h1.1v1.1H49v1.1h-1.1V30.2z"/>
<path class="st0" d="M51.3,27.9h1.1V29h1.1v2.2h-1.1V29h-1.1V27.9z"/>
<path class="st0" d="M56.9,29v1.1H58v1.1h-1.1v-1.1h-1.1v1.1h-1.1V29H56.9z"/>
<path class="st0" d="M59.2,31.3v-1.1h1.1V29h2.2v2.2h-1.1v-1.1h-1.1v1.1L59.2,31.3L59.2,31.3z"/>
<path class="st0" d="M63.7,31.3v-3.4h1.1v3.4H63.7z"/>
<path class="st0" d="M65.9,27.9v-1.1H67v1.1H65.9z M67,29v2.2h-1.1V29H67z"/>
<path class="st0" d="M68.2,31.3v-1.1h1.1V29h1.1v1.1h1.1v1.1h-1.1v-1.1h-1.1v1.1L68.2,31.3L68.2,31.3z"/>
<path class="st0" d="M74.9,29v1.1H76v1.1h-1.1v-1.1h-1.1v1.1h-1.1V29H74.9z"/>
<path class="st0" d="M77.2,31.3v-1.1h1.1V29h2.2v2.2h-1.1v-1.1h-1.1v1.1L77.2,31.3L77.2,31.3z"/>
<path class="st0" d="M81.7,31.3v-4.5h1.1v4.5H81.7z"/>
<path class="st0" d="M86.2,29h1.1v1.1h1.1v1.1h-1.1v-1.1h-1.1V29z"/>
<path class="st0" d="M89.5,31.3v-1.1h1.1V29h1.1v1.1h1.1v1.1h-1.1v-1.1h-1.1v1.1L89.5,31.3L89.5,31.3z"/>
<path class="st0" d="M94,31.3v-4.5h1.1v4.5H94z"/>
<path class="st0" d="M96.3,27.9v-1.1h1.1v1.1H96.3z M97.4,29v2.2h-1.1V29H97.4z"/>
<path class="st0" d="M98.5,31.3V29h1.1v2.2L98.5,31.3L98.5,31.3z M99.7,27.9v-1.1h1.1v1.1h1.1v3.4h-1.1v-3.4H99.7z"/>
<path class="st0" d="M103,31.3v-1.1h1.1V29h2.2v2.2h-1.1v-1.1h-1.1v1.1L103,31.3L103,31.3z"/>
<path class="st0" d="M107.5,27.9h1.1V29h1.1v2.2h-1.1V29h-1.1V27.9z"/>
<path class="st0" d="M110.9,27.9v-1.1h1.1v1.1H110.9z M112,29v2.2h-1.1V29H112z"/>
<path class="st0" d="M113.2,31.3v-3.4h1.1v3.4H113.2z"/>
<path class="st0" d="M115.4,30.2V29h1.1v1.1h-1.1V30.2z M117.7,31.3V29h1.1v2.2L117.7,31.3v1h-1.1v-1.1h1.1V31.3z"/>
<path class="st0" d="M122.2,31.3v-1.1h1.1V29h2.2v2.2h-1.1v-1.1h-1.1v1.1L122.2,31.3L122.2,31.3z"/>
<path class="st0" d="M126.7,29h1.1v1.1h1.1v1.1h-1.1v-1.1h-1.1V29z"/>
<path class="st0" d="M132.3,31.3v-1.1h1.1V29h2.3v2.2h-1.1v-1.1h-1.1v1.1L132.3,31.3L132.3,31.3z"/>
<path class="st0" d="M139,31.3v-3.4h1.1v-1.1h1.1v1.1h-1.1v3.4H139z M142.4,29v1.1h-1.1V29H142.4z M142.4,31.3v1.1h-1.1v-1.1
	C141.3,31.3,142.4,31.3,142.4,31.3z"/>
<path class="st0" d="M143.5,30.2h1.1V29h1.1v1.1h-1.1v1.1h-1.1V30.2z"/>
<path class="st0" d="M146.9,30.2V29h1.1v1.1h-1.1V30.2z M149.2,31.3V29h1.1v2.2L149.2,31.3v1H148v-1.1h1.2V31.3z"/>
<path class="st0" d="M153.7,30.2h1.1V29h1.1v1.1h-1.1v1.1h-1.1V30.2z"/>
<path class="st0" d="M157,31.3v-1.1h1.1V29h1.1v1.1h1.1v1.1h-1.1v-1.1h-1.1v1.1L157,31.3L157,31.3z"/>
<path class="st0" d="M163.8,29v1.1h1.1v1.1h-1.1v-1.1h-1.1v1.1h-1.1V29H163.8z"/>
<path class="st0" d="M166,30.2h1.1V29h1.1v1.1h-1.1v1.1H166V30.2z"/>
<path class="st0" d="M169.4,30.2h1.1V29h1.1v1.1h-1.1v1.1h-1.1V30.2z"/>
<path class="st0" d="M172.8,32.4V29h1.1v3.4H172.8z"/>
<path class="st0" d="M176.2,31.3v-3.4h1.1v3.4H176.2z"/>
<path class="st0" d="M179.5,30.2h1.1v1.1h-1.1V30.2z"/>
<path class="st1" d="M184,27.9v-1.1h1.1v1.1H184z M185.1,29v2.2H184V29H185.1z"/>
<path class="st1" d="M186.3,31.3v-3.4h1.1v3.4H186.3z"/>
<path class="st1" d="M0.7,36.8v-1.1h1.1v1.1H0.7z M1.8,38v2.2H0.7V38H1.8z"/>
<path class="st1" d="M5.2,38v1.1h1.1v1.1H5.2v-1.1H4v1.1H2.9V38H5.2z"/>
<path class="st1" d="M7.4,38h1.1v1.1h1.1v1.1H8.5v-1.1H7.4V38z"/>
<path class="st1" d="M10.8,36.8v-1.1h1.1v1.1H10.8z M11.9,38v2.2h-1.1V38H11.9z"/>
<path class="st1" d="M13,38h1.1v1.1h1.1v1.1h-1.1v-1.1H13V38z"/>
<path class="st1" d="M16.4,40.2v-3.4h1.1v3.4H16.4z"/>
<path class="st1" d="M18.7,39.1h1.1V38h1.1v1.1h-1.1v1.1h-1.1V39.1z"/>
<path class="st1" d="M22,40.2V38h1.1v2.2H22z M23.1,36.8v-1.1h1.1v1.1h1.1v3.4h-1.1v-3.4H23.1z"/>
<path class="st1" d="M28.8,40.2v-1.1h1.1V38H31v1.1h1.1v1.1H31v-1.1h-1.1v1.1C29.9,40.2,28.8,40.2,28.8,40.2z"/>
<path class="st1" d="M35.5,38v1.1h1.1v1.1h-1.1v-1.1h-1.1v1.1h-1.1V38H35.5z"/>
<path class="st1" d="M40,36.8v-1.1h1.1v1.1H40z M41.2,38v2.2H40V38H41.2z"/>
<path class="st1" d="M44.5,38v1.1h1.1v1.1h-1.1v-1.1h-1.1v1.1h-1.1V38H44.5z"/>
<path class="st1" d="M46.8,40.2v-3.4h1.1v3.4H46.8z"/>
<path class="st1" d="M49,39.1h1.1V38h1.1v1.1h-1.1v1.1H49V39.1z"/>
<path class="st1" d="M52.4,36.8h1.1V38h1.1v2.2h-1.1V38h-1.1V36.8z"/>
<path class="st1" d="M58,38v1.1h1.1v1.1H58v-1.1h-1.1v1.1h-1.1V38H58z"/>
<path class="st1" d="M60.3,40.2v-1.1h1.1V38h2.3v2.2h-1.1v-1.1h-1.1v1.1H60.3z"/>
<path class="st1" d="M64.8,40.2v-3.4h1.1v3.4H64.8z"/>
<path class="st1" d="M67,36.8v-1.1h1.1v1.1H67z M68.2,38v2.2H67V38H68.2z"/>
<path class="st1" d="M69.3,40.2v-1.1h1.1V38h1.1v1.1h1.1v1.1h-1.1v-1.1h-1.1v1.1C70.4,40.2,69.3,40.2,69.3,40.2z"/>
<path class="st1" d="M76,38v1.1h1.1v1.1H76v-1.1h-1.1v1.1h-1.1V38H76z"/>
<path class="st1" d="M78.3,40.2v-1.1h1.1V38h2.3v2.2h-1.1v-1.1h-1.1v1.1H78.3z"/>
<path class="st1" d="M82.8,40.2v-4.5h1.1v4.5H82.8z"/>
<path class="st1" d="M87.3,36.8v-1.1h1.1v1.1H87.3z M88.4,38v2.2h-1.1V38H88.4z"/>
<path class="st1" d="M91.8,38v1.1h1.1v1.1h-1.1v-1.1h-1.1v1.1h-1.1V38H91.8z"/>
<path class="st1" d="M94,40.2v-3.4h1.1v3.4H94z"/>
<path class="st1" d="M96.3,39.1h1.1V38h1.1v1.1h-1.1v1.1h-1.1V39.1z"/>
<path class="st1" d="M99.7,36.8h1.1V38h1.1v2.2h-1.1V38h-1.1V36.8z"/>
<path class="st1" d="M105.3,40.2V38h1.1v2.2H105.3z M106.4,36.8v-1.1h1.1v1.1h1.1v3.4h-1.1v-3.4H106.4z"/>
<path class="st1" d="M109.8,39.1h1.1V38h1.1v1.1h-1.1v1.1h-1.1V39.1z"/>
<path class="st1" d="M113.2,41.3V38h1.1v3.4L113.2,41.3z"/>
<path class="st1" d="M116.5,39.1h1.1V38h1.1v1.1h-1.1v1.1h-1.1V39.1z"/>
<path class="st1" d="M122.2,38v1.1h1.1v1.1h-1.1v-1.1H121v1.1h-1.1V38H122.2z"/>
<path class="st1" d="M124.4,40.2V38h1.1v2.2H124.4z M125.5,36.8v-1.1h1.1v1.1h1.1v3.4h-1.1v-3.4H125.5z"/>
<path class="st1" d="M128.9,39.1h1.1V38h1.1v1.1H130v1.1h-1.1V39.1z"/>
<path class="st1" d="M134.5,38v1.1h1.1v1.1h-1.1v-1.1h-1.1v1.1h-1.1V38H134.5z"/>
<path class="st1" d="M136.8,39.1h1.1V38h1.1v1.1h-1.1v1.1h-1.1V39.1z"/>
<path class="st1" d="M140.2,39.1h1.1V38h1.1v1.1h-1.1v1.1h-1.1V39.1z"/>
<path class="st1" d="M146.9,35.7v4.5h-1.1v-4.5H146.9z M148,40.2V38h1.1v2.2H148z"/>
<path class="st1" d="M150.3,39.1h1.1V38h1.1v1.1h-1.1v1.1h-1.1V39.1z"/>
<path class="st1" d="M153.7,36.8v-1.1h1.1v1.1H153.7z M154.8,38v2.2h-1.1V38H154.8z"/>
<path class="st1" d="M158.2,38v1.1h1.1v1.1h-1.1v-1.1H157v1.1h-1.1V38H158.2z"/>
<path class="st1" d="M161.5,38v-1.2h1.1V38H161.5v1.1h-1.1V38H161.5z M162.7,40.2v1.1h-2.3v-1.2L162.7,40.2z"/>
<path class="st1" d="M166,40.2v-1.1h1.1V38h2.3v2.2h-1.1v-1.1h-1.1v1.1H166z"/>
<path class="st1" d="M172.8,36.8h1.1V38h1.1v2.2h-1.1V38h-1.1V36.8z"/>
<path class="st1" d="M176.2,39.1h1.1V38h1.1v1.1h-1.1v1.1h-1.1V39.1z"/>
<path class="st1" d="M179.5,38h1.1v1.1h1.1v1.1h-1.1v-1.1h-1.1V38z"/>
<path class="st1" d="M182.9,40.2V38h1.1v2.2H182.9z M185.2,38h1.1v2.2h-1.1V38z"/>
<path class="st1" d="M187.4,40.2v-4.5h1.1v4.5H187.4z"/>
<path class="st1" d="M189.7,40.2v-3.4h1.1v3.4H189.7z"/>
<path class="st1" d="M0.7,49.1V48h1.1v-1.2h1.1V48H4v1.1H2.9V48H1.8v1.1H0.7z"/>
<path class="st1" d="M5.2,45.7h1.1v-1.1h1.1v1.1H6.3v4.5H5.2V45.7z"/>
<path class="st1" d="M10.8,49.1V48h1.1v-1.2h2.3V49H13v-1h-1.1v1.1H10.8z"/>
<path class="st1" d="M17.5,49.1v-2.2h1.1v2.2H17.5z M18.7,45.7v-1.1h1.1v1.1h1.1v3.4h-1.1v-3.4H18.7z"/>
<path class="st1" d="M22,45.7v-1.1h1.1v1.1H22z M23.1,46.9v2.2H22v-2.2H23.1z"/>
<path class="st1" d="M24.3,49.1v-2.2h1.1V48h1.1v-1.2h1.1V48h-1.1v1.1H24.3z"/>
<path class="st1" d="M28.8,45.7v-1.1h1.1v1.1H28.8z M29.9,46.9v2.2h-1.1v-2.2H29.9z"/>
<path class="st1" d="M31,46.8h1.1V48h1.1v1.1h-1.1V48H31V46.8z"/>
<path class="st1" d="M34.4,45.7v-1.1h1.1v1.1H34.4z M35.5,46.9v2.2h-1.1v-2.2H35.5z"/>
<path class="st1" d="M36.7,49.1V48h1.1v-1.2h1.1V48H40v1.1h-1.1V48h-1.1v1.1H36.7z"/>
<path class="st1" d="M43.4,46.8V48h1.1v1.1h-1.1V48h-1.1v1.1h-1.1v-2.2L43.4,46.8L43.4,46.8z"/>
<path class="st1" d="M47.9,49.1V48H49v-1.2h1.1V48h1.1v1.1h-1.1V48H49v1.1H47.9z"/>
<path class="st1" d="M52.4,45.7h1.1v-1.1h1.1v1.1h-1.1v4.5h-1.1V45.7z"/>
<path class="st1" d="M58,49.1v-4.5h1.1v4.5H58z"/>
<path class="st1" d="M60.3,49.1V48h1.1v-1.2h2.3V49h-1.1v-1h-1.1v1.1H60.3z"/>
<path class="st1" d="M65.9,44.6v4.5h-1.1v-4.5H65.9z M67,49.1v-2.2h1.1v2.2H67z"/>
<path class="st1" d="M69.3,49.1V48h1.1v-1.2h1.1V48h1.1v1.1h-1.1V48h-1.1v1.1H69.3z"/>
<path class="st1" d="M73.8,49.1v-2.2h1.1v2.2H73.8z M76,46.8h1.1V49H76V46.8z"/>
<path class="st1" d="M78.3,45.7h1.1v1.1h1.1V49h-1.1v-2.2h-1.1V45.7z"/>
<path class="st1" d="M83.9,49.1V48H85v-1.2h2.2V49h-1.1v-1H85v1.1H83.9z"/>
<path class="st1" d="M88.4,46.8h2.3V48h1.1v-1.2h1.1V48H94v1.1h-1.1V48h-1.1v1.1h-1.1V48h-1.1v1.1h-1.1v-2.3H88.4z"/>
<path class="st1" d="M95.2,49.1V48h1.1v-1.2h1.1V48h1.1v1.1h-1.1V48h-1.1v1.1H95.2z"/>
<path class="st1" d="M101.9,46.8V48h1.1v1.1h-1.1V48h-1.1v1.1h-1.1v-2.2L101.9,46.8L101.9,46.8z"/>
<path class="st1" d="M105.3,46.8v-1.1h1.1v1.1H105.3V48h-1.1v-1.2H105.3z M106.4,49.1v1.1h-2.2v-1.1H106.4z"/>
<path class="st1" d="M107.5,46.8h1.1V48h1.1v1.1h-1.1V48h-1.1V46.8z"/>
<path class="st1" d="M110.9,49.1v-3.4h1.1v3.4H110.9z"/>
<path class="st1" d="M117.7,46.8V48h1.1v1.1h-1.1V48h-1.1v1.1h-1.1v-2.2L117.7,46.8L117.7,46.8z"/>
<path class="st1" d="M119.9,49.1V48h1.1v-1.2h2.2V49h-1.1v-1H121v1.1H119.9z"/>
<path class="st1" d="M124.4,49.1v-3.4h1.1v3.4H124.4z"/>
<path class="st1" d="M126.7,45.7v-1.1h1.1v1.1H126.7z M127.8,46.9v2.2h-1.1v-2.2H127.8z"/>
<path class="st1" d="M128.9,49.1V48h1.1v-1.2h1.1V48h1.1v1.1h-1.1V48H130v1.1H128.9z"/>
<path class="st1" d="M135.7,46.8V48h1.1v1.1h-1.1V48h-1.1v1.1h-1.1v-2.2L135.7,46.8L135.7,46.8z"/>
<path class="st1" d="M137.9,49.1V48h1.1v-1.2h2.2V49h-1.1v-1H139v1.1H137.9z"/>
<path class="st1" d="M142.4,49.1v-4.5h1.1v4.5H142.4z"/>
<path class="st1" d="M146.9,46.8h1.1V48h1.1v1.1H148V48h-1.1V46.8z"/>
<path class="st1" d="M150.3,49.1V48h1.1v-1.2h1.1V48h1.1v1.1h-1.1V48h-1.1v1.1H150.3z"/>
<path class="st1" d="M154.8,48h1.1v-1.2h1.1V48h-1.1v1.1h-1.1V48z"/>
<path class="st1" d="M158.2,45.7v-1.1h1.1v1.1H158.2z M159.3,46.9v2.2h-1.1v-2.2H159.3z"/>
<path class="st1" d="M160.4,48h1.1v-1.2h1.1V48h-1.1v1.1h-1.1V48z"/>
<path class="st1" d="M163.8,49.1v-3.4h1.1v3.4H163.8z"/>
<path class="st1" d="M166,45.7v-1.1h1.1v1.1H166z M167.1,46.9v2.2H166v-2.2H167.1z"/>
<path class="st1" d="M168.3,48h1.1v-1.2h1.1V48h-1.1v1.1h-1.1V48z"/>
<path class="st1" d="M171.7,46.8h1.1V48h1.1v1.1h-1.1V48h-1.1V46.8z"/>
<path class="st1" d="M176.2,48h1.1v1.1h-1.1V48z"/>
<path class="st1" d="M180.7,49.1v-3.4h1.1v3.4H180.7z"/>
<path class="st1" d="M182.9,49.1v-3.4h1.1v-1.1h1.1v1.1H184v3.4H182.9z M186.3,46.8V49h-1.1v-2.2H186.3z"/>
<path class="st1" d="M187.4,48h1.1v-1.2h1.1V48h-1.1v1.1h-1.1V48z"/>
<path class="st1" d="M0.7,58v-1.1h1.1v-1.1H4V58H2.9v-1.1H1.8V58H0.7z"/>
<path class="st1" d="M5.2,54.6h1.1v1.1h1.1V58H6.3v-2.2H5.2V54.6z"/>
<path class="st1" d="M8.5,58v-3.4h1.1V58H8.5z"/>
<path class="st1" d="M10.8,54.6v-1.1h1.1v1.1H10.8z M11.9,55.8V58h-1.1v-2.2H11.9z"/>
<path class="st1" d="M13,56.9h1.1v-1.1h1.1v1.1h-1.1V58H13V56.9z"/>
<path class="st1" d="M16.4,58v-4.5h1.1V58H16.4z"/>
<path class="st1" d="M18.7,56.9h1.1v-1.1h1.1v1.1h-1.1V58h-1.1V56.9z"/>
<path class="st1" d="M24.3,58v-3.4h1.1V58H24.3z"/>
<path class="st1" d="M26.5,58v-3.4h1.1v-1.1h1.1v1.1h-1.1V58H26.5z M29.9,55.8V58h-1.1v-2.2H29.9z"/>
<path class="st1" d="M31,56.9h1.1v-1.1h1.1v1.1h-1.1V58H31V56.9z"/>
<path class="st1" d="M36.7,55.8v1.1h1.1V58h-1.1v-1.1h-1.1V58h-1.1v-2.2H36.7z"/>
<path class="st1" d="M42.3,55.8v-1.1h1.1v1.1H42.3v1.1h-1.1v-1.1H42.3z M43.4,58v1.1h-2.2V58H43.4z"/>
<path class="st1" d="M44.5,58v-1.1h1.1v-1.1h1.1v1.1h1.1V58h-1.1v-1.1h-1.1V58H44.5z"/>
<path class="st1" d="M49,56.9h1.1v-1.1h1.1v1.1h-1.1V58H49V56.9z"/>
<path class="st1" d="M52.4,55.8h1.1v1.1h1.1V58h-1.1v-1.1h-1.1V55.8z"/>
<path class="st1" d="M58,58v-3.4h1.1V58H58z"/>
<path class="st1" d="M60.3,58v-1.1h1.1v-1.1h1.1v1.1h1.1V58h-1.1v-1.1h-1.1V58H60.3z"/>
<path class="st1" d="M67,58v-3.4h1.1V58H67z"/>
<path class="st1" d="M69.3,58v-3.4h1.1v-1.1h1.1v1.1h-1.1V58H69.3z M72.7,55.8V58h-1.1v-2.2H72.7z"/>
<path class="st1" d="M73.8,56.9h1.1v-1.1H76v1.1h-1.1V58h-1.1V56.9z"/>
<path class="st1" d="M81.7,55.8v1.1h1.1V58h-1.1v-1.1h-1.1V58h-1.1v-2.2H81.7z"/>
<path class="st1" d="M83.9,56.9H85v-1.1h1.1v1.1H85V58h-1.1V56.9z"/>
<path class="st1" d="M87.3,58v-2.2h1.1v1.1h1.1v-1.1h1.1v1.1h1.1v-1.1h1.1v1.1h-1.1V58h-1.1v-1.1h-1.1V58H87.3z"/>
<path class="st1" d="M96.3,58v-4.5h1.1V58H96.3z"/>
<path class="st1" d="M98.5,54.6v-1.1h1.1v1.1H98.5z M99.7,55.8V58h-1.1v-2.2H99.7z"/>
<path class="st1" d="M101.9,53.5V58h-1.1v-4.5H101.9z M103,58v-2.2h1.1V58H103z"/>
<path class="st1" d="M105.3,56.9h1.1v-1.1h1.1v1.1h-1.1V58h-1.1V56.9z"/>
<path class="st1" d="M108.7,54.6h1.1v1.1h1.1V58h-1.1v-2.2h-1.1V54.6z"/>
<path class="st1" d="M112,58v-1.1h1.1v-1.1h2.3V58h-1.1v-1.1h-1.1V58H112z"/>
<path class="st1" d="M116.5,58v-4.5h1.1V58H116.5z"/>
<path class="st1" d="M121,54.6v-1.1h1.1v1.1H121z M122.1,55.8V58H121v-2.2H122.1z"/>
<path class="st1" d="M123.3,58v-2.2h1.1V58H123.3z M124.4,54.6v-1.1h1.1v1.1h1.1V58h-1.1v-3.4H124.4z"/>
<path class="st1" d="M127.8,56.9h1.1v-1.1h1.1v1.1h-1.1V58h-1.1L127.8,56.9z"/>
<path class="st1" d="M131.2,58v-1.1h1.1v-1.1h2.2V58h-1.1v-1.1h-1.1V58H131.2z"/>
<path class="st1" d="M137.9,58v-1.1h1.1v-1.1h1.1v1.1h1.1V58h-1.1v-1.1H139V58H137.9z"/>
<path class="st1" d="M142.4,54.6h1.1v-1.1h1.1v1.1h-1.1v4.5h-1.1V54.6z"/>
<path class="st1" d="M148,56.9h1.1v-1.1h1.1v1.1h-1.1V58H148V56.9z"/>
<path class="st1" d="M151.4,58v-2.2h1.1V58H151.4z M153.7,55.8h1.1V58h-1.1V55.8z"/>
<path class="st1" d="M155.9,54.6h1.1v1.1h1.1V58H157v-2.2h-1.1V54.6z"/>
<path class="st1" d="M159.3,58v-1.1h1.1v-1.1h1.1v1.1h1.1V58h-1.1v-1.1h-1.1V58H159.3z"/>
<path class="st1" d="M163.8,59.1v-3.4h1.1v3.4H163.8z"/>
<path class="st1" d="M167.2,56.9h1.1v-1.1h1.1v1.1h-1.1V58h-1.1V56.9z"/>
<path class="st1" d="M170.5,58v-1.1h1.1v-1.1h2.3V58h-1.1v-1.1h-1.1V58H170.5z"/>
<path class="st1" d="M177.3,55.8v1.1h1.1V58h-1.1v-1.1h-1.1V58H175v-2.2H177.3z"/>
<path class="st1" d="M0.7,66.9v-2.2h1.1v2.2H0.7z M2.9,64.7H4v2.2H2.9V64.7z"/>
<path class="st1" d="M7.4,64.7v1.1h1.1v1.1H7.4v-1.1H6.3v1.1H5.2v-2.2H7.4z"/>
<path class="st1" d="M9.7,63.5v-1.1h1.1v1.1H9.7z M10.8,64.7v2.2H9.7v-2.2H10.8z"/>
<path class="st1" d="M11.9,66.9v-3.4H13v3.4H11.9z"/>
<path class="st1" d="M14.2,65.8v-1.1h1.1v1.1H14.2z M16.4,66.9v-2.2h1.1v2.2H16.4V68h-1.1v-1.1H16.4z"/>
<path class="st1" d="M19.8,68h-1.1v-1.1h1.1V68z"/>
<path class="st1" d="M23.2,64.7h2.3v1.1h1.1v-1.1h1.1v1.1h1.1v1.1h-1.1v-1.1h-1.1v1.1h-1.1v-1.1h-1.1v1.1h-1.1L23.2,64.7L23.2,64.7z
	"/>
<path class="st1" d="M29.9,66.9v-1.1H31v-1.1h2.2v2.2h-1.1v-1.1H31v1.1H29.9z"/>
<path class="st1" d="M34.4,66.9v-2.2h1.1v2.2H34.4z M35.5,63.5v-1.1h1.1v1.1h1.1v3.4h-1.1v-3.4H35.5z"/>
<path class="st1" d="M38.9,65.8H40v-1.1h1.1v1.1H40v1.1h-1.1V65.8z"/>
<path class="st1" d="M44.5,66.9v-2.2h1.1v2.2H44.5z M46.8,64.7h1.1v2.2h-1.1V64.7z"/>
<path class="st1" d="M49,68v-3.3h1.1V68H49z"/>
<path class="st1" d="M54.7,66.9v-1.1h1.1v-1.1h1.1v1.1H58v1.1h-1.1v-1.1h-1.1v1.1H54.7z"/>
<path class="st1" d="M59.2,63.5h1.1v-1.1h1.1v1.1h-1.1V68h-1.1V63.5z"/>
<path class="st1" d="M64.8,66.9v-3.4h1.1v3.4H64.8z"/>
<path class="st1" d="M67,66.9v-2.2h1.1v1.1h1.1v-1.1h1.1v1.1h1.1v-1.1h1.1v1.1h-1.1v1.1h-1.1v-1.1h-1.1v1.1H67z"/>
<path class="st1" d="M73.8,66.9v-1.1h1.1v-1.1H76v1.1h1.1v1.1H76v-1.1h-1.1v1.1H73.8z"/>
<path class="st1" d="M80.5,66.9v-2.2h1.1v2.2H80.5z M81.7,63.5v-1.1h1.1v1.1h1.1v3.4h-1.1v-3.4H81.7z"/>
<path class="st1" d="M85,63.5v-1.1h1.1v1.1H85z M86.1,64.7v2.2H85v-2.2H86.1z"/>
<path class="st1" d="M87.3,64.7h1.1v1.1h1.1v1.1h-1.1v-1.1h-1.1V64.7z"/>
<path class="st1" d="M90.7,66.9v-3.4h1.1v3.4H90.7z"/>
<path class="st1" d="M92.9,63.5v-1.1H94v1.1H92.9z M94,64.7v2.2h-1.1v-2.2H94z"/>
<path class="st1" d="M97.4,64.7v1.1h1.1v1.1h-1.1v-1.1h-1.1v1.1h-1.1v-2.2H97.4z"/>
<path class="st1" d="M99.7,65.8h1.1v-1.1h1.1v1.1h-1.1v1.1h-1.1V65.8z"/>
<path class="st1" d="M103,66.9v-3.4h1.1v3.4H103z"/>
<path class="st1" d="M107.5,66.9v-2.2h1.1v2.2H107.5z M108.7,63.5v-1.1h1.1v1.1h1.1v3.4h-1.1v-3.4H108.7z"/>
<path class="st1" d="M112,63.5v-1.1h1.1v1.1H112z M113.1,64.7v2.2H112v-2.2H113.1z"/>
<path class="st1" d="M114.3,64.7h2.2v1.1h1.1v-1.1h1.1v1.1h1.1v1.1h-1.1v-1.1h-1.1v1.1h-1.1v-1.1h-1.1v1.1h-1.1V64.7z"/>
<path class="st1" d="M121,65.8h1.1v-1.1h1.1v1.1h-1.1v1.1H121V65.8z"/>
<path class="st1" d="M126.7,64.7v1.1h1.1v1.1h-1.1v-1.1h-1.1v1.1h-1.1v-2.2H126.7z"/>
<path class="st1" d="M128.9,64.7h1.1v1.1h1.1v1.1H130v-1.1h-1.1V64.7z"/>
<path class="st1" d="M132.3,63.5v-1.1h1.1v1.1H132.3z M133.4,64.7v2.2h-1.1v-2.2H133.4z"/>
<path class="st1" d="M134.5,66.9v-1.1h1.1v-1.1h1.1v1.1h1.1v1.1h-1.1v-1.1h-1.1v1.1H134.5z"/>
<path class="st1" d="M141.3,64.7v1.1h1.1v1.1h-1.1v-1.1h-1.1v1.1H139v-2.2H141.3z"/>
<path class="st1" d="M143.5,64.7h1.1v1.1h1.1v1.1h-1.1v-1.1h-1.1V64.7z"/>
<path class="st1" d="M148,64.7v-1.1h1.1v1.1H148z M149.1,65.8v1.1H148v-1.1H149.1z"/>
<path class="st1" d="M152.5,66.9v-1.1h1.1v-1.1h2.3v2.2h-1.1v-1.1h-1.1v1.1H152.5z"/>
<path class="st1" d="M159.3,64.7v1.1h1.1v1.1h-1.1v-1.1h-1.1v1.1H157v-2.2H159.3z"/>
<path class="st1" d="M163.8,65.8h1.1v-1.1h1.1v1.1h-1.1v1.1h-1.1V65.8z"/>
<path class="st1" d="M167.2,65.8h1.1v-1.1h1.1v1.1h-1.1v1.1h-1.1V65.8z"/>
<path class="st1" d="M170.5,66.9v-1.1h1.1v-1.1h1.1v1.1h1.1v1.1h-1.1v-1.1h-1.1v1.1H170.5z"/>
<path class="st1" d="M179.5,64.7v1.1h1.1v1.1h-1.1v-1.1h-1.1v1.1h-1.1v-2.2H179.5z"/>
<path class="st1" d="M181.8,66.9v-1.1h1.1v-1.1h1.1v1.1h1.1v1.1H184v-1.1h-1.1v1.1H181.8z"/>
<path class="st1" d="M186.3,64.7h2.2v1.1h1.1v-1.1h1.1v1.1h1.1v1.1h-1.1v-1.1h-1.1v1.1h-1.1v-1.1h-1.1v1.1h-1.1L186.3,64.7
	L186.3,64.7z"/>
<path class="st1" d="M193,64.7h1.1v1.1H193V64.7z"/>
<path class="st1" d="M0.7,72.4v-1.1h1.1v1.1H0.7z M1.8,73.5v2.3H0.7v-2.2L1.8,73.5z"/>
<path class="st1" d="M2.9,74.7H4v-1.1h1.2v1.1H4v1.1H2.9V74.7z"/>
<path class="st1" d="M6.3,73.6h1.1v1.1h1.1v1.1H7.4v-1.1H6.3V73.6z"/>
<path class="st1" d="M9.7,75.8v-1.1h1.1v-1.1h1.1v1.1H13v1.1h-1.1v-1.1h-1.1v1.1H9.7z"/>
<path class="st1" d="M14.2,74.7h1.1v-1.1h1.1v1.1h-1.1v1.1h-1.1C14.2,75.8,14.2,74.7,14.2,74.7z"/>
<path class="st1" d="M17.5,72.4v-1.1h1.1v1.1H17.5z M18.7,73.5v2.3h-1.1v-2.2L18.7,73.5z"/>
<path class="st1" d="M19.8,75.8v-1.1h1.1v-1.1H22v1.1h1.1v1.1H22v-1.1h-1.1v1.1H19.8z"/>
<path class="st1" d="M24.3,75.8v-4.5h1.1v4.5H24.3z"/>
<path class="st1" d="M26.5,75.8v-1.1h1.1v-1.1h1.1v1.1h1.1v1.1h-1.1v-1.1h-1.1v1.1H26.5z"/>
<path class="st1" d="M32.2,73.6v-1.1h1.1v1.1H32.2v1.1H31v-1.1H32.2z M33.3,75.8v1.1H31v-1.1H33.3z"/>
<path class="st1" d="M34.4,72.4v-1.1h1.1v1.1H34.4z M35.5,73.5v2.3h-1.1v-2.2L35.5,73.5z"/>
<path class="st1" d="M36.7,74.7h1.1v-1.1h1.1v1.1h-1.1v1.1h-1.1V74.7z"/>
<path class="st1" d="M40,75.8v-1.1h1.1v-1.1h2.3v2.2h-1.1v-1.1h-1.1v1.1H40z"/>
<path class="st1" d="M44.5,75.8v-4.5h1.1v4.5H44.5z"/>
<path class="st1" d="M49,75.8v-1.1h1.1v-1.1h2.3v2.2h-1.1v-1.1h-1.1v1.1H49z"/>
<path class="st1" d="M55.8,73.6v1.1h1.1v1.1h-1.1v-1.1h-1.1v1.1h-1.1v-2.2H55.8z"/>
<path class="st1" d="M58,75.8v-2.2h1.1v2.2H58z M59.1,72.4v-1.1h1.1v1.1h1.1v3.4h-1.1v-3.4H59.1z"/>
<path class="st1" d="M64.8,75.8v-1.1h1.1v-1.1h2.3v2.2H67v-1.1h-1.1v1.1H64.8z"/>
<path class="st1" d="M73.8,73.6v1.1h1.1v1.1h-1.1v-1.1h-1.1v1.1h-1.1v-2.2H73.8z"/>
<path class="st1" d="M76,75.8v-1.1h1.1v-1.1h1.1v1.1h1.1v1.1h-1.1v-1.1h-1.1v1.1H76z"/>
<path class="st1" d="M80.5,72.4h1.1v1.1h1.1v2.3h-1.1v-2.2h-1.1V72.4z"/>
<path class="st1" d="M83.9,73.6h2.3v1.1h1.1v-1.1h1.1v1.1h1.1v1.1h-1.1v-1.1h-1.1v1.1h-1.1v-1.1H85v1.1h-1.1V73.6z"/>
<path class="st1" d="M90.7,75.8v-1.1h1.1v-1.1H94v2.2h-1.1v-1.1h-1.1v1.1H90.7z"/>
<path class="st1" d="M95.2,75.8v-3.4h1.1v3.4H95.2z"/>
<path class="st1" d="M97.4,72.4v-1.1h1.1v1.1H97.4z M98.5,73.5v2.3h-1.1v-2.2L98.5,73.5z"/>
<path class="st1" d="M99.7,75.8v-2.2h1.1v1.1h1.1v-1.1h1.1v1.1h-1.1v1.1H99.7z"/>
<path class="st1" d="M104.2,74.7h1.1v-1.1h1.1v1.1h-1.1v1.1h-1.1V74.7z"/>
<path class="st1" d="M109.8,75.8v-2.2h1.1v2.2H109.8z M110.9,72.4v-1.1h1.1v1.1h1.1v3.4H112v-3.4H110.9z"/>
<path class="st1" d="M114.3,72.4v-1.1h1.1v1.1H114.3z M115.4,73.5v2.3h-1.1v-2.2L115.4,73.5z"/>
<path class="st1" d="M116.5,73.6h2.2v1.1h1.1v-1.1h1.1v1.1h1.1v1.1h-1v-1.1h-1.1v1.1h-1.1v-1.1h-1.1v1.1h-1.1L116.5,73.6z"/>
<path class="st1" d="M123.3,74.7h1.1v-1.1h1.1v1.1h-1.1v1.1h-1.1V74.7z"/>
<path class="st1" d="M128.9,73.6v1.1h1.1v1.1h-1.1v-1.1h-1.1v1.1h-1.1v-2.2H128.9z"/>
<path class="st1" d="M131.2,73.6h1.1v1.1h1.1v1.1h-1.1v-1.1h-1.1V73.6z"/>
<path class="st1" d="M134.5,72.4v-1.1h1.1v1.1H134.5z M135.7,73.5v2.3h-1.1v-2.2L135.7,73.5z"/>
<path class="st1" d="M136.8,75.8v-1.1h1.1v-1.1h1.1v1.1h1.1v1.1H139v-1.1h-1.1v1.1H136.8z"/>
<path class="st1" d="M143.5,73.6v1.1h1.1v1.1h-1.1v-1.1h-1.1v1.1h-1.1v-2.2H143.5z"/>
<path class="st1" d="M146.9,76.9h-1.1v-1.1h1.1V76.9z"/>
<path class="st1" d="M150.3,75.8v-2.2h1.1v1.1h1.1v-1.1h1.1v1.1h1.1v-1.1h1.1v1.1h-1.1v1.1h-1.1v-1.1h-1.1v1.1H150.3z"/>
<path class="st1" d="M157,75.8v-3.4h1.1v-1.1h1.1v1.1h-1.1v3.4H157z M160.4,73.6v2.2h-1.1v-2.2H160.4z"/>
<path class="st1" d="M161.5,72.4v-1.1h1.1v1.1H161.5z M162.7,73.5v2.3h-1.1v-2.2L162.7,73.5z"/>
<path class="st1" d="M163.8,74.7h1.1v-1.1h1.1v1.1h-1.1v1.1h-1.1V74.7z"/>
<path class="st1" d="M167.2,75.8v-3.4h1.1v-1.1h1.1v1.1h-1.1v3.4H167.2z M170.5,73.6v2.2h-1.1v-2.2H170.5z"/>
<path class="st1" d="M173.9,75.8v-2.2h1.1v1.1h1.1v-1.1h1.1v1.1h1.1v-1.1h1.1v1.1h-1.1v1.1h-1.1v-1.1h-1.1v1.1H173.9z"/>
<path class="st1" d="M180.7,74.7h1.1v-1.1h1.1v1.1h-1.1v1.1h-1.1V74.7z"/>
<path class="st1" d="M184,72.4h1.1v1.1h1.1v2.3h-1.1v-2.2H184V72.4z"/>
<path class="st1" d="M187.4,74.7h1.1v-1.1h1.1v1.1h-1.1v1.1h-1.1V74.7z"/>
<path class="st1" d="M191.9,76.9h-1.1v-1.1h1.1V76.9z"/>
<path class="st1" d="M0.7,81.3v-1.1h1.1v1.1H0.7z M1.8,82.4v2.2H0.7v-2.2H1.8z"/>
<path class="st1" d="M5.2,82.4v1.1h1.1v1.1H5.2v-1.1H4v1.1H2.9v-2.2H5.2z"/>
<path class="st1" d="M9.7,84.7v-3.4h1.1v3.4H9.7z"/>
<path class="st1" d="M11.9,84.7v-2.2H13v2.2H11.9z M14.2,82.4h1.1v2.2h-1.1V82.4z"/>
<path class="st1" d="M16.4,81.3h1.1v1.1h1.1v2.2h-1.1v-2.2h-1.1V81.3z"/>
<path class="st1" d="M22,82.4v1.1h1.1v1.1H22v-1.1h-1.1v1.1h-1.1v-2.2H22z"/>
<path class="st1" d="M25.4,85.8h-1.1v-1.1h1.1V85.8z"/>
<path class="st1" d="M28.8,84.7v-3.4h1.1v3.4H28.8z"/>
<path class="st1" d="M31,84.7v-3.4h1.1v-1.1h1.1v1.1h-1.1v3.4H31z M34.4,82.4v2.2h-1.1v-2.2H34.4z"/>
<path class="st1" d="M35.5,83.6h1.1v-1.1h1.1v1.1h-1.1v1.1h-1.1V83.6z"/>
<path class="st1" d="M41.2,81.3h1.1v-1.1h1.1v1.1h-1.1v4.5h-1.1V81.3z"/>
<path class="st1" d="M43.4,84.7v-1.1h1.1v-1.1h1.1v1.1h1.1v1.1h-1.1v-1.1h-1.1v1.1H43.4z"/>
<path class="st1" d="M47.9,84.7v-2.2H49v2.2H47.9z M50.2,82.4h1.1v2.2h-1.1V82.4z"/>
<path class="st1" d="M54.7,82.4v1.1h1.1v1.1h-1.1v-1.1h-1.1v1.1h-1.1v-2.2H54.7z"/>
<path class="st1" d="M56.9,84.7v-2.2H58v2.2H56.9z M58,81.3v-1.1h1.1v1.1h1.1v3.4h-1.1v-3.4H58z"/>
<path class="st1" d="M61.4,84.7v-1.1h1.1v-1.1h2.2v2.2h-1.1v-1.1h-1.1v1.1H61.4z"/>
<path class="st1" d="M65.9,84.7v-3.4H67v3.4H65.9z"/>
<path class="st1" d="M68.2,81.3v-1.1h1.1v1.1H68.2z M69.3,82.4v2.2h-1.1v-2.2H69.3z"/>
<path class="st1" d="M70.4,84.7v-1.1h1.1v-1.1h1.1v1.1h1.1v1.1h-1.1v-1.1h-1.1v1.1H70.4z"/>
<path class="st1" d="M77.2,82.4v1.1h1.1v1.1h-1.1v-1.1H76v1.1h-1.1v-2.2H77.2z"/>
<path class="st1" d="M79.4,82.4h1.1v1.1h1.1v1.1h-1.1v-1.1h-1.1V82.4z"/>
<path class="st1" d="M85,81.3h1.1v-1.1h1.1v1.1h-1.1v4.5H85V81.3z"/>
<path class="st1" d="M87.3,84.7v-1.1h1.1v-1.1h1.1v1.1h1.1v1.1h-1.1v-1.1h-1.1v1.1H87.3z"/>
<path class="st1" d="M91.8,81.3h1.1v1.1H94v2.2h-1.1v-2.2h-1.1V81.3z"/>
<path class="st1" d="M97.4,84.7v-3.4h1.1v3.4H97.4z"/>
<path class="st1" d="M99.7,84.7v-3.4h1.1v-1.1h1.1v1.1h-1.1v3.4H99.7z M103,82.4v2.2h-1.1v-2.2H103z"/>
<path class="st1" d="M104.2,83.6h1.1v-1.1h1.1v1.1h-1.1v1.1h-1.1V83.6z"/>
<path class="st1" d="M109.8,85.8v-3.4h1.1v3.4H109.8z"/>
<path class="st1" d="M113.2,81.3h1.1v1.1h1.1v2.2h-1.1v-2.2h-1.1V81.3z"/>
<path class="st1" d="M116.5,84.7v-1.1h1.1v-1.1h1.1v1.1h1.1v1.1h-1.1v-1.1h-1.1v1.1H116.5z"/>
<path class="st1" d="M122.2,84.7v-2.2h1.1v2.2H122.2v1.1H121v-1.1H122.2z M122.2,81.3v-1.1h1.1v1.1H122.2z"/>
<path class="st1" d="M124.4,83.6h1.1v-1.1h1.1v1.1h-1.1v1.1h-1.1V83.6z"/>
<path class="st1" d="M127.8,83.6h1.1v-1.1h1.1v1.1h-1.1v1.1h-1.1L127.8,83.6z"/>
<path class="st1" d="M131.2,84.7v-3.4h1.1v3.4H131.2z"/>
<path class="st1" d="M135.7,84.7v-1.1h1.1v-1.1h1.1v1.1h1.1v1.1h-1.1v-1.1h-1.1v1.1H135.7z"/>
<path class="st1" d="M140.2,81.3h1.1v-1.1h1.1v1.1h-1.1v4.5h-1.1V81.3z"/>
<path class="st1" d="M145.8,81.3h1.1v-1.1h1.1v1.1h-1.1v4.5h-1.1V81.3z"/>
<path class="st1" d="M148,84.7v-2.2h1.1v2.2H148z M150.2,82.4h1.1v2.2h-1.1V82.4z"/>
<path class="st1" d="M154.8,82.4v1.1h1.1v1.1h-1.1v-1.1h-1.1v1.1h-1.1v-2.2H154.8z"/>
<path class="st1" d="M157,83.6h1.1v-1.1h1.1v1.1h-1.1v1.1H157V83.6z"/>
<path class="st1" d="M160.4,84.7v-3.4h1.1v3.4H160.4z"/>
<path class="st1" d="M162.7,81.3v-1.1h1.1v1.1H162.7z M163.8,82.4v2.2h-1.1v-2.2H163.8z"/>
<path class="st1" d="M164.9,84.7v-1.1h1.1v-1.1h1.1v1.1h1.1v1.1h-1.1v-1.1H166v1.1H164.9z"/>
<path class="st1" d="M171.7,82.4v1.1h1.1v1.1h-1.1v-1.1h-1.1v1.1h-1.1v-2.2H171.7z"/>
<path class="st1" d="M173.9,84.7v-1.1h1.1v-1.1h2.2v2.2h-1.1v-1.1H175v1.1H173.9z"/>
<path class="st1" d="M178.4,84.7v-4.5h1.1v4.5H178.4z"/>
<path class="st1" d="M180.7,82.4h1.1v1.1h-1.1V82.4z"/>
<path class="st1" d="M0.7,90.2v-1.1h1.1v1.1H0.7z M1.8,91.3v2.2H0.7v-2.2H1.8z"/>
<path class="st1" d="M2.9,91.3H4v1.1h1.2v1.1H4v-1.1H2.9V91.3z"/>
<path class="st1" d="M6.3,93.6v-3.4h1.1v3.4H6.3z"/>
<path class="st1" d="M10.8,90.2v-1.1h1.1v1.1H10.8z M11.9,91.3v2.2h-1.1v-2.2H11.9z"/>
<path class="st1" d="M15.3,91.3v1.1h1.1v1.1h-1.1v-1.1h-1.1v1.1H13v-2.2H15.3z"/>
<path class="st1" d="M17.5,91.3h1.1v1.1h1.1v1.1h-1.1v-1.1h-1.1V91.3z"/>
<path class="st1" d="M20.9,93.6v-3.4H22v3.4H20.9z"/>
<path class="st1" d="M23.2,90.2v-1.1h1.1v1.1H23.2z M24.3,91.3v2.2h-1.1v-2.2H24.3z"/>
<path class="st1" d="M25.4,93.6v-3.4h1.1v3.4H25.4z"/>
<path class="st1" d="M27.7,93.6v-2.2h1.1v2.2H27.7z M29.9,91.3H31v2.2h-1.1V91.3z"/>
<path class="st1" d="M32.2,93.6v-3.4h1.1v3.4H32.2z"/>
<path class="st1" d="M34.4,90.2v-1.1h1.1v1.1H34.4z M35.5,91.3v2.2h-1.1v-2.2H35.5z"/>
<path class="st1" d="M36.7,93.6v-1.1h1.1v-1.1h1.1v1.1H40v1.1h-1.1v-1.1h-1.1v1.1H36.7z"/>
<path class="st1" d="M43.4,91.3v1.1h1.1v1.1h-1.1v-1.1h-1.1v1.1h-1.1v-2.2H43.4z"/>
<path class="st1" d="M45.7,93.6v-1.1h1.1v-1.1H49v2.2h-1.1v-1.1h-1.1v1.1H45.7z"/>
<path class="st1" d="M50.2,93.6v-4.5h1.1v4.5H50.2z"/>
<path class="st1" d="M52.4,90.2v-1.1h1.1v1.1H52.4z M53.5,91.3v2.2h-1.1v-2.2H53.5z"/>
<path class="st1" d="M54.7,91.3h1.1v1.1h1.1v1.1h-1.1v-1.1h-1.1V91.3z"/>
<path class="st1" d="M58,93.6v-1.1h1.1v-1.1h2.3v2.2h-1.1v-1.1h-1.1v1.1H58z"/>
<path class="st1" d="M62.5,93.6v-3.4h1.1v3.4H62.5z"/>
<path class="st1" d="M64.8,90.2v-1.1h1.1v1.1H64.8z M65.9,91.3v2.2h-1.1v-2.2H65.9z"/>
<path class="st1" d="M67,93.6v-1.1h1.1v-1.1h1.1v1.1h1.1v1.1h-1.1v-1.1h-1.1v1.1H67z"/>
<path class="st1" d="M73.8,91.3v1.1h1.1v1.1h-1.1v-1.1h-1.1v1.1h-1.1v-2.2H73.8z"/>
<path class="st1" d="M78.3,93.6v-1.1h1.1v-1.1h1.1v1.1h1.1v1.1h-1.1v-1.1h-1.1v1.1H78.3z"/>
<path class="st1" d="M85,91.3v1.1h1.1v1.1H85v-1.1h-1.1v1.1h-1.1v-2.2H85z"/>
<path class="st1" d="M89.5,93.6v-1.1h1.1v-1.1h2.3v2.2h-1.1v-1.1h-1.1v1.1H89.5z"/>
<path class="st1" d="M96.3,92.5h1.1v-1.1h1.1v1.1h-1.1v1.1h-1.1V92.5z"/>
<path class="st1" d="M99.7,93.6v-2.2h1.1v2.2H99.7z M101.9,91.3h1.1v2.2h-1.1V91.3z"/>
<path class="st1" d="M104.2,90.2h1.1v1.1h1.1v2.2h-1.1v-2.2h-1.1V90.2z"/>
<path class="st1" d="M107.5,93.6v-1.1h1.1v-1.1h1.1v1.1h1.1v1.1h-1.1v-1.1h-1.1v1.1H107.5z"/>
<path class="st1" d="M112,94.7v-3.4h1.1v3.4H112z"/>
<path class="st1" d="M115.4,92.5h1.1v-1.1h1.1v1.1h-1.1v1.1h-1.1V92.5z"/>
<path class="st1" d="M118.8,93.6v-1.1h1.1v-1.1h2.2v2.2H121v-1.1h-1.1v1.1H118.8z"/>
<path class="st1" d="M125.5,91.3v1.1h1.1v1.1h-1.1v-1.1h-1.1v1.1h-1.1v-2.2H125.5z"/>
<path class="st1" d="M130,93.6v-4.5h1.1v4.5H130z"/>
<path class="st1" d="M132.3,92.5h1.1v-1.1h1.1v1.1h-1.1v1.1h-1.1V92.5z"/>
<path class="st1" d="M135.7,93.6v-2.2h1.1v1.1h1.1v-1.1h1.1v1.1h-1.1v1.1H135.7z"/>
<path class="st1" d="M140.2,92.5h1.1v-1.1h1.1v1.1h-1.1v1.1h-1.1V92.5z"/>
<path class="st1" d="M143.5,93.6v-4.5h1.1v4.5H143.5z"/>
<path class="st1" d="M146.9,92.5h1.1v1.1h-1.1V92.5z"/>
<path class="st1" d="M151.4,90.2v-1.1h1.1v1.1H151.4z M152.5,91.3v2.2h-1.1v-2.2H152.5z"/>
<path class="st1" d="M153.7,93.6v-3.4h1.1v3.4H153.7z"/>
<path class="st1" d="M158.2,90.2h1.1v-1.1h1.1v1.1h-1.1v4.5h-1.1V90.2z"/>
<path class="st1" d="M161.5,90.2v-1.1h1.1v1.1H161.5z M162.7,91.3v2.2h-1.1v-2.2H162.7z"/>
<path class="st1" d="M166,91.3v1.1h1.1v1.1H166v-1.1h-1.1v1.1h-1.1v-2.2H166z"/>
<path class="st1" d="M168.3,93.6v-1.1h1.1v-1.1h2.3v2.2h-1.1v-1.1h-1.1v1.1H168.3z"/>
<path class="st1" d="M172.8,93.6v-4.5h1.1v4.5H172.8z"/>
<path class="st1" d="M175,93.6v-4.5h1.1v4.5H175z"/>
<path class="st1" d="M177.3,92.5v-1.1h1.1v1.1H177.3z M179.5,93.6v-2.2h1.1v2.2H179.5v1.1h-1.1v-1.1H179.5z"/>
<path class="st1" d="M0.7,103.6v-3.4h1.1v3.4H0.7z"/>
<path class="st1" d="M4,99.1h1.2v1.1h1.1v2.2H5.2v-2.2H4V99.1z"/>
<path class="st1" d="M7.4,101.4h1.1v-1.1h1.1v1.1H8.5v1.1H7.4V101.4z"/>
<path class="st1" d="M10.8,100.2h1.1v1.1H13v1.1h-1.1v-1.1h-1.1C10.8,101.3,10.8,100.2,10.8,100.2z"/>
<path class="st1" d="M14.2,101.4h1.1v-1.1h1.1v1.1h-1.1v1.1h-1.1C14.2,102.5,14.2,101.4,14.2,101.4z"/>
<path class="st1" d="M19.8,100.2v1.1h1.1v1.1h-1.1v-1.1h-1.1v1.1h-1.1v-2.2H19.8z"/>
<path class="st1" d="M22,102.5v-3.4h1.1v3.4H22z"/>
<path class="st1" d="M24.3,100.2h1.1v1.1h1.1v1.1h-1.1v-1.1h-1.1V100.2z"/>
<path class="st1" d="M29.9,102.5v-3.4H31v3.4H29.9z"/>
<path class="st1" d="M32.2,102.5v-3.4h1.1V98h1.1v1.1h-1.1v3.4H32.2z M35.5,100.2v2.2h-1.1v-2.2H35.5z"/>
<path class="st1" d="M36.7,101.4h1.1v-1.1h1.1v1.1h-1.1v1.1h-1.1V101.4z"/>
<path class="st1" d="M42.3,100.2h1.1v1.1h1.1v1.1h-1.1v-1.1h-1.1V100.2z"/>
<path class="st1" d="M45.7,102.5v-3.4h1.1v3.4H45.7z"/>
<path class="st1" d="M47.9,102.5v-1.1H49v-1.1h2.2v2.2h-1.1v-1.1H49v1.1H47.9z"/>
<path class="st1" d="M54.7,100.2v1.1h1.1v1.1h-1.1v-1.1h-1.1v1.1h-1.1v-2.2H54.7z"/>
<path class="st1" d="M56.9,101.4H58v-1.1h1.1v1.1H58v1.1h-1.1V101.4z"/>
<path class="st1" d="M60.3,101.4h1.1v-1.1h1.1v1.1h-1.1v1.1h-1.1V101.4z"/>
<path class="st1" d="M65.9,99.1H67V98h1.1v1.1H67v4.5h-1.1V99.1z"/>
<path class="st1" d="M69.3,99.1h1.1v1.1h1.1v2.2h-1.1v-2.2h-1.1V99.1z"/>
<path class="st1" d="M72.7,102.5v-1.1h1.1v-1.1H76v2.2h-1.1v-1.1h-1.1v1.1H72.7z"/>
<path class="st1" d="M79.4,100.2v1.1h1.1v1.1h-1.1v-1.1h-1.1v1.1h-1.1v-2.2H79.4z"/>
<path class="st1" d="M81.7,101.4h1.1v-1.1h1.1v1.1h-1.1v1.1h-1.1V101.4z"/>
<path class="st1" d="M85,101.4h1.1v-1.1h1.1v1.1h-1.1v1.1H85V101.4z"/>
<path class="st1" d="M90.7,100.2h1.1v1.1h1.1v1.1h-1.1v-1.1h-1.1V100.2z"/>
<path class="st1" d="M94,102.5v-3.4h1.1V98h1.1v1.1h-1.1v3.4H94z M97.4,100.2v2.2h-1.1v-2.2H97.4z"/>
<path class="st1" d="M98.5,102.5v-1.1h1.1v-1.1h1.1v1.1h1.1v1.1h-1.1v-1.1h-1.1v1.1H98.5z"/>
<path class="st1" d="M103,102.5v-2.2h1.1v2.2H103z M105.2,100.2h1.1v2.2h-1.1V100.2z"/>
<path class="st1" d="M107.5,102.5V98h1.1v4.5H107.5z"/>
<path class="st1" d="M109.8,102.5v-2.2h1.1v2.2H109.8z M110.9,99.1V98h1.1v1.1h1.1v3.4H112v-3.4H110.9z"/>
<path class="st1" d="M116.5,102.5v-3.4h1.1V98h1.1v1.1h-1.1v3.4H116.5z M119.9,100.2v2.2h-1.1v-2.2H119.9z"/>
<path class="st1" d="M121,102.5v-1.1h1.1v-1.1h1.1v1.1h1.1v1.1h-1.1v-1.1h-1.1v1.1H121z"/>
<path class="st1" d="M125.5,102.5V98h1.1v4.5H125.5z"/>
<path class="st1" d="M127.8,102.5v-2.2h1.1v2.2H127.8z M128.9,99.1V98h1.1v1.1h1.1v3.4H130v-3.4H128.9z"/>
<path class="st2" d="M134.5,102.5v-1.1h1.1v-1.1h2.2v2.2h-1.1v-1.1h-1.1v1.1H134.5z"/>
<path class="st2" d="M139,101.4h1.1v-1.1h1.1v1.1h-1.1v1.1H139V101.4z"/>
<path class="st2" d="M142.4,101.4h1.1v-1.1h1.1v1.1h-1.1v1.1h-1.1V101.4z"/>
<path class="st2" d="M145.8,102.5v-1.1h1.1v-1.1h1.1v1.1h1.1v1.1H148v-1.1h-1.1v1.1H145.8z"/>
<path class="st2" d="M150.3,99.1h1.1v1.1h1.1v2.2h-1.1v-2.2h-1.1V99.1z"/>
<path class="st2" d="M153.7,102.5v-2.2h1.1v2.2H153.7z M154.8,99.1V98h1.1v1.1h1.1v3.4h-1.1v-3.4H154.8z"/>
<path class="st2" d="M158.2,99.1V98h1.1v1.1H158.2z M159.3,100.2v2.2h-1.1v-2.2H159.3z"/>
<path class="st2" d="M162.7,100.2v1.1h1.1v1.1h-1.1v-1.1h-1.1v1.1h-1.1v-2.2H162.7z"/>
<path class="st2" d="M166,100.2v-1.1h1.1v1.1H166v1.1h-1.1v-1.1H166z M167.1,102.5v1.1h-2.3v-1.1H167.1z"/>
<path class="st2" d="M170.5,102.5v-3.4h1.1v3.4H170.5z"/>
<path class="st2" d="M172.8,102.5v-1.1h1.1v-1.1h1.1v1.1h1.1v1.1H175v-1.1h-1.1v1.1H172.8z"/>
<path class="st2" d="M179.5,102.5v-3.4h1.1v3.4H179.5z"/>
<path class="st2" d="M181.8,102.5v-3.4h1.1V98h1.1v1.1h-1.1v3.4H181.8z M185.2,100.2v2.2H184v-2.2H185.2z"/>
<path class="st2" d="M186.3,101.4h1.1v-1.1h1.1v1.1h-1.1v1.1h-1.1V101.4z"/>
<path class="st2" d="M0.7,110.3v-1.1h1.1V108h1.1v1.1H1.8v1.1h1.1v1.1H1.8v-1.1L0.7,110.3z"/>
<path class="st2" d="M6.3,109.2v1.1h1.1v1.1H6.3v-1.1H5.2v1.1H4v-2.2H6.3z"/>
<path class="st2" d="M8.5,110.3h1.1v-1.1h1.1v1.1h-1v1.1H8.5V110.3z"/>
<path class="st2" d="M11.9,111.4v-2.2H13v1.1h1.1v-1.1h1.1v1.1h1.1v-1.1h1.1v1.1h-1.1v1.1h-1.1v-1.1h-1.1v1.1H11.9z"/>
<path class="st2" d="M20.9,111.4v-4.5H22v4.5H20.9z"/>
<path class="st2" d="M23.2,108v-1.1h1.1v1.1H23.2z M24.3,109.1v2.2h-1.1v-2.2H24.3z"/>
<path class="st2" d="M26.5,106.9v4.5h-1.1v-4.5H26.5z M27.7,111.4v-2.2h1.1v2.2H27.7z"/>
<path class="st2" d="M29.9,110.3H31v-1.1h1.1v1.1H31v1.1h-1.1V110.3z"/>
<path class="st2" d="M33.3,108h1.1v1.1h1.1v2.2h-1.1v-2.2h-1.1V108z"/>
<path class="st2" d="M36.7,111.4v-1.1h1.1v-1.1H40v2.2h-1.1v-1.1h-1.1v1.1H36.7z"/>
<path class="st2" d="M41.2,111.4v-4.5h1.1v4.5H41.2z"/>
<path class="st2" d="M45.7,108v-1.1h1.1v1.1H45.7z M46.8,109.1v2.2h-1.1v-2.2H46.8z"/>
<path class="st2" d="M50.2,109.2v1.1h1.1v1.1h-1.1v-1.1H49v1.1h-1.1v-2.2H50.2z"/>
<path class="st2" d="M52.4,111.4V108h1.1v3.4H52.4z"/>
<path class="st2" d="M54.7,110.3h1.1v-1.1h1.1v1.1h-1.1v1.1h-1.1V110.3z"/>
<path class="st2" d="M58,108h1.1v1.1h1.1v2.2h-1.1v-2.2H58V108z"/>
<path class="st2" d="M63.7,109.2v1.1h1.1v1.1h-1.1v-1.1h-1.1v1.1h-1.1v-2.2H63.7z"/>
<path class="st2" d="M65.9,111.4v-1.1H67v-1.1h2.2v2.2h-1.1v-1.1H67v1.1H65.9z"/>
<path class="st2" d="M70.4,111.4V108h1.1v3.4H70.4z"/>
<path class="st2" d="M72.7,108v-1.1h1.1v1.1H72.7z M73.8,109.1v2.2h-1.1v-2.2H73.8z"/>
<path class="st2" d="M74.9,111.4v-1.1H76v-1.1h1.1v1.1h1.1v1.1h-1.1v-1.1H76v1.1H74.9z"/>
<path class="st2" d="M81.7,109.2v1.1h1.1v1.1h-1.1v-1.1h-1.1v1.1h-1.1v-2.2H81.7z"/>
<path class="st2" d="M83.9,111.4v-1.1H85v-1.1h2.2v2.2h-1.1v-1.1H85v1.1H83.9z"/>
<path class="st2" d="M88.4,111.4v-4.5h1.1v4.5H88.4z"/>
<path class="st2" d="M90.7,108v-1.1h1.1v1.1H90.7z M91.8,109.1v2.2h-1.1v-2.2H91.8z"/>
<path class="st2" d="M92.9,109.2H94v1.1h1.1v1.1H94v-1.1h-1.1V109.2z"/>
<path class="st2" d="M96.3,111.4V108h1.1v3.4H96.3z"/>
<path class="st2" d="M98.5,109.2h1.1v1.1h1.1v1.1h-1.1v-1.1h-1.1V109.2z"/>
<path class="st2" d="M103,108v1.1h1.1v1.1H103v1.1h-1.1v-1.1h1.1v-1.1h-1.1V108H103z"/>
<path class="st2" d="M107.5,108v-1.1h1.1v1.1H107.5z M108.7,109.1v2.2h-1.1v-2.2H108.7z"/>
<path class="st2" d="M112,109.2v1.1h1.1v1.1H112v-1.1h-1.1v1.1h-1.1v-2.2H112z"/>
<path class="st2" d="M116.5,111.4V108h1.1v3.4H116.5z"/>
<path class="st2" d="M118.8,111.4V108h1.1v-1.1h1.1v1.1h-1.1v3.4H118.8z M122.2,109.2v2.2H121v-2.2H122.2z"/>
<path class="st2" d="M123.3,110.3h1.1v-1.1h1.1v1.1h-1.1v1.1h-1.1V110.3z"/>
<path class="st2" d="M128.9,111.4V108h1.1v-1.1h1.1v1.1H130v3.4H128.9z M132.3,109.2v1.1h-1.1v-1.1H132.3z M132.3,111.4v1.1h-1.1
	v-1.1H132.3z"/>
<path class="st2" d="M133.4,110.3h1.1v-1.1h1.1v1.1h-1.1v1.1h-1.1V110.3z"/>
<path class="st2" d="M136.8,110.3v-1.1h1.1v1.1H136.8z M139,111.4v-2.2h1.1v2.2H139v1.1h-1.1v-1.1H139z"/>
<path class="st2" d="M143.5,112.5v-3.4h1.1v3.4H143.5z"/>
<path class="st2" d="M146.9,108h1.1v1.1h1.1v2.2H148v-2.2h-1.1V108z"/>
<path class="st2" d="M150.3,111.4v-1.1h1.1v-1.1h1.1v1.1h1.1v1.1h-1.1v-1.1h-1.1v1.1H150.3z"/>
<path class="st2" d="M155.9,106.9v4.5h-1.1v-4.5H155.9z M157,111.4v-2.2h1.1v2.2H157z"/>
<path class="st2" d="M159.3,111.4v-4.5h1.1v4.5H159.3z"/>
<path class="st2" d="M161.5,110.3h1.1v-1.1h1.1v1.1h-1.1v1.1h-1.1V110.3z"/>
<path class="st2" d="M164.9,109.2h2.3v1.1h1.1v-1.1h1.1v1.1h1.1v1.1h-1.1v-1.1h-1.1v1.1h-1.1v-1.1H166v1.1h-1.1V109.2z"/>
<path class="st2" d="M171.7,109.2h1.1v1.1h1.1v1.1h-1.1v-1.1h-1.1V109.2z"/>
<path class="st2" d="M177.3,111.4v-1.1h1.1v-1.1h1.1v1.1h1.1v1.1h-1.1v-1.1h-1.1v1.1H177.3z"/>
<path class="st2" d="M181.8,108h1.1v-1.1h1.1v1.1h-1.1v4.5h-1.1V108z"/>
<path class="st2" d="M0.7,116.9h1.1v-1.1h1.1v1.1H1.8v4.5H0.7V116.9z"/>
<path class="st2" d="M2.9,120.3v-1.1H4v-1.1h1.1v1.1h1.1v1.1h-1v-1.1H4.1v1.1H2.9z"/>
<path class="st2" d="M7.4,116.9h1.1v1.1h1.1v2.2h-1V118H7.4V116.9z"/>
<path class="st2" d="M10.8,119.2h1.1V118H13v1.1h-1.1v1.1h-1.1C10.8,120.2,10.8,119.2,10.8,119.2z"/>
<path class="st2" d="M14.2,116.9v-1.1h1.1v1.1H14.2z M15.3,118v2.2h-1.1V118H15.3z"/>
<path class="st2" d="M17.5,118.1V117h1.1v1.1H17.5v1.1h-1.1v-1.1H17.5z M18.7,120.3v1.1h-2.3v-1.1H18.7z"/>
<path class="st2" d="M22,118.1v1.1h1.1v1.1H22v-1.1h-1.1v1.1h-1.1v-2.2H22z"/>
<path class="st2" d="M26.5,121.4V118h1.1v3.4H26.5z"/>
<path class="st2" d="M29.9,120.3v-1.1H31v-1.1h1.1v1.1h1.1v1.1h-1.1v-1.1H31v1.1H29.9z"/>
<path class="st2" d="M34.4,120.3v-4.5h1.1v4.5H34.4z"/>
<path class="st2" d="M36.7,116.9v-1.1h1.1v1.1H36.7z M37.8,118v2.2h-1.1V118H37.8z"/>
<path class="st2" d="M38.9,119.2H40V118h1.1v1.1H40v1.1h-1.1V119.2z"/>
<path class="st2" d="M42.3,119.2V118h1.1v1.1L42.3,119.2L42.3,119.2z M44.5,120.3V118h1.1v2.2h-1.1v1.1h-1.1v-1.1L44.5,120.3z"/>
<path class="st2" d="M47.9,121.4h-1.1v-1.1h1.1V121.4z"/>
<path class="st2" d="M51.3,119.2h1.1V118h1.1v1.1h-1.1v1.1h-1.1V119.2z"/>
<path class="st2" d="M54.7,118.1h1.1v1.1h1.1v1.1h-1.1v-1.1h-1.1V118.1z"/>
<path class="st2" d="M58,121.4V118h1.1v3.4H58z"/>
<path class="st2" d="M61.4,119.2h1.1V118h1.1v1.1h-1.1v1.1h-1.1V119.2z"/>
<path class="st2" d="M64.8,119.2h1.1V118H67v1.1h-1.1v1.1h-1.1V119.2z"/>
<path class="st2" d="M68.2,116.9v-1.1h1.1v1.1H68.2z M69.3,118v2.2h-1.1V118H69.3z"/>
<path class="st2" d="M70.4,120.3v-1.1h1.1v-1.1h2.2v2.2h-1.1v-1.1h-1.1v1.1H70.4z"/>
<path class="st2" d="M74.9,120.3v-4.5H76v4.5H74.9z"/>
<path class="st2" d="M77.2,120.3v-4.5h1.1v4.5H77.2z"/>
<path class="st2" d="M79.4,119.2V118h1.1v1.1L79.4,119.2L79.4,119.2z M81.7,120.3V118h1.1v2.2h-1.1v1.1h-1.1v-1.1L81.7,120.3z"/>
<path class="st2" d="M86.2,120.3v-3.4h1.1v3.4H86.2z"/>
<path class="st2" d="M88.4,120.3v-3.4h1.1v-1.1h1.1v1.1h-1.1v3.4H88.4z M91.8,118.1v2.2h-1.1v-2.2H91.8z"/>
<path class="st2" d="M92.9,119.2H94V118h1.1v1.1H94v1.1h-1.1V119.2z"/>
<path class="st2" d="M98.5,121.4V118h1.1v3.4H98.5z"/>
<path class="st2" d="M101.9,116.9h1.1v1.1h1.1v2.2H103V118h-1.1V116.9z"/>
<path class="st2" d="M105.3,120.3v-1.1h1.1v-1.1h1.1v1.1h1.1v1.1h-1.1v-1.1h-1.1v1.1H105.3z"/>
<path class="st2" d="M110.9,115.8v4.5h-1.1v-4.5H110.9z M112,120.3v-2.2h1.1v2.2H112z"/>
<path class="st2" d="M114.3,120.3v-4.5h1.1v4.5H114.3z"/>
<path class="st2" d="M116.5,119.2h1.1V118h1.1v1.1h-1.1v1.1h-1.1V119.2z"/>
<path class="st2" d="M119.9,118.1h2.3v1.1h1.1v-1.1h1.1v1.1h1.1v1.1h-1.1v-1.1h-1.1v1.1h-1.1v-1.1H121v1.1h-1.1V118.1z"/>
<path class="st2" d="M126.7,118.1h1.1v1.1h1.1v1.1h-1.1v-1.1h-1.1V118.1z"/>
<path class="st2" d="M132.3,120.3v-1.1h1.1v-1.1h1.1v1.1h1.1v1.1h-1.1v-1.1h-1.1v1.1H132.3z"/>
<path class="st2" d="M136.8,116.9h1.1v-1.1h1.1v1.1h-1.1v4.5h-1.1V116.9z"/>
<path class="st2" d="M142.4,116.9h1.1v-1.1h1.1v1.1h-1.1v4.5h-1.1V116.9z"/>
<path class="st2" d="M145.8,116.9v-1.1h1.1v1.1H145.8z M146.9,118v2.2h-1.1V118H146.9z"/>
<path class="st2" d="M150.3,118.1v1.1h1.1v1.1h-1.1v-1.1h-1.1v1.1H148v-2.2H150.3z"/>
<path class="st2" d="M152.5,120.3v-1.1h1.1v-1.1h2.3v2.2h-1.1v-1.1h-1.1v1.1H152.5z"/>
<path class="st2" d="M159.3,118.1v1.1h1.1v1.1h-1.1v-1.1h-1.1v1.1H157v-2.2H159.3z"/>
<path class="st2" d="M161.5,119.2h1.1V118h1.1v1.1h-1.1v1.1h-1.1V119.2z"/>
<path class="st2" d="M164.9,116.9v-1.1h1.1v1.1H164.9z M166,118v2.2h-1.1V118H166z"/>
<path class="st2" d="M167.2,120.3v-1.1h1.1v-1.1h2.2v2.2h-1.1v-1.1h-1.1v1.1H167.2z"/>
<path class="st2" d="M171.7,120.3v-4.5h1.1v4.5H171.7z"/>
<path class="st2" d="M176.2,120.3v-1.1h1.1v-1.1h2.2v2.2h-1.1v-1.1h-1.1v1.1H176.2z"/>
<path class="st2" d="M182.9,118.1v1.1h1.1v1.1h-1.1v-1.1h-1.1v1.1h-1.1v-2.2H182.9z"/>
<path class="st2" d="M185.2,120.3v-2.2h1.1v2.2H185.2z M186.3,116.9v-1.1h1.1v1.1h1.1v3.4h-1.1v-3.4H186.3z"/>
<path class="st2" d="M0.7,128.1h1.1V127h1.1v1.1H1.8v1.1H0.7V128.1z"/>
<path class="st2" d="M4,128.1h1.2V127h1.1v1.1H5.2v1.1H4V128.1z"/>
<path class="st2" d="M7.4,129.2v-1.1h1.1V127h1.1v1.1h1.1v1.1h-1v-1.1H8.5v1.1L7.4,129.2z"/>
<path class="st2" d="M14.2,127v1.1h1.1v1.1h-1.1v-1.1H13v1.1h-1.1V127H14.2z"/>
<path class="st2" d="M16.4,129.2v-1.1h1.1V127h1.1v1.1h1.1v1.1h-1.1v-1.1h-1.1v1.1L16.4,129.2z"/>
<path class="st2" d="M20.9,127h2.3v1.1h1.1V127h1.1v1.1h1.1v1.1h-1.1v-1.1h-1.1v1.1h-1.1v-1.1H22v1.1h-1.1V127z"/>
<path class="st2" d="M27.7,125.8v-1.1h1.1v1.1H27.7z M28.8,127v2.2h-1.1V127H28.8z"/>
<path class="st2" d="M29.9,128.1H31V127h1.1v1.1H31v1.1h-1.1V128.1z"/>
<path class="st2" d="M35.5,125.8h1.1v1.2h1.1v2.2h-1.1V127h-1.1V125.8z"/>
<path class="st2" d="M38.9,128.1H40V127h1.1v1.1H40v1.1h-1.1V128.1z"/>
<path class="st2" d="M42.3,130.3V127h1.1v3.4L42.3,130.3z"/>
<path class="st2" d="M45.7,129.2v-1.1h1.1V127H49v2.2h-1.1v-1.1h-1.1v1.1H45.7z"/>
<path class="st2" d="M50.2,125.8h1.1v1.2h1.1v2.2h-1.1V127h-1.1V125.8z"/>
<path class="st2" d="M53.5,129.2v-1.1h1.1V127h2.3v2.2h-1.1v-1.1h-1.1v1.1H53.5z"/>
<path class="st2" d="M58,129.2v-3.4h1.1v3.4H58z"/>
<path class="st2" d="M60.3,125.8v-1.1h1.1v1.1H60.3z M61.4,127v2.2h-1.1V127H61.4z"/>
<path class="st2" d="M62.5,129.2v-1.1h1.1V127h1.1v1.1h1.1v1.1h-1.1v-1.1h-1.1v1.1L62.5,129.2z"/>
<path class="st2" d="M69.3,127v1.1h1.1v1.1h-1.1v-1.1h-1.1v1.1H67V127H69.3z"/>
<path class="st2" d="M71.5,127h1.1v1.1h1.1v1.1h-1.1v-1.1h-1.1V127z"/>
<path class="st2" d="M76,128.1h1.1v1.1H76V128.1z"/>
<path class="st3" d="M195,133.4L195,133.4H0V0.1L0.1,0l0,0l195,0.1v0.1L195,133.4z M0.1,133.3l194.8,0.1L195,0.2L0.1,0.1l0,0V133.3z
	"/>
</svg>
