<?xml version="1.0" encoding="utf-8"?>
<!-- Generator: Adobe Illustrator 22.1.0, SVG Export Plug-In . SVG Version: 6.00 Build 0)  -->
<svg version="1.1" id="Layer_1" xmlns="http://www.w3.org/2000/svg" xmlns:xlink="http://www.w3.org/1999/xlink" x="0px" y="0px"
	 viewBox="0 0 195.6 133.4" style="enable-background:new 0 0 195.6 133.4;" xml:space="preserve">
<style type="text/css">
	.st0{opacity:0;fill:none;stroke:#000000;stroke-miterlimit:10;stroke-opacity:0;}
	.st1{opacity:0.45;}
</style>
<title>Asset 7</title>
<path class="st0" d="M195.5,133.4L195.5,133.4H0.4V0.1L0.5,0l0,0l195,0.1v0.1V133.4z M0.6,133.3l194.8,0.1V0.2L0.6,0.1l0,0V133.3z"
	/>
<path class="st1" d="M0,131.2h1.1v-1.1H0V131.2z M19.1,131.2h1.1v-1.1h-1.1V131.2z M164.2,129h1.1v-1.1h-1.1V129z M166.5,129h1.1
	v-1.1h-1.1V129z M168.7,129h1.1v-1.1h-1.1V129z M175.5,129h1.1v-1.1h-1.1V129z M33.7,129h1.1v-2.2h-1.1V129z M38.2,129h1.1v-2.2
	h-1.1V129z M40.5,129h1.1v-2.2h-1.1V129z M51.7,129h1.1v-2.2h-1.1V129z M63,129h1.1v-2.2H63V129z M69.7,129h1.1v-2.2h-1.1V129z
	 M86.6,129h1.1v-2.2h-1.1V129z M111.4,129h1.1v-2.2h-1.1V129z M118.1,129h1.1v-2.2h-1.1V129z M124.9,129h1.1v-2.2h-1.1V129z
	 M127.1,129h1.1v-2.2h-1.1V129z M147.4,129h1.1v-2.2h-1.1V129z M149.6,129h1.1v-2.2h-1.1V129z M34.9,126.7L34.9,126.7L34.9,126.7
	L34.9,126.7L34.9,126.7z M38.2,126.7L38.2,126.7L38.2,126.7L38.2,126.7L38.2,126.7z M41.6,126.7L41.6,126.7L41.6,126.7L41.6,126.7
	L41.6,126.7z M51.7,126.7L51.7,126.7L51.7,126.7L51.7,126.7L51.7,126.7z M64.1,126.7L64.1,126.7L64.1,126.7L64.1,126.7L64.1,126.7z
	 M69.7,126.7L69.7,126.7L69.7,126.7L69.7,126.7L69.7,126.7z M83.2,126.7v2.3h2.2v-1.1h-1.1v-1.1H83.2z M84.4,126.7L84.4,126.7
	L84.4,126.7z M87.7,126.7L87.7,126.7L87.7,126.7L87.7,126.7L87.7,126.7z M108,126.7v2.3h2.2v-1.1h-1.1v-1.1H108z M109.1,126.7
	L109.1,126.7L109.1,126.7z M112.5,126.7L112.5,126.7L112.5,126.7L112.5,126.7L112.5,126.7z M118.1,126.7L118.1,126.7L118.1,126.7
	L118.1,126.7L118.1,126.7z M126,126.7L126,126.7L126,126.7L126,126.7L126,126.7z M127.1,126.7L127.1,126.7L127.1,126.7L127.1,126.7
	L127.1,126.7z M148.5,126.7L148.5,126.7L148.5,126.7L148.5,126.7L148.5,126.7z M149.6,126.7L149.6,126.7L149.6,126.7L149.6,126.7
	L149.6,126.7z M5.6,125.6v3.4h1.1v-2.3h1.1v2.3H9v-2.2H7.9v-1.1H5.6z M11.2,125.6v1.1h-1.1v2.2h1.1v-2.3h1.1v2.3h1.1v-3.4H11.2z
	 M25.9,125.6v5.6H27v-4.5h1.1v2.3h1.1v-2.2h-1.1v-1.1H25.9z M34.9,126.7H36v-1.1h-1.1V126.7z M37.1,126.7h1.1v-1.1h-1.1V126.7z
	 M41.6,126.7h1.1v-1.1h-1.1V126.7z M43.9,125.6v3.4H45v-2.3h1.1v2.3h1.1v-2.2h-1.1v-1.1H43.9z M50.6,126.7h1.1v-1.1h-1.1V126.7z
	 M64.1,126.7h1.1v-1.1h-1.1V126.7z M68.6,126.7h1.1v-1.1h-1.1V126.7z M75.4,125.6v1.1h-1.1v2.2h1.1v-2.3h1.1v2.3h1.1v-3.4H75.4z
	 M78.7,125.6v3.4h1.1v-2.3H81v2.3h1.1v-2.2H81v-1.1H78.7z M84.4,126.7h1.1v-1.1h-1.1V126.7z M87.7,126.7h1.1v-1.1h-1.1V126.7z
	 M100.1,125.6v1.1H99v2.2h1.1v-2.3h1.1v2.3h1.1v-3.4H100.1z M103.5,125.6v3.4h1.1v-2.3h1.1v2.3h1.1v-2.2h-1.1v-1.1H103.5z
	 M109.1,126.7h1.1v-1.1h-1.1V126.7z M112.5,126.7h1.1v-1.1h-1.1V126.7z M117,126.7h1.1v-1.1H117V126.7z M126,126.7h1.1v-1.1H126
	V126.7z M148.5,126.7h1.1v-1.1h-1.1V126.7z M3.4,129h1.1v-3.4H3.4V129z M19.1,129h1.1v-3.4h-1.1V129z M21.4,130.1h1.1v-4.5h-1.1
	V130.1z M60.7,129h1.1v-3.4h-1.1V129z M122.6,129h1.1v-3.4h-1.1V129z M129.4,129h1.1v-3.4h-1.1V129z M131.6,129h1.1v-3.4h-1.1V129z
	 M136.1,129h1.1v-3.4h-1.1V129z M145.1,129h1.1v-3.4h-1.1V129z M154.1,129h1.1v-3.4h-1.1V129z M30.4,124.5v1.1h1.1v3.4h1.1v-3.4
	h-1.1v-1.1H30.4z M95.6,124.5v1.1h1.1v3.4h1.1v-3.4h-1.1v-1.1H95.6z M48.4,129h1.1v-4.5h-1.1V129z M56.2,129h1.1v-4.5h-1.1V129z
	 M58.5,129h1.1v-4.5h-1.1V129z M59.6,124.5L59.6,124.5L59.6,124.5z M72,129h1.1v-4.5H72V129z M120.4,129h1.1v-4.5h-1.1V129z
	 M121.5,124.5L121.5,124.5L121.5,124.5z M138.4,124.5L138.4,124.5L138.4,124.5z M138.4,129h1.1v-4.5h-1.1V129z M142.9,129h1.1v-4.5
	h-1.1V129z M144,124.5L144,124.5L144,124.5z M156.4,124.5L156.4,124.5L156.4,124.5z M156.4,129h1.1v-4.5h-1.1V129z M2.2,123.4v1.1
	H1.1v4.5h1.1v-4.5h2.2v-1.1H2.2z M14.6,129h1.1v-5.6h-1.1V129z M16.9,129H18v-5.6h-1.1V129z M59.6,124.5h1.1v-1.1h-1.1V124.5z
	 M92.2,123.4v6.7h1.1v-2.3h1.1v-1.1h-1.1v-2.3h1.1v-1.1H92.2z M121.5,124.5h1.1v-1.1h-1.1V124.5z M133.9,129h1.1v-5.6h-1.1V129z
	 M137.2,124.5h1.1v-1.1h-1.1V124.5z M144,124.5h1.1v-1.1H144V124.5z M151.9,129h1.1v-5.6h-1.1V129z M155.2,124.5h1.1v-1.1h-1.1
	V124.5z M160.9,123.4v7.9h2.2v-1.1H162v-5.6h1.1v-1.1H160.9z M171,123.4v1.1h1.1v5.6H171v1.1h2.2v-7.9H171z"/>
<path class="st1" d="M0,120h1.1v-1.1H0V120z M173.2,117.8h1.1v-1.1h-1.1V117.8z M173.2,116.7L173.2,116.7L173.2,116.7L173.2,116.7
	L173.2,116.7z M174.4,116.7L174.4,116.7L174.4,116.7L174.4,116.7L174.4,116.7z M183.4,117.8h1.1v-1.1h-1.1V117.8z M20.2,117.8h1.1
	v-2.2h-1.1V117.8z M22.5,117.8h1.1v-2.2h-1.1V117.8z M39.4,117.8h1.1v-2.2h-1.1V117.8z M54,117.8h1.1v-2.2H54V117.8z M72,117.8h1.1
	v-2.2H72V117.8z M74.2,117.8h1.1v-2.2h-1.1V117.8z M91.1,117.8h1.1v-2.2h-1.1V117.8z M102.4,117.8h1.1v-2.2h-1.1V117.8z
	 M104.6,117.8h1.1v-2.2h-1.1V117.8z M113.6,117.8h1.1v-2.2h-1.1V117.8z M115.9,117.8h1.1v-2.2h-1.1V117.8z M142.9,117.8h1.1v-2.2
	h-1.1V117.8z M145.1,117.8h1.1v-2.2h-1.1V117.8z M151.9,117.8h1.1v-2.2h-1.1V117.8z M168.7,117.8h1.1v-2.2h-1.1V117.8z M176.6,117.8
	h1.1v-2.2h-1.1V117.8z M12.4,115.5v2.2h2.2v-1.1h-1.1v-1.1H12.4z M13.5,115.5L13.5,115.5L13.5,115.5z M21.4,115.5L21.4,115.5
	L21.4,115.5L21.4,115.5L21.4,115.5z M22.5,115.5L22.5,115.5L22.5,115.5L22.5,115.5L22.5,115.5z M39.4,115.5L39.4,115.5L39.4,115.5
	L39.4,115.5L39.4,115.5z M54,115.5L54,115.5L54,115.5L54,115.5L54,115.5z M73.1,115.5L73.1,115.5L73.1,115.5L73.1,115.5L73.1,115.5z
	 M74.2,115.5L74.2,115.5L74.2,115.5L74.2,115.5L74.2,115.5z M91.1,115.5L91.1,115.5L91.1,115.5L91.1,115.5L91.1,115.5z M103.5,115.5
	L103.5,115.5L103.5,115.5L103.5,115.5L103.5,115.5z M104.6,115.5L104.6,115.5L104.6,115.5L104.6,115.5L104.6,115.5z M114.7,115.5
	L114.7,115.5L114.7,115.5L114.7,115.5L114.7,115.5z M115.9,115.5L115.9,115.5L115.9,115.5L115.9,115.5L115.9,115.5z M144,115.5
	L144,115.5L144,115.5L144,115.5L144,115.5z M145.1,115.5L145.1,115.5L145.1,115.5L145.1,115.5L145.1,115.5z M153,115.5L153,115.5
	L153,115.5L153,115.5L153,115.5z M169.9,115.5L169.9,115.5L169.9,115.5L169.9,115.5L169.9,115.5z M177.7,115.5L177.7,115.5
	L177.7,115.5L177.7,115.5L177.7,115.5z M7.9,114.4v3.4H9v-2.2h1.1v2.2h1.1v-2.2h-1.1v-1.1H7.9z M13.5,115.5h1.1v-1.1h-1.1V115.5z
	 M21.4,115.5h1.1v-1.1h-1.1V115.5z M24.8,114.4v3.4h1.1v-2.2H27v2.2h1.1v-2.2H27v-1.1H24.8z M30.4,114.4v1.1h-1.1v2.2h1.1v-2.2h1.1
	v2.2h1.1v-3.4H30.4z M38.2,115.5h1.1v-1.1h-1.1V115.5z M48.4,114.4v3.4h1.1v-2.2h1.1v2.2h1.1v-2.2h-1.1v-1.1H48.4z M52.9,115.5H54
	v-1.1h-1.1V115.5z M73.1,115.5h1.1v-1.1h-1.1V115.5z M76.5,114.4v3.4h1.1v-2.2h1.1v2.2h1.1v-2.2h-1.1v-1.1H76.5z M82.1,114.4v1.1H81
	v2.2h1.1v-2.2h1.1v2.2h1.1v-3.4H82.1z M90,115.5h1.1v-1.1H90V115.5z M94.5,114.4v1.1h-1.1v2.2h1.1v-2.2h1.1v2.2h1.1v-3.4H94.5z
	 M103.5,115.5h1.1v-1.1h-1.1V115.5z M106.9,114.4v3.4h1.1v-2.2h1.1v2.2h1.1v-2.2h-1.1v-1.1H106.9z M114.7,115.5h1.1v-1.1h-1.1V115.5
	z M118.1,114.4v3.4h1.1v-2.2h1.1v2.2h1.1v-2.2h-1.1v-1.1H118.1z M126,114.4v1.1h-1.1v2.2h1.1v-2.2h1.1v2.2h1.1v-3.4H126z M144,115.5
	h1.1v-1.1H144V115.5z M147.4,114.4v5.6h1.1v-4.5h1.1v2.2h1.1v-2.2h-1.1v-1.1H147.4z M153,115.5h1.1v-1.1H153V115.5z M156.4,114.4
	v1.1h-1.1v2.2h1.1v-2.2h1.1v2.2h1.1v-3.4H156.4z M159.7,114.4v3.4h1.1v-2.2h1.1v2.2h1.1v-2.2H162v-1.1H159.7z M169.9,115.5h1.1v-1.1
	h-1.1V115.5z M172.1,116.7h1.1v-2.2h-1.1V116.7z M174.4,116.7h1.1v-2.2h-1.1V116.7z M177.7,115.5h1.1v-1.1h-1.1V115.5z M3.4,117.8
	h1.1v-3.4H3.4V117.8z M5.6,117.8h1.1v-3.4H5.6V117.8z M18,117.8h1.1v-3.4H18V117.8z M36,117.8h1.1v-3.4H36V117.8z M46.1,117.8h1.1
	v-3.4h-1.1V117.8z M58.5,117.8h1.1v-3.4h-1.1V117.8z M63,117.8h1.1v-3.4H63V117.8z M65.2,117.8h1.1v-3.4h-1.1V117.8z M69.7,117.8
	h1.1v-3.4h-1.1V117.8z M87.7,117.8h1.1v-3.4h-1.1V117.8z M100.1,117.8h1.1v-3.4h-1.1V117.8z M135,117.8h1.1v-3.4H135V117.8z
	 M137.2,117.8h1.1v-3.4h-1.1V117.8z M187.9,117.8h1.1v-3.4h-1.1V117.8z M139.5,113.3v1.1h1.1v3.4h1.1v-3.4h-1.1v-1.1H139.5z
	 M1.1,117.8h1.1v-4.5H1.1V117.8z M2.2,113.3L2.2,113.3L2.2,113.3z M15.8,117.8h1.1v-4.5h-1.1V117.8z M41.6,117.8h1.1v-4.5h-1.1
	V117.8z M56.2,117.8h1.1v-4.5h-1.1V117.8z M60.7,117.8h1.1v-4.5h-1.1V117.8z M67.5,117.8h1.1v-4.5h-1.1V117.8z M97.9,117.8H99v-4.5
	h-1.1V117.8z M190.1,117.8h1.1v-4.5h-1.1V117.8z M2.2,113.3h1.1v-1.1H2.2V113.3z M18,113.3h1.1v-1.1H18V113.3z M33.7,117.8h1.1v-5.6
	h-1.1V117.8z M36,113.3h1.1v-1.1H36V113.3z M46.1,113.3h1.1v-1.1h-1.1V113.3z M58.5,113.3h1.1v-1.1h-1.1V113.3z M69.7,113.3h1.1
	v-1.1h-1.1V113.3z M85.5,117.8h1.1v-5.6h-1.1V117.8z M87.7,113.3h1.1v-1.1h-1.1V113.3z M100.1,113.3h1.1v-1.1h-1.1V113.3z
	 M132.7,112.2v1.1h-1.1v4.5l2.2,0v-1.1h-1.1v-1.1h1.1v-1.1h-1.1v-1.1h1.1v-1.1H132.7z M166.5,117.8h1.1v-5.6h-1.1V117.8z M180,117.8
	h1.1v-5.6H180V117.8z M187.9,113.3h1.1v-1.1h-1.1V113.3z"/>
<path class="st1" d="M185.6,107.7h-1.1v1.1h1.1V107.7z M185.6,102.1v4.5h1.1v-4.5h1.1V101h-1.1v1.1H185.6z M182.2,106.6v-2.2h1.1
	v2.2h1.1v-2.2h-1.1v-1.1h-1.1v1.1h-1.1v2.2H182.2z M177.7,102.1h-1.1v4.5h1.1V102.1z M173.2,104.3v2.2h2.2v-1.1h-1.1v-1.1h1.1v-1.1
	h-1.1v1.1H173.2z M169.9,106.6h1.1v-2.2h1.1v-1.1H171v1.1h-1.1V106.6z M166.5,108.8h1.1v-1.1h-1.1V108.8z M168.7,101h-1.1v1.1h1.1
	V101z M168.7,103.2h-1.1v3.4h1.1V103.2z M164.2,106.6v-2.2h1.1v2.2h1.1v-2.2h-1.1v-1.1h-1.1v1.1h-1.1v2.2H164.2z M159.7,103.2h1.1
	v3.4h1.1v-3.4h-1.1v-1.1h-1.1V103.2z M155.2,108.8h1.1v-4.5h1.1v2.2h1.1v-2.2h-1.1v-1.1h-2.2V108.8z M149.6,106.6h1.1v-2.2h1.1v-1.1
	h-1.1v1.1h-1.1V106.6z M147.4,106.6h1.1v-3.4h-1.1V106.6z M146.2,106.6v-4.5h1.1V101h-1.1v1.1h-1.1v4.5H146.2z M144,102.1h-1.1v4.5
	h1.1V102.1z M137.2,103.2h1.1v3.4h1.1v-3.4h-1.1v-1.1h-1.1V103.2z M133.9,106.6v-2.2h1.1v2.2h1.1v-2.2H135v-1.1h-1.1v1.1h-1.1v2.2
	H133.9z M130.5,107.7h-1.1v1.1h1.1V107.7z M130.5,102.1v4.5h1.1v-4.5h1.1V101h-1.1v1.1H130.5z M124.9,104.3h1.1v2.2h1.1v-2.2H126
	v-1.1h-1.1V104.3z M120.4,103.2v3.4h1.1v-2.2h1.1v2.2h1.1v-2.2h-1.1v-1.1H120.4z M117,106.6v-2.2h1.1v2.2h1.1v-2.2h-1.1v-1.1H117
	v1.1h-1.1v2.2H117z M114.7,101h-1.1v1.1h1.1V101z M113.6,106.6h1.1v-3.4h-1.1V106.6z M112.5,102.1h-1.1v4.5h1.1V102.1z M108,106.6
	v-2.2h1.1v2.2h1.1v-3.4H108v1.1h-1.1v2.2H108z M103.5,103.2h-1.1v3.4h1.1V103.2z M104.6,102.1v4.5h1.1v-4.5H104.6l0-1.1h-1.1v1.1
	H104.6z M97.9,103.2v3.4H99v-2.2h1.1v2.2h1.1v-2.2h-1.1v-1.1H97.9z M94.5,103.2h-1.1v3.4h1.1V103.2z M95.6,106.6h1.1v-3.4h-1.1
	V106.6z M90,106.6v-2.2h1.1v2.2h1.1v-2.2h-1.1v-1.1H90v1.1h-1.1v2.2H90z M86.6,107.7h-1.1v1.1h1.1V107.7z M86.6,102.1v4.5h1.1v-4.5
	h1.1V101h-1.1v1.1H86.6z M81,106.6h1.1v-2.2h1.1v-1.1h-1.1v1.1H81V106.6z M78.7,106.6h1.1v-3.4h-1.1V106.6z M77.6,106.6v-4.5h1.1
	V101h-1.1v1.1h-1.1v4.5H77.6z M75.4,102.1h-1.1v4.5h1.1V102.1z M70.9,106.6h-1.1v1.1h1.1V106.6z M65.2,103.2v3.4h1.1v-2.2h1.1v2.2
	h1.1v-2.2h-1.1v-1.1H65.2z M61.9,103.2H63v3.4h1.1v-3.4H63v-1.1h-1.1V103.2z M58.5,103.2h-1.1v3.4h1.1V103.2z M59.6,106.6h1.1v-3.4
	h-1.1V106.6z M56.2,102.1h-1.1v4.5h1.1V102.1z M48.4,103.2v3.4h1.1v-2.2h1.1v2.2h1.1v-2.2h-1.1v-1.1H48.4z M47.2,101h-1.1v1.1h1.1
	V101z M46.1,106.6h1.1v-3.4h-1.1V106.6z M42.7,106.6h-1.1v1.1h1.1V106.6z M38.2,106.6h1.1v-2.2h1.1v-1.1h-1.1v1.1h-1.1V106.6z
	 M34.9,103.2H36v3.4h1.1v-3.4H36v-1.1h-1.1V103.2z M31.5,106.6h1.1v-2.2h1.1v-1.1h-1.1v1.1h-1.1V106.6z M27,106.6v-1.1h1.1v1.1h1.1
	v-1.1h1.1v-2.2h-1.1v2.2h-1.1v-2.2H27v2.2h-1.1v-2.2h-1.1v3.4H27z M20.2,106.6h1.1v-3.4h-1.1V106.6z M19.1,106.6v-4.5h1.1V101h-1.1
	v1.1H18v4.5H19.1z M14.6,104.3v2.2h2.2v-1.1h-1.1v-1.1h1.1v-1.1h-1.1v1.1H14.6z M13.5,101h-1.1v1.1h1.1V101z M12.4,106.6h1.1v-3.4
	h-1.1V106.6z M10.1,106.6h1.1v-3.4h-1.1V106.6z M9,106.6v-4.5h1.1V101H9v1.1H7.9v4.5H9z M3.4,106.6v-1.1h1.1v1.1h1.1v-1.1h1.1v-2.2
	H5.6v2.2H4.5v-2.2H3.4v2.2H2.2v-2.2H1.1v3.4H3.4z"/>
<path class="st1" d="M190.1,95.4H189v1.1h1.1V95.4z M184.5,92v3.4h1.1v-2.2h1.1v2.2h1.1v-2.2h-1.1V92H184.5z M181.1,95.4v-2.2h1.1
	v2.2h1.1v-2.2h-1.1V92h-1.1v1.1H180v2.2H181.1z M178.9,89.8h-1.1v1.1h1.1V89.8z M177.7,95.4h1.1V92h-1.1V95.4z M174.4,93.1h1.1v2.2
	h1.1v-2.2h-1.1V92h-1.1V93.1z M169.9,92v3.4h1.1v-2.2h1.1v2.2h1.1v-2.2h-1.1V92H169.9z M166.5,95.4h1.1v-2.2h1.1V92h-1.1v1.1h-1.1
	V95.4z M159.7,95.4h1.1v-2.2h1.1v2.2h1.1v-2.2h1.1v2.2h1.1v-2.2h-1.1V92h-1.1v1.1H162l0-1.1h-2.2V95.4z M158.6,89.8h-1.1v1.1h1.1
	V89.8z M157.5,95.4h1.1V92h-1.1V95.4z M154.1,92H153v3.4h1.1V92z M155.2,90.9v4.5h1.1v-4.5H155.2l0-1.1h-1.1v1.1H155.2z M147.4,95.4
	h1.1v-2.2h1.1V92h-1.1v1.1h-1.1V95.4z M144,94.3v1.1h1.1v-1.1h1.1V92h-1.1v2.2L144,94.3l0-2.2h-1.1v2.2H144z M141.7,89.8h-1.1v1.1
	h1.1V89.8z M140.6,95.4h1.1V92h-1.1V95.4z M139.5,90.9h-1.1v4.5h1.1V90.9z M135,95.4v-2.2h1.1v2.2h1.1V92H135v1.1h-1.1v2.2H135z
	 M127.1,95.4h1.1v-2.2h1.1v2.2h1.1v-2.2h1.1v2.2h1.1v-2.2h-1.1V92h-1.1v1.1h-1.1l0-1.1h-2.2V95.4z M123.7,92h1.1v3.4h1.1V92h-1.1
	v-1.1h-1.1V92z M120.4,95.4v-2.2h1.1v2.2h1.1v-2.2h-1.1V92h-1.1v1.1h-1.1v2.2H120.4z M114.7,92v3.4h1.1v-2.2h1.1v2.2h1.1v-2.2H117
	V92H114.7z M109.1,95.4v-2.2h1.1v2.2h1.1V92h-2.2v1.1H108v2.2H109.1z M102.4,92h-1.1v3.4h1.1V92z M103.5,90.9v4.5h1.1v-4.5H103.5
	l0-1.1h-1.1v1.1H103.5z M96.7,92v3.4h1.1v-2.2H99v2.2h1.1v-2.2H99V92H96.7z M93.4,95.4v-2.2h1.1v2.2h1.1V92h-2.2v1.1h-1.1v2.2H93.4z
	 M88.9,89.8h-1.1v5.6h1.1V89.8z M84.4,95.4v-2.2h1.1v2.2h1.1V92h-2.2v1.1h-1.1v2.2H84.4z M79.9,93.1v2.2h2.2v-1.1H81v-1.1h1.1V92H81
	v1.1H79.9z M78.7,89.8h-1.1v1.1h1.1V89.8z M77.6,95.4h1.1V92h-1.1V95.4z M73.1,93.1H72v2.2h1.1V93.1z M73.1,97.6h2.2v-1.1h-2.2V97.6
	z M74.2,95.4h1.1v-2.2h1.1V92h-1.1v1.1h-1.1V95.4z M68.6,95.4v-2.2h1.1v2.2h1.1v-2.2h-1.1V92h-1.1v1.1h-1.1v2.2H68.6z M66.4,89.8
	h-1.1v5.6h1.1V89.8z M61.9,95.4v-2.2H63v2.2h1.1v-2.2H63V92h-1.1v1.1h-1.1v2.2H61.9z M59.6,89.8h-1.1v1.1h1.1V89.8z M58.5,95.4h1.1
	V92h-1.1V95.4z M55.1,93.1v2.2h2.2v-1.1h-1.1v-1.1h1.1V92h-1.1v1.1H55.1z M51.7,95.4v-2.2h1.1v2.2H54v-2.2h-1.1V92h-1.1v1.1h-1.1
	v2.2H51.7z M47.2,93.1h1.1v2.2h1.1v-2.2h-1.1V92h-1.1V93.1z M43.9,93.1v2.2h2.2v-1.1H45v-1.1h1.1V92H45v1.1H43.9z M42.7,89.8h-1.1
	v1.1h1.1V89.8z M41.6,95.4h1.1V92h-1.1V95.4z M34.9,95.4H36v-2.2h1.1v2.2h1.1v-2.2h1.1v2.2h1.1v-2.2h-1.1V92h-1.1v1.1h-1.1V92h-2.2
	V95.4z M31.5,95.4v-2.2h1.1v2.2h1.1v-2.2h-1.1V92h-1.1v1.1h-1.1v2.2H31.5z M25.9,92v3.4H27v-2.2h1.1v2.2h1.1v-2.2h-1.1V92H25.9z
	 M20.2,95.4v-2.2h1.1v2.2h1.1v-2.2h-1.1V92h-1.1v1.1h-1.1v2.2H20.2z M15.8,93.1v2.2H18v-1.1h-1.1v-1.1H18V92h-1.1v1.1H15.8z
	 M12.4,95.4h1.1v-2.2h1.1V92h-1.1v1.1h-1.1V95.4z M5.6,92v3.4h1.1v-2.2h1.1v2.2H9v-2.2H7.9V92H5.6z M2.2,95.4v-2.2h1.1v2.2h1.1V92
	H2.2v1.1H1.1v2.2H2.2z"/>
<path class="st1" d="M184.5,84.2h1.1v-1.1h-1.1V84.2z M185.6,80.8h-1.1v1.1h1.1V80.8z M180,81.9h1.1v2.2h1.1v-2.2h-1.1v-1.1H180
	V81.9z M175.5,80.8v3.4h1.1v-2.2h1.1v2.2h1.1v-2.2h-1.1v-1.1H175.5z M172.1,84.2v-2.2h1.1v2.2h1.1v-2.2h-1.1v-1.1h-1.1v1.1H171v2.2
	H172.1z M169.9,78.6h-1.1v1.1h1.1V78.6z M168.7,84.2h1.1v-3.4h-1.1V84.2z M165.4,81.9h1.1v2.2h1.1v-2.2h-1.1v-1.1h-1.1V81.9z
	 M160.9,80.8v3.4h1.1v-2.2h1.1v2.2h1.1v-2.2h-1.1v-1.1H160.9z M157.5,84.2h1.1v-2.2h1.1v-1.1h-1.1v1.1h-1.1V84.2z M150.7,84.2h1.1
	v-2.2h1.1v2.2h1.1v-2.2h1.1v2.2h1.1v-2.2h-1.1v-1.1h-1.1v1.1H153l0-1.1h-2.2V84.2z M149.6,78.6h-1.1v1.1h1.1V78.6z M148.5,84.2h1.1
	v-3.4h-1.1V84.2z M145.1,80.8H144v3.4h1.1V80.8z M146.2,79.7v4.5h1.1v-4.5H146.2l0-1.1h-1.1v1.1H146.2z M140.6,79.7h-1.1v4.5h1.1
	V79.7z M136.1,81.9v2.2h2.2v-1.1h-1.1v-1.1h1.1v-1.1h-1.1v1.1H136.1z M131.6,80.8v3.4h1.1v-2.2h1.1v2.2h1.1v-2.2h-1.1v-1.1H131.6z
	 M130.5,78.6h-1.1v1.1h1.1V78.6z M129.4,84.2h1.1v-3.4h-1.1V84.2z M128.2,79.7h-1.1v4.5h1.1V79.7z M123.7,81.9h1.1v2.2h1.1v-2.2
	h-1.1v-1.1h-1.1V81.9z M122.6,78.6h-1.1v1.1h1.1V78.6z M121.5,84.2h1.1v-3.4h-1.1V84.2z M118.1,80.8H117v3.4h1.1V80.8z M119.2,79.7
	v4.5h1.1v-4.5H119.2l0-1.1h-1.1v1.1H119.2z M111.4,84.2v-2.2h1.1v2.2h1.1v-2.2h-1.1v-1.1h-1.1v1.1h-1.1v2.2H111.4z M105.7,84.2v-1.1
	h1.1v1.1h1.1v-1.1h1.1v-2.2H108v2.2h-1.1v-2.2h-1.1v2.2h-1.1v-2.2h-1.1v3.4H105.7z M102.4,79.7h-1.1v4.5h1.1V79.7z M95.6,85.3h-1.1
	v1.1h1.1V85.3z M95.6,79.7v4.5h1.1v-4.5h1.1v-1.1h-1.1v1.1H95.6z M92.2,84.2v-2.2h1.1v2.2h1.1v-2.2h-1.1v-1.1h-1.1v1.1h-1.1v2.2
	H92.2z M84.4,86.4h1.1v-4.5h1.1v2.2h1.1v-2.2h-1.1v-1.1h-2.2V86.4z M81,80.8h-1.1v3.4H81V80.8z M82.1,84.2h1.1v-3.4h-1.1V84.2z
	 M74.2,84.2h1.1v-2.2h1.1v-1.1h-1.1v1.1h-1.1V84.2z M70.9,80.8h-1.1v3.4h1.1V80.8z M72,79.7v4.5h1.1v-4.5H72l0-1.1h-1.1v1.1H72z
	 M66.4,84.2v-2.2h1.1v2.2h1.1v-3.4h-2.2v1.1h-1.1v2.2H66.4z M58.5,84.2h1.1v-2.2h1.1v2.2h1.1v-2.2H63v2.2h1.1v-2.2H63v-1.1h-1.1v1.1
	h-1.1l0-1.1h-2.2V84.2z M55.1,84.2H54v1.1h1.1V84.2z M50.6,85.3h-1.1v1.1h1.1V85.3z M49.5,84.2h1.1v-3.4h-1.1V84.2z M51.7,85.3h1.1
	v-4.5h-1.1V85.3z M48.4,79.7h-1.1v4.5h1.1V79.7z M46.1,78.6H45v1.1h1.1V78.6z M45,84.2h1.1v-3.4H45V84.2z M40.5,80.8v3.4h1.1v-2.2
	h1.1v2.2h1.1v-2.2h-1.1v-1.1H40.5z M37.1,80.8H36v3.4h1.1V80.8z M38.2,84.2h1.1v-3.4h-1.1V84.2z M29.2,80.8v3.4h1.1v-2.2h1.1v2.2
	h1.1v-2.2h-1.1v-1.1H29.2z M25.9,84.2v-2.2H27v2.2h1.1v-3.4h-2.2v1.1h-1.1v2.2H25.9z M21.4,84.2h1.1v-2.2h1.1v-1.1h-1.1v1.1h-1.1
	V84.2z M16.9,86.4H18v-4.5h1.1v2.2h1.1v-2.2h-1.1v-1.1h-2.2V86.4z M13.5,84.2v-2.2h1.1v2.2h1.1v-2.2h-1.1v-1.1h-1.1v1.1h-1.1v2.2
	H13.5z M9,80.8h1.1v3.4h1.1v-3.4h-1.1v-1.1H9V80.8z M5.6,80.8H4.5v3.4h1.1V80.8z M6.8,84.2h1.1v-3.4H6.8V84.2z M3.4,81.9v-1.1H2.2
	v-1.1H1.1v4.5l2.2,0v-1.1H2.2v-1.1H3.4z M3.4,78.6H2.2v1.1h1.1V78.6z"/>
<path class="st1" d="M191.2,74.1h-1.1v1.1h1.1V74.1z M191.2,68.5V73h1.1v-4.5h1.1v-1.1h-1.1v1.1H191.2z M187.9,73v-2.2h1.1V73h1.1
	v-2.2H189v-1.1h-1.1v1.1h-1.1V73H187.9z M181.1,73v-2.2h1.1V73h1.1v-3.4h-2.2v1.1H180V73H181.1z M176.6,73h1.1v-2.2h1.1v-1.1h-1.1
	v1.1h-1.1V73z M173.2,69.6h-1.1V73h1.1V69.6z M174.4,68.5V73h1.1v-4.5H174.4v-1.1h-1.1v1.1H174.4z M171,67.4h-1.1v1.1h1.1V67.4z
	 M169.9,73h1.1v-3.4h-1.1V73z M166.5,67.4h-1.1V73h1.1V67.4z M162,73v-2.2h1.1V73h1.1v-3.4H162v1.1h-1.1V73H162z M157.5,69.6h1.1V73
	h1.1v-3.4h-1.1v-1.1h-1.1V69.6z M154.1,73h1.1v-2.2h1.1v-1.1h-1.1v1.1h-1.1V73z M153,69.6h-1.1V73h1.1V69.6z M149.6,73h1.1v-5.6
	h-1.1V73z M148.5,67.4h-1.1v1.1h1.1V67.4z M147.4,73h1.1v-3.4h-1.1V73z M146.2,67.4h-1.1V73h1.1V67.4z M138.4,73v-1.1h1.1V73h1.1
	v-1.1h1.1v-2.2h-1.1v2.2h-1.1v-2.2h-1.1v2.2h-1.1v-2.2h-1.1V73H138.4z M132.7,73h1.1v-2.2h1.1v-1.1h-1.1v1.1h-1.1V73z M128.2,69.6
	V73h1.1v-2.2h1.1V73h1.1v-2.2h-1.1v-1.1H128.2z M122.6,73h1.1v-2.2h1.1v-1.1h-1.1v1.1h-1.1V73z M120.4,73h1.1v-3.4h-1.1V73z
	 M119.2,73v-4.5h1.1v-1.1h-1.1v1.1h-1.1V73H119.2z M117,68.5h-1.1V73h1.1V68.5z M110.2,73v-2.2h1.1V73h1.1v-2.2h-1.1v-1.1h-1.1v1.1
	h-1.1V73H110.2z M108,68.5h-1.1V73h1.1V68.5z M101.2,70.7h1.1V73h1.1v-2.2h-1.1v-1.1h-1.1V70.7z M97.9,73H99v-2.2h1.1v-1.1H99v1.1
	h-1.1V73z M94.5,73v-2.2h1.1V73h1.1v-2.2h-1.1v-1.1h-1.1v1.1h-1.1V73H94.5z M88.9,70.7h-1.1V73h1.1V70.7z M88.9,75.2h2.2v-1.1h-2.2
	V75.2z M90,73h1.1v-2.2h1.1v-1.1h-1.1v1.1H90V73z M81,69.6V73h1.1v-2.2h1.1V73h1.1v-2.2h-1.1v-1.1H81z M77.6,73h1.1v-2.2h1.1v-1.1
	h-1.1v1.1h-1.1V73z M75.4,73h1.1v-3.4h-1.1V73z M74.2,73v-4.5h1.1v-1.1h-1.1v1.1h-1.1V73H74.2z M72,68.5h-1.1V73H72V68.5z M65.2,73
	h1.1v-2.2h1.1v-1.1h-1.1v1.1h-1.1V73z M64.1,67.4H63V73h1.1V67.4z M59.6,70.7V73h2.2v-1.1h-1.1v-1.1h1.1v-1.1h-1.1v1.1H59.6z
	 M58.5,67.4h-1.1v1.1h1.1V67.4z M57.4,73h1.1v-3.4h-1.1V73z M56.2,68.5h-1.1V73h1.1V68.5z M51.7,69.6h1.1V73H54v-3.4h-1.1v-1.1h-1.1
	V69.6z M48.4,73v-2.2h1.1V73h1.1v-3.4h-2.2v1.1h-1.1V73H48.4z M41.6,73h1.1v-2.2h1.1v-1.1h-1.1v1.1h-1.1V73z M39.4,73h1.1v-3.4h-1.1
	V73z M38.2,73v-4.5h1.1v-1.1h-1.1v1.1h-1.1V73H38.2z M36,68.5h-1.1V73H36V68.5z M30.4,73h1.1v-1.1h-1.1V73z M25.9,70.7H27V73h1.1
	v-2.2H27v-1.1h-1.1V70.7z M22.5,73h1.1v-2.2h1.1v-1.1h-1.1v1.1h-1.1V73z M21.4,67.4h-1.1v1.1h1.1V67.4z M20.2,73h1.1v-3.4h-1.1V73z
	 M19.1,68.5H18V73h1.1V68.5z M14.6,73h1.1v-2.2h1.1v-1.1h-1.1v1.1h-1.1V73z M13.5,67.4h-1.1v1.1h1.1V67.4z M12.4,73h1.1v-3.4h-1.1
	V73z M9,70.7V73h2.2v-1.1h-1.1v-1.1h1.1v-1.1h-1.1v1.1H9z M5.6,73v-2.2h1.1V73h1.1v-2.2H6.7v-1.1H5.6v1.1H4.5V73H5.6z M1.1,70.7h1.1
	V73h1.1v-2.2H2.2v-1.1H1.1V70.7z"/>
<path class="st1" d="M189,56.2h-1.1v5.6h1.1V56.2z M184.5,61.8v-2.2h1.1v2.2h1.1v-3.4h-2.2v1.1h-1.1v2.2H184.5z M178.9,58.4v3.4h1.1
	v-2.2h1.1v2.2h1.1v-2.2h-1.1v-1.1H178.9z M175.5,61.8v-2.2h1.1v2.2h1.1v-2.2h-1.1v-1.1h-1.1v1.1h-1.1v2.2H175.5z M173.2,56.2h-1.1
	v1.1h1.1V56.2z M172.1,61.8h1.1v-3.4h-1.1V61.8z M171,57.3h-1.1v4.5h1.1V57.3z M166.5,61.8v-2.2h1.1v2.2h1.1v-3.4h-2.2v1.1h-1.1v2.2
	H166.5z M160.9,58.4v3.4h1.1v-2.2h1.1v2.2h1.1v-2.2h-1.1v-1.1H160.9z M157.5,57.3h-1.1v4.5h1.1V57.3z M153,59.5h1.1v2.2h1.1v-2.2
	h-1.1v-1.1H153V59.5z M148.5,59.5h-1.1v2.2h1.1V59.5z M148.5,64h2.2v-1.1h-2.2V64z M149.6,61.8h1.1v-2.2h1.1v-1.1h-1.1v1.1h-1.1
	V61.8z M142.9,58.4v3.4h1.1v-2.2h1.1v2.2h1.1v-2.2h-1.1v-1.1H142.9z M139.5,61.8v-2.2h1.1v2.2h1.1v-2.2h-1.1v-1.1h-1.1v1.1h-1.1v2.2
	H139.5z M131.6,61.8h1.1v-2.2h1.1v2.2h1.1v-2.2h1.1v2.2h1.1v-2.2h-1.1v-1.1H135v1.1h-1.1v-1.1h-2.2V61.8z M128.2,61.8v-2.2h1.1v2.2
	h1.1v-3.4h-2.2v1.1h-1.1v2.2H128.2z M121.5,58.4h1.1v3.4h1.1v-3.4h-1.1v-1.1h-1.1V58.4z M118.1,58.4H117v3.4h1.1V58.4z M119.2,61.8
	h1.1v-3.4h-1.1V61.8z M113.6,61.8v-2.2h1.1v2.2h1.1v-2.2h-1.1v-1.1h-1.1v1.1h-1.1v2.2H113.6z M111.4,58.4h-1.1v3.4h1.1V58.4z
	 M108,61.8h1.1v-5.6H108V61.8z M104.6,61.8v-2.2h1.1v2.2h1.1v-3.4h-2.2v1.1h-1.1v2.2H104.6z M102.4,56.2h-1.1v5.6h1.1V56.2z
	 M95.6,62.9h-1.1V64h1.1V62.9z M95.6,57.3v4.5h1.1v-4.5h1.1v-1.1h-1.1v1.1H95.6z M92.2,61.8v-2.2h1.1v2.2h1.1v-2.2h-1.1v-1.1h-1.1
	v1.1h-1.1v2.2H92.2z M84.4,58.4v3.4h1.1v-2.2h1.1v2.2h1.1v-2.2h-1.1v-1.1H84.4z M81,61.8v-2.2h1.1v2.2h1.1v-2.2h-1.1v-1.1H81v1.1
	h-1.1v2.2H81z M78.7,56.2h-1.1v1.1h1.1V56.2z M77.6,61.8h1.1v-3.4h-1.1V61.8z M74.2,59.5h1.1v2.2h1.1v-2.2h-1.1v-1.1h-1.1V59.5z
	 M73.1,56.2H72v1.1h1.1V56.2z M72,61.8h1.1v-3.4H72V61.8z M68.6,60.7v1.1h1.1v-1.1h1.1v-2.2h-1.1v2.2L68.6,60.7l0-2.2h-1.1v2.2H68.6
	z M66.4,56.2h-1.1v1.1h1.1V56.2z M65.2,61.8h1.1v-3.4h-1.1V61.8z M61.9,58.4h-1.1v3.4h1.1V58.4z M63,57.3v4.5h1.1v-4.5H63l0-1.1
	h-1.1v1.1H63z M55.1,61.8v-2.2h1.1v2.2h1.1v-3.4h-2.2v1.1H54v2.2H55.1z M48.4,62.9h-1.1V64h1.1V62.9z M48.4,57.3v4.5h1.1v-4.5h1.1
	v-1.1h-1.1v1.1H48.4z M45,61.8v-2.2h1.1v2.2h1.1v-2.2h-1.1v-1.1H45v1.1h-1.1v2.2H45z M40.5,57.3h-1.1v4.5h1.1V57.3z M38.2,56.2h-1.1
	v5.6h1.1V56.2z M33.7,58.4h-1.1v3.4h1.1V58.4z M34.9,61.8H36v-3.4h-1.1V61.8z M29.2,59.5h1.1v2.2h1.1v-2.2h-1.1v-1.1h-1.1V59.5z
	 M25.9,61.8H27v-2.2h1.1v-1.1H27v1.1h-1.1V61.8z M22.5,58.4h1.1v3.4h1.1v-3.4h-1.1v-1.1h-1.1V58.4z M16.9,61.8v-2.2H18v2.2h1.1v-3.4
	h-2.2v1.1h-1.1v2.2H16.9z M9,59.5H7.9v2.2H9V59.5z M9,64h2.2v-1.1H9V64z M10.1,61.8h1.1v-2.2h1.1v-1.1h-1.1v1.1h-1.1V61.8z
	 M3.4,58.4v3.4h1.1v-2.2h1.1v2.2h1.1v-2.2H5.6v-1.1H3.4z M2.2,56.2H1.1v1.1h1.1V56.2z M1.1,61.8h1.1v-3.4H1.1V61.8z"/>
<path class="st1" d="M47.2,50.6h1.1v-2.2h-1.1V50.6z M52.9,50.6H54v-2.2h-1.1V50.6z M57.4,50.6h1.1v-2.2h-1.1V50.6z M67.5,50.6h1.1
	v-2.2h-1.1V50.6z M69.7,50.6h1.1v-2.2h-1.1V50.6z M87.7,50.6h1.1v-2.2h-1.1V50.6z M108,50.6h1.1v-2.2H108V50.6z M110.2,50.6h1.1
	v-2.2h-1.1V50.6z M135,50.6h1.1v-2.2H135V50.6z M148.5,50.6h1.1v-2.2h-1.1V50.6z M156.4,50.6h1.1v-2.2h-1.1V50.6z M168.7,50.6h1.1
	v-2.2h-1.1V50.6z M180,50.6h1.1v-2.2H180V50.6z M190.1,50.6h1.1v-2.2h-1.1V50.6z M193.5,49.5h1.1v-1.1h-1.1V49.5z M47.2,48.3
	L47.2,48.3L47.2,48.3L47.2,48.3L47.2,48.3z M52.9,48.3L52.9,48.3L52.9,48.3L52.9,48.3L52.9,48.3z M58.5,48.3L58.5,48.3L58.5,48.3
	L58.5,48.3L58.5,48.3z M68.6,48.3L68.6,48.3L68.6,48.3L68.6,48.3L68.6,48.3z M69.7,48.3L69.7,48.3L69.7,48.3L69.7,48.3L69.7,48.3z
	 M88.9,48.3L88.9,48.3L88.9,48.3L88.9,48.3L88.9,48.3z M109.1,48.3L109.1,48.3L109.1,48.3L109.1,48.3L109.1,48.3z M110.2,48.3
	L110.2,48.3L110.2,48.3L110.2,48.3L110.2,48.3z M136.1,48.3L136.1,48.3L136.1,48.3L136.1,48.3L136.1,48.3z M149.6,48.3L149.6,48.3
	L149.6,48.3L149.6,48.3L149.6,48.3z M157.5,48.3L157.5,48.3L157.5,48.3L157.5,48.3L157.5,48.3z M169.9,48.3L169.9,48.3L169.9,48.3
	L169.9,48.3L169.9,48.3z M176.6,48.3v2.2h2.2v-1.1h-1.1v-1.1H176.6z M177.7,48.3L177.7,48.3L177.7,48.3z M181.1,48.3L181.1,48.3
	L181.1,48.3L181.1,48.3L181.1,48.3z M191.2,48.3L191.2,48.3L191.2,48.3L191.2,48.3L191.2,48.3z M41.6,47.2v3.4h1.1v-2.2h1.1v2.2H45
	v-2.2h-1.1v-1.1H41.6z M46.1,48.3h1.1v-1.1h-1.1V48.3z M51.7,48.3h1.1v-1.1h-1.1V48.3z M58.5,48.3h1.1v-1.1h-1.1V48.3z M68.6,48.3
	h1.1v-1.1h-1.1V48.3z M72,47.2v3.4h1.1v-2.2h1.1v2.2h1.1v-2.2h-1.1v-1.1H72z M81,47.2v3.4h1.1v-2.2h1.1v2.2h1.1v-2.2h-1.1v-1.1H81z
	 M88.9,48.3H90v-1.1h-1.1V48.3z M94.5,47.2v3.4h1.1v-2.2h1.1v2.2h1.1v-2.2h-1.1v-1.1H94.5z M100.1,47.2v1.1H99v2.2h1.1v-2.2h1.1v2.2
	h1.1v-3.4H100.1z M109.1,48.3h1.1v-1.1h-1.1V48.3z M112.5,47.2v3.4h1.1v-2.2h1.1v2.2h1.1v-2.2h-1.1v-1.1H112.5z M118.1,47.2v1.1H117
	v2.2h1.1v-2.2h1.1v2.2h1.1v-3.4H118.1z M128.2,47.2v3.4h1.1v-2.2h1.1v2.2h1.1v-2.2h-1.1v-1.1H128.2z M136.1,48.3h1.1v-1.1h-1.1V48.3
	z M149.6,48.3h1.1v-1.1h-1.1V48.3z M151.9,47.2v5.6h1.1v-4.5h1.1v2.2h1.1v-2.2h-1.1v-1.1H151.9z M157.5,48.3h1.1v-1.1h-1.1V48.3z
	 M159.7,47.2v3.4h1.1v-2.2h1.1v2.2h1.1v-2.2H162v-1.1H159.7z M169.9,48.3h1.1v-1.1h-1.1V48.3z M172.1,47.2v3.4h1.1v-2.2h1.1v2.2h1.1
	v-2.2h-1.1v-1.1H172.1z M177.7,48.3h1.1v-1.1h-1.1V48.3z M181.1,48.3h1.1v-1.1h-1.1V48.3z M187.9,50.6h1.1v-3.4h-1.1V50.6z
	 M191.2,48.3h1.1v-1.1h-1.1V48.3z M32.6,50.6h1.1v-3.4h-1.1V50.6z M39.4,50.6h1.1v-3.4h-1.1V50.6z M49.5,50.6h1.1v-3.4h-1.1V50.6z
	 M60.7,50.6h1.1v-3.4h-1.1V50.6z M78.7,50.6h1.1v-3.4h-1.1V50.6z M105.7,50.6h1.1v-3.4h-1.1V50.6z M126,50.6h1.1v-3.4H126V50.6z
	 M144,50.6h1.1v-3.4H144V50.6z M164.2,50.6h1.1v-3.4h-1.1V50.6z M91.1,46.1v1.1h1.1v3.4h1.1v-3.4h-1.1v-1.1H91.1z M138.4,46.1v1.1
	h1.1v3.4h1.1v-3.4h-1.1v-1.1H138.4z M34.9,50.6H36v-4.5h-1.1V50.6z M55.1,50.6h1.1v-4.5h-1.1V50.6z M63,46.1L63,46.1L63,46.1z
	 M63,50.6h1.1v-4.5H63V50.6z M85.5,50.6h1.1v-4.5h-1.1V50.6z M103.5,50.6h1.1v-4.5h-1.1V50.6z M132.7,50.6h1.1v-4.5h-1.1V50.6z
	 M146.2,46.1L146.2,46.1L146.2,46.1z M146.2,50.6h1.1v-4.5h-1.1V50.6z M166.5,46.1L166.5,46.1L166.5,46.1z M166.5,50.6h1.1v-4.5
	h-1.1V50.6z M32.6,46.1h1.1V45h-1.1V46.1z M39.4,46.1h1.1V45h-1.1V46.1z M49.5,46.1h1.1V45h-1.1V46.1z M61.9,46.1H63V45h-1.1V46.1z
	 M78.7,46.1h1.1V45h-1.1V46.1z M105.7,46.1h1.1V45h-1.1V46.1z M121.5,50.6h1.1V45h-1.1V50.6z M126,46.1h1.1V45H126V46.1z
	 M145.1,46.1h1.1V45h-1.1V46.1z M165.4,46.1h1.1V45h-1.1V46.1z M185.6,50.6h1.1V45h-1.1V50.6z"/>
<path d="M28.1,50.6h1.1v-1.1h-1.1V50.6z M25.9,46.1h-1.1v4.5h1.1V46.1z M20.2,52.8h1.1v-4.5h1.1v2.2h1.1v-2.2h-1.1v-1.1h-2.2V52.8z
	 M16.9,50.6H18v-2.2h1.1v-1.1H18v1.1h-1.1V50.6z M13.5,48.3v2.2h2.2v-1.1h-1.1v-1.1h1.1v-1.1h-1.1v1.1H13.5z M9,47.2v3.4h1.1v-2.2
	h1.1v2.2h1.1v-2.2h-1.1v-1.1H9z M5.6,50.6v-2.2h1.1v2.2h1.1v-2.2H6.7v-1.1H5.6v1.1H4.5v2.2H5.6z M1.1,48.3v2.2h2.2v-1.1H2.2v-1.1
	h1.1v-1.1H2.2v1.1H1.1z"/>
<path d="M189,40.5h-1.1v1.1h1.1V40.5z M187.9,39.4h1.1V36h-1.1V39.4z M190.1,40.5h1.1V36h-1.1V40.5z M184.5,39.4h1.1v-2.2h1.1V36
	h-1.1v1.1h-1.1V39.4z M182.2,40.5h1.1v-1.1h-1.1V40.5z M182.2,38.3h1.1V36h-1.1V38.3z M181.1,39.4v-4.5h1.1v-1.1h-1.1v1.1H180v4.5
	H181.1z M174.4,39.4v-2.2h1.1v2.2h1.1V36h-2.2v1.1h-1.1v2.2H174.4z M167.6,37.1h1.1v2.2h1.1v-2.2h-1.1V36h-1.1V37.1z M164.2,39.4
	v-2.2h1.1v2.2h1.1V36h-2.2v1.1h-1.1v2.2H164.2z M157.5,40.5h-1.1v1.1h1.1V40.5z M156.4,39.4h1.1V36h-1.1V39.4z M158.6,40.5h1.1V36
	h-1.1V40.5z M155.2,34.9h-1.1v4.5h1.1V34.9z M153,33.8h-1.1v1.1h1.1V33.8z M151.9,39.4h1.1V36h-1.1V39.4z M148.5,36h1.1v3.4h1.1V36
	h-1.1v-1.1h-1.1V36z M145.1,39.4v-2.2h1.1v2.2h1.1V36h-2.2v1.1H144v2.2H145.1z M140.6,36h-1.1v3.4h1.1V36z M141.7,34.9v4.5h1.1v-4.5
	H141.7l0-1.1h-1.1v1.1H141.7z M138.4,33.8h-1.1v1.1h1.1V33.8z M137.2,39.4h1.1V36h-1.1V39.4z M136.1,33.8H135v5.6h1.1V33.8z
	 M131.6,39.4v-2.2h1.1v2.2h1.1v-2.2h-1.1V36h-1.1v1.1h-1.1v2.2H131.6z M127.1,37.1h1.1v2.2h1.1v-2.2h-1.1V36h-1.1V37.1z M123.7,33.8
	h-1.1v5.6h1.1V33.8z M119.2,39.4v-2.2h1.1v2.2h1.1V36h-2.2v1.1h-1.1v2.2H119.2z M113.6,36v3.4h1.1v-2.2h1.1v2.2h1.1v-2.2h-1.1V36
	H113.6z M110.2,39.4v-2.2h1.1v2.2h1.1v-2.2h-1.1V36h-1.1v1.1h-1.1v2.2H110.2z M108,33.8h-1.1v1.1h1.1V33.8z M106.9,39.4h1.1V36h-1.1
	V39.4z M105.7,34.9h-1.1v4.5h1.1V34.9z M101.2,39.4v-2.2h1.1v2.2h1.1V36h-2.2v1.1h-1.1v2.2H101.2z M95.6,36v3.4h1.1v-2.2h1.1v2.2H99
	v-2.2h-1.1V36H95.6z M92.2,36h1.1v3.4h1.1V36h-1.1v-1.1h-1.1V36z M88.9,39.4H90v-2.2h1.1V36H90v1.1h-1.1V39.4z M87.7,34.9h-1.1v4.5
	h1.1V34.9z M82.1,36v3.4h1.1v-2.2h1.1v2.2h1.1v-2.2h-1.1V36H82.1z M81,33.8h-1.1v1.1H81V33.8z M79.9,39.4H81V36h-1.1V39.4z
	 M74.2,37.1h1.1v2.2h1.1v-2.2h-1.1V36h-1.1V37.1z M70.9,39.4H72v-2.2h1.1V36H72v1.1h-1.1V39.4z M67.5,37.1v2.2h2.2v-1.1h-1.1v-1.1
	h1.1V36h-1.1v1.1H67.5z M64.1,36H63v3.4h1.1V36z M65.2,39.4h1.1V36h-1.1V39.4z M59.6,36h-1.1v3.4h1.1V36z M60.7,34.9v4.5h1.1v-4.5
	H60.7l0-1.1h-1.1v1.1H60.7z M55.1,39.4v-2.2h1.1v2.2h1.1v-2.2h-1.1V36h-1.1v1.1H54v2.2H55.1z M50.6,36h1.1v3.4h1.1V36h-1.1v-1.1
	h-1.1V36z M49.5,34.9h-1.1v4.5h1.1V34.9z M43.9,36v3.4H45v-2.2h1.1v2.2h1.1v-2.2h-1.1V36H43.9z M42.7,33.8h-1.1v1.1h1.1V33.8z
	 M41.6,39.4h1.1V36h-1.1V39.4z M38.2,39.4h-1.1v1.1h1.1V39.4z M33.7,40.5h-1.1v1.1h1.1V40.5z M32.6,39.4h1.1V36h-1.1V39.4z
	 M34.9,40.5H36V36h-1.1V40.5z M31.5,34.9h-1.1v4.5h1.1V34.9z M29.2,33.8h-1.1v1.1h1.1V33.8z M28.1,39.4h1.1V36h-1.1V39.4z M24.8,36
	h1.1v3.4H27V36h-1.1v-1.1h-1.1V36z M21.4,39.4h1.1v-2.2h1.1V36h-1.1v1.1h-1.1V39.4z M16.9,41.6H18v-4.5h1.1v2.2h1.1v-2.2h-1.1V36
	h-2.2V41.6z M13.5,37.1h1.1v2.2h1.1v-2.2h-1.1V36h-1.1V37.1z M10.1,39.4v-2.2h1.1v2.2h1.1v-2.2h-1.1V36h-1.1v1.1H9v2.2H10.1z
	 M5.6,36h1.1v3.4h1.1V36H6.7v-1.1H5.6V36z M1.1,41.6h1.1v-4.5h1.1v2.2h1.1v-2.2H3.4V36H1.1V41.6z"/>
<path d="M172.1,25.9v2.2h2.2v-1.1h-1.1v-1.1h1.1v-1.1h-1.1v1.1H172.1z M171,22.6h-1.1v1.1h1.1V22.6z M169.9,28.2h1.1v-3.4h-1.1V28.2
	z M163.1,28.2h1.1v-2.2h1.1v2.2h1.1v-2.2h1.1v2.2h1.1v-2.2h-1.1v-1.1h-1.1v1.1h-1.1v-1.1h-2.2V28.2z M159.7,28.2v-2.2h1.1v2.2h1.1
	v-2.2h-1.1v-1.1h-1.1v1.1h-1.1v2.2H159.7z M154.1,24.8v3.4h1.1v-2.2h1.1v2.2h1.1v-2.2h-1.1v-1.1H154.1z M150.7,28.2v-2.2h1.1v2.2
	h1.1v-2.2h-1.1v-1.1h-1.1v1.1h-1.1v2.2H150.7z M146.2,25.9v2.2h2.2v-1.1h-1.1v-1.1h1.1v-1.1h-1.1v1.1H146.2z M142.9,28.2h1.1v-2.2
	h1.1v-1.1H144v1.1h-1.1V28.2z M136.1,25.9H135v2.2h1.1V25.9z M136.1,30.4h2.2v-1.1h-2.2V30.4z M137.2,28.2h1.1v-2.2h1.1v-1.1h-1.1
	v1.1h-1.1V28.2z M130.5,24.8v3.4h1.1v-2.2h1.1v2.2h1.1v-2.2h-1.1v-1.1H130.5z M129.4,22.6h-1.1v1.1h1.1V22.6z M128.2,28.2h1.1v-3.4
	h-1.1V28.2z M124.9,25.9h1.1v2.2h1.1v-2.2H126v-1.1h-1.1V25.9z M123.7,22.6h-1.1v1.1h1.1V22.6z M122.6,28.2h1.1v-3.4h-1.1V28.2z
	 M119.2,25.9h1.1v2.2h1.1v-2.2h-1.1v-1.1h-1.1V25.9z M115.9,28.2v-2.2h1.1v2.2h1.1v-3.4h-2.2v1.1h-1.1v2.2H115.9z M112.5,28.2h1.1
	v-3.4h-1.1V28.2z M111.4,28.2v-4.5h1.1v-1.1h-1.1v1.1h-1.1v4.5H111.4z M105.7,30.4h1.1v-4.5h1.1v2.2h1.1v-2.2H108v-1.1h-2.2V30.4z
	 M99,28.2h1.1v-2.2h1.1v2.2h1.1v-2.2h1.1v2.2h1.1v-2.2h-1.1v-1.1h-1.1v1.1h-1.1l0-1.1H99V28.2z M95.6,28.2h1.1v-2.2h1.1v-1.1h-1.1
	v1.1h-1.1V28.2z M92.2,23.7h-1.1v4.5h1.1V23.7z M87.7,25.9h1.1v2.2H90v-2.2h-1.1v-1.1h-1.1V25.9z M86.6,22.6h-1.1v5.6h1.1V22.6z
	 M84.4,22.6h-1.1v1.1h1.1V22.6z M83.2,28.2h1.1v-3.4h-1.1V28.2z M81,28.2h1.1v-3.4H81V28.2z M79.9,28.2v-4.5H81v-1.1h-1.1v1.1h-1.1
	v4.5H79.9z M74.2,28.2v-1.1h1.1v1.1h1.1v-1.1h1.1v-2.2h-1.1v2.2h-1.1v-2.2h-1.1v2.2h-1.1v-2.2H72v3.4H74.2z M68.6,28.2h-1.1v1.1h1.1
	V28.2z M60.7,28.2h1.1v-2.2H63v2.2h1.1v-2.2h1.1v2.2h1.1v-2.2h-1.1v-1.1h-1.1v1.1H63l0-1.1h-2.2V28.2z M57.4,25.9h1.1v2.2h1.1v-2.2
	h-1.1v-1.1h-1.1V25.9z M56.2,22.6h-1.1v1.1h1.1V22.6z M55.1,28.2h1.1v-3.4h-1.1V28.2z M54,22.6h-1.1v5.6H54V22.6z M49.5,28.2v-2.2
	h1.1v2.2h1.1v-3.4h-2.2v1.1h-1.1v2.2H49.5z M45,24.8h1.1v3.4h1.1v-3.4h-1.1v-1.1H45V24.8z M41.6,28.2h1.1v-2.2h1.1v-1.1h-1.1v1.1
	h-1.1V28.2z M40.5,24.8h-1.1v3.4h1.1V24.8z M37.1,28.2h1.1v-5.6h-1.1V28.2z M36,22.6h-1.1v1.1H36V22.6z M34.9,28.2H36v-3.4h-1.1
	V28.2z M33.7,22.6h-1.1v5.6h1.1V22.6z M25.9,28.2v-1.1H27v1.1h1.1v-1.1h1.1v-2.2h-1.1v2.2H27v-2.2h-1.1v2.2h-1.1v-2.2h-1.1v3.4H25.9
	z M20.2,28.2h1.1v-2.2h1.1v-1.1h-1.1v1.1h-1.1V28.2z M15.8,24.8v3.4h1.1v-2.2H18v2.2h1.1v-2.2H18v-1.1H15.8z M10.1,25.9h1.1v2.2h1.1
	v-2.2h-1.1v-1.1h-1.1V25.9z M9,22.6H7.9v1.1H9V22.6z M7.9,28.2H9v-3.4H7.9V28.2z M5.6,28.2h1.1v-3.4H5.6V28.2z M4.5,28.2v-4.5h1.1
	v-1.1H4.5v1.1H3.4v4.5H4.5z M2.2,23.7H1.1v4.5h1.1V23.7z"/>
<path d="M186.7,17h1.1v-1.1h-1.1V17z M182.2,13.6h1.1V17h1.1v-3.4h-1.1v-1.1h-1.1V13.6z M178.9,17v-2.2h1.1V17h1.1v-3.4h-2.2v1.1
	h-1.1V17H178.9z M173.2,17v-1.1h1.1V17h1.1v-1.1h1.1v-2.2h-1.1v2.2h-1.1v-2.2h-1.1v2.2h-1.1v-2.2H171V17H173.2z M165.4,13.6h-1.1V17
	h1.1V13.6z M166.5,12.5V17h1.1v-4.5H166.5l0-1.1h-1.1v1.1H166.5z M163.1,11.4H162V17h1.1V11.4z M158.6,13.6h1.1V17h1.1v-3.4h-1.1
	v-1.1h-1.1V13.6z M155.2,17v-2.2h1.1V17h1.1v-2.2h-1.1v-1.1h-1.1v1.1h-1.1V17H155.2z M149.6,17v-1.1h1.1V17h1.1v-1.1h1.1v-2.2h-1.1
	v2.2h-1.1v-2.2h-1.1v2.2h-1.1v-2.2h-1.1V17H149.6z M144,12.5h-1.1V17h1.1V12.5z M139.5,14.7h1.1V17h1.1v-2.2h-1.1v-1.1h-1.1V14.7z
	 M136.1,13.6h1.1V17h1.1v-3.4h-1.1v-1.1h-1.1V13.6z M131.6,18.1h-1.1v1.1h1.1V18.1z M135,13.6h-1.1V17h1.1V13.6z M131.6,12.5V17h1.1
	v-4.5h2.2v-1.1h-2.2v1.1H131.6z M126,17h1.1v-2.2h1.1v-1.1h-1.1v1.1H126V17z M123.7,17h1.1v-3.4h-1.1V17z M122.6,17v-4.5h1.1v-1.1
	h-1.1v1.1h-1.1V17H122.6z M120.4,12.5h-1.1V17h1.1V12.5z M113.6,13.6h1.1V17h1.1v-3.4h-1.1v-1.1h-1.1V13.6z M110.2,17h1.1v-2.2h1.1
	v-1.1h-1.1v1.1h-1.1V17z M109.1,12.5H108V17h1.1V12.5z M105.7,18.1h-1.1v1.1h1.1V18.1z M105.7,12.5V17h1.1v-4.5h1.1v-1.1h-1.1v1.1
	H105.7z M102.4,17v-2.2h1.1V17h1.1v-3.4h-2.2v1.1h-1.1V17H102.4z M95.6,14.7h1.1V17h1.1v-2.2h-1.1v-1.1h-1.1V14.7z M92.2,13.6h1.1
	V17h1.1v-3.4h-1.1v-1.1h-1.1V13.6z M88.9,17v-2.2H90V17h1.1v-3.4h-2.2v1.1h-1.1V17H88.9z M84.4,17h1.1v-2.2h1.1v-1.1h-1.1v1.1h-1.1
	V17z M81,18.1h-1.1v1.1H81V18.1z M79.9,17H81v-3.4h-1.1V17z M82.1,18.1h1.1v-4.5h-1.1V18.1z M74.2,17h1.1v-2.2h1.1v-1.1h-1.1v1.1
	h-1.1V17z M72,17h1.1v-3.4H72V17z M70.9,17v-4.5H72v-1.1h-1.1v1.1h-1.1V17H70.9z M68.6,12.5h-1.1V17h1.1V12.5z M60.7,13.6V17h1.1
	v-2.2H63V17h1.1v-2.2H63v-1.1H60.7z M59.6,11.4h-1.1v1.1h1.1V11.4z M58.5,17h1.1v-3.4h-1.1V17z M52.9,17H54v-2.2h1.1v-1.1H54v1.1
	h-1.1V17z M49.5,14.7V17h2.2v-1.1h-1.1v-1.1h1.1v-1.1h-1.1v1.1H49.5z M45,13.6V17h1.1v-2.2h1.1V17h1.1v-2.2h-1.1v-1.1H45z M41.6,17
	v-2.2h1.1V17h1.1v-3.4h-2.2v1.1h-1.1V17H41.6z M37.1,13.6h1.1V17h1.1v-3.4h-1.1v-1.1h-1.1V13.6z M33.7,18.1h1.1v-2.2H36v-1.1h-1.1
	v-2.3H36v-1.1h-2.2V18.1z M27,13.6V17h1.1v-2.2h1.1V17h1.1v-2.2h-1.1v-1.1H27z M25.9,11.4h-1.1v1.1h1.1V11.4z M24.7,17h1.1v-3.4
	h-1.1V17z M18,14.7h-1.1V17H18V14.7z M18,19.2h2.2v-1.1H18V19.2z M19.1,17h1.1v-2.2h1.1v-1.1h-1.1v1.1h-1.1V17z M12.4,13.6V17h1.1
	v-2.2h1.1V17h1.1v-2.2h-1.1v-1.1H12.4z M11.2,11.4h-1.1v1.1h1.1V11.4z M10.1,17h1.1v-3.4h-1.1V17z M5.6,19.2h1.1v-4.5h1.1V17H9v-2.2
	H7.9v-1.1H5.6V19.2z M2.2,17v-2.2h1.1V17h1.1v-2.2H3.4v-1.1H2.2v1.1H1.1V17H2.2z"/>
<path d="M50.6,8h1.1V6.9h-1.1V8z M74.2,8h1.1V6.9h-1.1V8z M46.1,5.8h1.1V4.7h-1.1V5.8z M174.4,5.8h1.1V4.7h-1.1V5.8z M46.1,4.7
	L46.1,4.7L46.1,4.7L46.1,4.7L46.1,4.7z M47.2,4.7L47.2,4.7L47.2,4.7L47.2,4.7L47.2,4.7z M174.4,4.7L174.4,4.7L174.4,4.7L174.4,4.7
	L174.4,4.7z M175.5,4.7L175.5,4.7L175.5,4.7L175.5,4.7L175.5,4.7z M7.9,5.8H9V3.5H7.9V5.8z M14.6,5.8h1.1V3.5h-1.1V5.8z M23.6,5.8
	h1.1V3.5h-1.1V5.8z M39.4,5.8h1.1V3.5h-1.1V5.8z M54,5.8h1.1V3.5H54V5.8z M56.2,5.8h1.1V3.5h-1.1V5.8z M64.1,5.8h1.1V3.5h-1.1V5.8z
	 M66.4,5.8h1.1V3.5h-1.1V5.8z M70.9,5.8H72V3.5h-1.1V5.8z M73.1,5.8h1.1V3.5h-1.1V5.8z M90,5.8h1.1V3.5H90V5.8z M114.7,5.8h1.1V3.5
	h-1.1V5.8z M135,5.8h1.1V3.5H135V5.8z M137.2,5.8h1.1V3.5h-1.1V5.8z M154.1,5.8h1.1V3.5h-1.1V5.8z M158.6,5.8h1.1V3.5h-1.1V5.8z
	 M160.9,5.8h1.1V3.5h-1.1V5.8z M169.9,5.8h1.1V3.5h-1.1V5.8z M177.7,5.8h1.1V3.5h-1.1V5.8z M183.4,4.7h1.1V3.5h-1.1V4.7z M9,3.5
	L9,3.5L9,3.5L9,3.5L9,3.5z M15.7,3.5L15.7,3.5L15.7,3.5L15.7,3.5L15.7,3.5z M23.6,3.5L23.6,3.5L23.6,3.5L23.6,3.5L23.6,3.5z
	 M40.5,3.5L40.5,3.5L40.5,3.5L40.5,3.5L40.5,3.5z M55.1,3.5L55.1,3.5L55.1,3.5L55.1,3.5L55.1,3.5z M56.2,3.5L56.2,3.5L56.2,3.5
	L56.2,3.5L56.2,3.5z M64.1,3.5L64.1,3.5L64.1,3.5L64.1,3.5L64.1,3.5z M65.2,3.5L65.2,3.5L65.2,3.5L65.2,3.5L65.2,3.5z M66.4,3.5
	L66.4,3.5L66.4,3.5L66.4,3.5L66.4,3.5z M72,3.5L72,3.5L72,3.5L72,3.5L72,3.5z M73.1,3.5L73.1,3.5L73.1,3.5L73.1,3.5L73.1,3.5z
	 M91.1,3.5L91.1,3.5L91.1,3.5L91.1,3.5L91.1,3.5z M115.9,3.5L115.9,3.5L115.9,3.5L115.9,3.5L115.9,3.5z M136.1,3.5L136.1,3.5
	L136.1,3.5L136.1,3.5L136.1,3.5z M137.2,3.5L137.2,3.5L137.2,3.5L137.2,3.5L137.2,3.5z M154.1,3.5L154.1,3.5L154.1,3.5L154.1,3.5
	L154.1,3.5z M158.6,3.5L158.6,3.5L158.6,3.5L158.6,3.5L158.6,3.5z M159.7,3.5L159.7,3.5L159.7,3.5L159.7,3.5L159.7,3.5z M160.9,3.5
	L160.9,3.5L160.9,3.5L160.9,3.5L160.9,3.5z M171,3.5L171,3.5L171,3.5L171,3.5L171,3.5z M178.9,3.5L178.9,3.5L178.9,3.5L178.9,3.5
	L178.9,3.5z M9,3.5h1.1V2.4H9V3.5z M15.8,3.5h1.1V2.4h-1.1V3.5z M22.5,3.5h1.1V2.4h-1.1V3.5z M29.2,2.4v1.1h-1.1v2.2h1.1V3.5h1.1
	v2.2h1.1V2.4H29.2z M34.9,2.4v3.4H36V3.5h1.1v2.2h1.1V3.5h-1.1V2.4H34.9z M40.5,3.5h1.1V2.4h-1.1V3.5z M45,2.4v2.3h-1.1V2.4h-1.1
	v3.4H45V4.7h1.1V2.4H45z M47.2,4.7h1.1V2.4h-1.1V4.7z M55.1,3.5h1.1V2.4h-1.1V3.5z M61.9,2.4v3.4H63V3.5h1.1l0-1.1H61.9z M65.2,3.5
	h1.1V2.4h-1.1V3.5z M72,3.5h1.1V2.4H72V3.5z M87.7,5.8h1.1V2.4h-1.1V5.8z M91.1,3.5h1.1V2.4h-1.1V3.5z M97.9,2.4v1.1h-1.1v2.2h1.1
	V3.5H99v2.2h1.1V2.4H97.9z M108,2.4v3.4h1.1V3.5h1.1v2.2h1.1V3.5h-1.1V2.4H108z M115.9,3.5h1.1V2.4h-1.1V3.5z M121.5,2.4v3.4h1.1
	V3.5h1.1v2.2h1.1V3.5h-1.1V2.4H121.5z M127.1,2.4v1.1H126v2.2h1.1V3.5h1.1v2.2h1.1V2.4H127.1z M136.1,3.5h1.1V2.4h-1.1V3.5z
	 M139.5,2.4v3.4h1.1V3.5h1.1v2.2h1.1V3.5h-1.1V2.4H139.5z M145.1,2.4v1.1H144v2.2h1.1V3.5h1.1v2.2h1.1V2.4H145.1z M153,3.5h1.1V2.4
	H153V3.5z M156.4,2.4v3.4h1.1V3.5h1.1l0-1.1H156.4z M159.7,3.5h1.1V2.4h-1.1V3.5z M171,3.5h1.1V2.4H171V3.5z M173.2,4.7h1.1V2.4
	h-1.1V4.7z M175.5,4.7h1.1V2.4h-1.1V4.7z M178.9,3.5h1.1V2.4h-1.1V3.5z M5.6,5.8h1.1V2.4H5.6V5.8z M20.2,5.8h1.1V2.4h-1.1V5.8z
	 M83.2,5.8h1.1V2.4h-1.1V5.8z M105.7,5.8h1.1V2.4h-1.1V5.8z M132.7,5.8h1.1V2.4h-1.1V5.8z M150.7,5.8h1.1V2.4h-1.1V5.8z M165.4,5.8
	h1.1V2.4h-1.1V5.8z M11.2,1.3v1.1h1.1v3.4h1.1V2.4h-1.1V1.3H11.2z M58.5,1.3v1.1h1.1v3.4h1.1V2.4h-1.1V1.3H58.5z M93.4,1.3v1.1h1.1
	v3.4h1.1V2.4h-1.1V1.3H93.4z M118.1,1.3v1.1h1.1v3.4h1.1V2.4h-1.1V1.3H118.1z M1.1,5.8h1.1V1.3H1.1V5.8z M3.4,5.8h1.1V1.3H3.4V5.8z
	 M4.5,1.3L4.5,1.3L4.5,1.3z M51.7,5.8h1.1V1.3h-1.1V5.8z M52.9,1.3L52.9,1.3L52.9,1.3z M75.4,5.8h1.1V1.3h-1.1V5.8z M76.5,1.3
	L76.5,1.3L76.5,1.3z M112.5,5.8h1.1V1.3h-1.1V5.8z M130.5,5.8h1.1V1.3h-1.1V5.8z M167.6,1.3L167.6,1.3L167.6,1.3z M167.6,5.8h1.1
	V1.3h-1.1V5.8z M4.5,1.3h1.1V0.2H4.5V1.3z M20.2,1.3h1.1V0.2h-1.1V1.3z M52.9,1.3H54V0.2h-1.1V1.3z M76.5,1.3h1.1V0.2h-1.1V1.3z
	 M81,5.8h1.1V0.2H81V5.8z M83.2,1.3h1.1V0.2h-1.1V1.3z M85.5,5.8h1.1V0.2h-1.1V5.8z M101.2,5.8h1.1V0.2h-1.1V5.8z M105.7,1.3h1.1
	V0.2h-1.1V1.3z M132.7,1.3h1.1V0.2h-1.1V1.3z M148.5,5.8h1.1V0.2h-1.1V5.8z M150.7,1.3h1.1V0.2h-1.1V1.3z M166.5,1.3h1.1V0.2h-1.1
	V1.3z M181.1,5.8h1.1V0.2h-1.1V5.8z"/>
</svg>
