<svg xmlns="http://www.w3.org/2000/svg" viewBox="0 0 200.2 84.2"><defs><style>.\34 6543100-3f3f-4396-9437-586ae4993e8d{opacity:0.9;}.\34 c8b2d6a-9d87-4da7-89c3-92a9f86c436a{opacity:0;}</style></defs><title>Asset 15</title><g id="7999387d-45ed-4ac7-88a3-5208771cb4d3" data-name="Layer 2"><g id="3b8f541c-5ec8-4be6-bb2e-be8859d16b36" data-name="Layer 1"><g class="46543100-3f3f-4396-9437-586ae4993e8d"><path d="M40.13,22.77H48V56.71h3.69v.67H43.92V53.21h-.1c-.13.38-.32.84-.57,1.39a6.18,6.18,0,0,1-1.13,1.58,6.59,6.59,0,0,1-1.87,1.32,6.26,6.26,0,0,1-2.76.55,9.09,9.09,0,0,1-4-.91,11.05,11.05,0,0,1-3.34-2.45,11.85,11.85,0,0,1-2.28-3.52A10.71,10.71,0,0,1,27,47a10.57,10.57,0,0,1,.82-4.13,11.1,11.1,0,0,1,2.21-3.44,11.32,11.32,0,0,1,3.21-2.35,8.8,8.8,0,0,1,3.89-.88,6.69,6.69,0,0,1,4.27,1.29,7,7,0,0,1,2.3,3.17h.1V23.44H40.13ZM31.82,46.39q0,2.49.15,4.53a11.18,11.18,0,0,0,.72,3.48,4.53,4.53,0,0,0,1.72,2.21,5.5,5.5,0,0,0,3.12.77,5.53,5.53,0,0,0,3.24-.86,5.82,5.82,0,0,0,1.9-2.24,10,10,0,0,0,.91-3A23.12,23.12,0,0,0,43.82,48c0-1.25,0-2.32-.07-3.24a21.39,21.39,0,0,0-.26-2.42A8.41,8.41,0,0,0,43,40.49a7.79,7.79,0,0,0-.82-1.44,5.6,5.6,0,0,0-1.87-1.59,6.18,6.18,0,0,0-2.93-.62,5.13,5.13,0,0,0-2.76.67,4.51,4.51,0,0,0-1.68,1.92,10,10,0,0,0-.84,3A29.44,29.44,0,0,0,31.82,46.39Z"/><path d="M54.33,56.71H58V37.46h-3.7v-.67h7.83V56.71h3.69v.67H54.33ZM57.45,25.6A2.56,2.56,0,0,1,60,23.06a2.55,2.55,0,0,1,0,5.09,2.56,2.56,0,0,1-2.55-2.55Z"/><path d="M82.8,22.77h7.82V56.71h3.69v.67H86.59V53.21h-.1c-.13.38-.32.84-.57,1.39a6.18,6.18,0,0,1-1.13,1.58,6.59,6.59,0,0,1-1.87,1.32,6.26,6.26,0,0,1-2.76.55,9.09,9.09,0,0,1-4-.91,11.05,11.05,0,0,1-3.34-2.45,11.85,11.85,0,0,1-2.28-3.52,10.71,10.71,0,0,1-.84-4.2,10.57,10.57,0,0,1,.82-4.13,11.1,11.1,0,0,1,2.21-3.44,11.32,11.32,0,0,1,3.21-2.35,8.8,8.8,0,0,1,3.89-.88,6.69,6.69,0,0,1,4.27,1.29,7,7,0,0,1,2.3,3.17h.1V23.44H82.8ZM74.49,46.39q0,2.49.15,4.53a11.18,11.18,0,0,0,.72,3.48,4.53,4.53,0,0,0,1.72,2.21,6.62,6.62,0,0,0,6.36-.09,5.82,5.82,0,0,0,1.9-2.24,10,10,0,0,0,.91-3A23.12,23.12,0,0,0,86.49,48c0-1.25,0-2.32-.07-3.24a21.39,21.39,0,0,0-.26-2.42,8.41,8.41,0,0,0-.53-1.82,7.79,7.79,0,0,0-.82-1.44,5.6,5.6,0,0,0-1.87-1.59A6.18,6.18,0,0,0,80,36.84a5.13,5.13,0,0,0-2.76.67,4.51,4.51,0,0,0-1.68,1.92,10,10,0,0,0-.84,3A29.44,29.44,0,0,0,74.49,46.39Z"/><path d="M97.82,47.11a9.41,9.41,0,0,1,1-4.37,12.32,12.32,0,0,1,2.64-3.48,12.14,12.14,0,0,1,3.6-2.28,9.84,9.84,0,0,1,7.82,0,12.14,12.14,0,0,1,3.6,2.28,12,12,0,0,1,2.64,3.48,9.42,9.42,0,0,1,1,4.37,9.66,9.66,0,0,1-1,4.25,11.85,11.85,0,0,1-2.52,3.48,12.14,12.14,0,0,1-3.58,2.35,10.32,10.32,0,0,1-8.25,0,12,12,0,0,1-3.58-2.35,11.85,11.85,0,0,1-2.52-3.48A9.66,9.66,0,0,1,97.82,47.11Zm4.8,0a21.78,21.78,0,0,0,.53,5.42,8.22,8.22,0,0,0,1.39,3.1,4,4,0,0,0,2,1.42,9.22,9.22,0,0,0,4.89,0,4.07,4.07,0,0,0,2-1.42,8.38,8.38,0,0,0,1.39-3.1,22.27,22.27,0,0,0,.53-5.42,25.17,25.17,0,0,0-.39-4.83,9,9,0,0,0-1.17-3.16,4.53,4.53,0,0,0-2-1.75,7.82,7.82,0,0,0-5.66,0,4.5,4.5,0,0,0-2,1.75A9,9,0,0,0,103,42.28,26.1,26.1,0,0,0,102.62,47.11Z"/><path d="M123.55,56.71h3.69V37.46h-3.69v-.67h7.72v5.13h.1c.19-.41.47-.94.84-1.58a8.39,8.39,0,0,1,3.91-3.43,8.56,8.56,0,0,1,3.51-.65,8.18,8.18,0,0,1,5.16,1.54,5.81,5.81,0,0,1,2,4.89v14h3.69v.67H139v-.67h3.7V41.21a5,5,0,0,0-.89-3.07A3.18,3.18,0,0,0,139,36.93a6.79,6.79,0,0,0-2.93.67,7.65,7.65,0,0,0-2.44,1.88A8.74,8.74,0,0,0,132,42.31a10.21,10.21,0,0,0-.6,3.55V56.71h3.7v.67H123.55Z"/><path d="M158.68,45.48c0,.32,0,.64,0,1s0,.76,0,1.27a29.72,29.72,0,0,0,.19,3.32,9.56,9.56,0,0,0,.84,3.12,5.84,5.84,0,0,0,1.92,2.3,5.64,5.64,0,0,0,3.38.91,8.5,8.5,0,0,0,3.48-.62,6.4,6.4,0,0,0,2.16-1.52,6.55,6.55,0,0,0,1.18-1.8c.25-.6.44-1.1.57-1.48l.72.14a12,12,0,0,1-.55,1.51,6.77,6.77,0,0,1-1.3,2,7.81,7.81,0,0,1-2.4,1.73,8.94,8.94,0,0,1-3.91.74,12.33,12.33,0,0,1-4.44-.77,10.18,10.18,0,0,1-3.53-2.2,10,10,0,0,1-2.3-3.43,11.7,11.7,0,0,1-.82-4.44,10.49,10.49,0,0,1,.84-4.11A11.6,11.6,0,0,1,157,39.57a11.48,11.48,0,0,1,3.43-2.47,9.76,9.76,0,0,1,4.23-.93,9.63,9.63,0,0,1,2.87.48,8.44,8.44,0,0,1,2.86,1.56,8.59,8.59,0,0,1,2.21,2.85,9.86,9.86,0,0,1,.89,4.42Zm9.89-.67a9.66,9.66,0,0,0,.1-1.25v-1.2a9.56,9.56,0,0,0-.32-2.69,4.35,4.35,0,0,0-.86-1.68,3.1,3.1,0,0,0-1.34-.89,5.28,5.28,0,0,0-1.71-.26,5,5,0,0,0-2.69.65,4.79,4.79,0,0,0-1.68,1.75,9.17,9.17,0,0,0-.93,2.54,19.25,19.25,0,0,0-.41,3Z"/></g><g class="4c8b2d6a-9d87-4da7-89c3-92a9f86c436a"><path d="M200.1.1v84H.1V.1h200m.1-.1H0V84.2H200.2V0Z"/></g></g></g></svg>