<?xml version="1.0" encoding="utf-8"?>
<!-- Generator: Adobe Illustrator 22.1.0, SVG Export Plug-In . SVG Version: 6.00 Build 0)  -->
<svg version="1.1" id="Layer_1" xmlns="http://www.w3.org/2000/svg" xmlns:xlink="http://www.w3.org/1999/xlink" x="0px" y="0px"
	 viewBox="0 0 200.2 84.2" style="enable-background:new 0 0 200.2 84.2;" xml:space="preserve">
<style type="text/css">
	.st0{opacity:0.5;fill:none;stroke:#FFB999;stroke-width:6;stroke-miterlimit:10;enable-background:new    ;}
</style>
<title>Asset 15</title>
<g id="bc61c30d-88bc-4a14-b1fe-d4968bb468ec">
	<g id="_x36_591d960-6245-4237-92af-03c78dcf3904">
		<g>
			<path d="M51.8,43.1l5.6-7.7l0.3,0.1c0.1,0.1,0.2,0.1,0.2,0.2l1.2,0.9c0.5,0.5,1.2,0.8,1.9,1c0.3,0,0.6-0.2,0.9-0.7
				c0.1-0.1,0.2-0.3,0.3-0.4l0.8,0.5c0,0-0.1,0.2-0.3,0.3s-0.4,0.6-0.8,1.1s-0.7,1-1.1,1.4L59,42.5l-0.5,0.6l-3.8-2.6l-2.4,3.1
				c2.8,3.6,4.3,7.2,4.3,10.6c0.1,3-1.2,5.8-3.4,7.9c-2.1,2.2-4.9,3.4-7.9,3.3c-2.7,0.1-5.3-0.7-7.4-2.3c-2.2-1.5-3.5-4-3.5-6.7
				c0.1-2.2,0.7-4.4,1.8-6.4c1.2-2.6,1.8-4.3,1.8-5.2c0-1.3-0.6-2-1.9-2c-2,0-3.3,1.5-4.1,4.5L31,47.2c1.2-3.8,3.1-5.8,5.9-5.8
				c1.6,0,3.2,0.7,4.2,2c1,1.2,1.6,2.8,1.6,4.4c-0.1,2-0.7,4-1.6,5.8c-0.8,1.6-1.3,3.3-1.4,5c0,1.5,0.6,3,1.6,4.1
				c2.4,2.3,6.2,2.2,8.5-0.3c0,0,0,0,0.1-0.1c1.2-1.3,1.8-3.1,1.8-4.8c0-2.2-1.2-5.1-3.6-8.6c-0.3-0.4-0.8-1.1-1.3-2s-1-1.5-1.3-2
				c-0.9-1.3-1.5-2.8-1.6-4.4c0.1-1.5,0.5-3,1.1-4.4c0.8-2,1.8-4,2.9-5.8C44.6,27.5,42,26,39.9,26c-1.5,0-2.9,0.5-4,1.6
				c-1.1,1-1.7,2.4-1.6,3.9c0,3.6,2,5.5,5.9,5.5v0.8h-0.7c-1.7,0.1-3.4-0.6-4.6-1.8c-1.2-1.3-1.9-3-1.8-4.8c-0.1-2.5,1-4.8,2.9-6.4
				c1.8-1.6,4.2-2.5,6.7-2.4c2.2,0,4.4,0.6,6.3,1.6c1.9,1.1,3.6,2.4,5.2,3.9c1.4,1.4,2.7,2,3.9,2c0.7,0,1.5-0.3,2-0.8
				c0.5-0.5,0.9-1.2,0.8-1.9c0-0.9-0.4-1.7-1-2.3c-0.6-0.6-1.5-1-2.4-1c-0.4,0-0.8,0.1-1.2,0.1l-0.2-1c0.5-0.1,1-0.2,1.5-0.2
				c1.2,0,2.4,0.5,3.2,1.4c0.9,0.9,1.4,2.1,1.4,3.4c0,1.7-0.7,3.3-2,4.3c-1.2,1.1-2.8,1.7-4.5,1.7c-2.2-0.1-4.3-0.9-6-2.2
				c-0.1,0-0.2-0.1-0.3-0.2l-0.3-0.2c-0.9,1.4-1.4,2.9-1.3,4.6c0.1,1.4,0.6,2.8,1.4,4C49.8,40.9,50.8,42.1,51.8,43.1z"/>
			<path d="M70.3,39.6v14l2.7,2.3l3.3-2.9l0.6,0.7c-1.2,1.1-2.6,2.4-4.1,3.9l-2.6,2.6c-0.1,0.1-0.2,0.2-0.3,0.2l-0.4,0.3
				c-1.9-2.3-4.2-4.2-6.8-5.6c0.7-0.4,1.4-1,1.8-1.7c0.4-0.8,0.5-1.6,0.5-2.5v-9.4c0-2.1-0.7-3.5-2.1-4.2l-1.4,1.7l-0.7-0.7
				c2-2.3,3.9-4.6,5.6-7.1l1.8,2.2l1.2,1.3c0.7,0.9,1,2.1,1,3.2l0.1-0.1c0.1-0.1,0.1-0.2,0.2-0.3l0.3-0.4c0.7-0.8,1.3-1.7,1.8-2.5
				l1.6-2.6c0.3-0.5,0.4-0.8,0.5-0.8l3.6,5.2l-3.6,5.6c-0.8-1.6-1.8-3.2-2.8-4.7L70.3,39.6z"/>
			<path d="M91.6,54.5l-7.2,6.2L81.3,54c-1.1-2.1-1.7-4.5-1.7-6.9c0-3.7,2.2-7.4,6.5-11.3l2.4-2.2l1.7-1.7l0.7-0.6
				c2.5,2.7,5.6,4.7,9,6v0.9c-1.5,0.5-2.5,1.9-2.9,4.1c-0.2,1.8-0.2,3.6-0.2,5.4c0,1.3,0,2.7,0.2,4c0.2,1.3,0.9,2.5,2,3.3l1.6-1.6
				l0.7,0.6c-0.1,0.2-0.2,0.4-0.4,0.5l-5.4,6.2l-1.9-2.2C92.5,57.4,91.8,56,91.6,54.5z M91.4,53.3c-0.1-1-0.1-2.6-0.2-4.7
				c0-2.1,0.1-4.2,0.5-6.3c0.2-0.8,0.5-1.5,1-2.2c-0.1-0.1-0.2-0.2-0.3-0.3c-0.2-0.1-0.3-0.3-0.5-0.4c-0.2-0.2-0.6-0.4-1.1-0.7
				l-1-0.7l-1.9-1.6c-0.1-0.1-0.3-0.3-0.5-0.4c-2.1,1.9-3.3,4.7-3.1,7.6c0,2.9,1.4,6.9,4.3,12L91.4,53.3z"/>
			<path d="M110.7,36.3h4.5v4.1h-6.5v11.3c-0.1,0.8,0.1,1.6,0.3,2.3c0.4,0.7,0.9,1.2,1.5,1.6l0.7,0.5l3.1-2.9l0.6,0.6l-0.6,0.6
				c-0.1,0.1-0.4,0.4-0.9,0.8s-0.8,0.7-0.9,0.8l-0.6,0.6l-0.6,0.5c-0.2,0.2-0.8,0.8-1.7,1.7l-1.9,1.7c-2-2.3-4.4-4.3-7-5.8
				c0.9-0.5,1.6-1.1,2.3-1.9c0.4-0.9,0.5-1.8,0.4-2.7V40.4h-3l0.4-0.4v-0.1c1-1,1.7-2.1,2.1-3.4c0.3-1.3,0.4-2.7,0.3-4.1
				c0.1-3.1-1.1-6.2-3.2-8.5l0.8-0.7l0.5,0.5c1.1,1.2,2.1,2.6,2.9,4c2.4-3.6,5.3-5.4,8.8-5.4h1l0.1,1c-3.5,0.4-5.5,2.8-5.9,7.4
				l3.7-4.3c0.2,0.1,0.5,0.3,0.6,0.6l1.3,1c1,0.8,1.6,2,1.6,3.3c0,0.9-0.3,1.9-1,2.5C113.5,34.8,112.2,35.7,110.7,36.3z M108.4,36.6
				c2.2-1.2,3.3-2.6,3.3-4s-0.6-2.1-1.7-2.1c-0.5,0-1.1,0.4-1.6,1.2V36.6z"/>
			<path d="M123.4,34.6h5.3v4.3h-5.3v15.2l2.4,1.8l2.8-2.8l0.7,0.6c-0.2,0.2-0.4,0.4-0.6,0.7l-2.9,3l-3.3,3.4
				c-2.1-2-4.3-3.9-6.6-5.5c0.6-0.4,1.2-0.9,1.7-1.4c0.4-0.6,0.6-1.3,0.6-2v-13h-3.7c2.1-1.8,4.1-3.9,5.8-6.1
				c1.7-2.3,2.9-4.8,3.8-7.4l1,0C124.3,28.3,123.7,31.4,123.4,34.6z"/>
			<path d="M151.9,53l0.7,0.6l-0.5,0.6l-2.4,3l-2.9,3.4l-2-2.8c-0.9-1.2-1.4-2.7-1.4-4.2c-2.5,2.1-4.8,4.4-6.8,7
				c-0.5-0.6-1.7-1.7-3.4-3.3c-0.8-0.7-2-1.7-3.5-3c0.7-0.2,1.4-0.6,1.9-1.2c0.3-0.6,0.5-1.3,0.4-2V38.6l-1.6-1.6l-1.4,1.6l-0.6-0.6
				c0.1-0.1,0.1-0.2,0.2-0.3c0.1-0.1,0.2-0.2,0.2-0.4l2.2-2.6c0.3-0.3,1-1.2,2.2-2.8l0.4-0.6l1.4,1.8l1.3,1.6c0.7,0.9,1,2.1,0.9,3.2
				v15.4l2.5,2.2l3.5-3.2V40.7c-0.1-1.4-0.9-2.7-2.2-3.3c2-1.7,3.6-3.7,4.7-6c1.3,2.3,3.1,4.2,5.3,5.6c-0.8,0.4-1.5,1-2.1,1.7
				c-0.4,0.9-0.5,1.8-0.4,2.7v10.4c0,0.7,0.1,1.4,0.3,2c0.3,0.5,0.7,1,1.1,1.4L151.9,53z"/>
			<path d="M160.8,39.6v14l2.7,2.2l3.3-2.9l0.6,0.7c-1.2,1.1-2.5,2.4-4.1,3.9l-2.6,2.6c-0.1,0.1-0.2,0.2-0.3,0.2
				c-0.1,0.1-0.2,0.2-0.4,0.3c-1.9-2.3-4.2-4.2-6.8-5.6c0.7-0.4,1.3-1,1.8-1.7c0.4-0.8,0.5-1.6,0.5-2.5v-9.4c0-2.1-0.7-3.5-2.1-4.2
				l-1.4,1.7l-0.7-0.7c2-2.2,3.9-4.6,5.6-7.1l1.8,2.2l1.2,1.3c0.7,0.9,1,2.1,1,3.2L161,38c0.1-0.1,0.1-0.2,0.2-0.3l0.3-0.4
				c0.7-0.8,1.3-1.7,1.8-2.5l1.6-2.6c0.3-0.5,0.4-0.8,0.5-0.8l3.6,5.2l-3.6,5.6c-0.8-1.6-1.8-3.2-2.8-4.7L160.8,39.6z"/>
		</g>
		<line class="st0" x1="29.1" y1="37.5" x2="171.1" y2="37.5"/>
	</g>
</g>
</svg>
