<svg xmlns="http://www.w3.org/2000/svg" viewBox="0 0 200.2 84.2"><defs><style>.\37 ab7b75e-81af-42ca-9524-cef7cf8f19ad{opacity:0.9;}.\35 33b1831-cd1f-4735-a981-18a7a166c644{opacity:0;}.fb04407a-5f1e-4869-88c2-c80d14fb1aa4{fill:none;stroke:#ffb999;stroke-miterlimit:10;stroke-width:5px;opacity:0.5;}</style></defs><title>Asset 15</title><g id="bc61c30d-88bc-4a14-b1fe-d4968bb468ec" data-name="Layer 2"><g id="6591d960-6245-4237-92af-03c78dcf3904" data-name="Layer 1"><g class="7ab7b75e-81af-42ca-9524-cef7cf8f19ad"><path d="M51.79,43.12l5.61-7.68.29.14a1.37,1.37,0,0,0,.24.19l1.15.87a4.17,4.17,0,0,0,1.92,1c.26,0,.56-.22.92-.67a1.21,1.21,0,0,1,.29-.38l.76.53s-.13.15-.28.35-.42.57-.77,1.06-.71,1-1.06,1.42L59,42.49l-.48.63-3.79-2.59-2.4,3.11q4.26,5.43,4.27,10.61a10.46,10.46,0,0,1-3.36,7.87,10.81,10.81,0,0,1-7.92,3.32,12.15,12.15,0,0,1-7.44-2.31,7.81,7.81,0,0,1-3.46-6.67,15.37,15.37,0,0,1,1.78-6.38Q38,46.24,38,44.89q0-2-1.92-2c-2,0-3.33,1.5-4.12,4.51l-.92-.24c1.16-3.84,3.12-5.76,5.91-5.76a5.36,5.36,0,0,1,4.17,2,6.72,6.72,0,0,1,1.59,4.41,15.08,15.08,0,0,1-1.64,5.81,14,14,0,0,0-1.44,5,5.62,5.62,0,0,0,1.64,4.1,6,6,0,0,0,8.54-.32,6.85,6.85,0,0,0,1.78-4.84q0-3.36-3.6-8.59c-.32-.42-.77-1.08-1.35-2s-1-1.55-1.34-2a9.12,9.12,0,0,1-1.59-4.41,14.29,14.29,0,0,1,1.06-4.38,36.21,36.21,0,0,1,2.93-5.8Q43,26,39.89,26a5.54,5.54,0,0,0-4,1.58,5.2,5.2,0,0,0-1.63,3.89q0,5.43,5.9,5.52l0,.81h-.67A6.34,6.34,0,0,1,34.85,36,6.71,6.71,0,0,1,33,31.21a8.06,8.06,0,0,1,2.88-6.38,9.88,9.88,0,0,1,6.67-2.4,13.23,13.23,0,0,1,6.29,1.63A26.42,26.42,0,0,1,54,28c1.44,1.35,2.73,2,3.89,2a2.86,2.86,0,0,0,2-.77,2.44,2.44,0,0,0,.85-1.87,3.06,3.06,0,0,0-1-2.3,3.37,3.37,0,0,0-2.4-1,9.73,9.73,0,0,0-1.25.14l-.19-1a6.06,6.06,0,0,1,1.48-.19,4.34,4.34,0,0,1,3.24,1.37A4.65,4.65,0,0,1,62,27.8a5.51,5.51,0,0,1-2,4.32,6.63,6.63,0,0,1-4.52,1.73,10.27,10.27,0,0,1-6-2.21,1.17,1.17,0,0,1-.33-.19l-.34-.24a8.25,8.25,0,0,0-1.34,4.56,7.19,7.19,0,0,0,1.44,4A37.82,37.82,0,0,0,51.79,43.12Z"/><path d="M70.27,39.56v14L73,55.83l3.26-2.92.58.67Q75,55.22,72.72,57.51l-2.64,2.64a2.65,2.65,0,0,1-.27.25l-.36.33a22.66,22.66,0,0,0-6.81-5.57,4.93,4.93,0,0,0,1.82-1.68A5.18,5.18,0,0,0,64.94,51V41.58q0-3.21-2.11-4.18l-1.44,1.68-.72-.67a65.52,65.52,0,0,0,5.62-7.15l1.82,2.25,1.15,1.35a5.45,5.45,0,0,1,1,3.22l.1-.1a3.24,3.24,0,0,1,.21-.34l.31-.43a31.05,31.05,0,0,0,1.83-2.54l1.63-2.59c.29-.52.45-.79.48-.82l3.6,5.23-3.6,5.57A34.69,34.69,0,0,0,72,37.4Z"/><path d="M91.63,54.49l-7.25,6.24L81.26,54a16.58,16.58,0,0,1-1.73-6.86q0-5.48,6.48-11.28l2.45-2.21L90.14,32l.67-.58a23.35,23.35,0,0,0,9,6v.86q-2.31.78-2.88,4.09a41.5,41.5,0,0,0-.19,5.42,23.66,23.66,0,0,0,.19,4,5.06,5.06,0,0,0,2,3.27l1.58-1.63.67.57a4.81,4.81,0,0,1-.38.53l-5.38,6.19-1.92-2.2A7.77,7.77,0,0,1,91.63,54.49Zm-.19-1.2q-.15-1.57-.15-4.65a34.07,34.07,0,0,1,.48-6.34,5.34,5.34,0,0,1,1-2.16,3.37,3.37,0,0,0-.34-.26,5.8,5.8,0,0,0-.52-.37c-.23-.15-.58-.4-1.06-.74l-1-.69-1.92-1.59a3.5,3.5,0,0,0-.48-.38,9.6,9.6,0,0,0-3.12,7.63q0,4.42,4.27,12Z"/><path d="M110.73,36.3h4.47v4.08h-6.48V51.71a5.86,5.86,0,0,0,.33,2.35,5.13,5.13,0,0,0,1.54,1.63l.67.53,3.12-2.88.58.58-.63.62c-.12.13-.42.41-.88.84s-.77.71-.89.84l-.58.58-.62.52c-.2.23-.77.8-1.73,1.73l-1.92,1.73a26.72,26.72,0,0,0-7-5.76A8.64,8.64,0,0,0,103,53.15a5.88,5.88,0,0,0,.43-2.69V40.38h-3l.43-.43,0-.1A9.2,9.2,0,0,0,103,36.44a15.28,15.28,0,0,0,.34-4.07,12.3,12.3,0,0,0-3.17-8.5l.77-.72.53.52a20.26,20.26,0,0,1,2.93,4q3.54-5.43,8.83-5.43h1l.14,1q-5.32.54-5.95,7.4l3.7-4.27a2.21,2.21,0,0,1,.62.57l1.34,1a4,4,0,0,1,1.63,3.27,3.47,3.47,0,0,1-1,2.54A15.92,15.92,0,0,1,110.73,36.3Zm-2.3.34c2.21-1.22,3.31-2.56,3.31-4s-.56-2.11-1.68-2.11c-.54,0-1.09.42-1.63,1.25Z"/><path d="M123.45,34.57h5.33v4.32H123.5V54.11l2.4,1.78,2.78-2.84.68.62a5,5,0,0,0-.58.68l-2.93,3-3.31,3.41a54,54,0,0,0-6.62-5.52,10.23,10.23,0,0,0,1.68-1.39,3.29,3.29,0,0,0,.57-2V38.89h-3.65a42.09,42.09,0,0,0,5.77-6.09,25.18,25.18,0,0,0,3.79-7.44l1-.05A51.68,51.68,0,0,0,123.45,34.57Z"/><path d="M151.92,53.05l.72.62-.53.63-2.45,3-2.88,3.36-2-2.78a7.29,7.29,0,0,1-1.44-4.23,41,41,0,0,0-6.77,7c-.54-.6-1.68-1.71-3.4-3.31q-1.26-1-3.46-3a4.37,4.37,0,0,0,1.87-1.18,3.47,3.47,0,0,0,.43-2V38.6L130.41,37,129,38.6l-.58-.62a1.7,1.7,0,0,0,.2-.26,3.71,3.71,0,0,1,.24-.36l2.25-2.64q.39-.39,2.16-2.79l.44-.57,1.44,1.82,1.34,1.58a4.83,4.83,0,0,1,.91,3.22V53.39l2.5,2.16,3.5-3.22V40.67a4,4,0,0,0-2.21-3.31,19.33,19.33,0,0,0,4.71-6A16.44,16.44,0,0,0,151.24,37a6.28,6.28,0,0,0-2.11,1.73,6,6,0,0,0-.43,2.73V51.9a5.74,5.74,0,0,0,.26,2,3.9,3.9,0,0,0,1.13,1.37Z"/><path d="M160.84,39.56v14l2.69,2.25,3.27-2.92.57.67q-1.77,1.64-4.08,3.93l-2.64,2.64a3.49,3.49,0,0,1-.26.25,4.28,4.28,0,0,0-.36.33,22.82,22.82,0,0,0-6.82-5.57A4.89,4.89,0,0,0,155,53.48a5.18,5.18,0,0,0,.48-2.49V41.58q0-3.21-2.12-4.18L152,39.08l-.72-.67a64.32,64.32,0,0,0,5.62-7.15l1.82,2.25,1.16,1.35a5.45,5.45,0,0,1,1,3.22l.1-.1a2.42,2.42,0,0,1,.22-.34l.31-.43a28.35,28.35,0,0,0,1.82-2.54l1.63-2.59c.29-.52.45-.79.48-.82l3.6,5.23-3.6,5.57a33.69,33.69,0,0,0-2.83-4.66Z"/></g><g class="533b1831-cd1f-4735-a981-18a7a166c644"><path d="M200.1.1v84H.1V.1h200m.1-.1H0V84.2H200.2V0Z"/></g><line class="fb04407a-5f1e-4869-88c2-c80d14fb1aa4" x1="29.1" y1="37.34" x2="171.1" y2="37.34"/></g></g></svg>