<svg xmlns="http://www.w3.org/2000/svg" viewBox="0 0 1686.48 322.05"><defs><style>.b7702b11-5f02-4312-a05a-b8f9298ce8c7{fill:#333;}.\30 a5c7c1e-dc25-4db6-b6ba-038ac00b30e1,.fb660a10-34d6-4eaf-91b0-77451a6f53ee{fill:#ccc;}.\30 a5c7c1e-dc25-4db6-b6ba-038ac00b30e1,.\31 0bdfb5f-5fef-439a-bbc3-31a8b54bab6c{opacity:0;}.\37 a8b825b-c749-439a-8bf6-8e31c1622d94{fill:gray;}</style></defs><title>Asset 3</title><g id="71187d49-00bd-42ac-94b2-a6e47d49a017" data-name="Layer 2"><g id="8ef69cb5-2e51-4d6b-8441-28a51f62f6ea" data-name="Layer 1"><polygon class="b7702b11-5f02-4312-a05a-b8f9298ce8c7" points="521.7 121.39 481.57 121.39 442.44 121.39 442.44 160.52 442.44 240.78 481.57 240.78 481.57 160.52 521.7 160.52 521.7 121.39"/><rect class="b7702b11-5f02-4312-a05a-b8f9298ce8c7" x="522.7" y="161.52" width="39.13" height="79.26"/><rect class="b7702b11-5f02-4312-a05a-b8f9298ce8c7" x="602.96" y="161.52" width="39.13" height="79.26"/><rect class="b7702b11-5f02-4312-a05a-b8f9298ce8c7" x="663.15" y="161.52" width="39.13" height="79.26"/><rect class="b7702b11-5f02-4312-a05a-b8f9298ce8c7" x="743.42" y="161.52" width="39.13" height="79.26"/><rect class="b7702b11-5f02-4312-a05a-b8f9298ce8c7" x="863.81" y="121.39" width="39.13" height="119.39"/><rect class="b7702b11-5f02-4312-a05a-b8f9298ce8c7" x="964.13" y="161.52" width="39.13" height="79.26"/><polygon class="b7702b11-5f02-4312-a05a-b8f9298ce8c7" points="1055.72 121.39 1044.39 121.39 1004.26 121.39 1004.26 160.52 1044.39 160.52 1044.39 240.78 1083.53 240.78 1083.53 121.39 1055.72 121.39"/><rect class="b7702b11-5f02-4312-a05a-b8f9298ce8c7" x="1204.92" y="161.52" width="39.13" height="79.26"/><rect class="b7702b11-5f02-4312-a05a-b8f9298ce8c7" x="1124.66" y="41.13" width="39.13" height="199.65"/><rect class="fb660a10-34d6-4eaf-91b0-77451a6f53ee" x="381.24" y="40.13" width="924" height="1"/><rect class="0a5c7c1e-dc25-4db6-b6ba-038ac00b30e1" x="381.24" width="924" height="1"/><rect class="fb660a10-34d6-4eaf-91b0-77451a6f53ee" x="381.24" y="80.26" width="924" height="1"/><rect class="fb660a10-34d6-4eaf-91b0-77451a6f53ee" x="381.24" y="120.39" width="924" height="1"/><rect class="fb660a10-34d6-4eaf-91b0-77451a6f53ee" x="381.24" y="160.52" width="924" height="1"/><rect class="fb660a10-34d6-4eaf-91b0-77451a6f53ee" x="381.24" y="200.65" width="924" height="1"/><rect class="fb660a10-34d6-4eaf-91b0-77451a6f53ee" x="381.24" y="240.78" width="924" height="1"/><rect class="b7702b11-5f02-4312-a05a-b8f9298ce8c7" x="562.83" y="121.39" width="39.13" height="39.13"/><rect class="b7702b11-5f02-4312-a05a-b8f9298ce8c7" x="703.29" y="121.39" width="39.13" height="39.13"/><rect class="b7702b11-5f02-4312-a05a-b8f9298ce8c7" x="823.68" y="81.26" width="39.13" height="39.13"/><rect class="b7702b11-5f02-4312-a05a-b8f9298ce8c7" x="1245.05" y="121.39" width="39.13" height="39.13"/><rect class="fb660a10-34d6-4eaf-91b0-77451a6f53ee" x="381.24" y="321.05" width="924" height="1"/><polygon class="fb660a10-34d6-4eaf-91b0-77451a6f53ee" points="1304.24 40.13 1304.24 280.92 1265.11 280.92 1265.11 40.13 1264.11 40.13 1264.11 280.92 1224.98 280.92 1224.98 40.13 1223.98 40.13 1223.98 280.92 1184.85 280.92 1184.85 40.13 1183.85 40.13 1183.85 280.92 1144.72 280.92 1144.72 40.13 1143.72 40.13 1143.72 280.92 1104.59 280.92 1104.59 40.13 1103.59 40.13 1103.59 280.92 1064.46 280.92 1064.46 40.13 1063.46 40.13 1063.46 280.92 1024.33 280.92 1024.33 40.13 1023.33 40.13 1023.33 280.92 984.2 280.92 984.2 40.13 983.2 40.13 983.2 280.92 944.07 280.92 944.07 40.13 943.07 40.13 943.07 280.92 903.94 280.92 903.94 40.13 902.94 40.13 902.94 280.92 863.81 280.92 863.81 40.13 862.81 40.13 862.81 280.92 823.68 280.92 823.68 40.13 822.68 40.13 822.68 280.92 783.55 280.92 783.55 40.13 782.55 40.13 782.55 280.92 743.42 280.92 743.42 40.13 742.42 40.13 742.42 280.92 703.28 280.92 703.28 40.13 702.28 40.13 702.28 280.92 663.15 280.92 663.15 40.13 662.15 40.13 662.15 280.92 623.02 280.92 623.02 40.13 622.02 40.13 622.02 280.92 582.89 280.92 582.89 40.13 581.89 40.13 581.89 280.92 542.76 280.92 542.76 40.13 541.76 40.13 541.76 280.92 502.63 280.92 502.63 40.13 501.63 40.13 501.63 280.92 462.5 280.92 462.5 40.13 461.5 40.13 461.5 280.92 422.37 280.92 422.37 40.13 421.37 40.13 421.37 280.92 382.24 280.92 382.24 40.13 381.24 40.13 381.24 280.92 381.24 281.92 381.24 321.05 382.24 321.05 382.24 281.92 421.37 281.92 421.37 321.05 422.37 321.05 422.37 281.92 461.5 281.92 461.5 321.05 462.5 321.05 462.5 281.92 501.63 281.92 501.63 321.05 502.63 321.05 502.63 281.92 541.76 281.92 541.76 321.05 542.76 321.05 542.76 281.92 581.89 281.92 581.89 321.05 582.89 321.05 582.89 281.92 622.02 281.92 622.02 321.05 623.02 321.05 623.02 281.92 662.15 281.92 662.15 321.05 663.15 321.05 663.15 281.92 702.28 281.92 702.28 321.05 703.28 321.05 703.28 281.92 742.42 281.92 742.42 321.05 743.42 321.05 743.42 281.92 782.55 281.92 782.55 321.05 783.55 321.05 783.55 281.92 822.68 281.92 822.68 321.05 823.68 321.05 823.68 281.92 862.81 281.92 862.81 321.05 863.81 321.05 863.81 281.92 902.94 281.92 902.94 321.05 903.94 321.05 903.94 281.92 943.07 281.92 943.07 321.05 944.07 321.05 944.07 281.92 983.2 281.92 983.2 321.05 984.2 321.05 984.2 281.92 1023.33 281.92 1023.33 321.05 1024.33 321.05 1024.33 281.92 1063.46 281.92 1063.46 321.05 1064.46 321.05 1064.46 281.92 1103.59 281.92 1103.59 321.05 1104.59 321.05 1104.59 281.92 1143.72 281.92 1143.72 321.05 1144.72 321.05 1144.72 281.92 1183.85 281.92 1183.85 321.05 1184.85 321.05 1184.85 281.92 1223.98 281.92 1223.98 321.05 1224.98 321.05 1224.98 281.92 1264.11 281.92 1264.11 321.05 1265.11 321.05 1265.11 281.92 1304.24 281.92 1304.24 321.05 1305.24 321.05 1305.24 281.92 1305.24 280.92 1305.24 40.13 1304.24 40.13"/><g class="10bdfb5f-5fef-439a-bbc3-31a8b54bab6c"><rect class="7a8b825b-c749-439a-8bf6-8e31c1622d94" x="1685.48" y="41.13" width="1" height="280.91"/></g><g class="10bdfb5f-5fef-439a-bbc3-31a8b54bab6c"><rect class="7a8b825b-c749-439a-8bf6-8e31c1622d94" y="41.13" width="1" height="280.91"/></g></g></g></svg>