<svg xmlns="http://www.w3.org/2000/svg" viewBox="0 0 1686.48 322.05"><defs><style>.a206c638-46bb-4b4c-ba1e-b0b4ab0feb11{fill:#333;}.\33 55782fc-9d50-4a8a-9ce5-a2228ee58118{fill:#ccc;}</style></defs><title>Asset 2</title><g id="eee646ba-084c-4e4b-aee8-009273d6ffe3" data-name="Layer 2"><g id="7bde3667-416a-424e-b40e-9403b652d36d" data-name="Layer 1"><rect class="a206c638-46bb-4b4c-ba1e-b0b4ab0feb11" x="41.13" y="81.26" width="39.13" height="39.13"/><rect class="a206c638-46bb-4b4c-ba1e-b0b4ab0feb11" x="41.13" y="121.39" width="39.13" height="39.13"/><rect class="a206c638-46bb-4b4c-ba1e-b0b4ab0feb11" x="41.13" y="161.52" width="39.13" height="39.13"/><rect class="a206c638-46bb-4b4c-ba1e-b0b4ab0feb11" x="41.13" y="201.65" width="39.13" height="39.13"/><rect class="a206c638-46bb-4b4c-ba1e-b0b4ab0feb11" x="41.13" y="241.78" width="39.13" height="39.13"/><rect class="a206c638-46bb-4b4c-ba1e-b0b4ab0feb11" x="81.26" y="81.26" width="39.13" height="39.13"/><rect class="a206c638-46bb-4b4c-ba1e-b0b4ab0feb11" x="121.39" y="121.39" width="39.13" height="39.13"/><rect class="a206c638-46bb-4b4c-ba1e-b0b4ab0feb11" x="121.39" y="161.52" width="39.13" height="39.13"/><rect class="a206c638-46bb-4b4c-ba1e-b0b4ab0feb11" x="121.39" y="201.65" width="39.13" height="39.13"/><rect class="a206c638-46bb-4b4c-ba1e-b0b4ab0feb11" x="161.52" y="81.26" width="39.13" height="39.13"/><rect class="a206c638-46bb-4b4c-ba1e-b0b4ab0feb11" x="201.65" y="81.26" width="39.13" height="39.13"/><rect class="a206c638-46bb-4b4c-ba1e-b0b4ab0feb11" x="201.65" y="121.39" width="39.13" height="39.13"/><rect class="a206c638-46bb-4b4c-ba1e-b0b4ab0feb11" x="201.65" y="161.52" width="39.13" height="39.13"/><rect class="a206c638-46bb-4b4c-ba1e-b0b4ab0feb11" x="201.65" y="201.65" width="39.13" height="39.13"/><rect class="a206c638-46bb-4b4c-ba1e-b0b4ab0feb11" x="201.65" y="241.78" width="39.13" height="39.13"/><rect class="a206c638-46bb-4b4c-ba1e-b0b4ab0feb11" x="322.04" y="121.39" width="39.13" height="39.13"/><rect class="a206c638-46bb-4b4c-ba1e-b0b4ab0feb11" x="322.04" y="161.52" width="39.13" height="39.13"/><rect class="a206c638-46bb-4b4c-ba1e-b0b4ab0feb11" x="322.04" y="201.65" width="39.13" height="39.13"/><rect class="a206c638-46bb-4b4c-ba1e-b0b4ab0feb11" x="362.18" y="81.26" width="39.13" height="39.13"/><rect class="a206c638-46bb-4b4c-ba1e-b0b4ab0feb11" x="362.18" y="241.78" width="39.13" height="39.13"/><rect class="a206c638-46bb-4b4c-ba1e-b0b4ab0feb11" x="402.31" y="81.26" width="39.13" height="39.13"/><rect class="a206c638-46bb-4b4c-ba1e-b0b4ab0feb11" x="402.31" y="241.78" width="39.13" height="39.13"/><rect class="a206c638-46bb-4b4c-ba1e-b0b4ab0feb11" x="442.44" y="81.26" width="39.13" height="39.13"/><rect class="a206c638-46bb-4b4c-ba1e-b0b4ab0feb11" x="442.44" y="241.78" width="39.13" height="39.13"/><rect class="a206c638-46bb-4b4c-ba1e-b0b4ab0feb11" x="482.57" y="121.39" width="39.13" height="39.13"/><rect class="a206c638-46bb-4b4c-ba1e-b0b4ab0feb11" x="482.57" y="161.52" width="39.13" height="39.13"/><rect class="a206c638-46bb-4b4c-ba1e-b0b4ab0feb11" x="482.57" y="201.65" width="39.13" height="39.13"/><rect class="a206c638-46bb-4b4c-ba1e-b0b4ab0feb11" x="602.96" y="81.26" width="39.13" height="39.13"/><rect class="a206c638-46bb-4b4c-ba1e-b0b4ab0feb11" x="602.96" y="121.39" width="39.13" height="39.13"/><rect class="a206c638-46bb-4b4c-ba1e-b0b4ab0feb11" x="602.96" y="161.52" width="39.13" height="39.13"/><rect class="a206c638-46bb-4b4c-ba1e-b0b4ab0feb11" x="602.96" y="201.65" width="39.13" height="39.13"/><rect class="a206c638-46bb-4b4c-ba1e-b0b4ab0feb11" x="602.96" y="241.78" width="39.13" height="39.13"/><rect class="a206c638-46bb-4b4c-ba1e-b0b4ab0feb11" x="643.09" y="121.39" width="39.13" height="39.13"/><rect class="a206c638-46bb-4b4c-ba1e-b0b4ab0feb11" x="683.22" y="81.26" width="39.13" height="39.13"/><rect class="a206c638-46bb-4b4c-ba1e-b0b4ab0feb11" x="723.35" y="81.26" width="39.13" height="39.13"/><rect class="a206c638-46bb-4b4c-ba1e-b0b4ab0feb11" x="763.48" y="81.26" width="39.13" height="39.13"/><rect class="a206c638-46bb-4b4c-ba1e-b0b4ab0feb11" x="883.87" y="201.65" width="39.13" height="39.13"/><rect class="a206c638-46bb-4b4c-ba1e-b0b4ab0feb11" x="924" y="81.26" width="39.13" height="39.13"/><rect class="a206c638-46bb-4b4c-ba1e-b0b4ab0feb11" x="924" y="161.52" width="39.13" height="39.13"/><rect class="a206c638-46bb-4b4c-ba1e-b0b4ab0feb11" x="924" y="241.78" width="39.13" height="39.13"/><rect class="a206c638-46bb-4b4c-ba1e-b0b4ab0feb11" x="964.13" y="81.26" width="39.13" height="39.13"/><rect class="a206c638-46bb-4b4c-ba1e-b0b4ab0feb11" x="964.13" y="161.52" width="39.13" height="39.13"/><rect class="a206c638-46bb-4b4c-ba1e-b0b4ab0feb11" x="964.13" y="241.78" width="39.13" height="39.13"/><rect class="a206c638-46bb-4b4c-ba1e-b0b4ab0feb11" x="1004.26" y="81.26" width="39.13" height="39.13"/><rect class="a206c638-46bb-4b4c-ba1e-b0b4ab0feb11" x="1004.26" y="161.52" width="39.13" height="39.13"/><rect class="a206c638-46bb-4b4c-ba1e-b0b4ab0feb11" x="1004.26" y="241.78" width="39.13" height="39.13"/><rect class="a206c638-46bb-4b4c-ba1e-b0b4ab0feb11" x="1044.4" y="121.39" width="39.13" height="39.13"/><rect class="a206c638-46bb-4b4c-ba1e-b0b4ab0feb11" x="1044.4" y="161.52" width="39.13" height="39.13"/><rect class="a206c638-46bb-4b4c-ba1e-b0b4ab0feb11" x="1044.4" y="201.65" width="39.13" height="39.13"/><rect class="a206c638-46bb-4b4c-ba1e-b0b4ab0feb11" x="1044.4" y="241.78" width="39.13" height="39.13"/><rect class="a206c638-46bb-4b4c-ba1e-b0b4ab0feb11" x="1204.92" y="1" width="39.13" height="39.13"/><rect class="a206c638-46bb-4b4c-ba1e-b0b4ab0feb11" x="1204.92" y="241.78" width="39.13" height="39.13"/><rect class="a206c638-46bb-4b4c-ba1e-b0b4ab0feb11" x="1245.05" y="1" width="39.13" height="39.13"/><rect class="a206c638-46bb-4b4c-ba1e-b0b4ab0feb11" x="1245.05" y="41.13" width="39.13" height="39.13"/><rect class="a206c638-46bb-4b4c-ba1e-b0b4ab0feb11" x="1245.05" y="81.26" width="39.13" height="39.13"/><rect class="a206c638-46bb-4b4c-ba1e-b0b4ab0feb11" x="1245.05" y="121.39" width="39.13" height="39.13"/><rect class="a206c638-46bb-4b4c-ba1e-b0b4ab0feb11" x="1245.05" y="161.52" width="39.13" height="39.13"/><rect class="a206c638-46bb-4b4c-ba1e-b0b4ab0feb11" x="1245.05" y="201.65" width="39.13" height="39.13"/><rect class="a206c638-46bb-4b4c-ba1e-b0b4ab0feb11" x="1245.05" y="241.78" width="39.13" height="39.13"/><rect class="a206c638-46bb-4b4c-ba1e-b0b4ab0feb11" x="1285.18" y="241.78" width="39.13" height="39.13"/><rect class="a206c638-46bb-4b4c-ba1e-b0b4ab0feb11" x="1445.7" y="121.39" width="39.13" height="39.13"/><rect class="a206c638-46bb-4b4c-ba1e-b0b4ab0feb11" x="1445.7" y="161.52" width="39.13" height="39.13"/><rect class="a206c638-46bb-4b4c-ba1e-b0b4ab0feb11" x="1445.7" y="201.65" width="39.13" height="39.13"/><rect class="a206c638-46bb-4b4c-ba1e-b0b4ab0feb11" x="1485.83" y="81.26" width="39.13" height="39.13"/><rect class="a206c638-46bb-4b4c-ba1e-b0b4ab0feb11" x="1485.83" y="161.52" width="39.13" height="39.13"/><rect class="a206c638-46bb-4b4c-ba1e-b0b4ab0feb11" x="1485.83" y="241.78" width="39.13" height="39.13"/><rect class="a206c638-46bb-4b4c-ba1e-b0b4ab0feb11" x="1525.96" y="81.26" width="39.13" height="39.13"/><rect class="a206c638-46bb-4b4c-ba1e-b0b4ab0feb11" x="1525.96" y="161.52" width="39.13" height="39.13"/><rect class="a206c638-46bb-4b4c-ba1e-b0b4ab0feb11" x="1525.96" y="241.78" width="39.13" height="39.13"/><rect class="a206c638-46bb-4b4c-ba1e-b0b4ab0feb11" x="1566.09" y="81.26" width="39.13" height="39.13"/><rect class="a206c638-46bb-4b4c-ba1e-b0b4ab0feb11" x="1566.09" y="161.52" width="39.13" height="39.13"/><rect class="a206c638-46bb-4b4c-ba1e-b0b4ab0feb11" x="1566.09" y="241.78" width="39.13" height="39.13"/><rect class="a206c638-46bb-4b4c-ba1e-b0b4ab0feb11" x="1606.22" y="121.39" width="39.13" height="39.13"/><rect class="a206c638-46bb-4b4c-ba1e-b0b4ab0feb11" x="1606.22" y="161.52" width="39.13" height="39.13"/><rect class="a206c638-46bb-4b4c-ba1e-b0b4ab0feb11" x="1606.22" y="241.78" width="39.13" height="39.13"/><path class="355782fc-9d50-4a8a-9ce5-a2228ee58118" d="M1685.48,0V321.05h-39.13V281.92h39.13v-1h-39.13V241.78h39.13v-1h-39.13V201.65h39.13v-1h-39.13V161.52h39.13v-1h-39.13V121.39h39.13v-1h-39.13V81.26h39.13v-1h-39.13V41.13h39.13v-1h-39.13V1h39.13V0H0V322.05H1686.48V0Zm-40.13,280.92h-39.13V241.78h39.13Zm-160.52-120.4H1445.7V121.39h39.13Zm1-39.13H1525v39.13h-39.13Zm-41.13,39.13h-39.13V121.39h39.13Zm-40.13,0h-39.13V121.39h39.13Zm-40.13,0h-39.13V121.39h39.13Zm-40.13,0h-39.13V121.39h39.13Zm-40.13,0h-39.13V121.39h39.13Zm-40.13,0h-39.13V121.39h39.13Zm-40.13,0h-39.13V121.39h39.13Zm-40.13,0h-39.13V121.39h39.13Zm-40.13,0h-39.13V121.39h39.13Zm-40.13,0H1044.4V121.39h39.13Zm-40.13,0h-39.14V121.39h39.14Zm-40.14,0H964.13V121.39h39.13Zm-40.13,0H924V121.39h39.13Zm-40.13,0H883.87V121.39H923Zm-40.13,0H843.74V121.39h39.13Zm-40.13,0H803.61V121.39h39.13Zm-40.13,0H763.48V121.39h39.13Zm-40.13,0H723.35V121.39h39.13Zm-40.13,0H683.22V121.39h39.13Zm-40.13,0H643.09V121.39h39.13Zm-40.13,0H603V121.39h39.13Zm-40.13,0H562.83V121.39H602Zm-40.13,0H522.7V121.39h39.13Zm-40.13,0H482.57V121.39H521.7Zm-40.13,0H442.44V121.39h39.13Zm-40.13,0H402.31V121.39h39.13Zm-40.13,0H362.18V121.39h39.13Zm-40.13,0H322V121.39h39.14Zm-40.14,0H281.91V121.39H321Zm-40.13,0H241.78V121.39h39.13Zm-40.13,0H201.65V121.39h39.13Zm-40.13,0H161.52V121.39h39.13Zm-40.13,0H121.39V121.39h39.13Zm0,1v39.13H121.39V161.52Zm1,0h39.13v39.13H161.52Zm40.13,0h39.13v39.13H201.65Zm40.13,0h39.13v39.13H241.78Zm40.13,0H321v39.13H281.91Zm40.13,0h39.14v39.13H322Zm40.14,0h39.13v39.13H362.18Zm40.13,0h39.13v39.13H402.31Zm40.13,0h39.13v39.13H442.44Zm40.13,0H521.7v39.13H482.57Zm40.13,0h39.13v39.13H522.7Zm40.13,0H602v39.13H562.83Zm40.13,0h39.13v39.13H603Zm40.13,0h39.13v39.13H643.09Zm40.13,0h39.13v39.13H683.22Zm40.13,0h39.13v39.13H723.35Zm40.13,0h39.13v39.13H763.48Zm40.13,0h39.13v39.13H803.61Zm40.13,0h39.13v39.13H843.74Zm40.13,0H923v39.13H883.87Zm40.13,0h39.13v39.13H924Zm40.13,0h39.13v39.13H964.13Zm40.13,0h39.14v39.13h-39.14Zm40.14,0h39.13v39.13H1044.4Zm40.13,0h39.13v39.13h-39.13Zm40.13,0h39.13v39.13h-39.13Zm40.13,0h39.13v39.13h-39.13Zm40.13,0h39.13v39.13h-39.13Zm40.13,0h39.13v39.13h-39.13Zm40.13,0h39.13v39.13h-39.13Zm40.13,0h39.13v39.13h-39.13Zm40.13,0h39.13v39.13h-39.13Zm40.13,0h39.13v39.13h-39.13Zm40.13,0h39.13v39.13H1445.7Zm40.13,0H1525v39.13h-39.13Zm40.13,0h39.13v39.13H1526Zm0-1V121.39h39.13v39.13Zm0-40.13V81.26h39.13v39.13Zm-1,0h-39.13V81.26H1525Zm-40.13,0H1445.7V81.26h39.13Zm-40.13,0h-39.13V81.26h39.13Zm-40.13,0h-39.13V81.26h39.13Zm-40.13,0h-39.13V81.26h39.13Zm-40.13,0h-39.13V81.26h39.13Zm-40.13,0h-39.13V81.26h39.13Zm-40.13,0h-39.13V81.26h39.13Zm-40.13,0h-39.13V81.26h39.13Zm-40.13,0h-39.13V81.26h39.13Zm-40.13,0h-39.13V81.26h39.13Zm-40.13,0H1044.4V81.26h39.13Zm-40.13,0h-39.14V81.26h39.14Zm-40.14,0H964.13V81.26h39.13Zm-40.13,0H924V81.26h39.13Zm-40.13,0H883.87V81.26H923Zm-40.13,0H843.74V81.26h39.13Zm-40.13,0H803.61V81.26h39.13Zm-40.13,0H763.48V81.26h39.13Zm-40.13,0H723.35V81.26h39.13Zm-40.13,0H683.22V81.26h39.13Zm-40.13,0H643.09V81.26h39.13Zm-40.13,0H603V81.26h39.13Zm-40.13,0H562.83V81.26H602Zm-40.13,0H522.7V81.26h39.13Zm-40.13,0H482.57V81.26H521.7Zm-40.13,0H442.44V81.26h39.13Zm-40.13,0H402.31V81.26h39.13Zm-40.13,0H362.18V81.26h39.13Zm-40.13,0H322V81.26h39.14Zm-40.14,0H281.91V81.26H321Zm-40.13,0H241.78V81.26h39.13Zm-40.13,0H201.65V81.26h39.13Zm-40.13,0H161.52V81.26h39.13Zm-40.13,0H121.39V81.26h39.13Zm-40.13,0H81.26V81.26h39.13Zm0,1v39.13H81.26V121.39Zm0,40.13v39.13H81.26V161.52Zm0,40.13v39.13H81.26V201.65Zm1,0h39.13v39.13H121.39Zm40.13,0h39.13v39.13H161.52Zm40.13,0h39.13v39.13H201.65Zm40.13,0h39.13v39.13H241.78Zm40.13,0H321v39.13H281.91Zm40.13,0h39.14v39.13H322Zm40.14,0h39.13v39.13H362.18Zm40.13,0h39.13v39.13H402.31Zm40.13,0h39.13v39.13H442.44Zm40.13,0H521.7v39.13H482.57Zm40.13,0h39.13v39.13H522.7Zm40.13,0H602v39.13H562.83Zm40.13,0h39.13v39.13H603Zm40.13,0h39.13v39.13H643.09Zm40.13,0h39.13v39.13H683.22Zm40.13,0h39.13v39.13H723.35Zm40.13,0h39.13v39.13H763.48Zm40.13,0h39.13v39.13H803.61Zm40.13,0h39.13v39.13H843.74Zm40.13,0H923v39.13H883.87Zm40.13,0h39.13v39.13H924Zm40.13,0h39.13v39.13H964.13Zm40.13,0h39.14v39.13h-39.14Zm40.14,0h39.13v39.13H1044.4Zm40.13,0h39.13v39.13h-39.13Zm40.13,0h39.13v39.13h-39.13Zm40.13,0h39.13v39.13h-39.13Zm40.13,0h39.13v39.13h-39.13Zm40.13,0h39.13v39.13h-39.13Zm40.13,0h39.13v39.13h-39.13Zm40.13,0h39.13v39.13h-39.13Zm40.13,0h39.13v39.13h-39.13Zm40.13,0h39.13v39.13h-39.13Zm40.13,0h39.13v39.13H1445.7Zm40.13,0H1525v39.13h-39.13Zm40.13,0h39.13v39.13H1526Zm40.13,0h39.13v39.13h-39.13Zm0-1V161.52h39.13v39.13Zm0-40.13V121.39h39.13v39.13Zm0-40.13V81.26h39.13v39.13Zm0-40.13V41.13h39.13V80.26Zm-1,0H1526V41.13h39.13Zm-40.13,0h-39.13V41.13H1525Zm-40.13,0H1445.7V41.13h39.13Zm-40.13,0h-39.13V41.13h39.13Zm-40.13,0h-39.13V41.13h39.13Zm-40.13,0h-39.13V41.13h39.13Zm-40.13,0h-39.13V41.13h39.13Zm-40.13,0h-39.13V41.13h39.13Zm-40.13,0h-39.13V41.13h39.13Zm-40.13,0h-39.13V41.13h39.13Zm-40.13,0h-39.13V41.13h39.13Zm-40.13,0h-39.13V41.13h39.13Zm-40.13,0H1044.4V41.13h39.13Zm-40.13,0h-39.14V41.13h39.14Zm-40.14,0H964.13V41.13h39.13Zm-40.13,0H924V41.13h39.13Zm-40.13,0H883.87V41.13H923Zm-40.13,0H843.74V41.13h39.13Zm-40.13,0H803.61V41.13h39.13Zm-40.13,0H763.48V41.13h39.13Zm-40.13,0H723.35V41.13h39.13Zm-40.13,0H683.22V41.13h39.13Zm-40.13,0H643.09V41.13h39.13Zm-40.13,0H603V41.13h39.13Zm-40.13,0H562.83V41.13H602Zm-40.13,0H522.7V41.13h39.13Zm-40.13,0H482.57V41.13H521.7Zm-40.13,0H442.44V41.13h39.13Zm-40.13,0H402.31V41.13h39.13Zm-40.13,0H362.18V41.13h39.13Zm-40.13,0H322V41.13h39.14Zm-40.14,0H281.91V41.13H321Zm-40.13,0H241.78V41.13h39.13Zm-40.13,0H201.65V41.13h39.13Zm-40.13,0H161.52V41.13h39.13Zm-40.13,0H121.39V41.13h39.13Zm-40.13,0H81.26V41.13h39.13Zm-40.13,0H41.13V41.13H80.26Zm0,1v39.13H41.13V81.26Zm0,40.13v39.13H41.13V121.39Zm0,40.13v39.13H41.13V161.52Zm0,40.13v39.13H41.13V201.65Zm0,40.13v39.13H41.13V241.78Zm1,0h39.13v39.13H81.26Zm40.13,0h39.13v39.13H121.39Zm40.13,0h39.13v39.13H161.52Zm40.13,0h39.13v39.13H201.65Zm40.13,0h39.13v39.13H241.78Zm40.13,0H321v39.13H281.91Zm40.13,0h39.14v39.13H322Zm40.14,0h39.13v39.13H362.18Zm40.13,0h39.13v39.13H402.31Zm40.13,0h39.13v39.13H442.44Zm40.13,0H521.7v39.13H482.57Zm40.13,0h39.13v39.13H522.7Zm40.13,0H602v39.13H562.83Zm40.13,0h39.13v39.13H603Zm40.13,0h39.13v39.13H643.09Zm40.13,0h39.13v39.13H683.22Zm40.13,0h39.13v39.13H723.35Zm40.13,0h39.13v39.13H763.48Zm40.13,0h39.13v39.13H803.61Zm40.13,0h39.13v39.13H843.74Zm40.13,0H923v39.13H883.87Zm40.13,0h39.13v39.13H924Zm40.13,0h39.13v39.13H964.13Zm40.13,0h39.14v39.13h-39.14Zm40.14,0h39.13v39.13H1044.4Zm40.13,0h39.13v39.13h-39.13Zm40.13,0h39.13v39.13h-39.13Zm40.13,0h39.13v39.13h-39.13Zm40.13,0h39.13v39.13h-39.13Zm40.13,0h39.13v39.14h-39.13Zm40.13,0h39.13v39.14h-39.13Zm40.13,0h39.13v39.14h-39.13Zm40.13,0h39.13v39.14h-39.13Zm40.13,0h39.13v39.14h-39.13Zm40.13,0h39.13v39.14H1445.7Zm40.13,0H1525v39.14h-39.13Zm40.13,0h39.13v39.14H1526Zm40.13,0h39.13v39.14h-39.13Zm79.26-1h-39.13V201.65h39.13Zm0-40.13h-39.13V161.52h39.13Zm0-40.13h-39.13V121.39h39.13Zm0-40.13h-39.13V81.26h39.13Zm0-40.13h-39.13V41.13h39.13Zm0-79.26V40.13h-39.13V1Zm-40.13,0V40.13h-39.13V1Zm-40.13,0V40.13H1526V1ZM1525,1V40.13h-39.13V1Zm-40.13,0V40.13H1445.7V1ZM1444.7,1V40.13h-39.13V1Zm-40.13,0V40.13h-39.13V1Zm-40.13,0V40.13h-39.13V1Zm-40.13,0V40.13h-39.13V1Zm-40.13,0V40.13h-39.13V1Zm-40.13,0V40.13h-39.13V1Zm-40.13,0V40.13h-39.13V1Zm-40.13,0V40.13h-39.13V1Zm-40.13,0V40.13h-39.13V1Zm-40.13,0V40.13H1044.4V1ZM1043.4,1V40.13h-39.14V1Zm-40.14,0V40.13H964.13V1ZM963.13,1V40.13H924V1ZM923,1V40.13H883.87V1ZM882.87,1V40.13H843.74V1ZM842.74,1V40.13H803.61V1ZM802.61,1V40.13H763.48V1ZM762.48,1V40.13H723.35V1ZM722.35,1V40.13H683.22V1ZM682.22,1V40.13H643.09V1ZM642.09,1V40.13H603V1ZM602,1V40.13H562.83V1ZM561.83,1V40.13H522.7V1ZM521.7,1V40.13H482.57V1ZM481.57,1V40.13H442.44V1ZM441.44,1V40.13H402.31V1ZM401.31,1V40.13H362.18V1ZM361.18,1V40.13H322V1ZM321,1V40.13H281.91V1ZM280.91,1V40.13H241.78V1ZM240.78,1V40.13H201.65V1ZM200.65,1V40.13H161.52V1ZM160.52,1V40.13H121.39V1ZM120.39,1V40.13H81.26V1ZM80.26,1V40.13H41.13V1ZM1,1H40.13V40.13H1ZM1,41.13H40.13V80.26H1ZM1,81.26H40.13v39.13H1Zm0,40.13H40.13v39.13H1Zm0,40.13H40.13v39.13H1Zm0,40.13H40.13v39.13H1Zm0,40.13H40.13v39.13H1Zm0,79.27V281.91H40.13v39.14Zm40.13,0V281.91H80.26v39.14Zm40.13,0V281.91h39.13v39.14Zm40.13,0V281.91h39.13v39.14Zm40.13,0V281.91h39.13v39.14Zm40.13,0V281.91h39.13v39.14Zm40.13,0V281.91h39.13v39.14Zm40.13,0V281.91H321v39.14Zm40.13,0V281.91h39.14v39.14Zm40.14,0V281.91h39.13v39.14Zm40.13,0V281.91h39.13v39.14Zm40.13,0V281.91h39.13v39.14Zm40.13,0V281.91H521.7v39.14Zm40.13,0V281.91h39.13v39.14Zm40.13,0V281.91H602v39.14Zm40.13,0V281.91h39.13v39.14Zm40.13,0V281.91h39.13v39.14Zm40.13,0V281.91h39.13v39.14Zm40.13,0V281.91h39.13v39.14Zm40.13,0V281.91h39.13v39.14Zm40.13,0V281.91h39.13v39.14Zm40.13,0V281.91h39.13v39.14Zm40.13,0V281.91H923v39.14Zm40.13,0V281.91h39.13v39.14Zm40.13,0V281.91h39.13v39.14Zm40.13,0V281.91h39.14v39.14Zm40.14,0V281.91h39.13v39.14Zm40.13,0V281.91h39.13v39.14Zm40.13,0V281.91h39.13v39.14Zm40.13,0V281.91h39.13v39.14Zm40.13,0V281.91h39.13v39.14Zm40.13,0V281.91h39.13v39.13Zm40.13,0V281.92h39.13v39.13Zm40.13,0V281.92h39.13v39.13Zm40.13,0V281.92h39.13v39.13Zm40.13,0V281.92h39.13v39.13Zm40.13,0V281.92h39.13v39.13Zm40.13,0V281.92H1525v39.13Zm40.13,0V281.92h39.13v39.13Zm40.13,0V281.92h39.13v39.13Zm40.13,0V281.92h39.13v39.13Z"/></g></g></svg>