<svg xmlns="http://www.w3.org/2000/svg" viewBox="0 0 924 322.05"><defs><style>.\31 2872932-1963-42a7-8581-1cbe3f8d0937{fill:#333;}.\34 fa0d04d-e334-4c58-a2ba-521b85326f07,.\37 32f4d1e-02dd-4ebe-949e-db615b13bd0c{fill:#ccc;}.\34 fa0d04d-e334-4c58-a2ba-521b85326f07{opacity:0;}</style></defs><title>Asset 1</title><g id="621da148-90fa-4235-b9b8-2c0c69912aa8" data-name="Layer 2"><g id="a307e72b-4119-4580-bc58-7b5bc4322175" data-name="Layer 1"><polygon class="12872932-1963-42a7-8581-1cbe3f8d0937" points="120.39 121.39 80.26 121.39 41.13 121.39 41.13 160.52 41.13 240.78 80.26 240.78 80.26 160.52 120.39 160.52 120.39 121.39"/><rect class="12872932-1963-42a7-8581-1cbe3f8d0937" x="121.39" y="161.52" width="39.13" height="79.26"/><rect class="12872932-1963-42a7-8581-1cbe3f8d0937" x="201.65" y="161.52" width="39.13" height="79.26"/><rect class="12872932-1963-42a7-8581-1cbe3f8d0937" x="281.91" y="161.52" width="39.13" height="79.26"/><rect class="12872932-1963-42a7-8581-1cbe3f8d0937" x="362.18" y="161.52" width="39.13" height="79.26"/><rect class="12872932-1963-42a7-8581-1cbe3f8d0937" x="482.57" y="121.39" width="39.13" height="119.39"/><rect class="12872932-1963-42a7-8581-1cbe3f8d0937" x="562.83" y="161.52" width="39.13" height="79.26"/><polygon class="12872932-1963-42a7-8581-1cbe3f8d0937" points="654.42 121.39 643.09 121.39 602.96 121.39 602.96 160.52 643.09 160.52 643.09 240.78 682.22 240.78 682.22 121.39 654.42 121.39"/><rect class="12872932-1963-42a7-8581-1cbe3f8d0937" x="803.61" y="161.52" width="39.13" height="79.26"/><rect class="12872932-1963-42a7-8581-1cbe3f8d0937" x="723.35" y="41.13" width="39.13" height="199.65"/><rect class="732f4d1e-02dd-4ebe-949e-db615b13bd0c" y="40.13" width="924" height="1"/><rect class="4fa0d04d-e334-4c58-a2ba-521b85326f07" width="924" height="1"/><rect class="732f4d1e-02dd-4ebe-949e-db615b13bd0c" y="80.26" width="924" height="1"/><rect class="732f4d1e-02dd-4ebe-949e-db615b13bd0c" y="120.39" width="924" height="1"/><rect class="732f4d1e-02dd-4ebe-949e-db615b13bd0c" y="160.52" width="924" height="1"/><rect class="732f4d1e-02dd-4ebe-949e-db615b13bd0c" y="200.65" width="924" height="1"/><rect class="732f4d1e-02dd-4ebe-949e-db615b13bd0c" y="240.78" width="924" height="1"/><rect class="12872932-1963-42a7-8581-1cbe3f8d0937" x="161.52" y="121.39" width="39.13" height="39.13"/><rect class="12872932-1963-42a7-8581-1cbe3f8d0937" x="322.04" y="121.39" width="39.13" height="39.13"/><rect class="12872932-1963-42a7-8581-1cbe3f8d0937" x="442.44" y="81.26" width="39.13" height="39.13"/><rect class="12872932-1963-42a7-8581-1cbe3f8d0937" x="843.74" y="121.39" width="39.13" height="39.13"/><rect class="732f4d1e-02dd-4ebe-949e-db615b13bd0c" y="321.05" width="924" height="1"/><polygon class="732f4d1e-02dd-4ebe-949e-db615b13bd0c" points="923 40.13 923 280.92 883.87 280.92 883.87 40.13 882.87 40.13 882.87 280.92 843.74 280.92 843.74 40.13 842.74 40.13 842.74 280.92 803.61 280.92 803.61 40.13 802.61 40.13 802.61 280.92 763.48 280.92 763.48 40.13 762.48 40.13 762.48 280.92 723.35 280.92 723.35 40.13 722.35 40.13 722.35 280.92 683.22 280.92 683.22 40.13 682.22 40.13 682.22 280.92 643.09 280.92 643.09 40.13 642.09 40.13 642.09 280.92 602.96 280.92 602.96 40.13 601.96 40.13 601.96 280.92 562.83 280.92 562.83 40.13 561.83 40.13 561.83 280.92 522.7 280.92 522.7 40.13 521.7 40.13 521.7 280.92 482.57 280.92 482.57 40.13 481.57 40.13 481.57 280.92 442.44 280.92 442.44 40.13 441.44 40.13 441.44 280.92 402.31 280.92 402.31 40.13 401.31 40.13 401.31 280.92 362.18 280.92 362.18 40.13 361.18 40.13 361.18 280.92 322.05 280.92 322.05 40.13 321.05 40.13 321.05 280.92 281.91 280.92 281.91 40.13 280.91 40.13 280.91 280.92 241.78 280.92 241.78 40.13 240.78 40.13 240.78 280.92 201.65 280.92 201.65 40.13 200.65 40.13 200.65 280.92 161.52 280.92 161.52 40.13 160.52 40.13 160.52 280.92 121.39 280.92 121.39 40.13 120.39 40.13 120.39 280.92 81.26 280.92 81.26 40.13 80.26 40.13 80.26 280.92 41.13 280.92 41.13 40.13 40.13 40.13 40.13 280.92 1 280.92 1 40.13 0 40.13 0 280.92 0 281.92 0 321.05 1 321.05 1 281.92 40.13 281.92 40.13 321.05 41.13 321.05 41.13 281.92 80.26 281.92 80.26 321.05 81.26 321.05 81.26 281.92 120.39 281.92 120.39 321.05 121.39 321.05 121.39 281.92 160.52 281.92 160.52 321.05 161.52 321.05 161.52 281.92 200.65 281.92 200.65 321.05 201.65 321.05 201.65 281.92 240.78 281.92 240.78 321.05 241.78 321.05 241.78 281.92 280.91 281.92 280.91 321.05 281.91 321.05 281.91 281.92 321.05 281.92 321.05 321.05 322.05 321.05 322.05 281.92 361.18 281.92 361.18 321.05 362.18 321.05 362.18 281.92 401.31 281.92 401.31 321.05 402.31 321.05 402.31 281.92 441.44 281.92 441.44 321.05 442.44 321.05 442.44 281.92 481.57 281.92 481.57 321.05 482.57 321.05 482.57 281.92 521.7 281.92 521.7 321.05 522.7 321.05 522.7 281.92 561.83 281.92 561.83 321.05 562.83 321.05 562.83 281.92 601.96 281.92 601.96 321.05 602.96 321.05 602.96 281.92 642.09 281.92 642.09 321.05 643.09 321.05 643.09 281.92 682.22 281.92 682.22 321.05 683.22 321.05 683.22 281.92 722.35 281.92 722.35 321.05 723.35 321.05 723.35 281.92 762.48 281.92 762.48 321.05 763.48 321.05 763.48 281.92 802.61 281.92 802.61 321.05 803.61 321.05 803.61 281.92 842.74 281.92 842.74 321.05 843.74 321.05 843.74 281.92 882.87 281.92 882.87 321.05 883.87 321.05 883.87 281.92 923 281.92 923 321.05 924 321.05 924 281.92 924 280.92 924 40.13 923 40.13"/></g></g></svg>