<?xml version="1.0" encoding="utf-8"?>
<!-- Generator: Adobe Illustrator 22.1.0, SVG Export Plug-In . SVG Version: 6.00 Build 0)  -->
<svg version="1.1" id="Layer_1" xmlns="http://www.w3.org/2000/svg" xmlns:xlink="http://www.w3.org/1999/xlink" x="0px" y="0px"
	 viewBox="0 0 80 21" style="enable-background:new 0 0 80 21;" xml:space="preserve">
<style type="text/css">
	.st0{opacity:0.7;}
</style>
<title>Asset 4</title>
<g class="st0">
	<polygon points="2,1 2,0 1,0 0,0 0,1 1,1 1,2 0,2 0,3 0,4 1,4 1,3 2,3 2,2 	"/>
	<polygon points="20,3 20,2 19,2 18,2 18,3 19,3 	"/>
	<rect x="12" y="3" width="1" height="1"/>
	<rect x="11" y="4" width="1" height="1"/>
	<path d="M29,2h-1h-1h-1v1h-1v1h1v1h-1V4h-1V3h1V2h-1h-1v1v1h-1v1h1v1h1h1h1h1h1h1h1V5h-1V4h1V3h-1V2z M28,4v1h-1V4V3h1V4z"/>
	<polygon points="37,4 38,4 38,3 38,2 37,2 36,2 36,3 37,3 	"/>
	<polygon points="42,5 42,6 43,6 44,6 44,5 44,4 43,4 43,5 	"/>
	<polygon points="47,4 46,4 46,3 47,3 47,2 46,2 45,2 45,3 45,4 45,5 45,6 46,6 47,6 48,6 48,5 48,4 48,3 47,3 	"/>
	<polygon points="56,2 56,3 55,3 55,4 54,4 53,4 53,3 52,3 52,4 52,5 53,5 53,6 54,6 55,6 55,5 56,5 56,4 57,4 57,3 58,3 58,2 57,2 
			"/>
	<polygon points="56,5 56,6 57,6 58,6 58,5 58,4 57,4 57,5 	"/>
	<polygon points="39,5 38,5 37,5 36,5 36,6 37,6 38,6 39,6 40,6 41,6 41,5 41,4 40,4 40,5 	"/>
	<polygon points="42,2 42,3 42,4 43,4 43,3 44,3 44,2 43,2 	"/>
	<polygon points="51,4 51,3 52,3 52,2 51,2 50,2 49,2 49,3 50,3 50,4 50,5 49,5 49,6 50,6 51,6 52,6 52,5 51,5 	"/>
	<polygon points="39,2 39,3 39,4 40,4 40,3 41,3 41,2 40,2 	"/>
	<path d="M64,2V1V0h-1h-1v1h1v1v1h-1V2h-1h-1h-1v1v1v1v1h1h1h1h1h1V5V4V3h1V2H64z M60,5V4V3h1v1v1H60z M63,5h-1V4h1V5z"/>
	<polygon points="74,4 73,4 73,5 73,6 74,6 75,6 75,5 74,5 	"/>
	<polygon points="75,3 75,2 74,2 73,2 73,3 74,3 	"/>
	<rect x="79" y="3" width="1" height="1"/>
	<polygon points="78,2 77,2 76,2 76,3 77,3 77,4 78,4 78,3 79,3 79,2 	"/>
	<rect x="71" width="1" height="1"/>
	<polygon points="75,4 75,5 76,5 76,4 76,3 75,3 	"/>
	<path d="M72,3V2h-1h-1V1h-1v1h-1h-1h-1v1h1v1v1h-1V4V3h-1v1v1v1h1h1h1V5V4V3h1v1v1v1h1h1h1V5V4h1V3H72z M71,5h-1V4V3h1v1V5z"/>
	<polygon points="77,6 78,6 79,6 80,6 80,5 79,5 78,5 77,5 76,5 76,6 	"/>
	<polygon points="55,3 55,2 55,1 54,1 54,2 53,2 53,3 54,3 	"/>
	<path d="M35,4V3V2h-1h-1V1V0h-1h-1v1h1v1v1v1v1v1h1h1h1V5h1V4H35z M33,5V4V3h1v1v1H33z"/>
	<polygon points="20,4 19,4 18,4 18,3 17,3 17,4 17,5 18,5 18,6 19,6 20,6 20,5 21,5 21,4 21,3 20,3 	"/>
	<rect x="13" y="2" width="1" height="1"/>
	<polygon points="10,4 10,3 11,3 12,3 12,2 11,2 10,2 10,1 9,1 9,2 8,2 7,2 6,2 6,3 6,4 5,4 5,3 5,2 4,2 3,2 3,3 4,3 4,4 3,4 3,3 
		2,3 2,4 2,5 3,5 3,6 4,6 5,6 5,5 6,5 6,6 7,6 8,6 8,5 7,5 7,4 7,3 8,3 9,3 9,4 8,4 8,5 9,5 9,6 10,6 11,6 11,5 10,5 	"/>
	<polygon points="16,4 16,3 17,3 17,2 16,2 15,2 15,3 14,3 14,4 15,4 15,5 14,5 14,4 13,4 13,5 12,5 12,6 13,6 14,6 15,6 16,6 17,6 
		17,5 16,5 	"/>
	<polygon points="0,5 0,6 1,6 2,6 2,5 1,5 	"/>
</g>
<rect x="3" y="18.1" class="st0" width="1" height="1"/>
<rect x="6" y="18.1" class="st0" width="1" height="1"/>
<polygon class="st0" points="10,19.1 10,20.1 10,21.1 11,21.1 11,20.1 11,19.1 11,18.1 10,18.1 "/>
<polygon class="st0" points="8,18.1 8,19.1 8,20.1 8,21.1 9,21.1 9,20.1 9,19.1 9,18.1 9,17.1 8,17.1 "/>
<polygon class="st0" points="2,20.1 2,21.1 3,21.1 3,20.1 3,19.1 2,19.1 "/>
<polygon class="st0" points="5,20.1 5,21.1 6,21.1 7,21.1 7,20.1 6,20.1 6,19.1 5,19.1 "/>
<polygon class="st0" points="0,17.1 0,18.1 0,19.1 0,20.1 0,21.1 1,21.1 1,20.1 1,19.1 1,18.1 1,17.1 1,16.1 0,16.1 "/>
<polygon class="st0" points="12,19.1 12,20.1 12,21.1 13,21.1 13,20.1 13,19.1 13,18.1 12,18.1 "/>
<polygon class="st0" points="15,19.1 15,20.1 15,21.1 16,21.1 16,20.1 16,19.1 16,18.1 15,18.1 "/>
<rect x="18" y="18.1" class="st0" width="1" height="1"/>
<polygon class="st0" points="26,18.1 25,18.1 25,19.1 25,20.1 25,21.1 26,21.1 26,20.1 26,19.1 27,19.1 27,18.1 "/>
<polygon class="st0" points="31,17.1 31,18.1 31,19.1 31,20.1 31,21.1 32,21.1 32,20.1 32,19.1 32,18.1 32,17.1 32,16.1 31,16.1 "/>
<polygon class="st0" points="35,20.1 35,21.1 36,21.1 36,20.1 36,19.1 35,19.1 "/>
<rect x="23" y="18.1" class="st0" width="1" height="1"/>
<polygon class="st0" points="22,20.1 22,21.1 23,21.1 23,20.1 23,19.1 22,19.1 "/>
<polygon class="st0" points="27,20.1 27,21.1 28,21.1 28,20.1 28,19.1 27,19.1 "/>
<polygon class="st0" points="33,19.1 33,20.1 33,21.1 34,21.1 34,20.1 34,19.1 34,18.1 33,18.1 "/>
<polygon class="st0" points="40,20.1 40,21.1 41,21.1 41,20.1 41,19.1 40,19.1 "/>
<polygon class="st0" points="43,20.1 43,21.1 44,21.1 44,20.1 44,19.1 43,19.1 "/>
<polygon class="st0" points="45,20.1 45,21.1 46,21.1 46,20.1 46,19.1 45,19.1 "/>
<rect x="39" y="18.1" class="st0" width="1" height="1"/>
<rect x="42" y="18.1" class="st0" width="1" height="1"/>
<rect x="46" y="18.1" class="st0" width="1" height="1"/>
<rect x="56" y="18.1" class="st0" width="1" height="1"/>
<polygon class="st0" points="61,20.1 61,21.1 62,21.1 62,20.1 62,19.1 61,19.1 "/>
<polygon class="st0" points="59,20.1 59,21.1 60,21.1 60,20.1 60,19.1 59,19.1 "/>
<polygon class="st0" points="51,19.1 51,20.1 51,21.1 52,21.1 52,20.1 52,19.1 52,18.1 51,18.1 "/>
<rect x="54" y="16.1" class="st0" width="1" height="1"/>
<rect x="54" y="18.1" class="st0" width="1" height="1"/>
<polygon class="st0" points="57,20.1 57,21.1 58,21.1 58,20.1 58,19.1 57,19.1 "/>
<rect x="60" y="18.1" class="st0" width="1" height="1"/>
<polygon class="st0" points="67,19.1 67,20.1 67,21.1 68,21.1 68,20.1 68,19.1 68,18.1 67,18.1 "/>
<polygon class="st0" points="71,19.1 71,20.1 71,21.1 72,21.1 72,20.1 72,19.1 72,18.1 71,18.1 "/>
<polygon class="st0" points="75,20.1 75,21.1 76,21.1 76,20.1 76,19.1 75,19.1 "/>
<polygon class="st0" points="78,18.1 77,18.1 77,19.1 77,20.1 77,21.1 78,21.1 78,20.1 78,19.1 79,19.1 79,18.1 "/>
<rect x="74" y="18.1" class="st0" width="1" height="1"/>
<polygon class="st0" points="79,19.1 79,20.1 79,21.1 80,21.1 80,20.1 80,19.1 "/>
<polygon class="st0" points="69,18.1 69,19.1 69,20.1 69,21.1 70,21.1 70,20.1 70,19.1 70,18.1 70,17.1 69,17.1 "/>
<rect x="71" y="16.1" class="st0" width="1" height="1"/>
<polygon class="st0" points="63,17.1 63,18.1 63,19.1 63,20.1 63,21.1 64,21.1 64,20.1 64,19.1 64,18.1 64,17.1 64,16.1 63,16.1 "/>
<polygon class="st0" points="65,19.1 65,20.1 65,21.1 66,21.1 66,20.1 66,19.1 66,18.1 65,18.1 "/>
<polygon class="st0" points="73,20.1 73,21.1 74,21.1 74,20.1 74,19.1 73,19.1 "/>
<polygon class="st0" points="53,20.1 53,21.1 54,21.1 54,20.1 54,19.1 53,19.1 "/>
<rect x="50" y="17.1" class="st0" width="1" height="1"/>
<polygon class="st0" points="36,18.1 36,19.1 37,19.1 37,20.1 37,21.1 38,21.1 38,20.1 38,19.1 38,18.1 37,18.1 "/>
<rect x="14" y="17.1" class="st0" width="1" height="1"/>
<polygon class="st0" points="17,20.1 17,21.1 18,21.1 18,20.1 18,19.1 17,19.1 "/>
</svg>
