<?xml version="1.0" encoding="utf-8"?>
<!-- Generator: Adobe Illustrator 22.1.0, SVG Export Plug-In . SVG Version: 6.00 Build 0)  -->
<svg version="1.1" id="Layer_1" xmlns="http://www.w3.org/2000/svg" xmlns:xlink="http://www.w3.org/1999/xlink" x="0px" y="0px"
	 viewBox="0 0 379 1000" style="enable-background:new 0 0 379 1000;" xml:space="preserve">
<style type="text/css">
	.st0{opacity:0;}
	.st1{opacity:0.91;fill:#FFFFFF;}
</style>
<title>Asset 3</title>
<g id="aac1184e-7b3b-48d6-aa35-46e55030fd16">
	<g id="_x30_87422a9-24ff-4453-8849-1d24dc545f66">
		<g class="st0">
			<path d="M378,1v998H1V1H378 M379,0H0v1000h379V0z"/>
		</g>
		<path class="st1" d="M291,270c44,0,67-30,67-62c0-3-1-6-1-10c-56-4-80-23-80-60c0-41,29-73,84-102c-1-15-9-21-26-21
			c-64,0-134,72-134,150C201,225,226,270,291,270z M90,270c44,0,67-30,67-62c0-3-1-6-1-10c-56-4-80-23-80-60c0-41,29-73,84-102
			c-1-15-9-21-26-21C70,15,0,87,0,165C0,237,34,270,90,270z"/>
	</g>
</g>
</svg>
