<svg xmlns="http://www.w3.org/2000/svg" viewBox="0 0 404 1000"><defs><style>.b2818259-6d43-4c46-8c3f-69c4875cff59{opacity:0;}</style></defs><title>Asset 5</title><g id="3290d699-1293-4edb-bfda-95340477b219" data-name="Layer 2"><g id="2d8873c2-7461-453a-bf9e-bf8b6b373430" data-name="Layer 1"><g class="b2818259-6d43-4c46-8c3f-69c4875cff59"><path d="M403,1V999H1V1H403m1-1H0V1000H404V0Z"/></g><path d="M46,874c64,0,134-72,134-150,0-72-34-105-90-105-44,0-67,30-67,62,0,3,1,6,1,10,56,4,80,23,80,60,0,41-29,73-84,102C22,869,30,874,46,874Zm175-21c1,15,9,21,26,21,64,0,134-72,134-150,0-72-34-105-90-105-44,0-67,30-67,62,0,3,1,6,1,10,56,4,80,23,80,60C305,792,276,824,221,853Z"/></g></g></svg>