<svg xmlns="http://www.w3.org/2000/svg" viewBox="0 0 407 1000"><defs><style>.\39 16c8a88-533f-4e74-9de4-45e25be28bb7{opacity:0;}</style></defs><title>Asset 2</title><g id="ed134e07-4533-4d60-b2c7-45a6606e8bb2" data-name="Layer 2"><g id="19f412ce-6f4c-4d9c-9842-c907528bacd1" data-name="Layer 1"><g class="916c8a88-533f-4e74-9de4-45e25be28bb7"><path d="M406,1V999H1V1H406m1-1H0V1000H407V0Z"/></g><path d="M174,690c9,0,20-5,24-14L103,495l92-164c-5-9-13-14-25-14-23,0-39,19-170,185C126,676,142,690,174,690Zm209,0c9,0,20-5,24-14L312,495l92-164c-5-9-13-14-25-14-23,0-39,19-170,185C335,676,351,690,383,690Z"/></g></g></svg>