<svg xmlns="http://www.w3.org/2000/svg" viewBox="0 0 408 1000"><defs><style>.\39 816284f-6170-4ac1-adcd-7ea5f6d8cc53{opacity:0;}</style></defs><title>Asset 1</title><g id="a67efb43-5389-430d-a920-d4a93f6a7841" data-name="Layer 2"><g id="e08c36ec-8f5f-47b7-9824-b59fac1a4395" data-name="Layer 1"><g class="9816284f-6170-4ac1-adcd-7ea5f6d8cc53"><path d="M407,1V999H1V1H407m1-1H0V1000H408V0Z"/></g><path d="M0,331,95,512,3,676c5,9,13,14,25,14,23,0,39-19,170-185C72,331,56,317,24,317,15,317,4,322,0,331ZM305,512,213,676c5,9,13,14,25,14,23,0,39-19,170-185C282,331,266,317,234,317c-9,0-20,5-24,14Z"/></g></g></svg>