<svg xmlns="http://www.w3.org/2000/svg" viewBox="0 0 379 1000"><defs><style>.d74cb2d0-2400-467a-8517-fd2dc90734df{opacity:0;}</style></defs><title>Asset 3</title><g id="aac1184e-7b3b-48d6-aa35-46e55030fd16" data-name="Layer 2"><g id="087422a9-24ff-4453-8849-1d24dc545f66" data-name="Layer 1"><g class="d74cb2d0-2400-467a-8517-fd2dc90734df"><path d="M378,1V999H1V1H378m1-1H0V1000H379V0Z"/></g><path d="M291,270c44,0,67-30,67-62,0-3-1-6-1-10-56-4-80-23-80-60,0-41,29-73,84-102-1-15-9-21-26-21-64,0-134,72-134,150C201,225,226,270,291,270ZM90,270c44,0,67-30,67-62,0-3-1-6-1-10-56-4-80-23-80-60,0-41,29-73,84-102-1-15-9-21-26-21C70,15,0,87,0,165,0,237,34,270,90,270Z"/></g></g></svg>