<svg xmlns="http://www.w3.org/2000/svg" viewBox="0 0 404 1000"><defs><style>.dbb35cf1-b1c5-473f-aafb-06cd7c3501cc{opacity:0;}</style></defs><title>Asset 4</title><g id="f6dc5c9c-cf7c-46d6-ba91-bafb8c9a21c5" data-name="Layer 2"><g id="4288e1de-2776-4084-9c45-907f3c291ff9" data-name="Layer 1"><g class="dbb35cf1-b1c5-473f-aafb-06cd7c3501cc"><path d="M403,1V999H1V1H403m1-1H0V1000H404V0Z"/></g><path d="M46,265c64,0,134-72,134-150,0-72-34-105-90-105C46,10,23,40,23,72c0,3,1,6,1,10,56,4,80,23,80,60,0,41-29,73-84,102C22,260,30,265,46,265Zm175-21c1,15,9,21,26,21,64,0,134-72,134-150,0-72-34-105-90-105-44,0-67,30-67,62,0,3,1,6,1,10,56,4,80,23,80,60C305,183,276,215,221,244Z"/></g></g></svg>