<?xml version="1.0" encoding="utf-8"?>
<!-- Generator: Adobe Illustrator 26.4.1, SVG Export Plug-In . SVG Version: 6.00 Build 0)  -->
<svg version="1.1" id="Layer_1" xmlns="http://www.w3.org/2000/svg" xmlns:xlink="http://www.w3.org/1999/xlink" x="0px" y="0px"
	 viewBox="0 0 404 1000" style="enable-background:new 0 0 404 1000;" xml:space="preserve">
<g id="f6dc5c9c-cf7c-46d6-ba91-bafb8c9a21c5">
	<g id="_x34_288e1de-2776-4084-9c45-907f3c291ff9">
		<path d="M26,265c64,0,134-72,134-150c0-72-34-105-90-105C26,10,3,40,3,72c0,3,1,6,1,10c56,4,80,23,80,60c0,41-29,73-84,102
			C2,260,10,265,26,265z M201,244c1,15,9,21,26,21c64,0,134-72,134-150c0-72-34-105-90-105c-44,0-67,30-67,62c0,3,1,6,1,10
			c56,4,80,23,80,60C285,183,256,215,201,244z"/>
	</g>
</g>
</svg>
