<?xml version="1.0" encoding="utf-8"?>
<!-- Generator: Adobe Illustrator 22.1.0, SVG Export Plug-In . SVG Version: 6.00 Build 0)  -->
<svg version="1.1" id="Layer_1" xmlns="http://www.w3.org/2000/svg" xmlns:xlink="http://www.w3.org/1999/xlink" x="0px" y="0px"
	 viewBox="0 0 80 105" style="enable-background:new 0 0 80 105;" xml:space="preserve">
<style type="text/css">
	.st0{opacity:0.9;}
</style>
<g class="st0">
	<path d="M0.9,28.5c0-1.1,0.5-2.1,1.4-3c1-0.9,2.8-1.3,5.5-1.3h23.6c0.1,0.3,0.1,0.7,0.1,1.2c0,1.1-0.4,2.1-1.1,2.9
		c-0.8,0.8-2.1,1.3-3.9,1.4L20,30.3v40.3c0,3.8,0.3,7.3,1,10.4s1.9,5.8,3.5,8c1.7,2.2,3.9,3.9,6.7,5.1C34,95.4,37.5,96,41.6,96
		c6,0,10.7-1.8,14.2-5.3C59.3,87.1,61,81.2,61,73V30.3l-10.7-1.1c0-0.2,0-0.3-0.1-0.4c0-0.1-0.1-0.2-0.1-0.4c0-1.1,0.5-2.1,1.4-3
		c1-0.9,2.8-1.3,5.5-1.3h21.6c0.1,0.3,0.1,0.7,0.1,1.2c0,1.1-0.4,2.1-1.1,2.9c-0.8,0.8-2.1,1.3-3.9,1.4L70.3,30v36.1
		c0,13.8-2.8,23.6-8.5,29.3c-5.8,5.8-13.6,8.6-23.6,8.6c-9.8,0-17.1-2.3-22-6.8c-4.9-4.6-7.3-11.8-7.3-21.7V30.1l-8-0.8
		c0-0.2,0-0.3-0.1-0.4C1,28.8,0.9,28.7,0.9,28.5z M21.6,7.8c0-2.2,0.6-3.9,1.7-5.2C24.5,1.3,26,0.7,28,0.7c1.8,0,3.3,0.5,4.4,1.6
		c1.1,1.1,1.7,2.6,1.7,4.6c0,2.4-0.6,4.2-1.8,5.5s-2.8,1.9-4.8,1.9s-3.5-0.6-4.4-1.8C22.1,11.4,21.6,9.8,21.6,7.8z M55.5,0.7
		c1.8,0,3.2,0.5,4.3,1.6s1.7,2.6,1.7,4.6c0,2.4-0.6,4.2-1.8,5.5s-2.8,1.9-4.8,1.9c-1.9,0-3.4-0.6-4.4-1.8s-1.6-2.8-1.6-4.8
		c0-2.2,0.6-3.9,1.7-5.2C51.8,1.3,53.5,0.7,55.5,0.7z"/>
</g>
</svg>
