<?xml version="1.0" encoding="utf-8"?>
<!-- Generator: Adobe Illustrator 22.1.0, SVG Export Plug-In . SVG Version: 6.00 Build 0)  -->
<svg version="1.1" xmlns="http://www.w3.org/2000/svg" xmlns:xlink="http://www.w3.org/1999/xlink" x="0px" y="0px"
	 viewBox="0 0 1242 2847" style="enable-background:new 0 0 1242 2847;" xml:space="preserve">
<style type="text/css">
	.st0{display:none;}
	.st1{fill:#333333;}
</style>
<g id="Layer_1" class="st0">
</g>
<g id="Layer_2">
	<g>
		<path class="st1" d="M389.3,832.3c0,76,74.4,104.8,227.2,104.8c160,0,243.2-36.8,243.2-144c0-52-18.4-78.4-43.2-96
			c-26.4-19.2-52.8-31.2-179.2-31.2c-107.2,0-136.8-12-136.8-36c0-10.4,11.2-22.4,25.6-26.4c18.4,4.8,52.8,11.2,88,11.2
			c110.4,0,190.4-54.4,190.4-147.2c0-5.6-1.6-16.8-1.6-28.8c0-11.2,14.4-29.6,36-29.6c12.8,0,20.8,3.2,25.6,8.8l20-100.8
			c-11.2-6.4-24-6.4-36.8-6.4c-22.4,0-56.8,14.4-74.4,57.6c-39.2-42.4-91.2-64-157.6-64c-112,0-188.8,58.4-188.8,159.2
			c0,50.4,21.6,88.8,52.8,112c-46.4,15.2-84.8,46.4-84.8,87.2c0,48,26.4,77.6,75.2,90.4C428.5,767.5,389.3,788.3,389.3,832.3z
			 M526.1,767.5c23.2,2.4,39.2,2.4,84.8,4c51.2,1.6,105.6-3.2,122.4,14.4c5.6,6.4,5.6,16.8,5.6,20c0,28.8-44.8,40.8-118.4,40.8
			c-86.4,0-117.6-15.2-117.6-44.8C502.9,782.7,513.3,773.1,526.1,767.5z M617.3,395.5c49.6,0,75.2,25.6,75.2,67.2
			c0,40.8-27.2,63.2-76,63.2c-48,0-77.6-21.6-77.6-62.4C538.9,421.9,566.1,395.5,617.3,395.5z"/>
		<path class="st1" d="M394.5,1222.2c37.2,0,59.4-26.4,60-33l-1.5,28.5h46.5v-163.5H453v84.3c0,23.1-12.6,43.8-33.3,43.8
			c-17.1,0-29.7-10.5-29.7-31.2v-96.9h-45.9v105C344.1,1188.9,352.2,1222.2,394.5,1222.2z"/>
		<polygon class="st1" points="829.7,1165.5 795.8,1054.2 746,1054.2 803.9,1218 854.3,1218 911.9,1054.2 866.9,1054.2 		"/>
		<path class="st1" d="M354.7,1434.5c4.9,9.6,15.6,17.1,32.1,17.1c27,0,42.2-21.4,42.2-54.6c0-33.8-18.3-53.1-42.9-53.1
			c-16.4,0-25.2,8.5-30.8,17.1v-63h-28.9l0,150.9h28.9L354.7,1434.5z M377.6,1367.6c15,0,22.5,11,22.5,29.4
			c0,19.9-6.3,30.4-21.9,30.4c-15.2,0-24-9.8-24-30.5C354.2,1379.6,363.9,1367.6,377.6,1367.6z"/>
		<path class="st1" d="M632.7,1296.7c-21,0-31.5,12.5-31.5,34.1v15.8h-17.4v23.6l17.4,0v78.8h28.9v-78.8h21.8v-23.6h-21.8v-14.4
			c0-6.6,4.1-10.5,9.9-10.5c4.2,0,8.5,1.1,11.1,3.9h0.8l5.6-21.2C652.2,1300.6,643.4,1296.7,632.7,1296.7z"/>
		<circle class="st1" cx="874.9" cy="1312.5" r="15.8"/>
		<rect x="860.4" y="1346.6" class="st1" width="28.9" height="102.4"/>
		<path class="st1" d="M588.1,1648.6h23.4v-52.5c0-14.6-5.3-31.5-26.4-31.5c-18,0-27.2,12.5-28,16.3c-3-8.9-9.5-16.3-23.2-16.3
			c-18.8,0-27.8,13.3-27.9,16.8l0.4-14.6h-22.9v81.7l23,0.1v-41.8c0-11.9,4.5-22.2,14.8-22.2c8.4,0,14.7,5.2,14.7,15.9v48.1h22.9
			v-41.8c0-11.9,4-22.2,14.8-22.2c8.1,0,14.9,5.2,14.4,15.9V1648.6z"/>
		<polygon class="st1" points="458.7,1730.5 458.7,1806 473,1806 473,1792.3 479.8,1785.1 492.9,1806 508.7,1806 489,1775.2 
			508,1754.8 491.3,1754.8 473,1774.7 473,1730.5 		"/>
		<path class="st1" d="M551.7,1912.1v40.8h11.5V1932c0-5.9,1.9-9.4,7.6-9.4c1.7,0,2.8,0.6,3.4,1l4.8-10.4c-2.2-1.7-3.7-2.2-6.3-2.2
			c-5.7,0-9.6,6.7-9.7,8.4l0.2-7.3H551.7z"/>
		<path class="st1" d="M419.4,2067.6c0-6.1-2.9-9.8-6.7-10.8c3-1,4.8-3.5,4.8-6.8c0-6.2-4.7-9.1-11.4-9.1c-6.5,0-12,2.6-12,10.4
			l0.1,27.7h7.2v-28.4c0-2.8,1.7-4.4,4.7-4.4c2.9,0,4.3,1.6,4.3,4.1c0,1.8-1.8,4.4-5.6,4.4v5.2c4.9-0.1,7.2,2,7.2,7.2
			c0,4.9-1.9,6.7-4.8,6.7c-1.1,0-1.8-0.4-2.5-0.7h-0.1l-0.3,5.5c1.1,0.4,2.7,1,4.5,1C415.7,2079.6,419.4,2075.4,419.4,2067.6z"/>
		<path class="st1" d="M509.9,2043.8h-0.1c-2,2.4-4.6,4.5-7,5.9v3.7h-4.4l0,5.8h4.4v13.2c0,5.4,3.7,7.2,7,7.2c3.2,0,4.1-0.5,4.9-0.8
			l0.3-6.2h-0.1c-0.6,0.5-1.6,0.7-2.3,0.7c-1.2,0-2.6-0.3-2.6-2.2v-11.8h5.3v-5.9h-5.4V2043.8z"/>
		<rect x="608.4" y="2041.2" class="st1" width="7.2" height="37.7"/>
		<path class="st1" d="M831.7,2074.4l-0.2,4.5h7.3v-25.5h-7.3v13.2c0,3.6-1.3,6.8-4.5,6.8c-2.6,0-4.7-1.7-4.6-4.9v-15.1h-7.2v13.2
			c0,3.6-1.4,6.8-4.6,6.8c-2.6,0-4.6-1.7-4.6-4.9v-15.1h-7.2v16.4c0,4.6,1.7,9.8,8.1,9.8c5.7,0,8.6-3.9,8.8-5.1
			c0.9,2.9,3,5.1,7.3,5.1C828.8,2079.6,831.6,2075.4,831.7,2074.4z"/>
		<path class="st1" d="M702.8,2053.3l-0.1,36.2h7.2v-14.2c1.4,2.2,3.6,3.9,7.8,3.9c6.2,0,10.7-4.5,10.7-12.8
			c0-8.4-3.7-13.7-10.5-13.7c-4.1,0-6.7,1.9-8,4.2l0.1-3.6H702.8z M715.8,2058.7c3.8,0,5.4,2.5,5.4,7.5c0,4.7-1.8,6.8-5.5,6.8
			c-3.5,0-6-2.3-5.9-6.7C709.8,2061.1,712,2058.7,715.8,2058.7z"/>
		<polygon class="st1" points="927.8,2053.4 923,2059.8 918.3,2053.4 909.7,2053.4 918.8,2065.7 909,2079 917.1,2079 922.7,2071.2 
			928.4,2079 936.6,2079 926.8,2065.4 935.6,2053.4 		"/>
		<path class="st1" d="M315.9,2070c-1,2.8-3,3.8-6,3.8c-3.5,0-5.5-2.1-6-6h18.2c0.5-11.2-5.9-15.1-12.5-15.1
			c-7.6,0-12.8,5.1-12.8,13.5c0,8.7,5.5,13.4,13,13.4c6.5,0,10.4-2.9,12.2-7.6L315.9,2070z M309.6,2058.5c3.3,0,4.9,1.7,5.3,4.6H304
			C304.6,2060,306.5,2058.4,309.6,2058.5z"/>
		<path class="st1" d="M406.2,2184v-13.1c0-3.7-1.1-7.9-6.3-7.9c-4.7,0-7.5,3.3-7.5,4.2l0.1-3.5h-5.6v20.4h5.7v-10.5
			c0-3,1.5-5.6,4.2-5.6c2,0,3.7,1.3,3.6,4v12H406.2z"/>
		<polygon class="st1" points="392.5,2163.6 392.5,2163.7 392.5,2163.7 		"/>
		<path class="st1" d="M315.4,2178.2v-8.4c0-5.2-4.1-6.8-8.6-6.8c-4.4,0-7.9,1.4-10.1,4.7l3.8,3c1.2-2,2.8-3,5.7-3
			c2.5,0,3.5,0.6,3.5,3.4c-8.2,0.5-13.5,2.1-13.5,7.7c0,4,3.2,5.7,6.8,5.7c3.4,0,5.5-1.2,6.8-3.1c0.6,2,2.5,2.8,4.7,2.8
			c0.6,0,1.3,0.1,2.5-0.3c0,0,0.6-3,0.9-4.1c-0.3,0.1-0.7,0.2-1,0.2C315.9,2180,315.3,2179.5,315.4,2178.2z M304.4,2180.2
			c-1.5,0-2.5-0.7-2.5-2c0-2.1,3.1-2.9,7.9-3.1C309.8,2178.5,307.1,2180.2,304.4,2180.2z"/>
		<path class="st1" d="M486,2179.9c-3.1,0-4.6-2.4-4.6-6.3s1.7-5.8,4.6-5.8c2.4,0,3.6,1.4,4.4,3.6l4.8-2.4c-1.5-3.9-4.5-6-9.2-6
			c-6,0-10.4,4.2-10.4,10.8c0,4.7,2.3,9,7.1,10.4l-1.8,2.6l2.3,1.4c0.9-0.6,1.7-0.6,2.3-0.4c0.9,0.2,1.3,0.7,1.3,1.4
			c0,0.9-0.7,1.3-1.7,1.3c-1.5,0-2.2-1-2.5-1.5l-1.9,1.9c1,1.5,2.4,2.1,4.5,2.1c2.8,0,4.9-1.3,4.9-3.7c0-2.3-1.9-3.7-4.1-3.7
			c-0.6,0-1.2,0.2-1.6,0.4l1.2-1.4h0.3c5,0,7.8-2.2,9.4-5.9l-4.8-2.5C489.8,2178.6,488.4,2179.9,486,2179.9z"/>
		<path class="st1" d="M575.4,2184.5c6.1,0,10.4-4,10.4-10.8c0-6.6-4.4-10.7-10.4-10.7s-10.4,4.1-10.4,10.7
			C565,2180.4,569.3,2184.5,575.4,2184.5z M575.4,2167.6c3.2,0,4.7,2.3,4.7,6.1c0,3.7-1.4,6.3-4.7,6.3c-3.2,0-4.6-2.6-4.7-6.3
			C570.7,2169.9,572.2,2167.6,575.4,2167.6z"/>
		<polygon class="st1" points="667.8,2163.5 663.2,2177.4 658.9,2163.5 652.7,2163.5 660,2184 666.3,2184 673.5,2163.5 		"/>
		<path class="st1" d="M755.5,2177.8c0-5.2-4.5-6.3-8.9-6.7c-3.3-0.3-4.3-0.7-4.3-1.9c0-0.8,1-1.6,3.7-1.6c2.9,0,4.7,0.9,5.9,2.3
			l3.3-3.6c-1.7-1.9-4.7-3.2-9.1-3.2c-4.8,0-8.8,1.8-8.8,6.4c0,4.9,3.3,6.1,7.9,6.7c3.7,0.4,4.8,0.5,4.8,1.9c0,1.2-1.2,1.8-3.6,1.8
			c-3.5,0-5.2-1.2-6.6-3l-3.8,3.2c2,2.9,5.4,4.5,10.4,4.5C752.4,2184.6,755.5,2182.2,755.5,2177.8z"/>
		<path class="st1" d="M834.4,2163c-6,0-10.2,4.1-10.3,10.9c0,6.9,4.4,10.7,10.4,10.7c5.3,0,8.4-2.3,9.8-6.1l-4.9-1.6
			c-0.8,2.2-2.4,3-4.8,3c-2.8,0-4.4-1.7-4.8-4.8h14.6C844.8,2166.2,839.7,2163,834.4,2163z M829.9,2171.3c0.5-2.5,2.1-3.7,4.5-3.7
			c2.6,0,3.9,1.4,4.2,3.7H829.9z"/>
		<path class="st1" d="M935.3,2183.9v-20.4h-5.8v10.5c0,2.9-1.6,5.5-4.2,5.5c-2.1,0-3.7-1.3-3.7-3.9v-12.1h-5.7l0,13
			c0,3.7,1,7.9,6.3,7.9c4.6,0,7.4-3.3,7.5-4.1l-0.2,3.6H935.3z"/>
		<path class="st1" d="M313.2,1960.3c-2,0-3.7-0.5-4.8-1.3H308l-1.3,9.8c1.8,1.4,4.8,1.9,7.9,1.9c3.7,0,6.9-0.7,9.3-2.6
			c2.8-2.1,5.4-6.3,7.6-12.2l15.7-43.9h-11.7l-9.1,27.1l-9.1-27.1h-13l16.2,42.2C319.3,1957.8,316.6,1960.3,313.2,1960.3z"/>
		<path class="st1" d="M442.6,1911c-12,0-20.7,8.1-20.8,21.4c0,13.5,8.6,21.7,20.8,21.7c12.3,0,20.8-8.2,20.8-21.7
			C463.4,1919.2,454.7,1911,442.6,1911z M442.6,1944.9c-6.4,0-9.2-5.2-9.3-12.6c0-7.7,3-12.3,9.3-12.3s9.3,4.7,9.3,12.3
			C451.9,1939.7,449.1,1944.9,442.6,1944.9z"/>
		<path class="st1" d="M675.9,1958.2v-46.3h-11.5v44.3c0,3-1.7,4.1-3.8,4.1c-1.7,0-2.1-0.3-3.7-1.1h-0.2l-0.5,9.4
			c1.9,0.9,4.3,1.7,8,1.7C671.2,1970.3,675.9,1965.8,675.9,1958.2z"/>
		<circle class="st1" cx="670.1" cy="1898.4" r="6.3"/>
		<path class="st1" d="M787.6,1921.1c4.2,0,7.5,2.7,7.4,7.9v24.1h11.6v-26.2c0-7.3-2.1-15.7-12.6-15.7c-9.5,0-14.7,6.8-14.7,8.4
			v-26.8l0-0.1h-11.6v60.4h11.5v-21C779.2,1926.3,782.4,1921.1,787.6,1921.1z"/>
		<path class="st1" d="M916.8,1947.2v22.6h11.5v-57.9h-11.5l0.2,5.8c-1.9-3.7-6.1-6.7-12.8-6.7c-10.9,0-16.9,8.5-16.9,22
			c0,13.3,7.2,20.5,17.1,20.5C911.1,1953.5,914.6,1950.7,916.8,1947.2z M898.8,1932.6c0-7.9,2.6-12,8.7-12c6.1,0,9.6,3.9,9.6,12.2
			c0,6.8-3.9,10.6-9.2,10.6C901.8,1943.4,898.8,1940,898.8,1932.6z"/>
		<path class="st1" d="M334.3,1765.3c5.8,0,9,3.5,10.9,9.1l11.9-5.9c-3.6-9.8-11.3-15-22.9-15c-15.1,0-26,10.4-26,26.9
			c0,14.2,8.4,26.9,26,26.8c12.4,0,19.6-5.5,23.5-14.7l-12.1-6.2c-1.8,5.9-5.2,9.3-11.2,9.3c-7.7,0-11.5-6-11.5-15.8
			S327.1,1765.3,334.3,1765.3z"/>
		<polygon class="st1" points="643.1,1794.3 616.9,1794.3 642.9,1765 642.9,1754.8 600.7,1754.8 600.7,1766.4 624.8,1766.4 
			599.1,1795.1 599.1,1806 643.1,1806 		"/>
		<path class="st1" d="M784.8,1806v-75.5h-14.4v31.5c-2.8-4.3-7.3-8.5-15.5-8.5c-12.3,0-21.4,9.6-21.4,26.5
			c0,16.6,7.5,27.3,21.2,27.3c8.2,0,13.6-3.7,15.9-8.5l-0.2,7.2H784.8z M758.8,1795.1c-7.8,0-11-5.2-10.9-15.1
			c0-9.3,3.8-14.7,11.3-14.7c6.8,0,11.7,6,11.7,14.6C770.9,1790.3,766.5,1795.1,758.8,1795.1z"/>
		<path class="st1" d="M925.9,1806v-32.8c0-9.1-2.9-19.7-15.8-19.7c-11.8,0-18.7,8.3-18.8,10.5l0.3-9.1l-14.2,0.1v51.1h14.3v-26.2
			c0-7.4,3.9-13.9,10.6-13.9c5.2,0,9.3,3.2,9.1,9.9v30.1H925.9z"/>
		<path class="st1" d="M387.1,1649.3c2.5,0,5.2,0.3,10-1.2c0,0,2.6-12.1,3.6-16.3c-1.5,0.3-2.9,0.6-4.2,0.6c-4,0-6.4-2.1-6.1-7.2
			v-33.7c0-20.8-16.6-27.1-34.5-27.1c-17.9,0-31.5,5.3-40.5,18.6l15.3,11.8c4.8-7.7,11.5-11.8,22.9-11.8c10,0,14.1,2.6,14.1,13.7
			c-33,2.3-54.1,8.6-54.1,30.9c0,16.2,12.6,23,27.9,22.8c13.4,0,21.9-4.8,27-12.3C370.8,1646.3,378.1,1649.3,387.1,1649.3z
			 M346.2,1633.2c-6,0-10-2.7-10-7.8c0-8.5,12.6-11.8,31.4-12.6C367.6,1626.5,356.8,1633.2,346.2,1633.2z"/>
		<path class="st1" d="M776.3,1623.6c0-20.7-18.3-25.2-35.7-26.7c-13.1-1.5-17.1-3-17.1-7.8c0-3.6,4-6.6,14.8-6.6
			c11.6,0,18.6,3.7,23.4,9.3l13-14.6c-6.7-7.4-19-12.6-36.4-12.6c-19.2,0-35.2,7.3-35.2,25.6c0,19.6,13.1,24.1,31.5,26.7
			c14.5,1.8,19,2.3,19,7.8c0,5.2-4.9,7.4-14.5,7.4c-14.1,0-20.7-4.8-26.4-11.9l-14.3,12.4c8.1,11.8,21.4,18.1,41.5,18.1
			C764,1650.7,776.3,1641.1,776.3,1623.6z"/>
		<path class="st1" d="M897.6,1581.4l0.4-14.6h-23v81.8h22.9v-41.8c0-11.9,3.8-18.9,15.2-18.9c3.3,0,5.6,1.1,6.8,1.9l9.6-20.7
			c-4.5-3.4-7.5-4.5-12.6-4.5C905.5,1564.6,897.7,1578,897.6,1581.4z"/>
		<polygon class="st1" points="168,1946.5 189.5,1932.9 168,1919.3 		"/>
		<polygon class="st1" points="1052.4,1933.2 1074,1946.8 1074,1919.6 		"/>
		<path class="st1" d="M592.4,241.2h-6.6l3.1-2.6c1.6-1.3,2-1.8,2.3-2.5c0.2-0.4,0.3-0.9,0.3-1.5c0-2.1-1.5-3.5-3.8-3.5
			c-1.2,0-2.2,0.4-3,1c-0.5,0.5-0.6,0.6-1.7,1.8l1.2,0.9c1.1-1.1,1.2-1.3,1.7-1.6c0.4-0.2,1-0.4,1.6-0.4c1.2,0,2.1,0.8,2.1,2
			c0,0.8-0.4,1.6-1.2,2.3l-5.6,4.8v0.9l9.6-0.1V241.2z"/>
		<path class="st1" d="M601.3,243.2c3.3,0,5.9-2.7,6-6c0-3.4-2.7-6.1-6-6.1s-6,2.7-6,6.1C595.3,240.5,598,243.2,601.3,243.2z
			 M601.3,232.6c2.3,0,4.1,2,4.2,4.6c0,2.5-1.9,4.6-4.2,4.6s-4.2-2.1-4.2-4.6C597.1,234.6,599,232.6,601.3,232.6z"/>
		<polygon class="st1" points="617.3,226.9 615.6,226.9 609.6,248.6 611.3,248.6 		"/>
		<path class="st1" d="M626.7,247.8h1.7v-5v-0.1h2.7v-1.5h-2.8v-10.1h-0.8l-8.4,11.2v0.5h7.6V247.8z M622.4,241.3l-0.6,0.1l0.5-0.5
			l4.1-5.5l0.3-0.7v0.7v5.9H622.4z"/>
		<path class="st1" d="M639.2,243.2c3.3,0,5.9-2.7,6-6c0-3.4-2.7-6.1-6-6.1s-6,2.7-6,6.1C633.2,240.5,635.9,243.2,639.2,243.2z
			 M639.2,232.6c2.3,0,4.1,2,4.2,4.6c0,2.5-1.9,4.6-4.2,4.6s-4.2-2.1-4.2-4.6C635,234.6,636.9,232.6,639.2,232.6z"/>
		<path class="st1" d="M653.5,243.2c3.3,0,5.9-2.7,6-6c0-3.4-2.7-6.1-6-6.1s-6,2.7-6,6.1C647.5,240.5,650.2,243.2,653.5,243.2z
			 M653.5,232.6c2.3,0,4.1,2,4.2,4.6c0,2.5-1.9,4.6-4.2,4.6s-4.2-2.1-4.2-4.6C649.3,234.6,651.2,232.6,653.5,232.6z"/>
		<path class="st1" d="M584.5,1018.9v0.9l0-0.1h9.6v-1.5h-6.6l3.1-2.6c1.6-1.3,2-1.8,2.3-2.5c0.2-0.4,0.3-0.9,0.3-1.5
			c0-2.1-1.5-3.5-3.8-3.5c-1.2,0-2.2,0.4-3,1c-0.5,0.5-0.6,0.6-1.7,1.8l1.2,0.9c1.1-1.1,1.2-1.3,1.7-1.6c0.4-0.2,1-0.4,1.6-0.4
			c1.2,0,2.1,0.8,2.1,2c0,0.8-0.4,1.6-1.2,2.3L584.5,1018.9z"/>
		<path class="st1" d="M602.9,1008.1c-3.3,0-6,2.7-6,6.1c0,3.3,2.7,6,6,6s6-2.7,6-6C608.9,1010.8,606.2,1008.1,602.9,1008.1z
			 M602.9,1018.8c-2.3,0-4.2-2.1-4.2-4.6c0-2.6,1.9-4.6,4.2-4.6s4.2,2,4.2,4.6C607.1,1016.7,605.2,1018.8,602.9,1018.8z"/>
		<polygon class="st1" points="611.2,1025.6 612.9,1025.6 618.9,1003.9 617.3,1003.9 		"/>
		<polygon class="st1" points="626.5,1019.8 626.5,1008.3 622,1008.3 622,1009.8 624.7,1009.8 624.7,1019.8 		"/>
		<path class="st1" d="M637.6,1008.1c-3.3,0-6,2.7-6,6.1c0,3.3,2.7,6,6,6c3.2,0,5.9-2.7,6-6C643.6,1010.8,640.9,1008.1,637.6,1008.1
			z M637.6,1018.8c-2.3,0-4.2-2.1-4.2-4.6c0-2.6,1.9-4.6,4.2-4.6c2.2,0,4.1,2,4.2,4.6C641.8,1016.7,639.9,1018.8,637.6,1018.8z"/>
		<path class="st1" d="M651.8,1020.2c3.3,0,6-2.7,6-6c0-3.4-2.7-6.1-6-6.1s-6,2.7-6,6.1C645.8,1017.5,648.5,1020.2,651.8,1020.2z
			 M651.8,1009.6c2.3,0,4.2,2,4.2,4.6c0,2.5-1.9,4.6-4.2,4.6s-4.2-2.1-4.2-4.6C647.6,1011.6,649.5,1009.6,651.8,1009.6z"/>
		<path class="st1" d="M592.2,1250.6c-0.5,0.5-0.6,0.6-1.7,1.8l1.2,0.9c1.1-1.1,1.2-1.3,1.7-1.6c0.4-0.2,1-0.4,1.6-0.4
			c1.2,0,2.1,0.8,2.1,2c0,0.8-0.4,1.6-1.2,2.3l-5.6,4.8v0.9l0-0.1h9.6v-1.5h-6.6l3.1-2.6c1.6-1.3,2-1.8,2.3-2.5
			c0.2-0.4,0.3-0.9,0.3-1.5c0-2.1-1.5-3.5-3.8-3.5C594,1249.6,593,1250,592.2,1250.6z"/>
		<path class="st1" d="M602.7,1255.7c0,3.3,2.7,6,6,6s6-2.7,6-6c0-3.4-2.7-6.1-6-6.1S602.7,1252.3,602.7,1255.7z M612.9,1255.7
			c0,2.5-1.9,4.6-4.2,4.6s-4.2-2.1-4.2-4.6c0-2.6,1.9-4.6,4.2-4.6S612.9,1253.1,612.9,1255.7z"/>
		<polygon class="st1" points="618.7,1267.1 624.8,1245.4 623.1,1245.4 617.1,1267.1 		"/>
		<path class="st1" d="M627.9,1256c-0.3,0.5-0.4,1.1-0.4,1.7c0,2.3,1.9,3.9,4.8,3.9c3,0,5.1-1.6,5.1-3.9c0-1.2-0.2-1.8-1-2.7
			c-0.3-0.3-0.6-0.6-0.8-0.8l-2-1.7l1.7-1.3c1-0.9,1.5-1.8,1.5-2.9c0-2-1.7-3.3-4.2-3.3c-2.7,0-4.5,1.5-4.5,3.7
			c0,1.1,0.4,1.6,1.6,2.7l1.6,1.3l-1.7,1.3C629,1254.4,628.2,1255.4,627.9,1256z M631.2,1250.5c-0.8-0.6-1.2-1.3-1.2-2
			c0-1.2,1-2.1,2.4-2.1c1.5,0,2.5,0.7,2.5,1.9c0,0.8-0.4,1.6-1.1,2.2l-1.3,1.1L631.2,1250.5z M630.9,1254.7l1.5-1.2l1.5,1.4
			c1.2,1,1.6,1.7,1.6,2.5c0,1.5-1.2,2.5-3.2,2.5c-1.9,0-3-0.9-3-2.5C629.3,1256.4,629.8,1255.5,630.9,1254.7z"/>
		<path class="st1" d="M640,1255.7c0,3.3,2.7,6,6,6s6-2.7,6-6c0-3.4-2.7-6.1-6-6.1S640,1252.3,640,1255.7z M646,1251.1
			c2.3,0,4.2,2,4.2,4.6c0,2.5-1.9,4.6-4.2,4.6s-4.2-2.1-4.2-4.6C641.8,1253.1,643.7,1251.1,646,1251.1z"/>
		<path class="st1" d="M591.4,1512.4v0.9l0-0.1h9.6v-1.5h-6.6l3.1-2.6c1.6-1.3,2-1.8,2.3-2.5c0.2-0.4,0.3-0.9,0.3-1.5
			c0-2.1-1.5-3.5-3.8-3.5c-1.2,0-2.2,0.4-3,1c-0.5,0.5-0.6,0.6-1.7,1.8l1.2,0.9c1.1-1.1,1.2-1.3,1.7-1.6c0.4-0.2,1-0.4,1.6-0.4
			c1.2,0,2.1,0.8,2.1,2c0,0.8-0.4,1.6-1.2,2.3L591.4,1512.4z"/>
		<path class="st1" d="M609.9,1501.6c-3.3,0-6,2.7-6,6.1c0,3.3,2.7,6,6,6s5.9-2.7,6-6C615.9,1504.3,613.2,1501.6,609.9,1501.6z
			 M609.9,1512.3c-2.3,0-4.2-2.1-4.2-4.6c0-2.6,1.9-4.6,4.2-4.6s4.1,2,4.2,4.6C614.1,1510.2,612.2,1512.3,609.9,1512.3z"/>
		<polygon class="st1" points="624.3,1497.4 618.2,1519.1 619.9,1519.1 625.9,1497.4 		"/>
		<path class="st1" d="M635.3,1498.9c0.4-0.1,1.2-0.2,1.9-0.2c0.5,0,0.7,0,1.3,0.1v-1.5c-0.8-0.1-1.1-0.1-1.6-0.1
			c-2.4,0-4,0.8-5.4,2.5c-1.5,1.9-2.3,4.4-2.3,7.2c0,4.3,2,6.9,5.1,6.9c2.8,0,4.9-2.4,5-5.7c0-2.6-1.7-4.4-4.1-4.4
			c-0.8,0-1.7,0.2-2.7,0.6c-0.3,0.1-0.5,0.2-1.4,0.6c0.4-2.1,0.8-3,1.8-4.2C633.6,1499.8,634.5,1499.2,635.3,1498.9z M633.3,1505.5
			c0.5-0.1,1.1-0.2,1.4-0.2c1.7,0,2.9,1.3,2.9,3.1c0,2.1-1.4,3.7-3.2,3.7c-2,0-3.4-1.9-3.4-4.7c0-0.3,0-0.5,0-1
			C632,1505.9,632.5,1505.7,633.3,1505.5z"/>
		<path class="st1" d="M649.2,1504.9c0-2-1.3-3.3-3.2-3.3c-1,0-2.2,0.4-3.1,1c-0.2,0.1-0.5,0.4-0.9,0.7l1.1,1.2
			c1.2-1,1.8-1.3,2.6-1.3c1.1,0,1.8,0.7,1.8,1.9c0,1.6-1.4,2.9-3.8,3.4v1.3h1.2c2.2,0,3.4,1.1,3.4,2.9c0,1.3-0.8,2.5-2,3.2
			c-1.1,0.6-2,0.9-4.2,0.9v1.5h0.6c4.5,0,7.4-2.3,7.3-5.7c0-1.6-0.7-2.8-1.9-3.5c-0.3-0.2-0.6-0.3-1.3-0.5
			C648.4,1507.8,649.2,1506.6,649.2,1504.9z"/>
		<path class="st1" d="M591.3,1701.4v0.9l0-0.1h9.6v-1.5h-6.6l3.1-2.6c1.6-1.3,2-1.8,2.3-2.5c0.2-0.4,0.3-0.9,0.3-1.5
			c0-2.1-1.5-3.5-3.8-3.5c-1.2,0-2.2,0.4-3,1c-0.5,0.5-0.6,0.6-1.7,1.8l1.2,0.9c1.1-1.1,1.2-1.3,1.7-1.6c0.4-0.2,1-0.4,1.6-0.4
			c1.2,0,2.1,0.8,2.1,2c0,0.8-0.4,1.6-1.2,2.3L591.3,1701.4z"/>
		<path class="st1" d="M609.8,1690.6c-3.3,0-6,2.7-6,6.1c0,3.3,2.7,6,6,6s5.9-2.7,6-6C615.8,1693.3,613.1,1690.6,609.8,1690.6z
			 M609.8,1701.3c-2.3,0-4.2-2.1-4.2-4.6c0-2.6,1.9-4.6,4.2-4.6c2.2,0,4.1,2,4.2,4.6C614,1699.2,612.1,1701.3,609.8,1701.3z"/>
		<polygon class="st1" points="619.8,1708.1 625.8,1686.4 624.1,1686.4 618.1,1708.1 		"/>
		<path class="st1" d="M631.7,1705.5c-0.9,0.2-1.3,0.3-2.9,0.4v1.5c1.4-0.1,1.9-0.1,2.7-0.3c0.9-0.2,1.7-0.5,2.3-0.9
			c1.5-1,2.4-2.6,2.4-4.4c0-3-1.6-4.9-4.3-5.1l-0.9-0.1v-4.2h4.6v-1.5h-6.5v7.2h1.2c1.5,0,2.3,0.2,2.9,0.8c0.7,0.7,1.1,1.7,1.1,2.9
			C634.3,1703.7,633.4,1705,631.7,1705.5z"/>
		<path class="st1" d="M639,1696.7c0,3.3,2.7,6,6,6s5.9-2.7,6-6c0-3.4-2.7-6.1-6-6.1S639,1693.3,639,1696.7z M645,1692.1
			c2.3,0,4.1,2,4.2,4.6c0,2.5-1.9,4.6-4.2,4.6s-4.2-2.1-4.2-4.6C640.8,1694.1,642.7,1692.1,645,1692.1z"/>
		<path class="st1" d="M599.6,1858.2H593l3.1-2.6c1.6-1.3,2-1.8,2.3-2.5c0.2-0.4,0.3-0.9,0.3-1.5c0-2.1-1.5-3.5-3.8-3.5
			c-1.2,0-2.2,0.4-3,1c-0.5,0.5-0.6,0.6-1.7,1.8l1.2,0.9c1.1-1.1,1.2-1.3,1.7-1.6c0.4-0.2,1-0.4,1.6-0.4c1.2,0,2.1,0.8,2.1,2
			c0,0.8-0.4,1.6-1.2,2.3l-5.6,4.8v0.8h9.6V1858.2z"/>
		<path class="st1" d="M614.4,1854.2c0-3.4-2.7-6.1-6-6.1s-6,2.7-6,6.1c0,3.3,2.7,6,6,6S614.4,1857.5,614.4,1854.2z M604.2,1854.2
			c0-2.6,1.9-4.6,4.2-4.6s4.2,2,4.2,4.6c0,2.5-1.9,4.6-4.2,4.6S604.2,1856.7,604.2,1854.2z"/>
		<polygon class="st1" points="616.7,1865.6 618.4,1865.6 624.4,1843.9 622.8,1843.9 		"/>
		<path class="st1" d="M633.9,1864.8h1.7v-5l2.7-0.1v-1.5h-2.8v-10.1h-0.8l-8.4,11.2v0.5h7.6V1864.8z M633.8,1852.4v5.9h-4.3
			l-0.6,0.1l0.5-0.5l4.1-5.5l0.3-0.7V1852.4z"/>
		<path class="st1" d="M652.3,1854.2c0-3.4-2.7-6.1-6-6.1s-6,2.7-6,6.1c0,3.3,2.7,6,6,6S652.3,1857.5,652.3,1854.2z M646.3,1858.8
			c-2.3,0-4.2-2.1-4.2-4.6c0-2.6,1.9-4.6,4.2-4.6s4.2,2,4.2,4.6C650.5,1856.7,648.6,1858.8,646.3,1858.8z"/>
		<path class="st1" d="M601.6,2005.2H595l3.1-2.6c1.6-1.3,2-1.8,2.3-2.5c0.2-0.4,0.3-0.9,0.3-1.5c0-2.1-1.5-3.5-3.8-3.5
			c-1.2,0-2.2,0.4-3,1c-0.5,0.5-0.6,0.6-1.7,1.8l1.2,0.9c1.1-1.1,1.2-1.3,1.7-1.6c0.4-0.2,1-0.4,1.6-0.4c1.2,0,2.1,0.8,2.1,2
			c0,0.8-0.4,1.6-1.2,2.3l-5.6,4.8v0.8h9.6V2005.2z"/>
		<path class="st1" d="M610.5,2007.2c3.3,0,5.9-2.7,6-6c0-3.4-2.7-6.1-6-6.1s-6,2.7-6,6.1C604.5,2004.5,607.2,2007.2,610.5,2007.2z
			 M610.5,1996.6c2.3,0,4.1,2,4.2,4.6c0,2.5-1.9,4.6-4.2,4.6s-4.2-2.1-4.2-4.6C606.3,1998.6,608.2,1996.6,610.5,1996.6z"/>
		<polygon class="st1" points="626.5,1990.9 624.9,1990.9 618.8,2012.6 620.5,2012.6 		"/>
		<path class="st1" d="M633.2,2009.4c-1.1,0.6-2,0.9-4.2,0.9v1.5h0.6c4.5,0,7.4-2.3,7.3-5.7c0-1.6-0.7-2.8-1.9-3.5
			c-0.3-0.2-0.6-0.3-1.3-0.5c1.6-0.8,2.4-2,2.4-3.7c0-2-1.3-3.3-3.2-3.3c-1,0-2.2,0.4-3.1,1c-0.2,0.1-0.5,0.4-0.9,0.7l1.1,1.2
			c1.2-1,1.8-1.3,2.6-1.3c1.1,0,1.8,0.7,1.8,1.9c0,1.6-1.4,2.9-3.8,3.4v1.3h1.2c2.2,0,3.4,1.1,3.4,2.9
			C635.2,2007.5,634.4,2008.7,633.2,2009.4z"/>
		<path class="st1" d="M649.7,2005.2h-6.6l3.1-2.6c1.6-1.3,2-1.8,2.3-2.5c0.2-0.4,0.3-0.9,0.3-1.5c0-2.1-1.5-3.5-3.8-3.5
			c-1.2,0-2.2,0.4-3,1c-0.5,0.5-0.6,0.6-1.7,1.8l1.2,0.9c1.1-1.1,1.2-1.3,1.7-1.6c0.4-0.2,1-0.4,1.6-0.4c1.2,0,2.1,0.8,2.1,2
			c0,0.8-0.4,1.6-1.2,2.3l-5.6,4.8v0.9l0-0.1h9.6V2005.2z"/>
		<path class="st1" d="M601.8,2131.2h-6.6l3.1-2.6c1.6-1.3,2-1.8,2.3-2.5c0.2-0.4,0.3-0.9,0.3-1.5c0-2.1-1.5-3.5-3.8-3.5
			c-1.2,0-2.2,0.4-3,1c-0.5,0.5-0.6,0.6-1.7,1.8l1.2,0.9c1.1-1.1,1.2-1.3,1.7-1.6c0.4-0.2,1-0.4,1.6-0.4c1.2,0,2.1,0.8,2.1,2
			c0,0.8-0.4,1.6-1.2,2.3l-5.6,4.8v0.9l9.6-0.1V2131.2z"/>
		<path class="st1" d="M610.7,2133.2c3.3,0,5.9-2.7,6-6c0-3.4-2.7-6.1-6-6.1s-6,2.7-6,6.1C604.7,2130.5,607.4,2133.2,610.7,2133.2z
			 M610.7,2122.6c2.3,0,4.1,2,4.2,4.6c0,2.5-1.9,4.6-4.2,4.6s-4.2-2.1-4.2-4.6C606.5,2124.6,608.4,2122.6,610.7,2122.6z"/>
		<polygon class="st1" points="626.7,2116.9 625.1,2116.9 619,2138.6 620.7,2138.6 		"/>
		<path class="st1" d="M639,2131.2h-6.6l3.1-2.6c1.6-1.3,2-1.8,2.3-2.5c0.2-0.4,0.3-0.9,0.3-1.5c0-2.1-1.5-3.5-3.8-3.5
			c-1.2,0-2.2,0.4-3,1c-0.5,0.5-0.6,0.6-1.7,1.8l1.2,0.9c1.1-1.1,1.2-1.3,1.7-1.6c0.4-0.2,1-0.4,1.6-0.4c1.2,0,2.1,0.8,2.1,2
			c0,0.8-0.4,1.6-1.2,2.3l-5.6,4.8v0.9l9.6-0.1V2131.2z"/>
		<path class="st1" d="M645.1,2136c-0.9,0.2-1.3,0.3-2.9,0.4v1.5c1.4-0.1,1.9-0.1,2.7-0.3c0.9-0.2,1.7-0.5,2.3-0.9
			c1.5-1,2.4-2.6,2.2-4.4c0-3-1.6-4.9-4.3-5.1l-0.9-0.1v-4.2h4.8v-1.5h-6.5v7.2h1.2c1.5,0,2.3,0.2,2.9,0.8c0.7,0.7,1.1,1.7,1.1,2.9
			C647.7,2134.2,646.8,2135.5,645.1,2136z"/>
		<path class="st1" d="M305.6,2445.2c-3.6,0-6.5,2.9-6.5,6.6c0,3.6,2.9,6.5,6.5,6.5c3.7,0,6.6-2.9,6.6-6.5
			C312.2,2448.1,309.3,2445.2,305.6,2445.2z"/>
		<path class="st1" d="M255.3,2445.2c-3.6,0-6.5,2.9-6.5,6.6c0,3.6,2.9,6.5,6.5,6.5c3.7,0,6.6-2.9,6.6-6.5
			C261.9,2448.1,259,2445.2,255.3,2445.2z"/>
		<path class="st1" d="M280.4,2445.2c-3.6,0-6.5,2.9-6.5,6.6c0,3.6,3,6.5,6.5,6.5c3.7,0,6.6-2.9,6.6-6.5
			C287,2448.1,284.1,2445.2,280.4,2445.2z"/>
		<path class="st1" d="M342,2415.8c-12.1,0-20.8,8.1-20.8,21.4c0,13.5,8.6,21.7,20.8,21.7c12.3,0,20.8-8.2,20.8-21.7
			C362.8,2424,354.1,2415.8,342,2415.8z M342,2449.7c-6.5,0-9.3-5.2-9.3-12.6c0-7.6,3-12.3,9.3-12.3s9.3,4.7,9.3,12.3
			C351.3,2444.5,348.5,2449.7,342,2449.7z"/>
		<polygon class="st1" points="388.6,2444.6 380.1,2416.8 367.6,2416.8 382.1,2457.7 394.7,2457.7 409.1,2416.8 397.9,2416.8 		"/>
		<path class="st1" d="M434.4,2415.8c-12,0-20.4,8.1-20.6,21.5c0,13.8,8.8,21.4,20.8,21.4c10.5,0,16.8-4.5,19.6-12.1l-9.8-3.2
			c-1.8,4.4-4.9,6-9.7,6c-5.5,0-8.7-3.2-9.5-9.5h29.1C455.2,2422.1,444.9,2415.8,434.4,2415.8z M425.4,2432.4c1-4.9,4.2-7.5,9-7.5
			c5.3,0,7.9,2.7,8.5,7.4L425.4,2432.4z"/>
		<path class="st1" d="M474.8,2424.2l0.2-7.3h-11.5v40.8H475v-20.9c0-6,1.9-9.5,7.6-9.5c1.7,0,2.8,0.6,3.4,1l4.8-10.3
			c-2.3-1.7-3.7-2.2-6.3-2.2C478.8,2415.8,474.9,2422.5,474.8,2424.2z"/>
		<path class="st1" d="M534.1,2401.5h-0.2c-3.3,3.9-7.3,7.2-11.2,9.4v5.9h-7l-0.1,9.5h7v21.1c0,8.6,5.9,11.5,11.2,11.5
			c5,0,6.5-0.8,7.8-1.3l0.5-10H542c-0.9,0.6-2.6,1-3.7,1c-2,0-4.2-0.5-4.2-3.5v-18.8h8.7v-9.4h-8.7V2401.5z"/>
		<path class="st1" d="M578.1,2415.8c-9.5,0-14.7,6.8-14.7,8.4v-26.8l-11.4-0.1v60.4h11.5v-21c0-5.8,3.2-11,8.4-11
			c4.2,0,7.4,2.7,7.3,7.9v24.1h11.5v-26.2C590.7,2424.2,588.6,2415.8,578.1,2415.8z"/>
		<path class="st1" d="M639.5,2446.6l-9.8-3.2c-1.8,4.4-4.9,6-9.7,6c-5.5,0-8.7-3.2-9.5-9.5h29.1c0.9-17.8-9.4-24.1-19.9-24.1
			c-12.1,0-20.5,8.1-20.6,21.5c0,13.8,8.8,21.4,20.8,21.4C630.4,2458.7,636.6,2454.2,639.5,2446.6z M619.7,2424.9
			c5.3,0,7.9,2.7,8.5,7.4l-17.5,0.1C611.7,2427.5,614.8,2424.9,619.7,2424.9z"/>
		<rect x="670.9" y="2397.4" class="st1" width="11.5" height="60.4"/>
		<path class="st1" d="M729.9,2446.3v-16.9c0-10.5-8.3-13.6-17.2-13.6s-15.7,2.6-20.2,9.3l7.6,5.9c2.4-3.9,5.8-5.9,11.5-5.9
			c5,0,7,1.3,7,6.8c-16.5,1.1-27.1,4.2-27.1,15.4c0,8.1,6.3,11.5,14,11.6c6.7,0,11-2.3,13.5-6.1c1.1,4.1,4.8,5.6,9.3,5.6
			c1.2,0,2.6,0.2,5-0.6c0,0,1.3-6.1,1.8-8.2c-0.8,0.1-1.4,0.3-2.1,0.3C730.9,2449.9,729.8,2448.8,729.9,2446.3z M707.8,2450.1
			c-3,0-5-1.4-5-3.9c0-4.3,6.3-5.9,15.7-6.3C718.5,2446.7,713.1,2450.1,707.8,2450.1z"/>
		<polygon class="st1" points="774.3,2425.1 774.3,2416.9 740.6,2416.9 740.6,2426.2 759.9,2426.2 739.4,2449.1 739.4,2457.8 
			774.4,2457.8 774.4,2448.6 753.5,2448.6 		"/>
		<path class="st1" d="M802,2443.9l-9.1-27.1h-13l16.2,42.2c-1.1,3.7-3.9,6.2-7.3,6.2c-2,0-3.7-0.6-4.8-1.4h-0.4l-1.3,9.8
			c1.8,1.4,4.8,1.9,7.9,1.9c3.7,0,6.9-0.7,9.3-2.6c2.8-2.2,5.4-6.3,7.6-12.2l15.7-43.9h-11.7L802,2443.9z"/>
		<path class="st1" d="M879.1,2422.6c-2.3-3.4-5.8-6.8-12.4-6.8c-9.8,0-17.1,7.7-17.1,21.2c0,13.3,6,21.8,16.9,21.8
			c6.6,0,10.8-3,12.7-6.8l-0.1,5.8h11.5v-60.4h-11.5V2422.6z M869.9,2449.1c-6.2,0-8.8-4.2-8.8-12.1c0-7.5,3.1-11.8,9.1-11.8
			c5.5,0,9.4,4.8,9.4,11.7C879.6,2445.3,876,2449.1,869.9,2449.1z"/>
		<path class="st1" d="M920.4,2415.8c-12.1,0-20.8,8.1-20.8,21.4c0,13.5,8.5,21.7,20.8,21.7s20.8-8.2,20.8-21.7
			C941.2,2424,932.5,2415.8,920.4,2415.8z M920.4,2449.7c-6.5,0-9.3-5.2-9.3-12.6c0-7.6,3-12.3,9.3-12.3s9.3,4.7,9.3,12.3
			C929.7,2444.5,926.9,2449.7,920.4,2449.7z"/>
		<path class="st1" d="M982.7,2421.7c-3.7-4-8.6-6-14.8-6c-10.5,0-17.7,5.5-17.7,14.9c0,4.7,2.1,8.3,5,10.5c-4.4,1.4-8,4.4-8,8.2
			c0,4.5,2.4,7.3,7,8.5c-3.9,1.4-7.6,3.3-7.5,7.5c0,7.1,7,9.8,21.3,9.8c15,0,22.8-3.5,22.8-13.5c0-4.9-1.7-7.3-4-9
			c-2.5-1.8-5-2.9-16.8-2.9c-10,0-12.8-1.2-12.8-3.4c0-1,1.1-2.1,2.4-2.5c1.7,0.4,4.9,1,8.2,1c10.3,0,17.8-5.1,17.8-13.8
			c0-0.5-0.1-1.6-0.1-2.7s1.4-2.8,3.4-2.8c1.2,0,1.9,0.3,2.4,0.8l1.9-9.4c-1.1-0.6-2.3-0.6-3.5-0.6
			C987.6,2416.3,984.4,2417.7,982.7,2421.7z M959.5,2459.2c2.1,0.3,3.6,0.3,7.9,0.4c4.8,0.1,9.9-0.3,11.5,1.3
			c0.5,0.6,0.5,1.6,0.5,1.9c0,2.7-4.2,3.8-11.1,3.8c-8.1,0-11-1.4-11-4.2C957.3,2460.6,958.2,2459.7,959.5,2459.2z M967.9,2436.5
			c-4.5,0-7.3-2-7.3-5.8c0-3.9,2.6-6.4,7.4-6.4c4.6,0,7,2.4,7,6.3C975,2434.4,972.5,2436.5,967.9,2436.5z"/>
		<path class="st1" d="M573.2,2596.6c-4.8,0-7.3,3.4-7.5,4.4c-0.8-2.4-2.6-4.4-6.2-4.4c-5,0-7.4,3.6-7.4,4.5l0.1-3.9h-6.1v21.8
			l0,0.2h6.1V2608c0-3.1,1.2-5.9,4-5.9c2.2,0,3.9,1.4,3.9,4.2v12.8h6.1v-11.2c0-3.1,1.1-5.9,4-5.9c2.1,0,3.9,1.4,3.8,4.2v12.8h6.2
			v-14C580.2,2601.1,578.8,2596.6,573.2,2596.6z"/>
		<rect x="594.4" y="2597.2" class="st1" width="6.2" height="21.8"/>
		<circle class="st1" cx="597.5" cy="2589.9" r="3.4"/>
		<rect x="615.3" y="2586.8" class="st1" width="6.2" height="32.2"/>
		<path class="st1" d="M645.6,2596.6c-6.5,0-11.1,4.4-11.1,11.4c0,7.2,4.6,11.6,11.1,11.6s11.1-4.4,11.1-11.6
			C656.7,2601,652,2596.6,645.6,2596.6z M645.6,2614.7c-3.5,0-5-2.8-5-6.7c0-4.1,1.6-6.6,5-6.6s5,2.5,5,6.6
			C650.6,2611.9,649.1,2614.7,645.6,2614.7z"/>
		<path class="st1" d="M683.7,2608.5c0,3-1.6,5.8-4.4,5.8c-2.3,0-4-1.4-4-4.2v-12.9h-6.1v14.1c0,4,1.1,8.4,6.7,8.4
			c5,0,7.9-3.5,8-4.4l-0.2,3.8h6.2v-21.8h-6.2V2608.5z"/>
	</g>
</g>
</svg>
