<?xml version="1.0" encoding="utf-8"?>
<!-- Generator: Adobe Illustrator 22.1.0, SVG Export Plug-In . SVG Version: 6.00 Build 0)  -->
<svg version="1.1" xmlns="http://www.w3.org/2000/svg" xmlns:xlink="http://www.w3.org/1999/xlink" x="0px" y="0px"
	 viewBox="0 0 1139.9 804.6" style="enable-background:new 0 0 1139.9 804.6;" xml:space="preserve">
<style type="text/css">
	.st0{display:none;}
</style>
<g id="Layer_1" class="st0">
	
		<image style="display:inline;overflow:visible;" width="742" height="572" xlink:href="Screenshot 2021-04-21 at 00.48.35.png"  transform="matrix(1.3762 0 0 1.3762 -229.2234 -90.0872)">
	</image>
</g>
<g id="Layer_2">
	<g>
		<path d="M1048.2,572.1c-0.9,0-1.9-0.4-2.6-1.1L634.7,130.5L105.2,558.3c-1.5,1.2-3.7,1-5-0.5c-1.2-1.5-1-3.7,0.5-5l534.6-432
			l415.4,445.3c1.3,1.4,1.2,3.7-0.2,5C1050,571.8,1049.1,572.1,1048.2,572.1z"/>
	</g>
	<g>
		<path d="M343.8,679.1c-0.6,0-1.1-0.1-1.6-0.4c-1.7-0.9-2.4-3-1.5-4.8L632,124c0.9-1.7,3-2.4,4.8-1.5c1.7,0.9,2.4,3,1.5,4.8
			L346.9,677.2C346.2,678.4,345,679.1,343.8,679.1z"/>
	</g>
	<g>
		<g>
			<path d="M1056.7,622.9c0-5.1,0.8-10,2.3-14.7c1.6-4.7,3.8-8.8,6.6-12.4c2.8-3.6,6.3-6.5,10.4-8.6c4.1-2.2,8.6-3.2,13.7-3.2
				c3,0,5.7,0.2,8.1,0.7c2.4,0.5,4.4,1,6.2,1.6l-1.7,11.2c-0.2,1.4-0.6,2.5-1.3,3.3c-0.7,0.8-1.7,1.1-3.1,1.1
				c-0.6,0-1.1-0.1-1.4-0.2l1-10.5c-1.3-0.6-2.8-1-4.6-1.4c-1.8-0.3-3.7-0.5-5.9-0.5c-3.5,0-6.6,0.9-9.4,2.7c-2.8,1.8-5.1,4.2-7,7.1
				c-1.9,2.9-3.4,6.1-4.4,9.7c-1,3.5-1.5,7.1-1.5,10.6c0,3.4,0.4,6.4,1.1,9.2c0.7,2.7,1.8,5,3.3,7c1.5,1.9,3.3,3.4,5.5,4.5
				c2.2,1.1,4.8,1.6,7.8,1.6c1.9,0,3.6-0.1,5.3-0.4c1.7-0.3,3.3-0.6,4.9-1.1l3.9-8.5c0.8-1.8,1.7-2.9,2.5-3.6
				c0.9-0.6,1.7-0.9,2.3-0.9c0.6,0,1.3,0.2,1.9,0.6l-4.6,14.9c-3.1,1.6-6.2,2.8-9.3,3.8c-3.1,0.9-6.5,1.4-10.3,1.4
				c-3.9,0-7.3-0.6-10.2-1.7c-2.9-1.2-5.2-2.8-7-5c-1.8-2.2-3.2-4.8-4.1-7.8C1057.2,630,1056.7,626.6,1056.7,622.9z"/>
		</g>
	</g>
	<g>
		<g>
			<path d="M309.9,766.3c0-0.4,0.1-1,0.4-1.5c0.3-0.6,1-1,2.2-1.3l5.6-1.4l6.4-50.6l-7.3-0.8c-0.1-0.4-0.2-0.8-0.2-1.2
				c0-0.6,0.3-1.1,0.8-1.5c0.5-0.5,1.5-0.9,2.9-1.2c1.4-0.3,3.3-0.6,5.7-0.8c2.4-0.2,5.5-0.3,9.2-0.3c6.1,0,10.7,1.2,13.8,3.6
				c3.1,2.4,4.6,5.8,4.6,10.1c0,3.4-1,6.5-2.9,9.2c-1.9,2.8-4.8,4.8-8.5,6.1c4.5,0.8,7.9,2.5,10.3,5c2.3,2.5,3.5,5.8,3.5,9.8
				c0,2.9-0.6,5.5-1.7,7.8c-1.1,2.3-2.7,4.1-4.6,5.7c-1.9,1.5-4.2,2.7-6.7,3.5c-2.5,0.8-5.1,1.2-7.9,1.2c-1.3,0-2.4,0-3.4,0
				s-1.9-0.1-2.6-0.2c-0.8-0.1-1.6-0.1-2.6-0.1c-1,0-2.1,0-3.4,0c-1.4,0-2.7,0-3.8,0c-1.1,0-2.1,0-3,0c-0.9,0-1.9,0-3,0
				c-1,0-2.2,0-3.6,0c-0.1-0.2-0.1-0.4-0.1-0.5C309.9,766.7,309.9,766.5,309.9,766.3z M326,762.3c0.9,0.2,2.1,0.4,3.4,0.6
				c1.3,0.2,3,0.3,5,0.3c3.9,0,7.2-1,9.8-3c2.6-2,3.9-5,3.9-8.9c0-4.3-1.5-7.7-4.6-10.1c-3.1-2.4-7.9-3.6-14.6-3.6L326,762.3z
				 M329.5,733.2l2.2,0.1c0.7,0.1,1.3,0.1,1.8,0.1c0.5,0,1,0,1.5,0c1.6,0,3.1-0.3,4.5-0.9c1.4-0.6,2.6-1.4,3.6-2.5
				c1-1.1,1.8-2.3,2.4-3.7c0.6-1.4,0.8-2.9,0.8-4.5c0-3.9-1.3-6.9-3.8-8.7c-2.5-1.9-6-2.8-10.3-2.8L329.5,733.2z"/>
		</g>
	</g>
	<g>
		<g>
			<path d="M33.1,638.9c0-0.4,0.1-0.9,0.4-1.5c0.3-0.5,1-0.9,2-1.2l4.4-1.1L62.6,582c0.6-1.5,1.4-2.6,2.2-3.4c0.8-0.8,2-1.1,3.4-1.1
				c1.4,0,2.8,0.3,4.3,1l12.1,56.3l6.4,1.5c-0.2,1.2-0.7,2.1-1.5,2.7c-0.8,0.6-1.7,0.9-2.5,0.9h-0.3c-1.4-0.1-3-0.1-4.8-0.1
				c-1.8,0-3.6,0-5.4,0c-1.6,0-3.1,0-4.6,0.1c-1.5,0.1-2.9,0.1-4.1,0.2c-0.1-0.2-0.1-0.5-0.1-0.8c0-0.5,0.1-1,0.4-1.6
				c0.3-0.6,0.8-1,1.6-1.2l6.2-1.7l-3.6-18.4H54.5l-7.2,18.3l8.9,1.9c-0.1,0.9-0.5,1.8-1.3,2.4c-0.8,0.7-1.7,1-2.8,1h-0.3
				c-1.4-0.1-2.9-0.1-4.6-0.1c-1.7,0-3.4,0-5.2,0c-1.6,0-3.1,0-4.6,0c-1.5,0-2.9,0.1-4.2,0.1c-0.1-0.2-0.1-0.4-0.1-0.5
				C33.1,639.2,33.1,639,33.1,638.9z M71.3,611.4l-5.2-25.2l-9.8,25.2H71.3z"/>
		</g>
	</g>
	<g>
		<g>
			<path d="M652.2,40.1c2.4,0,4.7,0,6.8,0s3.9,0,5.6,0.1c1.7,0.1,3.4,0.1,5.3,0.1c1.8,0,3.7,0,5.6,0c3.9,0,7.1,0,9.5,0
				c2.4,0,3.9,0,4.6,0c3.5,0,6.6-0.1,9.2-0.3l-0.6,16.3c-0.9,0.3-1.7,0.5-2.3,0.5c-0.6,0-1.3-0.2-2-0.7c-0.7-0.4-1.2-1.5-1.5-3.3
				l-1.4-7.5c-0.8,0.1-1.7,0.1-2.8,0.1c-1,0-2.1,0.1-3.1,0.1c-1.1,0-2.1,0-3,0c-0.9,0-1.7,0-2.3,0h-1.4L672.1,96l10.2,1.8
				c-0.3,1.1-0.8,2-1.6,2.7c-0.8,0.7-1.7,1-2.6,1h-0.3c-1.3-0.1-2.9-0.1-4.9-0.1c-2,0-4.1,0-6.2,0c-2.3,0-4.4,0-6.6,0
				c-2.1,0-3.9,0.1-5.3,0.1c-0.1-0.2-0.2-0.5-0.2-0.9c0-0.4,0.1-0.9,0.4-1.5c0.3-0.7,1-1.1,2.2-1.4l6.9-1.5l6.1-50.4h-12.1l-3.1,6.9
				c-0.6,1.3-1.2,2.4-2,3.4c-0.8,1-1.9,1.5-3.4,1.5c-0.3,0-0.5,0-0.8,0c-0.3,0-0.5-0.1-0.8-0.1L652.2,40.1z"/>
		</g>
	</g>
</g>
</svg>
