<?xml version="1.0" encoding="utf-8"?>
<!-- Generator: Adobe Illustrator 22.1.0, SVG Export Plug-In . SVG Version: 6.00 Build 0)  -->
<svg version="1.1" id="Layer_1" xmlns="http://www.w3.org/2000/svg" xmlns:xlink="http://www.w3.org/1999/xlink" x="0px" y="0px"
	 viewBox="0 0 80 21" style="enable-background:new 0 0 80 21;" xml:space="preserve">
<style type="text/css">
	.st0{fill:#707070;}
</style>
<title>Asset 4</title>
<g id="Layer_2_1_">
	<g id="Layer_1-2">
		<g>
			<polygon class="st0" points="2,16 2,15 1,15 0,15 0,16 1,16 1,17 0,17 0,18 0,19 1,19 1,18 2,18 2,17 			"/>
			<polygon class="st0" points="20,18 20,17 19,17 18,17 18,18 19,18 			"/>
			<rect x="12" y="18" class="st0" width="1" height="1"/>
			<rect x="11" y="19" class="st0" width="1" height="1"/>
			<path class="st0" d="M29,17h-1h-1h-1v1h-1v1h1v1h-1v-1h-1v-1h1v-1h-1h-1v1v1h-1v1h1v1h1h1h1h1h1h1h1v-1h-1v-1h1v-1h-1V17z M28,19
				v1h-1v-1v-1h1V19z"/>
			<polygon class="st0" points="37,19 38,19 38,18 38,17 37,17 36,17 36,18 37,18 			"/>
			<polygon class="st0" points="42,20 42,21 43,21 44,21 44,20 44,19 43,19 43,20 			"/>
			<polygon class="st0" points="47,19 46,19 46,18 47,18 47,17 46,17 45,17 45,18 45,19 45,20 45,21 46,21 47,21 48,21 48,20 48,19 
				48,18 47,18 			"/>
			<polygon class="st0" points="56,17 56,18 55,18 55,19 54,19 53,19 53,18 52,18 52,19 52,20 53,20 53,21 54,21 55,21 55,20 56,20 
				56,19 57,19 57,18 58,18 58,17 57,17 			"/>
			<polygon class="st0" points="56,20 56,21 57,21 58,21 58,20 58,19 57,19 57,20 			"/>
			<polygon class="st0" points="39,20 38,20 37,20 36,20 36,21 37,21 38,21 39,21 40,21 41,21 41,20 41,19 40,19 40,20 			"/>
			<polygon class="st0" points="42,17 42,18 42,19 43,19 43,18 44,18 44,17 43,17 			"/>
			<polygon class="st0" points="51,19 51,18 52,18 52,17 51,17 50,17 49,17 49,18 50,18 50,19 50,20 49,20 49,21 50,21 51,21 52,21 
				52,20 51,20 			"/>
			<polygon class="st0" points="39,17 39,18 39,19 40,19 40,18 41,18 41,17 40,17 			"/>
			<path class="st0" d="M64,17v-1v-1h-1h-1v1h1v1v1h-1v-1h-1h-1h-1v1v1v1v1h1h1h1h1h1v-1v-1v-1h1v-1H64z M60,20v-1v-1h1v1v1H60z
				 M63,20h-1v-1h1V20z"/>
			<polygon class="st0" points="74,19 73,19 73,20 73,21 74,21 75,21 75,20 74,20 			"/>
			<polygon class="st0" points="75,18 75,17 74,17 73,17 73,18 74,18 			"/>
			<rect x="79" y="18" class="st0" width="1" height="1"/>
			<polygon class="st0" points="78,17 77,17 76,17 76,18 77,18 77,19 78,19 78,18 79,18 79,17 			"/>
			<rect x="71" y="15" class="st0" width="1" height="1"/>
			<polygon class="st0" points="75,19 75,20 76,20 76,19 76,18 75,18 			"/>
			<path class="st0" d="M72,18v-1h-1h-1v-1h-1v1h-1h-1h-1v1h1v1v1h-1v-1v-1h-1v1v1v1h1h1h1v-1v-1v-1h1v1v1v1h1h1h1v-1v-1h1v-1H72z
				 M71,20h-1v-1v-1h1v1V20z"/>
			<polygon class="st0" points="77,21 78,21 79,21 80,21 80,20 79,20 78,20 77,20 76,20 76,21 			"/>
			<polygon class="st0" points="55,18 55,17 55,16 54,16 54,17 53,17 53,18 54,18 			"/>
			<path class="st0" d="M35,19v-1v-1h-1h-1v-1v-1h-1h-1v1h1v1v1v1v1v1h1h1h1v-1h1v-1H35z M33,20v-1v-1h1v1v1H33z"/>
			<polygon class="st0" points="20,19 19,19 18,19 18,18 17,18 17,19 17,20 18,20 18,21 19,21 20,21 20,20 21,20 21,19 21,18 20,18 
							"/>
			<rect x="13" y="17" class="st0" width="1" height="1"/>
			<polygon class="st0" points="10,19 10,18 11,18 12,18 12,17 11,17 10,17 10,16 9,16 9,17 8,17 7,17 6,17 6,18 6,19 5,19 5,18 
				5,17 4,17 3,17 3,18 4,18 4,19 3,19 3,18 2,18 2,19 2,20 3,20 3,21 4,21 5,21 5,20 6,20 6,21 7,21 8,21 8,20 7,20 7,19 7,18 
				8,18 9,18 9,19 8,19 8,20 9,20 9,21 10,21 11,21 11,20 10,20 			"/>
			<polygon class="st0" points="16,19 16,18 17,18 17,17 16,17 15,17 15,18 14,18 14,19 15,19 15,20 14,20 14,19 13,19 13,20 12,20 
				12,21 13,21 14,21 15,21 16,21 17,21 17,20 16,20 			"/>
			<polygon class="st0" points="0,20 0,21 1,21 2,21 2,20 1,20 			"/>
		</g>
		<g>
			<rect x="3" y="2" class="st0" width="1" height="1"/>
			<rect x="6" y="2" class="st0" width="1" height="1"/>
			<polygon class="st0" points="10,3 10,4 10,5 11,5 11,4 11,3 11,2 10,2 			"/>
			<polygon class="st0" points="8,2 8,3 8,4 8,5 9,5 9,4 9,3 9,2 9,1 8,1 			"/>
			<polygon class="st0" points="2,4 2,5 3,5 3,4 3,3 2,3 			"/>
			<polygon class="st0" points="5,4 5,5 6,5 7,5 7,4 6,4 6,3 5,3 			"/>
			<polygon class="st0" points="0,1 0,2 0,3 0,4 0,5 1,5 1,4 1,3 1,2 1,1 1,0 0,0 			"/>
			<polygon class="st0" points="12,3 12,4 12,5 13,5 13,4 13,3 13,2 12,2 			"/>
			<polygon class="st0" points="15,3 15,4 15,5 16,5 16,4 16,3 16,2 15,2 			"/>
			<rect x="18" y="2" class="st0" width="1" height="1"/>
			<polygon class="st0" points="26,2 25,2 25,3 25,4 25,5 26,5 26,4 26,3 27,3 27,2 			"/>
			<polygon class="st0" points="31,1 31,2 31,3 31,4 31,5 32,5 32,4 32,3 32,2 32,1 32,0 31,0 			"/>
			<polygon class="st0" points="35,4 35,5 36,5 36,4 36,3 35,3 			"/>
			<rect x="23" y="2" class="st0" width="1" height="1"/>
			<polygon class="st0" points="22,4 22,5 23,5 23,4 23,3 22,3 			"/>
			<polygon class="st0" points="27,4 27,5 28,5 28,4 28,3 27,3 			"/>
			<polygon class="st0" points="33,3 33,4 33,5 34,5 34,4 34,3 34,2 33,2 			"/>
			<polygon class="st0" points="40,4 40,5 41,5 41,4 41,3 40,3 			"/>
			<polygon class="st0" points="43,4 43,5 44,5 44,4 44,3 43,3 			"/>
			<polygon class="st0" points="45,4 45,5 46,5 46,4 46,3 45,3 			"/>
			<rect x="39" y="2" class="st0" width="1" height="1"/>
			<rect x="42" y="2" class="st0" width="1" height="1"/>
			<rect x="46" y="2" class="st0" width="1" height="1"/>
			<rect x="56" y="2" class="st0" width="1" height="1"/>
			<polygon class="st0" points="61,4 61,5 62,5 62,4 62,3 61,3 			"/>
			<polygon class="st0" points="59,4 59,5 60,5 60,4 60,3 59,3 			"/>
			<polygon class="st0" points="51,3 51,4 51,5 52,5 52,4 52,3 52,2 51,2 			"/>
			<rect x="54" class="st0" width="1" height="1"/>
			<rect x="54" y="2" class="st0" width="1" height="1"/>
			<polygon class="st0" points="57,4 57,5 58,5 58,4 58,3 57,3 			"/>
			<rect x="60" y="2" class="st0" width="1" height="1"/>
			<polygon class="st0" points="67,3 67,4 67,5 68,5 68,4 68,3 68,2 67,2 			"/>
			<polygon class="st0" points="71,3 71,4 71,5 72,5 72,4 72,3 72,2 71,2 			"/>
			<polygon class="st0" points="75,4 75,5 76,5 76,4 76,3 75,3 			"/>
			<polygon class="st0" points="78,2 77,2 77,3 77,4 77,5 78,5 78,4 78,3 79,3 79,2 			"/>
			<rect x="74" y="2" class="st0" width="1" height="1"/>
			<polygon class="st0" points="79,3 79,4 79,5 80,5 80,4 80,3 			"/>
			<polygon class="st0" points="69,2 69,3 69,4 69,5 70,5 70,4 70,3 70,2 70,1 69,1 			"/>
			<rect x="71" class="st0" width="1" height="1"/>
			<polygon class="st0" points="63,1 63,2 63,3 63,4 63,5 64,5 64,4 64,3 64,2 64,1 64,0 63,0 			"/>
			<polygon class="st0" points="65,3 65,4 65,5 66,5 66,4 66,3 66,2 65,2 			"/>
			<polygon class="st0" points="73,4 73,5 74,5 74,4 74,3 73,3 			"/>
			<polygon class="st0" points="53,4 53,5 54,5 54,4 54,3 53,3 			"/>
			<rect x="50" y="1" class="st0" width="1" height="1"/>
			<polygon class="st0" points="36,2 36,3 37,3 37,4 37,5 38,5 38,4 38,3 38,2 37,2 			"/>
			<rect x="14" y="1" class="st0" width="1" height="1"/>
			<polygon class="st0" points="17,4 17,5 18,5 18,4 18,3 17,3 			"/>
		</g>
	</g>
</g>
</svg>
