<svg xmlns="http://www.w3.org/2000/svg" viewBox="0 0 80 21"><defs><style>.cls-1{fill:#707070;}</style></defs><title>Asset 4</title><g id="Layer_2" data-name="Layer 2"><g id="Layer_1-2" data-name="Layer 1"><g id="Layer_2-2" data-name="Layer 2"><g id="Layer_1-2-2" data-name="Layer 1-2"><rect class="cls-1" width="1" height="1"/><rect class="cls-1" x="1" width="1" height="1"/><rect class="cls-1" x="1" y="1" width="1" height="1"/><rect class="cls-1" x="1" y="2" width="1" height="1"/><rect class="cls-1" y="2" width="1" height="1"/><rect class="cls-1" y="3" width="1" height="1"/><rect class="cls-1" x="1" y="5" width="1" height="1"/><rect class="cls-1" x="2" y="4" width="1" height="1"/><rect class="cls-1" x="2" y="3" width="1" height="1"/><rect class="cls-1" x="3" y="2" width="1" height="1"/><rect class="cls-1" x="4" y="3" width="1" height="1"/><rect class="cls-1" x="4" y="4" width="1" height="1"/><rect class="cls-1" x="3" y="4" width="1" height="1"/><rect class="cls-1" x="4" y="2" width="1" height="1"/><rect class="cls-1" x="9" y="1" width="1" height="1"/><rect class="cls-1" x="9" y="2" width="1" height="1"/><rect class="cls-1" x="16" y="2" width="1" height="1"/><rect class="cls-1" x="20" y="4" width="1" height="1"/><rect class="cls-1" x="19" y="2" width="1" height="1"/><rect class="cls-1" x="18" y="2" width="1" height="1"/><rect class="cls-1" x="24" y="2" width="1" height="1"/><rect class="cls-1" x="25" y="3" width="1" height="1"/><rect class="cls-1" x="28" y="5" width="1" height="1"/><rect class="cls-1" x="28" y="4" width="1" height="1"/><rect class="cls-1" x="23" y="3" width="1" height="1"/><rect class="cls-1" x="26" y="3" width="1" height="1"/><rect class="cls-1" x="15" y="3" width="1" height="1"/><rect class="cls-1" x="11" y="2" width="1" height="1"/><rect class="cls-1" x="10" y="2" width="1" height="1"/><rect class="cls-1" x="12" y="3" width="1" height="1"/><rect class="cls-1" x="9" y="3" width="1" height="1"/><rect class="cls-1" x="8" y="4" width="1" height="1"/><rect class="cls-1" x="11" y="4" width="1" height="1"/><rect class="cls-1" x="7" y="5" width="1" height="1"/><rect class="cls-1" x="10" y="5" width="1" height="1"/><rect class="cls-1" x="6" y="5" width="1" height="1"/><rect class="cls-1" x="9" y="5" width="1" height="1"/><rect class="cls-1" x="6" y="4" width="1" height="1"/><rect class="cls-1" x="6" y="3" width="1" height="1"/><rect class="cls-1" x="8" y="2" width="1" height="1"/><rect class="cls-1" x="15" y="2" width="1" height="1"/><rect class="cls-1" x="23" y="2" width="1" height="1"/><rect class="cls-1" x="28" y="3" width="1" height="1"/><rect class="cls-1" x="29" y="5" width="1" height="1"/><rect class="cls-1" x="33" y="5" width="1" height="1"/><rect class="cls-1" x="34" y="5" width="1" height="1"/><rect class="cls-1" x="28" y="2" width="1" height="1"/><rect class="cls-1" x="32" y="3" width="1" height="1"/><rect class="cls-1" x="32" y="1" width="1" height="1"/><rect class="cls-1" x="34" y="4" width="1" height="1"/><rect class="cls-1" x="32" y="2" width="1" height="1"/><rect class="cls-1" x="32" width="1" height="1"/><rect class="cls-1" x="31" width="1" height="1"/><rect class="cls-1" x="36" y="5" width="1" height="1"/><rect class="cls-1" x="34" y="3" width="1" height="1"/><rect class="cls-1" x="26" y="2" width="1" height="1"/><rect class="cls-1" x="27" y="2" width="1" height="1"/><rect class="cls-1" x="34" y="2" width="1" height="1"/><rect class="cls-1" x="33" y="2" width="1" height="1"/><rect class="cls-1" x="37" y="3" width="1" height="1"/><rect class="cls-1" x="40" y="5" width="1" height="1"/><rect class="cls-1" x="40" y="4" width="1" height="1"/><rect class="cls-1" x="42" y="5" width="1" height="1"/><rect class="cls-1" x="43" y="4" width="1" height="1"/><rect class="cls-1" x="50" y="3" width="1" height="1"/><rect class="cls-1" x="47" y="3" width="1" height="1"/><rect class="cls-1" x="56" y="2" width="1" height="1"/><rect class="cls-1" x="59" y="4" width="1" height="1"/><rect class="cls-1" x="59" y="3" width="1" height="1"/><rect class="cls-1" x="51" y="2" width="1" height="1"/><rect class="cls-1" x="55" y="4" width="1" height="1"/><rect class="cls-1" x="47" y="4" width="1" height="1"/><rect class="cls-1" x="52" y="4" width="1" height="1"/><rect class="cls-1" x="52" y="3" width="1" height="1"/><rect class="cls-1" x="54" y="5" width="1" height="1"/><rect class="cls-1" x="53" y="5" width="1" height="1"/><rect class="cls-1" x="56" y="5" width="1" height="1"/><rect class="cls-1" x="45" y="5" width="1" height="1"/><rect class="cls-1" x="39" y="3" width="1" height="1"/><rect class="cls-1" x="39" y="5" width="1" height="1"/><rect class="cls-1" x="43" y="5" width="1" height="1"/><rect class="cls-1" x="46" y="4" width="1" height="1"/><rect class="cls-1" x="38" y="5" width="1" height="1"/><rect class="cls-1" x="37" y="2" width="1" height="1"/><rect class="cls-1" x="42" y="2" width="1" height="1"/><rect class="cls-1" x="45" y="4" width="1" height="1"/><rect class="cls-1" x="46" y="5" width="1" height="1"/><rect class="cls-1" x="50" y="5" width="1" height="1"/><rect class="cls-1" x="50" y="4" width="1" height="1"/><rect class="cls-1" x="57" y="5" width="1" height="1"/><rect class="cls-1" x="59" y="5" width="1" height="1"/><rect class="cls-1" x="54" y="4" width="1" height="1"/><rect class="cls-1" x="47" y="5" width="1" height="1"/><rect class="cls-1" x="51" y="5" width="1" height="1"/><rect class="cls-1" x="39" y="2" width="1" height="1"/><rect class="cls-1" x="45" y="2" width="1" height="1"/><rect class="cls-1" x="46" y="2" width="1" height="1"/><rect class="cls-1" x="42" y="3" width="1" height="1"/><rect class="cls-1" x="43" y="2" width="1" height="1"/><rect class="cls-1" x="49" y="5" width="1" height="1"/><rect class="cls-1" x="53" y="4" width="1" height="1"/><rect class="cls-1" x="49" y="2" width="1" height="1"/><rect class="cls-1" x="45" y="3" width="1" height="1"/><rect class="cls-1" x="50" y="2" width="1" height="1"/><rect class="cls-1" x="59" y="2" width="1" height="1"/><rect class="cls-1" x="65" y="3" width="1" height="1"/><rect class="cls-1" x="71" y="4" width="1" height="1"/><rect class="cls-1" x="60" y="2" width="1" height="1"/><rect class="cls-1" x="69" y="2" width="1" height="1"/><rect class="cls-1" x="69" y="1" width="1" height="1"/><rect class="cls-1" x="64" y="2" width="1" height="1"/><rect class="cls-1" x="57" y="4" width="1" height="1"/><rect class="cls-1" x="62" y="5" width="1" height="1"/><rect class="cls-1" x="57" y="2" width="1" height="1"/><rect class="cls-1" x="63" y="5" width="1" height="1"/><rect class="cls-1" x="67" y="5" width="1" height="1"/><rect class="cls-1" x="71" y="5" width="1" height="1"/><rect class="cls-1" x="66" y="5" width="1" height="1"/><rect class="cls-1" x="65" y="5" width="1" height="1"/><rect class="cls-1" x="69" y="4" width="1" height="1"/><rect class="cls-1" x="61" y="5" width="1" height="1"/><rect class="cls-1" x="62" y="3" width="1" height="1"/><rect class="cls-1" x="61" y="4" width="1" height="1"/><rect class="cls-1" x="65" y="4" width="1" height="1"/><rect class="cls-1" x="61" y="3" width="1" height="1"/><rect class="cls-1" x="61" y="2" width="1" height="1"/><rect class="cls-1" x="68" y="2" width="1" height="1"/><rect class="cls-1" x="73" y="4" width="1" height="1"/><rect class="cls-1" x="67" y="2" width="1" height="1"/><rect class="cls-1" x="74" y="2" width="1" height="1"/><rect class="cls-1" x="79" y="3" width="1" height="1"/><rect class="cls-1" x="78" y="2" width="1" height="1"/><rect class="cls-1" x="71" width="1" height="1"/><rect class="cls-1" x="66" y="2" width="1" height="1"/><rect class="cls-1" x="71" y="2" width="1" height="1"/><rect class="cls-1" x="74" y="5" width="1" height="1"/><rect class="cls-1" x="70" y="2" width="1" height="1"/><rect class="cls-1" x="73" y="2" width="1" height="1"/><rect class="cls-1" x="77" y="3" width="1" height="1"/><rect class="cls-1" x="77" y="2" width="1" height="1"/><rect class="cls-1" x="76" y="2" width="1" height="1"/><rect class="cls-1" x="75" y="3" width="1" height="1"/><rect class="cls-1" x="75" y="4" width="1" height="1"/><rect class="cls-1" x="72" y="3" width="1" height="1"/><rect class="cls-1" x="69" y="3" width="1" height="1"/><rect class="cls-1" x="63" width="1" height="1"/><rect class="cls-1" x="62" width="1" height="1"/><rect class="cls-1" x="63" y="1" width="1" height="1"/><rect class="cls-1" x="63" y="2" width="1" height="1"/><rect class="cls-1" x="67" y="3" width="1" height="1"/><rect class="cls-1" x="63" y="3" width="1" height="1"/><rect class="cls-1" x="63" y="4" width="1" height="1"/><rect class="cls-1" x="67" y="4" width="1" height="1"/><rect class="cls-1" x="71" y="3" width="1" height="1"/><rect class="cls-1" x="69" y="5" width="1" height="1"/><rect class="cls-1" x="73" y="5" width="1" height="1"/><rect class="cls-1" x="79" y="5" width="1" height="1"/><rect class="cls-1" x="78" y="5" width="1" height="1"/><rect class="cls-1" x="77" y="5" width="1" height="1"/><rect class="cls-1" x="76" y="5" width="1" height="1"/><rect class="cls-1" x="70" y="5" width="1" height="1"/><rect class="cls-1" x="56" y="3" width="1" height="1"/><rect class="cls-1" x="54" y="1" width="1" height="1"/><rect class="cls-1" x="54" y="2" width="1" height="1"/><rect class="cls-1" x="53" y="2" width="1" height="1"/><rect class="cls-1" x="55" y="3" width="1" height="1"/><rect class="cls-1" x="60" y="5" width="1" height="1"/><rect class="cls-1" x="37" y="5" width="1" height="1"/><rect class="cls-1" x="36" y="2" width="1" height="1"/><rect class="cls-1" x="40" y="2" width="1" height="1"/><rect class="cls-1" x="29" y="3" width="1" height="1"/><rect class="cls-1" x="35" y="4" width="1" height="1"/><rect class="cls-1" x="25" y="5" width="1" height="1"/><rect class="cls-1" x="22" y="4" width="1" height="1"/><rect class="cls-1" x="27" y="5" width="1" height="1"/><rect class="cls-1" x="32" y="4" width="1" height="1"/><rect class="cls-1" x="32" y="5" width="1" height="1"/><rect class="cls-1" x="26" y="5" width="1" height="1"/><rect class="cls-1" x="26" y="4" width="1" height="1"/><rect class="cls-1" x="24" y="4" width="1" height="1"/><rect class="cls-1" x="19" y="4" width="1" height="1"/><rect class="cls-1" x="18" y="4" width="1" height="1"/><rect class="cls-1" x="19" y="5" width="1" height="1"/><rect class="cls-1" x="20" y="3" width="1" height="1"/><rect class="cls-1" x="14" y="5" width="1" height="1"/><rect class="cls-1" x="13" y="5" width="1" height="1"/><rect class="cls-1" x="13" y="4" width="1" height="1"/><rect class="cls-1" x="14" y="3" width="1" height="1"/><rect class="cls-1" x="17" y="3" width="1" height="1"/><rect class="cls-1" x="17" y="4" width="1" height="1"/><rect class="cls-1" x="18" y="5" width="1" height="1"/><rect class="cls-1" x="23" y="4" width="1" height="1"/><rect class="cls-1" x="24" y="5" width="1" height="1"/><rect class="cls-1" x="23" y="5" width="1" height="1"/><rect class="cls-1" x="13" y="2" width="1" height="1"/><rect class="cls-1" x="7" y="2" width="1" height="1"/><rect class="cls-1" x="12" y="5" width="1" height="1"/><rect class="cls-1" x="9" y="4" width="1" height="1"/><rect class="cls-1" x="16" y="5" width="1" height="1"/><rect class="cls-1" x="6" y="2" width="1" height="1"/><rect class="cls-1" x="15" y="5" width="1" height="1"/><rect class="cls-1" x="15" y="4" width="1" height="1"/><rect class="cls-1" x="5" y="4" width="1" height="1"/><rect class="cls-1" x="3" y="5" width="1" height="1"/><rect class="cls-1" x="4" y="5" width="1" height="1"/><rect class="cls-1" y="5" width="1" height="1"/></g></g><g id="Layer_2-3" data-name="Layer 2"><g id="Layer_1-2-3" data-name="Layer 1-2"><rect class="cls-1" y="18" width="1" height="1"/><rect class="cls-1" y="17" width="1" height="1"/><rect class="cls-1" x="3" y="18" width="1" height="1"/><rect class="cls-1" x="6" y="18" width="1" height="1"/><rect class="cls-1" x="10" y="18" width="1" height="1"/><rect class="cls-1" x="12" y="19" width="1" height="1"/><rect class="cls-1" x="8" y="17" width="1" height="1"/><rect class="cls-1" x="2" y="19" width="1" height="1"/><rect class="cls-1" x="5" y="19" width="1" height="1"/><rect class="cls-1" x="2" y="20" width="1" height="1"/><rect class="cls-1" x="6" y="20" width="1" height="1"/><rect class="cls-1" x="5" y="20" width="1" height="1"/><rect class="cls-1" y="19" width="1" height="1"/><rect class="cls-1" y="16" width="1" height="1"/><rect class="cls-1" x="8" y="18" width="1" height="1"/><rect class="cls-1" x="8" y="19" width="1" height="1"/><rect class="cls-1" x="8" y="20" width="1" height="1"/><rect class="cls-1" x="12" y="18" width="1" height="1"/><rect class="cls-1" x="15" y="18" width="1" height="1"/><rect class="cls-1" x="18" y="18" width="1" height="1"/><rect class="cls-1" x="25" y="18" width="1" height="1"/><rect class="cls-1" x="26" y="18" width="1" height="1"/><rect class="cls-1" x="31" y="16" width="1" height="1"/><rect class="cls-1" x="31" y="17" width="1" height="1"/><rect class="cls-1" x="35" y="19" width="1" height="1"/><rect class="cls-1" x="31" y="20" width="1" height="1"/><rect class="cls-1" x="23" y="18" width="1" height="1"/><rect class="cls-1" x="25" y="19" width="1" height="1"/><rect class="cls-1" x="22" y="19" width="1" height="1"/><rect class="cls-1" x="27" y="19" width="1" height="1"/><rect class="cls-1" x="33" y="18" width="1" height="1"/><rect class="cls-1" x="37" y="18" width="1" height="1"/><rect class="cls-1" x="40" y="19" width="1" height="1"/><rect class="cls-1" x="43" y="19" width="1" height="1"/><rect class="cls-1" x="45" y="19" width="1" height="1"/><rect class="cls-1" x="39" y="18" width="1" height="1"/><rect class="cls-1" x="42" y="18" width="1" height="1"/><rect class="cls-1" x="46" y="18" width="1" height="1"/><rect class="cls-1" x="51" y="19" width="1" height="1"/><rect class="cls-1" x="56" y="18" width="1" height="1"/><rect class="cls-1" x="61" y="19" width="1" height="1"/><rect class="cls-1" x="65" y="20" width="1" height="1"/><rect class="cls-1" x="69" y="20" width="1" height="1"/><rect class="cls-1" x="67" y="20" width="1" height="1"/><rect class="cls-1" x="73" y="20" width="1" height="1"/><rect class="cls-1" x="63" y="19" width="1" height="1"/><rect class="cls-1" x="59" y="19" width="1" height="1"/><rect class="cls-1" x="51" y="18" width="1" height="1"/><rect class="cls-1" x="54" y="16" width="1" height="1"/><rect class="cls-1" x="54" y="18" width="1" height="1"/><rect class="cls-1" x="57" y="19" width="1" height="1"/><rect class="cls-1" x="60" y="18" width="1" height="1"/><rect class="cls-1" x="67" y="18" width="1" height="1"/><rect class="cls-1" x="71" y="18" width="1" height="1"/><rect class="cls-1" x="77" y="20" width="1" height="1"/><rect class="cls-1" x="75" y="19" width="1" height="1"/><rect class="cls-1" x="78" y="18" width="1" height="1"/><rect class="cls-1" x="77" y="18" width="1" height="1"/><rect class="cls-1" x="74" y="18" width="1" height="1"/><rect class="cls-1" x="79" y="19" width="1" height="1"/><rect class="cls-1" x="77" y="19" width="1" height="1"/><rect class="cls-1" x="69" y="17" width="1" height="1"/><rect class="cls-1" x="71" y="16" width="1" height="1"/><rect class="cls-1" x="69" y="18" width="1" height="1"/><rect class="cls-1" x="63" y="16" width="1" height="1"/><rect class="cls-1" x="63" y="17" width="1" height="1"/><rect class="cls-1" x="63" y="18" width="1" height="1"/><rect class="cls-1" x="65" y="18" width="1" height="1"/><rect class="cls-1" x="63" y="20" width="1" height="1"/><rect class="cls-1" x="67" y="19" width="1" height="1"/><rect class="cls-1" x="71" y="20" width="1" height="1"/><rect class="cls-1" x="73" y="19" width="1" height="1"/><rect class="cls-1" x="71" y="19" width="1" height="1"/><rect class="cls-1" x="75" y="20" width="1" height="1"/><rect class="cls-1" x="79" y="20" width="1" height="1"/><rect class="cls-1" x="69" y="19" width="1" height="1"/><rect class="cls-1" x="65" y="19" width="1" height="1"/><rect class="cls-1" x="53" y="19" width="1" height="1"/><rect class="cls-1" x="53" y="20" width="1" height="1"/><rect class="cls-1" x="57" y="20" width="1" height="1"/><rect class="cls-1" x="61" y="20" width="1" height="1"/><rect class="cls-1" x="59" y="20" width="1" height="1"/><rect class="cls-1" x="50" y="17" width="1" height="1"/><rect class="cls-1" x="35" y="20" width="1" height="1"/><rect class="cls-1" x="37" y="20" width="1" height="1"/><rect class="cls-1" x="37" y="19" width="1" height="1"/><rect class="cls-1" x="40" y="20" width="1" height="1"/><rect class="cls-1" x="43" y="20" width="1" height="1"/><rect class="cls-1" x="45" y="20" width="1" height="1"/><rect class="cls-1" x="51" y="20" width="1" height="1"/><rect class="cls-1" x="36" y="18" width="1" height="1"/><rect class="cls-1" x="33" y="20" width="1" height="1"/><rect class="cls-1" x="31" y="18" width="1" height="1"/><rect class="cls-1" x="25" y="20" width="1" height="1"/><rect class="cls-1" x="27" y="20" width="1" height="1"/><rect class="cls-1" x="33" y="19" width="1" height="1"/><rect class="cls-1" x="31" y="19" width="1" height="1"/><rect class="cls-1" x="22" y="20" width="1" height="1"/><rect class="cls-1" x="14" y="17" width="1" height="1"/><rect class="cls-1" x="10" y="20" width="1" height="1"/><rect class="cls-1" x="12" y="20" width="1" height="1"/><rect class="cls-1" x="17" y="20" width="1" height="1"/><rect class="cls-1" x="15" y="20" width="1" height="1"/><rect class="cls-1" x="15" y="19" width="1" height="1"/><rect class="cls-1" x="17" y="19" width="1" height="1"/><rect class="cls-1" x="10" y="19" width="1" height="1"/><rect class="cls-1" y="20" width="1" height="1"/></g></g></g></g></svg>