<?xml version="1.0" encoding="utf-8"?>
<!-- Generator: Adobe Illustrator 22.1.0, SVG Export Plug-In . SVG Version: 6.00 Build 0)  -->
<svg version="1.1" id="Layer_1" xmlns="http://www.w3.org/2000/svg" xmlns:xlink="http://www.w3.org/1999/xlink" x="0px" y="0px"
	 viewBox="0 0 80 21" style="enable-background:new 0 0 80 21;" xml:space="preserve">
<style type="text/css">
	.st0{fill:#707070;}
</style>
<title>Asset 4</title>
<g id="Layer_2_1_">
	<g id="Layer_1-2">
		<g id="Layer_2-2">
			<g id="Layer_1-2-2">
				<rect y="15" class="st0" width="1" height="1"/>
				<rect x="1" y="15" class="st0" width="1" height="1"/>
				<rect x="1" y="16" class="st0" width="1" height="1"/>
				<rect x="1" y="17" class="st0" width="1" height="1"/>
				<rect y="17" class="st0" width="1" height="1"/>
				<rect y="18" class="st0" width="1" height="1"/>
				<rect x="1" y="20" class="st0" width="1" height="1"/>
				<rect x="2" y="19" class="st0" width="1" height="1"/>
				<rect x="2" y="18" class="st0" width="1" height="1"/>
				<rect x="3" y="17" class="st0" width="1" height="1"/>
				<rect x="4" y="18" class="st0" width="1" height="1"/>
				<rect x="4" y="19" class="st0" width="1" height="1"/>
				<rect x="3" y="19" class="st0" width="1" height="1"/>
				<rect x="4" y="17" class="st0" width="1" height="1"/>
				<rect x="9" y="16" class="st0" width="1" height="1"/>
				<rect x="9" y="17" class="st0" width="1" height="1"/>
				<rect x="16" y="17" class="st0" width="1" height="1"/>
				<rect x="20" y="19" class="st0" width="1" height="1"/>
				<rect x="19" y="17" class="st0" width="1" height="1"/>
				<rect x="18" y="17" class="st0" width="1" height="1"/>
				<rect x="24" y="17" class="st0" width="1" height="1"/>
				<rect x="25" y="18" class="st0" width="1" height="1"/>
				<rect x="28" y="20" class="st0" width="1" height="1"/>
				<rect x="28" y="19" class="st0" width="1" height="1"/>
				<rect x="23" y="18" class="st0" width="1" height="1"/>
				<rect x="26" y="18" class="st0" width="1" height="1"/>
				<rect x="15" y="18" class="st0" width="1" height="1"/>
				<rect x="11" y="17" class="st0" width="1" height="1"/>
				<rect x="10" y="17" class="st0" width="1" height="1"/>
				<rect x="12" y="18" class="st0" width="1" height="1"/>
				<rect x="9" y="18" class="st0" width="1" height="1"/>
				<rect x="8" y="19" class="st0" width="1" height="1"/>
				<rect x="11" y="19" class="st0" width="1" height="1"/>
				<rect x="7" y="20" class="st0" width="1" height="1"/>
				<rect x="10" y="20" class="st0" width="1" height="1"/>
				<rect x="6" y="20" class="st0" width="1" height="1"/>
				<rect x="9" y="20" class="st0" width="1" height="1"/>
				<rect x="6" y="19" class="st0" width="1" height="1"/>
				<rect x="6" y="18" class="st0" width="1" height="1"/>
				<rect x="8" y="17" class="st0" width="1" height="1"/>
				<rect x="15" y="17" class="st0" width="1" height="1"/>
				<rect x="23" y="17" class="st0" width="1" height="1"/>
				<rect x="28" y="18" class="st0" width="1" height="1"/>
				<rect x="29" y="20" class="st0" width="1" height="1"/>
				<rect x="33" y="20" class="st0" width="1" height="1"/>
				<rect x="34" y="20" class="st0" width="1" height="1"/>
				<rect x="28" y="17" class="st0" width="1" height="1"/>
				<rect x="32" y="18" class="st0" width="1" height="1"/>
				<rect x="32" y="16" class="st0" width="1" height="1"/>
				<rect x="34" y="19" class="st0" width="1" height="1"/>
				<rect x="32" y="17" class="st0" width="1" height="1"/>
				<rect x="32" y="15" class="st0" width="1" height="1"/>
				<rect x="31" y="15" class="st0" width="1" height="1"/>
				<rect x="36" y="20" class="st0" width="1" height="1"/>
				<rect x="34" y="18" class="st0" width="1" height="1"/>
				<rect x="26" y="17" class="st0" width="1" height="1"/>
				<rect x="27" y="17" class="st0" width="1" height="1"/>
				<rect x="34" y="17" class="st0" width="1" height="1"/>
				<rect x="33" y="17" class="st0" width="1" height="1"/>
				<rect x="37" y="18" class="st0" width="1" height="1"/>
				<rect x="40" y="20" class="st0" width="1" height="1"/>
				<rect x="40" y="19" class="st0" width="1" height="1"/>
				<rect x="42" y="20" class="st0" width="1" height="1"/>
				<rect x="43" y="19" class="st0" width="1" height="1"/>
				<rect x="50" y="18" class="st0" width="1" height="1"/>
				<rect x="47" y="18" class="st0" width="1" height="1"/>
				<rect x="56" y="17" class="st0" width="1" height="1"/>
				<rect x="59" y="19" class="st0" width="1" height="1"/>
				<rect x="59" y="18" class="st0" width="1" height="1"/>
				<rect x="51" y="17" class="st0" width="1" height="1"/>
				<rect x="55" y="19" class="st0" width="1" height="1"/>
				<rect x="47" y="19" class="st0" width="1" height="1"/>
				<rect x="52" y="19" class="st0" width="1" height="1"/>
				<rect x="52" y="18" class="st0" width="1" height="1"/>
				<rect x="54" y="20" class="st0" width="1" height="1"/>
				<rect x="53" y="20" class="st0" width="1" height="1"/>
				<rect x="56" y="20" class="st0" width="1" height="1"/>
				<rect x="45" y="20" class="st0" width="1" height="1"/>
				<rect x="39" y="18" class="st0" width="1" height="1"/>
				<rect x="39" y="20" class="st0" width="1" height="1"/>
				<rect x="43" y="20" class="st0" width="1" height="1"/>
				<rect x="46" y="19" class="st0" width="1" height="1"/>
				<rect x="38" y="20" class="st0" width="1" height="1"/>
				<rect x="37" y="17" class="st0" width="1" height="1"/>
				<rect x="42" y="17" class="st0" width="1" height="1"/>
				<rect x="45" y="19" class="st0" width="1" height="1"/>
				<rect x="46" y="20" class="st0" width="1" height="1"/>
				<rect x="50" y="20" class="st0" width="1" height="1"/>
				<rect x="50" y="19" class="st0" width="1" height="1"/>
				<rect x="57" y="20" class="st0" width="1" height="1"/>
				<rect x="59" y="20" class="st0" width="1" height="1"/>
				<rect x="54" y="19" class="st0" width="1" height="1"/>
				<rect x="47" y="20" class="st0" width="1" height="1"/>
				<rect x="51" y="20" class="st0" width="1" height="1"/>
				<rect x="39" y="17" class="st0" width="1" height="1"/>
				<rect x="45" y="17" class="st0" width="1" height="1"/>
				<rect x="46" y="17" class="st0" width="1" height="1"/>
				<rect x="42" y="18" class="st0" width="1" height="1"/>
				<rect x="43" y="17" class="st0" width="1" height="1"/>
				<rect x="49" y="20" class="st0" width="1" height="1"/>
				<rect x="53" y="19" class="st0" width="1" height="1"/>
				<rect x="49" y="17" class="st0" width="1" height="1"/>
				<rect x="45" y="18" class="st0" width="1" height="1"/>
				<rect x="50" y="17" class="st0" width="1" height="1"/>
				<rect x="59" y="17" class="st0" width="1" height="1"/>
				<rect x="65" y="18" class="st0" width="1" height="1"/>
				<rect x="71" y="19" class="st0" width="1" height="1"/>
				<rect x="60" y="17" class="st0" width="1" height="1"/>
				<rect x="69" y="17" class="st0" width="1" height="1"/>
				<rect x="69" y="16" class="st0" width="1" height="1"/>
				<rect x="64" y="17" class="st0" width="1" height="1"/>
				<rect x="57" y="19" class="st0" width="1" height="1"/>
				<rect x="62" y="20" class="st0" width="1" height="1"/>
				<rect x="57" y="17" class="st0" width="1" height="1"/>
				<rect x="63" y="20" class="st0" width="1" height="1"/>
				<rect x="67" y="20" class="st0" width="1" height="1"/>
				<rect x="71" y="20" class="st0" width="1" height="1"/>
				<rect x="66" y="20" class="st0" width="1" height="1"/>
				<rect x="65" y="20" class="st0" width="1" height="1"/>
				<rect x="69" y="19" class="st0" width="1" height="1"/>
				<rect x="61" y="20" class="st0" width="1" height="1"/>
				<rect x="62" y="18" class="st0" width="1" height="1"/>
				<rect x="61" y="19" class="st0" width="1" height="1"/>
				<rect x="65" y="19" class="st0" width="1" height="1"/>
				<rect x="61" y="18" class="st0" width="1" height="1"/>
				<rect x="61" y="17" class="st0" width="1" height="1"/>
				<rect x="68" y="17" class="st0" width="1" height="1"/>
				<rect x="73" y="19" class="st0" width="1" height="1"/>
				<rect x="67" y="17" class="st0" width="1" height="1"/>
				<rect x="74" y="17" class="st0" width="1" height="1"/>
				<rect x="79" y="18" class="st0" width="1" height="1"/>
				<rect x="78" y="17" class="st0" width="1" height="1"/>
				<rect x="71" y="15" class="st0" width="1" height="1"/>
				<rect x="66" y="17" class="st0" width="1" height="1"/>
				<rect x="71" y="17" class="st0" width="1" height="1"/>
				<rect x="74" y="20" class="st0" width="1" height="1"/>
				<rect x="70" y="17" class="st0" width="1" height="1"/>
				<rect x="73" y="17" class="st0" width="1" height="1"/>
				<rect x="77" y="18" class="st0" width="1" height="1"/>
				<rect x="77" y="17" class="st0" width="1" height="1"/>
				<rect x="76" y="17" class="st0" width="1" height="1"/>
				<rect x="75" y="18" class="st0" width="1" height="1"/>
				<rect x="75" y="19" class="st0" width="1" height="1"/>
				<rect x="72" y="18" class="st0" width="1" height="1"/>
				<rect x="69" y="18" class="st0" width="1" height="1"/>
				<rect x="63" y="15" class="st0" width="1" height="1"/>
				<rect x="62" y="15" class="st0" width="1" height="1"/>
				<rect x="63" y="16" class="st0" width="1" height="1"/>
				<rect x="63" y="17" class="st0" width="1" height="1"/>
				<rect x="67" y="18" class="st0" width="1" height="1"/>
				<rect x="63" y="18" class="st0" width="1" height="1"/>
				<rect x="63" y="19" class="st0" width="1" height="1"/>
				<rect x="67" y="19" class="st0" width="1" height="1"/>
				<rect x="71" y="18" class="st0" width="1" height="1"/>
				<rect x="69" y="20" class="st0" width="1" height="1"/>
				<rect x="73" y="20" class="st0" width="1" height="1"/>
				<rect x="79" y="20" class="st0" width="1" height="1"/>
				<rect x="78" y="20" class="st0" width="1" height="1"/>
				<rect x="77" y="20" class="st0" width="1" height="1"/>
				<rect x="76" y="20" class="st0" width="1" height="1"/>
				<rect x="70" y="20" class="st0" width="1" height="1"/>
				<rect x="56" y="18" class="st0" width="1" height="1"/>
				<rect x="54" y="16" class="st0" width="1" height="1"/>
				<rect x="54" y="17" class="st0" width="1" height="1"/>
				<rect x="53" y="17" class="st0" width="1" height="1"/>
				<rect x="55" y="18" class="st0" width="1" height="1"/>
				<rect x="60" y="20" class="st0" width="1" height="1"/>
				<rect x="37" y="20" class="st0" width="1" height="1"/>
				<rect x="36" y="17" class="st0" width="1" height="1"/>
				<rect x="40" y="17" class="st0" width="1" height="1"/>
				<rect x="29" y="18" class="st0" width="1" height="1"/>
				<rect x="35" y="19" class="st0" width="1" height="1"/>
				<rect x="25" y="20" class="st0" width="1" height="1"/>
				<rect x="22" y="19" class="st0" width="1" height="1"/>
				<rect x="27" y="20" class="st0" width="1" height="1"/>
				<rect x="32" y="19" class="st0" width="1" height="1"/>
				<rect x="32" y="20" class="st0" width="1" height="1"/>
				<rect x="26" y="20" class="st0" width="1" height="1"/>
				<rect x="26" y="19" class="st0" width="1" height="1"/>
				<rect x="24" y="19" class="st0" width="1" height="1"/>
				<rect x="19" y="19" class="st0" width="1" height="1"/>
				<rect x="18" y="19" class="st0" width="1" height="1"/>
				<rect x="19" y="20" class="st0" width="1" height="1"/>
				<rect x="20" y="18" class="st0" width="1" height="1"/>
				<rect x="14" y="20" class="st0" width="1" height="1"/>
				<rect x="13" y="20" class="st0" width="1" height="1"/>
				<rect x="13" y="19" class="st0" width="1" height="1"/>
				<rect x="14" y="18" class="st0" width="1" height="1"/>
				<rect x="17" y="18" class="st0" width="1" height="1"/>
				<rect x="17" y="19" class="st0" width="1" height="1"/>
				<rect x="18" y="20" class="st0" width="1" height="1"/>
				<rect x="23" y="19" class="st0" width="1" height="1"/>
				<rect x="24" y="20" class="st0" width="1" height="1"/>
				<rect x="23" y="20" class="st0" width="1" height="1"/>
				<rect x="13" y="17" class="st0" width="1" height="1"/>
				<rect x="7" y="17" class="st0" width="1" height="1"/>
				<rect x="12" y="20" class="st0" width="1" height="1"/>
				<rect x="9" y="19" class="st0" width="1" height="1"/>
				<rect x="16" y="20" class="st0" width="1" height="1"/>
				<rect x="6" y="17" class="st0" width="1" height="1"/>
				<rect x="15" y="20" class="st0" width="1" height="1"/>
				<rect x="15" y="19" class="st0" width="1" height="1"/>
				<rect x="5" y="19" class="st0" width="1" height="1"/>
				<rect x="3" y="20" class="st0" width="1" height="1"/>
				<rect x="4" y="20" class="st0" width="1" height="1"/>
				<rect y="20" class="st0" width="1" height="1"/>
			</g>
		</g>
		<g id="Layer_2-3">
			<g id="Layer_1-2-3">
				<rect y="2" class="st0" width="1" height="1"/>
				<rect y="1" class="st0" width="1" height="1"/>
				<rect x="3" y="2" class="st0" width="1" height="1"/>
				<rect x="6" y="2" class="st0" width="1" height="1"/>
				<rect x="10" y="2" class="st0" width="1" height="1"/>
				<rect x="12" y="3" class="st0" width="1" height="1"/>
				<rect x="8" y="1" class="st0" width="1" height="1"/>
				<rect x="2" y="3" class="st0" width="1" height="1"/>
				<rect x="5" y="3" class="st0" width="1" height="1"/>
				<rect x="2" y="4" class="st0" width="1" height="1"/>
				<rect x="6" y="4" class="st0" width="1" height="1"/>
				<rect x="5" y="4" class="st0" width="1" height="1"/>
				<rect y="3" class="st0" width="1" height="1"/>
				<rect y="0" class="st0" width="1" height="1"/>
				<rect x="8" y="2" class="st0" width="1" height="1"/>
				<rect x="8" y="3" class="st0" width="1" height="1"/>
				<rect x="8" y="4" class="st0" width="1" height="1"/>
				<rect x="12" y="2" class="st0" width="1" height="1"/>
				<rect x="15" y="2" class="st0" width="1" height="1"/>
				<rect x="18" y="2" class="st0" width="1" height="1"/>
				<rect x="25" y="2" class="st0" width="1" height="1"/>
				<rect x="26" y="2" class="st0" width="1" height="1"/>
				<rect x="31" y="0" class="st0" width="1" height="1"/>
				<rect x="31" y="1" class="st0" width="1" height="1"/>
				<rect x="35" y="3" class="st0" width="1" height="1"/>
				<rect x="31" y="4" class="st0" width="1" height="1"/>
				<rect x="23" y="2" class="st0" width="1" height="1"/>
				<rect x="25" y="3" class="st0" width="1" height="1"/>
				<rect x="22" y="3" class="st0" width="1" height="1"/>
				<rect x="27" y="3" class="st0" width="1" height="1"/>
				<rect x="33" y="2" class="st0" width="1" height="1"/>
				<rect x="37" y="2" class="st0" width="1" height="1"/>
				<rect x="40" y="3" class="st0" width="1" height="1"/>
				<rect x="43" y="3" class="st0" width="1" height="1"/>
				<rect x="45" y="3" class="st0" width="1" height="1"/>
				<rect x="39" y="2" class="st0" width="1" height="1"/>
				<rect x="42" y="2" class="st0" width="1" height="1"/>
				<rect x="46" y="2" class="st0" width="1" height="1"/>
				<rect x="51" y="3" class="st0" width="1" height="1"/>
				<rect x="56" y="2" class="st0" width="1" height="1"/>
				<rect x="61" y="3" class="st0" width="1" height="1"/>
				<rect x="65" y="4" class="st0" width="1" height="1"/>
				<rect x="69" y="4" class="st0" width="1" height="1"/>
				<rect x="67" y="4" class="st0" width="1" height="1"/>
				<rect x="73" y="4" class="st0" width="1" height="1"/>
				<rect x="63" y="3" class="st0" width="1" height="1"/>
				<rect x="59" y="3" class="st0" width="1" height="1"/>
				<rect x="51" y="2" class="st0" width="1" height="1"/>
				<rect x="54" y="0" class="st0" width="1" height="1"/>
				<rect x="54" y="2" class="st0" width="1" height="1"/>
				<rect x="57" y="3" class="st0" width="1" height="1"/>
				<rect x="60" y="2" class="st0" width="1" height="1"/>
				<rect x="67" y="2" class="st0" width="1" height="1"/>
				<rect x="71" y="2" class="st0" width="1" height="1"/>
				<rect x="77" y="4" class="st0" width="1" height="1"/>
				<rect x="75" y="3" class="st0" width="1" height="1"/>
				<rect x="78" y="2" class="st0" width="1" height="1"/>
				<rect x="77" y="2" class="st0" width="1" height="1"/>
				<rect x="74" y="2" class="st0" width="1" height="1"/>
				<rect x="79" y="3" class="st0" width="1" height="1"/>
				<rect x="77" y="3" class="st0" width="1" height="1"/>
				<rect x="69" y="1" class="st0" width="1" height="1"/>
				<rect x="71" y="0" class="st0" width="1" height="1"/>
				<rect x="69" y="2" class="st0" width="1" height="1"/>
				<rect x="63" y="0" class="st0" width="1" height="1"/>
				<rect x="63" y="1" class="st0" width="1" height="1"/>
				<rect x="63" y="2" class="st0" width="1" height="1"/>
				<rect x="65" y="2" class="st0" width="1" height="1"/>
				<rect x="63" y="4" class="st0" width="1" height="1"/>
				<rect x="67" y="3" class="st0" width="1" height="1"/>
				<rect x="71" y="4" class="st0" width="1" height="1"/>
				<rect x="73" y="3" class="st0" width="1" height="1"/>
				<rect x="71" y="3" class="st0" width="1" height="1"/>
				<rect x="75" y="4" class="st0" width="1" height="1"/>
				<rect x="79" y="4" class="st0" width="1" height="1"/>
				<rect x="69" y="3" class="st0" width="1" height="1"/>
				<rect x="65" y="3" class="st0" width="1" height="1"/>
				<rect x="53" y="3" class="st0" width="1" height="1"/>
				<rect x="53" y="4" class="st0" width="1" height="1"/>
				<rect x="57" y="4" class="st0" width="1" height="1"/>
				<rect x="61" y="4" class="st0" width="1" height="1"/>
				<rect x="59" y="4" class="st0" width="1" height="1"/>
				<rect x="50" y="1" class="st0" width="1" height="1"/>
				<rect x="35" y="4" class="st0" width="1" height="1"/>
				<rect x="37" y="4" class="st0" width="1" height="1"/>
				<rect x="37" y="3" class="st0" width="1" height="1"/>
				<rect x="40" y="4" class="st0" width="1" height="1"/>
				<rect x="43" y="4" class="st0" width="1" height="1"/>
				<rect x="45" y="4" class="st0" width="1" height="1"/>
				<rect x="51" y="4" class="st0" width="1" height="1"/>
				<rect x="36" y="2" class="st0" width="1" height="1"/>
				<rect x="33" y="4" class="st0" width="1" height="1"/>
				<rect x="31" y="2" class="st0" width="1" height="1"/>
				<rect x="25" y="4" class="st0" width="1" height="1"/>
				<rect x="27" y="4" class="st0" width="1" height="1"/>
				<rect x="33" y="3" class="st0" width="1" height="1"/>
				<rect x="31" y="3" class="st0" width="1" height="1"/>
				<rect x="22" y="4" class="st0" width="1" height="1"/>
				<rect x="14" y="1" class="st0" width="1" height="1"/>
				<rect x="10" y="4" class="st0" width="1" height="1"/>
				<rect x="12" y="4" class="st0" width="1" height="1"/>
				<rect x="17" y="4" class="st0" width="1" height="1"/>
				<rect x="15" y="4" class="st0" width="1" height="1"/>
				<rect x="15" y="3" class="st0" width="1" height="1"/>
				<rect x="17" y="3" class="st0" width="1" height="1"/>
				<rect x="10" y="3" class="st0" width="1" height="1"/>
				<rect y="4" class="st0" width="1" height="1"/>
			</g>
		</g>
	</g>
</g>
</svg>
