<?xml version="1.0" encoding="utf-8"?>
<!-- Generator: Adobe Illustrator 22.1.0, SVG Export Plug-In . SVG Version: 6.00 Build 0)  -->
<svg version="1.1" id="Layer_1" xmlns="http://www.w3.org/2000/svg" xmlns:xlink="http://www.w3.org/1999/xlink" x="0px" y="0px"
	 viewBox="0 0 1242 2688" style="enable-background:new 0 0 1242 2688;" xml:space="preserve">
<style type="text/css">
	.st0{fill:#FFFFFF;}
	.st1{clip-path:url(#SVGID_2_);fill:#333333;}
	.st2{fill:#333333;}
	.st3{clip-path:url(#SVGID_4_);fill:#333333;}
</style>
<rect class="st0" width="1242" height="2688"/>
<g>
	<defs>
		<rect id="SVGID_1_" width="1242" height="2688"/>
	</defs>
	<clipPath id="SVGID_2_">
		<use xlink:href="#SVGID_1_"  style="overflow:visible;"/>
	</clipPath>
	<path class="st1" d="M470.1,774.1c-48.8-12.8-75.2-42.4-75.2-90.4c0-40.8,38.4-72,84.8-87.2c-31.2-23.2-52.8-61.6-52.8-112
		c0-100.8,76.8-159.2,188.8-159.2c66.4,0,118.4,21.6,157.6,64c17.6-43.2,52-57.6,74.4-57.6c12.8,0,25.6,0,36.8,6.4l-20,100.8
		c-4.8-5.6-12.8-8.8-25.6-8.8c-21.6,0-36,18.4-36,29.6c0,12,1.6,23.2,1.6,28.8c0,92.8-80,147.2-190.4,147.2
		c-35.2,0-69.6-6.4-88-11.2c-14.4,4-25.6,16-25.6,26.4c0,24,29.6,36,136.8,36c126.4,0,152.8,12,179.2,31.2
		c24.8,17.6,43.2,44,43.2,96c0,107.2-83.2,144-243.2,144c-152.8,0-227.2-28.8-227.2-104.8C389.3,809.3,428.5,788.5,470.1,774.1
		 M502.9,822.9c0,29.6,31.2,44.8,117.6,44.8c73.6,0,118.4-12,118.4-40.8c0-3.2,0-13.6-5.6-20c-16.8-17.6-71.2-12.8-122.4-14.4
		c-45.6-1.6-61.6-1.6-84.8-4C513.3,794.1,502.9,803.7,502.9,822.9 M538.9,484.5c0,40.8,29.6,62.4,77.6,62.4c48.8,0,76-22.4,76-63.2
		c0-41.6-25.6-67.2-75.2-67.2C566.1,416.5,538.9,442.9,538.9,484.5"/>
</g>
<g>
	<path class="st2" d="M549.1,2520v-21.8h6.1l-0.1,3.9c0-0.9,2.4-4.5,7.4-4.5c3.6,0,5.4,2,6.2,4.4c0.2-1,2.7-4.4,7.5-4.4
		c5.6,0,7,4.5,7,8.4v14H577v-12.8c0.1-2.8-1.7-4.2-3.8-4.2c-2.9,0-4,2.8-4,5.9v11.2h-6.1v-12.8c0-2.8-1.7-4.2-3.9-4.2
		c-2.8,0-4,2.8-4,5.9v11.2H549.1z"/>
	<path class="st2" d="M600.5,2487.5c1.8,0,3.4,1.5,3.4,3.4s-1.5,3.4-3.4,3.4s-3.4-1.5-3.4-3.4S598.7,2487.5,600.5,2487.5z
		 M603.6,2498.1v21.8h-6.2v-21.8H603.6z"/>
	<path class="st2" d="M624.5,2520h-6.2v-32.2h6.2V2520z"/>
	<path class="st2" d="M648.6,2497.6c6.4,0,11.1,4.4,11.1,11.4c0,7.2-4.6,11.6-11.1,11.6s-11.1-4.4-11.1-11.6
		C637.5,2501.9,642.1,2497.6,648.6,2497.6z M648.6,2515.7c3.5,0,5-2.8,5-6.7c0-4.1-1.6-6.6-5-6.6s-5,2.5-5,6.6
		C643.6,2512.9,645.1,2515.7,648.6,2515.7z"/>
	<path class="st2" d="M672.2,2498.1h6.1v12.9c0,2.8,1.7,4.2,4,4.2c2.8,0,4.4-2.8,4.4-5.8v-11.2h6.2v21.8h-6.2l0.2-3.8
		c-0.1,0.9-3,4.4-8,4.4c-5.6,0-6.7-4.4-6.7-8.4V2498.1z"/>
</g>
<g>
	<defs>
		<rect id="SVGID_3_" width="1242" height="2688"/>
	</defs>
	<clipPath id="SVGID_4_">
		<use xlink:href="#SVGID_3_"  style="overflow:visible;"/>
	</clipPath>
	<path class="st3" d="M344.1,1075.2H390v96.9c0,20.7,12.6,31.2,29.7,31.2c20.7,0,33.3-20.7,33.3-43.8v-84.3h46.5v163.5H453l1.5-28.5
		c-0.6,6.6-22.8,33-60,33c-42.3,0-50.4-33.3-50.4-63V1075.2z"/>
	<polygon class="st3" points="795.8,1075.2 829.7,1186.5 866.9,1075.2 911.9,1075.2 854.3,1239 803.9,1239 746,1075.2 	"/>
	<path class="st3" d="M326.4,1319h28.9v63c5.6-8.6,14.4-17.1,30.8-17.1c24.6,0,42.9,19.3,42.9,53.1c0,33.2-15.2,54.6-42.2,54.6
		c-16.5,0-27.2-7.5-32.1-17.1l0.6,14.4h-28.9V1319z M378.2,1448.4c15.6,0,21.9-10.5,21.9-30.4c0-18.4-7.5-29.4-22.5-29.4
		c-13.7,0-23.4,12-23.4,29.3C354.2,1438.6,363,1448.4,378.2,1448.4"/>
	<path class="st3" d="M583.8,1391.2v-23.6h17.4v-15.8c0-21.6,10.5-34.1,31.5-34.1c10.7,0,19.5,3.9,24.8,7.7l-5.6,21.2h-0.8
		c-2.6-2.8-6.9-3.9-11.1-3.9c-5.8,0-9.9,3.9-9.9,10.5v14.4h21.8v23.6h-21.8v78.8h-28.9v-78.8H583.8z"/>
	<path class="st3" d="M874.9,1317.7c8.6,0,15.8,7.1,15.8,15.8s-7.1,15.8-15.8,15.8s-15.8-7.1-15.8-15.8S866.3,1317.7,874.9,1317.7
		 M889.3,1470h-28.9v-102.4h28.9V1470z"/>
	<path class="st3" d="M483.5,1669.5v-81.7h22.9l-0.4,14.6c0.1-3.5,9.1-16.8,27.9-16.8c13.7,0,20.2,7.4,23.2,16.3
		c0.8-3.8,10-16.3,28-16.3c21.1,0,26.4,16.9,26.4,31.5v52.5h-23.4v-48.1c0.5-10.7-6.3-15.9-14.4-15.9c-10.8,0-14.8,10.3-14.8,22.2
		v41.8H536v-48.1c0-10.7-6.3-15.9-14.7-15.9c-10.3,0-14.8,10.3-14.8,22.2v41.8H483.5z"/>
	<polygon class="st3" points="473,1751.5 473,1795.7 491.3,1775.8 508,1775.8 489,1796.2 508.7,1827 492.9,1827 479.8,1806.1 
		473,1813.3 473,1827 458.7,1827 458.7,1751.5 	"/>
	<path class="st3" d="M551.7,1933.1h11.5l-0.2,7.3c0.1-1.7,4-8.4,9.7-8.4c2.6,0,4.1,0.5,6.3,2.2l-4.8,10.4c-0.6-0.4-1.7-1-3.4-1
		c-5.7,0-7.6,3.5-7.6,9.4v20.9h-11.5V1933.1z"/>
	<path class="st3" d="M394.1,2072.3c0-7.8,5.5-10.4,12-10.4c6.7,0,11.4,2.9,11.4,9.1c0,3.3-1.8,5.8-4.8,6.8c3.8,1,6.7,4.7,6.7,10.8
		c0,7.8-3.7,12-10.6,12c-1.8,0-3.4-0.6-4.5-1l0.3-5.5h0.1c0.7,0.3,1.4,0.7,2.5,0.7c2.9,0,4.8-1.8,4.8-6.7c0-5.2-2.3-7.3-7.2-7.2
		v-5.2c3.8,0,5.6-2.6,5.6-4.4c0-2.5-1.4-4.1-4.3-4.1c-3,0-4.7,1.6-4.7,4.4v28.4h-7.2V2072.3z"/>
	<path class="st3" d="M498.4,2074.4h4.4v-3.7c2.4-1.4,5-3.5,7-5.9h0.1v9.6h5.4v5.9H510v11.8c0,1.9,1.4,2.2,2.6,2.2
		c0.7,0,1.7-0.2,2.3-0.7h0.1l-0.3,6.2c-0.8,0.3-1.7,0.8-4.9,0.8c-3.3,0-7-1.8-7-7.2v-13.2h-4.4V2074.4z"/>
	<rect x="608.4" y="2062.2" class="st3" width="7.2" height="37.7"/>
	<path class="st3" d="M798.8,2090.8v-16.4h7.2v15.1c0,3.2,2,4.9,4.6,4.9c3.2,0,4.6-3.2,4.6-6.8v-13.2h7.2v15.1
		c-0.1,3.2,2,4.9,4.6,4.9c3.2,0,4.5-3.2,4.5-6.8v-13.2h7.3v25.5h-7.3l0.2-4.5c-0.1,1-2.9,5.2-8.7,5.2c-4.3,0-6.4-2.2-7.3-5.1
		c-0.2,1.2-3.1,5.1-8.8,5.1C800.5,2100.6,798.8,2095.4,798.8,2090.8"/>
	<path class="st3" d="M702.8,2074.3h7.2l-0.1,3.6c1.3-2.3,3.9-4.2,8-4.2c6.8,0,10.5,5.3,10.5,13.7c0,8.3-4.5,12.8-10.7,12.8
		c-4.2,0-6.4-1.7-7.8-3.9v14.2h-7.2V2074.3z M715.7,2094c3.7,0,5.5-2.1,5.5-6.8c0-5-1.6-7.5-5.4-7.5s-6,2.4-6,7.6
		C709.7,2091.7,712.2,2094,715.7,2094"/>
	<polygon class="st3" points="918.8,2086.7 909.7,2074.4 918.3,2074.4 923,2080.8 927.8,2074.4 935.6,2074.4 926.8,2086.4 
		936.6,2100 928.4,2100 922.7,2092.2 917.1,2100 909,2100 	"/>
	<path class="st3" d="M309.6,2073.7c6.6,0,13,3.9,12.5,15.1h-18.2c0.5,3.9,2.5,6,6,6c3,0,5-1,6-3.8l6.1,2c-1.8,4.7-5.7,7.6-12.2,7.6
		c-7.5,0-13-4.7-13-13.4C296.8,2078.8,302,2073.7,309.6,2073.7 M304,2084.1l10.9,0c-0.4-2.9-2-4.6-5.3-4.6
		C306.5,2079.4,304.6,2081,304,2084.1"/>
	<path class="st3" d="M392.5,2184.6l-0.1,3.6c0-0.9,2.8-4.2,7.5-4.2c5.2,0,6.3,4.2,6.3,7.9v13.1h-5.8v-12c0.1-2.7-1.6-4-3.6-4
		c-2.7,0-4.2,2.6-4.2,5.6v10.5h-5.7v-20.4H392.5z"/>
	<path class="st3" d="M296.2,2199.8c0-5.6,5.3-7.2,13.5-7.7c0-2.8-1-3.4-3.5-3.4c-2.9,0-4.5,1-5.7,3l-3.8-3
		c2.2-3.3,5.7-4.7,10.1-4.7c4.5,0,8.6,1.6,8.6,6.8v8.4c-0.1,1.3,0.5,1.8,1.5,1.8c0.3,0,0.7-0.1,1-0.2c-0.3,1.1-0.9,4.1-0.9,4.1
		c-1.2,0.4-1.9,0.3-2.5,0.3c-2.2,0-4.1-0.8-4.7-2.8c-1.3,1.9-3.4,3.1-6.8,3.1C299.4,2205.5,296.2,2203.8,296.2,2199.8 M301.9,2199.2
		c0,1.3,1,2,2.5,2c2.7,0,5.4-1.7,5.4-5.1C305,2196.3,301.9,2197.1,301.9,2199.2"/>
	<path class="st3" d="M475.6,2194.8c0-6.6,4.4-10.8,10.4-10.8c4.7,0,7.7,2.1,9.2,6l-4.8,2.4c-0.8-2.2-2-3.6-4.4-3.6
		c-2.9,0-4.6,1.9-4.6,5.8s1.5,6.3,4.6,6.3c2.4,0,3.8-1.3,4.5-3.7l4.8,2.5c-1.6,3.7-4.4,5.9-9.4,5.9h-0.3l-1.2,1.4
		c0.4-0.2,1-0.4,1.6-0.4c2.2,0,4.1,1.4,4.1,3.7c0,2.4-2.1,3.7-4.9,3.7c-2.1,0-3.5-0.6-4.5-2.1l1.9-1.9c0.3,0.5,1,1.5,2.5,1.5
		c1,0,1.7-0.4,1.7-1.3c0-0.7-0.4-1.2-1.3-1.4c-0.6-0.2-1.4-0.2-2.3,0.4l-2.3-1.4l1.8-2.6C477.9,2203.8,475.6,2199.5,475.6,2194.8"/>
	<path class="st3" d="M575.4,2184c6,0,10.4,4.1,10.4,10.7c0,6.8-4.3,10.8-10.4,10.8c-6.1,0-10.4-4.1-10.4-10.8
		C565,2188.1,569.4,2184,575.4,2184 M575.4,2201c3.3,0,4.7-2.6,4.7-6.3c0-3.8-1.5-6.1-4.7-6.1c-3.2,0-4.7,2.3-4.7,6.1
		C570.8,2198.4,572.2,2201,575.4,2201"/>
	<polygon class="st3" points="658.9,2184.5 663.2,2198.4 667.8,2184.5 673.5,2184.5 666.3,2205 660,2205 652.7,2184.5 	"/>
	<path class="st3" d="M739.8,2197.9c1.4,1.8,3.1,3,6.6,3c2.4,0,3.6-0.6,3.6-1.8c0-1.4-1.1-1.5-4.8-1.9c-4.6-0.6-7.9-1.8-7.9-6.7
		c0-4.6,4-6.4,8.8-6.4c4.4,0,7.4,1.3,9.1,3.2l-3.3,3.6c-1.2-1.4-3-2.3-5.9-2.3c-2.7,0-3.7,0.8-3.7,1.6c0,1.2,1,1.6,4.3,1.9
		c4.4,0.4,8.9,1.5,8.9,6.7c0,4.4-3.1,6.8-9.1,6.8c-5,0-8.4-1.6-10.4-4.5L739.8,2197.9z"/>
	<path class="st3" d="M834.4,2184c5.3,0,10.4,3.2,10,12.1h-14.6c0.4,3.1,2,4.8,4.8,4.8c2.4,0,4-0.8,4.8-3l4.9,1.6
		c-1.4,3.8-4.5,6.1-9.8,6.1c-6,0-10.4-3.8-10.4-10.7C824.2,2188.1,828.4,2184,834.4,2184 M829.9,2192.3l8.7,0
		c-0.3-2.3-1.6-3.7-4.2-3.7C832,2188.6,830.4,2189.8,829.9,2192.3"/>
	<path class="st3" d="M915.9,2184.5h5.7v12.1c0,2.6,1.6,3.9,3.7,3.9c2.6,0,4.2-2.6,4.2-5.5v-10.5h5.8v20.4h-5.8l0.2-3.6
		c-0.1,0.8-2.9,4.1-7.5,4.1c-5.3,0-6.3-4.2-6.3-7.9V2184.5z"/>
	<path class="st3" d="M304.3,1933h13l9.1,27.1l9.1-27.1h11.7l-15.7,43.9c-2.2,5.9-4.8,10.1-7.6,12.2c-2.4,1.9-5.6,2.6-9.3,2.6
		c-3.1,0-6.1-0.5-7.9-1.9l1.3-9.8h0.4c1.1,0.8,2.8,1.3,4.8,1.3c3.4,0,6.1-2.5,7.3-6.1L304.3,1933z"/>
	<path class="st3" d="M442.6,1932c12.1,0,20.8,8.2,20.8,21.4c0,13.5-8.5,21.7-20.8,21.7c-12.2,0-20.8-8.2-20.8-21.7
		C421.9,1940.1,430.6,1932,442.6,1932 M442.6,1965.9c6.5,0,9.3-5.2,9.3-12.6c0-7.6-3-12.3-9.3-12.3c-6.3,0-9.3,4.6-9.3,12.3
		C433.4,1960.7,436.2,1965.9,442.6,1965.9"/>
	<path class="st3" d="M656.2,1989.6l0.5-9.4h0.2c1.6,0.8,2,1.1,3.7,1.1c2.1,0,3.8-1.1,3.8-4.1v-44.3h11.5v46.3
		c0,7.6-4.7,12.1-11.7,12.1C660.5,1991.3,658.1,1990.5,656.2,1989.6 M676.4,1919.4c0,3.4-2.8,6.3-6.3,6.3c-3.5,0-6.3-2.9-6.3-6.3
		c0-3.5,2.8-6.3,6.3-6.3C673.6,1913.1,676.4,1915.8,676.4,1919.4"/>
	<path class="st3" d="M779.3,1913.8v26.8c0-1.6,5.2-8.4,14.7-8.4c10.5,0,12.6,8.4,12.6,15.7v26.2H795V1950c0.1-5.2-3.2-7.9-7.4-7.9
		c-5.2,0-8.4,5.2-8.4,11v21h-11.5v-60.4H779.3z"/>
	<path class="st3" d="M904.2,1932c6.7,0,10.9,3,12.8,6.7l-0.2-5.8h11.5v57.9h-11.5v-22.6c-2.2,3.5-5.7,6.3-12.4,6.3
		c-9.9,0-17.1-7.2-17.1-20.5C887.3,1940.5,893.3,1932,904.2,1932 M898.8,1953.6c0,7.4,3,10.8,9.1,10.8c5.3,0,9.2-3.8,9.2-10.6
		c0-8.3-3.5-12.2-9.6-12.2C901.4,1941.6,898.8,1945.7,898.8,1953.6"/>
	<path class="st3" d="M308.2,1801.4c0-16.5,10.9-26.9,26-26.9c11.6,0,19.3,5.2,22.9,15l-11.9,5.9c-1.9-5.6-5.1-9.1-10.9-9.1
		c-7.2,0-11.4,4.7-11.4,14.5c0,9.8,3.8,15.8,11.5,15.8c6,0,9.4-3.4,11.2-9.3l12.1,6.2c-3.9,9.2-11.1,14.7-23.5,14.7
		C316.6,1828.3,308.2,1815.6,308.2,1801.4"/>
	<polygon class="st3" points="643.1,1827 599.1,1827 599.1,1816.1 624.8,1787.4 600.7,1787.4 600.7,1775.8 642.9,1775.8 642.9,1786 
		616.9,1815.3 643.1,1815.3 	"/>
	<path class="st3" d="M733.5,1801c0-16.9,9.1-26.5,21.4-26.5c8.2,0,12.7,4.2,15.5,8.5v-31.5h14.4v75.5h-14.4l0.2-7.2
		c-2.3,4.8-7.7,8.5-15.9,8.5C741,1828.3,733.5,1817.6,733.5,1801 M758.8,1816.1c7.7,0,12.1-4.8,12.1-15.2c0-8.6-4.9-14.6-11.7-14.6
		c-7.5,0-11.3,5.4-11.3,14.7C747.8,1810.9,751,1816.1,758.8,1816.1"/>
	<path class="st3" d="M891.6,1775.9l-0.3,9.1c0.1-2.2,7-10.5,18.8-10.5c12.9,0,15.8,10.6,15.8,19.7v32.8h-14.5v-30.1
		c0.2-6.7-3.9-9.9-9.1-9.9c-6.7,0-10.6,6.5-10.6,13.9v26.2h-14.3v-51.1H891.6z"/>
	<path class="st3" d="M313.6,1648.6c0-22.3,21.1-28.6,54.1-30.9c0-11.1-4.1-13.7-14.1-13.7c-11.4,0-18.1,4.1-22.9,11.8l-15.3-11.8
		c9-13.3,22.6-18.6,40.5-18.6c17.9,0,34.5,6.3,34.5,27.1v33.7c-0.3,5.1,2.1,7.2,6.1,7.2c1.3,0,2.7-0.3,4.2-0.6
		c-1,4.2-3.6,16.3-3.6,16.3c-4.8,1.5-7.5,1.2-10,1.2c-9,0-16.3-3-18.6-11.2c-5.1,7.5-13.6,12.3-27,12.3
		C326.2,1671.6,313.6,1664.8,313.6,1648.6 M336.2,1646.4c0,5.1,4,7.8,10,7.8c10.6,0,21.4-6.7,21.4-20.4
		C348.8,1634.6,336.2,1637.9,336.2,1646.4"/>
	<path class="st3" d="M712.7,1641.2c5.7,7.1,12.3,11.9,26.4,11.9c9.6,0,14.5-2.2,14.5-7.4c0-5.5-4.5-6-19-7.8
		c-18.4-2.6-31.5-7.1-31.5-26.7c0-18.3,16-25.6,35.2-25.6c17.4,0,29.7,5.2,36.4,12.6l-13,14.6c-4.8-5.6-11.8-9.3-23.4-9.3
		c-10.8,0-14.8,3-14.8,6.6c0,4.8,4,6.3,17.1,7.8c17.4,1.5,35.7,6,35.7,26.7c0,17.5-12.3,27.1-36.4,27.1c-20.1,0-33.4-6.3-41.5-18.1
		L712.7,1641.2z"/>
	<path class="st3" d="M875,1587.8H898l-0.4,14.6c0.1-3.4,7.9-16.8,19.3-16.8c5.1,0,8.1,1.1,12.6,4.5l-9.6,20.7
		c-1.2-0.8-3.5-1.9-6.8-1.9c-11.4,0-15.2,7-15.2,18.9v41.8H875V1587.8z"/>
	<polygon class="st3" points="168,1940.3 168,1967.5 189.5,1953.9 	"/>
	<polygon class="st3" points="1074,1940.6 1074,1967.8 1052.4,1954.2 	"/>
	<path class="st3" d="M582.8,263.8v-0.9l5.6-4.8c0.8-0.7,1.2-1.5,1.2-2.3c0-1.2-0.9-2-2.1-2c-0.6,0-1.2,0.2-1.6,0.4
		c-0.5,0.3-0.6,0.5-1.7,1.6l-1.2-0.9c1.1-1.2,1.2-1.3,1.7-1.8c0.8-0.6,1.8-1,3-1c2.3,0,3.8,1.4,3.8,3.5c0,0.6-0.1,1.1-0.3,1.5
		c-0.3,0.7-0.7,1.2-2.3,2.5l-3.1,2.6h6.6v1.5H582.8z"/>
	<path class="st3" d="M601.3,264.2c-3.3,0-6-2.7-6-6c0-3.4,2.7-6.1,6-6.1c3.3,0,6,2.7,6,6.1C607.2,261.5,604.6,264.2,601.3,264.2
		 M601.3,253.6c-2.3,0-4.2,2-4.2,4.6c0,2.5,1.9,4.6,4.2,4.6c2.3,0,4.2-2.1,4.2-4.6C605.4,255.6,603.6,253.6,601.3,253.6"/>
	<polygon class="st3" points="611.3,269.6 609.6,269.6 615.6,247.9 617.3,247.9 	"/>
	<path class="st3" d="M628.4,263.8v5h-1.7v-5h-7.6v-0.5l8.4-11.2h0.8v10.1h2.8v1.5H628.4z M626.4,256.4l-4.1,5.5l-0.5,0.5l0.6-0.1
		h4.3l0-5.9l0-0.7L626.4,256.4z"/>
	<path class="st3" d="M639.2,264.2c-3.3,0-6-2.7-6-6c0-3.4,2.7-6.1,6-6.1c3.3,0,6,2.7,6,6.1C645.1,261.5,642.5,264.2,639.2,264.2
		 M639.2,253.6c-2.3,0-4.2,2-4.2,4.6c0,2.5,1.9,4.6,4.2,4.6c2.3,0,4.2-2.1,4.2-4.6C643.3,255.6,641.5,253.6,639.2,253.6"/>
	<path class="st3" d="M653.5,264.2c-3.3,0-6-2.7-6-6c0-3.4,2.7-6.1,6-6.1c3.3,0,6,2.7,6,6.1C659.4,261.5,656.8,264.2,653.5,264.2
		 M653.5,253.6c-2.3,0-4.2,2-4.2,4.6c0,2.5,1.9,4.6,4.2,4.6c2.3,0,4.2-2.1,4.2-4.6C657.6,255.6,655.8,253.6,653.5,253.6"/>
	<path class="st3" d="M584.5,1040.8v-0.9l5.6-4.8c0.8-0.7,1.2-1.5,1.2-2.3c0-1.2-0.9-2-2.1-2c-0.6,0-1.2,0.2-1.6,0.4
		c-0.5,0.3-0.6,0.5-1.7,1.6l-1.2-0.9c1.1-1.2,1.2-1.3,1.7-1.8c0.8-0.6,1.8-1,3-1c2.3,0,3.8,1.4,3.8,3.5c0,0.6-0.1,1.1-0.3,1.5
		c-0.3,0.7-0.7,1.2-2.3,2.5l-3.1,2.6h6.6v1.5H584.5z"/>
	<path class="st3" d="M602.9,1041.2c-3.3,0-6-2.7-6-6c0-3.4,2.7-6.1,6-6.1c3.3,0,6,2.7,6,6.1
		C608.9,1038.5,606.2,1041.2,602.9,1041.2 M602.9,1030.6c-2.3,0-4.2,2-4.2,4.6c0,2.5,1.9,4.6,4.2,4.6c2.3,0,4.2-2.1,4.2-4.6
		C607.1,1032.6,605.2,1030.6,602.9,1030.6"/>
	<polygon class="st3" points="612.9,1046.6 611.2,1046.6 617.3,1024.9 618.9,1024.9 	"/>
	<polygon class="st3" points="624.7,1040.8 624.7,1030.8 622,1030.8 622,1029.3 626.5,1029.3 626.5,1040.8 	"/>
	<path class="st3" d="M637.6,1041.2c-3.3,0-6-2.7-6-6c0-3.4,2.7-6.1,6-6.1c3.3,0,6,2.7,6,6.1
		C643.5,1038.5,640.8,1041.2,637.6,1041.2 M637.6,1030.6c-2.3,0-4.2,2-4.2,4.6c0,2.5,1.9,4.6,4.2,4.6c2.3,0,4.2-2.1,4.2-4.6
		C641.7,1032.6,639.8,1030.6,637.6,1030.6"/>
	<path class="st3" d="M651.8,1041.2c-3.3,0-6-2.7-6-6c0-3.4,2.7-6.1,6-6.1c3.3,0,6,2.7,6,6.1
		C657.8,1038.5,655.1,1041.2,651.8,1041.2 M651.8,1030.6c-2.3,0-4.2,2-4.2,4.6c0,2.5,1.9,4.6,4.2,4.6c2.3,0,4.2-2.1,4.2-4.6
		C656,1032.6,654.1,1030.6,651.8,1030.6"/>
	<path class="st3" d="M590.3,1282.3v-0.9l5.6-4.8c0.8-0.7,1.2-1.5,1.2-2.3c0-1.2-0.9-2-2.1-2c-0.6,0-1.2,0.2-1.6,0.4
		c-0.5,0.3-0.6,0.5-1.7,1.6l-1.2-0.9c1.1-1.2,1.2-1.3,1.7-1.8c0.8-0.6,1.8-1,3-1c2.3,0,3.8,1.4,3.8,3.5c0,0.6-0.1,1.1-0.3,1.5
		c-0.3,0.7-0.7,1.2-2.3,2.5l-3.1,2.6h6.6v1.5H590.3z"/>
	<path class="st3" d="M608.7,1282.7c-3.3,0-6-2.7-6-6c0-3.4,2.7-6.1,6-6.1c3.3,0,6,2.7,6,6.1C614.7,1280,612,1282.7,608.7,1282.7
		 M608.7,1272.1c-2.3,0-4.2,2-4.2,4.6c0,2.5,1.9,4.6,4.2,4.6c2.3,0,4.2-2.1,4.2-4.6C612.9,1274.1,611,1272.1,608.7,1272.1"/>
	<polygon class="st3" points="618.7,1288.1 617.1,1288.1 623.1,1266.4 624.8,1266.4 	"/>
	<path class="st3" d="M632.3,1282.6c-2.9,0-4.8-1.6-4.8-3.9c0-0.6,0.1-1.2,0.4-1.7c0.3-0.6,1.1-1.6,1.7-2l1.7-1.3l-1.6-1.3
		c-1.2-1.1-1.6-1.6-1.6-2.7c0-2.2,1.8-3.7,4.5-3.7c2.5,0,4.2,1.3,4.2,3.3c0,1.1-0.5,2-1.5,2.9l-1.7,1.3l2,1.7
		c0.2,0.2,0.5,0.5,0.8,0.8c0.8,0.9,1,1.5,1,2.7C637.4,1281,635.3,1282.6,632.3,1282.6 M633.9,1275.9l-1.5-1.4l-1.5,1.2
		c-1.1,0.8-1.6,1.7-1.6,2.7c0,1.6,1.1,2.5,3,2.5c2,0,3.2-1,3.2-2.5C635.5,1277.6,635.1,1276.9,633.9,1275.9 M632.4,1267.4
		c-1.4,0-2.4,0.9-2.4,2.1c0,0.7,0.4,1.4,1.2,2l1.3,1.1l1.3-1.1c0.7-0.6,1.1-1.4,1.1-2.2C634.9,1268.1,633.9,1267.4,632.4,1267.4"/>
	<path class="st3" d="M646,1282.7c-3.3,0-6-2.7-6-6c0-3.4,2.7-6.1,6-6.1c3.3,0,6,2.7,6,6.1C652,1280,649.3,1282.7,646,1282.7
		 M646,1272.1c-2.3,0-4.2,2-4.2,4.6c0,2.5,1.9,4.6,4.2,4.6c2.3,0,4.2-2.1,4.2-4.6C650.2,1274.1,648.3,1272.1,646,1272.1"/>
	<path class="st3" d="M591.4,1534.3v-0.9l5.6-4.8c0.8-0.7,1.2-1.5,1.2-2.3c0-1.2-0.9-2-2.1-2c-0.6,0-1.2,0.2-1.6,0.4
		c-0.5,0.3-0.6,0.5-1.7,1.6l-1.2-0.9c1.1-1.2,1.2-1.3,1.7-1.8c0.8-0.6,1.8-1,3-1c2.3,0,3.8,1.4,3.8,3.5c0,0.6-0.1,1.1-0.3,1.5
		c-0.3,0.7-0.7,1.2-2.3,2.5l-3.1,2.6h6.6v1.5H591.4z"/>
	<path class="st3" d="M609.9,1534.7c-3.3,0-6-2.7-6-6c0-3.4,2.7-6.1,6-6.1c3.3,0,6,2.7,6,6.1C615.8,1532,613.2,1534.7,609.9,1534.7
		 M609.9,1524.1c-2.3,0-4.2,2-4.2,4.6c0,2.5,1.9,4.6,4.2,4.6c2.3,0,4.2-2.1,4.2-4.6C614,1526.1,612.2,1524.1,609.9,1524.1"/>
	<polygon class="st3" points="619.9,1540.1 618.2,1540.1 624.3,1518.4 625.9,1518.4 	"/>
	<path class="st3" d="M634.3,1534.8c-3.1,0-5.1-2.6-5.1-6.9c0-2.8,0.8-5.3,2.3-7.2c1.4-1.7,3-2.5,5.4-2.5c0.5,0,0.8,0,1.6,0.1v1.5
		c-0.6-0.1-0.8-0.1-1.3-0.1c-0.7,0-1.5,0.1-1.9,0.2c-0.8,0.3-1.7,0.9-2.4,1.8c-1,1.2-1.4,2.1-1.8,4.2c0.9-0.4,1.1-0.5,1.4-0.6
		c1-0.4,1.9-0.6,2.7-0.6c2.4,0,4.1,1.8,4.1,4.4C639.2,1532.4,637.1,1534.8,634.3,1534.8 M634.7,1526.3c-0.3,0-0.9,0.1-1.4,0.2
		c-0.8,0.2-1.3,0.4-2.3,0.9c0,0.5,0,0.7,0,1c0,2.8,1.4,4.7,3.4,4.7c1.8,0,3.2-1.6,3.2-3.7C637.6,1527.6,636.4,1526.3,634.7,1526.3"
		/>
	<path class="st3" d="M642.7,1539.3h-0.6v-1.5c2.2,0,3.1-0.3,4.2-0.9c1.2-0.7,2-1.9,2-3.2c0-1.8-1.2-2.9-3.4-2.9h-1.2v-1.3
		c2.4-0.5,3.8-1.8,3.8-3.4c0-1.2-0.7-1.9-1.8-1.9c-0.8,0-1.4,0.3-2.6,1.3l-1.1-1.2c0.4-0.3,0.7-0.6,0.9-0.7c0.9-0.6,2.1-1,3.1-1
		c1.9,0,3.2,1.3,3.2,3.3c0,1.7-0.8,2.9-2.4,3.7c0.7,0.2,1,0.3,1.3,0.5c1.2,0.7,1.9,1.9,1.9,3.5
		C650.1,1537,647.2,1539.3,642.7,1539.3"/>
	<path class="st3" d="M591.3,1723.3v-0.9l5.6-4.8c0.8-0.7,1.2-1.5,1.2-2.3c0-1.2-0.9-2-2.1-2c-0.6,0-1.2,0.2-1.6,0.4
		c-0.5,0.3-0.6,0.5-1.7,1.6l-1.2-0.9c1.1-1.2,1.2-1.3,1.7-1.8c0.8-0.6,1.8-1,3-1c2.3,0,3.8,1.4,3.8,3.5c0,0.6-0.1,1.1-0.3,1.5
		c-0.3,0.7-0.7,1.2-2.3,2.5l-3.1,2.6h6.6v1.5H591.3z"/>
	<path class="st3" d="M609.8,1723.7c-3.3,0-6-2.7-6-6c0-3.4,2.7-6.1,6-6.1c3.3,0,6,2.7,6,6.1C615.7,1721,613.1,1723.7,609.8,1723.7
		 M609.8,1713.1c-2.3,0-4.2,2-4.2,4.6c0,2.5,1.9,4.6,4.2,4.6c2.3,0,4.2-2.1,4.2-4.6C613.9,1715.1,612,1713.1,609.8,1713.1"/>
	<polygon class="st3" points="619.8,1729.1 618.1,1729.1 624.1,1707.4 625.8,1707.4 	"/>
	<path class="st3" d="M633.8,1727.2c-0.6,0.4-1.4,0.7-2.3,0.9c-0.8,0.2-1.3,0.2-2.7,0.3v-1.5c1.6-0.1,2-0.2,2.9-0.4
		c1.7-0.5,2.6-1.8,2.6-3.7c0-1.2-0.4-2.2-1.1-2.9c-0.6-0.6-1.4-0.8-2.9-0.8l-1.2,0v-7.2h6.5v1.5H631v4.2l0.9,0.1
		c2.7,0.2,4.3,2.1,4.3,5.1C636.2,1724.6,635.3,1726.2,633.8,1727.2"/>
	<path class="st3" d="M645,1723.7c-3.3,0-6-2.7-6-6c0-3.4,2.7-6.1,6-6.1c3.3,0,6,2.7,6,6.1C650.9,1721,648.3,1723.7,645,1723.7
		 M645,1713.1c-2.3,0-4.2,2-4.2,4.6c0,2.5,1.9,4.6,4.2,4.6c2.3,0,4.2-2.1,4.2-4.6C649.1,1715.1,647.3,1713.1,645,1713.1"/>
	<path class="st3" d="M590,1880.8v-0.9l5.6-4.8c0.8-0.7,1.2-1.5,1.2-2.3c0-1.2-0.9-2-2.1-2c-0.6,0-1.2,0.2-1.6,0.4
		c-0.5,0.3-0.6,0.5-1.7,1.6l-1.2-0.9c1.1-1.2,1.2-1.3,1.7-1.8c0.8-0.6,1.8-1,3-1c2.3,0,3.8,1.4,3.8,3.5c0,0.6-0.1,1.1-0.3,1.5
		c-0.3,0.7-0.7,1.2-2.3,2.5l-3.1,2.6h6.6v1.5H590z"/>
	<path class="st3" d="M608.4,1881.2c-3.3,0-6-2.7-6-6c0-3.4,2.7-6.1,6-6.1c3.3,0,6,2.7,6,6.1
		C614.4,1878.5,611.7,1881.2,608.4,1881.2 M608.4,1870.6c-2.3,0-4.2,2-4.2,4.6c0,2.5,1.9,4.6,4.2,4.6c2.3,0,4.2-2.1,4.2-4.6
		C612.6,1872.6,610.7,1870.6,608.4,1870.6"/>
	<polygon class="st3" points="618.4,1886.6 616.7,1886.6 622.8,1864.9 624.4,1864.9 	"/>
	<path class="st3" d="M635.6,1880.8v5h-1.7v-5h-7.6v-0.5l8.4-11.2h0.8v10.1h2.8v1.5H635.6z M633.5,1873.4l-4.1,5.5l-0.5,0.5l0.6-0.1
		h4.3l0-5.9l0-0.7L633.5,1873.4z"/>
	<path class="st3" d="M646.3,1881.2c-3.3,0-6-2.7-6-6c0-3.4,2.7-6.1,6-6.1c3.3,0,6,2.7,6,6.1
		C652.3,1878.5,649.6,1881.2,646.3,1881.2 M646.3,1870.6c-2.3,0-4.2,2-4.2,4.6c0,2.5,1.9,4.6,4.2,4.6c2.3,0,4.2-2.1,4.2-4.6
		C650.5,1872.6,648.6,1870.6,646.3,1870.6"/>
	<path class="st3" d="M592,2027.8v-0.9l5.6-4.8c0.8-0.7,1.2-1.5,1.2-2.3c0-1.2-0.9-2-2.1-2c-0.6,0-1.2,0.2-1.6,0.4
		c-0.5,0.3-0.6,0.5-1.7,1.6l-1.2-0.9c1.1-1.2,1.2-1.3,1.7-1.8c0.8-0.6,1.8-1,3-1c2.3,0,3.8,1.4,3.8,3.5c0,0.6-0.1,1.1-0.3,1.5
		c-0.3,0.7-0.7,1.2-2.3,2.5l-3.1,2.6h6.6v1.5H592z"/>
	<path class="st3" d="M610.5,2028.2c-3.3,0-6-2.7-6-6c0-3.4,2.7-6.1,6-6.1c3.3,0,6,2.7,6,6.1
		C616.4,2025.5,613.8,2028.2,610.5,2028.2 M610.5,2017.6c-2.3,0-4.2,2-4.2,4.6c0,2.5,1.9,4.6,4.2,4.6c2.3,0,4.2-2.1,4.2-4.6
		C614.6,2019.6,612.8,2017.6,610.5,2017.6"/>
	<polygon class="st3" points="620.5,2033.6 618.8,2033.6 624.9,2011.9 626.5,2011.9 	"/>
	<path class="st3" d="M629.6,2032.8H629v-1.5c2.2,0,3.1-0.3,4.2-0.9c1.2-0.7,2-1.9,2-3.2c0-1.8-1.2-2.9-3.4-2.9h-1.2v-1.3
		c2.4-0.5,3.8-1.8,3.8-3.4c0-1.2-0.7-1.9-1.8-1.9c-0.8,0-1.4,0.3-2.6,1.3l-1.1-1.2c0.4-0.3,0.7-0.6,0.9-0.7c0.9-0.6,2.1-1,3.1-1
		c1.9,0,3.2,1.3,3.2,3.3c0,1.7-0.8,2.9-2.4,3.7c0.7,0.2,1,0.3,1.3,0.5c1.2,0.7,1.9,1.9,1.9,3.5
		C637,2030.5,634.1,2032.8,629.6,2032.8"/>
	<path class="st3" d="M640.1,2027.8v-0.9l5.6-4.8c0.8-0.7,1.2-1.5,1.2-2.3c0-1.2-0.9-2-2.1-2c-0.6,0-1.2,0.2-1.6,0.4
		c-0.5,0.3-0.6,0.5-1.7,1.6l-1.2-0.9c1.1-1.2,1.2-1.3,1.7-1.8c0.8-0.6,1.8-1,3-1c2.3,0,3.8,1.4,3.8,3.5c0,0.6-0.1,1.1-0.3,1.5
		c-0.3,0.7-0.7,1.2-2.3,2.5l-3.1,2.6h6.6v1.5H640.1z"/>
	<path class="st3" d="M592.2,2153.8v-0.9l5.6-4.8c0.8-0.7,1.2-1.5,1.2-2.3c0-1.2-0.9-2-2.1-2c-0.6,0-1.2,0.2-1.6,0.4
		c-0.5,0.3-0.6,0.5-1.7,1.6l-1.2-0.9c1.1-1.2,1.2-1.3,1.7-1.8c0.8-0.6,1.8-1,3-1c2.3,0,3.8,1.4,3.8,3.5c0,0.6-0.1,1.1-0.3,1.5
		c-0.3,0.7-0.7,1.2-2.3,2.5l-3.1,2.6h6.6v1.5H592.2z"/>
	<path class="st3" d="M610.7,2154.2c-3.3,0-6-2.7-6-6c0-3.4,2.7-6.1,6-6.1c3.3,0,6,2.7,6,6.1C616.6,2151.5,614,2154.2,610.7,2154.2
		 M610.7,2143.6c-2.3,0-4.2,2-4.2,4.6c0,2.5,1.9,4.6,4.2,4.6c2.3,0,4.2-2.1,4.2-4.6C614.8,2145.6,613,2143.6,610.7,2143.6"/>
	<polygon class="st3" points="620.7,2159.6 619,2159.6 625.1,2137.9 626.7,2137.9 	"/>
	<path class="st3" d="M629.4,2153.8v-0.9l5.6-4.8c0.8-0.7,1.2-1.5,1.2-2.3c0-1.2-0.9-2-2.1-2c-0.6,0-1.2,0.2-1.6,0.4
		c-0.5,0.3-0.6,0.5-1.7,1.6l-1.2-0.9c1.1-1.2,1.2-1.3,1.7-1.8c0.8-0.6,1.8-1,3-1c2.3,0,3.8,1.4,3.8,3.5c0,0.6-0.1,1.1-0.3,1.5
		c-0.3,0.7-0.7,1.2-2.3,2.5l-3.1,2.6h6.6v1.5H629.4z"/>
	<path class="st3" d="M647.2,2157.7c-0.6,0.4-1.4,0.7-2.3,0.9c-0.8,0.2-1.3,0.2-2.7,0.3v-1.5c1.6-0.1,2-0.2,2.9-0.4
		c1.7-0.5,2.6-1.8,2.6-3.7c0-1.2-0.4-2.2-1.1-2.9c-0.6-0.6-1.4-0.8-2.9-0.8l-1.2,0v-7.2h6.5v1.5h-4.8v4.2l0.9,0.1
		c2.7,0.2,4.3,2.1,4.3,5.1C649.6,2155.1,648.7,2156.7,647.2,2157.7"/>
</g>
</svg>
