<?xml version="1.0" encoding="utf-8"?>
<!-- Generator: Adobe Illustrator 22.1.0, SVG Export Plug-In . SVG Version: 6.00 Build 0)  -->
<svg version="1.1" xmlns="http://www.w3.org/2000/svg" xmlns:xlink="http://www.w3.org/1999/xlink" x="0px" y="0px"
	 viewBox="0 0 1242 2864.5" style="enable-background:new 0 0 1242 2864.5;" xml:space="preserve">
<style type="text/css">
	.st0{clip-path:url(#SVGID_2_);fill:#333333;}
	.st1{clip-path:url(#SVGID_4_);fill:#333333;}
	.st2{fill:#333333;}
	.st3{display:none;}
	.st4{display:inline;fill:#333333;}
</style>
<g id="Layer_1">
	<g>
		<defs>
			<rect id="SVGID_1_" y="0" width="1242" height="2844.5"/>
		</defs>
		<clipPath id="SVGID_2_">
			<use xlink:href="#SVGID_1_"  style="overflow:visible;"/>
		</clipPath>
		<path class="st0" d="M470.1,530.6c-48.8-12.8-75.2-42.4-75.2-90.4c0-40.8,38.4-72,84.8-87.2c-31.2-23.2-52.8-61.6-52.8-112
			c0-100.8,76.8-159.2,188.8-159.2c66.4,0,118.4,21.6,157.6,64c17.6-43.2,52-57.6,74.4-57.6c12.8,0,25.6,0,36.8,6.4l-20,100.8
			c-4.8-5.6-12.8-8.8-25.6-8.8c-21.6,0-36,18.4-36,29.6c0,12,1.6,23.2,1.6,28.8c0,92.8-80,147.2-190.4,147.2
			c-35.2,0-69.6-6.4-88-11.2c-14.4,4-25.6,16-25.6,26.4c0,24,29.6,36,136.8,36c126.4,0,152.8,12,179.2,31.2
			c24.8,17.6,43.2,44,43.2,96c0,107.2-83.2,144-243.2,144c-152.8,0-227.2-28.8-227.2-104.8C389.3,565.8,428.5,545,470.1,530.6
			 M502.9,579.4c0,29.6,31.2,44.8,117.6,44.8c73.6,0,118.4-12,118.4-40.8c0-3.2,0-13.6-5.6-20c-16.8-17.6-71.2-12.8-122.4-14.4
			c-45.6-1.6-61.6-1.6-84.8-4C513.3,550.6,502.9,560.2,502.9,579.4 M538.9,241c0,40.8,29.6,62.4,77.6,62.4c48.8,0,76-22.4,76-63.2
			c0-41.6-25.6-67.2-75.2-67.2C566.1,173,538.9,199.4,538.9,241"/>
	</g>
	<g>
		<defs>
			<rect id="SVGID_3_" y="0" width="1242" height="2844.5"/>
		</defs>
		<clipPath id="SVGID_4_">
			<use xlink:href="#SVGID_3_"  style="overflow:visible;"/>
		</clipPath>
		<path class="st1" d="M344.1,1131.7H390v96.9c0,20.7,12.6,31.2,29.7,31.2c20.7,0,33.3-20.7,33.3-43.8v-84.3h46.5v163.5H453
			l1.5-28.5c-0.6,6.6-22.8,33-60,33c-42.3,0-50.4-33.3-50.4-63V1131.7z"/>
		<polygon class="st1" points="795.8,1131.7 829.7,1243 866.9,1131.7 911.9,1131.7 854.3,1295.5 803.9,1295.5 746,1131.7 		"/>
		<path class="st1" d="M326.4,1375.6h28.9v63c5.6-8.6,14.4-17.1,30.8-17.1c24.6,0,42.9,19.3,42.9,53.1c0,33.2-15.2,54.6-42.2,54.6
			c-16.5,0-27.2-7.5-32.1-17.1l0.6,14.4h-28.9V1375.6z M378.2,1504.9c15.6,0,21.9-10.5,21.9-30.4c0-18.4-7.5-29.4-22.5-29.4
			c-13.7,0-23.4,12-23.4,29.3C354.2,1495.2,363,1504.9,378.2,1504.9"/>
		<path class="st1" d="M583.8,1447.7v-23.6h17.4v-15.8c0-21.6,10.5-34.1,31.5-34.1c10.7,0,19.5,3.9,24.8,7.7l-5.6,21.2h-0.8
			c-2.6-2.8-6.9-3.9-11.1-3.9c-5.8,0-9.9,3.9-9.9,10.5v14.4h21.8v23.6h-21.8v78.8h-28.9v-78.8H583.8z"/>
		<path class="st1" d="M874.9,1374.2c8.6,0,15.8,7.1,15.8,15.8s-7.1,15.8-15.8,15.8s-15.8-7.1-15.8-15.8S866.3,1374.2,874.9,1374.2
			 M889.3,1526.5h-28.9v-102.4h28.9V1526.5z"/>
		<path class="st1" d="M483.5,1726v-81.7h22.9l-0.4,14.6c0.1-3.5,9.1-16.8,27.9-16.8c13.6,0,20.2,7.4,23.2,16.3
			c0.8-3.8,10-16.3,28-16.3c21.1,0,26.4,16.9,26.4,31.5v52.5h-23.4v-48.1c0.5-10.7-6.3-15.9-14.4-15.9c-10.8,0-14.8,10.3-14.8,22.2
			v41.8H536v-48.1c0-10.7-6.3-15.9-14.7-15.9c-10.4,0-14.9,10.3-14.9,22.2v41.8H483.5z"/>
		<polygon class="st1" points="473,1808 473,1852.3 491.3,1832.3 508,1832.3 489,1852.7 508.7,1883.5 492.9,1883.5 479.8,1862.7 
			473,1869.8 473,1883.5 458.7,1883.5 458.7,1808 		"/>
		<path class="st1" d="M551.7,1989.6h11.5l-0.2,7.3c0.1-1.7,4-8.4,9.7-8.4c2.6,0,4.1,0.5,6.3,2.2l-4.8,10.4c-0.6-0.4-1.7-1-3.4-1
			c-5.7,0-7.6,3.5-7.6,9.4v20.9h-11.5V1989.6z"/>
		<path class="st1" d="M394.1,2128.8c0-7.8,5.5-10.4,12-10.4c6.7,0,11.4,2.9,11.4,9.1c0,3.3-1.8,5.8-4.8,6.8c3.8,1,6.7,4.7,6.7,10.8
			c0,7.8-3.7,12-10.6,12c-1.8,0-3.4-0.6-4.5-1l0.3-5.5h0.1c0.7,0.3,1.4,0.7,2.5,0.7c2.9,0,4.8-1.8,4.8-6.7c0-5.2-2.3-7.3-7.2-7.2
			v-5.2c3.8,0,5.6-2.6,5.6-4.4c0-2.5-1.4-4.1-4.3-4.1c-3,0-4.7,1.6-4.7,4.4v28.4h-7.2V2128.8z"/>
		<path class="st1" d="M498.4,2130.9h4.4v-3.7c2.4-1.4,5-3.5,7-5.9h0.1v9.6h5.4v5.9H510v11.8c0,1.9,1.4,2.2,2.6,2.2
			c0.7,0,1.7-0.2,2.3-0.7h0.1l-0.3,6.2c-0.8,0.3-1.7,0.8-4.9,0.8c-3.3,0-7-1.8-7-7.2v-13.2h-4.4V2130.9z"/>
		<rect x="608.4" y="2118.8" class="st1" width="7.2" height="37.7"/>
		<path class="st1" d="M798.8,2147.3v-16.4h7.2v15.1c0,3.2,2,4.9,4.6,4.9c3.2,0,4.6-3.2,4.6-6.8v-13.2h7.2v15.1
			c-0.1,3.2,2,4.9,4.6,4.9c3.2,0,4.5-3.2,4.5-6.8v-13.2h7.3v25.5h-7.3l0.2-4.5c-0.1,1-2.9,5.2-8.7,5.2c-4.3,0-6.4-2.2-7.3-5.1
			c-0.2,1.2-3.1,5.1-8.8,5.1C800.5,2157.1,798.8,2151.9,798.8,2147.3"/>
		<path class="st1" d="M702.8,2130.8h7.2l-0.1,3.6c1.3-2.3,3.9-4.2,8-4.2c6.8,0,10.5,5.3,10.5,13.7c0,8.3-4.5,12.8-10.7,12.8
			c-4.2,0-6.4-1.7-7.8-3.9v14.2h-7.2V2130.8z M715.7,2150.5c3.7,0,5.5-2.1,5.5-6.8c0-5-1.6-7.5-5.4-7.5s-6,2.4-6,7.6
			C709.7,2148.2,712.2,2150.5,715.7,2150.5"/>
		<polygon class="st1" points="918.8,2143.3 909.7,2130.9 918.3,2130.9 923,2137.4 927.8,2130.9 935.6,2130.9 926.8,2142.9 
			936.6,2156.5 928.4,2156.5 922.7,2148.7 917.1,2156.5 909,2156.5 		"/>
		<path class="st1" d="M309.6,2130.2c6.6,0,13,3.9,12.5,15.1h-18.2c0.5,3.9,2.5,6,6,6c3,0,5-1,6-3.8l6.1,2
			c-1.8,4.7-5.7,7.6-12.2,7.6c-7.5,0-13-4.7-13-13.4C296.8,2135.3,302,2130.2,309.6,2130.2 M304,2140.6l10.9,0
			c-0.4-2.9-2-4.6-5.3-4.6C306.5,2136,304.6,2137.5,304,2140.6"/>
		<path class="st1" d="M392.5,2241.1l-0.1,3.6c0-0.9,2.8-4.2,7.5-4.2c5.2,0,6.3,4.2,6.3,7.9v13.1h-5.8v-12c0.1-2.7-1.6-4-3.6-4
			c-2.7,0-4.2,2.6-4.2,5.6v10.5h-5.7v-20.4H392.5z"/>
		<path class="st1" d="M296.2,2256.3c0-5.6,5.3-7.2,13.5-7.7c0-2.8-1-3.4-3.5-3.4c-2.9,0-4.5,1-5.7,3l-3.8-3
			c2.2-3.3,5.7-4.7,10.1-4.7c4.5,0,8.6,1.6,8.6,6.8v8.4c-0.1,1.3,0.5,1.8,1.5,1.8c0.3,0,0.7-0.1,1-0.2c-0.3,1.1-0.9,4.1-0.9,4.1
			c-1.2,0.4-1.9,0.3-2.5,0.3c-2.2,0-4.1-0.8-4.7-2.8c-1.3,1.9-3.4,3.1-6.8,3.1C299.4,2262.1,296.2,2260.4,296.2,2256.3
			 M301.9,2255.8c0,1.3,1,2,2.5,2c2.7,0,5.4-1.7,5.4-5.1C305,2252.8,301.9,2253.6,301.9,2255.8"/>
		<path class="st1" d="M475.6,2251.3c0-6.6,4.4-10.8,10.4-10.8c4.7,0,7.7,2.1,9.2,6l-4.8,2.4c-0.8-2.2-2-3.6-4.4-3.6
			c-2.9,0-4.6,1.9-4.6,5.8s1.5,6.3,4.6,6.3c2.4,0,3.8-1.3,4.5-3.7l4.8,2.5c-1.6,3.7-4.4,5.9-9.4,5.9h-0.3l-1.2,1.4
			c0.4-0.2,1-0.4,1.6-0.4c2.2,0,4.1,1.4,4.1,3.7c0,2.4-2.1,3.7-4.9,3.7c-2.1,0-3.5-0.6-4.5-2.1l1.9-1.9c0.3,0.5,1,1.5,2.5,1.5
			c1,0,1.7-0.4,1.7-1.3c0-0.7-0.4-1.2-1.3-1.4c-0.6-0.2-1.4-0.2-2.3,0.4l-2.3-1.4l1.8-2.6C477.9,2260.4,475.6,2256.1,475.6,2251.3"
			/>
		<path class="st1" d="M575.4,2240.5c6,0,10.4,4.1,10.4,10.7c0,6.8-4.3,10.8-10.4,10.8c-6.1,0-10.4-4.1-10.4-10.8
			C565,2244.6,569.4,2240.5,575.4,2240.5 M575.4,2257.5c3.3,0,4.7-2.6,4.7-6.3c0-3.8-1.5-6.1-4.7-6.1c-3.2,0-4.7,2.3-4.7,6.1
			C570.8,2254.9,572.2,2257.5,575.4,2257.5"/>
		<polygon class="st1" points="658.9,2241.1 663.2,2255 667.8,2241.1 673.5,2241.1 666.3,2261.5 660,2261.5 652.7,2241.1 		"/>
		<path class="st1" d="M739.8,2254.4c1.4,1.8,3.1,3,6.6,3c2.4,0,3.6-0.6,3.6-1.8c0-1.4-1.1-1.5-4.8-1.9c-4.6-0.6-7.9-1.8-7.9-6.7
			c0-4.6,4-6.4,8.8-6.4c4.4,0,7.4,1.3,9.1,3.2l-3.3,3.6c-1.2-1.4-3-2.3-5.9-2.3c-2.7,0-3.7,0.8-3.7,1.6c0,1.2,1,1.6,4.3,1.9
			c4.4,0.4,8.9,1.5,8.9,6.7c0,4.4-3.1,6.8-9.1,6.8c-5,0-8.4-1.6-10.4-4.5L739.8,2254.4z"/>
		<path class="st1" d="M834.4,2240.5c5.3,0,10.4,3.2,10,12.1h-14.6c0.4,3.1,2,4.8,4.8,4.8c2.4,0,4-0.8,4.8-3l4.9,1.6
			c-1.4,3.8-4.5,6.1-9.8,6.1c-6,0-10.4-3.8-10.4-10.7C824.2,2244.6,828.4,2240.5,834.4,2240.5 M829.9,2248.9l8.7,0
			c-0.3-2.3-1.6-3.7-4.2-3.7C832,2245.1,830.4,2246.4,829.9,2248.9"/>
		<path class="st1" d="M915.9,2241.1h5.7v12.1c0,2.6,1.6,3.9,3.7,3.9c2.6,0,4.2-2.6,4.2-5.5v-10.5h5.8v20.4h-5.8l0.2-3.6
			c-0.1,0.8-2.9,4.1-7.5,4.1c-5.3,0-6.3-4.2-6.3-7.9V2241.1z"/>
		<path class="st1" d="M304.3,1989.5h13l9.1,27.1l9.1-27.1h11.7l-15.7,43.9c-2.2,5.9-4.8,10.1-7.6,12.2c-2.4,1.9-5.6,2.6-9.3,2.6
			c-3.1,0-6.1-0.5-7.9-1.9l1.3-9.8h0.4c1.1,0.8,2.8,1.3,4.8,1.3c3.4,0,6.1-2.5,7.3-6.1L304.3,1989.5z"/>
		<path class="st1" d="M442.6,1988.5c12.1,0,20.8,8.2,20.8,21.4c0,13.5-8.5,21.7-20.8,21.7c-12.2,0-20.8-8.2-20.8-21.7
			C421.9,1996.7,430.6,1988.5,442.6,1988.5 M442.6,2022.5c6.5,0,9.3-5.2,9.3-12.6c0-7.6-3-12.3-9.3-12.3c-6.3,0-9.3,4.6-9.3,12.3
			C433.4,2017.2,436.2,2022.5,442.6,2022.5"/>
		<path class="st1" d="M656.2,2046.2l0.5-9.4h0.2c1.7,0.8,2,1.1,3.7,1.1c2.1,0,3.8-1.1,3.8-4.1v-44.3h11.5v46.3
			c0,7.6-4.7,12.1-11.7,12.1C660.5,2047.8,658.1,2047.1,656.2,2046.2 M676.4,1975.9c0,3.4-2.8,6.3-6.3,6.3c-3.5,0-6.3-2.9-6.3-6.3
			c0-3.5,2.8-6.3,6.3-6.3C673.6,1969.6,676.4,1972.4,676.4,1975.9"/>
		<path class="st1" d="M779.3,1970.4v26.8c0-1.6,5.2-8.4,14.7-8.4c10.5,0,12.6,8.4,12.6,15.7v26.2H795v-24.1
			c0.1-5.2-3.1-7.9-7.4-7.9c-5.2,0-8.4,5.2-8.4,11v21h-11.5v-60.4H779.3z"/>
		<path class="st1" d="M904.2,1988.5c6.7,0,11,3,12.8,6.7l-0.2-5.8h11.5v57.9h-11.5v-22.6c-2.2,3.5-5.7,6.3-12.4,6.3
			c-9.9,0-17.1-7.2-17.1-20.5C887.3,1997,893.3,1988.5,904.2,1988.5 M898.8,2010.2c0,7.4,3,10.8,9.1,10.8c5.3,0,9.2-3.8,9.2-10.6
			c0-8.3-3.5-12.2-9.6-12.2C901.4,1998.2,898.8,2002.2,898.8,2010.2"/>
		<path class="st1" d="M308.2,1857.9c0-16.5,10.9-26.9,26-26.9c11.6,0,19.3,5.2,22.9,15l-11.9,5.9c-1.9-5.6-5.1-9.1-10.9-9.1
			c-7.2,0-11.4,4.7-11.4,14.5c0,9.8,3.8,15.8,11.5,15.8c6,0,9.4-3.4,11.2-9.3l12.1,6.2c-3.9,9.2-11.1,14.7-23.5,14.7
			C316.6,1884.8,308.2,1872.1,308.2,1857.9"/>
		<polygon class="st1" points="643.1,1883.5 599.1,1883.5 599.1,1872.6 624.8,1843.9 600.7,1843.9 600.7,1832.3 642.9,1832.3 
			642.9,1842.5 616.9,1871.9 643.1,1871.9 		"/>
		<path class="st1" d="M733.5,1857.5c0-16.9,9.1-26.5,21.4-26.5c8.2,0,12.7,4.2,15.5,8.5V1808h14.4v75.5h-14.4l0.2-7.2
			c-2.3,4.8-7.7,8.5-15.9,8.5C741,1884.8,733.5,1874.1,733.5,1857.5 M758.8,1872.6c7.7,0,12.1-4.8,12.1-15.2
			c0-8.6-4.9-14.6-11.7-14.6c-7.5,0-11.3,5.4-11.3,14.7C747.8,1867.5,751,1872.6,758.8,1872.6"/>
		<path class="st1" d="M891.6,1832.4l-0.3,9.1c0.1-2.2,7-10.5,18.8-10.5c12.9,0,15.8,10.6,15.8,19.7v32.8h-14.5v-30.1
			c0.2-6.7-3.9-9.9-9.1-9.9c-6.7,0-10.6,6.5-10.6,13.9v26.2h-14.3v-51.1H891.6z"/>
		<path class="st1" d="M313.6,1705.2c0-22.3,21.1-28.6,54.1-30.9c0-11.1-4.1-13.7-14.1-13.7c-11.4,0-18.1,4.1-22.9,11.8l-15.3-11.8
			c9-13.3,22.6-18.6,40.5-18.6c17.9,0,34.5,6.3,34.5,27.1v33.7c-0.3,5.1,2.1,7.2,6.1,7.2c1.3,0,2.7-0.3,4.2-0.6
			c-1,4.2-3.6,16.3-3.6,16.3c-4.8,1.5-7.5,1.2-10,1.2c-9,0-16.3-3-18.6-11.2c-5.1,7.5-13.6,12.3-27,12.3
			C326.2,1728.1,313.6,1721.4,313.6,1705.2 M336.2,1702.9c0,5.1,4,7.8,10,7.8c10.6,0,21.4-6.7,21.4-20.4
			C348.8,1691.1,336.2,1694.4,336.2,1702.9"/>
		<path class="st1" d="M712.7,1697.7c5.7,7.1,12.3,11.9,26.4,11.9c9.6,0,14.6-2.2,14.6-7.4c0-5.5-4.5-6-19.1-7.8
			c-18.4-2.6-31.5-7.1-31.5-26.7c0-18.3,16.1-25.6,35.2-25.6c17.4,0,29.7,5.2,36.5,12.6l-13,14.6c-4.8-5.6-11.8-9.3-23.4-9.3
			c-10.8,0-14.8,3-14.8,6.6c0,4.8,4,6.3,17.1,7.8c17.4,1.5,35.7,6,35.7,26.7c0,17.5-12.3,27.1-36.5,27.1c-20.1,0-33.4-6.3-41.5-18.1
			L712.7,1697.7z"/>
		<path class="st1" d="M875,1644.3H898l-0.4,14.6c0.1-3.4,7.9-16.8,19.3-16.8c5.1,0,8.1,1.1,12.6,4.5l-9.6,20.7
			c-1.2-0.8-3.5-1.9-6.8-1.9c-11.4,0-15.2,7-15.2,18.9v41.8H875V1644.3z"/>
		<polygon class="st1" points="168,1996.9 168,2024.1 189.5,2010.5 		"/>
		<polygon class="st1" points="1074,1997.1 1074,2024.3 1052.4,2010.7 		"/>
		<path class="st1" d="M590.3,1338.8v-0.9l5.6-4.8c0.8-0.7,1.2-1.5,1.2-2.3c0-1.2-0.9-2-2.1-2c-0.6,0-1.2,0.2-1.6,0.4
			c-0.5,0.3-0.6,0.5-1.7,1.6l-1.2-0.9c1.1-1.2,1.2-1.3,1.7-1.8c0.8-0.6,1.8-1,3-1c2.3,0,3.8,1.4,3.8,3.5c0,0.6-0.1,1.1-0.3,1.5
			c-0.3,0.7-0.7,1.2-2.3,2.5l-3.1,2.6h6.6v1.5H590.3z"/>
		<path class="st1" d="M608.7,1339.2c-3.3,0-6-2.7-6-6c0-3.4,2.7-6.1,6-6.1c3.3,0,6,2.7,6,6.1C614.7,1336.5,612,1339.2,608.7,1339.2
			 M608.7,1328.6c-2.3,0-4.2,2-4.2,4.6c0,2.5,1.9,4.6,4.2,4.6c2.3,0,4.2-2.1,4.2-4.6C612.9,1330.6,611,1328.6,608.7,1328.6"/>
		<polygon class="st1" points="618.7,1344.7 617.1,1344.7 623.1,1322.9 624.8,1322.9 		"/>
		<path class="st1" d="M632.3,1339.1c-2.9,0-4.8-1.6-4.8-3.9c0-0.6,0.1-1.2,0.4-1.7c0.3-0.6,1.1-1.6,1.7-2l1.7-1.3l-1.6-1.3
			c-1.2-1.1-1.6-1.6-1.6-2.7c0-2.2,1.8-3.7,4.5-3.7c2.5,0,4.2,1.3,4.2,3.3c0,1.1-0.5,2-1.5,2.9l-1.7,1.3l2,1.7
			c0.2,0.2,0.5,0.5,0.8,0.8c0.8,0.9,1,1.5,1,2.7C637.4,1337.5,635.3,1339.1,632.3,1339.1 M633.9,1332.4l-1.5-1.4l-1.5,1.2
			c-1.1,0.8-1.6,1.7-1.6,2.7c0,1.6,1.1,2.5,3,2.5c2,0,3.2-1,3.2-2.5C635.5,1334.2,635.1,1333.5,633.9,1332.4 M632.4,1323.9
			c-1.4,0-2.4,0.9-2.4,2.1c0,0.7,0.4,1.4,1.2,2l1.3,1.1l1.3-1.1c0.7-0.6,1.1-1.4,1.1-2.2C634.9,1324.7,633.9,1323.9,632.4,1323.9"/>
		<path class="st1" d="M646,1339.2c-3.3,0-6-2.7-6-6c0-3.4,2.7-6.1,6-6.1c3.3,0,6,2.7,6,6.1C652,1336.5,649.3,1339.2,646,1339.2
			 M646,1328.6c-2.3,0-4.2,2-4.2,4.6c0,2.5,1.9,4.6,4.2,4.6c2.3,0,4.2-2.1,4.2-4.6C650.2,1330.6,648.3,1328.6,646,1328.6"/>
		<path class="st1" d="M591.4,1590.8v-0.9l5.6-4.8c0.8-0.7,1.2-1.5,1.2-2.3c0-1.2-0.9-2-2.1-2c-0.6,0-1.2,0.2-1.6,0.4
			c-0.5,0.3-0.6,0.5-1.7,1.6l-1.2-0.9c1.1-1.2,1.2-1.3,1.7-1.8c0.8-0.6,1.8-1,3-1c2.3,0,3.8,1.4,3.8,3.5c0,0.6-0.1,1.1-0.3,1.5
			c-0.3,0.7-0.7,1.2-2.3,2.5l-3.1,2.6h6.6v1.5H591.4z"/>
		<path class="st1" d="M609.9,1591.2c-3.3,0-6-2.7-6-6c0-3.4,2.7-6.1,6-6.1c3.3,0,6,2.7,6,6.1
			C615.8,1588.5,613.2,1591.2,609.9,1591.2 M609.9,1580.6c-2.3,0-4.2,2-4.2,4.6c0,2.5,1.9,4.6,4.2,4.6c2.3,0,4.2-2.1,4.2-4.6
			C614,1582.6,612.2,1580.6,609.9,1580.6"/>
		<polygon class="st1" points="619.9,1596.7 618.2,1596.7 624.3,1574.9 625.9,1574.9 		"/>
		<path class="st1" d="M634.3,1591.3c-3.1,0-5.1-2.6-5.1-6.9c0-2.8,0.8-5.3,2.3-7.2c1.4-1.7,3-2.5,5.4-2.5c0.5,0,0.8,0,1.6,0.1v1.5
			c-0.6-0.1-0.8-0.1-1.3-0.1c-0.7,0-1.5,0.1-1.9,0.2c-0.8,0.3-1.7,0.9-2.4,1.8c-1,1.2-1.4,2.1-1.8,4.2c0.9-0.4,1.1-0.5,1.4-0.6
			c1-0.4,1.9-0.6,2.7-0.6c2.4,0,4.1,1.8,4.1,4.4C639.2,1588.9,637.1,1591.3,634.3,1591.3 M634.7,1582.9c-0.3,0-0.9,0.1-1.4,0.2
			c-0.8,0.2-1.3,0.4-2.3,0.9c0,0.5,0,0.7,0,1c0,2.8,1.4,4.7,3.4,4.7c1.8,0,3.2-1.6,3.2-3.7C637.6,1584.2,636.4,1582.9,634.7,1582.9"
			/>
		<path class="st1" d="M642.7,1595.8h-0.6v-1.5c2.2,0,3.1-0.3,4.2-0.9c1.2-0.7,2-1.9,2-3.2c0-1.8-1.2-2.9-3.4-2.9h-1.2v-1.3
			c2.4-0.5,3.8-1.8,3.8-3.4c0-1.2-0.7-1.9-1.8-1.9c-0.8,0-1.4,0.3-2.6,1.3l-1.1-1.2c0.4-0.3,0.7-0.6,0.9-0.7c0.9-0.6,2.1-1,3.1-1
			c1.9,0,3.2,1.3,3.2,3.3c0,1.7-0.8,2.9-2.4,3.7c0.7,0.2,1,0.3,1.3,0.5c1.2,0.7,1.9,1.9,1.9,3.5
			C650.1,1593.6,647.2,1595.8,642.7,1595.8"/>
		<path class="st1" d="M591.3,1779.8v-0.9l5.6-4.8c0.8-0.7,1.2-1.5,1.2-2.3c0-1.2-0.9-2-2.1-2c-0.6,0-1.2,0.2-1.6,0.4
			c-0.5,0.3-0.6,0.5-1.7,1.6l-1.2-0.9c1.1-1.2,1.2-1.3,1.7-1.8c0.8-0.6,1.8-1,3-1c2.3,0,3.8,1.4,3.8,3.5c0,0.6-0.1,1.1-0.3,1.5
			c-0.3,0.7-0.7,1.2-2.3,2.5l-3.1,2.6h6.6v1.5H591.3z"/>
		<path class="st1" d="M609.8,1780.2c-3.3,0-6-2.7-6-6c0-3.4,2.7-6.1,6-6.1c3.3,0,6,2.7,6,6.1
			C615.7,1777.5,613.1,1780.2,609.8,1780.2 M609.8,1769.6c-2.3,0-4.2,2-4.2,4.6c0,2.5,1.9,4.6,4.2,4.6c2.3,0,4.2-2.1,4.2-4.6
			C613.9,1771.6,612,1769.6,609.8,1769.6"/>
		<polygon class="st1" points="619.8,1785.7 618.1,1785.7 624.1,1763.9 625.8,1763.9 		"/>
		<path class="st1" d="M633.8,1783.7c-0.6,0.4-1.4,0.7-2.3,0.9c-0.8,0.2-1.3,0.2-2.7,0.3v-1.5c1.6-0.1,2-0.2,2.9-0.4
			c1.7-0.5,2.6-1.8,2.6-3.7c0-1.2-0.4-2.2-1.1-2.9c-0.6-0.6-1.4-0.8-2.9-0.8l-1.2,0v-7.2h6.5v1.5H631v4.2l0.9,0.1
			c2.7,0.2,4.3,2.1,4.3,5.1C636.2,1781.1,635.3,1782.8,633.8,1783.7"/>
		<path class="st1" d="M645,1780.2c-3.3,0-6-2.7-6-6c0-3.4,2.7-6.1,6-6.1c3.3,0,6,2.7,6,6.1C650.9,1777.5,648.3,1780.2,645,1780.2
			 M645,1769.6c-2.3,0-4.2,2-4.2,4.6c0,2.5,1.9,4.6,4.2,4.6c2.3,0,4.2-2.1,4.2-4.6C649.1,1771.6,647.3,1769.6,645,1769.6"/>
		<path class="st1" d="M590,1937.3v-0.9l5.6-4.8c0.8-0.7,1.2-1.5,1.2-2.3c0-1.2-0.9-2-2.1-2c-0.6,0-1.2,0.2-1.6,0.4
			c-0.5,0.3-0.6,0.5-1.7,1.6l-1.2-0.9c1.1-1.2,1.2-1.3,1.7-1.8c0.8-0.6,1.8-1,3-1c2.3,0,3.8,1.4,3.8,3.5c0,0.6-0.1,1.1-0.3,1.5
			c-0.3,0.7-0.7,1.2-2.3,2.5l-3.1,2.6h6.6v1.5H590z"/>
		<path class="st1" d="M608.4,1937.7c-3.3,0-6-2.7-6-6c0-3.4,2.7-6.1,6-6.1c3.3,0,6,2.7,6,6.1C614.4,1935,611.7,1937.7,608.4,1937.7
			 M608.4,1927.1c-2.3,0-4.2,2-4.2,4.6c0,2.5,1.9,4.6,4.2,4.6c2.3,0,4.2-2.1,4.2-4.6C612.6,1929.1,610.7,1927.1,608.4,1927.1"/>
		<polygon class="st1" points="618.4,1943.2 616.7,1943.2 622.8,1921.4 624.4,1921.4 		"/>
		<path class="st1" d="M635.6,1937.3v5h-1.7v-5h-7.6v-0.5l8.5-11.2h0.8v10.1h2.8v1.5H635.6z M633.5,1929.9l-4.1,5.5l-0.5,0.5
			l0.6-0.1h4.3l0-5.9l0-0.7L633.5,1929.9z"/>
		<path class="st1" d="M646.3,1937.7c-3.3,0-6-2.7-6-6c0-3.4,2.7-6.1,6-6.1c3.3,0,6,2.7,6,6.1C652.3,1935,649.6,1937.7,646.3,1937.7
			 M646.3,1927.1c-2.3,0-4.2,2-4.2,4.6c0,2.5,1.9,4.6,4.2,4.6c2.3,0,4.2-2.1,4.2-4.6C650.5,1929.1,648.6,1927.1,646.3,1927.1"/>
		<path class="st1" d="M592,2084.3v-0.9l5.6-4.8c0.8-0.7,1.2-1.5,1.2-2.3c0-1.2-0.9-2-2.1-2c-0.6,0-1.2,0.2-1.6,0.4
			c-0.5,0.3-0.6,0.5-1.7,1.6l-1.2-0.9c1.1-1.2,1.2-1.3,1.7-1.8c0.8-0.6,1.8-1,3-1c2.3,0,3.8,1.4,3.8,3.5c0,0.6-0.1,1.1-0.3,1.5
			c-0.3,0.7-0.7,1.2-2.3,2.5l-3.1,2.6h6.6v1.5H592z"/>
		<path class="st1" d="M610.5,2084.7c-3.3,0-6-2.7-6-6c0-3.4,2.7-6.1,6-6.1c3.3,0,6,2.7,6,6.1C616.4,2082,613.8,2084.7,610.5,2084.7
			 M610.5,2074.1c-2.3,0-4.2,2-4.2,4.6c0,2.5,1.9,4.6,4.2,4.6c2.3,0,4.2-2.1,4.2-4.6C614.6,2076.1,612.8,2074.1,610.5,2074.1"/>
		<polygon class="st1" points="620.5,2090.2 618.8,2090.2 624.9,2068.4 626.5,2068.4 		"/>
		<path class="st1" d="M629.6,2089.3H629v-1.5c2.2,0,3.1-0.3,4.2-0.9c1.2-0.7,2-1.9,2-3.2c0-1.8-1.2-2.9-3.4-2.9h-1.2v-1.3
			c2.4-0.5,3.8-1.8,3.8-3.4c0-1.2-0.7-1.9-1.8-1.9c-0.8,0-1.4,0.3-2.6,1.3l-1.1-1.2c0.4-0.3,0.7-0.6,0.9-0.7c0.9-0.6,2.1-1,3.1-1
			c1.9,0,3.2,1.3,3.2,3.3c0,1.7-0.8,2.9-2.4,3.7c0.7,0.2,1,0.3,1.3,0.5c1.2,0.7,1.9,1.9,1.9,3.5
			C637,2087.1,634.1,2089.3,629.6,2089.3"/>
		<path class="st1" d="M640.1,2084.3v-0.9l5.6-4.8c0.8-0.7,1.2-1.5,1.2-2.3c0-1.2-0.9-2-2.1-2c-0.6,0-1.2,0.2-1.6,0.4
			c-0.5,0.3-0.6,0.5-1.7,1.6l-1.2-0.9c1.1-1.2,1.2-1.3,1.7-1.8c0.8-0.6,1.8-1,3-1c2.3,0,3.8,1.4,3.8,3.5c0,0.6-0.1,1.1-0.3,1.5
			c-0.3,0.7-0.7,1.2-2.3,2.5l-3.1,2.6h6.6v1.5H640.1z"/>
		<path class="st1" d="M582.8,20.3v-0.9l5.6-4.8c0.8-0.7,1.2-1.5,1.2-2.3c0-1.2-0.9-2-2.1-2c-0.6,0-1.2,0.2-1.6,0.4
			c-0.5,0.3-0.6,0.5-1.7,1.6l-1.2-0.9c1.1-1.2,1.2-1.3,1.7-1.8c0.8-0.6,1.8-1,3-1c2.3,0,3.8,1.4,3.8,3.5c0,0.6-0.1,1.1-0.3,1.5
			c-0.3,0.7-0.7,1.2-2.3,2.5l-3.1,2.6h6.6v1.5H582.8z"/>
		<path class="st1" d="M601.3,20.7c-3.3,0-6-2.7-6-6c0-3.4,2.7-6.1,6-6.1c3.3,0,6,2.7,6,6.1C607.2,18,604.6,20.7,601.3,20.7
			 M601.3,10.1c-2.3,0-4.2,2-4.2,4.6c0,2.5,1.9,4.6,4.2,4.6c2.3,0,4.2-2.1,4.2-4.6C605.4,12.1,603.6,10.1,601.3,10.1"/>
		<polygon class="st1" points="611.3,26.2 609.6,26.2 615.6,4.4 617.3,4.4 		"/>
		<path class="st1" d="M628.4,20.3v5h-1.7v-5h-7.6v-0.5l8.4-11.2h0.8v10.1h2.8v1.5H628.4z M626.4,12.9l-4.1,5.5l-0.5,0.5l0.6-0.1
			h4.3l0-5.9l0-0.7L626.4,12.9z"/>
		<path class="st1" d="M639.2,20.7c-3.3,0-6-2.7-6-6c0-3.4,2.7-6.1,6-6.1c3.3,0,6,2.7,6,6.1C645.1,18,642.5,20.7,639.2,20.7
			 M639.2,10.1c-2.3,0-4.2,2-4.2,4.6c0,2.5,1.9,4.6,4.2,4.6c2.3,0,4.2-2.1,4.2-4.6C643.3,12.1,641.5,10.1,639.2,10.1"/>
		<path class="st1" d="M653.5,20.7c-3.3,0-6-2.7-6-6c0-3.4,2.7-6.1,6-6.1c3.3,0,6,2.7,6,6.1C659.4,18,656.8,20.7,653.5,20.7
			 M653.5,10.1c-2.3,0-4.2,2-4.2,4.6c0,2.5,1.9,4.6,4.2,4.6c2.3,0,4.2-2.1,4.2-4.6C657.6,12.1,655.8,10.1,653.5,10.1"/>
	</g>
	<g>
		<path class="st2" d="M135,899c0-11.2,10.6-14.3,27.1-15.4c0-5.5-2-6.8-7-6.8c-5.7,0-9.1,2-11.5,5.9l-7.6-5.9
			c4.5-6.7,11.3-9.3,20.2-9.3s17.2,3.1,17.2,13.6v16.9c-0.2,2.5,1,3.6,3.1,3.6c0.7,0,1.4-0.1,2.1-0.3c-0.5,2.1-1.8,8.2-1.8,8.2
			c-2.4,0.8-3.7,0.6-5,0.6c-4.5,0-8.2-1.5-9.3-5.6c-2.5,3.7-6.8,6.1-13.5,6.1C141.3,910.5,135,907.1,135,899z M146.3,897.9
			c0,2.5,2,3.9,5,3.9c5.3,0,10.7-3.4,10.7-10.2C152.6,891.9,146.3,893.6,146.3,897.9z"/>
		<path class="st2" d="M221.3,867.4c6.7,0,10.9,3,12.8,6.7l-0.2-5.8h11.5v57.9h-11.5v-22.6c-2.2,3.5-5.7,6.3-12.4,6.3
			c-9.9,0-17.1-7.2-17.1-20.5S210.3,867.4,221.3,867.4z M215.9,889.1c0,7.4,3,10.8,9.1,10.8c5.3,0,9.2-3.8,9.2-10.6
			c0-8.3-3.5-12.2-9.6-12.2C218.5,877.1,215.9,881.1,215.9,889.1z"/>
		<path class="st2" d="M256.6,868.5h11.5v24.2c0,5.2,3.1,7.8,7.4,7.8c5.2,0,8.3-5.2,8.3-10.9v-21.1h11.6v40.9h-11.6l0.4-7.1
			c-0.1,1.6-5.7,8.2-15,8.2c-10.6,0-12.6-8.3-12.6-15.7V868.5z"/>
		<path class="st2" d="M313.3,848.5c3.4,0,6.3,2.8,6.3,6.3c0,3.4-2.8,6.3-6.3,6.3c-3.5,0-6.3-2.9-6.3-6.3
			C307,851.4,309.9,848.5,313.3,848.5z M319.1,868.5v40.9h-11.5v-40.9H319.1z"/>
		<path class="st2" d="M328.5,888.9c0-13.2,8.7-21.5,20.8-21.5c9.3,0,15.4,4.1,18.3,12l-9.5,4.7c-1.5-4.5-4-7.3-8.7-7.3
			c-5.8,0-9.1,3.8-9.1,11.6c0,7.9,3,12.7,9.2,12.7c4.8,0,7.5-2.7,9-7.4l9.7,4.9c-3.1,7.3-8.8,11.8-18.8,11.8
			C335.2,910.5,328.5,900.3,328.5,888.9z"/>
		<path class="st2" d="M387.5,849v35.4l14.6-16h13.3l-15.2,16.3l15.7,24.6h-12.6l-10.5-16.6l-5.4,5.7v10.9H376V849H387.5z"/>
		<path class="st2" d="M445.3,849h11.5v25.2c2.2-3.5,5.8-6.8,12.3-6.8c9.8,0,17.2,7.7,17.2,21.2c0,13.3-6.1,21.8-16.9,21.8
			c-6.6,0-10.9-3-12.8-6.8l0.2,5.8h-11.5V849z M466,900.8c6.2,0,8.8-4.2,8.8-12.1c0-7.4-3-11.8-9-11.8c-5.5,0-9.4,4.8-9.4,11.7
			C456.4,896.9,459.9,900.8,466,900.8z"/>
		<path class="st2" d="M495.3,868.5h11.5l-0.2,7.3c0.1-1.7,4-8.4,9.7-8.4c2.6,0,4,0.5,6.3,2.2l-4.8,10.3c-0.6-0.4-1.7-1-3.4-1
			c-5.7,0-7.6,3.5-7.6,9.4v20.9h-11.5V868.5z"/>
		<path class="st2" d="M547.2,867.4c12.1,0,20.8,8.2,20.8,21.4c0,13.5-8.5,21.7-20.8,21.7c-12.2,0-20.8-8.2-20.8-21.7
			C526.5,875.6,535.2,867.4,547.2,867.4z M547.2,901.4c6.5,0,9.3-5.2,9.3-12.6c0-7.6-3-12.3-9.3-12.3c-6.3,0-9.3,4.6-9.3,12.3
			C537.9,896.1,540.8,901.4,547.2,901.4z"/>
		<path class="st2" d="M576.6,894.7v-26.2H588v24.2c0,5.2,3.1,7.8,7.4,7.8c5.2,0,7.4-5.2,7.4-10.9v-21.1h11.5v24.2
			c-0.1,5.2,3.1,7.8,7.4,7.8c5.2,0,7.2-5.2,7.2-10.9v-21.1h11.7v40.9h-11.7l0.4-7.1c-0.2,1.6-4.6,8.2-13.9,8.2
			c-6.8,0-10.2-3.5-11.6-8.2c-0.4,1.9-5,8.2-14.1,8.2C579.2,910.5,576.6,902.1,576.6,894.7z"/>
		<path class="st2" d="M663.6,868.5l-0.2,7.3c0.1-1.7,5.6-8.4,15-8.4c10.3,0,12.6,8.5,12.6,15.7v26.2h-11.6v-24.1
			c0.1-5.3-3.2-7.9-7.3-7.9c-5.3,0-8.5,5.2-8.5,11.1v20.9h-11.5v-40.9H663.6z"/>
		<path class="st2" d="M720.3,877.9v-9.4h7v-6.3c0-8.6,4.2-13.6,12.6-13.6c4.3,0,7.8,1.6,9.9,3.1l-2.2,8.5h-0.3
			c-1.1-1.1-2.8-1.6-4.4-1.6c-2.3,0-4,1.6-4,4.2v5.8h8.7v9.4h-8.7v31.5h-11.5v-31.5H720.3z"/>
		<path class="st2" d="M774.8,867.4c12.1,0,20.8,8.2,20.8,21.4c0,13.5-8.5,21.7-20.8,21.7s-20.8-8.2-20.8-21.7
			C754,875.6,762.7,867.4,774.8,867.4z M774.8,901.4c6.5,0,9.3-5.2,9.3-12.6c0-7.6-3-12.3-9.3-12.3s-9.3,4.6-9.3,12.3
			C765.5,896.1,768.3,901.4,774.8,901.4z"/>
		<path class="st2" d="M814.4,888.3l-14.5-19.8h13.7l7.6,10.3l7.6-10.3h12.6l-14.1,19.3l15.6,21.7h-13.1l-9.1-12.4l-8.9,12.4h-13
			L814.4,888.3z"/>
		<path class="st2" d="M864,925.1l0.5-9.4h0.2c1.7,0.8,2,1.1,3.7,1.1c2.1,0,3.7-1.1,3.7-4.1v-44.3h11.5v46.3
			c0,7.6-4.6,12.1-11.7,12.1C868.3,926.7,865.9,926,864,925.1z M884.2,854.8c0,3.4-2.8,6.3-6.3,6.3c-3.5,0-6.3-2.9-6.3-6.3
			c0-3.5,2.8-6.3,6.3-6.3C881.4,848.5,884.2,851.3,884.2,854.8z"/>
		<path class="st2" d="M895.4,868.5h11.5v24.2c0,5.2,3.2,7.8,7.4,7.8c5.2,0,8.3-5.2,8.3-10.9v-21.1h11.6v40.9h-11.6l0.4-7.1
			c-0.2,1.6-5.7,8.2-15,8.2c-10.6,0-12.6-8.3-12.6-15.7V868.5z"/>
		<path class="st2" d="M945.8,909.4v-40.9h11.5l-0.2,7.3c0.1-1.7,4.6-8.4,13.9-8.4c6.8,0,10.1,3.7,11.6,8.2c0.4-1.9,5-8.2,14-8.2
			c10.6,0,13.2,8.5,13.2,15.7v26.2h-11.7v-24.1c0.2-5.3-3.2-7.9-7.2-7.9c-5.4,0-7.4,5.2-7.4,11.1v20.9H972v-24.1
			c0-5.3-3.1-7.9-7.3-7.9c-5.2,0-7.4,5.2-7.4,11.1v20.9H945.8z"/>
		<path class="st2" d="M1021,868.3h11.5l-0.1,5.8c2-3.7,6.3-6.7,12.8-6.7c10.9,0,16.9,8.5,16.9,21.9s-7.3,20.5-17.1,20.5
			c-6.7,0-10.2-2.8-12.5-6.3v22.6H1021V868.3z M1041.6,899.9c5.9,0,8.9-3.4,8.9-10.8c0-7.9-2.6-12-8.7-12s-9.7,3.9-9.7,12.2
			C1032.1,896.1,1036,899.9,1041.6,899.9z"/>
		<path class="st2" d="M1074.9,895.2c2.8,3.5,6.1,5.9,13.2,5.9c4.8,0,7.3-1.1,7.3-3.7c0-2.8-2.2-3-9.5-3.9
			c-9.2-1.3-15.7-3.5-15.7-13.3c0-9.1,8-12.8,17.6-12.8c8.7,0,14.8,2.6,18.2,6.3l-6.5,7.3c-2.4-2.8-5.9-4.6-11.7-4.6
			c-5.4,0-7.4,1.5-7.4,3.3c0,2.4,2,3.1,8.5,3.9c8.7,0.8,17.8,3,17.8,13.3c0,8.8-6.2,13.6-18.2,13.6c-10,0-16.7-3.1-20.8-9.1
			L1074.9,895.2z"/>
	</g>
	<g>
		<path class="st2" d="M258.3,2522.7c3.7,0,6.6,2.9,6.6,6.6c0,3.6-2.9,6.5-6.6,6.5c-3.6,0-6.5-2.9-6.5-6.5
			C251.8,2525.6,254.7,2522.7,258.3,2522.7z M276.9,2529.3c0-3.7,2.9-6.6,6.5-6.6c3.7,0,6.6,2.9,6.6,6.6c0,3.6-2.9,6.5-6.6,6.5
			C279.9,2535.8,276.9,2532.9,276.9,2529.3z M308.6,2522.7c3.7,0,6.6,2.9,6.6,6.6c0,3.6-2.9,6.5-6.6,6.5c-3.6,0-6.5-2.9-6.5-6.5
			C302.1,2525.6,305,2522.7,308.6,2522.7z"/>
		<path class="st2" d="M345,2493.3c12.1,0,20.8,8.2,20.8,21.4c0,13.5-8.5,21.7-20.8,21.7c-12.2,0-20.8-8.2-20.8-21.7
			C324.2,2501.4,332.9,2493.3,345,2493.3z M345,2527.2c6.5,0,9.3-5.2,9.3-12.6c0-7.6-3-12.3-9.3-12.3c-6.3,0-9.3,4.7-9.3,12.3
			C335.7,2522,338.5,2527.2,345,2527.2z"/>
		<path class="st2" d="M383.1,2494.3l8.5,27.8l9.3-27.8h11.2l-14.4,40.9h-12.6l-14.5-40.9H383.1z"/>
		<path class="st2" d="M437.4,2493.3c10.5,0,20.8,6.3,19.9,24.1h-29.1c0.8,6.3,4,9.5,9.5,9.5c4.8,0,7.9-1.6,9.7-6l9.8,3.2
			c-2.8,7.6-9.1,12.1-19.6,12.1c-12,0-20.8-7.6-20.8-21.4C417,2501.4,425.4,2493.3,437.4,2493.3z M428.4,2509.9l17.5-0.1
			c-0.6-4.7-3.2-7.4-8.5-7.4C432.6,2502.4,429.4,2505,428.4,2509.9z"/>
		<path class="st2" d="M466.5,2494.4H478l-0.2,7.3c0.1-1.7,4-8.4,9.7-8.4c2.6,0,4,0.5,6.3,2.2l-4.8,10.3c-0.6-0.4-1.7-1-3.4-1
			c-5.7,0-7.6,3.5-7.6,9.5v20.9h-11.5V2494.4z"/>
		<path class="st2" d="M518.7,2494.3h7v-5.9c3.9-2.2,7.9-5.5,11.2-9.4h0.2v15.4h8.7v9.4h-8.7v18.8c0,3,2.2,3.5,4.2,3.5
			c1.1,0,2.8-0.4,3.7-1h0.1l-0.5,10c-1.3,0.5-2.8,1.3-7.8,1.3c-5.3,0-11.2-2.9-11.2-11.5v-21.1h-7V2494.3z"/>
		<path class="st2" d="M566.4,2474.9v26.8c0-1.6,5.2-8.4,14.7-8.4c10.5,0,12.6,8.4,12.6,15.7v26.2h-11.5v-24.1
			c0.1-5.2-3.1-7.9-7.3-7.9c-5.2,0-8.4,5.2-8.4,11v21h-11.5v-60.4H566.4z"/>
		<path class="st2" d="M622.7,2493.3c10.5,0,20.8,6.3,19.9,24.1h-29.1c0.8,6.3,4,9.5,9.5,9.5c4.8,0,7.9-1.6,9.7-6l9.8,3.2
			c-2.9,7.6-9.1,12.1-19.6,12.1c-12,0-20.8-7.6-20.8-21.4C602.2,2501.4,610.6,2493.3,622.7,2493.3z M613.7,2509.9l17.5-0.1
			c-0.6-4.7-3.2-7.4-8.5-7.4C617.8,2502.4,614.7,2505,613.7,2509.9z"/>
		<path class="st2" d="M685.4,2535.3h-11.5v-60.4h11.5V2535.3z"/>
		<path class="st2" d="M694.5,2524.8c0-11.2,10.6-14.3,27.1-15.4c0-5.5-2-6.8-7-6.8c-5.7,0-9.1,2-11.5,5.9l-7.6-5.9
			c4.5-6.7,11.3-9.3,20.2-9.3s17.2,3.1,17.2,13.6v16.9c-0.1,2.5,1,3.6,3.1,3.6c0.7,0,1.3-0.2,2.1-0.3c-0.5,2.1-1.8,8.2-1.8,8.2
			c-2.4,0.8-3.8,0.6-5,0.6c-4.5,0-8.2-1.5-9.3-5.6c-2.5,3.8-6.8,6.1-13.5,6.1C700.8,2536.3,694.5,2532.9,694.5,2524.8z
			 M705.8,2523.7c0,2.5,2,3.9,5,3.9c5.3,0,10.7-3.4,10.7-10.2C712.1,2517.8,705.8,2519.4,705.8,2523.7z"/>
		<path class="st2" d="M777.6,2535.3h-35.2v-8.7l20.5-22.9h-19.3v-9.3h33.7v8.2l-20.8,23.5h20.9V2535.3z"/>
		<path class="st2" d="M782.9,2494.3h13l9.1,27.1l9.1-27.1h11.7l-15.7,43.9c-2.2,5.9-4.8,10-7.6,12.2c-2.4,1.9-5.6,2.6-9.3,2.6
			c-3.1,0-6.1-0.5-7.9-1.9l1.3-9.8h0.4c1.1,0.8,2.8,1.4,4.8,1.4c3.4,0,6.2-2.5,7.3-6.2L782.9,2494.3z"/>
		<path class="st2" d="M852.6,2514.5c0-13.5,7.3-21.2,17.1-21.2c6.6,0,10.1,3.4,12.4,6.8v-25.2h11.5v60.4h-11.5l0.1-5.8
			c-1.9,3.8-6.1,6.8-12.7,6.8C858.6,2536.3,852.6,2527.8,852.6,2514.5z M872.9,2526.6c6.1,0,9.7-3.8,9.7-12.2
			c0-6.9-3.9-11.7-9.4-11.7c-6,0-9.1,4.3-9.1,11.8C864.1,2522.4,866.7,2526.6,872.9,2526.6z"/>
		<path class="st2" d="M923.4,2493.3c12.1,0,20.8,8.2,20.8,21.4c0,13.5-8.5,21.7-20.8,21.7s-20.8-8.2-20.8-21.7
			C902.6,2501.4,911.3,2493.3,923.4,2493.3z M923.4,2527.2c6.5,0,9.3-5.2,9.3-12.6c0-7.6-3-12.3-9.3-12.3s-9.3,4.7-9.3,12.3
			C914.1,2522,916.9,2527.2,923.4,2527.2z"/>
		<path class="st2" d="M957.2,2535.3c-4.6-1.2-7-4-7-8.5c0-3.8,3.6-6.8,8-8.2c-2.9-2.2-5-5.8-5-10.5c0-9.4,7.2-14.9,17.7-14.9
			c6.2,0,11.1,2,14.8,6c1.7-4,4.9-5.4,7-5.4c1.2,0,2.4,0,3.5,0.6l-1.9,9.4c-0.5-0.5-1.2-0.8-2.4-0.8c-2,0-3.4,1.7-3.4,2.8
			c0,1.1,0.1,2.2,0.1,2.7c0,8.7-7.5,13.8-17.8,13.8c-3.3,0-6.5-0.6-8.2-1c-1.3,0.4-2.4,1.5-2.4,2.5c0,2.2,2.8,3.4,12.8,3.4
			c11.8,0,14.3,1.1,16.8,2.9c2.3,1.7,4,4.1,4,9c0,10-7.8,13.5-22.8,13.5c-14.3,0-21.3-2.7-21.3-9.8
			C949.6,2538.6,953.3,2536.7,957.2,2535.3z M960.3,2539.9c0,2.8,2.9,4.2,11,4.2c6.9,0,11.1-1.1,11.1-3.8c0-0.3,0-1.3-0.5-1.9
			c-1.6-1.6-6.7-1.2-11.5-1.3c-4.3-0.1-5.8-0.1-7.9-0.4C961.2,2537.2,960.3,2538.1,960.3,2539.9z M963.6,2508.2
			c0,3.8,2.8,5.8,7.3,5.8c4.6,0,7.1-2.1,7.1-5.9c0-3.9-2.4-6.3-7-6.3C966.2,2501.8,963.6,2504.3,963.6,2508.2z"/>
	</g>
	<path class="st2" d="M584.7,1097.3v-0.9l5.6-4.8c0.8-0.7,1.2-1.5,1.2-2.3c0-1.2-0.9-2-2.1-2c-0.6,0-1.2,0.2-1.6,0.4
		c-0.5,0.3-0.6,0.5-1.7,1.6l-1.2-0.9c1.1-1.2,1.2-1.3,1.7-1.8c0.8-0.6,1.8-1,3-1c2.3,0,3.8,1.4,3.8,3.5c0,0.6-0.1,1.1-0.3,1.5
		c-0.3,0.7-0.7,1.2-2.3,2.5l-3.1,2.6h6.6v1.5H584.7z"/>
	<path class="st2" d="M603.1,1097.7c-3.3,0-6-2.7-6-6c0-3.4,2.7-6.1,6-6.1c3.3,0,6,2.7,6,6.1C609.1,1095,606.4,1097.7,603.1,1097.7
		 M603.1,1087.1c-2.3,0-4.2,2-4.2,4.6c0,2.5,1.9,4.6,4.2,4.6c2.3,0,4.2-2.1,4.2-4.6C607.3,1089.1,605.4,1087.1,603.1,1087.1"/>
</g>
<g id="Layer_3" class="st3">
	<path class="st4" d="M592.2,2210.3v-0.9l5.6-4.8c0.8-0.7,1.2-1.5,1.2-2.3c0-1.2-0.9-2-2.1-2c-0.6,0-1.2,0.2-1.6,0.4
		c-0.5,0.3-0.6,0.5-1.7,1.6l-1.2-0.9c1.1-1.2,1.2-1.3,1.7-1.8c0.8-0.6,1.8-1,3-1c2.3,0,3.8,1.4,3.8,3.5c0,0.6-0.1,1.1-0.3,1.5
		c-0.3,0.7-0.7,1.2-2.3,2.5l-3.1,2.6h6.6v1.5H592.2z"/>
	<path class="st4" d="M610.7,2210.7c-3.3,0-6-2.7-6-6c0-3.4,2.7-6.1,6-6.1c3.3,0,6,2.7,6,6.1C616.6,2208,614,2210.7,610.7,2210.7
		 M610.7,2200.1c-2.3,0-4.2,2-4.2,4.6c0,2.5,1.9,4.6,4.2,4.6c2.3,0,4.2-2.1,4.2-4.6C614.8,2202.1,613,2200.1,610.7,2200.1"/>
	<polygon class="st4" points="620.7,2216.2 619,2216.2 625.1,2194.4 626.7,2194.4 	"/>
	<path class="st4" d="M629.4,2210.3v-0.9l5.6-4.8c0.8-0.7,1.2-1.5,1.2-2.3c0-1.2-0.9-2-2.1-2c-0.6,0-1.2,0.2-1.6,0.4
		c-0.5,0.3-0.6,0.5-1.7,1.6l-1.2-0.9c1.1-1.2,1.2-1.3,1.7-1.8c0.8-0.6,1.8-1,3-1c2.3,0,3.8,1.4,3.8,3.5c0,0.6-0.1,1.1-0.3,1.5
		c-0.3,0.7-0.7,1.2-2.3,2.5l-3.1,2.6h6.6v1.5H629.4z"/>
	<path class="st4" d="M647.2,2214.2c-0.6,0.4-1.4,0.7-2.3,0.9c-0.8,0.2-1.3,0.2-2.7,0.3v-1.5c1.6-0.1,2-0.2,2.9-0.4
		c1.7-0.5,2.6-1.8,2.6-3.7c0-1.2-0.4-2.2-1.1-2.9c-0.6-0.6-1.4-0.8-2.9-0.8l-1.2,0v-7.2h6.5v1.5h-4.8v4.2l0.9,0.1
		c2.7,0.2,4.3,2.1,4.3,5.1C649.6,2211.6,648.7,2213.3,647.2,2214.2"/>
	<path class="st4" d="M584.5,1097.3v-0.9l5.6-4.8c0.8-0.7,1.2-1.5,1.2-2.3c0-1.2-0.9-2-2.1-2c-0.6,0-1.2,0.2-1.6,0.4
		c-0.5,0.3-0.6,0.5-1.7,1.6l-1.2-0.9c1.1-1.2,1.2-1.3,1.7-1.8c0.8-0.6,1.8-1,3-1c2.3,0,3.8,1.4,3.8,3.5c0,0.6-0.1,1.1-0.3,1.5
		c-0.3,0.7-0.7,1.2-2.3,2.5l-3.1,2.6h6.6v1.5H584.5z"/>
	<path class="st4" d="M602.9,1097.7c-3.3,0-6-2.7-6-6c0-3.4,2.7-6.1,6-6.1c3.3,0,6,2.7,6,6.1C608.9,1095,606.2,1097.7,602.9,1097.7
		 M602.9,1087.1c-2.3,0-4.2,2-4.2,4.6c0,2.5,1.9,4.6,4.2,4.6c2.3,0,4.2-2.1,4.2-4.6C607.1,1089.1,605.2,1087.1,602.9,1087.1"/>
	<polygon class="st4" points="612.9,1103.2 611.2,1103.2 617.3,1081.4 618.9,1081.4 	"/>
	<polygon class="st4" points="624.7,1097.3 624.7,1087.3 622,1087.3 622,1085.8 626.5,1085.8 626.5,1097.3 	"/>
	<path class="st4" d="M637.6,1097.7c-3.3,0-6-2.7-6-6c0-3.4,2.7-6.1,6-6.1c3.3,0,6,2.7,6,6.1C643.5,1095,640.8,1097.7,637.6,1097.7
		 M637.6,1087.1c-2.3,0-4.2,2-4.2,4.6c0,2.5,1.9,4.6,4.2,4.6c2.3,0,4.2-2.1,4.2-4.6C641.7,1089.1,639.8,1087.1,637.6,1087.1"/>
	<path class="st4" d="M651.8,1097.7c-3.3,0-6-2.7-6-6c0-3.4,2.7-6.1,6-6.1c3.3,0,6,2.7,6,6.1C657.8,1095,655.1,1097.7,651.8,1097.7
		 M651.8,1087.1c-2.3,0-4.2,2-4.2,4.6c0,2.5,1.9,4.6,4.2,4.6c2.3,0,4.2-2.1,4.2-4.6C656,1089.1,654.1,1087.1,651.8,1087.1"/>
</g>
<g id="Layer_2">
	<g>
		<path class="st2" d="M549.1,2696.5v-21.8h6.1l-0.1,3.9c0-0.9,2.4-4.5,7.4-4.5c3.6,0,5.4,2,6.2,4.4c0.2-1,2.7-4.4,7.5-4.4
			c5.6,0,7,4.5,7,8.4v14H577v-12.8c0.1-2.8-1.7-4.2-3.8-4.2c-2.9,0-4,2.8-4,5.9v11.2h-6.1v-12.8c0-2.8-1.7-4.2-3.9-4.2
			c-2.8,0-4,2.8-4,5.9v11.2H549.1z"/>
		<path class="st2" d="M600.5,2664c1.8,0,3.4,1.5,3.4,3.4s-1.5,3.4-3.4,3.4s-3.4-1.5-3.4-3.4S598.7,2664,600.5,2664z M603.6,2674.7
			v21.8h-6.2v-21.8H603.6z"/>
		<path class="st2" d="M624.5,2696.5h-6.2v-32.2h6.2V2696.5z"/>
		<path class="st2" d="M648.6,2674.1c6.4,0,11.1,4.4,11.1,11.4c0,7.2-4.6,11.6-11.1,11.6s-11.1-4.4-11.1-11.6
			C637.5,2678.5,642.1,2674.1,648.6,2674.1z M648.6,2692.2c3.5,0,5-2.8,5-6.7c0-4.1-1.6-6.6-5-6.6s-5,2.5-5,6.6
			C643.6,2689.4,645.1,2692.2,648.6,2692.2z"/>
		<path class="st2" d="M672.2,2674.7h6.1v12.9c0,2.8,1.7,4.2,4,4.2c2.8,0,4.4-2.8,4.4-5.8v-11.2h6.2v21.8h-6.2l0.2-3.8
			c-0.1,0.9-3,4.4-8,4.4c-5.6,0-6.7-4.4-6.7-8.4V2674.7z"/>
	</g>
	<g>
		<path d="M584.5,1097.3v-0.9l5.8-5c0.8-0.7,1.2-1.5,1.2-2.4c0-1.2-0.9-2-2.2-2c-0.6,0-1.2,0.2-1.6,0.4c-0.5,0.3-0.7,0.5-1.8,1.7
			l-1.3-1c1.1-1.3,1.2-1.4,1.8-1.8c0.8-0.6,1.9-1,3.1-1c2.4,0,3.9,1.4,3.9,3.6c0,0.6-0.1,1.1-0.3,1.6c-0.3,0.8-0.7,1.2-2.3,2.6
			l-3.2,2.7h6.9v1.6H584.5z"/>
		<path d="M603.1,1097.7c-3.4,0-6.2-2.8-6.2-6.3c0-3.5,2.8-6.3,6.2-6.3c3.4,0,6.2,2.8,6.2,6.3
			C609.3,1094.9,606.5,1097.7,603.1,1097.7z M603.1,1086.6c-2.4,0-4.3,2.1-4.3,4.8c0,2.6,1.9,4.8,4.3,4.8c2.4,0,4.3-2.1,4.3-4.8
			C607.4,1088.8,605.5,1086.6,603.1,1086.6z"/>
		<path d="M612.9,1103.4h-1.7l6.3-22.6h1.7L612.9,1103.4z"/>
		<path d="M624.6,1097.3v-10.4h-2.8v-1.6h4.7v11.9H624.6z"/>
		<path d="M637.3,1097.7c-3.4,0-6.2-2.8-6.2-6.3c0-3.5,2.8-6.3,6.2-6.3c3.4,0,6.2,2.8,6.2,6.3
			C643.5,1094.9,640.7,1097.7,637.3,1097.7z M637.3,1086.6c-2.4,0-4.3,2.1-4.3,4.8c0,2.6,2,4.8,4.3,4.8c2.4,0,4.3-2.1,4.3-4.8
			C641.6,1088.8,639.7,1086.6,637.3,1086.6z"/>
		<path d="M651.6,1097.7c-3.4,0-6.2-2.8-6.2-6.3c0-3.5,2.8-6.3,6.2-6.3c3.4,0,6.2,2.8,6.2,6.3C657.8,1094.9,655,1097.7,651.6,1097.7
			z M651.6,1086.6c-2.4,0-4.3,2.1-4.3,4.8c0,2.6,2,4.8,4.3,4.8c2.4,0,4.3-2.1,4.3-4.8C655.9,1088.8,653.9,1086.6,651.6,1086.6z"/>
	</g>
	<g>
		<path class="st2" d="M592.3,2210.3v-1l5.8-5c0.8-0.7,1.2-1.5,1.2-2.4c0-1.2-0.9-2-2.2-2c-0.6,0-1.2,0.2-1.6,0.4
			c-0.5,0.3-0.7,0.5-1.8,1.7l-1.3-0.9c1.1-1.3,1.2-1.4,1.8-1.8c0.8-0.6,1.9-1,3.1-1c2.4,0,3.9,1.4,3.9,3.6c0,0.6-0.1,1.1-0.3,1.6
			c-0.3,0.8-0.7,1.2-2.3,2.6l-3.2,2.7h6.9v1.6H592.3z"/>
		<path class="st2" d="M610.9,2210.7c-3.4,0-6.2-2.8-6.2-6.3c0-3.5,2.8-6.3,6.2-6.3c3.4,0,6.2,2.8,6.2,6.3
			C617.1,2207.9,614.3,2210.7,610.9,2210.7z M610.9,2199.6c-2.4,0-4.3,2.1-4.3,4.8c0,2.6,1.9,4.8,4.3,4.8c2.4,0,4.3-2.1,4.3-4.8
			C615.2,2201.8,613.2,2199.6,610.9,2199.6z"/>
		<path class="st2" d="M620.6,2216.4h-1.7l6.3-22.6h1.7L620.6,2216.4z"/>
		<path class="st2" d="M629.1,2210.3v-1l5.8-5c0.8-0.7,1.2-1.5,1.2-2.4c0-1.2-0.9-2-2.2-2c-0.6,0-1.2,0.2-1.6,0.4
			c-0.5,0.3-0.7,0.5-1.8,1.7l-1.3-0.9c1.1-1.3,1.2-1.4,1.8-1.8c0.8-0.6,1.9-1,3.1-1c2.4,0,3.9,1.4,3.9,3.6c0,0.6-0.1,1.1-0.3,1.6
			c-0.3,0.8-0.7,1.2-2.3,2.6l-3.2,2.7h6.9v1.6H629.1z"/>
		<path class="st2" d="M647,2214.4c-0.6,0.4-1.5,0.8-2.4,0.9c-0.8,0.2-1.3,0.2-2.8,0.3v-1.6c1.6-0.1,2.1-0.2,3-0.5
			c1.7-0.5,2.7-1.9,2.7-3.8c0-1.2-0.4-2.3-1.1-3c-0.6-0.6-1.5-0.8-3-0.9l-1.2,0v-7.5h6.8v1.6h-5v4.4l1,0.1c2.8,0.2,4.5,2.2,4.5,5.3
			C649.5,2211.6,648.6,2213.4,647,2214.4z"/>
	</g>
</g>
</svg>
