<svg xmlns="http://www.w3.org/2000/svg" xmlns:xlink="http://www.w3.org/1999/xlink" viewBox="0 0 36.32 32.45"><defs><style>.\33 2220062-a89b-4a65-a252-04ef541f46ad,.\37 75f152d-9d7f-42fa-87de-ece68a17c77f,.\39 f122ff2-3402-430f-b517-db3936b22575,.a86017c7-bcd6-4343-a6e6-6f5692affb31,.b5f91e8c-18f5-40c1-baf0-aae329e92701{fill:none;}.\34 ffb27a8-427a-40d6-b1ac-0676360f10e9{clip-path:url(#3e9594fa-6e42-41ed-9a04-479ddc0135ed);}.\31 32fa133-099b-4406-8b1d-c87f99f51f9d{clip-path:url(#dd3d1793-033a-4f8c-9f88-70c647de49f9);}.\33 2220062-a89b-4a65-a252-04ef541f46ad{stroke:#000;}.\33 2220062-a89b-4a65-a252-04ef541f46ad,.\37 75f152d-9d7f-42fa-87de-ece68a17c77f,.\39 f122ff2-3402-430f-b517-db3936b22575,.b5f91e8c-18f5-40c1-baf0-aae329e92701{stroke-linejoin:round;stroke-width:1.99px;}.\36 c7d7e85-3d12-49dc-8ae9-88dc5451d8cc{clip-path:url(#67f63b79-75ea-44e8-8ec7-c2ffec74738d);}.\37 75f152d-9d7f-42fa-87de-ece68a17c77f{stroke:#d94d1a;}.b44702c8-1c2d-4c86-b5ca-57827614bfcd{clip-path:url(#ca988772-bc79-4776-96e7-173cd003e150);}.\39 f122ff2-3402-430f-b517-db3936b22575{stroke:#f2b21a;}.\37 c78d88e-9b2f-4b79-b904-0d5543931d50{clip-path:url(#1f5043c7-c9b4-4fa2-a331-19f5ccdb2b5a);}.b5f91e8c-18f5-40c1-baf0-aae329e92701{stroke:#265999;}.bbbd9bcc-0cd2-4dee-a4e9-f8062da48c40{clip-path:url(#1cbcbc0c-31b5-4c5a-b122-5dfcb739f7b7);}</style><clipPath id="3e9594fa-6e42-41ed-9a04-479ddc0135ed" transform="translate(-25.36 -27.29)"><polyline class="a86017c7-bcd6-4343-a6e6-6f5692affb31" points="44.38 44.01 42.65 43.02 49.74 30.74 51.47 31.74 44.38 44.01"/></clipPath><clipPath id="dd3d1793-033a-4f8c-9f88-70c647de49f9" transform="translate(-25.36 -27.29)"><rect class="a86017c7-bcd6-4343-a6e6-6f5692affb31" width="87.03" height="87.03"/></clipPath><clipPath id="67f63b79-75ea-44e8-8ec7-c2ffec74738d" transform="translate(-25.36 -27.29)"><polyline class="a86017c7-bcd6-4343-a6e6-6f5692affb31" points="44.28 42.88 42.75 44.16 33.64 33.3 35.17 32.02 44.28 42.88"/></clipPath><clipPath id="ca988772-bc79-4776-96e7-173cd003e150" transform="translate(-25.36 -27.29)"><polyline class="a86017c7-bcd6-4343-a6e6-6f5692affb31" points="42.65 44.01 44.38 43.02 51.47 55.29 49.74 56.29 42.65 44.01"/></clipPath><clipPath id="1f5043c7-c9b4-4fa2-a331-19f5ccdb2b5a" transform="translate(-25.36 -27.29)"><polyline class="a86017c7-bcd6-4343-a6e6-6f5692affb31" points="29.34 44.51 29.34 42.52 57.69 42.52 57.69 44.51 29.34 44.51"/></clipPath><clipPath id="1cbcbc0c-31b5-4c5a-b122-5dfcb739f7b7" transform="translate(-25.36 -27.29)"><path class="a86017c7-bcd6-4343-a6e6-6f5692affb31" d="M58.69,43.52a15.19,15.19,0,1,0-4.45,10.72,15.14,15.14,0,0,0,4.45-10.72h0"/></clipPath></defs><title>Asset 9</title><g id="59acf3e2-dd4f-4c7c-8ca1-b2ee2dfe909e" data-name="Layer 2"><g id="8cf1afd7-b12e-4ecf-86d0-49cdbc39c2ca" data-name="Layer 1"><g class="4ffb27a8-427a-40d6-b1ac-0676360f10e9"><g class="132fa133-099b-4406-8b1d-c87f99f51f9d"><polyline class="32220062-a89b-4a65-a252-04ef541f46ad" points="16.17 19.68 18.16 16.22 25.25 3.95 27.24 0.5"/></g></g><g class="6c7d7e85-3d12-49dc-8ae9-88dc5451d8cc"><g class="132fa133-099b-4406-8b1d-c87f99f51f9d"><polyline class="775f152d-9d7f-42fa-87de-ece68a17c77f" points="20.72 19.28 18.16 16.22 9.05 5.37 6.49 2.31"/></g></g><g class="b44702c8-1c2d-4c86-b5ca-57827614bfcd"><g class="132fa133-099b-4406-8b1d-c87f99f51f9d"><polyline class="9f122ff2-3402-430f-b517-db3936b22575" points="16.17 12.77 18.16 16.22 25.25 28.5 27.24 31.95"/></g></g><g class="7c78d88e-9b2f-4b79-b904-0d5543931d50"><g class="132fa133-099b-4406-8b1d-c87f99f51f9d"><polyline class="b5f91e8c-18f5-40c1-baf0-aae329e92701" points="0 16.22 3.98 16.22 32.33 16.22 36.32 16.22"/></g></g><g class="bbbd9bcc-0cd2-4dee-a4e9-f8062da48c40"><g class="132fa133-099b-4406-8b1d-c87f99f51f9d"><path class="775f152d-9d7f-42fa-87de-ece68a17c77f" d="M57.69,43.52a14.17,14.17,0,1,0-4.15,10,14.18,14.18,0,0,0,4.15-10" transform="translate(-25.36 -27.29)"/><path class="775f152d-9d7f-42fa-87de-ece68a17c77f" d="M57.67,44.22c0-.23,0-.47,0-.7" transform="translate(-25.36 -27.29)"/><path class="775f152d-9d7f-42fa-87de-ece68a17c77f" d="M57.69,43.52c0-.24,0-.47,0-.71" transform="translate(-25.36 -27.29)"/></g></g></g></g></svg>