<svg xmlns="http://www.w3.org/2000/svg" xmlns:xlink="http://www.w3.org/1999/xlink" viewBox="0 0 36.32 30.34"><defs><style>.\36 9a9a39f-c8a8-4fdc-8253-5d6ab2a78b04,.d573e45b-a139-4003-8a42-e6ce80d49258,.f25e845c-cff8-4bb5-9322-7c89e6fb2794{fill:none;}.e261d348-cbde-4b43-b547-7c92f2356564{clip-path:url(#2857745f-273d-4b80-b76c-7381c8227b65);}.\32 ebe5700-6f80-45e8-b024-d03723e11482{clip-path:url(#e09ba9b5-2d1b-4a11-b36d-f0b21c70b236);}.f25e845c-cff8-4bb5-9322-7c89e6fb2794{stroke:#f2b21a;}.d573e45b-a139-4003-8a42-e6ce80d49258,.f25e845c-cff8-4bb5-9322-7c89e6fb2794{stroke-linejoin:round;stroke-width:1.99px;}.bc9171d8-f773-4a26-8aa6-dfeb3ea34545{clip-path:url(#663b7fc0-d41c-434e-8218-de6f36e8c98b);}.d573e45b-a139-4003-8a42-e6ce80d49258{stroke:#d94d1a;}</style><clipPath id="2857745f-273d-4b80-b76c-7381c8227b65" transform="translate(-25.36 -28.35)"><polyline class="69a9a39f-c8a8-4fdc-8253-5d6ab2a78b04" points="57.69 42.52 57.69 44.51 29.34 44.51 29.34 42.52 57.69 42.52"/></clipPath><clipPath id="e09ba9b5-2d1b-4a11-b36d-f0b21c70b236" transform="translate(-25.36 -28.35)"><rect class="69a9a39f-c8a8-4fdc-8253-5d6ab2a78b04" width="87.03" height="87.03"/></clipPath><clipPath id="663b7fc0-d41c-434e-8218-de6f36e8c98b" transform="translate(-25.36 -28.35)"><path class="69a9a39f-c8a8-4fdc-8253-5d6ab2a78b04" d="M58.69,43.52a15.19,15.19,0,1,0-4.45,10.72,15.14,15.14,0,0,0,4.45-10.72h0"/></clipPath></defs><title>Asset 10</title><g id="c6719601-b327-444a-bdd0-e0bfbe0a0593" data-name="Layer 2"><g id="a9108705-8a81-48fb-a673-76e4442f4641" data-name="Layer 1"><g class="e261d348-cbde-4b43-b547-7c92f2356564"><g class="2ebe5700-6f80-45e8-b024-d03723e11482"><polyline class="f25e845c-cff8-4bb5-9322-7c89e6fb2794" points="36.32 15.17 32.33 15.17 3.98 15.17 0 15.17"/></g></g><g class="bc9171d8-f773-4a26-8aa6-dfeb3ea34545"><g class="2ebe5700-6f80-45e8-b024-d03723e11482"><path class="d573e45b-a139-4003-8a42-e6ce80d49258" d="M57.69,43.52a14.17,14.17,0,1,0-4.15,10,14.18,14.18,0,0,0,4.15-10" transform="translate(-25.36 -28.35)"/><path class="d573e45b-a139-4003-8a42-e6ce80d49258" d="M57.67,44.22c0-.23,0-.47,0-.7" transform="translate(-25.36 -28.35)"/><path class="d573e45b-a139-4003-8a42-e6ce80d49258" d="M57.69,43.52c0-.24,0-.47,0-.71" transform="translate(-25.36 -28.35)"/></g></g></g></g></svg>