<svg xmlns="http://www.w3.org/2000/svg" xmlns:xlink="http://www.w3.org/1999/xlink" viewBox="0 0 36.32 30.34"><defs><style>.\30 af70d11-5b19-45f6-9f16-5b94e5c69c4a,.\35 991be3f-fce1-425a-84c8-f725ac5f8e54,.\36 0b04f3e-ad64-465e-89e6-3926ff0e1e20,.eed9c7ce-d4dc-4c09-becc-ee62683b77a2{fill:none;}.\36 16f15f1-4847-4381-b65a-0d1adfd6a019{clip-path:url(#00144b68-bd07-435e-8b5b-a16e71ec00d1);}.f38d2809-b234-4f2e-b235-cc2d9558739d{clip-path:url(#cac4a314-2d84-4fc4-bb29-db6d096bcf7f);}.\30 af70d11-5b19-45f6-9f16-5b94e5c69c4a{stroke:#265999;}.\30 af70d11-5b19-45f6-9f16-5b94e5c69c4a,.\36 0b04f3e-ad64-465e-89e6-3926ff0e1e20,.eed9c7ce-d4dc-4c09-becc-ee62683b77a2{stroke-linejoin:round;stroke-width:1.99px;}.\36 cfb8810-397a-40cf-8802-d9edc6fa4f50{clip-path:url(#753738bb-4e94-4db8-aeae-3706223c9ba3);}.\36 0b04f3e-ad64-465e-89e6-3926ff0e1e20,.eed9c7ce-d4dc-4c09-becc-ee62683b77a2{stroke:#f2b21a;}.\36 e6bbb64-11b1-440d-a24f-b7d4a54b3614{clip-path:url(#f947380d-248f-43c1-b756-ef4e24cbbeef);}.eed9c7ce-d4dc-4c09-becc-ee62683b77a2{stroke-dasharray:2.54 1.27;}</style><clipPath id="00144b68-bd07-435e-8b5b-a16e71ec00d1" transform="translate(-25.36 -28.35)"><polyline class="5991be3f-fce1-425a-84c8-f725ac5f8e54" points="57.69 42.52 57.69 44.51 29.34 44.51 29.34 42.52 57.69 42.52"/></clipPath><clipPath id="cac4a314-2d84-4fc4-bb29-db6d096bcf7f" transform="translate(-25.36 -28.35)"><rect class="5991be3f-fce1-425a-84c8-f725ac5f8e54" width="87.03" height="87.03"/></clipPath><clipPath id="753738bb-4e94-4db8-aeae-3706223c9ba3" transform="translate(-25.36 -28.35)"><path class="5991be3f-fce1-425a-84c8-f725ac5f8e54" d="M58.69,43.52a15.17,15.17,0,1,0-30.34,0H58.69"/></clipPath><clipPath id="f947380d-248f-43c1-b756-ef4e24cbbeef" transform="translate(-25.36 -28.35)"><path class="5991be3f-fce1-425a-84c8-f725ac5f8e54" d="M28.35,43.52a15.17,15.17,0,0,0,30.34,0H28.35"/></clipPath></defs><title>Asset 4</title><g id="ff8e8b22-b758-4aca-9830-ae3995f34269" data-name="Layer 2"><g id="47c0e3c3-30b3-4b80-930c-ce029a105aa8" data-name="Layer 1"><g class="616f15f1-4847-4381-b65a-0d1adfd6a019"><g class="f38d2809-b234-4f2e-b235-cc2d9558739d"><polyline class="0af70d11-5b19-45f6-9f16-5b94e5c69c4a" points="36.32 15.17 32.33 15.17 3.98 15.17 0 15.17"/></g></g><g class="6cfb8810-397a-40cf-8802-d9edc6fa4f50"><g class="f38d2809-b234-4f2e-b235-cc2d9558739d"><path class="60b04f3e-ad64-465e-89e6-3926ff0e1e20" d="M57.69,43.52a14.18,14.18,0,1,0-28.35,0" transform="translate(-25.36 -28.35)"/><path class="60b04f3e-ad64-465e-89e6-3926ff0e1e20" d="M57.67,44.22c0-.24,0-.47,0-.7" transform="translate(-25.36 -28.35)"/><path class="60b04f3e-ad64-465e-89e6-3926ff0e1e20" d="M29.34,43.52c0,.23,0,.46,0,.7" transform="translate(-25.36 -28.35)"/></g></g><g class="6e6bbb64-11b1-440d-a24f-b7d4a54b3614"><g class="f38d2809-b234-4f2e-b235-cc2d9558739d"><path class="eed9c7ce-d4dc-4c09-becc-ee62683b77a2" d="M29.34,43.52a14.18,14.18,0,0,0,28.35,0" transform="translate(-25.36 -28.35)"/><path class="60b04f3e-ad64-465e-89e6-3926ff0e1e20" d="M29.36,42.81c0,.24,0,.47,0,.71" transform="translate(-25.36 -28.35)"/><path class="60b04f3e-ad64-465e-89e6-3926ff0e1e20" d="M57.69,43.52c0-.24,0-.47,0-.71" transform="translate(-25.36 -28.35)"/></g></g></g></g></svg>