<svg xmlns="http://www.w3.org/2000/svg" xmlns:xlink="http://www.w3.org/1999/xlink" viewBox="0 0 30.34 30.34"><defs><style>.\33 befd6c0-aeab-4408-9c57-46ffe9bcc89b,.\38 c37e7c4-59b3-4262-8de2-5bc1dde2112a,.dc9d673b-2e8f-41fb-8495-a7ac45dd1950,.fec2905f-84fe-45a2-8504-d738989c1091{fill:none;}.\35 abe3db6-2b12-423e-8929-c145e317e6f2{clip-path:url(#b1d406cc-cdc6-4ae6-b031-8bb0f429d5c7);}.\38 2f1051b-8904-4f3a-b63b-f3ec62f3a08b{clip-path:url(#722e8021-280d-4185-8705-bf2104327deb);}.fec2905f-84fe-45a2-8504-d738989c1091{stroke:#d94d1a;}.\33 befd6c0-aeab-4408-9c57-46ffe9bcc89b,.dc9d673b-2e8f-41fb-8495-a7ac45dd1950,.fec2905f-84fe-45a2-8504-d738989c1091{stroke-linejoin:round;stroke-width:1.99px;}.a5445ea3-1b47-4be6-a0d1-f338295e8e06{clip-path:url(#5da67af9-6b3a-453b-9028-ce92622a7872);}.\33 befd6c0-aeab-4408-9c57-46ffe9bcc89b,.dc9d673b-2e8f-41fb-8495-a7ac45dd1950{stroke:#265999;}.\37 1535199-0926-465d-99ff-1a8a8c93a16a{clip-path:url(#8bf30954-024f-4fc8-9fed-78cdb48dcf4e);}.\33 befd6c0-aeab-4408-9c57-46ffe9bcc89b{stroke-dasharray:2.52 1.26;}</style><clipPath id="b1d406cc-cdc6-4ae6-b031-8bb0f429d5c7" transform="translate(-28.35 -28.35)"><polyline class="8c37e7c4-59b3-4262-8de2-5bc1dde2112a" points="53.54 32.5 53.54 34.49 33.49 34.49 33.49 32.5 53.54 32.5"/></clipPath><clipPath id="722e8021-280d-4185-8705-bf2104327deb" transform="translate(-28.35 -28.35)"><rect class="8c37e7c4-59b3-4262-8de2-5bc1dde2112a" width="87.03" height="87.03"/></clipPath><clipPath id="5da67af9-6b3a-453b-9028-ce92622a7872" transform="translate(-28.35 -28.35)"><path class="8c37e7c4-59b3-4262-8de2-5bc1dde2112a" d="M54.24,32.79a15.17,15.17,0,0,0-21.45,0L43.52,43.52,54.24,32.79"/></clipPath><clipPath id="8bf30954-024f-4fc8-9fed-78cdb48dcf4e" transform="translate(-28.35 -28.35)"><path class="8c37e7c4-59b3-4262-8de2-5bc1dde2112a" d="M32.79,32.79a15.18,15.18,0,1,0,21.45,0L43.52,43.52,32.79,32.79"/></clipPath></defs><title>Asset 5</title><g id="2d85e75a-b138-4333-ba14-42589c679e90" data-name="Layer 2"><g id="44896277-825c-465c-b142-04beae95c474" data-name="Layer 1"><g class="5abe3db6-2b12-423e-8929-c145e317e6f2"><g class="82f1051b-8904-4f3a-b63b-f3ec62f3a08b"><polyline class="fec2905f-84fe-45a2-8504-d738989c1091" points="29.18 5.15 25.19 5.15 5.15 5.15 1.16 5.15"/></g></g><g class="a5445ea3-1b47-4be6-a0d1-f338295e8e06"><g class="82f1051b-8904-4f3a-b63b-f3ec62f3a08b"><path class="dc9d673b-2e8f-41fb-8495-a7ac45dd1950" d="M53.54,33.49a14.18,14.18,0,0,0-20,0" transform="translate(-28.35 -28.35)"/><path class="dc9d673b-2e8f-41fb-8495-a7ac45dd1950" d="M54,34c-.15-.17-.32-.34-.48-.51" transform="translate(-28.35 -28.35)"/><path class="dc9d673b-2e8f-41fb-8495-a7ac45dd1950" d="M33.49,33.49,33,34" transform="translate(-28.35 -28.35)"/></g></g><g class="71535199-0926-465d-99ff-1a8a8c93a16a"><g class="82f1051b-8904-4f3a-b63b-f3ec62f3a08b"><path class="3befd6c0-aeab-4408-9c57-46ffe9bcc89b" d="M33.49,33.49a14.18,14.18,0,1,0,20,0" transform="translate(-28.35 -28.35)"/><path class="dc9d673b-2e8f-41fb-8495-a7ac45dd1950" d="M34,33l-.51.48" transform="translate(-28.35 -28.35)"/><path class="dc9d673b-2e8f-41fb-8495-a7ac45dd1950" d="M53.54,33.49,53,33" transform="translate(-28.35 -28.35)"/></g></g></g></g></svg>