<svg xmlns="http://www.w3.org/2000/svg" xmlns:xlink="http://www.w3.org/1999/xlink" viewBox="0 0 60.17 60.16"><defs><style>.\35 2e9d38f-95ca-40f0-9dcf-b6555c083526,.\36 3b84bca-05be-4ba2-b969-1da26c0818bc,.\36 c6e4896-42dc-43b0-97d2-443a50689915,.\36 ed6261a-210f-4d00-bb5f-3cd573ec12b6,.df43b2f4-5810-46ab-93c4-fd2afdabe37e{fill:none;}.\31 8a82162-451b-4cd9-ac09-df0bc80428f0{clip-path:url(#2e7f5dbd-57d5-417c-9819-9100287ffce7);}.f7db5718-ce31-4ffa-85cb-79847d82bd0b{clip-path:url(#6832ca93-cb39-43ad-9476-f631d2bd939e);}.\36 3b84bca-05be-4ba2-b969-1da26c0818bc{stroke:#d94d1a;}.\35 2e9d38f-95ca-40f0-9dcf-b6555c083526,.\36 3b84bca-05be-4ba2-b969-1da26c0818bc,.\36 ed6261a-210f-4d00-bb5f-3cd573ec12b6,.df43b2f4-5810-46ab-93c4-fd2afdabe37e{stroke-linejoin:round;stroke-width:1.99px;}.afd5f8a3-4b81-47c4-9454-67950bc9708a{clip-path:url(#46bfb88f-f411-4d9f-adda-bb7ebfaf41c9);}.\36 ed6261a-210f-4d00-bb5f-3cd573ec12b6{stroke:#265999;}.\37 6f307e2-f74d-48ea-ac31-f5f9223db1d9{clip-path:url(#32ed3465-edc5-47e4-917e-10d6f0cb2244);}.\35 2e9d38f-95ca-40f0-9dcf-b6555c083526{stroke:#f2b21a;}.c94c95ef-cd83-43ab-9e24-9ee4cd89ef54{clip-path:url(#237f2419-f342-4281-8b2e-7d8c49f5802b);}.df43b2f4-5810-46ab-93c4-fd2afdabe37e{stroke:#000;}.b002bd98-3bc7-42dc-a90a-ffbbc2314d25{clip-path:url(#a1d9c231-5c9c-4051-b293-b53465210026);}.\33 a60cd0b-0dae-488a-aa69-8a133f4b0c2b{clip-path:url(#88eed8b0-1115-4117-86fd-e68d5d17cb61);}</style><clipPath id="2e7f5dbd-57d5-417c-9819-9100287ffce7" transform="translate(-25.8 -25.7)"><polyline class="6c6e4896-42dc-43b0-97d2-443a50689915" points="30.67 82.41 29.13 81.14 71.64 29.18 73.19 30.44 30.67 82.41"/></clipPath><clipPath id="6832ca93-cb39-43ad-9476-f631d2bd939e" transform="translate(-25.8 -25.7)"><rect class="6c6e4896-42dc-43b0-97d2-443a50689915" width="111.41" height="111.42"/></clipPath><clipPath id="46bfb88f-f411-4d9f-adda-bb7ebfaf41c9" transform="translate(-25.8 -25.7)"><polyline class="6c6e4896-42dc-43b0-97d2-443a50689915" points="43.47 44.78 44.67 43.18 82.46 71.53 81.27 73.13 43.47 44.78"/></clipPath><clipPath id="32ed3465-edc5-47e4-917e-10d6f0cb2244" transform="translate(-25.8 -25.7)"><polyline class="6c6e4896-42dc-43b0-97d2-443a50689915" points="71.72 31.27 73.11 28.35 83.06 73.12 80.67 71.53 71.72 31.27"/></clipPath><clipPath id="237f2419-f342-4281-8b2e-7d8c49f5802b" transform="translate(-25.8 -25.7)"><polyline class="6c6e4896-42dc-43b0-97d2-443a50689915" points="28.35 83.07 31.45 80.48 80.67 71.53 83.06 73.12 28.35 83.07"/></clipPath><clipPath id="a1d9c231-5c9c-4051-b293-b53465210026" transform="translate(-25.8 -25.7)"><polyline class="6c6e4896-42dc-43b0-97d2-443a50689915" points="43.27 43.27 44.86 44.7 31.45 80.48 28.35 83.07 43.27 43.27"/></clipPath><clipPath id="88eed8b0-1115-4117-86fd-e68d5d17cb61" transform="translate(-25.8 -25.7)"><polyline class="6c6e4896-42dc-43b0-97d2-443a50689915" points="44.86 44.7 43.27 43.27 73.11 28.35 71.72 31.27 44.86 44.7"/></clipPath></defs><title>Asset 6</title><g id="3048ea2b-05f4-4be2-bc6f-7e96e7f12da4" data-name="Layer 2"><g id="858e94c5-c7bb-4832-9413-525152f7e2c5" data-name="Layer 1"><g class="18a82162-451b-4cd9-ac09-df0bc80428f0"><g class="f7db5718-ce31-4ffa-85cb-79847d82bd0b"><polyline class="63b84bca-05be-4ba2-b969-1da26c0818bc" points="1.57 59.16 4.1 56.08 46.62 4.11 49.14 1.02"/></g></g><g class="afd5f8a3-4b81-47c4-9454-67950bc9708a"><g class="f7db5718-ce31-4ffa-85cb-79847d82bd0b"><polyline class="6ed6261a-210f-4d00-bb5f-3cd573ec12b6" points="15.08 15.89 18.27 18.28 56.07 46.63 59.26 49.02"/></g></g><g class="76f307e2-f74d-48ea-ac31-f5f9223db1d9"><g class="f7db5718-ce31-4ffa-85cb-79847d82bd0b"><polyline class="52e9d38f-95ca-40f0-9dcf-b6555c083526" points="45.75 0.22 46.62 4.11 56.07 46.63 56.93 50.52"/></g></g><g class="c94c95ef-cd83-43ab-9e24-9ee4cd89ef54"><g class="f7db5718-ce31-4ffa-85cb-79847d82bd0b"><polyline class="df43b2f4-5810-46ab-93c4-fd2afdabe37e" points="0.18 56.79 4.1 56.08 56.07 46.63 59.99 45.91"/></g></g><g class="b002bd98-3bc7-42dc-a90a-ffbbc2314d25"><g class="f7db5718-ce31-4ffa-85cb-79847d82bd0b"><polyline class="52e9d38f-95ca-40f0-9dcf-b6555c083526" points="19.67 14.55 18.27 18.28 4.1 56.08 2.7 59.81"/></g></g><g class="3a60cd0b-0dae-488a-aa69-8a133f4b0c2b"><g class="f7db5718-ce31-4ffa-85cb-79847d82bd0b"><polyline class="52e9d38f-95ca-40f0-9dcf-b6555c083526" points="14.71 20.06 18.27 18.28 46.62 4.11 50.18 2.32"/></g></g></g></g></svg>