<svg xmlns="http://www.w3.org/2000/svg" xmlns:xlink="http://www.w3.org/1999/xlink" viewBox="0 0 36.32 36.32"><defs><style>.\39 49797ae-11cf-4ef7-9745-4e748a3d40a2,.\39 7f010a6-2933-4f5a-b962-e3ae93194b73,.b0031648-54bc-4772-8cdd-2c842f2fb807,.b4672901-9882-4bc5-b4de-e06cb7259f86,.d75e63db-23a6-4c48-9f01-af3142707681{fill:none;}.b6f2f5d1-7dc9-41c9-9373-74ea7c592e9b{clip-path:url(#89ee22eb-acdd-4160-a3aa-27137f679417);}.\33 18c7c4b-d656-448d-9ed5-071b4a005867{clip-path:url(#b0f16575-5875-47fe-a5d3-7ddd50f2410c);}.d75e63db-23a6-4c48-9f01-af3142707681{stroke:#d94d1a;}.\39 49797ae-11cf-4ef7-9745-4e748a3d40a2,.\39 7f010a6-2933-4f5a-b962-e3ae93194b73,.b4672901-9882-4bc5-b4de-e06cb7259f86,.d75e63db-23a6-4c48-9f01-af3142707681{stroke-linejoin:round;stroke-width:1.99px;}.\34 d7bcc22-074e-47b6-84d2-e68d793f646f{clip-path:url(#22a244cc-177d-48ce-95db-e15d953c8102);}.\39 49797ae-11cf-4ef7-9745-4e748a3d40a2{stroke:#265999;}.\34 5775e7d-d0a6-4902-b420-a44655cfe198{clip-path:url(#5a278232-441c-4453-870b-829c1140d34c);}.\39 7f010a6-2933-4f5a-b962-e3ae93194b73{stroke:#000;}.\39 d205a28-3c9f-48dc-83a7-38aec4d9a0ff{clip-path:url(#f1d865b8-9982-428d-b82c-6d471fbb5228);}.b4672901-9882-4bc5-b4de-e06cb7259f86{stroke:#f2b21a;}</style><clipPath id="89ee22eb-acdd-4160-a3aa-27137f679417" transform="translate(-25.36 -25.36)"><polyline class="b0031648-54bc-4772-8cdd-2c842f2fb807" points="28.35 58.69 30.34 56.69 56.69 56.69 58.69 58.69 28.35 58.69"/></clipPath><clipPath id="b0f16575-5875-47fe-a5d3-7ddd50f2410c" transform="translate(-25.36 -25.36)"><rect class="b0031648-54bc-4772-8cdd-2c842f2fb807" width="87.03" height="87.03"/></clipPath><clipPath id="22a244cc-177d-48ce-95db-e15d953c8102" transform="translate(-25.36 -25.36)"><polyline class="b0031648-54bc-4772-8cdd-2c842f2fb807" points="30.34 56.69 28.35 58.69 28.35 28.35 30.34 30.34 30.34 56.69"/></clipPath><clipPath id="5a278232-441c-4453-870b-829c1140d34c" transform="translate(-25.36 -25.36)"><polyline class="b0031648-54bc-4772-8cdd-2c842f2fb807" points="30.34 30.34 28.35 28.35 58.69 28.35 56.69 30.34 30.34 30.34"/></clipPath><clipPath id="f1d865b8-9982-428d-b82c-6d471fbb5228" transform="translate(-25.36 -25.36)"><polyline class="b0031648-54bc-4772-8cdd-2c842f2fb807" points="58.69 58.69 56.69 56.69 56.69 30.34 58.69 28.35 58.69 58.69"/></clipPath></defs><title>Asset 3</title><g id="ba847e10-ccba-43a8-bb45-c6202ebe7d5a" data-name="Layer 2"><g id="fc4f14a3-7a1f-4b98-8519-21e4de384e80" data-name="Layer 1"><g class="b6f2f5d1-7dc9-41c9-9373-74ea7c592e9b"><g class="318c7c4b-d656-448d-9ed5-071b4a005867"><polyline class="d75e63db-23a6-4c48-9f01-af3142707681" points="0 32.33 3.98 32.33 32.33 32.33 36.32 32.33"/></g></g><g class="4d7bcc22-074e-47b6-84d2-e68d793f646f"><g class="318c7c4b-d656-448d-9ed5-071b4a005867"><polyline class="949797ae-11cf-4ef7-9745-4e748a3d40a2" points="3.98 36.32 3.98 32.33 3.98 3.98 3.98 0"/></g></g><g class="45775e7d-d0a6-4902-b420-a44655cfe198"><g class="318c7c4b-d656-448d-9ed5-071b4a005867"><polyline class="97f010a6-2933-4f5a-b962-e3ae93194b73" points="0 3.98 3.98 3.98 32.33 3.98 36.32 3.98"/></g></g><g class="9d205a28-3c9f-48dc-83a7-38aec4d9a0ff"><g class="318c7c4b-d656-448d-9ed5-071b4a005867"><polyline class="b4672901-9882-4bc5-b4de-e06cb7259f86" points="32.33 36.32 32.33 32.33 32.33 3.98 32.33 0"/></g></g></g></g></svg>