<svg xmlns="http://www.w3.org/2000/svg" xmlns:xlink="http://www.w3.org/1999/xlink" viewBox="0 0 41.24 36.11"><defs><style>.\35 666e205-714b-43ec-9b58-1e6b00409451,.\38 3ca1458-0f5a-40bf-9c84-0b34d6e5973e,.ca141f5b-0a4a-4048-a4fb-ab84f7d61979,.cd01eace-cdcb-439e-97fd-4cfb51738e97,.cf549f95-e918-4657-84b1-1d9391492379{fill:none;}.d0e50c32-8d88-4427-b187-3b52756ddf4a{clip-path:url(#cad583bf-be1f-4da2-b229-9786d01a2c50);}.\30 92f87d1-dd2f-45ce-8a4d-abf9286a9b0b{clip-path:url(#0ff96044-aa6c-4cdb-9e2a-ad6b1b92b781);}.cd01eace-cdcb-439e-97fd-4cfb51738e97{stroke:#d94d1a;}.\38 3ca1458-0f5a-40bf-9c84-0b34d6e5973e,.ca141f5b-0a4a-4048-a4fb-ab84f7d61979,.cd01eace-cdcb-439e-97fd-4cfb51738e97,.cf549f95-e918-4657-84b1-1d9391492379{stroke-linejoin:round;stroke-width:1.99px;}.ed7e9664-c94e-48c4-bd5c-0f15b76b6efd{clip-path:url(#a1af0714-4c11-48dd-8e1e-4daff6233602);}.cf549f95-e918-4657-84b1-1d9391492379{stroke:#265999;}.af05c1b7-a968-4f32-bb80-8f647cbd049c{clip-path:url(#a206e9ff-2aa7-4186-89f0-f9cc9abe91f4);}.ca141f5b-0a4a-4048-a4fb-ab84f7d61979{stroke:#000;}.\38 4b81874-5620-420f-9980-d237aaa813a8{clip-path:url(#be4c416a-3179-478d-9a8a-780d501056e0);}.\38 3ca1458-0f5a-40bf-9c84-0b34d6e5973e{stroke:#f2b21a;}</style><clipPath id="cad583bf-be1f-4da2-b229-9786d01a2c50" transform="translate(-25.55 -25.25)"><polyline class="5666e205-714b-43ec-9b58-1e6b00409451" points="28.35 58.25 30.72 56.26 57.04 56.26 58.72 58.25 28.35 58.25"/></clipPath><clipPath id="0ff96044-aa6c-4cdb-9e2a-ad6b1b92b781" transform="translate(-25.55 -25.25)"><rect class="5666e205-714b-43ec-9b58-1e6b00409451" width="92.34" height="86.6"/></clipPath><clipPath id="a1af0714-4c11-48dd-8e1e-4daff6233602" transform="translate(-25.55 -25.25)"><polyline class="5666e205-714b-43ec-9b58-1e6b00409451" points="30.72 56.26 28.35 58.25 33.62 28.35 35.29 30.34 30.72 56.26"/></clipPath><clipPath id="a206e9ff-2aa7-4186-89f0-f9cc9abe91f4" transform="translate(-25.55 -25.25)"><polyline class="5666e205-714b-43ec-9b58-1e6b00409451" points="35.29 30.34 33.62 28.35 63.99 28.35 61.62 30.34 35.29 30.34"/></clipPath><clipPath id="be4c416a-3179-478d-9a8a-780d501056e0" transform="translate(-25.55 -25.25)"><polyline class="5666e205-714b-43ec-9b58-1e6b00409451" points="58.72 58.25 57.04 56.26 61.62 30.34 63.99 28.35 58.72 58.25"/></clipPath></defs><title>Asset 4</title><g id="56566fa5-107a-45db-bf63-65fc60ccf15b" data-name="Layer 2"><g id="77cd0540-8aa2-4f60-a115-1eff26a1a661" data-name="Layer 1"><g class="d0e50c32-8d88-4427-b187-3b52756ddf4a"><g class="092f87d1-dd2f-45ce-8a4d-abf9286a9b0b"><polyline class="cd01eace-cdcb-439e-97fd-4cfb51738e97" points="0 32.01 3.98 32.01 32.33 32.01 36.32 32.01"/></g></g><g class="ed7e9664-c94e-48c4-bd5c-0f15b76b6efd"><g class="092f87d1-dd2f-45ce-8a4d-abf9286a9b0b"><polyline class="cf549f95-e918-4657-84b1-1d9391492379" points="3.29 35.94 3.98 32.01 8.91 4.1 9.6 0.17"/></g></g><g class="af05c1b7-a968-4f32-bb80-8f647cbd049c"><g class="092f87d1-dd2f-45ce-8a4d-abf9286a9b0b"><polyline class="ca141f5b-0a4a-4048-a4fb-ab84f7d61979" points="4.92 4.1 8.91 4.1 37.25 4.1 41.24 4.1"/></g></g><g class="84b81874-5620-420f-9980-d237aaa813a8"><g class="092f87d1-dd2f-45ce-8a4d-abf9286a9b0b"><polyline class="83ca1458-0f5a-40bf-9c84-0b34d6e5973e" points="31.64 35.94 32.33 32.01 37.25 4.1 37.95 0.17"/></g></g></g></g></svg>