<svg xmlns="http://www.w3.org/2000/svg" xmlns:xlink="http://www.w3.org/1999/xlink" viewBox="0 0 45.77 29.23"><defs><style>.\35 5e8d833-cae4-4cab-82cd-5f09711cf0cb,.\37 2ca8aca-c484-4c3d-b704-e52e4f0ccc05,.\37 a9a8a9a-6f7c-43fc-ab1d-683c90b2b243{fill:none;}.\39 91779e8-8aeb-4e45-8ccd-dd417f0f6d5a{clip-path:url(#84ac9518-cc4d-4384-ac93-1eda056efdd0);}.ee4e155f-f4c8-427c-bb6e-6cc8ee37f460{clip-path:url(#3e10354a-711a-4472-8242-9e928685bd77);}.\35 5e8d833-cae4-4cab-82cd-5f09711cf0cb{stroke:#265999;}.\35 5e8d833-cae4-4cab-82cd-5f09711cf0cb,.\37 2ca8aca-c484-4c3d-b704-e52e4f0ccc05{stroke-linejoin:round;stroke-width:1.99px;}.\36 6f362ea-b41c-4fef-95a0-902f052c6270{clip-path:url(#4b6d8c87-91ef-409e-b136-52902bf5d05b);}.\37 2ca8aca-c484-4c3d-b704-e52e4f0ccc05{stroke:#d94d1a;}.\30 e092f4d-fa75-4a0d-b644-1937f6d045e8{clip-path:url(#cc182d48-7143-4200-97e9-9e9babe28bcb);}.\39 c3686db-032d-413b-8b75-971a766cffe9{clip-path:url(#43f4542a-91a1-4097-83d0-339a742e750d);}</style><clipPath id="84ac9518-cc4d-4384-ac93-1eda056efdd0" transform="translate(-25.36 -25.36)"><polyline class="7a9a8a9a-6f7c-43fc-ab1d-683c90b2b243" points="28.35 51.6 30.34 49.61 66.14 49.61 68.13 51.6 28.35 51.6"/></clipPath><clipPath id="3e10354a-711a-4472-8242-9e928685bd77" transform="translate(-25.36 -25.36)"><rect class="7a9a8a9a-6f7c-43fc-ab1d-683c90b2b243" width="96.48" height="79.95"/></clipPath><clipPath id="4b6d8c87-91ef-409e-b136-52902bf5d05b" transform="translate(-25.36 -25.36)"><polyline class="7a9a8a9a-6f7c-43fc-ab1d-683c90b2b243" points="30.34 49.61 28.35 51.6 28.35 28.35 30.34 30.34 30.34 49.61"/></clipPath><clipPath id="cc182d48-7143-4200-97e9-9e9babe28bcb" transform="translate(-25.36 -25.36)"><polyline class="7a9a8a9a-6f7c-43fc-ab1d-683c90b2b243" points="30.34 30.34 28.35 28.35 68.13 28.35 66.14 30.34 30.34 30.34"/></clipPath><clipPath id="43f4542a-91a1-4097-83d0-339a742e750d" transform="translate(-25.36 -25.36)"><polyline class="7a9a8a9a-6f7c-43fc-ab1d-683c90b2b243" points="68.13 51.6 66.14 49.61 66.14 30.34 68.13 28.35 68.13 51.6"/></clipPath></defs><title>Asset 5</title><g id="a6bf54f5-06f2-4d86-873f-5a1129138c00" data-name="Layer 2"><g id="b378294f-a59c-47c4-9765-92c36e6a8b56" data-name="Layer 1"><g class="991779e8-8aeb-4e45-8ccd-dd417f0f6d5a"><g class="ee4e155f-f4c8-427c-bb6e-6cc8ee37f460"><polyline class="55e8d833-cae4-4cab-82cd-5f09711cf0cb" points="0 25.25 3.98 25.25 41.78 25.25 45.77 25.25"/></g></g><g class="66f362ea-b41c-4fef-95a0-902f052c6270"><g class="ee4e155f-f4c8-427c-bb6e-6cc8ee37f460"><polyline class="72ca8aca-c484-4c3d-b704-e52e4f0ccc05" points="3.98 29.23 3.98 25.25 3.98 3.98 3.98 0"/></g></g><g class="0e092f4d-fa75-4a0d-b644-1937f6d045e8"><g class="ee4e155f-f4c8-427c-bb6e-6cc8ee37f460"><polyline class="55e8d833-cae4-4cab-82cd-5f09711cf0cb" points="0 3.98 3.98 3.98 41.78 3.98 45.77 3.98"/></g></g><g class="9c3686db-032d-413b-8b75-971a766cffe9"><g class="ee4e155f-f4c8-427c-bb6e-6cc8ee37f460"><polyline class="72ca8aca-c484-4c3d-b704-e52e4f0ccc05" points="41.78 29.23 41.78 25.25 41.78 3.98 41.78 0"/></g></g></g></g></svg>