<svg xmlns="http://www.w3.org/2000/svg" xmlns:xlink="http://www.w3.org/1999/xlink" viewBox="0 0 43.4 29.45"><defs><style>.\33 8e2593d-4fe0-4ec8-b969-1acdf0cd4845,.abfd8dcd-61af-4aba-9b92-5acbfb7e9f96,.d49f6d1c-ac6c-4df6-b6dd-5b842cfc0e14{fill:none;}.\33 c017e78-ddd1-4e72-b98e-ad4f36bc7cd2{clip-path:url(#2e0bb366-7cec-4f14-8e9f-e4714b6a118f);}.a6af1259-4933-420c-bd1e-bbde2cf9269c{clip-path:url(#936e13cf-552f-45af-aa56-f6f03a872285);}.d49f6d1c-ac6c-4df6-b6dd-5b842cfc0e14{stroke:#265999;}.\33 8e2593d-4fe0-4ec8-b969-1acdf0cd4845,.d49f6d1c-ac6c-4df6-b6dd-5b842cfc0e14{stroke-linejoin:round;stroke-width:1.99px;}.ba403d24-81e0-46ea-bf0b-57f8d8476cc8{clip-path:url(#9bdbfd79-a3c8-4ccc-8f4b-854603821dd5);}.\33 8e2593d-4fe0-4ec8-b969-1acdf0cd4845{stroke:#d94d1a;}.f62d7a47-1dcc-49e1-9ee5-7202b8106147{clip-path:url(#64f67325-c90a-4b1c-97e0-9c77fd1d5c26);}.\35 3f4bb27-4af2-4718-9de1-ddb2df133060{clip-path:url(#b14e1e50-1896-49bc-9584-ba2169bdbc32);}</style><clipPath id="2e0bb366-7cec-4f14-8e9f-e4714b6a118f" transform="translate(-25.74 -25.25)"><polyline class="abfd8dcd-61af-4aba-9b92-5acbfb7e9f96" points="28.35 51.6 31.11 49.61 57.36 49.61 58.79 51.6 28.35 51.6"/></clipPath><clipPath id="936e13cf-552f-45af-aa56-f6f03a872285" transform="translate(-25.74 -25.25)"><rect class="abfd8dcd-61af-4aba-9b92-5acbfb7e9f96" width="94.89" height="79.95"/></clipPath><clipPath id="9bdbfd79-a3c8-4ccc-8f4b-854603821dd5" transform="translate(-25.74 -25.25)"><polyline class="abfd8dcd-61af-4aba-9b92-5acbfb7e9f96" points="31.11 49.61 28.35 51.6 36.1 28.35 37.53 30.34 31.11 49.61"/></clipPath><clipPath id="64f67325-c90a-4b1c-97e0-9c77fd1d5c26" transform="translate(-25.74 -25.25)"><polyline class="abfd8dcd-61af-4aba-9b92-5acbfb7e9f96" points="37.53 30.34 36.1 28.35 66.54 28.35 63.78 30.34 37.53 30.34"/></clipPath><clipPath id="b14e1e50-1896-49bc-9584-ba2169bdbc32" transform="translate(-25.74 -25.25)"><polyline class="abfd8dcd-61af-4aba-9b92-5acbfb7e9f96" points="58.79 51.6 57.36 49.61 63.78 30.34 66.54 28.35 58.79 51.6"/></clipPath></defs><title>Asset 14</title><g id="aeae7991-c47c-4b0c-a275-0c8477d5a112" data-name="Layer 2"><g id="299d5310-df1f-44c9-9129-dc3cab16a37c" data-name="Layer 1"><g class="3c017e78-ddd1-4e72-b98e-ad4f36bc7cd2"><g class="a6af1259-4933-420c-bd1e-bbde2cf9269c"><polyline class="d49f6d1c-ac6c-4df6-b6dd-5b842cfc0e14" points="0 25.36 3.98 25.36 32.33 25.36 36.32 25.36"/></g></g><g class="ba403d24-81e0-46ea-bf0b-57f8d8476cc8"><g class="a6af1259-4933-420c-bd1e-bbde2cf9269c"><polyline class="38e2593d-4fe0-4ec8-b969-1acdf0cd4845" points="2.73 29.14 3.98 25.36 11.07 4.1 12.33 0.32"/></g></g><g class="f62d7a47-1dcc-49e1-9ee5-7202b8106147"><g class="a6af1259-4933-420c-bd1e-bbde2cf9269c"><polyline class="d49f6d1c-ac6c-4df6-b6dd-5b842cfc0e14" points="7.09 4.1 11.07 4.1 39.42 4.1 43.4 4.1"/></g></g><g class="53f4bb27-4af2-4718-9de1-ddb2df133060"><g class="a6af1259-4933-420c-bd1e-bbde2cf9269c"><polyline class="38e2593d-4fe0-4ec8-b969-1acdf0cd4845" points="31.07 29.14 32.33 25.36 39.42 4.1 40.68 0.32"/></g></g></g></g></svg>