<svg xmlns="http://www.w3.org/2000/svg" xmlns:xlink="http://www.w3.org/1999/xlink" viewBox="0 0 64.66 78.84"><defs><style>.\34 5f86c18-aa2e-432c-adfd-fb2ab943be73,.\36 6b13acf-fb70-428c-83c2-89992443535e,.bf47f02e-7973-44e7-9963-72d29fab3e84,.d89f0415-71c1-4c7c-9203-d50631828a40{fill:none;}.\31 2cbb8a4-9d64-4b06-9799-fc83684268e7{clip-path:url(#08b41695-cd65-4b50-a632-05543722889e);}.d83b1ee0-beb9-4f20-a238-b91d28605ded{fill:#d94d1a;}.\35 4ea04e7-b670-48df-a67a-281335603d07{fill:#f2b21a;}.e48bac81-5ac9-4127-bf2d-8e12b6304dfd{clip-path:url(#72ec1dce-cdf3-4e6e-83b8-9bbac23bf339);}.\36 6b13acf-fb70-428c-83c2-89992443535e{stroke:#265999;}.\34 5f86c18-aa2e-432c-adfd-fb2ab943be73,.\36 6b13acf-fb70-428c-83c2-89992443535e,.d89f0415-71c1-4c7c-9203-d50631828a40{stroke-linejoin:round;stroke-width:1.99px;}.\31 13caed6-0332-476f-8033-d06aa9e14b42{clip-path:url(#1c932487-3b6f-498d-b397-b8d77440bceb);}.\34 5f86c18-aa2e-432c-adfd-fb2ab943be73{stroke:#d94d1a;}.\36 739d55b-c896-45da-84dd-ccd5ad2f704f{clip-path:url(#c4e55379-3106-4940-bbbb-3904a12b9f34);}.d89f0415-71c1-4c7c-9203-d50631828a40{stroke:#000;}</style><clipPath id="08b41695-cd65-4b50-a632-05543722889e" transform="translate(-24.36 -24.36)"><rect class="bf47f02e-7973-44e7-9963-72d29fab3e84" width="113.38" height="127.56"/></clipPath><clipPath id="72ec1dce-cdf3-4e6e-83b8-9bbac23bf339" transform="translate(-24.36 -24.36)"><polyline class="bf47f02e-7973-44e7-9963-72d29fab3e84" points="28.35 86.03 28.35 84.04 85.04 84.04 85.04 86.03 28.35 86.03"/></clipPath><clipPath id="1c932487-3b6f-498d-b397-b8d77440bceb" transform="translate(-24.36 -24.36)"><polyline class="bf47f02e-7973-44e7-9963-72d29fab3e84" points="28.35 43.52 28.35 41.52 85.04 41.52 85.04 43.52 28.35 43.52"/></clipPath><clipPath id="c4e55379-3106-4940-bbbb-3904a12b9f34" transform="translate(-24.36 -24.36)"><polyline class="bf47f02e-7973-44e7-9963-72d29fab3e84" points="41.52 28.35 43.52 28.35 43.52 99.21 41.52 99.21 41.52 28.35"/></clipPath></defs><title>Asset 1</title><g id="18a37c07-3237-4566-a9b6-deba889b5c1a" data-name="Layer 2"><g id="69e425ea-da6a-4d80-a300-6b9b8a7e3201" data-name="Layer 1"><g class="12cbb8a4-9d64-4b06-9799-fc83684268e7"><path class="d83b1ee0-beb9-4f20-a238-b91d28605ded" d="M42.52,85H56.69A14.17,14.17,0,0,0,42.52,70.87Z" transform="translate(-24.36 -24.36)"/><path class="54ea04e7-b670-48df-a67a-281335603d07" d="M42.52,42.52H56.69A14.17,14.17,0,0,1,42.52,56.69Z" transform="translate(-24.36 -24.36)"/></g><g class="e48bac81-5ac9-4127-bf2d-8e12b6304dfd"><g class="12cbb8a4-9d64-4b06-9799-fc83684268e7"><polyline class="66b13acf-fb70-428c-83c2-89992443535e" points="0 60.68 3.98 60.68 60.68 60.68 64.66 60.68"/></g></g><g class="113caed6-0332-476f-8033-d06aa9e14b42"><g class="12cbb8a4-9d64-4b06-9799-fc83684268e7"><polyline class="45f86c18-aa2e-432c-adfd-fb2ab943be73" points="0 18.16 3.98 18.16 60.68 18.16 64.66 18.16"/></g></g><g class="6739d55b-c896-45da-84dd-ccd5ad2f704f"><g class="12cbb8a4-9d64-4b06-9799-fc83684268e7"><polyline class="d89f0415-71c1-4c7c-9203-d50631828a40" points="18.16 0 18.16 3.98 18.16 74.85 18.16 78.84"/></g></g></g></g></svg>