<svg xmlns="http://www.w3.org/2000/svg" xmlns:xlink="http://www.w3.org/1999/xlink" viewBox="0 0 48 45.51"><defs><style>.\32 1c8d929-87de-457e-9cfd-93bcb4b76390,.e58b682f-863d-4cd7-954d-6baa024b172a,.ec6370d1-b689-4235-8a2f-5e960d753a57{fill:none;}.\32 2bcad32-7011-43ce-b3cd-4b254c02bf14{clip-path:url(#ba3a50f8-22f1-4dde-b27a-ef24eb713d8f);}.\36 c3b5c24-0f88-4798-b1c3-47f0f85eec39{clip-path:url(#d75fea0b-8eee-4ba7-9494-d13b35f66eeb);}.\32 1c8d929-87de-457e-9cfd-93bcb4b76390{stroke:#000;}.\32 1c8d929-87de-457e-9cfd-93bcb4b76390,.ec6370d1-b689-4235-8a2f-5e960d753a57{stroke-linejoin:round;stroke-width:1.99px;}.\31 a6b0c87-478e-4d73-be45-e3a9374099f6{clip-path:url(#5503c3d1-0a8d-4b40-88ab-ea5c7a2435e5);}.ec6370d1-b689-4235-8a2f-5e960d753a57{stroke:#265999;}</style><clipPath id="ba3a50f8-22f1-4dde-b27a-ef24eb713d8f" transform="translate(-28.35 -28.35)"><polyline class="e58b682f-863d-4cd7-954d-6baa024b172a" points="51.1 52.1 51.1 50.1 72.36 50.1 72.36 52.1 51.1 52.1"/></clipPath><clipPath id="d75fea0b-8eee-4ba7-9494-d13b35f66eeb" transform="translate(-28.35 -28.35)"><rect class="e58b682f-863d-4cd7-954d-6baa024b172a" width="102.2" height="102.2"/></clipPath><clipPath id="5503c3d1-0a8d-4b40-88ab-ea5c7a2435e5" transform="translate(-28.35 -28.35)"><path class="e58b682f-863d-4cd7-954d-6baa024b172a" d="M73.85,51.1a22.74,22.74,0,1,0-6.66,16.09A22.75,22.75,0,0,0,73.85,51.1h0"/></clipPath></defs><title>Asset 2</title><g id="d2013c56-a16c-408b-9c7f-e7f8292fd51b" data-name="Layer 2"><g id="2faf0bdd-50b2-4c62-88dc-2e2fc38a033e" data-name="Layer 1"><g class="22bcad32-7011-43ce-b3cd-4b254c02bf14"><g class="6c3b5c24-0f88-4798-b1c3-47f0f85eec39"><polyline class="21c8d929-87de-457e-9cfd-93bcb4b76390" points="18.77 22.75 22.75 22.75 44.01 22.75 48 22.75"/></g></g><g class="1a6b0c87-478e-4d73-be45-e3a9374099f6"><g class="6c3b5c24-0f88-4798-b1c3-47f0f85eec39"><path class="ec6370d1-b689-4235-8a2f-5e960d753a57" d="M72.86,51.1a21.75,21.75,0,1,0-6.37,15.39A21.75,21.75,0,0,0,72.86,51.1" transform="translate(-28.35 -28.35)"/><path class="ec6370d1-b689-4235-8a2f-5e960d753a57" d="M72.83,52.18q0-.54,0-1.08" transform="translate(-28.35 -28.35)"/><path class="ec6370d1-b689-4235-8a2f-5e960d753a57" d="M72.86,51.1q0-.54,0-1.08" transform="translate(-28.35 -28.35)"/></g></g></g></g></svg>