<svg xmlns="http://www.w3.org/2000/svg" xmlns:xlink="http://www.w3.org/1999/xlink" viewBox="0 0 31.29 27.93"><defs><style>.\33 a432f36-8d53-4349-8f08-88b9b1b5754d,.\36 a4ff069-4018-4548-ae05-16e1aa6e7a3d,.f0e31eb8-6e25-489f-8672-769d369decb9{fill:none;}.\31 44a3495-01a3-41a4-812f-9a6e6e6c7529{clip-path:url(#b2f177b9-0c13-47a1-8bed-8bf4eacb3c56);}.\36 546a612-96a3-44d4-b097-f3f3a9f785b6{clip-path:url(#d8408996-8bdd-4b51-957e-c3bc606c44be);}.\36 a4ff069-4018-4548-ae05-16e1aa6e7a3d{stroke:#000;}.\33 a432f36-8d53-4349-8f08-88b9b1b5754d,.\36 a4ff069-4018-4548-ae05-16e1aa6e7a3d{stroke-linejoin:round;stroke-width:1.99px;}.\37 b5fb8f8-9f28-4155-81db-b17254dd961b{clip-path:url(#84488a4b-cb85-48e4-a876-306315d01720);}.\33 a432f36-8d53-4349-8f08-88b9b1b5754d{stroke:#265999;}</style><clipPath id="b2f177b9-0c13-47a1-8bed-8bf4eacb3c56" transform="translate(-24.98 -28.35)"><polyline class="f0e31eb8-6e25-489f-8672-769d369decb9" points="42.5 41.33 42.12 43.29 28.9 40.77 29.27 38.81 42.5 41.33"/></clipPath><clipPath id="d8408996-8bdd-4b51-957e-c3bc606c44be" transform="translate(-24.98 -28.35)"><rect class="f0e31eb8-6e25-489f-8672-769d369decb9" width="84.62" height="84.62"/></clipPath><clipPath id="84488a4b-cb85-48e4-a876-306315d01720" transform="translate(-24.98 -28.35)"><path class="f0e31eb8-6e25-489f-8672-769d369decb9" d="M56.27,42.31a14,14,0,1,0-4.09,9.87,14,14,0,0,0,4.09-9.87h0"/></clipPath></defs><title>Asset 4</title><g id="1c8f7e7e-75d4-4473-8613-afea233cfd91" data-name="Layer 2"><g id="4c5562bf-8373-40e3-8dbe-41a7826fb1c3" data-name="Layer 1"><g class="144a3495-01a3-41a4-812f-9a6e6e6c7529"><g class="6546a612-96a3-44d4-b097-f3f3a9f785b6"><polyline class="6a4ff069-4018-4548-ae05-16e1aa6e7a3d" points="21.24 14.71 17.33 13.96 4.1 11.45 0.19 10.7"/></g></g><g class="7b5fb8f8-9f28-4155-81db-b17254dd961b"><g class="6546a612-96a3-44d4-b097-f3f3a9f785b6"><path class="3a432f36-8d53-4349-8f08-88b9b1b5754d" d="M55.28,42.31a13,13,0,1,0-3.8,9.17,13,13,0,0,0,3.8-9.17" transform="translate(-24.98 -28.35)"/><path class="3a432f36-8d53-4349-8f08-88b9b1b5754d" d="M55.26,43c0-.21,0-.42,0-.64" transform="translate(-24.98 -28.35)"/><path class="3a432f36-8d53-4349-8f08-88b9b1b5754d" d="M55.28,42.31c0-.21,0-.43,0-.64" transform="translate(-24.98 -28.35)"/></g></g></g></g></svg>