<svg xmlns="http://www.w3.org/2000/svg" xmlns:xlink="http://www.w3.org/1999/xlink" viewBox="0 0 35.8 35.06"><defs><style>.\33 c7139a4-e99e-4c4b-bd11-f4f83981168a,.\36 57d3700-a5d2-46a4-99b4-dbe5d359e7b4,.\38 2dd7a38-ba6f-4f70-8c48-0b3116f2a1e1{fill:none;}.\36 a6bbf4e-61fa-43e3-a85f-78a98f4e7cd8{clip-path:url(#75a4fc73-7364-46e5-870a-749ccac58ae0);}.e0a54cf7-d26d-4cc9-916f-f9a0cc37cac5{clip-path:url(#ea0cd425-a0df-456c-9572-437d4177da24);}.\36 57d3700-a5d2-46a4-99b4-dbe5d359e7b4{stroke:#d94d1a;}.\36 57d3700-a5d2-46a4-99b4-dbe5d359e7b4,.\38 2dd7a38-ba6f-4f70-8c48-0b3116f2a1e1{stroke-linejoin:round;stroke-width:1.99px;}.\37 6dd4e80-d9e3-492e-a0a2-6049273ef6e0{clip-path:url(#c13086b5-93b9-4f0a-b5a1-18cd7b6dc725);}.\38 2dd7a38-ba6f-4f70-8c48-0b3116f2a1e1{stroke:#265999;}</style><clipPath id="75a4fc73-7364-46e5-870a-749ccac58ae0" transform="translate(-28.35 -28.35)"><polyline class="3c7139a4-e99e-4c4b-bd11-f4f83981168a" points="46.38 46.74 45.38 45.02 59.7 36.75 60.7 38.47 46.38 46.74"/></clipPath><clipPath id="ea0cd425-a0df-456c-9572-437d4177da24" transform="translate(-28.35 -28.35)"><rect class="3c7139a4-e99e-4c4b-bd11-f4f83981168a" width="91.76" height="91.76"/></clipPath><clipPath id="c13086b5-93b9-4f0a-b5a1-18cd7b6dc725" transform="translate(-28.35 -28.35)"><path class="3c7139a4-e99e-4c4b-bd11-f4f83981168a" d="M63.41,45.88a17.55,17.55,0,1,0-5.14,12.39,17.54,17.54,0,0,0,5.14-12.39h0"/></clipPath></defs><title>Asset 2</title><g id="ca5654f8-4149-416a-95b5-fdb0c6346e5d" data-name="Layer 2"><g id="8250c9a7-8859-4df6-b05a-3a6eeb28968a" data-name="Layer 1"><g class="6a6bbf4e-61fa-43e3-a85f-78a98f4e7cd8"><g class="e0a54cf7-d26d-4cc9-916f-f9a0cc37cac5"><polyline class="657d3700-a5d2-46a4-99b4-dbe5d359e7b4" points="14.08 19.52 17.53 17.53 31.85 9.26 35.3 7.27"/></g></g><g class="76dd4e80-d9e3-492e-a0a2-6049273ef6e0"><g class="e0a54cf7-d26d-4cc9-916f-f9a0cc37cac5"><path class="82dd7a38-ba6f-4f70-8c48-0b3116f2a1e1" d="M62.41,45.88a16.52,16.52,0,1,0-4.84,11.69,16.52,16.52,0,0,0,4.84-11.69" transform="translate(-28.35 -28.35)"/><path class="82dd7a38-ba6f-4f70-8c48-0b3116f2a1e1" d="M62.39,46.7c0-.27,0-.55,0-.82" transform="translate(-28.35 -28.35)"/><path class="82dd7a38-ba6f-4f70-8c48-0b3116f2a1e1" d="M62.41,45.88c0-.28,0-.55,0-.82" transform="translate(-28.35 -28.35)"/></g></g></g></g></svg>