<svg xmlns="http://www.w3.org/2000/svg" xmlns:xlink="http://www.w3.org/1999/xlink" viewBox="0 0 48 45.51"><defs><style>.\30 db12520-d5e6-49db-8854-e63b00c6e2b9,.\37 99b82cb-d42b-4f30-bb86-51145db05de0,.e1989163-9aa7-48df-903f-63247bdd52fd{fill:none;}.\34 74a5679-eac9-4e06-87ae-305bf4e19758{clip-path:url(#d825c89b-068e-49e8-a1fa-1bf15325c9b9);}.\35 ed6279d-173f-430a-8724-a524b9f15556{clip-path:url(#6fc8a9db-30c7-421b-a052-f8d6277c5f21);}.\30 db12520-d5e6-49db-8854-e63b00c6e2b9{stroke:#000;}.\30 db12520-d5e6-49db-8854-e63b00c6e2b9,.e1989163-9aa7-48df-903f-63247bdd52fd{stroke-linejoin:round;stroke-width:1.99px;}.c503e9b2-5404-4a79-8b05-7ce2b9eb87ab{clip-path:url(#801511b5-381e-48d0-9d5c-bf5aa9151b68);}.e1989163-9aa7-48df-903f-63247bdd52fd{stroke:#d94d1a;}</style><clipPath id="d825c89b-068e-49e8-a1fa-1bf15325c9b9" transform="translate(-25.86 -28.35)"><polyline class="799b82cb-d42b-4f30-bb86-51145db05de0" points="29.84 52.1 29.84 50.1 51.1 50.1 51.1 52.1 29.84 52.1"/></clipPath><clipPath id="6fc8a9db-30c7-421b-a052-f8d6277c5f21" transform="translate(-25.86 -28.35)"><rect class="799b82cb-d42b-4f30-bb86-51145db05de0" width="102.2" height="102.2"/></clipPath><clipPath id="801511b5-381e-48d0-9d5c-bf5aa9151b68" transform="translate(-25.86 -28.35)"><path class="799b82cb-d42b-4f30-bb86-51145db05de0" d="M73.85,51.1a22.74,22.74,0,1,0-6.66,16.09A22.75,22.75,0,0,0,73.85,51.1h0"/></clipPath></defs><title>Asset 3</title><g id="410bb4fe-6c9d-45da-b71c-92456a8bd805" data-name="Layer 2"><g id="2af88f62-b93e-4d27-a703-e9f0230ec3a3" data-name="Layer 1"><g class="474a5679-eac9-4e06-87ae-305bf4e19758"><g class="5ed6279d-173f-430a-8724-a524b9f15556"><polyline class="0db12520-d5e6-49db-8854-e63b00c6e2b9" points="0 22.75 3.98 22.75 25.25 22.75 29.23 22.75"/></g></g><g class="c503e9b2-5404-4a79-8b05-7ce2b9eb87ab"><g class="5ed6279d-173f-430a-8724-a524b9f15556"><path class="e1989163-9aa7-48df-903f-63247bdd52fd" d="M72.86,51.1a21.75,21.75,0,1,0-6.37,15.39A21.75,21.75,0,0,0,72.86,51.1" transform="translate(-25.86 -28.35)"/><path class="e1989163-9aa7-48df-903f-63247bdd52fd" d="M72.83,52.18q0-.54,0-1.08" transform="translate(-25.86 -28.35)"/><path class="e1989163-9aa7-48df-903f-63247bdd52fd" d="M72.86,51.1q0-.54,0-1.08" transform="translate(-25.86 -28.35)"/></g></g></g></g></svg>