<svg xmlns="http://www.w3.org/2000/svg" xmlns:xlink="http://www.w3.org/1999/xlink" viewBox="0 0 45.96 47.84"><defs><style>.\30 1fcdda4-2408-42e1-ba39-c122c513ed84,.\36 e1cdf55-1fc7-4394-b861-fe39d8aa8643,.\39 fdcc698-7f60-46da-98b1-d8ddc8b39a72{fill:none;}.b403314c-8637-4dfb-8f59-d698ca3609b6{clip-path:url(#f33ad760-9c5b-4d83-8267-087b2c798a1f);}.ec55a99d-1115-4922-b30a-1f436c1796e5{clip-path:url(#2100478f-4cbc-431b-83ed-1aaab475b8c6);}.\36 e1cdf55-1fc7-4394-b861-fe39d8aa8643{stroke:#d94d1a;}.\36 e1cdf55-1fc7-4394-b861-fe39d8aa8643,.\39 fdcc698-7f60-46da-98b1-d8ddc8b39a72{stroke-linejoin:round;stroke-width:1.99px;}.c97686fd-e58f-4090-a2da-c3ef6136ab7f{clip-path:url(#c6f77ce0-00c3-4516-8beb-e49c8e6736dd);}.\39 fdcc698-7f60-46da-98b1-d8ddc8b39a72{stroke:#f2b21a;}.e8646f49-5440-4df5-83b4-f9fea1b21867{clip-path:url(#9bcd3461-64f2-4a16-9648-5bbc9ad3d2fa);}</style><clipPath id="f33ad760-9c5b-4d83-8267-087b2c798a1f" transform="translate(-28.35 -28.35)"><polyline class="01fcdda4-2408-42e1-ba39-c122c513ed84" points="54.36 58.81 52.44 59.33 50.36 51.58 52.29 51.07 54.36 58.81"/></clipPath><clipPath id="2100478f-4cbc-431b-83ed-1aaab475b8c6" transform="translate(-28.35 -28.35)"><rect class="01fcdda4-2408-42e1-ba39-c122c513ed84" width="102.65" height="102.65"/></clipPath><clipPath id="c6f77ce0-00c3-4516-8beb-e49c8e6736dd" transform="translate(-28.35 -28.35)"><polyline class="01fcdda4-2408-42e1-ba39-c122c513ed84" points="52.44 59.33 54.36 58.81 57.85 71.82 55.92 72.33 52.44 59.33"/></clipPath><clipPath id="9bcd3461-64f2-4a16-9648-5bbc9ad3d2fa" transform="translate(-28.35 -28.35)"><path class="01fcdda4-2408-42e1-ba39-c122c513ed84" d="M74.3,51.32a23,23,0,1,0-6.73,16.25A23,23,0,0,0,74.3,51.32h0"/></clipPath></defs><title>Asset 5</title><g id="ffb7c4de-3407-49d4-bc72-bfd948b8feac" data-name="Layer 2"><g id="be5aa7cc-fdac-4eb8-b27f-8bc0063c3f2f" data-name="Layer 1"><g class="b403314c-8637-4dfb-8f59-d698ca3609b6"><g class="ec55a99d-1115-4922-b30a-1f436c1796e5"><polyline class="6e1cdf55-1fc7-4394-b861-fe39d8aa8643" points="26.08 34.57 25.05 30.72 22.98 22.98 21.95 19.13"/></g></g><g class="c97686fd-e58f-4090-a2da-c3ef6136ab7f"><g class="ec55a99d-1115-4922-b30a-1f436c1796e5"><polyline class="9fdcc698-7f60-46da-98b1-d8ddc8b39a72" points="24.02 26.87 25.05 30.72 28.54 43.73 29.57 47.58"/></g></g><g class="e8646f49-5440-4df5-83b4-f9fea1b21867"><g class="ec55a99d-1115-4922-b30a-1f436c1796e5"><path class="6e1cdf55-1fc7-4394-b861-fe39d8aa8643" d="M73.31,51.32a22,22,0,1,0-6.44,15.55,22,22,0,0,0,6.44-15.55" transform="translate(-28.35 -28.35)"/><path class="6e1cdf55-1fc7-4394-b861-fe39d8aa8643" d="M73.28,52.41c0-.36,0-.72,0-1.09" transform="translate(-28.35 -28.35)"/><path class="6e1cdf55-1fc7-4394-b861-fe39d8aa8643" d="M73.31,51.32c0-.36,0-.72,0-1.09" transform="translate(-28.35 -28.35)"/></g></g></g></g></svg>