<svg xmlns="http://www.w3.org/2000/svg" viewBox="0 0 362 400"><title>Asset 2</title><g id="a7743ebb-a298-4263-969b-eb6c8b4b4480" data-name="Layer 2"><g id="e34e241b-e17d-4218-a899-70b49bb93f9b" data-name="Layer 1"><path d="M6,6V394H356V6ZM362,0V400H0V0ZM235,59h-1V58ZM152,262l-1,1Zm10,75v-1h-1ZM132,110h-1v1Zm-62-3-1-1v1ZM30,340v1l1-1ZM188,231h1l-1-1ZM18,197l1-1H18ZM60,325h1l-1-1ZM47,45l1-1H46Zm13-1a.88.88,0,0,0,1,1V44ZM75,269h1l-1-1Zm145-2a.88.88,0,0,1-1-1v1a.88.88,0,0,0,1,1Zm-47,82a2.87,2.87,0,0,1,1-2,2.87,2.87,0,0,1-2-1v1A2.87,2.87,0,0,0,173,349ZM69,309a1,1,0,0,0,0-2,.88.88,0,0,1-1,1Zm-9,76h1l-1-1ZM192,193v-1a.88.88,0,0,0-1-1v1ZM48,82l1-1H48a.88.88,0,0,0-1,1ZM31,384a.88.88,0,0,1,1-1,.88.88,0,0,0-1-1H30v1ZM81,56a1,1,0,1,0,1-1Zm36,307,1,1h1v-2C117.67,362,117,362.33,117,363Zm53,16h1v-1h-1ZM17,296h1v-1H17Zm12,37h1a2.87,2.87,0,0,0-1-2,.88.88,0,0,1-1,1Zm-2-43-1,1a2.87,2.87,0,0,0,2,1v-1ZM129,121a.88.88,0,0,0,1,1v-2ZM28,52v1a.88.88,0,0,0,1-1ZM142,340l1-1-1-1-1,1ZM136,35a1,1,0,0,0,0-2l-1,1ZM96,333a1,1,0,0,0,2,0l-1-1A.88.88,0,0,0,96,333Zm91,6v1c1.33.67,2,.33,2-1l-1-1A.88.88,0,0,0,187,339ZM73,142l-1,1,1,1a1,1,0,0,0,0-2ZM40,373l1-1a.88.88,0,0,0-1-1l-1,1Zm8-4h1v-1l-1-1A1.25,1.25,0,0,0,48,369Zm-30-2q2,2,2-1l-1-1q-2-2-2,1A.88.88,0,0,0,18,367Zm3-26a1,1,0,0,0,0,2h1A2.87,2.87,0,0,0,21,341ZM154,191a7.59,7.59,0,0,0,1,3,4.07,4.07,0,0,0,1-3,.88.88,0,0,0-1-1Zm25,152,1,1,2-1-1-1C179.67,342,179,342.33,179,343Zm7-94a.88.88,0,0,0,1-1v-1a2.87,2.87,0,0,0-2,1Zm93,26a.88.88,0,0,1,1-1c-1.33-1.33-2-1.67-2-1a.88.88,0,0,0-1,1A2.87,2.87,0,0,0,279,275ZM24,175l1-1a2.87,2.87,0,0,0-2-1l-1,1Q22,177,24,175Zm157,63c-.67,0-1,.17-1,.5s-.33.5-1,.5l1,1h2Zm-32-7v-2a.88.88,0,0,0-1,1ZM47,23l1,2a.88.88,0,0,0,1-1V22ZM189,349c0-1.33-.33-2-1-2a.88.88,0,0,0-1,1q-2,2,1,2ZM135,229h2a2.87,2.87,0,0,0-1-2h-1Zm18.5,121c.33,0,.5-.33.5-1s-.67-1-2-1a2.87,2.87,0,0,0-1,2,2.87,2.87,0,0,1,2,1C153,350.33,153.17,350,153.5,350ZM28,38l1-1c1.33-1.33,1.33-2,0-2H27A4.07,4.07,0,0,0,28,38Zm74,310,1-1a2.87,2.87,0,0,0-2-1l-1,1Q100,350,102,348Zm101,37a.88.88,0,0,0,1-1c0-.67-.67-1-2-1a.88.88,0,0,0-1,1C201,385.33,201.67,385.67,203,385Zm-84-13-1-1v-1a3.21,3.21,0,0,0-2,3l1,1h1C118.67,374,119,373.33,119,372ZM69,224a.88.88,0,0,0,1-1,2.87,2.87,0,0,0-1-2,2.87,2.87,0,0,0-1,2ZM31,240a.88.88,0,0,1-1-1c-1.33.67-2,1.33-2,2a2.87,2.87,0,0,0,2,1C30.67,242,31,241.33,31,240ZM84,50l2-2c-1.33-1.33-2-1.67-2-1a.88.88,0,0,0-1,1Q81,50,84,50ZM25,143a1.77,1.77,0,0,0,2-2,.88.88,0,0,0-1-1c-1.33,0-2,.33-2,1s.17,1,.5,1S25,142.33,25,143ZM18,350a2.87,2.87,0,0,1-1-2l-1,2v2A1.77,1.77,0,0,0,18,350Zm42,19a1.77,1.77,0,0,0,2,2,.88.88,0,0,0,1-1c0-1.33-.33-2-1-2A2.87,2.87,0,0,0,60,369Zm98-39,2-2-2-2a2.87,2.87,0,0,0-1,2Q155,330,158,330Zm-50,30a2.87,2.87,0,0,0,1-2,.88.88,0,0,0-1-1l-1,1,1,1ZM80,36c0,1.33.33,2,1,2s1-.17,1-.5.33-.5,1-.5l-2-2ZM315,88c1.33,0,2-.33,2-1,.67-.67.33-1.67-1-3a1.77,1.77,0,0,0-2,2A2.87,2.87,0,0,1,315,88ZM73,132l-1-1v-1a1.77,1.77,0,0,0-2,2l1,1C72.33,133.67,73,133.33,73,132ZM37,362a.88.88,0,0,1,1-1l-2-1a.88.88,0,0,0-1,1Q35,364,37,362ZM31,131c.67,0,1.33.67,2,2v-3A2.87,2.87,0,0,0,31,131Zm101,55c-.67,0-.33.67,1,2l1-2-1-1A.88.88,0,0,0,132,186ZM51,333c.67,0,1-.17,1-.5s.33-.5,1-.5a2.87,2.87,0,0,1-1-2c-1.33,0-2,.33-2,1s.17,1,.5,1S51,332.33,51,333ZM209,63q2,2,2-1a1.77,1.77,0,0,0-2-2l-1,1v1Zm41,67h1l1-1c0-1.33-.33-2-1-2-1.33,0-2,.33-2,1A2.87,2.87,0,0,0,250,130ZM75,280a2.87,2.87,0,0,0-1-2l-1,2,1,1Zm197,2v-1l-1-1a2.87,2.87,0,0,0-1,2,.88.88,0,0,0,1,1ZM100,366a2.87,2.87,0,0,0,2-1c0-.67-.17-1-.5-1s-.5-.33-.5-1l-2,1ZM57,338a1.77,1.77,0,0,0,2,2,2.87,2.87,0,0,0,1-2,1.77,1.77,0,0,0-2-2v1Zm96-214a2.87,2.87,0,0,0,1-2c0-.67-.67-1-2-1-.67,0-1,.67-1,2C151,123.67,151.67,124,153,124ZM262,60c.67,0,1-.67,1-2,0-.67-.67-1-2-1l-1,1A1.77,1.77,0,0,0,262,60ZM97,357c.67,0,1-.67,1-2a1,1,0,0,0-2,0v1Zm173-15c.67,0,1-.67,1-2s-.33-1.67-1-1l-2,1a4,4,0,0,0,.5,2.5C268.83,342.83,269.33,342.67,270,342ZM65,286c.67,0,1,.17,1,.5s.33.5,1,.5l1-1-1-2A1.77,1.77,0,0,0,65,286Zm73,91a2,2,0,0,0,0-4,2.87,2.87,0,0,0-1,2C137,376.33,137.33,377,138,377ZM328,263a2,2,0,1,0,2-2A1.77,1.77,0,0,0,328,263ZM98,377c.67,0,1-.67,1-2q0-3-2-1a.88.88,0,0,0-1,1A1.77,1.77,0,0,0,98,377ZM300,54c.67,0,1-.67,1-2,0-.67-.67-1-2-1-.67,0-1,.67-1,2q-1,1,0,1.5A1.63,1.63,0,0,0,300,54ZM29,263a.88.88,0,0,1-1-1,2.87,2.87,0,0,0-1,2c0,1.33.33,2,1,2C29.33,264.67,29.67,263.67,29,263ZM133,103c-.67-.67-1-.33-1,1s.33,2,1,2a1.77,1.77,0,0,0,2-2C135,103.33,134.33,103,133,103Zm63-1a.88.88,0,0,0,1,1l1-1-1-2Q194,100,196,102ZM105,383a2.87,2.87,0,0,0-1-2,1.77,1.77,0,0,0-2,2l1,1Q105,386,105,383ZM19,28a.88.88,0,0,0,1-1c0-1.33-.33-2-1-2l-2,2C17,27.67,17.67,28,19,28ZM74,365a2.87,2.87,0,0,0-1-2l-2,2,1,1Q74,368,74,365Zm103-10c.67.67,1.33.33,2-1l-2-2c-.67,0-1,.67-1,2A.88.88,0,0,0,177,355ZM41,330c0-.67-.67-1-2-1-.67,0-1,.67-1,2l1,1A1.77,1.77,0,0,0,41,330Zm42,32,2-2-2-2q-3,0-1,2C82,361.33,82.33,362,83,362ZM37,84a1.77,1.77,0,0,0,2,2c.67,0,1-.67,1-2a.88.88,0,0,0-1-1c-.67,0-1,.17-1,.5S37.67,84,37,84ZM149,198a1.77,1.77,0,0,0-2-2c-.67,0-1,.67-1,2l1,1Q149,201,149,198ZM94,81c0,.67.67,1,2,1,.67,0,1-.67,1-2,0-.67-.67-1-2-1C94.33,79,94,79.67,94,81Zm39,305a2,2,0,0,0,0-4c-.67,0-1,.67-1,2S132.33,386,133,386ZM75,221a1.77,1.77,0,0,0,2-2c0-1.33-.33-2-1-2a1.77,1.77,0,0,0-2,2C74,220.33,74.33,221,75,221ZM175,382a2,2,0,0,0,0,4c1.33-1.33,1.67-2.33,1-3A.88.88,0,0,0,175,382Zm64,4a1.77,1.77,0,0,0,2-2c0-1.33-.33-2-1-2a1.77,1.77,0,0,0-2,2C238,385.33,238.33,386,239,386Zm8-146c0,.67.67,1,2,1a.88.88,0,0,0,1-1c0-1.33-.33-2-1-2A1.77,1.77,0,0,0,247,240ZM218,357q2-2-1-2c-1.33,0-2,.33-2,1a1.77,1.77,0,0,0,2,2ZM17,239q-2,2,1,2c1.33,0,2-.33,2-1a4.07,4.07,0,0,0-1-3A1.77,1.77,0,0,0,17,239Zm317,0a1.77,1.77,0,0,0,2-2q0-3-2-1a1.77,1.77,0,0,0-2,2A2.87,2.87,0,0,0,334,239ZM115,24a1.77,1.77,0,0,0-2,2,1.77,1.77,0,0,0,2,2c.67,0,1-.67,1-2Q118,24,115,24ZM23,276a2,2,0,0,0,0-4c-.67,0-1,.67-1,2S22.33,276,23,276ZM291,46c-.67-.67-1-.33-1,1s.33,2,1,2l2-2A2.87,2.87,0,0,0,291,46ZM25,152c0,1.33.33,2,1,2a1.77,1.77,0,0,0,2-2l-1-1Q25,149,25,152ZM121,52c.67,0,1-.67,1-2a1.77,1.77,0,0,0-2-2c-.67,0-1,.67-1,2A1.77,1.77,0,0,0,121,52ZM27,351c0,1.33.33,2,1,2a2,2,0,0,0,0-4Q25,349,27,351Zm84,21a1.77,1.77,0,0,0-2-2c-1.33,1.33-2,2.33-2,3,1.33,1.33,2.33,2,3,2S111,374,111,372ZM233,53c.67.67,1,.33,1-1s-.33-2-1-2l-1,1Q230,53,233,53Zm13,81a1.77,1.77,0,0,0-2-2,.88.88,0,0,0-1,1c0,1.33.33,2,1,2l1-1Zm3-80c.67,0,1-.67,1-2a.88.88,0,0,0-1-1c-1.33,0-2,.33-2,1A1.77,1.77,0,0,0,249,54Zm8-6a4.07,4.07,0,0,0,1-3c0-.67-.67-1-2-1q-3,0-1,2A1.77,1.77,0,0,0,257,48Zm-5,69c0-.67-.67-1-2-1-.67,0-1,.67-1,2s.33,1.67,1,1A1.77,1.77,0,0,0,252,117ZM152,340a.88.88,0,0,0,1,1,1.77,1.77,0,0,0,2-2,2.87,2.87,0,0,0-2-1C152.33,338,152,338.67,152,340ZM98,48l2-1c0-2-.67-3-2-3a1.77,1.77,0,0,0-2,2A1.77,1.77,0,0,0,98,48ZM53,38c.67,0,1-.67,1-2a1.77,1.77,0,0,0-2-2c-.67,0-1,.67-1,2A1.77,1.77,0,0,0,53,38ZM219,258c.67,0,1-.67,1-2a2.87,2.87,0,0,0-1-2,2,2,0,0,0,0,4ZM18,383c.67,0,1-.67,1-2a1.77,1.77,0,0,0-2-2c-.67,0-1,.67-1,2A1.77,1.77,0,0,0,18,383ZM75,167c-1.33,0-2,.33-2,1a2.87,2.87,0,0,0,1,2,1.77,1.77,0,0,0,2-2Zm81,6c.67,0,1-.67,1-2l-1-1c-.67,0-1,.67-1,2C154.33,172.67,154.67,173,156,173ZM30,254l2-2-2-2-2,2A1.77,1.77,0,0,0,30,254Zm209-76a2.87,2.87,0,0,0,1-2,1.77,1.77,0,0,0-2-2,2.87,2.87,0,0,0-1,2A1.77,1.77,0,0,0,239,178Zm-53-74a2.87,2.87,0,0,0,2-1,1.77,1.77,0,0,0-2-2q-2-2-2,1A1.77,1.77,0,0,0,186,104ZM75,292q2-2-1-2c-1.33,0-2,.33-2,1a1.77,1.77,0,0,0,2,2ZM98,61l-2-2q-3,0-1,2l1,1Zm53-26q1,1,1.5,0a4.48,4.48,0,0,0,.5-2,1.77,1.77,0,0,0-2-2l-2,2A1.77,1.77,0,0,0,151,35ZM56,90l-2-2c-1.33,1.33-1.67,2.33-1,3l1,1A1.77,1.77,0,0,0,56,90ZM196,329a1.77,1.77,0,0,0-2-2c-1.33,0-2,.33-2,1a1.77,1.77,0,0,0,2,2C195.33,330,196,329.67,196,329Zm117,56q2,2,2-1c0-2-.67-3-2-3a1.77,1.77,0,0,0-2,2ZM62,85c.67,0,1-.67,1-2s-.33-2-1-2a2,2,0,0,0,0,4ZM73,383c-.67,0-1,.67-1,2a.88.88,0,0,0,1,1,1.77,1.77,0,0,0,2-2C75,382.67,74.33,382.33,73,383ZM30,216a1.77,1.77,0,0,0-2-2c-1.33,0-2,.33-2,1a1.77,1.77,0,0,0,2,2C29.33,217,30,216.67,30,216Zm115,96a.88.88,0,0,0,1-1,1.77,1.77,0,0,0-2-2,2.87,2.87,0,0,0-1,2C143,311.67,143.67,312,145,312ZM166,41c.67,0,1-.67,1-2a1.77,1.77,0,0,0-2-2c-.67,0-1,.67-1,2A1.77,1.77,0,0,0,166,41ZM19,81a2,2,0,0,0,0-4,2.5,2.5,0,0,0,0,4ZM146,383q-2,3,1,3c1.33,0,2-.33,2-1a7.59,7.59,0,0,0-1-3C146.67,382,146,382.33,146,383Zm81,4a2,2,0,0,0,0-4c-1.33,1.33-2,2.33-2,3S225.67,387,227,387ZM207,242c.67,0,1-.67,1-2a1.77,1.77,0,0,0-2-2c-.67,0-1,.67-1,2A1.77,1.77,0,0,0,207,242Zm-16,78c.67.67,1,.33,1-1s-.33-2-1-2-1,.17-1,.5-.33.5-1,.5A1.77,1.77,0,0,0,191,320ZM65,320a1.77,1.77,0,0,0,2,2c.67,0,1-.67,1-2l-1-1Q65,317,65,320ZM182,72a1.77,1.77,0,0,0,2-2c0-1.33-.33-2-1-2l-2,1A4.07,4.07,0,0,0,182,72Zm18,250a2.87,2.87,0,0,0,2-1,1.77,1.77,0,0,0-2-2,2.87,2.87,0,0,0-2,1A1.77,1.77,0,0,0,200,322Zm-40-92h1l1-1c0-1.33-.33-2-1-2-1.33,0-2,.33-2,1C159,229.33,159.33,230,160,230Zm-8,95,1-1c0-2-.33-2.67-1-2l-2,1A1.77,1.77,0,0,0,152,325ZM105,39a4.07,4.07,0,0,0,3-1,1.77,1.77,0,0,0-2-2h-1ZM288,234h1l1-1a1.77,1.77,0,0,0-2-2c-.67-.67-1-.33-1,1Q285,234,288,234ZM30,189a1.77,1.77,0,0,0,2,2,1.77,1.77,0,0,0,2-2c0-.67-.67-1-2-1Q30,186,30,189Zm188-86a2,2,0,1,0,2-2A1.77,1.77,0,0,0,218,103ZM145,320c0-.67-.67-1-2-1s-1.67.33-1,1l1,2Q145,323,145,320Zm55-87c1.33,0,2-.33,2-1,0-1.33-.33-2-1-2q-2-2-2,1C199,232.33,199.33,233,200,233ZM132,67l2-2a2,2,0,1,0-2,2ZM342,235c0,1.33,1,2,3,2a1.77,1.77,0,0,0,2-2l-2-2C344.33,233,343.33,233.67,342,235ZM330,385a1.77,1.77,0,0,0-2-2c-1.33,0-2,.33-2,1a4,4,0,0,0,.5,2.5c.33.33.83.17,1.5-.5C329.33,386,330,385.67,330,385ZM173,230a2,2,0,1,0,2-2A1.77,1.77,0,0,0,173,230ZM17,153c1.33,0,2-.33,2-1,0-1.33-.33-2-1-2-1.33,0-2,.33-2,1C16,152.33,16.33,153,17,153Zm292-1,2,2,2-2a2,2,0,0,0-4,0ZM238,344a2,2,0,0,0,0,4l2-2A1.77,1.77,0,0,0,238,344ZM71.5,47a4.48,4.48,0,0,0-.5,2c0,.67.67,1,2,1a.88.88,0,0,0,1-1c0-1.33-.33-2-1-2Q72,46,71.5,47ZM110,50c.67,0,1-.67,1-2a.88.88,0,0,0-1-1,1.77,1.77,0,0,0-2,2C108,49.67,108.67,50,110,50ZM89,28l2-2-2-2c-.67,0-1,.67-1,2Q86,28,89,28ZM196,373c.67,0,1-.67,1-2,0-.67-.67-1-2-1q-3,0-1,2Q194,375,196,373Zm88-132a2,2,0,0,0,4,0c-1.33-1.33-2.33-2-3-2S284,239.67,284,241ZM42,242a1.77,1.77,0,0,0-2-2c-1.33,0-2,.33-2,1,0,2,.67,3,2,3ZM14,137a1.77,1.77,0,0,0,2,2,2,2,0,0,0,0-4A1.77,1.77,0,0,0,14,137ZM178,39a1.77,1.77,0,0,0,2,2c.67,0,1-1,1-3,0-.67-.67-1-2-1Q176,37,178,39Zm162,95a.88.88,0,0,1-1-1c-1.33,1.33-1.67,2.33-1,3s1,.67,1,0Q342,136,340,134ZM251,267c.67,0,1-.67,1-2s-.33-2-1-2a2,2,0,0,0,0,4ZM307,35a2,2,0,0,0,4,0,4.48,4.48,0,0,0-.5-2q-.5-1-1.5,0A1.77,1.77,0,0,0,307,35ZM257,244a2.87,2.87,0,0,1,2-1l-2-2a1.77,1.77,0,0,0-2,2C255,243.67,255.67,244,257,244ZM129,40q0-3-2-1l-1,1a1.77,1.77,0,0,0,2,2Q131,42,129,40Zm58,286h2c.67-2,.33-3-1-3q-2-2-2,1C186,325.33,186.33,326,187,326ZM66,214a1.77,1.77,0,0,0,2-2c0-2-.67-3-2-3,0,.67-.17,1-.5,1s-.5.33-.5,1a1.63,1.63,0,0,0-.5,2A1.59,1.59,0,0,0,66,214Zm152-83a2,2,0,1,0,2-2A1.77,1.77,0,0,0,218,131ZM34,267a3.21,3.21,0,0,0,2-3c0-1.33-.33-2-1-2a2.65,2.65,0,0,0-3,3A1.77,1.77,0,0,0,34,267ZM184,25c0,2,.67,3,2,3a1.77,1.77,0,0,0,2-2c0-2-.67-3-2-3A1.77,1.77,0,0,0,184,25Zm82,183a1.77,1.77,0,0,0,2,2c1.33,0,2-1,2-3s-.67-2.33-2-1A1.77,1.77,0,0,0,266,208ZM188,33c0,.67.67,1,2,1a1.77,1.77,0,0,0,2-2c-1.33-1.33-2-1.67-2-1A1.77,1.77,0,0,0,188,33ZM345,259a1.77,1.77,0,0,0-2-2c-1.33,1.33-2,2.33-2,3l2,2C344.33,262,345,261,345,259ZM25,303a.88.88,0,0,0-1-1,1.77,1.77,0,0,0-2,2,2.87,2.87,0,0,0,1,2C24.33,306,25,305,25,303Zm40,30c.67,0,1-1,1-3a1.77,1.77,0,0,0-2-2l-1,2C63,332,63.67,333,65,333ZM36,44a1.77,1.77,0,0,0,2-2,1.77,1.77,0,0,0-2-2l-2,2A1.77,1.77,0,0,0,36,44ZM90,365a2,2,0,1,0,2,2,4.48,4.48,0,0,0-.5-2Q91,364,90,365ZM94,55a.88.88,0,0,0,1-1c0-1.33-.33-2-1-2a1.77,1.77,0,0,0-2,2Q92,57,94,55Zm242,70a2,2,0,1,0-2-2A1.77,1.77,0,0,0,336,125Zm-128-4a2,2,0,1,0,2-2Zm51,164a1.77,1.77,0,0,0,2-2q0-3-2-1l-1,1ZM72,117l-2-2c-1.33,1.33-1.67,2.33-1,3,0,.67.67,1,2,1A2.87,2.87,0,0,0,72,117ZM220,37l-2-2a3.21,3.21,0,0,0-2,3c0,.67.67,1,2,1A1.77,1.77,0,0,0,220,37ZM133,199a2.87,2.87,0,0,0,2,1c.67,0,1-.67,1-2s-.33-2-1-2C133.67,196,133,197,133,199Zm-70,1a2.87,2.87,0,0,0,2-1c0-1.33-.33-2-1-2-1.33-1.33-2-1.33-2,0Q60,200,63,200Zm223-1a2,2,0,0,0,0-4c-1.33,0-2,.33-2,1S284.67,197.67,286,199Zm-72-85c.67,0,1-.67,1-2s-.33-2-1-2c-1.33,0-2,1-2,3C212,113.67,212.67,114,214,114ZM146,332c1.33,0,2-.33,2-1s-.67-1.67-2-3l-1,1a1.58,1.58,0,0,0,1,3ZM76,181c.67,0,1-.67,1-2,0-.67-.67-1-2-1a.88.88,0,0,0-1,1A1.77,1.77,0,0,0,76,181Zm129,71c.67,0,1.33-1,2-3-.67,0-1-.17-1-.5s-.33-.5-1-.5l-2,2A1.77,1.77,0,0,0,205,252ZM26,362a1.77,1.77,0,0,0,2-2c0-1.33-.33-2-1-2a1.77,1.77,0,0,0-2,2Q23,362,26,362ZM200,112a1.77,1.77,0,0,0,2,2q3,0,1-2l-1-2Q200,109,200,112Zm93,80a1.77,1.77,0,0,0,2-2l-1-1q-2-2-2,1Q290,192,293,192ZM197,341c1.33,0,2-.33,2-1,0-1.33-.33-2-1-2-1.33,0-2,.33-2,1C196,340.33,196.33,341,197,341Zm117-51q3,2,3-1,2-2-1-2-2-2-2,1ZM242,190c.67,0,1-.67,1-2s-.33-2-1-2a2,2,0,0,0,0,4Zm-79-82c-.67,0-1,.67-1,2a2,2,0,0,0,4,0C166,108.67,165,108,163,108ZM24,189c0,.67.67,1,2,1s2-1,2-3l-1-1H26C24.67,186,24,187,24,189ZM81,376a1.77,1.77,0,0,0,2-2c0-1.33-.33-2-1-2a1.77,1.77,0,0,0-2,2C80,375.33,80.33,376,81,376Zm125,0a2,2,0,1,0,2-2A1.77,1.77,0,0,0,206,376Zm-38-35c2,0,3-.67,3-2s-.33-2-1-2c-2,0-3,.33-3,1C167,340,167.33,341,168,341ZM58,29a2.65,2.65,0,0,0,3-3c-.67,0-1-.17-1-.5s-.33-.5-1-.5a1.77,1.77,0,0,0-2,2C57,28.33,57.33,29,58,29ZM78,16a2,2,0,0,0,4,0,2,2,0,0,0-4,0ZM192,46c1.33,0,2-1,2-3a2,2,0,0,0-4,0A3.21,3.21,0,0,0,192,46ZM310,182c0,2,.67,3,2,3a1.77,1.77,0,0,0,2-2c0-2-.67-3-2-3A1.77,1.77,0,0,0,310,182Zm-160,0a1.77,1.77,0,0,0,2,2c1.33,0,2-1,2-3a1.77,1.77,0,0,0-2-2C150.67,179,150,180,150,182ZM45,385c1.33,0,2-1,2-3a2.87,2.87,0,0,0-2-1q-3,0-1,2C44,384.33,44.33,385,45,385Zm75-1c0-2-.67-3-2-3a2,2,0,0,0,0,4Zm81-54c0,2,.67,3,2,3a2,2,0,0,0,0-4Q201,327,201,330Zm-40,53c0,2,.67,3,2,3s2-1,2-3a2,2,0,0,0-4,0Zm52,1a2,2,0,0,0,4,0c0-2-.67-3-2-3S213,382,213,384ZM66,180a2,2,0,1,0-2-2A1.77,1.77,0,0,0,66,180ZM225,44c0,2,.67,3,2,3a1.77,1.77,0,0,0,2-2,1.77,1.77,0,0,0-2-2A2.87,2.87,0,0,1,225,44ZM16,254a1.77,1.77,0,0,0,2,2,2,2,0,0,0,0-4A1.77,1.77,0,0,0,16,254ZM280,35a2,2,0,0,0,4,0,2,2,0,0,0-4,0ZM159,201a1.77,1.77,0,0,0,2-2,4.07,4.07,0,0,0-1-3,1.77,1.77,0,0,0-2,2A4.07,4.07,0,0,0,159,201ZM26,66a3.21,3.21,0,0,0,2-3l-2-2-2,2C24,65,24.67,66,26,66ZM187,201c.67,0,1-.67,1-2a1.77,1.77,0,0,0-2-2c-.67,0-1,.67-1,2A1.77,1.77,0,0,0,187,201Zm56,141c1.33,0,2-1,2-3a1.77,1.77,0,0,0-2-2c-1.33,0-2,1-2,3ZM93,17a2,2,0,0,0,4,0,2,2,0,0,0-4,0ZM201,200c0-2-.67-3-2-3,0,.67-.17,1-.5,1s-.5.33-.5,1q-2,2,1,2Zm-70-27,2-2-2-2-2,2A1.77,1.77,0,0,0,131,173ZM276,44l2-2-1-2a.88.88,0,0,0-1-1c-1.33,0-2,1-2,3S274.67,44.67,276,44ZM68,38a1.77,1.77,0,0,0,2-2,1.77,1.77,0,0,0-2-2c-2.67,0-3.33.67-2,2A1.77,1.77,0,0,0,68,38ZM210,19a1.77,1.77,0,0,0,2-2,3.21,3.21,0,0,0-2-3c-1.33,1.33-1.67,2.33-1,3C209,18.33,209.33,19,210,19ZM53,17a2.87,2.87,0,0,0,2-1c0-2-.67-3-2-3a1.77,1.77,0,0,0-2,2A1.77,1.77,0,0,0,53,17ZM273,166a2,2,0,0,0-4,0c0,2,.67,3,2,3S273,168,273,166ZM75,203a2,2,0,1,0,2,2A1.77,1.77,0,0,0,75,203ZM16,52c0,2,.67,3,2,3a2,2,0,0,0,0-4C16.67,51,16,51.33,16,52ZM87,383c0,2,.67,3,2,3,1.33-1.33,2-2.33,2-3a2,2,0,0,0-4,0ZM58,317a2,2,0,0,0,0-4c-.67,0-1,.67-1,2S57.33,317,58,317ZM20,210a1.77,1.77,0,0,0-2-2,2.65,2.65,0,0,0-3,3c0,1.33,1,2,3,2C19.33,211.67,20,210.67,20,210ZM165,355a2,2,0,0,0,0-4c-2,0-3,.67-3,2S163,355,165,355Zm25,27a3.21,3.21,0,0,0-2,3,1.77,1.77,0,0,0,2,2c1.33-1.33,1.67-2.33,1-3C191,382.67,190.67,382,190,382ZM39,219c.67-.67.33-1.67-1-3-2,0-3,.67-3,2a1.77,1.77,0,0,0,2,2Q39,222,39,219Zm158,25c.67,0,1-.67,1-2a1.77,1.77,0,0,0-2-2c-1.33,0-2,1-2,3S195,245.33,197,244ZM170,26a2,2,0,0,0,4,0c0-2-.67-3-2-3S170,24,170,26ZM286,222c0-2-.67-3-2-3-2.67,0-3.33.67-2,2l1,2C285,223,286,222.67,286,222Zm6,130a2,2,0,0,0,4,0,4,4,0,0,0-.5-2.5c-.33-.33-.83-.17-1.5.5A1.77,1.77,0,0,0,292,352Zm-44-2a2,2,0,0,0-4,0c0,2,.67,3,2,3S248,352,248,350ZM126,372c0,1.33.33,2,1,2a3.21,3.21,0,0,0,2-3,1.77,1.77,0,0,0-2-2C125.67,370.33,125.33,371.33,126,372Zm125-95c0-1.33-.33-2-1-2a3.21,3.21,0,0,0-2,3c0,1.33.33,2,1,2Q252,278,251,277Zm-5-116a2,2,0,0,0,0-4q-3,0-1,2ZM16,226a1.77,1.77,0,0,0,2,2,1.77,1.77,0,0,0,2-2l-1-2C17,222.67,16,223.33,16,226Zm137,88c-.67,0-1,.67-1,2s1,2,3,2c.67,0,1-.67,1-2C156,313.33,155,312.67,153,314ZM75,28c.67,0,1-.67,1-2a1.77,1.77,0,0,0-2-2c-.67,0-1,.67-1,2A1.77,1.77,0,0,0,75,28ZM268,383c0-.67-.67-1-2-1s-2,1-2,3l2,2Q268,386,268,383ZM258,158c.67,0,1-.67,1-2a2,2,0,0,0-4,0C255,157.33,256,158,258,158Zm-69,80a2,2,0,1,0,2-2A1.77,1.77,0,0,0,189,238ZM29,371c-1.33,1.33-2,2.33-2,3s.67,1,2,1c.67,0,1-.67,1-2ZM42,228a1.77,1.77,0,0,0-2,2c0,1.33,1,2,3,2s2.33-1,1-3C44,228.33,43.33,228,42,228Zm209-82a3.21,3.21,0,0,0-2-3,1.77,1.77,0,0,0-2,2c0,2,.33,3,1,3S249.67,147.33,251,146Zm-85,91q2-2-1-2a1.77,1.77,0,0,0-2,2q0,3,2,2A2.87,2.87,0,0,0,166,237Zm47-4c0,2,.67,3,2,3s2-1,2-3a2,2,0,0,0-4,0ZM168,68a1.77,1.77,0,0,0,2,2c1.33,0,2-1,2-3l-2-1ZM108,16c0,1.33.33,2,1,2s1.67-.67,3-2a1.77,1.77,0,0,0-2-2c-.67-.67-1.17-.83-1.5-.5A4,4,0,0,0,108,16ZM241,153c.67,0,1-.67,1-2,0-2-.67-3-2-3s-2,1-2,3C238,152.33,239,153,241,153ZM228,356c0,2,.67,3,2,3s2-1,2-3a2,2,0,0,0-4,0ZM292,28c.67.67,1.17.83,1.5.5A4,4,0,0,0,294,26a3.21,3.21,0,0,0-2-3,1.77,1.77,0,0,0-2,2C290,27,290.67,28,292,28ZM32,148a2,2,0,0,0,0-4,2,2,0,0,0,0,4ZM325,33a1.77,1.77,0,0,0-2,2,2,2,0,0,0,4,0A1.77,1.77,0,0,0,325,33ZM283,359a1.77,1.77,0,0,0,2,2c1.33,0,2-1,2-3a1.77,1.77,0,0,0-2-2C283.67,357.33,283,358.33,283,359ZM203,40c.67,0,1-.67,1-2a1.77,1.77,0,0,0-2-2c-1.33,0-2,.33-2,1A2.65,2.65,0,0,0,203,40Zm66,118a2,2,0,1,0,2-2,1.63,1.63,0,0,0-2-.5C268.33,155.83,268.33,156.67,269,158ZM298,32a1.77,1.77,0,0,0,2,2c1.33,0,2-1,2-3a1.77,1.77,0,0,0-2-2C298.67,29,298,30,298,32ZM26,278l2,2c2,0,3-.67,3-2,0-2.67-1-3.33-3-2A1.77,1.77,0,0,0,26,278Zm-9,34a1.77,1.77,0,0,0,2-2c0-1.33-1-2-3-2-1.33,0-1.67,1-1,3A2.87,2.87,0,0,0,17,312ZM282,48a2,2,0,0,0,4,0,3.21,3.21,0,0,0-2-3C282.67,45,282,46,282,48ZM109,83a1.77,1.77,0,0,0,2-2c-1.33-1.33-2.33-2-3-2a1.77,1.77,0,0,0-2,2C106,82.33,107,83,109,83Zm18-56a2.65,2.65,0,0,0,3,3,4.07,4.07,0,0,0,1-3,4.48,4.48,0,0,0-.5-2q-.5-1-1.5,0A1.77,1.77,0,0,0,127,27ZM310,208c1.33-2,.67-3-2-3a1.77,1.77,0,0,0-2,2c0,2,.67,3,2,3A1.77,1.77,0,0,0,310,208Zm-74-44a2,2,0,1,0,2-2A1.77,1.77,0,0,0,236,164ZM26,15c0-.67-.67-1-2-1a1.77,1.77,0,0,0-2,2,1.77,1.77,0,0,0,2,2C26.67,18,27.33,17,26,15Zm1,185c-2,0-3,.67-3,2s1,2,3,2a2,2,0,0,0,0-4ZM250,384a1.77,1.77,0,0,0,2,2,2.65,2.65,0,0,0,3-3,1.77,1.77,0,0,0-2-2Q252,381,250,384ZM308,26a1.77,1.77,0,0,0-2-2c-1.33,0-2,1-2,3a1.77,1.77,0,0,0,2,2C307.33,29,308,28,308,26ZM16,92a1.77,1.77,0,0,0,2,2c1.33,0,2-1,2-3,0-.67-.67-1-2-1A1.77,1.77,0,0,0,16,92Zm221,32c0,2,.67,3,2,3s2-1,2-3a4.48,4.48,0,0,0-.5-2q-.5-1-1.5,0A1.77,1.77,0,0,0,237,124Zm8-98a2,2,0,0,0,4,0,1.77,1.77,0,0,0-2-2c-.67-.67-1.17-.83-1.5-.5A4,4,0,0,0,245,26ZM146,174a1.77,1.77,0,0,0,2-2c0-2-.33-3-1-3a1.77,1.77,0,0,0-2,2C145,173,145.33,174,146,174ZM348,282c0-.67-.67-1-2-1-2.67,0-3.33.67-2,2a1.77,1.77,0,0,0,2,2C347.33,285,348,284,348,282ZM312,96c0,2,.67,3,2,3a1.77,1.77,0,0,0,2-2c0-2-.67-3-2-3A1.77,1.77,0,0,0,312,96ZM17,337c.67,0,1.67-.67,3-2,0-2-.67-3-2-3l-2,2C15.33,334.67,15.67,335.67,17,337Zm198-89c.67,0,1.67-.67,3-2a2,2,0,0,0-4,0v2C214,248.67,214.33,248.67,215,248ZM158,104c1.33.67,2,.33,2-1a3.21,3.21,0,0,0-2-3,2,2,0,0,0,0,4ZM31,175a2,2,0,0,0,0-4q-1-1-1.5,0a4.48,4.48,0,0,0-.5,2C27.67,174.33,28.33,175,31,175Zm260-1q-1-3-3-3c-1.33,1.33-2,2.33-2,3a1.77,1.77,0,0,0,2,2C290,176,291,175.33,291,174ZM26,117a1.77,1.77,0,0,0,2,2,1.77,1.77,0,0,0,2-2c0-2-.67-3-2-3S26,115,26,117ZM205,364c0,2,.67,3,2,3a2,2,0,0,0,0-4Q205,361,205,364ZM171,103a1.77,1.77,0,0,0,2,2c1.33-1.33,2-2.33,2-3-1.33-1.33-2.33-2-3-2C170.67,100,170.33,101,171,103Zm2,12a1.77,1.77,0,0,0,2,2,4.07,4.07,0,0,0,1-3,1.77,1.77,0,0,0-2-2C172.67,112,172.33,113,173,115Zm171,1q3,2,3-1c0-2-.67-3-2-3-2,0-3,.33-3,1C342,115,342.67,116,344,116ZM94,38q2,1,3-2c0-1.33-.33-2-1-2q-3-2-3,1C93,37,93.33,38,94,38Zm44,141c0,2,.67,3,2,3s2-1,2-3c0-1.33-.33-2-1-2Q138,176,138,179ZM108,60q-2,2,1,2c.67.67,1.67.33,3-1,0-2-.67-3-2-3A1.77,1.77,0,0,0,108,60ZM257,357q1,0,3-3c-1.33-1.33-2.33-2-3-2-1.33,0-2,1-2,3A1.77,1.77,0,0,0,257,357Zm91-110c-1.33-1.33-2.33-2-3-2a1.77,1.77,0,0,0-2,2,3.21,3.21,0,0,0,3,2A1.77,1.77,0,0,0,348,247Zm-48-58c1.33,0,2-1,2-3a2,2,0,0,0-4,0C298,186.67,298.67,187.67,300,189ZM281,56a1.77,1.77,0,0,0-2-2c-1.33-.67-2,0-2,2,0,1.33.33,2,1,2S279.67,57.33,281,56Zm26,320a6.6,6.6,0,0,0-3-3c-1.33,1.33-2,2.33-2,3,0,1.33,1,2,3,2A1.77,1.77,0,0,0,307,376ZM271,68c1.33,0,2-1,2-3-1.33-1.33-2.33-2-3-2a1.77,1.77,0,0,0-2,2Q270,68,271,68ZM250,291a4.07,4.07,0,0,0,1-3,2,2,0,0,0-4,0Q248,291,250,291Zm-67,89c2,0,3-.67,3-2s-1-2-3-2a2,2,0,0,0,0,4ZM323,277a2.65,2.65,0,0,0,3-3,1.77,1.77,0,0,0-2-2c-2,0-3,.67-3,2C321,276,321.67,277,323,277ZM102,58c.67,0,1-.67,1-2a2,2,0,0,0-4,0Q100,59,102,58ZM345,190c1.33,0,2-1,2-3,0-1.33-1-2-3-2a1.77,1.77,0,0,0-2,2Q344,190,345,190Zm-204-2q0,3,2,4a1.77,1.77,0,0,0,2-2c0-2-.33-3-1-3C142,186.33,141,186.67,141,188Zm132,0c0,2,.67,3,2,3a1.77,1.77,0,0,0,2-2c0-2-.67-3-2-3A1.77,1.77,0,0,0,273,188ZM335,47c1.33,0,2-1,2-3s-.67-3-2-3a1.77,1.77,0,0,0-2,2C333,45,333.67,46.33,335,47ZM217,56c0,1.33,1,1.67,3,1a2,2,0,0,0,0-4A2.65,2.65,0,0,0,217,56Zm17,278a1.77,1.77,0,0,0-2,2c0,2,.67,3,2,3a1.77,1.77,0,0,0,2-2C236,336.33,235.33,335.33,234,334ZM299,17a1.77,1.77,0,0,0,2,2c1.33,0,2-1,2-3a1.77,1.77,0,0,0-2-2C299.67,14,299,15,299,17ZM15,121a1.77,1.77,0,0,0,2,2,3.21,3.21,0,0,0,2-3,1.77,1.77,0,0,0-2-2C15.67,118,15,119,15,121ZM241,47a4.07,4.07,0,0,0,1-3,1.77,1.77,0,0,0-2-2c-1.33,1.33-2,2.33-2,3C238,46.33,239,47,241,47ZM76,195c.67,0,1-1,1-3a2,2,0,0,0-4,0A2.65,2.65,0,0,0,76,195ZM262,29l3-3c0-2-.67-3-2-3a2.65,2.65,0,0,0-3,3C260,28,260.67,29,262,29ZM250,255a2,2,0,0,0,0-4c-2-.67-3-.33-3,1A2.65,2.65,0,0,0,250,255ZM278,28a1.77,1.77,0,0,0,2-2c0-2-.67-3-2-3-2,0-3,.67-3,2A2.65,2.65,0,0,0,278,28Zm-41,9c0-2-.67-3-2-3a3.21,3.21,0,0,0-2,3l1,1c.67,1.33,1.33,2,2,2C237.33,38.67,237.67,37.67,237,37Zm74,161c.67,0,1.67-.67,3-2a2.65,2.65,0,0,0-3-3,1.77,1.77,0,0,0-2,2C309,195.67,309.67,196.67,311,198Zm25,160c0,2,.67,3,2,3a1.77,1.77,0,0,0,2-2c0-2-.67-3-2-3A1.77,1.77,0,0,0,336,358ZM23,131c1.33-1.33,2-2.33,2-3,0-1.33-1-2-3-2a4.07,4.07,0,0,0-1,3A1.77,1.77,0,0,0,23,131ZM325,245a1.77,1.77,0,0,0,2-2c0-2-.67-3-2-3q-3,2-3,3C322,244.33,323,245,325,245ZM39,34c0,2,.67,3,2,3s2-1,2-3a1.77,1.77,0,0,0-2-2A1.77,1.77,0,0,0,39,34Zm248,96a1.77,1.77,0,0,0,2,2,3.21,3.21,0,0,0,3-2,1.77,1.77,0,0,0-2-2C288,128,287,128.67,287,130ZM177,198a2,2,0,0,0-4,0c0,2,.67,3,2,3S177,200,177,198ZM139,44c2,1.33,3,.67,3-2,0-.67-.67-1.67-2-3l-3,3A1.77,1.77,0,0,0,139,44ZM294,168a1.77,1.77,0,0,0,2-2c0-2-.67-3-2-3-.67,0-1.67.67-3,2A2.65,2.65,0,0,0,294,168ZM254,33c0,.67.67,1.67,2,3,2,0,3-.67,3-2,0-2-.67-3-2-3Q254,30,254,33ZM141,28a1.77,1.77,0,0,0,2,2c1.33-.67,2-2,2-4-1.33-1.33-2.33-2-3-2C141.33,24.67,141,26,141,28ZM298,41c0,2,.67,3,2,3a1.77,1.77,0,0,0,2-2c0-2-.33-3-1-3C299,39,298,39.67,298,41ZM274,366c0,2,.67,3,2,3s2-1,2-3a2,2,0,0,0-4,0Zm56-60c1.33,0,2-1,2-3,0-1.33-1-2-3-2a1.77,1.77,0,0,0-2,2A2.65,2.65,0,0,0,330,306ZM210,29a1.77,1.77,0,0,0-2,2,2,2,0,0,0,4,0C212,29,211.33,28.33,210,29Zm75,181c2,0,3-.67,3-2s-1.33-2-4-2a1.77,1.77,0,0,0-2,2A3.21,3.21,0,0,0,285,210Zm-33-73a1.77,1.77,0,0,0,2,2c1.33,0,2-1,2-3a1.77,1.77,0,0,0-2-2C252.67,134,252,135,252,137Zm60,230a1.77,1.77,0,0,0-2-2q-3,2-2,3a1.77,1.77,0,0,0,2,2C311.33,370,312,369,312,367ZM28,161c1.33,1.33,2.33,2,3,2s1-.67,1-2a1.77,1.77,0,0,0-2-2A1.77,1.77,0,0,0,28,161ZM150,41c0,2,.67,3,2,3,2.67,0,3.33-1,2-3a2,2,0,0,0-4,0ZM257,211c0,2,.67,3,2,3a2,2,0,0,0,0-4C257.67,209.33,257,209.67,257,211ZM225,30c0,2,.67,3,2,3a1.77,1.77,0,0,0,2-2c0-2-.67-3-2-3A1.77,1.77,0,0,0,225,30ZM345,218a2,2,0,0,0,0-4c-2,0-3,.33-3,1A2.65,2.65,0,0,0,345,218Zm0-140c.67,0,1.67-.67,3-2a1.77,1.77,0,0,0-2-2c-2,0-3,.33-3,1Q342,78,345,78ZM244,375a2,2,0,0,0,4,0c0-2-.67-3-2-3S244,373,244,375ZM341,19c1.33.67,2,0,2-2,0-1.33-.33-2-1-2-2-.67-3-.33-3,1C339,18,339.67,19,341,19ZM134,239a2,2,0,1,0,2-2C133.33,237,132.67,237.67,134,239Zm144-9c0,2,.67,3,2,3a1.77,1.77,0,0,0,2-2c0-2-.67-3-2-3A1.77,1.77,0,0,0,278,230Zm56,88a2,2,0,0,0,0-4,4.07,4.07,0,0,0-3,1A2.65,2.65,0,0,0,334,318Zm-99,56c0-1.33-1-1.67-3-1-.67,0-1,.67-1,2q0,3,3,2C234.67,377,235,376,235,374Zm28-226a2,2,0,0,0-4,0c0,2,.67,3,2,3S263,150,263,148ZM336,38q2,0,3-3a1.77,1.77,0,0,0-2-2q-3-1-3,2C334,35.67,334.67,36.67,336,38ZM68,189c0-2-.67-3-2-3q-3,2-2,3a2,2,0,0,0,4,0Zm254,45c1.33,0,2-1,2-3a1.77,1.77,0,0,0-2-2c-.67,0-1.67.67-3,2A2.65,2.65,0,0,0,322,234ZM17,71c1.33,0,2-1,2-3a1.77,1.77,0,0,0-2-2,1.77,1.77,0,0,0-2,2C15,68.67,15.67,69.67,17,71ZM324,377q0-3-2-4l-2,1a2.87,2.87,0,0,0-1,2,1.77,1.77,0,0,0,2,2C323,378,324,377.67,324,377ZM53,246c0-2-.67-3-2-3a1.77,1.77,0,0,0-2,2q-2,2,1,2C50.67,247.67,51.67,247.33,53,246ZM311,16a2.65,2.65,0,0,0,3,3,1.77,1.77,0,0,0,2-2c0-2-.67-3-2-3Q313,13,311,16Zm37,72c0-1.33-1-2-3-2-1.33,0-2,1-2,3a1.77,1.77,0,0,0,2,2A2.65,2.65,0,0,0,348,88ZM123,20c.67,0,1.67-.67,3-2,0-2-.67-3-2-3q-3-1-3,2C121,19,121.67,20,123,20ZM330,93c0-2-.67-3-2-3-2,0-3,.67-3,2a2.65,2.65,0,0,0,3,3A1.77,1.77,0,0,0,330,93ZM64,95c0,.67,1,1,3,1,2.67,0,3.33-.67,2-2a1.77,1.77,0,0,0-2-2A2.65,2.65,0,0,0,64,95Zm143,8c0,.67.67,1,2,1a2,2,0,0,0,0-4Q206,100,207,103Zm64-83c1.33,0,2-1,2-3s-1-2.67-3-2c-1.33,0-2,1-2,3C268,19.33,269,20,271,20Zm54-3q0,1,3,3c1.33,0,2-1,2-3s-.67-3-2-3A2.65,2.65,0,0,0,325,17Zm11,38a1.77,1.77,0,0,0-2,2q2,3,3,3c1.33-1.33,2-2.33,2-3C339,55.67,338,55,336,55Zm11,317a2.65,2.65,0,0,0-3-3c-.67,0-1.67.67-3,2a2.65,2.65,0,0,0,3,3C344.67,374,345.67,373.33,347,372ZM34,27a2.65,2.65,0,0,0,3-3c-1.33-1.33-2.33-2-3-2a1.77,1.77,0,0,0-2,2C32,26,32.67,27,34,27ZM17,42c2,0,3-.67,3-2a1.77,1.77,0,0,0-2-2,3.21,3.21,0,0,0-3,2A1.77,1.77,0,0,0,17,42ZM289,222c0,.67.67,1.67,2,3,.67,0,1.67-.67,3-2q0-4-3-4C289.67,219,289,220,289,222ZM18,108a1.77,1.77,0,0,0,2,2c1.33,0,2-1,2-3a1.77,1.77,0,0,0-2-2C18.67,105,18,106,18,108Zm99-68a2.65,2.65,0,0,0,3-3,1.77,1.77,0,0,0-2-2,2.65,2.65,0,0,0-3,3A1.77,1.77,0,0,0,117,40ZM269,273c2,0,3-.67,3-2,0-2-.67-3-2-3a2.65,2.65,0,0,0-3,3A1.77,1.77,0,0,0,269,273ZM219,374q1,1,3-2c0-.67-.67-1.67-2-3l-3,3A1.77,1.77,0,0,0,219,374ZM340,270a2.65,2.65,0,0,0,3,3,2,2,0,0,0,0-4C342.33,268.33,341.33,268.67,340,270ZM227,126a2,2,0,0,0,4,0c0-2-.67-3-2-3S227,124,227,126ZM199,24c0,2,.67,3,2,3a1.77,1.77,0,0,0,2-2q2-2-1-2C200,22.33,199,22.67,199,24Zm28,338a2.65,2.65,0,0,0-3,3q0,3,3,2a1.77,1.77,0,0,0,2-2C229,363,228.33,362,227,362ZM319,29l2-4c-1.33-1.33-2.33-2-3-2a3.21,3.21,0,0,0-2,3A2.65,2.65,0,0,0,319,29Zm18,271a1.77,1.77,0,0,0-2,2,3.21,3.21,0,0,0,2,3c1.33-1.33,2-2.33,2-3A1.77,1.77,0,0,0,337,300Zm8,58a1.77,1.77,0,0,0,2-2,2.65,2.65,0,0,0-3-3,1.77,1.77,0,0,0-2,2A2.65,2.65,0,0,0,345,358ZM291,140q0,3,4,3,3,0,1-2c0-2-.67-3-2-3C292,138,291,138.67,291,140Zm13,1a4.48,4.48,0,0,0,.5,2q.5,1,1.5,0c2,0,3-.67,3-2q-1-2-4-2T304,141Zm38,2c0,2,.67,3,2,3a1.77,1.77,0,0,0,2-2c0-2-.67-3-2-3A1.77,1.77,0,0,0,342,143ZM196,16a2,2,0,0,0-4,0c0,2,.67,3,2,3S196,18,196,16Zm78,15a3.21,3.21,0,0,0-2-3c-1.33.67-2,2-2,4a1.77,1.77,0,0,0,2,2C273.33,34,274,33,274,31Zm5,146q0-1-3-3c-1.33,1.33-2,2.33-2,3a2.65,2.65,0,0,0,3,3A3.21,3.21,0,0,0,279,177ZM224,346c0,1.33,1,2,3,2a1.77,1.77,0,0,0,2-2c0-2-.67-3-2-3A2.65,2.65,0,0,0,224,346Zm-64-2c-.67,1.33-.33,2,1,2,2,0,3-.67,3-2a2,2,0,0,0-4,0ZM214,49c1.33,0,2-1,2-3-1.33-1.33-2.33-2-3-2-1.33,0-2,1-2,3C212.33,48.33,213.33,49,214,49ZM342,342c0,2,.67,3,2,3s2-1,2-3a3.21,3.21,0,0,0-2-3C342.67,339,342,340,342,342Zm2-313c0-2-.67-3-2-3a1.77,1.77,0,0,0-2,2c0,2,.67,3,2,3A1.77,1.77,0,0,0,344,29Zm-1,301q1,0,3-3c0-1.33-1-2-3-2s-3,.67-3,2A2.65,2.65,0,0,0,343,330Zm2-155q1,0,3-3a2.65,2.65,0,0,0-3-3c-1.33,0-2,1-2,3S343.67,175,345,175ZM225,19l3-3c0-2-.67-3-2-3s-2,1-2,3A4.07,4.07,0,0,0,225,19Zm97,298q3,1,3-2a2.65,2.65,0,0,0-3-3q-2-2-2,1Q320,317,322,317Zm23-157q2,1,3-2a2.65,2.65,0,0,0-3-3,1.77,1.77,0,0,0-2,2C343,159,343.67,160,345,160Zm-58,25c0-1.33-1-2-3-2a1.77,1.77,0,0,0-2,2q2,3,3,3C286.33,188,287,187,287,185Zm15-38a3,3,0,0,0,0,6q3-1,2-3C304,148,303.33,147,302,147ZM269,54q1,0,3-3a2.65,2.65,0,0,0-3-3c-1.33,0-2,1-2,3S267.67,54,269,54Zm76,244a1.77,1.77,0,0,0,2-2,2.65,2.65,0,0,0-3-3q-2-1-2,2A2.65,2.65,0,0,0,345,298Zm-8-6c2,0,3-.67,3-2a2.65,2.65,0,0,0-3-3c-1.33,0-2,1-2,3A1.77,1.77,0,0,0,337,292ZM166,19l3-3c-1.33-1.33-2.33-2-3-2a1.77,1.77,0,0,0-2,2C164,18,164.67,19,166,19Zm95,257a2.87,2.87,0,0,0,1-2,2.65,2.65,0,0,0-3-3,1.77,1.77,0,0,0-2,2A3.92,3.92,0,0,0,261,276Zm6,90c0-1.33-1-2-3-2a1.77,1.77,0,0,0-2,2c0,2,.67,3,2,3S266.33,368,267,366Zm62-253c0,2,.67,3,2,3s2-1,2-3-.67-3-2-3Q328,110,329,113Zm14-58a2,2,0,0,0,4,0c0-1.33-.33-2-1-2Q343,52,343,55Zm0,47a1.77,1.77,0,0,0,2,2q3,0,2-3a1.77,1.77,0,0,0-2-2C343.67,99,343,100,343,102Zm-7,3c1.33-1.33,2-2.33,2-3a4.48,4.48,0,0,0-.5-2q-.5-1-1.5,0-2,0-3,3C333,104.33,334,105,336,105ZM286,13a2.65,2.65,0,0,0-3,3,2.65,2.65,0,0,0,3,3c1.33,0,2-1,2-3A3.21,3.21,0,0,0,286,13Zm-7,53a1.77,1.77,0,0,0,2,2c1.33,0,2-1,2-3a1.77,1.77,0,0,0-2-2Q278,63,279,66Zm63-1c0,2,.67,3,2,3s2-1,2-3a1.77,1.77,0,0,0-2-2C341.33,63,340.67,63.67,342,65ZM250,37c0-1.33-1-2-3-2-1.33,0-2,1-2,3a1.77,1.77,0,0,0,2,2Q250,38,250,37ZM29,231q1,0,3-3c0-2-.67-3-2-3a2.65,2.65,0,0,0-3,3Q26,231,29,231Zm307,22a1.77,1.77,0,0,0,2-2c0-2-.67-3-2-3a2.65,2.65,0,0,0-3,3C333,252.33,334,253,336,253Zm3,129c0,2,.67,3,2,3,2,0,3-.67,3-2,0-2-.67-3-2-3C340,378.67,339,379.33,339,382ZM57,377c0-2-.67-3-2-3a2.65,2.65,0,0,0-3,3,1.77,1.77,0,0,0,2,2C56,379,57,378.33,57,377ZM336,78c0-1.33-1-2-3-2-1.33,0-2,1-2,3a2.65,2.65,0,0,0,3,3Q336,82,336,78ZM264,42a2.65,2.65,0,0,0,3-3c0-2-.67-3-2-3a2.65,2.65,0,0,0-3,3C262,39.67,262.67,40.67,264,42Zm12,336c1.33,0,2-1,2-3s-1.33-3-4-3c-.67,0-1,1-1,3A2.65,2.65,0,0,0,276,378Zm0-160c1.33,0,2-1,2-3a3.21,3.21,0,0,0-2-3c-2,0-3,.67-3,2Q273,218,276,218ZM333,91a1.77,1.77,0,0,0,2,2c1.33,0,2-1,2-3a4.48,4.48,0,0,0-.5-2q-.5-1-1.5,0C333.67,88,333,89,333,91ZM153,17a1.77,1.77,0,0,0-2-2,2.65,2.65,0,0,0-3,3c0,1.33,1,2,3,2C152.33,20,153,19,153,17ZM324,287c0,1.33,1,2,3,2,.67,0,1.67-.67,3-2q0-1-3-3A2.65,2.65,0,0,0,324,287ZM31,203a1.77,1.77,0,0,0,2,2,2.65,2.65,0,0,0,3-3c0-1.33-1-2-3-2C31.67,200,31,201,31,203ZM125,58a2,2,0,0,0-4,0c0,2,.67,3,2,3S125,60,125,58Zm56-37c.67,0,1-.67,1-2l1-2c0-2-.67-3-2-3q-2-1-2,2Q179,21,181,21Zm36,7c1.33,0,2-1,2-3s-.67-3-2-3-2,1-2,3S215.67,28,217,28Zm76,339a1.77,1.77,0,0,0,2,2c1.33,0,2-1,2-3s-.67-2.67-2-2Q292,364,293,367ZM40,18a2.65,2.65,0,0,0,3-3,1.77,1.77,0,0,0-2-2c-2,0-3,.67-3,2C38,17,38.67,18,40,18ZM345,132c1.33,0,2-1,2-3s-.67-3-2-3a3,3,0,0,0,0,6ZM252,369q3,0,3-4,0-3-3-2a1.77,1.77,0,0,0-2,2A5.78,5.78,0,0,0,252,369Zm46-238c0,1.33,1,2,3,2a1.77,1.77,0,0,0,2-2l-3-3C297.33,128,296.67,129,298,131ZM278,384c0,.67.67,1.67,2,3q3-1,3-3,0-4-2-4Q278,380,278,384Zm28-218q2,0,2-4a1.77,1.77,0,0,0-2-2c-2,1.33-3,2.67-3,4S304,166,306,166ZM331,30c1.33,0,2-1,2-3a4.48,4.48,0,0,0-.5-2q-.5-1-1.5,0a2.65,2.65,0,0,0-3,3C328,29.33,329,30,331,30ZM16,167a1.77,1.77,0,0,0,2,2q3-1,3-3c0-1.33-1-2-3-2C16.67,164,16,165,16,167ZM65,19c2,0,3-.67,3-2,0-2-.67-3-2-3a1.77,1.77,0,0,0-2,2C64,18,64.33,19,65,19ZM283,168c1.33,0,2-1,2-3a2.65,2.65,0,0,0-3-3,1.77,1.77,0,0,0-2,2C280,165.33,281,166.67,283,168ZM268,352c1.33,0,2-1,2-3,0-1.33-1-2-3-2-1.33,0-2,1-2,3C265,351.33,266,352,268,352ZM289,43a2.65,2.65,0,0,0,3-3c0-2-.67-3-2-3a2.65,2.65,0,0,0-3,3C287,42,287.67,43,289,43ZM203,54a2.65,2.65,0,0,0,3-3c0-1.33-1-2-3-2s-2.67,1-2,3A1.77,1.77,0,0,0,203,54ZM314,173c1.33-1.33,2-2.33,2-3q0-3-4-3c-1.33,0-2,1-2,3S311.33,173,314,173ZM274,358a1.25,1.25,0,0,0,0-2,2.87,2.87,0,0,0-2-1q-2,0-3,3c0,2,.67,3,2,3A2.65,2.65,0,0,0,274,358Zm62-81c0-1.33-1-2-3-2s-2.67,1-2,3c0,1.33,1,2,3,2C335.33,280,336,279,336,277ZM304,173q0-1-3-3c-1.33,0-2,1-2,3s.67,3,2,3A2.65,2.65,0,0,0,304,173ZM341,42c0,1.33,1,2.67,3,4,2,0,3-.67,3-2a2.65,2.65,0,0,0-3-3C343.33,40.33,342.33,40.67,341,42ZM222,119a3,3,0,0,0,0-6,1.77,1.77,0,0,0-2,2Q220,119,222,119ZM107,26a3.21,3.21,0,0,0-3-2c-2,0-3,.67-3,2a3,3,0,0,0,6,0ZM277,202c1.33,0,2-1,2-3a1.77,1.77,0,0,0-2-2c-.67-.67-1.67-.33-3,1Q274,202,277,202ZM157,26c0,2,.67,3.33,2,4q1,0,3-3a2.65,2.65,0,0,0-3-3A1.77,1.77,0,0,0,157,26Zm77-4a2.65,2.65,0,0,0-3,3c0,2,.67,3,2,3q1,0,3-4C236,22,235.33,21.33,234,22Zm71,40a2.65,2.65,0,0,0,3-3,1.77,1.77,0,0,0-2-2c-2,0-3,.67-3,2C303,61,303.67,62,305,62ZM242,19a2.65,2.65,0,0,0,3-3,3,3,0,0,0-6,0Q239,20,242,19Zm99,291q0,4,3,4c2,0,3-.67,3-2q0-4-3-4C342,306.67,341,307.33,341,310ZM18,185a3,3,0,0,0,0-6c-1.33,0-2,1.33-2,4A1.77,1.77,0,0,0,18,185Zm281,12q-3-1-3,2a2.65,2.65,0,0,0,3,3c2,0,3-.67,3-2A2.65,2.65,0,0,0,299,197Zm46,2a3,3,0,0,0,0,6q1,0,3-3A2.65,2.65,0,0,0,345,199ZM258,374c0,1.33,1,2.67,3,4a3,3,0,0,0,0-6C259,370.67,258,371.33,258,374Zm40-161c1.33,0,2.67-1,4-3q-2-3-3-3a3.92,3.92,0,0,0-3,4,4.48,4.48,0,0,0,.5,2Q297,214,298,213ZM140,16a2.65,2.65,0,0,0-3-3,15.83,15.83,0,0,0-3,4,2.65,2.65,0,0,0,3,3Q140,20,140,16ZM333,70q0,4,3,4a2.65,2.65,0,0,0,3-3q0-3-2-4Q333,67,333,70ZM298,387c1.33,0,2-1,2-3a3,3,0,0,0-6,0Q294,387,298,387Zm-6-12a3.37,3.37,0,0,0-1.5-3,5.35,5.35,0,0,0-3-1,3.38,3.38,0,0,1-2.5-1q-2-2-2,1a7.09,7.09,0,0,0,6,6Q292,378,292,375Zm1-309q2,0,2-4-3-6-4-6c-.67,0-1,1-1,3a4.86,4.86,0,0,1,1,3.5A3.59,3.59,0,0,0,293,66ZM259,18a2.65,2.65,0,0,0-3-3q-3,0-3,4c0,2.67.67,4,2,4Q259,23,259,18ZM238,368a15.56,15.56,0,0,0,4.5-4c1.67-2,2.83-3.33,3.5-4l-2-3q-8,8-8,9Zm94-18q0,2,4,2a2.87,2.87,0,0,0,1-2,27.21,27.21,0,0,0-1-6,5.78,5.78,0,0,1-2-4c0-.67-1-1-3-1-1.33.67-1.5,1.83-.5,3.5A8.7,8.7,0,0,1,332,346ZM171,243a.88.88,0,0,0-1-1c-1.33,0-2,1-2,3q-3,9,6,13,3,1,8,5t7,6l2,1v-3a29.44,29.44,0,0,1-3-4q-1-2-8-8.5T171,243Zm48,63a17.52,17.52,0,0,0,1.5-5,31.86,31.86,0,0,0,.5-5q0-2-2-6-1-3-5.5-12.5T210,262q0-4-5-4-4-1-7,4-1,2,.5,9t3.5,9q10,9,13,18A22.59,22.59,0,0,1,219,306ZM161,45q-20,7-28,3-3,0-2,3a11.92,11.92,0,0,0,8,6q14,4,31,1,12-3,23,8l3,3q4,2,6,0t0-6q-5-9-18-14.5T161,45ZM151,296a21.31,21.31,0,0,0,5.5-1,22.17,22.17,0,0,1,4.5-1,25.93,25.93,0,0,0,8,1l1,1c1.33.67,2,1.33,2,2,0,1.33-1,2.67-3,4q-8,6-6,17,4,14,16,14,6,0,3-4-6-10,5-17,5-5,16,1c1.33,1.33,2.33,1.67,3,1a1.25,1.25,0,0,0,0-2h-1v-1q-7-11-17-8-14,6-13,18v6q-4,0-4-6v-5q4-15,16-17,5-2,1-5-7-7-18.5-7.5T150,292l-4,4Zm42-181c-2,.67-3,3.33-3,8q2,13,12,24,26,21,29,36c.67,0,1,.17,1,.5s.33.5,1,.5v-2q0-5-2-19,0-14,7-20,3-3,3-4c-.67-1.33-2.33-2.67-5-4q-7,0-12,9,0,5-3,5c-2-.67-3-2.33-3-5q-4-8-14-17a27.51,27.51,0,0,1-7-8c-.67,0-1.17-.83-1.5-2.5S194.33,114.33,193,115ZM141,260q-38-18-52-18H85q-6,0-1,3,7,7,12,8t14.5,3a92.72,92.72,0,0,1,14.5,4q2,1,11,3t12,3q3,1,10.5,3a48.93,48.93,0,0,1,11,4,77.17,77.17,0,0,0,10,4.5A44,44,0,0,1,190,283q4,3,9,7a110.21,110.21,0,0,1,9,8c0,.67.67,1,2,1v-2l-2-4q-5-8-26-26c0-.67-1-1-3-1q-3,1-12-5l-4.5-4.5L157,251l-5-5c-2.67-2.67-4.33-3.67-5-3q-2,1-2,6a7.59,7.59,0,0,0,1,3,7.59,7.59,0,0,1,1,3,11.35,11.35,0,0,0,4,4c2.67,2.67,3.33,4.33,2,5Q152,265,141,260ZM22,321a9.5,9.5,0,0,0,8,4q11-2,15-8a27.64,27.64,0,0,0,6-15q0-8,7-4,4,2,6,0t-1-5q-7-14,2-28,4-4,2-6-3-5-6,1a31.88,31.88,0,0,0-13,19,16.17,16.17,0,0,1-1,4l-1,2q-2-1,0-7,1-10,10-22l2-5q-2-1-5,2a56.47,56.47,0,0,0-16,32q-4,22-11,30l-2,2C22,318.33,21.33,319.67,22,321ZM261,127a32.85,32.85,0,0,0,10,21q9,9,20,10h3c1.33,0,2-.33,2-1,0-1.33-.33-2-1-2q-6-5-11-18t-8-17a1.59,1.59,0,0,1-1.5-1,1.63,1.63,0,0,1,.5-2c1.33-.67,2.67-.33,4,1a9.76,9.76,0,0,1,5,2,9.76,9.76,0,0,0,5,2c2,0,3-.33,3-1v-2q-2-2-13-27a60.9,60.9,0,0,0-18-26c-2-1.33-3.33-1.67-4-1s0,1.67,2,3q8,7,13,20a19.16,19.16,0,0,1,1.5,4,3,3,0,0,1-.5,3c-1.33-.67-2.67-2.67-4-6q-6-18-22-27l-3-1c-.67.67-.33,1.67,1,3q13,9,18,29,1,4,2.5,12t3,14.5Q270,126,272,132q3,3,1,4-1,0-3-4-6-20-9-31-6-25-18-35l-12-6c-2,0-3,.33-3,1l2,2,4,2q16,7,16,26v2q-2,1-2-2-2-9-5-13-7-14-21-11-4,2-4,3c0,.67,1.33,1,4,1q10,0,15,11,4,14-6,21-4,3-1,7,11,11,19-3c1.33-3.33,2.67-4.67,4-4,2,.67,3,2.33,3,5q1,3,2.5,9.5T261,127Zm-91,41q-9,5-9,14l1,2v2q2,6,5,7,1,0,4-5,4-8,14-8,17,0,23,14,3,6,8,4,4-2,0-8-5-12-16-17t-23,1q-3,3-3,0c-1.33-2-.67-3,2-3q5-4,14-4,23,1,31,26l1,2c.67,2,1.33,2.67,2,2v-5q-6-21-25-30a190.27,190.27,0,0,0-21-7q-14-4-19-6-6-2-14-10-3,0-1-2h2q1,1,4.5,4a30.75,30.75,0,0,0,5.5,4,56.87,56.87,0,0,0,9,3.5q5,1.5,11.5,3T186,154q21,4,34,19,3,3,4,3l-1-2-1-2a104.05,104.05,0,0,0-33-28q-7-3-6-5l7,2h2q2-2-1-2a32.91,32.91,0,0,0-16-10q-3,0-8-3l-4-5q-3,3,1,8l2,4c1.33,1.33,1.67,2.67,1,4s-2.33,2-5,2q-19-2-17-21,3-3,1-4c-1.33,0-2.67,1-4,3a43.56,43.56,0,0,0-7,17q-2,26,22,29a47.28,47.28,0,0,1,11,1c2.67,0,4,.33,4,1S171.33,166.67,170,168Zm148-14q2,18-1,42a56.63,56.63,0,0,0,3,18q5,12,16,13c1.33.67,2.67.33,4-1l-3-3q-5-2-8-9a120.78,120.78,0,0,1-2-18q0-4,.5-18t0-20.5a114.47,114.47,0,0,0-3-17A49.6,49.6,0,0,0,316,122v-2q2-2,2,1a2.87,2.87,0,0,0,1,2l2,2q12,20,10,55a102.58,102.58,0,0,0,2,28v2c0,.67.33.67,1,0,.67,0,1-.67,1-2q1-4,1-14V180q3-33-9-56-5-11-3-19,1-2,0-3a1.25,1.25,0,0,0-2,0c-4.67.67-7.67.83-9,.5s-3.67-1.83-7-4.5a50,50,0,0,0-7-5q-5-2-1-4,2-1,8-5t10-5q2,0,6,2c2.67,2,4.33,2.33,5,1s1-3.5,1-6.5.33-5.17,1-6.5q4-9-1-20-3-6-8.5-7.5T310,45q-4,5,0,9t7-2a1.77,1.77,0,0,1,2-2c1.33,0,2,1,2,3a6.79,6.79,0,0,1-2,5q-7,11-29,15-10,2-11,4t3,11q7,19,17,29Q315,131,318,154ZM40,137q-2,20-2,28,0,27,5,46l1,2a1.77,1.77,0,0,0,2,2v-4q-5-19-2-34,1-7,3-20.5T49,137q2-19-8-28-3-3-2-5c.67-1.33,2.33-.67,5,2q12,17,9,31-4,24-5,35-5,39,14.5,67.5T120,277q5,2,17,4l2,1c1.33.67,2,1.33,2,2q0,3-4,3-5,1-7,7,0,5,5,10,2,3,5,0c.67-.67.33-1.67-1-3-.67-.67-.33-2,1-4q7-13,20-14,20-4,39,14c.67.67,1.83,2,3.5,4a15.56,15.56,0,0,0,4.5,4q-2-5-8-11a2.87,2.87,0,0,0-2-1q-14-13-42-22-17-5-41-10-5-2-6,0,0,1,5,4a75.83,75.83,0,0,0,13.5,6q8.5,3,11.5,4,4,0,3,3,0,4-4,0-20-4-52-26-12-10-15-14-14-17-14-42t15-33q5-3,1-9-3-4-8-2a4.82,4.82,0,0,0-2.5,1,4.82,4.82,0,0,1-2.5,1q-4,4-4-2a7.59,7.59,0,0,1,1-3v-2q6-16,5-29a25.23,25.23,0,0,0-6-17,24.17,24.17,0,0,0-13-6.5Q34,93,29,97q-7,3-2,7Q40,113,40,137ZM316,297q-3,1-10,1h-2q-6,0-7-2t5-5a24.81,24.81,0,0,0,13-13q4-14,9-19,2-2,0-3c-1.33-1.33-2.33-1.67-3-1q-7,2-7,1.5V249a13.82,13.82,0,0,0-.5-3,13.82,13.82,0,0,1-.5-3,71.34,71.34,0,0,0-2-8.5q-2-7.5-1-11.5,3-6,1-7a1.63,1.63,0,0,0-2-.5,21.85,21.85,0,0,0-3,2,6,6,0,0,1-3,1.5,14.85,14.85,0,0,0-4,7q-3,6,1,23v8q-3,0-6-3c-3.33-1.33-5.67-1.67-7-1q-3,1-1,6,5,25-20,30-6,2-16,8c-1.33,1.33-1.67,2.33-1,3a.88.88,0,0,0,1,1,2.87,2.87,0,0,0,2-1,39.1,39.1,0,0,1,8.5-1.5A39.1,39.1,0,0,0,269,297q22-5,30-22a16.17,16.17,0,0,0,2-7l1-2a.88.88,0,0,1,1-1,1.59,1.59,0,0,1,1.5,1,1.63,1.63,0,0,1-.5,2,11.08,11.08,0,0,1-1,5q-11,23-33,27a8.31,8.31,0,0,0-2.5.5A6.22,6.22,0,0,0,265,302c1.33,3.33.67,5-2,5h-3c-2,0-3,.67-3,2h3a57.72,57.72,0,0,1,29,8,2.65,2.65,0,0,1,3,3c-.67-.67-2-1-4-1q-12-7-24-7c-1.33,0-2,.33-2,1s.67,1,2,1q2,1,6,2.5t6,2.5c3.33,1.33,4.67,2.67,4,4s-2.67,1-6-1q-12-7-23-3c-2,0-3,.33-3,1a7.59,7.59,0,0,0,3,1,1.77,1.77,0,0,1,2,2,1.59,1.59,0,0,1-1,1.5,1.63,1.63,0,0,1-2-.5,30.22,30.22,0,0,0-9,1c-2,0-3,.67-3,2l2,1q11,0,14,12,2,5,6,1,3-5,3-9c-.67-2.67-.5-4.33.5-5s2.83-.33,5.5,1q10,4,10,19-3,3,1,5,2,0,5-3,1-1,1-6t1-5q1,0,6,2,7,4,9,14c0,2.67.33,4,1,4q3,0,3-4a4.07,4.07,0,0,0,1-3q0-5,3-5,2,0,2,5,5,16,17,21c2.67,1.33,4.33,1.33,5,0,1.33-.67,1.33-1.33,0-2l-1-2a23.15,23.15,0,0,1-4-6q-4-15-10-20c-1.33-2.67-1.67-4.33-1-5,0-.67,1.33-1,4-1q4,2,7-1,4-2,4-5a2.65,2.65,0,0,0-3-3,55.43,55.43,0,0,1-13-5l-10-5q-4,0-4-4,0-2,5-2,9-2,12-10,2-5-1-5A7.59,7.59,0,0,0,316,297Zm-90-57q2,20,3,32a181.43,181.43,0,0,0-1,20q-3,34-26,54-22,19-43.5,12.5T129,326q-6-24-7-36,0-6-6-8-9-2-25-10-8-4-9,5-4,38-10,56-6,17-19,22c-3.33,1.33-5.67,1-7-1q-1-3,3-5,5-3,4-7,0-3-5-3-4-1-7,4-6,10,6,16,13,5,27-5,6-4,9-2c2,.67,3.17.67,3.5,0s.17-2-.5-4q-4-8,2-17l9-12q3-5,5,1c.67,1.33,1.67,3.17,3,5.5s2.33,4.17,3,5.5q6,11,2,18a2.95,2.95,0,0,0,4,4q5-1,14,6,24,22,60,8,22-9,41-41,11-19,13-49,1-14-1-38-2-9-13-7Q224,233,226,240ZM123,197V104q0-8,9-8,52-4,90-1,8,0,9-2,2-8-3-12-4-4-18-4-66,0-93-9h-3c-.67,1.33-.33,2.67,1,4q7,7-1,16-8,10-9,16a3,3,0,0,1-6,0A92.68,92.68,0,0,0,89,84a30.22,30.22,0,0,1-1-9q1-6-5-8-2-1-13-9Q58,47,46,50q-8,0-11,9-1,5,5,13,3,2,8,0c.67,0,1-1.67,1-5q-3-6-2-7,4-3,9,2c2.67,1.33,4.33,2.67,5,4q13,16,17,44,6,47,6,118,0,8,8,10c.67,0,3.33.33,8,1s8.33,1.33,11,2q10,3,11.5,1.5T124,230c0-4.67.33-7.33,1-8s3.33-1,8-1q45,0,67,2,38,2,56,9,9,4,14,16c0,2.67-.67,4.33-2,5q-1,1-4-2-2-3-5-2c-1.33.67-2,2.33-2,5,0,3.33,1.67,5.67,5,7a12.11,12.11,0,0,0,11.5-2,12.85,12.85,0,0,0,5.5-11q0-8-5-13a10.81,10.81,0,0,1-3-10,3.29,3.29,0,0,0,0-3.5c-.67-1-1.67-1.17-3-.5q-5,2-16-4-9-4-1-10t14-7q3,0,1-6t0-8a2.87,2.87,0,0,1,1-2q5-16-12-19a8.41,8.41,0,0,0-7,1c-2,1.33-3,3.67-3,7,0,2.67,1,4.33,3,5,2,1.33,3.67.67,5-2,1.33-2,2.67-2.67,4-2a5.87,5.87,0,0,1,3,5,18.41,18.41,0,0,1-10,15,69.56,69.56,0,0,1-20,8q-28,5-100,3Q123,205,123,197ZM351,16V384q0,5-5,5H16q-5,0-5-5V16q0-5,5-5H346Q351,11,351,16Z"/></g></g></svg>