<svg xmlns="http://www.w3.org/2000/svg" viewBox="0 0 373 400"><title>Asset 3</title><g id="3e4d633f-a9e4-4663-854e-34a3989c8e94" data-name="Layer 2"><g id="626ff20b-deb7-4ce4-8156-b77258156988" data-name="Layer 1"><path d="M6,6V394H368V6ZM373,0V400H0V0ZM35,164a.88.88,0,0,1,1-1Zm81-80h1V83h-1ZM309,317l1-1v-1l-1,1Zm15-186h1v-1h-2A.88.88,0,0,0,324,131Zm-178-9h1l1-1-2-2c-.67,0-1,.67-1,2Zm-28,37-1,1h-1c1.33,1.33,2,1.67,2,1a.88.88,0,0,0,1-1Zm134,6a.88.88,0,0,1,1-1l-1-1a2.87,2.87,0,0,0-2,1h1Zm102,52q2,2,2-1c.67-.67.33-1-1-1h-2C353,216.33,353.33,217,354,217ZM56,143c0,.67.17,1,.5,1s.5.33.5,1a2.87,2.87,0,0,0,1-2l-1-1Zm92-2c0,1.33.33,2,1,2s1-.17,1-.5.33-.5,1-.5l-1-1ZM89,201a2.87,2.87,0,0,0,2-1,1.77,1.77,0,0,0-2-2c-1.33,0-2,.33-2,1A1.77,1.77,0,0,0,89,201ZM258,72q2-2-1-2c-1.33,0-2,.33-2,1a1.77,1.77,0,0,0,2,2Zm88,158a1.77,1.77,0,0,0,2-2c0-1.33-.33-2-1-2a1.77,1.77,0,0,0-2,2C345,229.33,345.33,230,346,230ZM234,328c.67,0,1-.67,1-2,0-.67-.67-1-2-1a2.87,2.87,0,0,0-1,2C232,327.67,232.67,328,234,328ZM133,135l2,2a2.87,2.87,0,0,0,1-2,1.77,1.77,0,0,0-2-2Q131,133,133,135ZM265,384a2,2,0,0,0,0-4c-.67,0-1,.67-1,2S264.33,384,265,384ZM220,113c1.33,0,2-.33,2-1a1.77,1.77,0,0,0-2-2,2.87,2.87,0,0,0-1,2ZM34,48l2-2-2-2a1.77,1.77,0,0,0-2,2A1.77,1.77,0,0,0,34,48ZM18,162c0-1.33-.33-2-1-2a1.77,1.77,0,0,0-2,2c0,.67.67,1,2,1A.88.88,0,0,0,18,162ZM40,89c0,.67.67,1,2,1,.67,0,1-.67,1-2,0-.67-.67-1-2-1C40.33,87,40,87.67,40,89ZM240,384l2-2c-1.33-1.33-2-1.67-2-1-1.33,0-2,.33-2,1A1.77,1.77,0,0,0,240,384ZM107,176c0,.67.67,1,2,1a1.77,1.77,0,0,0,2-2c0-.67-.67-1-2-1A1.77,1.77,0,0,0,107,176Zm179-7a1.77,1.77,0,0,0,2-2l-2-2-2,2ZM131,82a2.87,2.87,0,0,1-1-2l-2,2a1.77,1.77,0,0,0,2,2C130.67,84,131,83.33,131,82Zm52,1a.88.88,0,0,0,1-1c0-1.33-.33-2-1-2-1.33,0-2,.33-2,1A1.77,1.77,0,0,0,183,83ZM73,64c-.67.67-.33,1,1,1a.88.88,0,0,0,1-1q2-2-1-2C73.33,62,73,62.67,73,64ZM45,134c.67,0,1.67-.67,3-2l-1-2c-2,0-3,.67-3,2A2.87,2.87,0,0,0,45,134Zm88,187c.67,0,1-.67,1-2,0-.67-.67-1-2-1-.67,0-1,.67-1,2C131,320.67,131.67,321,133,321Zm12-104c.67,0,1-.67,1-2a.88.88,0,0,0-1-1l-2,1A1.77,1.77,0,0,0,145,217Zm36,100c-.67,0-1,.17-1,.5s-.33.5-1,.5l2,2c.67,0,1-.67,1-2S181.67,316.33,181,317Zm97-141c0,.67.67,1,2,1a1.77,1.77,0,0,0,2-2c0-.67-.67-1-2-1A1.77,1.77,0,0,0,278,176ZM249,293a2.87,2.87,0,0,0-1-2q-3,0-1,2a.88.88,0,0,0,1,1C249.33,294,249.67,293.67,249,293Zm42-38a2.87,2.87,0,0,0,2,1c.67,0,1-.67,1-2l-1-1A1.77,1.77,0,0,0,291,255Zm63-97a.88.88,0,0,0,1,1c1.33,0,2-.33,2-1q2-2-1-2c-.67-.67-1.17-.83-1.5-.5A4,4,0,0,0,354,158Zm-70,0c0-.67-.67-1-2-1s-2,.33-2,1a2,2,0,0,0,4,0Zm57-64c0-2-.33-3-1-3l-2,1c0,2,.33,3,1,3Zm-8,114,2-2-2-2-2,2A1.77,1.77,0,0,0,333,208Zm24-76a.88.88,0,0,0,1-1c0-.67-.17-1-.5-1s-.5-.33-.5-1l-2,2C355,131.67,355.67,132,357,132ZM52,97l-2-2a2,2,0,1,0,2,2Zm101,92a1.77,1.77,0,0,0,2,2c1.33,0,2-.33,2-1a1.77,1.77,0,0,0-2-2C153.67,188,153,188.33,153,189Zm-26-29a2.87,2.87,0,0,0,2-1,1.77,1.77,0,0,0-2-2c-1.33,0-2,.33-2,1A1.77,1.77,0,0,0,127,160Zm152,32c-.67.67-.33,1,1,1s2-.33,2-1a1.77,1.77,0,0,0-2-2A2.87,2.87,0,0,0,279,192ZM93,34l2-2a2.87,2.87,0,0,0-1-2c-1.33,0-2,.33-2,1C91.33,31.67,91.67,32.67,93,34ZM18,198a2,2,0,0,0,0,4,2,2,0,0,0,0-4Zm297-62,1-1a1.77,1.77,0,0,0-2-2,.88.88,0,0,0-1,1c-.67,1.33-.67,2.17,0,2.5A1.63,1.63,0,0,0,315,136ZM156,207c0-1.33-.33-2-1-2s-1.67.67-3,2c0,1.33.33,2,1,2S154.67,208.33,156,207ZM86,191a3.21,3.21,0,0,0,3-2,1.77,1.77,0,0,0-2-2c-.67-.67-1.67-.33-3,1C84,188.67,84.67,189.67,86,191ZM340,375q-2,2,1,2c2,0,3-.67,3-2a2,2,0,0,0-4,0Zm-34,5a1.77,1.77,0,0,0,2-2c0-1.33-1-1.67-3-1a2.87,2.87,0,0,0-1,2ZM131,29c.67,0,1.67-.67,3-2,0-2-.67-3-2-3a1.77,1.77,0,0,0-2,2A4.07,4.07,0,0,0,131,29ZM347,208a4.07,4.07,0,0,0,1-3,1.77,1.77,0,0,0-2-2l-1,2Q344,208,347,208ZM114,339l-2-2a2,2,0,1,0,2,2ZM227,140q2,2,2-1c0-2-.67-3-2-3a2,2,0,0,0,0,4Zm81,78a.88.88,0,0,0,1-1c0-2-.33-3-1-3l-2,2A1.77,1.77,0,0,0,308,218ZM146,128c-.67,0-1,.67-1,2a1.77,1.77,0,0,0,2,2,2.87,2.87,0,0,0,1-2C149.33,128.67,148.67,128,146,128Zm62,43a1.77,1.77,0,0,0,2,2c1.33,0,2-.33,2-1a1.77,1.77,0,0,0-2-2C208.67,170,208,170.33,208,171Zm96-91a2,2,0,1,0,2,2A1.77,1.77,0,0,0,304,80ZM92,170c1.33-1.33,2-2.33,2-3s-.67-1-2-1a2,2,0,0,0,0,4ZM355,346c1.33,0,2-.33,2-1,0-1.33-.33-2-1-2-1.33,0-2,.33-2,1C354,345.33,354.33,346,355,346ZM298,81q2,2,2-1a1.77,1.77,0,0,0-2-2q-2-2-2,1A1.77,1.77,0,0,0,298,81Zm-6,305c0,.67.67,1,2,1q3,0,1-2l-1-2C292.67,383,292,384,292,386ZM216,127a2,2,0,1,0,2-2ZM46,144a2,2,0,0,0,0-4,2.87,2.87,0,0,0-2,1C44,141.67,44.67,142.67,46,144ZM86,246a2,2,0,0,0,4,0c0-.67-.67-1-2-1S86,245.33,86,246Zm37-2a3.21,3.21,0,0,0,3-2,1.77,1.77,0,0,0-2-2l-3,3Q121,246,123,244Zm11-5-2-2-2,2a2,2,0,0,0,4,0Zm12.5,58a4.48,4.48,0,0,0,.5-2c0-.67-.67-1-2-1s-2,.33-2,1a1.77,1.77,0,0,0,2,2Q146,298,146.5,297ZM343,241c.67,0,1-.67,1-2a1.77,1.77,0,0,0-2-2q-2-2-2,1A2.65,2.65,0,0,0,343,241ZM37,111c-1.33,0-2,.33-2,1s.67,1.67,2,3l2-2A1.77,1.77,0,0,0,37,111ZM273,315a1.77,1.77,0,0,0,2-2q0-3-3-1l-1,1a4.48,4.48,0,0,0,.5,2Q272,316,273,315ZM65,230a2,2,0,0,0,0-4l-2,2A1.77,1.77,0,0,0,65,230ZM43,314c.67-.67.33-1.67-1-3l-2,2a1.77,1.77,0,0,0,2,2C42.67,315.67,43,315.33,43,314Zm75-78c.67,0,1-.67,1-2a1.77,1.77,0,0,0-2-2,2.87,2.87,0,0,0-1,2A1.77,1.77,0,0,0,118,236Zm106,65c1.33,0,2-1,2-3h-1a2.87,2.87,0,0,0-2-1l-2,2C221,300.33,222,301,224,301ZM31,230c-2,0-3,.67-3,2a1.77,1.77,0,0,0,2,2c2.67,0,3.33-.67,2-2C32,230.67,31.67,230,31,230ZM107,70a2.87,2.87,0,0,0,2,1,2,2,0,0,0,0-4C107.67,67,107,68,107,70ZM65,305c-1.33,1.33-.67,2,2,2l2-2a2,2,0,0,0-4,0Zm-21,0a1.77,1.77,0,0,0,2,2,1.77,1.77,0,0,0,2-2c-1.33-1.33-2.33-1.67-3-1Zm55,80a3.21,3.21,0,0,0,2-3,1.77,1.77,0,0,0-2-2c-1.33,0-2,1-2,3A1.77,1.77,0,0,0,99,385ZM290,34c0-2-.67-3-2-3a1.77,1.77,0,0,0-2,2,1.77,1.77,0,0,0,2,2Q290,37,290,34ZM218,205q0,3,2,1c1.33,0,2-.33,2-1a2,2,0,0,0-4,0ZM28,82c2,0,3-.67,3-2s-1-2-3-2c-.67,0-1,1-1,3A.88.88,0,0,0,28,82ZM326,249a2,2,0,1,0-2-2A1.77,1.77,0,0,0,326,249ZM233,372c0,1.33.33,2,1,2s1.67-.67,3-2a2,2,0,0,0-4,0ZM336,250q2,2,2-1c0-1.33-.33-2-1-2-2-.67-3-.33-3,1A1.77,1.77,0,0,0,336,250ZM227,316a3.21,3.21,0,0,0,3-2c0-1.33-.33-2-1-2-2,0-3,.67-3,2S226.33,316,227,316Zm130-2c0-.67-.67-1-2-1a1.77,1.77,0,0,0-2,2q0,3,2,1A1.77,1.77,0,0,0,357,314ZM83,162a2,2,0,0,0,4,0q0-3-2-2A1.77,1.77,0,0,0,83,162ZM17,151c0,.67,1,1,3,1,1.33,0,1.67-.67,1-2a1.77,1.77,0,0,0-2-2C17.67,148,17,149,17,151ZM280,386c1.33-1.33,2-2.33,2-3l-2-2c-1.33,0-2,1-2,3A1.77,1.77,0,0,0,280,386ZM17,189a1.77,1.77,0,0,0,2-2c0-2-.67-3-2-3a1.77,1.77,0,0,0-2,2Q14,189,17,189ZM354,29a2,2,0,0,0,4,0,2,2,0,0,0-4,0ZM106,238a2,2,0,0,0,4,0l-1-2C108.33,236,107.33,236.67,106,238Zm116,49a2,2,0,1,0,2,2,4.48,4.48,0,0,0-.5-2Q223,286,222,287ZM178,74a3.21,3.21,0,0,0-2-3c-1.33,0-2,1-2,3a1.77,1.77,0,0,0,2,2ZM80,234c.67,0,1-.67,1-2s-.33-2-1-2a1.77,1.77,0,0,0-2,2C76.67,233.33,77.33,234,80,234ZM16,268c.67,0,1.67-.67,3-2-1.33-1.33-2.33-2-3-2a2,2,0,0,0,0,4ZM308,66q2,2,2-1c0-2-.67-3-2-3a2,2,0,0,0,0,4ZM80,322a1.77,1.77,0,0,0,2-2q1-2-2-2a.88.88,0,0,0-1,1C78.33,319.67,78.67,320.67,80,322ZM17,110a1.77,1.77,0,0,0-2,2c1.33,1.33,2.33,1.67,3,1l2-1C20,109.33,19,108.67,17,110ZM154,222a1.77,1.77,0,0,0,2-2c0-1.33-1-2-3-2s-2.33.67-1,2A1.77,1.77,0,0,0,154,222Zm202-52a1.77,1.77,0,0,0-2,2c0,1.33.33,2,1,2a4.07,4.07,0,0,0,3-1C358,172.33,357.33,171.33,356,170ZM75,33l2,2a3.21,3.21,0,0,0,2-3q0-3-2-1A1.77,1.77,0,0,0,75,33ZM246,378c.67,0,1-.67,1-2a1.77,1.77,0,0,0-2-2c-.67,0-1,.67-1,2A1.77,1.77,0,0,0,246,378ZM103,165c-.67,2-.33,3,1,3a1.77,1.77,0,0,0,2-2q0-3-2-2ZM352,275l2-1c0-2-.67-3-2-3a2.65,2.65,0,0,0-3,3C350.33,275.33,351.33,275.67,352,275ZM35,327a1.77,1.77,0,0,0,2,2,2,2,0,0,0,0-4Zm314-7c-2,0-3,.67-3,2s1,2,3,2a2,2,0,0,0,0-4ZM332,219a2,2,0,1,0-2-2A1.77,1.77,0,0,0,332,219Zm23-15c2,0,3-.67,3-2s-1-2-3-2c-1.33,0-2,.33-2,1S353.67,202.67,355,204ZM171,375c0,1.33.33,2,1,2,2,0,3-.67,3-2,0-2-.67-3-2-3S171,373,171,375ZM87,324a1.77,1.77,0,0,0,2,2,3.21,3.21,0,0,0,2-3,1.77,1.77,0,0,0-2-2C87.67,321,87,322,87,324Zm94,3a.88.88,0,0,0-1-1q-4,0-4,3t2,1A2.65,2.65,0,0,0,181,327ZM38,216a1.77,1.77,0,0,0,2,2,2,2,0,0,0,0-4A1.77,1.77,0,0,0,38,216ZM50,362c1.33,1.33,2.33,2,3,2,1.33,0,2-1,2-3,0-1.33-1-2-3-2C50.67,360.33,50,361.33,50,362Zm199-81a2,2,0,0,0,4,0,3.21,3.21,0,0,0-2-3C249.67,278,249,279,249,281Zm68-66c1.33,1.33,2.33,2,3,2a1.77,1.77,0,0,0,2-2,3.21,3.21,0,0,0-3-2A1.77,1.77,0,0,0,317,215ZM89,375a2,2,0,1,0,2-2A1.77,1.77,0,0,0,89,375ZM187,47a1.77,1.77,0,0,0-2-2c-2,0-3,.67-3,2,0,2,.67,3,2,3Q187,48,187,47ZM359,147a1.77,1.77,0,0,0-2-2c-2,0-3,.67-3,2a1.77,1.77,0,0,0,2,2,1.25,1.25,0,0,0,2,0A2.87,2.87,0,0,0,359,147ZM27,25c-2,0-3,.67-3,2a1.77,1.77,0,0,0,2,2,1.77,1.77,0,0,0,2-2C28,25.67,27.67,25,27,25Zm80,9q-2,2,1,2c2,0,3-.67,3-2a2,2,0,0,0-4,0Zm22,196c-.67,2-.33,3,1,3a2.65,2.65,0,0,0,3-3,2,2,0,0,0-4,0Zm93,152c0,2,.67,3,2,3a1.77,1.77,0,0,0,2-2c0-2-.33-3-1-3C223,380,222,380.67,222,382ZM26,195a1.77,1.77,0,0,0,2,2c.67,0,1.67-.67,3-2a1.77,1.77,0,0,0-2-2A3.21,3.21,0,0,0,26,195Zm9,69c.67,0,1.67-.67,3-2a3.21,3.21,0,0,0-3-2,2,2,0,0,0,0,4Zm-4,72c0-2-.67-3-2-3-1.33,1.33-2,2.33-2,3a1.77,1.77,0,0,0,2,2A1.77,1.77,0,0,0,31,336ZM288,72c0,2,.67,3,2,3s2-1,2-3a2,2,0,0,0-4,0Zm63,266a1.77,1.77,0,0,0,2-2c0-1.33-1-2-3-2a1.77,1.77,0,0,0-2,2C348,337.33,349,338,351,338ZM119,36c0,2,.67,3,2,3s2-1,2-3c1.33-1.33.67-2-2-2A1.77,1.77,0,0,0,119,36ZM253,385a1.77,1.77,0,0,0,2-2c0-1.33-.33-2-1-2a1.77,1.77,0,0,0-2,2Q250,385,253,385Zm91-91q2,2,2-1c0-.67-.67-1.67-2-3a2,2,0,0,0,0,4ZM275,183c-.67,0-1,.67-1,2a2,2,0,0,0,4,0C278,183.67,277,183,275,183ZM46,297c1.33-1.33,2-2.33,2-3a1.77,1.77,0,0,0-2-2,1.77,1.77,0,0,0-2,2C44,296,44.67,297,46,297Zm248-51c.67.67,1.17.83,1.5.5a4,4,0,0,0,.5-2.5,2,2,0,1,0-2,2Zm60,0a2,2,0,1,0-2-2,4,4,0,0,0,.5,2.5C352.83,246.83,353.33,246.67,354,246Zm-72-1a2,2,0,1,0,2-2A1.77,1.77,0,0,0,282,245Zm47,141c2,0,3-.67,3-2,0-2-.67-3-2-3s-2,1-2,3C328,385.33,328.33,386,329,386ZM239,141a2,2,0,0,0,4,0q2-2-1-2C240,139,239,139.67,239,141Zm95,171c1.33,0,2-1,2-3-1.33-1.33-2.33-2-3-2a1.77,1.77,0,0,0-2,2A2.65,2.65,0,0,0,334,312Zm23,61c1.33,0,2-1,2-3a1.77,1.77,0,0,0-2-2q-3,2-3,3C354,372.33,355,373,357,373Zm-41-24a2,2,0,0,0-4,0q0,3,2,1Zm-1-99a1.77,1.77,0,0,0,2-2c0-1.33-1-2-3-2-1.33,0-2,1-2,3a1.59,1.59,0,0,0,1,1.5A1.63,1.63,0,0,0,315,250ZM18,255a2,2,0,0,0,0-4c-1.33,0-2,.33-2,1C16,254,16.67,255,18,255Zm198-72c0,2,.67,3,2,3a2.65,2.65,0,0,0,3-3q1-2-2-2C217,181,216,181.67,216,183ZM353,85a3.21,3.21,0,0,0,3,2c1.33,0,2-1,2-3,0-1.33-1-2-3-2C353.67,82,353,83,353,85ZM17,33c.67,0,1.67-.67,3-2,0-.67-.67-1.67-2-3-2,0-3,.67-3,2C15,30.67,15.67,31.67,17,33ZM236,90q2,0,3-3c-1.33-1.33-2.33-2-3-2l-2,1a2.87,2.87,0,0,0-1,2C233,89.33,234,90,236,90ZM180,355a2.65,2.65,0,0,0,3-3,1.77,1.77,0,0,0-2-2l-2,2a1.63,1.63,0,0,0-.5,2A1.59,1.59,0,0,0,180,355ZM78,341c1.33,0,2-1,2-3a1.77,1.77,0,0,0-2-2,2.65,2.65,0,0,0-3,3C75,340.33,76,341,78,341ZM348,185c0-.67-.67-1.67-2-3a2.65,2.65,0,0,0-3,3,1.77,1.77,0,0,0,2,2C345.67,187,346.67,186.33,348,185ZM119,75a1.77,1.77,0,0,0,2,2c1.33,0,2-1,2-3s-.67-2.33-2-1A1.77,1.77,0,0,0,119,75ZM95,254q-1,0-3,3a4.07,4.07,0,0,0,3,1,1.77,1.77,0,0,0,2-2C98.33,254.67,97.67,254,95,254Zm260-65c1.33-1.33,2-2.33,2-3a1.77,1.77,0,0,0-2-2c-1.33,0-2,1-2,3A1.77,1.77,0,0,0,355,189Zm4,68a1.77,1.77,0,0,0-2-2,2.65,2.65,0,0,0-3,3,1.77,1.77,0,0,0,2,2A2.65,2.65,0,0,0,359,257Zm-42,5a2,2,0,0,0,0-4c-1.33,0-2,.33-2,1A3.21,3.21,0,0,0,317,262Zm-26,92a1.77,1.77,0,0,0-2-2c-2,0-3,.67-3,2a2.65,2.65,0,0,0,3,3C290.33,357,291,356,291,354Zm44-174c1.33,1.33,2.33,2,3,2s1-1,1-3a1.77,1.77,0,0,0-2-2A3.21,3.21,0,0,0,335,180ZM300,335a2,2,0,0,0,0-4,1.63,1.63,0,0,0-2-.5,1.59,1.59,0,0,0-1,1.5A2.65,2.65,0,0,0,300,335Zm-187-1c.67,0,1-.67,1-2a2,2,0,0,0-4,0Q111,335,113,334Zm227,25,2-3c-1.33-1.33-2.33-2-3-2a1.77,1.77,0,0,0-2,2A2.65,2.65,0,0,0,340,359ZM246,231c2,0,3-.67,3-2a2.65,2.65,0,0,0-3-3,1.77,1.77,0,0,0-2,2C244,228.67,244.67,229.67,246,231ZM101,271c1.33,0,2-1,2-3a2,2,0,0,0-4,0C99,268.67,99.67,269.67,101,271Zm138-44a4.48,4.48,0,0,0-.5-2q-.5-1-1.5,0a2.65,2.65,0,0,0-3,3c0,1.33,1,1.67,3,1A1.77,1.77,0,0,0,239,227ZM69,26a3.21,3.21,0,0,0,2,3c1.33,0,2-1,2-3a4.07,4.07,0,0,0-1-3A2.65,2.65,0,0,0,69,26ZM304,147a1.77,1.77,0,0,0,2-2,3.21,3.21,0,0,0-2-3,1.77,1.77,0,0,0-2,2C302,146,302.67,147,304,147ZM298,27a1.77,1.77,0,0,0,2-2,2.65,2.65,0,0,0-3-3c-1.33,1.33-2,2.33-2,3C295,26.33,296,27,298,27ZM271,174a2.65,2.65,0,0,0,3-3,1.77,1.77,0,0,0-2-2c-.67,0-1.67.67-3,2C269,173,269.67,174,271,174Zm83,210c.67,0,1.67-.67,3-2,0-.67-.67-1.67-2-3a2.65,2.65,0,0,0-3,3A1.77,1.77,0,0,0,354,384Zm-13-53a1.77,1.77,0,0,0,2-2,2.65,2.65,0,0,0-3-3c-1.33,0-2,1-2,3C338,330.33,339,331,341,331ZM219,374c1.33-1.33.67-2-2-2-1.33,0-2,1-2,3q-2,2,1,2A2.65,2.65,0,0,0,219,374ZM332,102c2,0,3-.67,3-2,0-2-.67-3-2-3a2.65,2.65,0,0,0-3,3A1.77,1.77,0,0,0,332,102Zm-16,5c-1.33,0-2,1-2,3,0,1.33,1,2,3,2,1.33,0,2-1,2-3C317.67,107.67,316.67,107,316,107ZM89,62q0-2-3-3c-1.33,1.33-2,2.33-2,3s.67,1.67,2,3Q88,65,89,62Zm59,321c0-2-.67-3-2-3s-2,1-2,3c0,1.33.33,2,1,2C147,385,148,384.33,148,383ZM352,57a3.21,3.21,0,0,0,3,2,1.77,1.77,0,0,0,2-2q0-3-3-2A1.77,1.77,0,0,0,352,57Zm-7,309a1.77,1.77,0,0,0,2,2l3-3q0-3-3-2C345.67,363,345,364,345,366Zm-80-43a3.21,3.21,0,0,0,3-2,1.77,1.77,0,0,0-2-2c-2,0-3,.67-3,2C261.67,322.33,262.33,323,265,323ZM29,284c0-1.33-1-2-3-2a1.77,1.77,0,0,0-2,2,2.65,2.65,0,0,0,3,3C28.33,287,29,286,29,284Zm7,1q1,1,1.5,0a4.48,4.48,0,0,0,.5-2c0-1.33-.33-2-1-2q-3-1-3,2A1.77,1.77,0,0,0,36,285ZM66,149l3-3c0-.67-.67-1.67-2-3a2.65,2.65,0,0,0-3,3C64,148,64.67,149,66,149ZM350,287a1.77,1.77,0,0,0,2,2l1-1c1.33-.67,2-1.33,2-2a1.77,1.77,0,0,0-2-2A2.65,2.65,0,0,0,350,287ZM191,383c0,2,.67,3,2,3s2-1,2-3-.67-3-2-3S191,381,191,383ZM141,37c0-.67-.67-1.67-2-3a1.77,1.77,0,0,0-2,2c-.67,2-.33,3,1,3C140,39,141,38.33,141,37ZM299,320a2,2,0,1,0-2-2A1.77,1.77,0,0,0,299,320Zm33,48a2,2,0,0,0-4,0c0,2,.67,3,2,3S332,370,332,368Zm-9-77a2.65,2.65,0,0,0,3-3c0-1.33-1-2-3-2a1.77,1.77,0,0,0-2,2C321,290,321.67,291,323,291Zm34,8a1.77,1.77,0,0,0-2-2c-.67,0-1.67.67-3,2a2.65,2.65,0,0,0,3,3Q358,302,357,299Zm-14,86c2,0,3-.67,3-2a1.77,1.77,0,0,0-2-2c-2,0-3,.67-3,2A1.77,1.77,0,0,0,343,385ZM36,303q0-1-3-3c-1.33,1.33-2,2.33-2,3a1.77,1.77,0,0,0,2,2C33.67,305,34.67,304.33,36,303Zm268,3c1.33,0,2-1,2-3,0-1.33-1-2-3-2a1.77,1.77,0,0,0-2,2A2.65,2.65,0,0,0,304,306Zm24-4c0-1.33-1-2-3-2a2,2,0,0,0,0,4C327,305.33,328,304.67,328,302ZM65,158c1.33-1.33,2-2.33,2-3-1.33-1.33-2.33-2-3-2a1.77,1.77,0,0,0-2,2A2.65,2.65,0,0,0,65,158Zm280,39c1.33.67,2,.33,2-1,0-2-.33-3-1-3-2,0-3,.67-3,2A1.77,1.77,0,0,0,345,197ZM232,37c.67,0,1.67-.67,3-2,0-2-.67-3-2-3a2.65,2.65,0,0,0-3,3,4.48,4.48,0,0,0,.5,2Q231,38,232,37Zm-76-2a4.07,4.07,0,0,0-1-3,3.92,3.92,0,0,0-4,3c0,2,.67,3,2,3A2.65,2.65,0,0,0,156,35Zm56,168a2.65,2.65,0,0,0-3-3,1.77,1.77,0,0,0-2,2c0,2,.67,3,2,3C211,205,212,204.33,212,203ZM47,374a1.77,1.77,0,0,0,2-2,2.65,2.65,0,0,0-3-3c-1.33,0-2,1-2,3C44,373.33,45,374,47,374Zm101-1a2.65,2.65,0,0,0,3-3,1.77,1.77,0,0,0-2-2c-.67,0-1.67.67-3,2C146,372,146.67,373,148,373ZM24,208c1.33,1.33,2.33,2,3,2l3-3c0-1.33-1-2-3-2A2.65,2.65,0,0,0,24,208ZM166,40a1.25,1.25,0,0,0,2,0,4.07,4.07,0,0,0,1-3,1.77,1.77,0,0,0-2-2c-1.33,0-2,1-2,3C165,39.33,165.33,40,166,40ZM346,218a1.77,1.77,0,0,0,2-2,2.65,2.65,0,0,0-3-3,1.77,1.77,0,0,0-2,2A2.65,2.65,0,0,0,346,218ZM175,66c1.33-1.33,2-2.33,2-3a1.77,1.77,0,0,0-2-2c-2,0-3,.67-3,2A2.65,2.65,0,0,0,175,66ZM29,222q1,0,3-3c-1.33-1.33-2.33-2-3-2s-1.67,1-3,3C26,221.33,27,222,29,222ZM268,63c-2,0-3,.67-3,2a1.77,1.77,0,0,0,2,2c2,0,3-.67,3-2A1.77,1.77,0,0,0,268,63Zm-80,3c-2,1.33-3,2.67-3,4s1,2,3,2q2,0,2-4A1.77,1.77,0,0,0,188,66ZM346,352c-1.33,1.33-.67,2,2,2a1.77,1.77,0,0,0,2-2q1-2-2-2A1.77,1.77,0,0,0,346,352ZM19,242a2.65,2.65,0,0,0,3-3c0-1.33-.33-2-1-2a3.92,3.92,0,0,0-4,3A1.77,1.77,0,0,0,19,242Zm304-98a2,2,0,0,0,0-4c-2,0-3,.67-3,2S321,144,323,144Zm-77,97a1.77,1.77,0,0,0,2,2c1.33,0,2-1,2-3a1.77,1.77,0,0,0-2-2C245.33,238,244.67,239,246,241ZM32,246q0-2-3-3-3,1-3,3a1.77,1.77,0,0,0,2,2C30,248,31.33,247.33,32,246ZM18,88c1.33,0,2-1,2-3-1.33-1.33-2.33-1.67-3-1a1.77,1.77,0,0,0-2,2C15,87.33,16,88,18,88Zm226,3,3-3c-1.33-1.33-2.33-2-3-2a1.77,1.77,0,0,0-2,2C242,90,242.67,91,244,91ZM123,257c0-2-.67-3-2-3a1.77,1.77,0,0,0-2,2c0,2,.67,3,2,3A1.77,1.77,0,0,0,123,257ZM188,30a2.65,2.65,0,0,0,3-3q0-3-3-2c-1.33,0-2,1-2,3A1.77,1.77,0,0,0,188,30ZM22,137a2.65,2.65,0,0,0-3-3c-1.33,0-2,1-2,3,0,1.33,1,2,3,2A1.77,1.77,0,0,0,22,137Zm24,14a1.77,1.77,0,0,0,2,2c1.33,0,2-1,2-3a1.77,1.77,0,0,0-2-2C46.67,148,46,149,46,151ZM89,26c0-1.33-1-2-3-2a5.78,5.78,0,0,0-2,4c0,1.33,1,1.67,3,1C88.33,29,89,28,89,26Zm98,307c0,.67.67,1,2,1s2-1,2-3a1.77,1.77,0,0,0-2-2Q187,329,187,333ZM86,330q0,4,2,4c1.33,0,2-1,2-3a3.21,3.21,0,0,0-2-3A1.77,1.77,0,0,0,86,330ZM20,100c0-1.33-1-2-3-2s-3,.67-3,2,1,2,3,2C17.67,102,18.67,101.33,20,100Zm65,79c.67,0,1.67-.67,3-2a2.65,2.65,0,0,0-3-3q-2-2-2,1Q83,179,85,179Zm-68-6a2.65,2.65,0,0,0,3,3c1.33,0,2-1,2-3a1.77,1.77,0,0,0-2-2C18,171,17,171.67,17,173ZM27,274c1.33-1.33,2-2.33,2-3,0-1.33-1-2-3-2-1.33,0-2,1-2,3C24,273.33,25,274,27,274ZM156,17c1.33-2,.67-3-2-3a2.65,2.65,0,0,0-3,3c0,2,.67,3,2,3A2.65,2.65,0,0,0,156,17ZM356,332c2,0,3-.67,3-2a2.65,2.65,0,0,0-3-3c-1.33,0-2,1-2,3A1.77,1.77,0,0,0,356,332ZM206,382c0,2,.33,3.33,1,4a2.65,2.65,0,0,0,3-3c0-2-.67-3-2-3A1.77,1.77,0,0,0,206,382ZM81,333a2.65,2.65,0,0,0,3-3c0-1.33-1-2-3-2-1.33,0-2,1-2,3A1.77,1.77,0,0,0,81,333Zm42-3c1.33,0,2-1,2-3,0-1.33-1-2-3-2-1.33,0-2,1-2,3C120,329.33,121,330,123,330Zm95-53c2,0,3-.67,3-2a4.48,4.48,0,0,0-.5-2q-.5-1-1.5,0-5,0-3,3Q216,279,218,277ZM348,113a2.65,2.65,0,0,0,3-3c0-2-.67-3-2-3a2.65,2.65,0,0,0-3,3C346,112,346.67,113,348,113ZM332,320a1.77,1.77,0,0,0,2-2c0-2.67-1-3.33-3-2a1.77,1.77,0,0,0-2,2C329,320.67,330,321.33,332,320ZM25,127q1,3,3,3c1.33,0,2-1,2-3,0-1.33-1-2-3-2A1.77,1.77,0,0,0,25,127ZM19,319a2.65,2.65,0,0,0,3-3,1.77,1.77,0,0,0-2-2,2.65,2.65,0,0,0-3,3A1.77,1.77,0,0,0,19,319Zm12-22a2.65,2.65,0,0,0,3-3,1.77,1.77,0,0,0-2-2,2.65,2.65,0,0,0-3,3A1.77,1.77,0,0,0,31,297ZM18,126a2,2,0,0,0,0-4q-3-2-3,1A2.65,2.65,0,0,0,18,126ZM314,385a2,2,0,1,0-2-2Q312,386,314,385ZM29,115a1.77,1.77,0,0,0-2-2,1.77,1.77,0,0,0-2,2,3.21,3.21,0,0,0,2,3C28.33,118,29,117,29,115ZM20,306a1.77,1.77,0,0,0,2-2c0-.67-.67-1.67-2-3-2,0-3,.67-3,2A2.65,2.65,0,0,0,20,306Zm336-73a1.77,1.77,0,0,0,2-2c0-2-.67-3-2-3a2.65,2.65,0,0,0-3,3C354.33,232.33,355.33,233,356,233Zm-83-31a2,2,0,1,0,2-2A1.77,1.77,0,0,0,273,202ZM293,64c0,1.33,1,2,3,2,1.33,0,2-1,2-3a1.77,1.77,0,0,0-2-2A2.65,2.65,0,0,0,293,64ZM255,39a3.92,3.92,0,0,0,4-3c0-1.33-1-2-3-2-2.67,0-4,.67-4,2ZM37,37c0-2-.67-3-2-3a1.77,1.77,0,0,0-2,2,2.65,2.65,0,0,0,3,3Q39,39,37,37Zm93,6a1.77,1.77,0,0,0,2,2c1.33,0,2-1,2-3,1.33-1.33.67-2-2-2C130.67,40,130,41,130,43ZM284,179a1.77,1.77,0,0,0,2,2,2.65,2.65,0,0,0,3-3,1.77,1.77,0,0,0-2-2A2.65,2.65,0,0,0,284,179ZM161,45q0-3-3-1c-2.67,0-3.33,1.33-2,4q0,3,2,1Q161,49,161,45Zm63,324a2.65,2.65,0,0,0,3-3c0-1.33-1-2-3-2a1.77,1.77,0,0,0-2,2C222,368,222.67,369,224,369ZM212,188a2.65,2.65,0,0,0-3-3,1.77,1.77,0,0,0-2,2q0,3,4,3Q214,190,212,188Zm110,19a1.77,1.77,0,0,0,2-2c0-2-.67-3-2-3a2.65,2.65,0,0,0-3,3,2.87,2.87,0,0,0,1,2A1.25,1.25,0,0,0,322,207ZM211,366c0-1.33-1-2-3-2a1.77,1.77,0,0,0-2,2c0,2,.67,3,2,3A2.65,2.65,0,0,0,211,366ZM22,17a1.77,1.77,0,0,0-2-2,2.65,2.65,0,0,0-3,3,1.77,1.77,0,0,0,2,2A2.65,2.65,0,0,0,22,17ZM173,367a2.65,2.65,0,0,0,3-3c0-2-.67-3-2-3s-2.33,1-3,3C171,366,171.67,367,173,367ZM65,238c0,1.33,1,2,3,2,1.33,0,2-1,2-3a1.77,1.77,0,0,0-2-2A2.65,2.65,0,0,0,65,238ZM271,16a1.77,1.77,0,0,0-2,2c0,1.33,1,2.67,3,4,1.33,0,2-1,2-3A2.65,2.65,0,0,0,271,16ZM146,363a1.77,1.77,0,0,0,2,2c1.33-1.33,2-2.33,2-3,0-2.67-1-3.33-3-2a1.59,1.59,0,0,0-1.5,1A1.63,1.63,0,0,0,146,363ZM116,250c1.33,0,2-1,2-3a2.65,2.65,0,0,0-3-3c-1.33,1.33-2,2.33-2,3A2.65,2.65,0,0,0,116,250Zm-86,7q-2-3-3-3c-2,0-3,.67-3,2a2.65,2.65,0,0,0,3,3C29,259,30,258.33,30,257Zm241-5c-2,0-3,.67-3,2a5.78,5.78,0,0,0,2,4,2.65,2.65,0,0,0,3-3C273,253,272.33,252,271,252ZM163,360c0-1.33-1-2-3-2-1.33,0-2,1-2,3a1.77,1.77,0,0,0,2,2A2.65,2.65,0,0,0,163,360Zm50,2c.67,0,1.67-.67,3-2,0-2-.67-3-2-3-2,0-3,.67-3,2C211,361,211.67,362,213,362Zm-22,0a1.77,1.77,0,0,0,2-2c0-2-.67-3-2-3a2.65,2.65,0,0,0-3,3C188,362.67,189,363.33,191,362ZM300,34a1.77,1.77,0,0,0,2,2q2,0,3-3l-2-2A2.65,2.65,0,0,0,300,34ZM39,272c0-1.33-1-2-3-2a1.77,1.77,0,0,0-2,2,2.65,2.65,0,0,0,3,3C38.33,275,39,274,39,272Zm316,88a2.65,2.65,0,0,0,3-3,4.07,4.07,0,0,0-3-1c-2.67,0-3.33.67-2,2A1.77,1.77,0,0,0,355,360Zm-56-4q1,0,3-3c-1.33-1.33-2.33-2-3-2a3.21,3.21,0,0,0-3,2Q296,354,299,356ZM121,374c0,1.33,1,2,3,2,1.33-1.33,2-2.33,2-3a1.77,1.77,0,0,0-2-2A2.65,2.65,0,0,0,121,374Zm202-1a3,3,0,0,0,0,6c1.33-1.33,2-2.33,2-3C325,374,324.33,373,323,373Zm5-343c2,0,3-.67,3-2a3.92,3.92,0,0,0-4-3,3.21,3.21,0,0,0-2,3,2.87,2.87,0,0,0,1,2A1.25,1.25,0,0,0,328,30Zm10,255c2,0,3-.67,3-2q0-3-3-2c-2,0-3,.67-3,2a2.87,2.87,0,0,0,1,2A1.25,1.25,0,0,0,338,285ZM38,346c.67,0,1.67-.67,3-2l-1-1a1.77,1.77,0,0,0-2-2,1.77,1.77,0,0,0-2,2C36,345,36.67,346,38,346Zm305-1a2.65,2.65,0,0,0,3-3c0-1.33-1-2-3-2a1.77,1.77,0,0,0-2,2C341,344,341.67,345,343,345Zm-243-2c0,1.33,1,2,3,2,1.33-1.33,2-2.33,2-3a1.77,1.77,0,0,0-2-2A2.65,2.65,0,0,0,100,343ZM28,94c2,0,3-.67,3-2,0-2-.67-3-2-3a2.65,2.65,0,0,0-3,3A1.77,1.77,0,0,0,28,94Zm284-1c0-.67-.67-1.67-2-3a29.44,29.44,0,0,0-4,3,3,3,0,0,0,6,0ZM289,336c0-.67-.67-1.67-2-3-2,0-3,.67-3,2q0,3,2,4A2.65,2.65,0,0,0,289,336ZM349,95c1.33,0,2-1,2-3,0-.67-1-1-3-1-2.67,0-3.33.67-2,2C346,94.33,347,95,349,95Zm-30,6q3,1,4-3l-1-1a.88.88,0,0,0-1-1,2.65,2.65,0,0,0-3,3Q316,101,319,101ZM22,331a2.65,2.65,0,0,0-3-3,1.77,1.77,0,0,0-2,2c0,2,.67,3,2,3C21,333,22,332.33,22,331Zm271-4q1-3-2-3c-.67,0-1.67.67-3,2,0,2,.67,3,2,3C292,329,293,328.33,293,327Zm52-223c1.33,0,2-1,2-3,0-1.33-1-2-3-2-1.33,0-2,1-2,3C342,103.33,343,104,345,104Zm13-3a1.77,1.77,0,0,0-2-2c-2,0-3,.67-3,2,0,2,.67,3,2,3A2.65,2.65,0,0,0,358,101ZM320,317c1.33,0,2-1,2-3a1.77,1.77,0,0,0-2-2c-1.33,0-2,1-2,3C316.67,316.33,317.33,317,320,317ZM48,106a2.65,2.65,0,0,0-3-3c-1.33,0-2,1-2,3,0,1.33,1,2,3,2A1.77,1.77,0,0,0,48,106ZM280,318a2,2,0,0,0,0,4c2,0,3-.67,3-2S282,318,280,318ZM29,326a3,3,0,0,0,0-6c-1.33,0-2,1.33-2,4A1.77,1.77,0,0,0,29,326ZM216,37c0,1.33,1,2,3,2a2.65,2.65,0,0,0,3-3,3.21,3.21,0,0,0-3-2A2.65,2.65,0,0,0,216,37Zm-12-3c0,2,.67,3,2,3s2.67-1,4-3a3,3,0,0,0-6,0Zm-44-5a2.65,2.65,0,0,0,3-3,1.77,1.77,0,0,0-2-2c-2,0-3,.67-3,2C156.67,28,157.33,29,160,29Zm55-2a1.77,1.77,0,0,0,2,2,2.65,2.65,0,0,0,3-3c0-1.33-1-2-3-2S214.33,25,215,27ZM19,228a3.21,3.21,0,0,0,3-2l-3-3a2.65,2.65,0,0,0-3,3C16,227.33,17,228,19,228ZM35,382c0,2.67,1,3.33,3,2a2.65,2.65,0,0,0,3-3c0-1.33-1-2-3-2A2.65,2.65,0,0,0,35,382ZM30,104c0-1.33-1-2-3-2a1.77,1.77,0,0,0-2,2c0,2,.67,3,2,3A2.65,2.65,0,0,0,30,104ZM347,313q0-3-4-4c-1.33,1.33-2,2.33-2,3a2.65,2.65,0,0,0,3,3C346,315,347,314.33,347,313ZM29,312c0,2.67,1,3.33,3,2a1.77,1.77,0,0,0,2-2,2.65,2.65,0,0,0-3-3C29.67,309,29,310,29,312ZM19,216c1.33,0,2-1,2-3a1.77,1.77,0,0,0-2-2,2.65,2.65,0,0,0-3,3C16,215.33,17,216,19,216ZM315,39a2.65,2.65,0,0,0,3-3c0-2-.67-2.67-2-2a2.65,2.65,0,0,0-3,3,4.48,4.48,0,0,0,.5,2Q314,40,315,39ZM49,18a4,4,0,0,0-.5-2.5c-.33-.33-.83-.17-1.5.5a2.65,2.65,0,0,0-3,3,1.77,1.77,0,0,0,2,2A2.65,2.65,0,0,0,49,18ZM344,304c2,1.33,3,.67,3-2a2.65,2.65,0,0,0-3-3,1.77,1.77,0,0,0-2,2C340.67,303,341.33,304,344,304ZM37,101a1.77,1.77,0,0,0,2-2,2.65,2.65,0,0,0-3-3,1.77,1.77,0,0,0-2,2A2.65,2.65,0,0,0,37,101ZM261,332a3,3,0,0,0,6,0c0-1.33-1-2-3-2S261,330.67,261,332ZM193,38a2.65,2.65,0,0,0,3-3,1.77,1.77,0,0,0-2-2q-3-1-3,3C189.67,37.33,190.33,38,193,38ZM42,121c-1.33,2-.67,3,2,3,1.33,0,2-1,2-3a3.21,3.21,0,0,0-2-3C42.67,118,42,119,42,121ZM210,47c0,1.33,1,2,3,2a2.65,2.65,0,0,0,3-3c0-1.33-1-2-3-2A2.65,2.65,0,0,0,210,47Zm58,220a3,3,0,0,0,0-6c-1.33,1.33-2,2.33-2,3C266,266,266.67,267,268,267ZM232,149c0,1.33,1,2,3,2s3-.67,3-2q-2-3-3-3A2.65,2.65,0,0,0,232,149ZM178,37c0,2,.67,3,2,3a2.65,2.65,0,0,0,3-3q0-3-3-2C177.33,35,176.67,35.67,178,37ZM348,47c0-1.33-1-2-3-2a2.65,2.65,0,0,0-3,3c0,1.33,1,2,3,2A2.65,2.65,0,0,0,348,47Zm9,26c1.33,0,2-1,2-3q-3-3-4-3c-1.33,1.33-1.67,2.33-1,3A2.65,2.65,0,0,0,357,73ZM247,29a2.65,2.65,0,0,0,3-3q0-3-4-3a1.77,1.77,0,0,0-2,2A3.92,3.92,0,0,0,247,29ZM63,169a2.65,2.65,0,0,0,3-3c0-2-.67-3-2-3a2.65,2.65,0,0,0-3,3C61,168,61.67,169,63,169ZM201,361a2.65,2.65,0,0,0,3-3c0-2-.67-3-2-3a2.65,2.65,0,0,0-3,3C199,360,199.67,361,201,361ZM21,359c1.33,0,2-1,2-3l-3-3c-2,0-3,.67-3,2Q17,359,21,359ZM121,25a1.77,1.77,0,0,0-2-2,2.65,2.65,0,0,0-3,3q-2,2,1,2Q121,28,121,25ZM41,77a2.65,2.65,0,0,0-3-3c-.67,0-1.67.67-3,2,0,2,.67,3,2,3C39.67,79,41,78.33,41,77ZM209,18c0,2,.67,3.33,2,4,1.33,0,2-1,2-3q1-3-2-3C208.33,16,207.67,16.67,209,18Zm-7,28c1.33,0,2-1,2-3a1.77,1.77,0,0,0-2-2,2.65,2.65,0,0,0-3,3C199,45.33,200,46,202,46ZM184,375a3.92,3.92,0,0,0,3-4,1.77,1.77,0,0,0-2-2,2.65,2.65,0,0,0-3,3C182,374,182.67,375,184,375ZM145,26c-1.33,1.33-.67,2,2,2a2.65,2.65,0,0,0,3-3c0-1.33-1-2-3-2C145.67,23,145,24,145,26ZM303,348q3-2,3-3,0-3-3-2a2.65,2.65,0,0,0-3,3C300,347.33,301,348,303,348ZM246,80a2.65,2.65,0,0,0,3-3c0-2-.67-3-2-3a2.65,2.65,0,0,0-3,3C244,79,244.67,80,246,80Zm47,267q3,1,3-2c0-.67-.67-1.67-2-3-2,0-3,.67-3,2Q290,347,293,347ZM17,281c2,0,3-.67,3-2a2.65,2.65,0,0,0-3-3c-2,0-3,.67-3,2Q16,281,17,281Zm255,63a2.65,2.65,0,0,0-3-3c-2,0-3,.67-3,2a2.65,2.65,0,0,0,3,3C271,346,272,345.33,272,344ZM200,25a3.92,3.92,0,0,0,3,4,2.65,2.65,0,0,0,3-3,2.65,2.65,0,0,0-3-3C201,23,200,23.67,200,25ZM20,372a1.77,1.77,0,0,0,2-2c0-2-.67-3-2-3a2.65,2.65,0,0,0-3,3C17,371.33,18,372,20,372Zm257-31a1.77,1.77,0,0,0,2-2,2.65,2.65,0,0,0-3-3c-2-1.33-3-.67-3,2Q273,341,277,341Zm-100-1c0,1.33,1,2,3,2a3,3,0,0,0,0-6Q179,336,177,340ZM18,293c2,0,3-.67,3-2,0-2.67-.67-4-2-4-2,0-3,.67-3,2C15.33,290.33,16,291.67,18,293ZM299,95a3.21,3.21,0,0,0,3-2l-1-1a1.77,1.77,0,0,0-2-2,2.65,2.65,0,0,0-3,3C296,94.33,297,95,299,95ZM128,383a1.77,1.77,0,0,0,2,2,2.65,2.65,0,0,0,3-3,1.77,1.77,0,0,0-2-2A2.65,2.65,0,0,0,128,383ZM348,68a3.21,3.21,0,0,0,3-2,15.83,15.83,0,0,0-3-4,2.65,2.65,0,0,0-3,3Q344,68,348,68ZM338,295c-1.33-2-2.67-3-4-3a1.77,1.77,0,0,0-2,2,2.65,2.65,0,0,0,3,3C337,297,338,296.33,338,295ZM54,26c0,1.33,1,2,3,2,1.33,0,2-1,2-3s-1-2.67-3-2C53.33,23,52.67,24,54,26Zm289-3c-1.33,0-2,1-2,3s.67,3,2,3a3.92,3.92,0,0,0,3-4Q346,22,343,23ZM74,370q-4,0-4,3a2.65,2.65,0,0,0,3,3,2.65,2.65,0,0,0,3-3C76,371,75.33,370,74,370ZM278,64q2,3,3,3a3.92,3.92,0,0,0,3-4c-1.33-1.33-2.33-2-3-2Q278,62,278,64Zm10-43a1.77,1.77,0,0,0,2-2c0-2-.67-3-2-3-2,0-3,.67-3,2A2.65,2.65,0,0,0,288,21ZM38,67q1,0,3-4c-1.33-1.33-2.33-2-3-2a3.92,3.92,0,0,0-3,4C35,66.33,36,67,38,67Zm321,51a2.65,2.65,0,0,0-3-3c-1.33,0-2,1-2,3s.67,3,2,3Q359,120,359,118ZM65,34c0-1.33-1-2-3-2q-3,3-3,4c0,.67,1,1,3,1A2.65,2.65,0,0,0,65,34ZM26,43a2.65,2.65,0,0,0,3-3,2.65,2.65,0,0,0-3-3c-1.33,0-2,1-2,3S24.67,43,26,43Zm85,331q-1-3-3-3a3.21,3.21,0,0,0-2,3c0,2,.67,3,2,3Q111,376,111,374ZM26,56a2.65,2.65,0,0,0,3,3c1.33,0,2-1,2-3a1.77,1.77,0,0,0-2-2C27,54,26,54.67,26,56ZM347,40a2.65,2.65,0,0,0,3-3,3,3,0,0,0-6,0Q342,40,347,40ZM174,54c1.33,0,2-1,2-3s-.67-3-2-3q-3,2-3,3A2.65,2.65,0,0,0,174,54ZM303,75c1.33,0,2-1,2-3s-.67-3-2-3c-2,0-3,.67-3,2A3.92,3.92,0,0,0,303,75ZM43,54c1.33,0,2-1,2-3a2.65,2.65,0,0,0-3-3c-1.33,1.33-2,2.33-2,3Q40,55,43,54Zm296-6q0-2-3-3a2.65,2.65,0,0,0-3,3c0,2,.67,3,2,3A3.92,3.92,0,0,0,339,48ZM96,63l2,2a2.65,2.65,0,0,0,3-3c0-1.33-1-2-3-2C96.67,60,96,61,96,63ZM328,253c-1.33,0-2,1-2,3a2.65,2.65,0,0,0,3,3c1.33,0,2-1,2-3Q330,253,328,253ZM28,361c0,1.33,1,2,3,2a2.65,2.65,0,0,0,3-3c0-2-.67-3-2-3Q28,357,28,361ZM344,77a2.65,2.65,0,0,0,3,3c2,0,3-.67,3-2a2.65,2.65,0,0,0-3-3C346.33,75,345.33,75.67,344,77ZM30,346a2.65,2.65,0,0,0-3,3,3.92,3.92,0,0,0,3,4c1.33-1.33,2-2.33,2-3C32,348,31.33,346.67,30,346ZM226,47a3.92,3.92,0,0,0,3-4c0-1.33-1-2-3-2a2.65,2.65,0,0,0-3,3A2.65,2.65,0,0,0,226,47Zm38-17a1.25,1.25,0,0,0,2,0,4.07,4.07,0,0,0,1-3c0-1.33-1-2-3-2a2.65,2.65,0,0,0-3,3C262.33,29.33,263.33,30,264,30Zm84-13c-1.33,2-.67,3,2,3,2,0,3-.67,3-2q1-3-2-3Q348,14,348,17ZM322,120c0-2-.67-3-2-3a2.65,2.65,0,0,0-3,3c0,2,.67,3,2,3Q322,124,322,120ZM275,332q1,0,3-3,0-1-3-3a3,3,0,0,0,0,6ZM49,38a2.65,2.65,0,0,0-3,3,2.65,2.65,0,0,0,3,3q3-3,3-4C52,37.33,51,36.67,49,38ZM306,15q-4,0-4,3a3,3,0,0,0,6,0C308,16,307.33,15,306,15ZM238,40c0,1.33,1,2,3,2a2.65,2.65,0,0,0,3-3c0-2-.67-3-2-3Q238,36,238,40ZM199,18c-1.33-1.33-2.33-2-3-2a2.65,2.65,0,0,0-3,3,2.65,2.65,0,0,0,3,3C198,20.67,199,19.33,199,18ZM41,31a2.65,2.65,0,0,0,3-3,2.65,2.65,0,0,0-3-3c-2,0-3,.67-3,2Q38,31,41,31Zm141-9a6,6,0,0,0,4-4,3,3,0,0,0-6,0C180,20.67,180.67,22,182,22Zm-6,363a2.65,2.65,0,0,0,3-3q0-3-2-2a2.65,2.65,0,0,0-3,3A1.77,1.77,0,0,0,176,385ZM18,68a2.65,2.65,0,0,0-3,3q0,3,2,4,3,0,3-4A3.21,3.21,0,0,0,18,68ZM159,373q4,0,4-4,0-3-3-2a2.65,2.65,0,0,0-3,3C157,372,157.67,373,159,373Zm84-212a3.92,3.92,0,0,0,3-4q0-3-3-2c-1.33,0-2,1-2,3Q240,161,243,161ZM256,22c1.33,0,2.67-1.33,4-4,0-1.33-1-2-3-2-1.33-.67-2.67,0-4,2C253,19.33,254,20.67,256,22Zm82,14a3,3,0,0,0-6,0,2.65,2.65,0,0,0,3,3Q336,39,338,36Zm-65-3q-4,0-4,3a3,3,0,0,0,6,0C275,34,274.33,33,273,33ZM15,44a2.65,2.65,0,0,0,3,3,2.65,2.65,0,0,0,3-3c0-2.67-.67-4-2-4Q15,40,15,44ZM59,369a1.77,1.77,0,0,0,2,2,3.92,3.92,0,0,0,4-3,2.65,2.65,0,0,0-3-3A3.92,3.92,0,0,0,59,369ZM187,61a2.65,2.65,0,0,0,3-3c0-2-.67-3-2-3q-4,0-4,3Q184,60,187,61ZM28,70c1.33,0,2-1,2-3,0-1.33-1-2-3-2a1.77,1.77,0,0,0-2,2Q24,70,28,70ZM61,18c0,1.33,1,2,3,2s3-.67,3-2a2.65,2.65,0,0,0-3-3A2.65,2.65,0,0,0,61,18Zm256,1a3,3,0,0,0,6,0l-2-2C318.33,17,317,17.67,317,19ZM22,384c2-1.33,3-2.67,3-4s-1-2-3-2a3,3,0,0,0,0,6Zm137-2a2.65,2.65,0,0,0,3,3c2,0,3-.67,3-2a3.92,3.92,0,0,0-3-4A2.65,2.65,0,0,0,159,382ZM78,21a2.65,2.65,0,0,0,3-3c.67-1.33,0-2.67-2-4a2.65,2.65,0,0,0-3,3C76,19,76.67,20.33,78,21ZM18,344a2.65,2.65,0,0,0,3,3q1,0,3-3c0-1.33-1-2-3-2C19,340.67,18,341.33,18,344ZM243,17q1-2-2-2-4,0-4,3c0,1.33,1,2,3,2A2.65,2.65,0,0,0,243,17ZM90,18a1.77,1.77,0,0,0,2,2,2.65,2.65,0,0,0,3-3c0-1.33-1-2-3-2C89.33,15,88.67,16,90,18Zm139,7a3.92,3.92,0,0,0,3,4c1.33-.67,2-2,2-4a1.77,1.77,0,0,0-2-2C230,23,229,23.67,229,25ZM114,384c2.67,0,3.33-1,2-3,0-2-.67-3-2-3q-3,0-3,4C111,384.67,112,385.33,114,384ZM325,45c2-.67,3-2.33,3-5q0-3-2-1-4,0-4,3A2.65,2.65,0,0,0,325,45ZM202,371c0-1.33-1-2-3-2-2,.67-3,2.33-3,5,0,1.33,1,2,3,2A5.87,5.87,0,0,0,202,371ZM17,54c-1.33,0-2,1-2,3a2.65,2.65,0,0,0,3,3,2.65,2.65,0,0,0,3-3Q21,54,17,54ZM40,361a3,3,0,0,0,0,6q3,0,3-4C43,361.67,42,361,40,361ZM174,30q4,0,4-3a3,3,0,0,0-6,0C172,29,172.67,30,174,30Zm49-12c0,2,.67,3,2,3s2.67-1.33,4-4c0-1.33-1-2-3-2A2.65,2.65,0,0,0,223,18ZM83,385a3.92,3.92,0,0,0,3-4,2.65,2.65,0,0,0-3-3q-3,0-3,4A2.65,2.65,0,0,0,83,385ZM278,23c-1.33,0-2,1-2,3s1.33,3.33,4,4c1.33-1.33,2-2.33,2-3Q282,23,278,23ZM70,381c0-1.33-1.33-2.67-4-4q-2,1-2,4a2.65,2.65,0,0,0,3,3A2.65,2.65,0,0,0,70,381ZM99,27a3,3,0,0,0,6,0q0-4-3-4A3.92,3.92,0,0,0,99,27ZM34,22a29.44,29.44,0,0,0,3-4c-.67-1.33-2-2-4-2s-2.67,1-2,3A2.65,2.65,0,0,0,34,22ZM352,41q0,4,3,4a2.65,2.65,0,0,0,3-3c-1.33-2-2.67-3-4-3C351.33,39,350.67,39.67,352,41ZM49,382a2.65,2.65,0,0,0,3,3c2-.67,3.33-2.33,4-5,0-1.33-1-2-3-2Q49,378,49,382Zm-21-9c0,2,.67,3,2,3s2.67-1.67,4-5c-1.33-1.33-2.33-2-3-2C28.33,370.33,27.33,371.67,28,373ZM307,26q0,4,3,4c2.67-1.33,4-2.67,4-4a2.65,2.65,0,0,0-3-3Q307,23,307,26ZM126,21c2-.67,3-2.33,3-5,0-1.33-1-2-3-2q-4,0-4,4Q122,21,126,21Zm210,1a2.65,2.65,0,0,0,3-3,2.65,2.65,0,0,0-3-3c-2,0-3.33.67-4,2Q332,22,336,22ZM138,377c.67,0,1-1.33,1-4a4.86,4.86,0,0,1-1-3.5,3.59,3.59,0,0,0-2-3.5c-.67,0-1.17.67-1.5,2a5.64,5.64,0,0,0,.5,4Q135,377,138,377ZM169,22q3,0,3-4a2.65,2.65,0,0,0-3-3,3.92,3.92,0,0,0-3,4Q166,24,169,22Zm-60-1c2.67-1.33,4-2.67,4-4a2.65,2.65,0,0,0-3-3q-4,0-4,4A2.65,2.65,0,0,0,109,21ZM46,352c0-1.33-1-2.67-3-4q-1,0-3,4c-1.33,2-.67,3,2,3Q46,357,46,352Zm229-1c0,.67.67,1.67,2,3q6-2,7-6,2-3-1-3Q280,346,275,351ZM140,21q4,0,4-5a2.65,2.65,0,0,0-3-3q-4,0-4,5A2.65,2.65,0,0,0,140,21Zm6,22v2q-5,0-5,3a1.77,1.77,0,0,0,2,2q3,0,3-5h2c2-1.33,2.67-2.67,2-4,0-.67-.67-1-2-1S146,41,146,43ZM120,213q-8,0-13,4c-2.67,0-3.33.67-2,2q1,1,3,0,8-5,16-3,9,3,9,1,0-3-9-3C123.33,213.33,122,213,120,213Zm114,57q-2-15-5-22l-5-10-5-10-1-2-1-1q-4,0,0,4,1,4,7,18.5t7,23.5q0,3,2,2C233.67,273,234,272,234,270ZM99,288l-1-2q-3-4-14-19H82c-.67,0-1,.67-1,2a78.19,78.19,0,0,0,15,20,2.87,2.87,0,0,0,2,1C98.67,290,99,289.33,99,288ZM268,110q-8,0-8,9,0,7,7,7a10.58,10.58,0,0,0,7-2.5,6,6,0,0,0,2-6.5Q276,108,268,110Zm3,28q-1,0-1,5,0,6-2,6t-2-6q-2-7-4-8c-1.33-.67-2.67-.33-4,1l-4,2c-.67,0-.33-1.33,1-4,1.33-3.33,1.67-5.67,1-7q-1-1-10-1h-7q-1-2,7-5h3q4-2,4-3c0-.67-1.33-1-4-1a30.52,30.52,0,0,0-6.5-2,34,34,0,0,0-6.5-1c-2.67,0-3.33-.67-2-2l1-1,1,1q4,2,9,0,6,0,6-1t-5-3l-2-2q-4,0-3-2a.88.88,0,0,1,1-1,2.87,2.87,0,0,1,2,1,21.31,21.31,0,0,1,5.5,1,21.31,21.31,0,0,0,5.5,1q4,1,5.5-.5T262,99q-3-11-2-13,3,4,5,12l2,2c.67,0,1-1,1-3V94q0-4,2-4c1.33-.67,2,1.67,2,7q0,4,2,4l1-1,1-2,5-7c.67.67.33,3.33-1,8q-1,7,.5,9c1,1.33,3.83,1.67,8.5,1h10q0,1-10,3h-2c-1.33.67-2,1.33-2,2s.67,1,2,1a7.59,7.59,0,0,0,3,1h4c3.33.67,5.67,1.67,7,3q-1,1-12,1h-2c-1.33,0-2,.33-2,1q-1,2,2,2l2,1a6.31,6.31,0,0,0,3,1.5,11,11,0,0,1,3.5,1.5c1,.67,1.5,1.33,1.5,2q-1,1-9-2-8-2-10-.5T277,138a2.5,2.5,0,0,1,0,4c-.67.67-1.67.33-3-1ZM87,117q2,9,9,9t7-9q0-7-8-7T87,117Zm4,28v-5q1-9-2.5-11.5T76,129q-8,3-8,2c0-1.33.33-2.17,1-2.5a15.66,15.66,0,0,1,3-1,6.31,6.31,0,0,0,3-1.5h1l2-1c1.33-1.33,2-2.33,2-3s-1-1-3-1H66a1.77,1.77,0,0,1-2-2c0-.67.67-1,2-1a16.6,16.6,0,0,0,4-.5,13.82,13.82,0,0,1,3-.5h2a1.77,1.77,0,0,0,2-2c0-.67-.67-1.33-2-2l-2-1q-7-3-7-4,1-2,4,0l4,1q7,3,10,0,4-6,1-11a2.87,2.87,0,0,0-1-2V94a2.87,2.87,0,0,0-1-2q-1-2,0-3c.67-.67,2,.67,4,4,1.33,1.33,2,2.33,2,3,1.33,1.33,2.33,2,3,2V95a54,54,0,0,0-.5-6,54,54,0,0,1-.5-6V80c.67,0,1.67.67,3,2a27.21,27.21,0,0,0,1,6,27.21,27.21,0,0,1,1,6l2,2,2-2V93a4.07,4.07,0,0,0,1-3q1-2,1.5-3c.33-.67,1.17-1,2.5-1,.67,0,.83.33.5,1a15.5,15.5,0,0,0-1,3.5A21.44,21.44,0,0,0,104,94q0,8,1,9a60.53,60.53,0,0,0,8-2c1.33-.67,2.83-1.33,4.5-2a10.73,10.73,0,0,0,3.5-2,2.87,2.87,0,0,1,2-1,.88.88,0,0,1,1,1c.67.67.33,1.67-1,3l-2,1-4,4q1,1,3,0l2-1h8c0,1.33-2.33,2.67-7,4h-2a7.59,7.59,0,0,0-3,1l-2,1c0,.67.67,1,2,1a7.59,7.59,0,0,0,3,1l8,3q0,1-9,1h-3l-2-1a6.72,6.72,0,0,0-6,3,5,5,0,0,0,0,6,2.87,2.87,0,0,0,1,2l1,2a4.09,4.09,0,0,0,1.5,2.5,10.57,10.57,0,0,1,2,2.5c.33.67.17,1.67-.5,3q-2,0-6-4c-1.33-1.33-2.33-2-3-2s-1,1.33-1,4q2,6,4,14v3q-1,1-1.5,0a4.48,4.48,0,0,1-.5-2,53.71,53.71,0,0,1-2.5-6.5A53.71,53.71,0,0,0,101,136q0-4-2-4t-2,4l-3,9q0,4-2,4C91.33,149,91,147.67,91,145ZM51,220q-5-1-9,6a31.65,31.65,0,0,0-4,16q0,4,10,24c1.33,1.33,2.33,1.67,3,1v-3a32.25,32.25,0,0,1,1-21q5-7,5-13Q59,222,51,220Zm-6-50q-9-18-9-32v-5a1.63,1.63,0,0,0,.5-2c-.33-.67-1.17-.67-2.5,0q-7,4-5,9,3,5,6,15t5,15q15,26,32,35c1.33,1.33,2.33,1.67,3,1s.33-1.67-1-3a179.2,179.2,0,0,1-8-23q0-6-2-5c-.67,0-1,1.67-1,5,0,2.67-.33,4-1,4-.67.67-1.33.5-2-.5a6.14,6.14,0,0,1-1-3.5q-2-5-4-17c0-2-.67-3-2-3q-4,0-4,3v6c0,2-.33,3.33-1,4ZM250,341v-1l-1-2q-20-28-12-66,2-11,1-16-2-10,1-16,2-3,0-5c-1.33-1.33-2.67-.67-4,2q-4,5-7-2a74.07,74.07,0,0,0-9-15q-4-4-5,1-2,14,3,20,8,8-2,10-4,1-4,5.5t3,5.5q8,4,11,14,3,6,8,33a59,59,0,0,0,15,31C249.33,341.33,250,341.67,250,341Zm25-40q-21,6-21,27-1,5,3,17,3,3,3,2v-3q-7-15-1-28,4-9,12.5-10.5T287,311q2,3,6,1,7-7-2-14c-1.33-2.67-2-4.33-2-5,.67-2,2.33-2.33,5-1q12,2,16,11l2,4,3-3q5-10-3-16c-1.33-1.33-2-2.33-2-3,0-1.33,1-2,3-2a69.36,69.36,0,0,1,8-2,31,31,0,0,0,7-2q24-9,22-29l-2-4c-.67,0-1.67.67-3,2a8.83,8.83,0,0,0-1,4q-4,17-21,23a80.84,80.84,0,0,1-25,6q-6,0-7,3h2c2,0,3.33.33,4,1l3,1c0,1.33-1,2-3,2q-14,0-19,4-8,5-8,6h9a4.07,4.07,0,0,1,3,1l-2,1A11.08,11.08,0,0,1,275,301ZM106,195q-1-1-1-6,1-7-5-12c-1.33-2.67-3-3.33-5-2q-3,3-1,6,5,10-1,31c-1.33,2-1.67,3.33-1,4s2,0,4-2q13-15,21-21c2.67-2.67,4.33-4,5-4l-3,7-1,1-2,3h4q17-12,18-19c1.33-1.33,2.33-2,3-2s1,.67,1,2v3c.67,0,1.67-.67,3-2q11-12,4-30-5-7-7-7c-1.33-.67-3.17-.33-5.5,1s-4.17,2-5.5,2v2a8.93,8.93,0,0,1,5,5.5,35.76,35.76,0,0,1,1,9.5v8q1,6-5,10-3,3-4,2-2-1-2-4,0-9-5-11-3-3-5-1-2,1,1,4,4,11-5,19Q108,196,106,195Zm173,56a2.87,2.87,0,0,0-1,2v2q1,5-3,12t-4,9a1.77,1.77,0,0,1-2,2,3.21,3.21,0,0,1-3-2,29.44,29.44,0,0,1-3-4,3.92,3.92,0,0,0-4-3q-1,0-1,5,1,9-4,21-7,13-6,23l2,2a2.87,2.87,0,0,0,1-2q2-9,5-12,3-5,12-14.5T280,276q0-4,2,0,1,5,6,1l2-1,3-3h2c1.33,0,1.33.67,0,2q-3,3-2,3a16.17,16.17,0,0,0,4-1,58.91,58.91,0,0,0,14-2q16-3,26-13c1.33-1.33,1.67-2.33,1-3-1.33-2.67-2-2.33-2,1a35.28,35.28,0,0,1-20,6q-7,2-7-5a13.71,13.71,0,0,0-2-10q-3-3-4-3l-2,4a15.32,15.32,0,0,1-7,11q-6,6-6-2a9.5,9.5,0,0,0-4-8Q281,250,279,251ZM142,228q-2,7,0,19v4q0,3-2,4-3,0-5-5l-1-1c-.67-1.33-1.33-2-2-2q-3,0-4,2c0,.67.67,1.67,2,3q4,4,3.5,12.5T129,277c-1.33,2.67-1.67,4.33-1,5q1,2,4-1l2-2q11-24,11-34c0-2,.33-3,1-3s1,1,1,3q-2,32-19,44-8,6-4,11a5.78,5.78,0,0,1-2,4q-4,0-6,2a23.15,23.15,0,0,0-4,6l-2,5c-1.33,3.33-2.67,4.67-4,4q-2,0-2-5,0-12-12-14-6-2-1-4,2-1,0-3-5-5-16-5c-2,0-3-.67-3-2,0-.67,1-1,3-1s3-.33,3-1l-3-3-2-1-3-3a9.64,9.64,0,0,0-5-4,25.93,25.93,0,0,0-8-1H50q-8,0-6,9,1,3,6,0a21.35,21.35,0,0,1,11,1q6,3,1,6-7,5-8,9-2,5,0,6,3,2,5-3,5-7,13-6t4,8q-2,7-1,9h7q11-2,15,5,3,4-1,13a28.79,28.79,0,0,1-17,12q-3,0-2,2c0,.67,1,1,3,1q10,0,13-4,24-21,30-24a22.14,22.14,0,0,0,7-4.5,34.36,34.36,0,0,1,6-4.5q5-3,5-4l-6-3q-3,0-4-2,0-1,3-4a35.9,35.9,0,0,0,10-13q5-16,7-18t0-3q-2-1-2-9,4-18-1-26-3-3-4-3a2.87,2.87,0,0,1-1,2Zm200-70q7-7,6-16,0-22-15-31-5-5-7-1c-.67.67-.33,2.67,1,6q10,18-2,40-3,3-4,3-2,0-2-5c-1.33-4-2.67-6.67-4-8a5.78,5.78,0,0,0-4-2q-3,1,0,4,3,5-1,16-4,6-8,18t-4,13c-1.33,2-1.67,3.33-1,4s1.67,0,3-2q20-20,27-32,16-26,6-47v-3q3-1,3,2,4,8,4,19-1,27-22,48a451.53,451.53,0,0,0-36,41q-3,3-2,4h4q14-4,25-1,9,2,10,3H305q-22,0-32,7l-4,4,5-2,9-3q2-1,32,2,17,2,22-11v-4c-.67-1.33-2.33-1.33-5,0q-8,3-10,2-18-4-29-2c-2,0-3-.67-3-2l2-3q14-10,20-16,11-9,17-9h2a7,7,0,0,0,3-.5c.67-.33,1-1.17,1-2.5q0-3-4-7-6-3-6-4,0-3,6-5a19.29,19.29,0,0,1,10-3q6,0,6-1,0-6-4-7T342,158ZM241,95q-15,0-15,19,0,22,21,16c0-.67.67-1,2-1q3-1,4,.5c.67,1,.33,2.5-1,4.5q-9,19,14,23a6.72,6.72,0,0,1,6,3c0,2,.67,3,2,3s2-1,2-3a56.06,56.06,0,0,1,3-7q6-8,1-16-3-5,0-7,2-2,6,3,9,7,16,3,9-6,7-19,0-11-9-15-3-1-12,3h-5a4.53,4.53,0,0,1,1-5l3-3q6-7,4-14T280,73q-4-1-13-1-9,1-12.5,8.5T256,96c1.33,3.33,1.67,5.33,1,6q-3,2-7-2Q245,95,241,95Zm13,144q-15,37-16,53,0,16,5,26c0,2,.67,3,2,3v-3q-3-24-3-25,1-25,24-57,20-24,28-42,11-27,1-47-2-5-5-5-1,0-1,6a71.84,71.84,0,0,0,3,8q5,25-4,39-15,23-21,31-3,3-4,3t-3-5v-4q0-15-15-15h-6c0-1.33,2.33-2.67,7-4h4c2.67.67,3.33-.33,2-3q-1-5-7-11-16-16-22-25v-3l2,1q6,10,19,19a36.43,36.43,0,0,1,12,16,1.77,1.77,0,0,0,2,2v-3a63.69,63.69,0,0,1,0-16c0-2,.67-3,2-3,.67,0,1,1,1,3q0,14,2,21,2,15,2,17a4.07,4.07,0,0,0,1,3l1-2q4-25,0-37a33,33,0,0,1-2-5.5,21.31,21.31,0,0,1-1-5.5v-2a4,4,0,0,0-.5-2.5,2,2,0,0,0-1.5-.5q-3,0-5,4a2.87,2.87,0,0,1-1,2v2q-4,6-9,1a38.8,38.8,0,0,0-11-12q-9-7-16-20,0-4-3-3-2,0-2,4-4,28,14,38,7,4,6,7a2.31,2.31,0,0,1-1.5,2.5,6,6,0,0,1-4-.5,11.36,11.36,0,0,0-3.5-1h-1a7.59,7.59,0,0,0-3,1l-3,1c-.67,2,.67,3.67,4,5l6,3q6,2,1,6a2.87,2.87,0,0,0-2,1q-5,7,0,13c1.33,1.33,2.33,2,3,2s1.67-.67,3-2l2-2q10-3,15,3Q260,228,254,239ZM55,106a35.15,35.15,0,0,0-2,11q0,15,10,20,7,5,18-4,3-3,6-1,1,0,1,6a11.08,11.08,0,0,0-1,5q-3,12,8,15,7,4,20-3,20-10,3-27l-4-4c-2-1.33-2.67-2.67-2-4a2.5,2.5,0,0,1,4,0c.67,0,1.67.67,3,2q9,7,17,2,9-5,7-18T130,89q-9-4-16,5c-.67,0-1.33.67-2,2a5.41,5.41,0,0,1-2,2.5c-.67.33-1.67.17-3-.5-.67-.67-.33-3.33,1-8a13.86,13.86,0,0,1,1-6q0-10-9-12a22.08,22.08,0,0,0-16,0q-8,2-10,9t3,14q6,6,4,8-1,1-9-2l-2-2Q59,95,55,106ZM213,297q-9-30-11-93V174q0-5,1-15.5t2-16.5q5-30,17-51,12-20,40-30.5T313,59a38.9,38.9,0,0,1,14,9q5,5,1,10-3,3-5,2-2,0-2-4,0-6-4-6-5,0-5,6-2,10,7,13,10,4,15-2,15-17-1-29-23-20-53-17-29,1-60,13a37.25,37.25,0,0,1-19-1q-3-3-5-2-1,3,2,6,6,9-1,18L185,93q-3,6-6,0-2-3-5.5-9T168,75q-6-8-2-15c1.33-3.33,1.33-5.67,0-7h-7q-12,4-22,0Q107,38,85,39q-11,0-23,7.5T47,66Q44,83,58,89q9,5,9-5a10.82,10.82,0,0,1,3-8,4.82,4.82,0,0,1,1-2.5c.67-1,.67-1.83,0-2.5a4.53,4.53,0,0,0-5,1,2.65,2.65,0,0,0-3,3q-3,3-4,3-2-1-2-6,1-7,8-12.5A30.09,30.09,0,0,1,80,53q30-2,58,27,5,6,11,20,11,31,13,77,3,70-13,126-10,29-35,40-25,14-44,4-9-4-16-14-2-4,1-9a5.78,5.78,0,0,1,4-2q4,3,2,8c0,2.67,1,4.33,3,5s4,0,6-2a10.14,10.14,0,0,0,3-9.5q-1-5.5-7-8.5-10-5-19,5-11,13-2,23,12,16,27,21,33,11,65-8,18-9,25-6c3.33,1.33,5.67,1.33,7,0q2-3,0-8-4-7-1-16a69.61,69.61,0,0,1,6-9.5q4-5.5,5-8.5,4-8,6,1a16.79,16.79,0,0,1,2.5,4l2.5,5q8,17,1,27-3,3,0,6,1,2,7,0,10-4,14,0,13,10,26,14,36,17,74,5,19-5,22-25,4-20-12-23-8-1-14,6-4,6,1,11,4,4,8,2t0-8q-3-3-1-4,1-1,4,2,6,4,5,10.5T318,353q-22,14-50,4Q227,342,213,297ZM92,226a22.87,22.87,0,0,1-3-5c-1.33-2.67-2.67-4.33-4-5q1-4-1-10-10-26-4-55,0-6-2-7-4-1-4,5-7,30,4,53,3,4,7,14-5,2-11-2-4-2-18-14-20-22-26-49c0-2-.67-3-2-3-.67,0-1,1.33-1,4q-1,3,4,19,2,6-3,6-5,2-5,6c.67,1.33,2.33,2,5,2q7,1,12,8,6,6-1,6-2,0-5,6,0,2,5,2,9-1,16,6,12,10,21,8,7-3,10,5a164.51,164.51,0,0,0,10,19q11,18,12,27,0,3-.5,13t1.5,13c0,1.33-.33,2-1,2a4.07,4.07,0,0,1-3-1c-.67-.67-1-2.33-1-5q-1-16-15-31-9-14-10-18c0-2-.67-3-2-3a2.65,2.65,0,0,0-3,3q-1,5,2,11,3,3,0,5-2,3-6-1-5-5-6-10,0-6-2-6-3,0-5,6-1,5,2,12a171.22,171.22,0,0,0,12,13q4,3,12,8.5A129.43,129.43,0,0,1,96.5,294a48.61,48.61,0,0,1,9.5,12,2.5,2.5,0,0,0,4,0q7-6,18-35,2-5-5-5-3-1-3.5.5a15.28,15.28,0,0,0-.5,4.5q1,3-2,13a2.65,2.65,0,0,1-3,3c-.67,0-1-1.33-1-4v-4q4-15-6-32Zm60-28c-.67-1.33-1.5-2-2.5-2a15.75,15.75,0,0,0-4.5,1,16.17,16.17,0,0,1-4,1q6-8,8-11a2.5,2.5,0,0,0,0-4l-2,2q-7,10-25,18l-2,2h2a28.06,28.06,0,0,0,11.5-3q6.5-3,8.5-4-3,6-11,8-4,1-8.5,2.5t-10,3.5q-5.5,2-8.5,3-5,2-5,10,0,4,7,4h5q4,0,13-3.5a92.3,92.3,0,0,1,14-4.5,1.77,1.77,0,0,0,2-2,4.07,4.07,0,0,0-1-3q-5-2,0-6a29.54,29.54,0,0,1,3-2.5,29.54,29.54,0,0,0,3-2.5,29.54,29.54,0,0,1,3-2.5,29.54,29.54,0,0,0,3-2.5A2.87,2.87,0,0,0,152,198ZM11,384V16q0-5,5-5H357q5,0,5,5V384q0,5-5,5H16Q11,389,11,384Z"/></g></g></svg>