<svg xmlns="http://www.w3.org/2000/svg" viewBox="0 0 375 400"><title>Asset 1</title><g id="fe89a226-48e7-4015-8412-f0a249a90597" data-name="Layer 2"><g id="e9ddb06e-0264-44a0-be28-f7716c103dbc" data-name="Layer 1"><path d="M6,6V394H369V6ZM375,0V400H0V0ZM112,164v0ZM89,211l1,1v-1Zm75-17v1h1a.88.88,0,0,1,1-1Zm81,121a4.07,4.07,0,0,0-1-3,1.77,1.77,0,0,0-2,2l1,2C244.33,316,245,315.67,245,315ZM103,119a1.25,1.25,0,0,0,2,0,4.07,4.07,0,0,0-1-3c-1.33,0-2,.33-2,1Q100,119,103,119ZM241,305l1-1c0-1.33-.33-2-1-2a.88.88,0,0,0-1,1C240,304.33,240.33,305,241,305ZM94,159a1.77,1.77,0,0,0-2-2,.88.88,0,0,0-1,1c0,1.33.33,2,1,2A2.87,2.87,0,0,1,94,159ZM189,55a1.77,1.77,0,0,0,2-2c0-.67-.67-1-2-1a.88.88,0,0,0-1,1A2.87,2.87,0,0,0,189,55ZM177,334a2,2,0,0,0,4,0c0-.67-.67-1-2-1S177,333.33,177,334Zm0-140,1-1-1-2c-.67,0-1,.67-1,2Zm-49,2a.88.88,0,0,0,1-1c0-.67-.67-1-2-1l-1,1Q126,198,128,196ZM197,91a1.77,1.77,0,0,0,2,2c.67,0,1-.67,1-2s-.33-2-1-2Zm-62,98c.67,0,1-.67,1-2a1.77,1.77,0,0,0-2-2,2.87,2.87,0,0,0-1,2A1.77,1.77,0,0,0,135,189Zm-1,15c0,.67.67,1,2,1a1.77,1.77,0,0,0,2-2c-1.33-1.33-2.33-1.67-3-1C134.33,202,134,202.67,134,204Zm71,16a2,2,0,0,0,0-4c-.67,0-1,.67-1,2Zm83-34c.67,0,1-.67,1-2a.88.88,0,0,0-1-1l-2,1A1.77,1.77,0,0,0,288,186ZM175,239c0,.67.67,1,2,1,.67,0,1-.67,1-2a.88.88,0,0,0-1-1A1.77,1.77,0,0,0,175,239ZM89,184q-2,2,1,2a1.77,1.77,0,0,0,2-2c.67-.67.33-1-1-1Q89,181,89,184Zm9-1a1.77,1.77,0,0,0,2-2c0-.67-.67-1-2-1l-2,1a4.48,4.48,0,0,0,.5,2Q97,184,98,183ZM272,283l2-1c0-2-.67-3-2-3s-2,.33-2,1C270,282,270.67,283,272,283ZM228,155c0-.67-.67-1-2-1-.67,0-1,.67-1,2l1,1A1.77,1.77,0,0,0,228,155Zm-62-9c0,.67.67,1,2,1a1.77,1.77,0,0,0,2-2c0-1.33-1-2-3-2S164.67,144,166,146Zm110-25a1.77,1.77,0,0,0-2,2c0,.67.67,1,2,1s1.67-.67,1-2C277,120.67,276.67,120.33,276,121ZM196,66a1.77,1.77,0,0,0,2-2c0-1.33-1-1.67-3-1-1.33,0-1.67.33-1,1A1.77,1.77,0,0,0,196,66Zm12,1,1-2c0-2-.67-3-2-3a4.07,4.07,0,0,0-1,3A1.77,1.77,0,0,0,208,67ZM171,201c0,.67.33.67,1,0,2.67,0,4-.33,4-1l-1-1Q171,199,171,201Zm30,22a2,2,0,1,0,2,2A1.77,1.77,0,0,0,201,223Zm-67,63a2,2,0,1,0,2-2A1.77,1.77,0,0,0,134,286ZM148,78c.67,0,1-1,1-3,0-1.33-.33-2-1-2a1.77,1.77,0,0,0-2,2C146,77,146.67,78,148,78ZM108,210c1.33,0,2-1,2-3,0-1.33-.33-2-1-2-1.33,0-2,1-2,3C107,209.33,107.33,210,108,210Zm165-99c0-.67-.67-1-2-1-2,0-3,.67-3,2,0,.67,1,1,3,1A1.77,1.77,0,0,0,273,111Zm-85,43c-1.33,0-2,1-2,3a2.87,2.87,0,0,0,2,1c1.33-1.33,1.67-2.33,1-3A.88.88,0,0,0,188,154ZM114,275a2,2,0,0,0,0-4c-1.33,0-2,.33-2,1A3.21,3.21,0,0,0,114,275Zm84-142a2,2,0,0,0,0-4c-1.33,0-2,1-2,3C196,132.67,196.67,133,198,133Zm71,118a2,2,0,1,0,2-2ZM114,122c.67.67,1.17.83,1.5.5a4,4,0,0,0,.5-2.5,1.77,1.77,0,0,0-2-2,3.21,3.21,0,0,0-3,2C111,121.33,112,122,114,122ZM220,62a4.07,4.07,0,0,0,1-3,1.77,1.77,0,0,0-2-2c-1.33,0-2,1-2,3C218.33,61.33,219.33,62,220,62ZM125,209c1.33,1.33,2.33,2,3,2q3,0,1-2a2,2,0,0,0-4,0ZM184,61a2,2,0,1,0,2,2A1.77,1.77,0,0,0,184,61Zm35,158a1.77,1.77,0,0,0,2-2c0-1.33-.33-2-1-2-.67-.67-1.67-.33-3,1C217,216.67,217.67,217.67,219,219ZM160,324a1.77,1.77,0,0,0-2-2c-1.33,0-2,1-2,3,0,.67.67,1,2,1A1.77,1.77,0,0,0,160,324Zm9-260c-.67.67-.33,1.67,1,3a1.77,1.77,0,0,0,2-2q2-2-1-2Q169,61,169,64Zm22,104q1,1,1.5,0a4.48,4.48,0,0,0,.5-2,1.77,1.77,0,0,0-2-2q-2-2-2,1C189,167,189.67,168,191,168Zm-90,93a1.77,1.77,0,0,0,2,2c1.33,0,2-.33,2-1a1.77,1.77,0,0,0-2-2Q101,258,101,261Zm190-50c0-.67-.67-1.67-2-3a2,2,0,0,0,0,4Q291,214,291,211Zm-97,11a1.77,1.77,0,0,0,2-2q-2-3-3-3c-1.33,0-2,1-2,3C192.33,221.33,193.33,222,194,222Zm-26,45a2,2,0,1,0,2-2A1.77,1.77,0,0,0,168,267ZM281,156a1.77,1.77,0,0,0,2,2c1.33,0,2-.33,2-1s-.67-1.67-2-3A1.77,1.77,0,0,0,281,156ZM159,72a2.65,2.65,0,0,0,3-3c0-1.33-.33-2-1-2-2,0-3,.67-3,2C157.33,69.67,157.67,70.67,159,72Zm72,151a1.77,1.77,0,0,0,2-2c0-1.33-1-2-3-2-.67,0-1,.67-1,2C227.67,222.33,228.33,223,231,223ZM178,54c0-1.33-.33-2-1-2-2,0-3,.67-3,2,0,.67.67,1.67,2,3C177.33,57,178,56,178,54ZM160,244a2,2,0,0,0,4,0,4,4,0,0,0-.5-2.5c-.33-.33-.83-.17-1.5.5A1.77,1.77,0,0,0,160,244Zm-16,44a2,2,0,1,0,2,2A1.77,1.77,0,0,0,144,288Zm36-63c0,1.33,1,2,3,2a4.07,4.07,0,0,0,1-3,1.77,1.77,0,0,0-2-2C180.67,222,180,223,180,225Zm28-86a2,2,0,0,0,0-4c-2,0-3,.67-3,2S206,139,208,139Zm-98-31a2,2,0,1,0-2-2Zm62,127a2,2,0,1,0-2-2C168.67,234.33,169.33,235,172,235Zm0,43c0,2,.67,3,2,3a1.77,1.77,0,0,0,2-2c0-2-.67-3-2-3A1.77,1.77,0,0,0,172,278Zm-14,10,3-3q-1-3-3-3c-1.33,0-2,1-2,3A3.21,3.21,0,0,0,158,288Zm61-63a1.77,1.77,0,0,0-2,2c0,1.33,1,2,3,2s2.33-.67,1-2a4.48,4.48,0,0,0-.5-2Q220,224,219,225Zm-75,56c0,2,.67,3,2,3a1.77,1.77,0,0,0,2-2c0-1.33-1-2-3-2A.88.88,0,0,0,144,281Zm32-22a1.77,1.77,0,0,0,2-2c-1.33-1.33-2.33-2-3-2a1.77,1.77,0,0,0-2,2Q173,260,176,259Zm113-58a3.21,3.21,0,0,0,3-2c-1.33-1.33-2.33-2-3-2q-3-1-3,2C286,200.33,287,201,289,201Zm-93-97a2,2,0,0,0,0-4q-3-2-3,1A2.65,2.65,0,0,0,196,104ZM104,274c.67,0,1.67-.67,3-2,0-2-.67-3-2-3-.67,0-1.67.67-3,2C102,273,102.67,274,104,274Zm145,37c2,0,3-.67,3-2q2-3-1-3c-2,0-3,.67-3,2A4.07,4.07,0,0,0,249,311ZM100,176c2,0,3-.67,3-2s-.33-2-1-2a1.63,1.63,0,0,0-2-.5,1.59,1.59,0,0,0-1,1.5C98.33,173.67,98.67,174.67,100,176Zm113-5a2,2,0,1,0-2,2q1,1,1.5,0A4.48,4.48,0,0,0,213,171ZM94,171a2,2,0,1,0-2,2q1,1,1.5,0A4.48,4.48,0,0,0,94,171Zm184,90c0,2,.67,3,2,3a3.21,3.21,0,0,0,2-3,2,2,0,0,0-4,0ZM206,125c2,0,3-.33,3-1s-.67-1.67-2-3c-.67,0-1.67.67-3,2A1.77,1.77,0,0,0,206,125Zm25,197c1.33,1.33,2.33,2,3,2s1-1,1-3c0-1.33-1-2-3-2A4.07,4.07,0,0,0,231,322ZM203,166c0-2-.33-3-1-3-2,0-3,.67-3,2,0,2,.33,3,1,3C202,168,203,167.33,203,166Zm57,85a1.77,1.77,0,0,0-2,2c0,1.33,1,2,3,2,1.33-.67,2-1.33,2-2C263,251.67,262,251,260,251ZM181,75a1.77,1.77,0,0,0,2,2q3,0,2-3a1.77,1.77,0,0,0-2-2C181.67,72,181,73,181,75Zm-42,78c-.67,0-1,.67-1,2s1,2,3,2c1.33,0,2-.33,2-1A3.92,3.92,0,0,0,139,153Zm57,84a2.65,2.65,0,0,0,3,3,1.77,1.77,0,0,0,2-2,2.65,2.65,0,0,0-3-3A1.77,1.77,0,0,0,196,237ZM193,77c1.33,1.33,2.33,2,3,2,1.33-1.33,2-2.33,2-3,0-1.33-1-2-3-2C193.67,74,193,75,193,77Zm-66,6a2,2,0,0,0,0-4c-2,0-3,.67-3,2C124,81.67,125,82.33,127,83ZM116,96a1.77,1.77,0,0,0,2-2c0-1.33-1-2-3-2a1.77,1.77,0,0,0-2,2C113,95.33,114,96,116,96Zm17,46a1.77,1.77,0,0,0,2-2c0-1.33-1-2-3-2a1.77,1.77,0,0,0-2,2C130,142.67,131,143.33,133,142Zm54,92c.67,0,1.67-.67,3-2,0-.67-.67-1.67-2-3a1.77,1.77,0,0,0-2,2C185.33,231.67,185.67,232.67,187,234Zm-70-82c1.33,0,2-1,2-3,0-.67-.67-1-2-1a2.65,2.65,0,0,0-3,3C114,151.67,115,152,117,152Zm79-40c0,2,.67,3,2,3a1.77,1.77,0,0,0,2-2q1-2-2-3A1.77,1.77,0,0,0,196,112Zm-65,37a3.21,3.21,0,0,0-3-2q-3,0-2,2c0,1.33,1,2,3,2A1.77,1.77,0,0,0,131,149Zm41-69c1.33,0,2-1,2-3s-.67-3-2-3-2,1-2,3A3.21,3.21,0,0,0,172,80ZM90,223c0,.67.67,1.67,2,3,2,0,3-.67,3-2a2.87,2.87,0,0,0-1-2,1.25,1.25,0,0,0-2,0H90C89.33,222,89.33,222.33,90,223ZM232,65c0-1.33-1-2-3-2a5.78,5.78,0,0,0-2,4,1.77,1.77,0,0,0,2,2A3.92,3.92,0,0,0,232,65Zm-87,0c0,1.33,1,2,3,2,1.33,0,2-1,2-3,0-1.33-1-2-3-2C145.67,62,145,63,145,65ZM116,266a3.21,3.21,0,0,0,2-3c0-1.33-1-2-3-2-1.33,0-2,1-2,3C114.33,265.33,115.33,266,116,266Zm138,0a1.63,1.63,0,0,0-.5,2,1.59,1.59,0,0,0,1.5,1c.67,0,1.67-.67,3-2,0-2-.67-3-2-3A1.77,1.77,0,0,0,254,266Zm-85,65a1.77,1.77,0,0,0,2-2c0-.67-.67-1.67-2-3a2.65,2.65,0,0,0-3,3Q168,332,169,331Zm26-33a1.77,1.77,0,0,0,2-2,2.65,2.65,0,0,0-3-3,1.77,1.77,0,0,0-2,2A2.65,2.65,0,0,0,195,298ZM93,196c0-1.33-1-1.67-3-1a2,2,0,0,0,0,4A2.65,2.65,0,0,0,93,196Zm118-79c2,0,3-.67,3-2s-1-2-3-2a2,2,0,0,0,0,4Zm7,29c1.33,0,2-1,2-3s-.67-2.33-2-1c-2,0-3,.33-3,1A2.65,2.65,0,0,0,218,146ZM133,314c2,0,3-.67,3-2,0-2-.67-3-2-3-2,0-3,.67-3,2C131,313,131.67,314,133,314Zm63-3c.67,0,1-1,1-3,0-1.33-1-2-3-2-1.33,0-1.67,1-1,3C193,310.33,194,311,196,311Zm-61-9q3-2,3-3a1.77,1.77,0,0,0-2-2q-3-1-3,2C133,301,133.67,302,135,302Zm13,22a2.65,2.65,0,0,0,3-3c0-1.33-1-2-3-2a1.77,1.77,0,0,0-2,2C144.67,323,145.33,324,148,324ZM118,107a1.77,1.77,0,0,0-2,2,3.21,3.21,0,0,0,3,2,1.77,1.77,0,0,0,2-2C121,107.67,120,107,118,107Zm66,188a2.65,2.65,0,0,0-3-3c-1.33,0-2,1-2,3,1.33,1.33,2.33,2,3,2A1.77,1.77,0,0,0,184,295Zm21-195c0,1.33,1,2,3,2a1.77,1.77,0,0,0,2-2c0-2-.67-3-2-3A2.65,2.65,0,0,0,205,100ZM121,210a1.77,1.77,0,0,0-2-2c-2,0-3,.67-3,2,0,.67.67,1.67,2,3Q120,213,121,210Zm-24,8a2.65,2.65,0,0,0,3-3,1.77,1.77,0,0,0-2-2q-3,1-3,3A1.77,1.77,0,0,0,97,218Zm72,33c2,0,3-.67,3-2,0-2-.67-3-2-3a1.77,1.77,0,0,0-2,2C168,250,168.33,251,169,251Zm-62-23c0-1.33-1-2-3-2-1.33,0-2,1-2,3,0,1.33,1,2,3,2C106.33,231,107,230,107,228Zm178-82a2.65,2.65,0,0,0-3-3c-1.33,0-2,1-2,3a1.77,1.77,0,0,0,2,2C284,148,285,147.33,285,146Zm-127,6c0,2,.67,3,2,3,2,0,3-.67,3-2q1-3-2-3C159,150,158,150.67,158,152Zm-40-16a2.65,2.65,0,0,0,3,3c2,0,3-.67,3-2l-3-3C119,134,118,134.67,118,136Zm5,28q1,0,3-3c0-1.33-1-2-3-2a3.21,3.21,0,0,0-3,2A2.65,2.65,0,0,0,123,164Zm94-35c0-1.33-1-2-3-2-1.33,1.33-2,2.33-2,3,0,2.67,1,3.33,3,2C216.33,132,217,131,217,129ZM203,318c0-2-.67-3-2-3-2,0-3,.67-3,2,0,2,.67,3,2,3C202,320,203,319.33,203,318Zm-20-30a1.77,1.77,0,0,0,2-2,2.65,2.65,0,0,0-3-3,1.77,1.77,0,0,0-2,2A2.65,2.65,0,0,0,183,288Zm-17-8q2-1,2-4a1.77,1.77,0,0,0-2-2,3,3,0,0,0,0,6Zm22-5a2.65,2.65,0,0,0-3-3c-1.33,0-2,1-2,3a1.77,1.77,0,0,0,2,2C187,277,188,276.33,188,275ZM160,60a2.65,2.65,0,0,0,3-3,1.77,1.77,0,0,0-2-2c-2,0-3,.67-3,2C158,59,158.67,60,160,60Zm53,164a2.65,2.65,0,0,0-3-3c-1.33,0-2,1-2,3a4.48,4.48,0,0,0,.5,2q.5,1,1.5,0C212,226,213,225.33,213,224Zm-98,11a1.77,1.77,0,0,0,2-2c0-2-.67-3-2-3a2.65,2.65,0,0,0-3,3C112,234.33,113,235,115,235Zm81,35a1.77,1.77,0,0,0-2-2c-2,0-3,.67-3,2a2.65,2.65,0,0,0,3,3C195.33,273,196,272,196,270Zm-14-7c0,2,.67,3,2,3,2.67,0,3.33-1,2-3a1.77,1.77,0,0,0-2-2Q181,261,182,263Zm85,3a3,3,0,1,0-3-3Q266,267,267,266Zm-85-13c1.33,0,2-1,2-3a2.65,2.65,0,0,0-3-3c-1.33,1.33-2,2.33-2,3A2.65,2.65,0,0,0,182,253ZM242,71c0-1.33-1-2-3-2-1.33,0-2,1-2,3a1.77,1.77,0,0,0,2,2A2.65,2.65,0,0,0,242,71ZM138,71q-3-1-3,2c0,2,.67,3,2,3,2,0,3-.67,3-2C140,72,139.33,71,138,71ZM101,238c0,1.33,1,2,3,2s3-.67,3-2a3.92,3.92,0,0,0-4-3C101.67,235,101,236,101,238Zm12,50c1.33,0,2-1,2-3a1.77,1.77,0,0,0-2-2q-3,0-4,2Q109,288,113,288ZM188,90q2,0,3-3c0-1.33-1-2-3-2s-3,.67-3,2A2.65,2.65,0,0,0,188,90Zm22,141a2.65,2.65,0,0,0-3,3c0,2,.67,3,2,3a2.65,2.65,0,0,0,3-3C212,233.33,211.33,232.33,210,231ZM190,124a1.77,1.77,0,0,0,2-2,2.65,2.65,0,0,0-3-3c-2,0-3,.33-3,1Q187,124,190,124Zm-90,81c0-2-.67-3-2-3-2,0-3,.67-3,2a2.65,2.65,0,0,0,3,3c1.33.67,2.17.67,2.5,0A1.63,1.63,0,0,0,100,205Zm174,72a2.65,2.65,0,0,0,3-3,3.92,3.92,0,0,0-3-4,5.78,5.78,0,0,0-2,4C272,276,272.67,277,274,277ZM162,255a3,3,0,0,0,0,6,3.92,3.92,0,0,0,3-4Q165,254,162,255ZM205,52a2.65,2.65,0,0,0-3,3c0,2,.67,3,2,3a2.65,2.65,0,0,0,3-3C207,53,206.33,52,205,52Zm60,223c0-1.33-1-2-3-2a1.77,1.77,0,0,0-2,2,2.65,2.65,0,0,0,3,3C264.33,278,265,277,265,275Zm-80-32c.67,0,1.67-.67,3-2,0-2-.67-3-2-3-2-1.33-3-.67-3,2C183,242,183.67,243,185,243Zm-15,49a3,3,0,0,0,0-6c-1.33,0-2,1-2,3S168.67,292,170,292ZM92,238q3,0,4-2-2-3-3-3c-2,0-3,.67-3,2C90,235.67,90.67,236.67,92,238ZM175,87q0,4,2,4,3-1,3-3,0-4-2-4A2.65,2.65,0,0,0,175,87Zm92,37c1.33,0,2-1,2-3q-1-3-3-3-2-1-2,2Q264,124,267,124ZM154,159q0-1-3-4c-2,0-3,.67-3,2q0,4,3,4C153,161,154,160.33,154,159ZM51,376h1l-1-1Zm5-94v-1l-1-1v1A.88.88,0,0,0,56,282Zm240,44c1.33,0,2-.33,2-1s-.17-1-.5-1-.5-.33-.5-1a1.77,1.77,0,0,0-2,2ZM59,211l1-1c0-1.33-.33-2-1-2s-1,.67-1,2ZM17,120a2.87,2.87,0,0,0-2,1,1.77,1.77,0,0,0,2,2c.67,0,1-.17,1-.5s.33-.5,1-.5A1.77,1.77,0,0,0,17,120ZM357,266a1.77,1.77,0,0,0-2,2l1,1c1.33.67,2,.33,2-1Zm2-229V36c0-1.33-.33-2-1-2v1l-1,1C357,36.67,357.67,37,359,37ZM41,258a2.87,2.87,0,0,0,1-2,1.77,1.77,0,0,0-2-2v1l-1,1A1.77,1.77,0,0,0,41,258ZM356,94a1.77,1.77,0,0,0,2-2c0-1.33-.33-2-1-2l-2,2C355,93.33,355.33,94,356,94ZM65,384a3.21,3.21,0,0,0-2-3,2,2,0,0,0,0,4A2.87,2.87,0,0,0,65,384ZM17,370a.88.88,0,0,0,1,1c1.33,0,2-.33,2-1,1.33-1.33.67-2-2-2C17.33,368,17,368.67,17,370ZM54,198a2,2,0,0,0,0-4c-.67,0-1,.67-1,2S53.33,198,54,198ZM353,20a2,2,0,0,0,4,0c0-1.33-.33-2-1-2C354,18,353,18.67,353,20ZM141,17l-2-2a1.77,1.77,0,0,0-2,2,2,2,0,0,0,4,0ZM27,307c0,.67.67,1,2,1a1.77,1.77,0,0,0,2-2c0-.67-.67-1-2-1A1.77,1.77,0,0,0,27,307Zm301-89a2,2,0,0,0,4,0c0-1.33-.33-2-1-2C329,216,328,216.67,328,218Zm26-19a1.77,1.77,0,0,0,2,2c1.33,0,2-1,2-3,0-.67-.67-1-2-1A1.77,1.77,0,0,0,354,199ZM71,306c.67,0,1-1,1-3l-1-1a2,2,0,0,0,0,4ZM35,142a1.77,1.77,0,0,0,2,2,1.77,1.77,0,0,0,2-2c.67-.67,0-1-2-1,0-.67-.17-.83-.5-.5ZM357,313c.67,0,1-.67,1-2a1.77,1.77,0,0,0-2-2l-2,2C354,312.33,355,313,357,313ZM28,113a1.77,1.77,0,0,0-2-2q-2-2-2,1a1.77,1.77,0,0,0,2,2C27.33,114,28,113.67,28,113Zm303-6q-2,2,1,2a.88.88,0,0,0,1-1q2-2-1-2ZM59,323c.67.67,1.67.33,3-1,0-.67-.67-1.67-2-3-1.33,0-2,.33-2,1C58,322,58.33,323,59,323ZM269,46l-1,2c0,2,.33,3,1,3,1.33,0,2-1,2-3Zm-10-4a1.77,1.77,0,0,0-2,2,.88.88,0,0,0,1,1,2.87,2.87,0,0,0,2-1C260,42.67,259.67,42,259,42Zm53,338c-.67,0-1,.67-1,2a1.77,1.77,0,0,0,2,2q3,0,1-2A1.77,1.77,0,0,0,312,380ZM17,229c.67,0,1.67-.67,3-2a1.77,1.77,0,0,0-2-2q-2-2-2,1C15.33,226.67,15.67,227.67,17,229ZM246,356c1.33-1.33.67-2-2-2a2,2,0,1,0,2,2ZM153,18a1.77,1.77,0,0,0,2,2c1.33,0,2-1,2-3a1.77,1.77,0,0,0-2-2C153.67,15,153,16,153,18ZM105,384a1.77,1.77,0,0,0,2-2q2-2-1-2c-1.33,0-2,.33-2,1Q102,384,105,384ZM313,93a2,2,0,1,0,2-2A1.77,1.77,0,0,0,313,93Zm34-14c0,.67.67,1,2,1s2-.33,2-1a4.48,4.48,0,0,0-.5-2q-.5-1-1.5,0A1.77,1.77,0,0,0,347,79Zm0,273c.67,0,1.67-.67,3-2a1.77,1.77,0,0,0-2-2c-1.33,0-2,.33-2,1Q344,352,347,352ZM34,385q2,2,2-1c0-2-.33-3-1-3a1.77,1.77,0,0,0-2,2Q31,385,34,385Zm89-33q2,2,2-1c0-1.33-.33-2-1-2-1.33,0-2,.33-2,1C121.33,351.33,121.67,352,123,352Zm150,21c.67.67,1.67.33,3-1l-2-3a1.77,1.77,0,0,0-2,2C272,372.33,272.33,373,273,373ZM34,157c.67.67,1.67.33,3-1,0-.67-.67-1.67-2-3a1.77,1.77,0,0,0-2,2Q31,157,34,157Zm291,48q-3,0-1,3l1,1a2,2,0,0,0,0-4ZM43,195a2,2,0,0,0,0-4c-1.33,0-2,.33-2,1C41,194,41.67,195,43,195ZM17,307a1.77,1.77,0,0,0,2,2,2,2,0,0,0,0-4A1.77,1.77,0,0,0,17,307Zm119,52a2,2,0,1,0,2,2A1.77,1.77,0,0,0,136,359ZM277,58a.88.88,0,0,0,1,1,1.77,1.77,0,0,0,2-2c0-1.33-.33-2-1-2C277.67,55,277,56,277,58ZM234,367a2.5,2.5,0,0,0,4,0c0-.67-.67-1.67-2-3-1.33,0-2,.33-2,1A1.25,1.25,0,0,0,234,367ZM41,133c0,.67.67,1,2,1a1.77,1.77,0,0,0,2-2c0-1.33-.33-2-1-2A2.65,2.65,0,0,0,41,133ZM347,28a1.77,1.77,0,0,0,2-2,1.77,1.77,0,0,0-2-2c-1.33,0-2,1-2,3S345.67,29.33,347,28Zm0,226c2.67,0,3.33-.67,2-2a1.77,1.77,0,0,0-2-2q-3,0-1,2C346,253.33,346.33,254,347,254Zm2-127c0-.67-.67-1.67-2-3-1.33,1.33-2,2.33-2,3s.67,1.33,2,2A1.77,1.77,0,0,0,349,127Zm5,100a1.77,1.77,0,0,0,2-2,.88.88,0,0,0-1-1c-1.33-.67-2-.33-2,1Q351,227,354,227Zm-40,98a2,2,0,0,0,0-4c-1.33,0-2,.33-2,1S312.67,323.67,314,325Zm-67,42a1.77,1.77,0,0,0,2-2c0-2-.67-3-2-3a1.77,1.77,0,0,0-2,2C245.67,366,246.33,367,247,367ZM94,330a1.77,1.77,0,0,0,2-2,3.21,3.21,0,0,0-2-3c-1.33,1.33-2,2.33-2,3A1.77,1.77,0,0,0,94,330ZM326,95a4.07,4.07,0,0,0-1,3,1.77,1.77,0,0,0,2,2c1.33-1.33,2-2.33,2-3C327.67,95.67,326.67,95,326,95ZM211,25c0,2,.67,3,2,3a1.77,1.77,0,0,0,2-2,4.07,4.07,0,0,0-1-3C213.33,23,212.33,23.67,211,25ZM27,333a1.77,1.77,0,0,0,2-2,3.21,3.21,0,0,0-3-2,1.77,1.77,0,0,0-2,2C24,332.33,25,333,27,333Zm2-15c.67-1.33,0-2-2-2a2,2,0,0,0,0,4A1.77,1.77,0,0,0,29,318ZM25,172a1.77,1.77,0,0,0-2-2c-2,0-3,.67-3,2s1,2,3,2ZM84,381a4.07,4.07,0,0,0,1-3c0-1.33-1-2-3-2-.67,0-1,1-1,3C81,380.33,82,381,84,381ZM234,19a2,2,0,0,0,4,0c0-1.33-.33-2-1-2C235,17,234,17.67,234,19ZM26,252a2,2,0,0,0,0-4,2,2,0,0,0,0,4ZM329,118c1.33,0,2-1,2-3,0-1.33-.33-2-1-2-1.33,0-2,1-2,3Q326,118,329,118ZM236,33c0,2,.67,3,2,3s2-1,2-3a2,2,0,0,0-4,0Zm12-15c0,1.33.33,2,1,2s1.67-.67,3-2c0-.67-.67-1.67-2-3C248.67,15,248,16,248,18Zm27,325c.67,0,1-.67,1-2s-1-2-3-2-2.33.67-1,2C272,342.33,273,343,275,343Zm-84,40a2.65,2.65,0,0,0,3-3l-2-2-1,1-2,2A1.77,1.77,0,0,0,191,383Zm76-19a2,2,0,1,0-2,2A1.77,1.77,0,0,0,267,364ZM85,68a2,2,0,1,0,2-2A1.77,1.77,0,0,0,85,68ZM37,373c0,2,.67,3,2,3s2-1,2-3a1.77,1.77,0,0,0-2-2A1.77,1.77,0,0,0,37,373ZM263,37c0,2,.67,3,2,3a1.77,1.77,0,0,0,2-2c0-2-.67-3-2-3A1.77,1.77,0,0,0,263,37Zm17,310a1.77,1.77,0,0,0,2,2c1.33,0,2-1,2-3,0-.67-.67-1-2-1q-1-1-1.5,0A4.48,4.48,0,0,0,280,347Zm60-203c1.33,0,2-1,2-3l-1-1a2.65,2.65,0,0,0-3,3A2.87,2.87,0,0,0,340,144ZM79,383c-.67-2-1.33-3-2-3q-3,2-3,3a3.21,3.21,0,0,0,3,2A1.77,1.77,0,0,0,79,383ZM24,282a1.77,1.77,0,0,0,2,2c1.33,0,2-.33,2-1,0-2-.67-3-2-3A1.77,1.77,0,0,0,24,282ZM324,107q2,0,3-3h-1l-2-1a1.77,1.77,0,0,0-2,2Q322,108,324,107Zm33,1c2,0,3-.67,3-2a1.77,1.77,0,0,0-2-2c-1.33,0-2,1-2,3C355.33,107.67,355.67,108,357,108ZM316,47c2,0,3-.67,3-2a3.21,3.21,0,0,0-2-3,1.77,1.77,0,0,0-2,2C315,46,315.33,47,316,47ZM124,41q0-3-3-1-3,0-1,3a1.77,1.77,0,0,0,2,2A5.78,5.78,0,0,0,124,41ZM331,200a5.78,5.78,0,0,0,4-2c0-2-.67-3-2-3a2.65,2.65,0,0,0-3,3C330,199.33,330.33,200,331,200ZM17,277a1.77,1.77,0,0,0,2-2,4.48,4.48,0,0,0-.5-2q-.49-1-1.5,0a3.21,3.21,0,0,0-3,2C14,276.33,15,277,17,277ZM275,37c0,2,.67,3,2,3a1.77,1.77,0,0,0,2-2,3.21,3.21,0,0,0-2-3A1.77,1.77,0,0,0,275,37Zm31,324c-1.33-1.33-2.33-2-3-2-1.33,0-2,1-2,3,1.33,1.33,2.33,2,3,2C305.33,364,306,363,306,361ZM119,385c1.33,0,2-1,2-3,0-1.33-.33-2-1-2-1.33,0-2,1-2,3C118,384.33,118.33,385,119,385ZM313,30c2,1.33,3,.67,3-2a2,2,0,0,0-4,0C312,29.33,312.33,30,313,30ZM45,267a1.77,1.77,0,0,0,2,2,2,2,0,0,0,0-4A1.77,1.77,0,0,0,45,267Zm295-2a1.77,1.77,0,0,0,2,2c2.67,0,3.33-1,2-3a1.77,1.77,0,0,0-2-2C340.67,263.33,340,264.33,340,265ZM175,26a3.21,3.21,0,0,0,3,2c1.33,0,2-1,2-3a1.77,1.77,0,0,0-2-2A2.65,2.65,0,0,0,175,26ZM38,213c-2,0-3,.67-3,2s1,2,3,2a2,2,0,0,0,0-4ZM18,320a2,2,0,0,0,0,4c2,0,3-.67,3-2S20,320,18,320Zm150,54c2,0,3-.67,3-2,0-.67-.67-1.67-2-3a2.65,2.65,0,0,0-3,3A1.77,1.77,0,0,0,168,374ZM68,328c1.33,0,2-1,2-3a1.77,1.77,0,0,0-2-2c-2,0-3,.67-3,2A2.65,2.65,0,0,0,68,328ZM144,24a3.21,3.21,0,0,0,2,3c1.33-1.33,2-2.33,2-3,0-2-.33-3-1-3A2.65,2.65,0,0,0,144,24ZM356,330c2,0,3-.67,3-2,0-2.67-1-3.33-3-2-1.33,0-2,.33-2,1C354,329,354.67,330,356,330ZM20,132a1.77,1.77,0,0,0-2-2,2.65,2.65,0,0,0-3,3c1.33,1.33,2.33,2,3,2C19.33,135,20,134,20,132ZM225,20c0-.67-.67-1.67-2-3a2.65,2.65,0,0,0-3,3,1.77,1.77,0,0,0,2,2C222.67,22,223.67,21.33,225,20Zm102,0c2,0,3-.67,3-2,0-2-.67-3-2-3-2,0-3,.67-3,2C325,19,325.67,20,327,20Zm-61-3a2,2,0,0,0-4,0,2.65,2.65,0,0,0,3,3C265.67,20,266,19,266,17Zm75,329c0-1.33-1-2-3-2a2,2,0,0,0,0,4,1.25,1.25,0,0,0,2,0A2.87,2.87,0,0,0,341,346ZM30,219c-2,0-3,.67-3,2a1.77,1.77,0,0,0,2,2,3.21,3.21,0,0,0,3-2A1.77,1.77,0,0,0,30,219ZM26,348a1.77,1.77,0,0,0,2,2c1.33,0,2-1,2-3,0-1.33-1-2-3-2S24.67,346,26,348ZM25,159a6.6,6.6,0,0,0,3-3,1.77,1.77,0,0,0-2-2c-2,0-3,.67-3,2C23,158,23.67,159,25,159ZM63,99a2,2,0,0,0,0-4c-2.67,0-3.33.67-2,2A1.77,1.77,0,0,0,63,99ZM357,78a3.21,3.21,0,0,0,2-3,1.77,1.77,0,0,0-2-2c-1.33,0-2,1-2,3A1.77,1.77,0,0,0,357,78ZM210,20a1.77,1.77,0,0,0,2-2c0-2-.67-3-2-3-2,0-3,.67-3,2A2.65,2.65,0,0,0,210,20ZM343,371a1.77,1.77,0,0,0,2,2c1.33,0,2-1,2-3q1-2-2-2C343.67,368,343,369,343,371Zm-220-9q3,0,3-4a2.87,2.87,0,0,0-2-1,2.65,2.65,0,0,0-3,3A1.77,1.77,0,0,0,123,362Zm234,11c.67,0,1-1,1-3s-.67-2.67-2-2a1.77,1.77,0,0,0-2,2A2.65,2.65,0,0,0,357,373ZM132,354q2,3,3,3a1.77,1.77,0,0,0,2-2,2.65,2.65,0,0,0-3-3A1.77,1.77,0,0,0,132,354ZM51,99c2,0,3-.67,3-2a2.65,2.65,0,0,0-3-3,1.77,1.77,0,0,0-2,2C49,98,49.67,99,51,99ZM23,382a3.21,3.21,0,0,0-2-3c-1.33,0-2,1-2,3,0,1.33.33,2,1,2C22,385.33,23,384.67,23,382Zm-6-90c0,.67.67,1,2,1s2-1,2-3c0-.67-.67-1-2-1Q16,289,17,292ZM349,176a2,2,0,0,0,4,0,2.65,2.65,0,0,0-3-3C348.67,173,348.33,174,349,176Zm7,65q0-1-3-3c-1.33,0-2,1-2,3,0,1.33,1,2,3,2A1.77,1.77,0,0,0,356,241ZM318,374c.67,0,1.67-.67,3-2a2.65,2.65,0,0,0-3-3q-2-1-2,2C316,373,316.67,374,318,374ZM21,357c1.33,0,2-1,2-3a5.78,5.78,0,0,0-4-2,1.77,1.77,0,0,0-2,2Q17,357,21,357Zm57-6c1.33,0,2-1,2-3a2,2,0,0,0-4,0,1.25,1.25,0,0,0,0,2A2.87,2.87,0,0,0,78,351ZM29,260c0,1.33,1,2,3,2,1.33-1.33,2-2.33,2-3,0-1.33-1-2-3-2C29.67,257,29,258,29,260ZM288,17c0,2,.67,3,2,3s2-1,2-3-.67-3-2-3S288,15,288,17ZM28,141c1.33,0,2-1,2-3,0-1.33-1-2-3-2a1.77,1.77,0,0,0-2,2A2.65,2.65,0,0,0,28,141ZM183,374a2.65,2.65,0,0,0,3-3c-1.33-1.33-2.33-2-3-2-1.33,0-2,1-2,3A1.77,1.77,0,0,0,183,374ZM70,338a1.77,1.77,0,0,0,2,2,2.65,2.65,0,0,0,3-3c0-1.33-1-2-3-2C70.67,335,70,336,70,338Zm-9-5q-3-1-3,2c0,2,.67,3,2,3a1.77,1.77,0,0,0,2-2Q64,333,61,333ZM17,213c1.33,0,2-1,2-3l-3-1a1.77,1.77,0,0,0-2,2C15.33,212.33,16.33,213,17,213ZM94,58a4.07,4.07,0,0,0,3,1,2,2,0,0,0,0-4A2.65,2.65,0,0,0,94,58Zm223-1a1.77,1.77,0,0,0,2,2,2.65,2.65,0,0,0,3-3c0-1.33-.33-2-1-2A3.92,3.92,0,0,0,317,57Zm29,280a2.65,2.65,0,0,0,3-3,1.77,1.77,0,0,0-2-2,2.65,2.65,0,0,0-3,3A1.77,1.77,0,0,0,346,337Zm-4-4a2.65,2.65,0,0,0-3-3c-1.33,1.33-2,2.33-2,3,0,1.33,1,2,3,2A1.77,1.77,0,0,0,342,333Zm6-57c0-1.33-1-2-3-2-1.33,0-2,1-2,3-1.33,1.33-.67,2,2,2A2.65,2.65,0,0,0,348,276ZM152,365c0-1.33-.33-2-1-2a2.65,2.65,0,0,0-3,3,1.77,1.77,0,0,0,2,2C151.33,368,152,367,152,365Zm204-79c1.33,0,2-1,2-3a1.77,1.77,0,0,0-2-2c-2,0-3,.67-3,2A2.65,2.65,0,0,0,356,286ZM334,131a1.77,1.77,0,0,0,2,2c2,0,3-.67,3-2,0-2-.67-3-2-3Q334,130,334,131ZM61,37q-3-1-3,2a2.65,2.65,0,0,0,3,3c1.33,0,2-1,2-3A1.77,1.77,0,0,0,61,37ZM161,385a3.92,3.92,0,0,0,4-3,3.21,3.21,0,0,0-3-2,2.65,2.65,0,0,0-3,3A1.77,1.77,0,0,0,161,385ZM305,37c-.67,1.33,0,2,2,2s3-.67,3-2q0-3-3-2A1.77,1.77,0,0,0,305,37ZM30,167a1.77,1.77,0,0,0,2,2,3.21,3.21,0,0,0,3-2q0-1-3-3C30.67,164,30,165,30,167ZM197,24a2,2,0,0,0,4,0c0-2-.33-3-1-3A2.65,2.65,0,0,0,197,24ZM96,373c0,2,.67,3,2,3s2.33-1,3-3l-2-2C98.33,371,97.33,371.67,96,373ZM296,34c0-1.33-1.33-2-4-2-1.33,0-1.67,1-1,3a1.77,1.77,0,0,0,2,2A2.65,2.65,0,0,0,296,34Zm28,348,1,2q4,0,4-2c0-1.33-1-2-3-2A1.77,1.77,0,0,0,324,382ZM229,28q1-3-2-3a2.65,2.65,0,0,0-3,3,1.77,1.77,0,0,0,2,2C228,30,229,29.33,229,28ZM211,373c0,2,.67,3,2,3a1.77,1.77,0,0,0,2-2c0-2-.67-3-2-3Q211,370,211,373Zm6-12c0,1.33,1,2,3,2a1.77,1.77,0,0,0,2-2,2.65,2.65,0,0,0-3-3C217.67,358,217,359,217,361Zm117,15c1.33,0,2-1,2-3s-.67-3-2-3q-3,2-3,3A2.65,2.65,0,0,0,334,376ZM147,34l3-3-1-1c-.67-1.33-1.33-2-2-2-1.33,0-2,1-2,3S145.67,34,147,34ZM34,121c0,2,.67,3,2,3s2-1,2-3a1.77,1.77,0,0,0-2-2A1.77,1.77,0,0,0,34,121ZM29,377q3-1,3-3a1.77,1.77,0,0,0-2-2q-4,0-3,3A1.77,1.77,0,0,0,29,377Zm311-14c1.33,0,2-1,2-3a1.77,1.77,0,0,0-2-2l-3,2A2.65,2.65,0,0,0,340,363ZM16,194q-1,1,2,3l2-1a2.87,2.87,0,0,0,1-2c0-1.33-1-2-3-2A1.77,1.77,0,0,0,16,194Zm341-23c1.33-1.33,2-2.33,2-3a1.77,1.77,0,0,0-2-2,2.65,2.65,0,0,0-3,3C355.33,170.33,356.33,171,357,171ZM190,363q2,2,2-1c0-2-.67-3-2-3q-3-1-3,2C187,362.33,188,363,190,363Zm-14,21a2.65,2.65,0,0,0,3-3,1.77,1.77,0,0,0-2-2q-3,0-3,4Q174,386,176,384ZM106,47a2.65,2.65,0,0,0,3,3c1.33,0,2-1.33,2-4,0-1.33-1-1.67-3-1A1.77,1.77,0,0,0,106,47ZM59,107a2.65,2.65,0,0,0-3-3,1.77,1.77,0,0,0-2,2c0,2,.67,3,2,3C58,109,59,108.33,59,107ZM351,383a1.77,1.77,0,0,0,2,2c1.33,0,2-1,2-3a1.77,1.77,0,0,0-2-2C351.67,380,351,381,351,383Zm-64-48a1.77,1.77,0,0,0-2-2c-2,0-3,.67-3,2,0,2,.33,3,1,3A3.92,3.92,0,0,0,287,335Zm72-121c0-2-.67-3-2-3-2,0-3,.67-3,2a2.65,2.65,0,0,0,3,3A1.77,1.77,0,0,0,359,214ZM33,21c2,0,3-.67,3-2a2.65,2.65,0,0,0-3-3c-1.33,0-2,1-2,3A1.77,1.77,0,0,0,33,21ZM341,384c2,0,3-.67,3-2,0-.67-.67-1.67-2-3a2.65,2.65,0,0,0-3,3A1.77,1.77,0,0,0,341,384Zm-74-33c1.33,0,2-1,2-3,0-1.33-1-2-3-2a2.65,2.65,0,0,0-3,3Q264,351,267,351Zm39-2a1.77,1.77,0,0,0,2,2c1.33,0,2-1,2-3a1.77,1.77,0,0,0-2-2C305.33,346,304.67,347,306,349ZM169,18a1.77,1.77,0,0,0,2,2c1.33-.67,2-2,2-4,0-1.33-1-2-3-2C168.67,15.33,168.33,16.67,169,18ZM355,152a2.65,2.65,0,0,0,3,3c1.33,0,2-1,2-3,0-2.67-1-3.33-3-2A1.77,1.77,0,0,0,355,152ZM340,19q3,0,3-4a1.77,1.77,0,0,0-2-2,2.65,2.65,0,0,0-3,3C338,18,338.67,19,340,19ZM18,95q1,1,3-2c-1.33-1.33-2.33-2-3-2-2,0-3,.67-3,2S16,95,18,95ZM304,19c1.33,0,2-1,2-3,0-2.67-1-3.33-3-2q-3,0-2,2l1,2A2.87,2.87,0,0,0,304,19Zm53,342a1.77,1.77,0,0,0,2-2c0-2-.67-3-2-3-2,0-3,.67-3,2S355,360.33,357,361Zm-76,24a3.92,3.92,0,0,0,3-4c-1.33-1.33-2.33-2-3-2-1.33,0-2,1-2,3S279.67,385,281,385ZM19,149a1.77,1.77,0,0,0,2-2c0-2-.67-3-2-3-2,0-3,.67-3,2A2.65,2.65,0,0,0,19,149ZM267,383c1.33,0,2-1,2-3a1.77,1.77,0,0,0-2-2,2.65,2.65,0,0,0-3,3C264,382.33,265,383,267,383Zm47-20q3,0,3-4l-1-1a2.87,2.87,0,0,0-2-1q-2,0-2,4ZM66,341c-1.33,0-2,1-2,3a2.65,2.65,0,0,0,3,3c1.33,0,2-1,2-3A2.65,2.65,0,0,0,66,341ZM347,159a2.65,2.65,0,0,0,3-3c0-1.33-1-2-3-2-1.33,0-2,1-2,3A1.77,1.77,0,0,0,347,159Zm12-22a1.77,1.77,0,0,0-2-2l-1,1c-1.33.67-2,1.33-2,2,0,1.33,1,2,3,2S359.67,139,359,137ZM315,21q3,0,3-4a1.77,1.77,0,0,0-2-2,2.65,2.65,0,0,0-3,3C313,20,313.67,21,315,21Zm41,324a2.65,2.65,0,0,0,3-3l-1-2a.88.88,0,0,0-1-1,2.65,2.65,0,0,0-3,3C354,342.67,354.67,343.67,356,345ZM124,19a1.77,1.77,0,0,0,2,2,3.92,3.92,0,0,0,3-4,1.77,1.77,0,0,0-2-2A3.92,3.92,0,0,0,124,19ZM25,128c0,.67.67,1.67,2,3,2,0,3-.67,3-2,1.33-2.67.67-4-2-4A2.65,2.65,0,0,0,25,128ZM156,361a3,3,0,0,0,6,0c-1.33-2-2.67-3-4-3C156.67,359.33,156,360.33,156,361Zm84,13c0,1.33,1,2,3,2s3-.67,3-2-1-2-3-2S240,372.67,240,374Zm-65-9q2,0,2-4,0-3-3-2c-1.33,0-2,1-2,3A2.65,2.65,0,0,0,175,365ZM16,181q3,1,3-2c0-2-.67-3-2-3a2.65,2.65,0,0,0-3,3A1.77,1.77,0,0,0,16,181ZM348,323c2,0,3-.67,3-2,0-.67-.67-1.67-2-3-2,0-3,.67-3,2C346,320.67,346.67,321.67,348,323ZM164,25a1.77,1.77,0,0,0-2-2c-2,0-3,.67-3,2,0,2,.67,3,2,3A2.65,2.65,0,0,0,164,25Zm191,96a1.77,1.77,0,0,0,2,2,2.65,2.65,0,0,0,3-3c0-2-.33-3-1-3Q355,117,355,121ZM304,317a2.65,2.65,0,0,0,3,3c2,0,3-.67,3-2q0-3-4-3-1-1-1.5,0A4.48,4.48,0,0,0,304,317ZM47,122c1.33.67,2.67,0,4-2a1.77,1.77,0,0,0-2-2c-2-1.33-3-.67-3,2Q44,122,47,122ZM282,27c0,.67.67,1.67,2,3a2.65,2.65,0,0,0,3-3,1.77,1.77,0,0,0-2-2C283,25,282,25.67,282,27ZM228,370a3,3,0,0,0,0,6c1.33,0,2-1,2-3A3.21,3.21,0,0,0,228,370ZM94,29c0-1.33-1-2-3-2a1.77,1.77,0,0,0-2,2c0,2,.67,3,2,3A2.65,2.65,0,0,0,94,29Zm38,4c2,0,3-.67,3-2,0-2-.67-3-2-3-2,0-3,.67-3,2C130,32,130.67,33,132,33ZM30,365c1.33,0,2-1,2-3,0-1.33-1-2-3-2a1.77,1.77,0,0,0-2,2Q28,365,30,365ZM323,32c0,1.33,1,2,3,2a2.65,2.65,0,0,0,3-3,1.77,1.77,0,0,0-2-2Q323,29,323,32ZM130,383a3,3,0,0,0,6,0q-2-3-3-3A2.65,2.65,0,0,0,130,383Zm160-9q2,0,3-3c-1.33-1.33-2.33-2-3-2a2.65,2.65,0,0,0-3,3C287,374.67,288,375.33,290,374ZM21,109q0-1-3-3a1.77,1.77,0,0,0-2,2c0,2,.67,3,2,3Q21,112,21,109ZM247,38c0,1.33,1,2,3,2,1.33,0,2-1,2-3,0-1.33-1-2-3-2C247.67,35,247,36,247,38ZM30,299c2,0,3-.67,3-2q-1-3-3-3a2.65,2.65,0,0,0-3,3A3.21,3.21,0,0,0,30,299Zm31-8a1.77,1.77,0,0,0-2,2c0,2,.67,3,2,3s2-1,2-3S62.33,290.33,61,291ZM332,43a1.77,1.77,0,0,0-2-2c-2.67,1.33-3.67,2.67-3,4q0,3,2,1A2.65,2.65,0,0,0,332,43ZM25,207c0,1.33,1,2,3,2a1.77,1.77,0,0,0,2-2,2.65,2.65,0,0,0-3-3C25.67,204,25,205,25,207ZM201,372q1-1-2-3c-1.33,0-2,1-2,3s.67,3,2,3S201,374,201,372ZM28,235a1.77,1.77,0,0,0,2,2c1.33,0,2.67-1,4-3,0-2.67-1-3.33-3-2A2.65,2.65,0,0,0,28,235Zm-9,25c1.33,0,2-1,2-3,0-1.33-1-2-3-2-1.33,0-2,1-2,3C17.33,259.33,18.33,260,19,260ZM248,381a3,3,0,0,0,6,0c0-1.33-1-2-3-2S248,379.67,248,381ZM26,74c0,1.33,1,2,3,2s3-.67,3-2a2.65,2.65,0,0,0-3-3A2.65,2.65,0,0,0,26,74ZM21,241q0-1-3-3c-1.33,1.33-2,2.33-2,3,0,1.33,1,2,3,2A1.77,1.77,0,0,0,21,241Zm41,67a3.21,3.21,0,0,0-2-3c-1.33,1.33-2,2.33-2,3-1.33,2-.67,3,2,3C61.33,311,62,310,62,308ZM97,13a2.65,2.65,0,0,0-3,3c0,2,.67,3,2,3a2.65,2.65,0,0,0,3-3Q100,13,97,13ZM332,287a3,3,0,0,0,6,0l-1-1a1.77,1.77,0,0,0-2-2A2.65,2.65,0,0,0,332,287ZM77,29c0,1.33,1,2,3,2a2.65,2.65,0,0,0,3-3,2.65,2.65,0,0,0-3-3Q77,25,77,29ZM18,81a2.65,2.65,0,0,0,3-3c0-2-.67-3-2-3-2,0-3,.67-3,2C16,79.67,16.67,81,18,81ZM50,383a1.77,1.77,0,0,0-2-2q-3-1-3,2c0,.67.67,1.67,2,3A2.65,2.65,0,0,0,50,383Zm97-23c1.33,0,2-1,2-3a1.77,1.77,0,0,0-2-2q-1,0-3,3C144,359.33,145,360,147,360ZM301,30a2.65,2.65,0,0,0,3-3c0-2-.67-3-2-3a2.65,2.65,0,0,0-3,3Q298,30,301,30ZM148,386q2-1,2-4t-2-2a3,3,0,0,0,0,6ZM14,32c0,2,.67,3,2,3s2.67-1,4-3c0-1.33-1-2-3-2A3.21,3.21,0,0,0,14,32ZM272,358a2.65,2.65,0,0,0,3-3,3.92,3.92,0,0,0-3-4c-1.33,0-2,1-2,3Q270,358,272,358ZM243,27c0,2,.67,3,2,3s2-1,2-3q2-2-1-2C244,25,243,25.67,243,27ZM353,256l1,2a2.87,2.87,0,0,0,2,1q3-2,2-3a2.65,2.65,0,0,0-3-3C353.67,253,353,254,353,256Zm-13-60c0,1.33,1,2,3,2,1.33,0,2-1,2-3a1.77,1.77,0,0,0-2-2A2.65,2.65,0,0,0,340,196ZM90,385q4,0,4-3a3,3,0,0,0-6,0C88,384,88.67,385,90,385ZM104,24c-1.33,0-2,1-2,3a2.65,2.65,0,0,0,3,3q3-2,3-3C106.67,25,105.33,24,104,24ZM32,194q1-1-3-3c-1.33,0-2,1-2,3a1.77,1.77,0,0,0,2,2C31,196,32,195.33,32,194ZM347,359c-1.33,0-2,1-2,3a2.65,2.65,0,0,0,3,3q3-2,2-3A2.65,2.65,0,0,0,347,359Zm7-61a2.65,2.65,0,0,0,3,3c2,0,3-.67,3-2a2.65,2.65,0,0,0-3-3Q356,295,354,298ZM205,385a2.65,2.65,0,0,0,3-3,1.77,1.77,0,0,0-2-2c-2.67,1.33-4,2.67-4,4a1.59,1.59,0,0,0,1,1.5A1.63,1.63,0,0,0,205,385ZM46,17a2.65,2.65,0,0,0,3,3,2.65,2.65,0,0,0,3-3,2.65,2.65,0,0,0-3-3A2.65,2.65,0,0,0,46,17ZM31,244q0,4,3,4a3,3,0,0,0,0-6C32,242,31,242.67,31,244ZM231,362q3-2,3-3a2.65,2.65,0,0,0-3-3,1.77,1.77,0,0,0-2,2Q229,362,231,362ZM27,30c0,1.33,1,2,3,2a2.65,2.65,0,0,0,3-3,2.65,2.65,0,0,0-3-3Q27,26,27,30ZM276,17q0,1,3,3c1.33,0,2-1,2-3s-.67-3-2-3A2.65,2.65,0,0,0,276,17ZM69,30a2.65,2.65,0,0,0,3-3c0-2-.67-3-2-3q-4,0-4,4C66,29.33,67,30,69,30Zm199-2q0,3,4,3c1.33,0,2-1,2-3a2.65,2.65,0,0,0-3-3l-1,1C268.67,26.67,268,27.33,268,28Zm89,158c2,0,3-.67,3-2a3.92,3.92,0,0,0-4-3c-2,0-3,.67-3,2Q353,186,357,186ZM153,376q4,0,4-2c0-2-.67-3-2-3q-3,0-4,2C151,375,151.67,376,153,376ZM29,183c1.33,0,2-1,2-3a2.65,2.65,0,0,0-3-3q-3-1-3,2Q25,183,29,183ZM21,63a2.65,2.65,0,0,0-3-3,2.65,2.65,0,0,0-3,3,2.65,2.65,0,0,0,3,3Q19,67,21,63ZM129,374a2.65,2.65,0,0,0,3-3c0-.67-.67-1.67-2-3q-3,0-3,4A1.77,1.77,0,0,0,129,374Zm179-2c0-1.33-1-2-3-2a2.65,2.65,0,0,0-3,3c0,1.33,1,2,3,2A2.65,2.65,0,0,0,308,372ZM104,37a3,3,0,0,0,6,0q0-1-4-3C104.67,34,104,35,104,37ZM65,15a2.65,2.65,0,0,0-3,3c0,2,.67,3,2,3a2.65,2.65,0,0,0,3-3C67,16,66.33,15,65,15Zm49,2c0-2-.33-2.67-1-2-2.67,1.33-4,2.67-4,4a1.77,1.77,0,0,0,2,2Q114,21,114,17Zm5,19c1.33,0,2-1,2-3a2.65,2.65,0,0,0-3-3c-2.67,0-3.33,1-2,3A2.65,2.65,0,0,0,119,36ZM89,58q3,0,4-4c-1.33-1.33-2.33-2-3-2-2,1.33-3,2.67-3,4C87,58,87.67,58.67,89,58ZM338,274c0-1.33-1-2-3-2a3,3,0,0,0,0,6Q338,278,338,274Zm-83,81c1.33,0,2-1,2-3a3,3,0,0,0-6,0A3.92,3.92,0,0,0,255,355Zm92-211q4,0,4-3a3,3,0,0,0-6,0C345,143,345.67,144,347,144ZM19,335a1.77,1.77,0,0,0-2,2q0,4,4,4c1.33,0,2-1,2-3Q23,333,19,335Zm275,48a3.21,3.21,0,0,0,2,3q3-2,3-3c0-2-.33-3.33-1-4Q294,379,294,383Zm-59,2q4,0,4-3a2.65,2.65,0,0,0-3-3q-3,0-3,5C233,384.67,233.67,385,235,385ZM258,26q-4,0-4,3a2.65,2.65,0,0,0,3,3,3.92,3.92,0,0,0,4-3A2.65,2.65,0,0,0,258,26ZM203,362c0,1.33,1,2,3,2a2.65,2.65,0,0,0,3-3c-1.33-1.33-2.33-2-3-2A2.65,2.65,0,0,0,203,362ZM15,46q0,4,3,4a2.65,2.65,0,0,0,3-3,3.92,3.92,0,0,0-4-3A1.77,1.77,0,0,0,15,46ZM142,370c-2.67,0-4.33,1-5,3a2.65,2.65,0,0,0,3,3c1.33,0,2.67-1,4-3C144,371,143.33,370,142,370ZM19,22a2.65,2.65,0,0,0,3-3c0-2-.67-3-2-3a2.65,2.65,0,0,0-3,3C17,21,17.67,22,19,22ZM14,163a2.65,2.65,0,0,0,3,3,2.65,2.65,0,0,0,3-3c0-2-.67-3-2-3S15.33,161,14,163ZM327,293a3,3,0,1,0,3,3Q330,292,327,293ZM80,20a1.25,1.25,0,0,0,2,0,10.88,10.88,0,0,0,2-4c0-1.33-1-2-3-2q-4,0-4,4C77,19.33,78,20,80,20ZM57,25q-3,0-4,4c0,1.33,1.33,2,4,2a2.65,2.65,0,0,0,3-3Q60,24,57,25Zm134-8c0-1.33-1-2-3-2-2.67,1.33-4,2.67-4,4a2.65,2.65,0,0,0,3,3Q191,22,191,17Zm27,365q0,4,3,4c2-1.33,3-2.67,3-4a3,3,0,0,0-6,0ZM43,33q3,0,4-4a2.65,2.65,0,0,0-3-3q-4,0-4,4Q38,33,43,33ZM87,315c-2.67-1.33-4-.67-4,2a1.77,1.77,0,0,0,2,2Zm171,59h3v0a4.07,4.07,0,0,0-1-3c0-1.33-1-2-3-2-.67,0-1,.67-1,2C256,373,256.67,374,258,374ZM237,264v6q3,18,17,21c2,0,3-.33,3-1a3.21,3.21,0,0,0-3-2q-11-3-13-16-3-13,6-25,3-3,2-4t-4,2Q236,254,237,264ZM140,109q0,10,10,10,8,0,8-8,0-9-10-9Q140,102,140,109Zm8-13q5,0,10,4.5a13.75,13.75,0,0,1,5,10.5,10.88,10.88,0,0,1-4,8.5,13.34,13.34,0,0,1-9,3.5q-13,0-13-13a15.26,15.26,0,0,1,3.5-9.5Q144,96,148,96ZM73,365q18,1,35-21,3-3,0-4c-1.33-.67-2.67.33-4,3q-5,12-22,17-21,7-34-11-8-10-4-32,3-15,2-25,0-8-3-8c-.67,0-.67.67,0,2,.67,2.67.67,4.33,0,5v1a52.76,52.76,0,0,1,.5,12q-.49,4-2,11.5A63.47,63.47,0,0,0,40,327a32.22,32.22,0,0,0,8,26.5A31.76,31.76,0,0,0,73,365Zm50-95q-2,8-4,22,0,8,4,12c1.33,2.67,2.67,3.67,4,3,.67-.67,1-2,1-4q3-18,3-19,2-9-4-15a2.65,2.65,0,0,0-3-3C123.33,266,123,267.33,123,270Zm11-47c1.33.67,1.67,2.33,1,5s.33,4,3,4a52.28,52.28,0,0,0,8-5q14-18,18-22l1-1c2-.67,2.67-1.33,2-2h-4q-28,11-34,15-13,5-19-1a4.07,4.07,0,0,0-3-1q-1,1,0,4,0,3,4,5,12,4,18,0C131,222.67,132.67,222.33,134,223Zm37,99q15,12,31,12,3,0,17-5c2.67,0,3.33-.67,2-2,0-.67-1-1-3-1l-6,3q-15,4-28-6-1-1-6.5-6a45.11,45.11,0,0,0-9.5-7q-11-8-22,1c-1.33,1.33-2.33,1.67-3,1v-3q4-6,13-6a32.91,32.91,0,0,1,23,11q9,9,16,11h5q0-3-4-3-10-4-8-15v-5q-4-2-6,2-4,10-7,2a2.87,2.87,0,0,0-1-2v-1a29.44,29.44,0,0,1-3-4q-11-9-22-4t-9,18q0,6,3,4Q155,310,171,322Zm114-80c.67,0,1-1,1-3a77.8,77.8,0,0,0-4-10q-9-18-31-42t-61-51q-5-4-10,4-2,2,4,5l3,3q30,15,76,63,7,7,19,29C282,241.33,283,242,285,242Zm-1,6q-6-14-23-14-10-1-22,13-10,14-12,39-2,24-4,29-3,3,0,4t3-2a5.78,5.78,0,0,0,2-4q2-5,4-1c1.33,1.33,2.67,1.67,4,1s1.33-2,0-4a17.43,17.43,0,0,1,1-13q3-4,6-1,8,9,18,1c2-.67,3.17-2.33,3.5-5s-.17-4.33-1.5-5q-7-3-13-16-5-14,6-24,12-7,22,3l2,1c1.33,1.33,2.33,2,3,2S284,250.67,284,248Zm-56-14q8-6,16-6,1,2,4.5.5A16.21,16.21,0,0,1,253,227q3,3,4-1l-4-2q-14,0-21,4a96.42,96.42,0,0,0-16,11q-12,8-20,7-6,0-7,6,0,10,10,10,5,0,5,2v2q0,11-10,13-5,1-2,6,4,7,15,2h4q1,3-2,7.5t-6,5.5h-2a1.77,1.77,0,0,0-2,2c.67,2,2.33,3,5,3q2,0,6-4,3-3,4-3,1,1,1,6a14.63,14.63,0,0,1-1,5.5,35.33,35.33,0,0,1-2.5,5Q210,317,209,319v3a.88.88,0,0,0,1,1,2.87,2.87,0,0,0,2-1q6-1,8-10,3-7,4-19.5a174.12,174.12,0,0,1,2-17.5q6-32,25-41c1.33-1.33,2-2.33,2-3-.67-.67-2-1-4-1a22.87,22.87,0,0,0-5,3q-19,14-23,31,0,2-2,8t-2,9v2c0,.67-.33.67-1,0-.67,0-1-.67-1-2v-3c-.67,0-1-.67-1-2v-2q-1-1-4,2l-1,1a5.78,5.78,0,0,1-4,2q-1-1,2-4,6-6,8-10,11-22,20-29l1-2h-2q-1,0-9,6t-11,11c-1.33,2-2.67,2.33-4,1q-1-1,2-4a58.37,58.37,0,0,0,8-7A58.37,58.37,0,0,1,228,234Zm36-88a25.93,25.93,0,0,0-1,8,31.86,31.86,0,0,0,.5,5,31.23,31.23,0,0,1,.5,4q2,13,10.5,35T285,227a4.48,4.48,0,0,0,.5,2q.5,1,1.5,0a.88.88,0,0,0,1-1,2.87,2.87,0,0,0-1-2q-1-5-2.5-14.5T282,198q-4-17,6-24,3-2,1-6c-.67-1.33-3-2.67-7-4-1.33,0-2.67,1-4,3v3a4.48,4.48,0,0,1-.5,2,1.59,1.59,0,0,1-1.5,1q-2-1-2-7a27.21,27.21,0,0,0-1-6,27.21,27.21,0,0,1-1-6q0-9,4-13,7-8-4-11-3-1-7,3-3,3-4,0-4-13-2-19a50.56,50.56,0,0,1,3-5,50.56,50.56,0,0,0,3-5q4-7-4-13-4-2-8,4-11,11-7,35a218.19,218.19,0,0,0,24,71l2,2v-3a245.08,245.08,0,0,1-8-24q-6-20-2-30,0-5,3-6A13.86,13.86,0,0,0,264,146ZM254,89a6.79,6.79,0,0,0,2-5q0-4-5-6-3-2-6,1-5,3-6,7a4.07,4.07,0,0,0-1,3q-1,4-4,4-2-1-2-4a7.59,7.59,0,0,1-1-3,31.23,31.23,0,0,0-.5-4,7.6,7.6,0,0,0-1.5-4q-4-9-15-7-6,0-10,11l2,3q9,5,11,18,5,45,27,71c1.33,2.67,2.67,3.67,4,3s1-2-1-4q-6-15-14-45-1-2-4-16t-7-20l-1-2,2,1c1.33.67,2.67,2.33,4,5a157.28,157.28,0,0,1,7,23q14,52,22,67,3,3,4,3,2,0-1-5-9-21-16-52Q238,103,254,89ZM152,147q6-3,5-10,0-6,2-7c2-.67,3.67.67,5,4q3,5,12,3,6-1,6-10,0-6-6-8l-5-4q1-3,6-1,7,2,10-4t-4-13q-4-4-10,0l-6,3c-1.33-1.33-1.33-3.67,0-7q5-12-7-14-10-3-12,9-2,4-3,4c-1.33,1.33-2.67.67-4-2a1.77,1.77,0,0,0-2-2q-4-5-11-2-9,3-7,11,0,9,7,9,5-2,5,4c0,1.33-1.67,2.67-5,4q-8,0-8,7-1,6,3.5,8a11.8,11.8,0,0,0,9.5,0l5-2q3,2,1,6v3q-2,5,3,10Q148,150,152,147Zm-19,34h17q5,0,6,2,0,3-5,3-9,5-10,8,0,8,3,9,4,3,8-3,14-19,37-11,8,2,8,7,0,3-9,5a16.17,16.17,0,0,0-4,1q-22,3-33,23-3,7-8,9-5,4-9,1-5-5-11,1-12,12-19,12-5,0,0,5,7,8,19,1,3-3,5-2,1,1,1,6a19.45,19.45,0,0,0,7.5,16q7.5,6,17.5,3t3-12q-10-10-2-23,12-21,36-29,32-10,63,8c.67,0,2.33,1.67,5,5s5.67,4.67,9,4a7.59,7.59,0,0,1,3,1h2q1-2-2-5-5-7-15-19-30-32-61-33a19,19,0,0,1-16-8,14.64,14.64,0,0,1-3-9v-6c-1.33-.67-3.67,0-7,2q-5,7-4,10,0,5-5,6a42,42,0,0,1-22-6q-7-5-9,2-1,5-7,4-6-4-7-6l-2-1c-.67,0-1,.67-1,2v3c-.67,0-1.67-.67-3-2q-3-6,1-19,3-9,3-10-2-8-7-9t-9,6q-5,10-.5,21.5A29,29,0,0,0,112,171q4,2,4,3t-4,3q-14,5-9,19,2,6,11,6,7-2,7-8,1-6,1.5-8a4.49,4.49,0,0,1,2.5-3C126.33,182.33,129,181.67,133,181Zm150-58q14,35,14,79,0,56-28,95-20,28-49,38-42,15-83-12-17-11-36-46Q74,225,86,151q8-51,46-84,50-41,105-7Q265,78,283,123ZM45,198q-6,0-6,6t6,7q8,0,8-6Q53,198,45,198Zm296,3q-5,1-7,9,0,8,7,8,9,0,9-8a6,6,0,0,0-2-6.5A10.58,10.58,0,0,0,341,201Zm-4,96a45.31,45.31,0,0,0-9,20v3c0,1.33.33,2,1,2s1.67-1.33,3-4l3-6,1-1v2q-3,9-4,11a4.07,4.07,0,0,0,1,3q2,2,2-1,16-22,14-36a8.31,8.31,0,0,0-.5-2.5A6.22,6.22,0,0,0,347,285a3.21,3.21,0,0,0-3,2v2a12.55,12.55,0,0,1-3.5,4A12.55,12.55,0,0,0,337,297Zm6-176q7-5,9-19-1-13-12-21c-2.67-1.33-4.33-1.67-5-1,0,.67.67,1.67,2,3q6,9,7,11c1.33,1.33,1.67,2.67,1,4q-2,1-2-2l-1-1q-13-22-35-18-5,0-6,2,0,4,5,6,13,3,14,3,9,2,15,10.5t2,17.5v5Q339,123,343,121ZM332,363v-3l1-2v-4a255.84,255.84,0,0,0-5-28q-4-18-5-21c-1.33-4.67-2.67-7-4-7q-3,0-3,8a54.85,54.85,0,0,0,2,12,16.37,16.37,0,0,0,1,5,16.17,16.17,0,0,1,1,4q1,4-.5,6c-1,1.33-2.83,1.67-5.5,1q-14,0-18,13a.88.88,0,0,1-1,1l-1,2a2.87,2.87,0,0,1-1,2v-2a18.35,18.35,0,0,1,5.5-13.5A17.22,17.22,0,0,1,311,331c2.67,0,4-.33,4-1,.67-2-.67-3-4-3q-15-2-20,12a76,76,0,0,1-15,24c-1.33,1.33-1.67,2.33-1,3,0,.67.67,1,2,1q16,4,22-13a10.73,10.73,0,0,0,2-3.5,11.36,11.36,0,0,0,1-3.5q4-10,15-3,5,4,7,18,2,5,3,5Q330,367,332,363ZM328,69q17-7,16-22V43c0-1.33.33-2,1-2,1.33,0,2,1.33,2,4q-2,18-10,23a22.87,22.87,0,0,1-5,3c-2.67,1.33-4.33,2.67-5,4q2,1,6.5,0a38.53,38.53,0,0,1,5.5-1q18-4,18-20,1-7-4.5-14.5T341,30h-5v5q4,8,2,12-8,18-31,21-1,2-3,0c0-.67.67-1.67,2-3q7-13-2-21-10-10-22-1-4,3,0,5,10,4,5,14-2,4,0,6c.67.67,2.33,1,5,1q6-3,7-8,1-6-4-11l-1-3c.67-.67,1.67-.33,3,1q10,7,2,20c-1.33,2.67-1.67,4.33-1,5q0,1,5,1A69.62,69.62,0,0,0,328,69ZM35,77q-7,6-7,16,0,13,8,18a4.53,4.53,0,0,0,5,1c.67,0,1-1.67,1-5Q37,87,59,87q3,0,11,2c2,0,3-.67,3-2s-.33-2-1-2Q45,73,35,93q0,4-2,3V93q2-5,3-6,15-11,26-8,3,3,4,0c.67-1.33-.33-2.67-3-4A214.81,214.81,0,0,1,40,55l-1-1a1.25,1.25,0,0,1,0-2l2,1Q53,63,60,68c.67,0,1.33.67,2,2a4,4,0,0,0,.5,2.5c.33.33,1.17.17,2.5-.5q1,0,1-6-1-13,9-20h3l-2,2Q61,63,73,77q3,5,6,3,2-2,0-6-5-9-1-17T93,47q6-2,3-5-9-9-16-8Q69,36,66,46T64,59q0,5-4,5c-2.67-.67-3.33-2.67-2-6s.67-7-2-11q-7-9-16-9-14-3-15-2-2,3-1.5,4.5l2,6A27.52,27.52,0,0,1,27,52q3,18,22,18,5,0,5,4,0,2-6,2Q38,74,35,77Zm0,233a94.83,94.83,0,0,0-3,23v4q3,42,44,36,19-2,27-17,3-4,5-3,3,2,0,5c-1.33,5.33-2,8.67-2,10q-1,3,4,6,5,2,8-1,2-3,0-5-6-6-2-19,2-7-2-9-11-6-14-4-7,4-10-3a168.14,168.14,0,0,0-10-16,17.45,17.45,0,0,0-9-5,4.07,4.07,0,0,0-3,1,1.77,1.77,0,0,0,2,2q7,3,7,14,1,14,15,15c1.33,0,2,.33,2,1,.67.67.33,1.67-1,3q-12,14-29,4-17-11-13-32,5-16,3-29-4-19-22-23-4-2-6,0c-1.33,1.33-.67,3,2,5Q42,288,35,310ZM281,68q-40-34-82-37-21-1-49,5-30,9-51,30Q75,87,58,118a174.94,174.94,0,0,0-21,62q-3,8,4,7,20-5,23,17a16.11,16.11,0,0,1-5,14q-6,6-15,5-7,0-5,7a89.77,89.77,0,0,0,5,19q9,21,31,50,26,34,68,49a125.47,125.47,0,0,0,43,8q30,0,40-3,33-8,58-26,41-32,59-88,3-9-7-10-9,0-12-8-7-9-3-20.5T341,187q6,0,5-6-8-36-22-62Q312,97,281,68Zm83-52V384q0,5-5,5H16q-5,0-5-5V16q0-5,5-5H359Q364,11,364,16Z"/></g></g></svg>