<svg xmlns="http://www.w3.org/2000/svg" xmlns:xlink="http://www.w3.org/1999/xlink" viewBox="0 0 130.55 88.03"><defs><style>.\31 ac817b4-8ade-478a-8ee8-7d307fb39769,.\32 bae430d-155d-41ce-81d1-e3aba9ff6b9e,.\36 3bb71e3-3f38-4fe5-8ca1-67a9d6a2dce3,.da3db34d-5110-4bb8-916a-10b13ac1f496,.f716fb5d-208c-4ba4-bd27-c8a1d08c1377{fill:none;}.b697b0b9-026f-438a-a0f7-c72a529b1d0e{clip-path:url(#0c210cd4-247d-41f0-a885-9d730d6bb7e6);}.\38 e131622-0821-40d7-87d1-3d94af66672c{clip-path:url(#4765b83c-8b31-4077-9289-77673af7a1fc);}.\31 ac817b4-8ade-478a-8ee8-7d307fb39769{stroke:#000;}.\31 ac817b4-8ade-478a-8ee8-7d307fb39769,.\36 3bb71e3-3f38-4fe5-8ca1-67a9d6a2dce3,.da3db34d-5110-4bb8-916a-10b13ac1f496,.f716fb5d-208c-4ba4-bd27-c8a1d08c1377{stroke-linejoin:round;stroke-width:1.99px;}.f1c769c5-ed2c-40e0-8aed-f6bba602e312{clip-path:url(#50f8bb1d-2f9c-4cdb-bf87-80592594bf73);}.da3db34d-5110-4bb8-916a-10b13ac1f496{stroke:#f2b21a;}.\32 bf1a0b4-d42b-4dce-8b14-dc8b7e4e143d{clip-path:url(#c29b1b07-eeaa-49e6-a592-b9d7722282a8);}.\36 3bb71e3-3f38-4fe5-8ca1-67a9d6a2dce3{stroke:#d94d1a;}.\36 55c9b6f-d01d-4bc5-8088-c2bbdef3b33c{clip-path:url(#c3abfc30-580c-4e94-aa1a-62afd008513b);}.f716fb5d-208c-4ba4-bd27-c8a1d08c1377{stroke:#265999;}.\37 93d9177-b0d7-41c7-9015-1fe711409af5{clip-path:url(#43359b76-609c-4f5f-9027-cc9889f34ce1);}</style><clipPath id="0c210cd4-247d-41f0-a885-9d730d6bb7e6" transform="translate(-28.35 -28.35)"><polyline class="2bae430d-155d-41ce-81d1-e3aba9ff6b9e" points="72.36 72.36 75.81 70.37 111.43 70.37 114.88 72.36 72.36 72.36"/></clipPath><clipPath id="4765b83c-8b31-4077-9289-77673af7a1fc" transform="translate(-28.35 -28.35)"><rect class="2bae430d-155d-41ce-81d1-e3aba9ff6b9e" width="173.24" height="144.72"/></clipPath><clipPath id="50f8bb1d-2f9c-4cdb-bf87-80592594bf73" transform="translate(-28.35 -28.35)"><polyline class="2bae430d-155d-41ce-81d1-e3aba9ff6b9e" points="93.62 35.54 93.62 39.52 75.81 70.37 72.36 72.36 93.62 35.54"/></clipPath><clipPath id="c29b1b07-eeaa-49e6-a592-b9d7722282a8" transform="translate(-28.35 -28.35)"><polyline class="2bae430d-155d-41ce-81d1-e3aba9ff6b9e" points="114.88 72.36 111.43 70.37 93.62 39.52 93.62 35.54 114.88 72.36"/></clipPath><clipPath id="c3abfc30-580c-4e94-aa1a-62afd008513b" transform="translate(-28.35 -28.35)"><path class="2bae430d-155d-41ce-81d1-e3aba9ff6b9e" d="M116.37,72.36a44,44,0,1,0-12.89,31.12,44,44,0,0,0,12.89-31.12h0"/></clipPath><clipPath id="43359b76-609c-4f5f-9027-cc9889f34ce1" transform="translate(-28.35 -28.35)"><path class="2bae430d-155d-41ce-81d1-e3aba9ff6b9e" d="M158.89,72.36A44,44,0,1,0,146,103.48a44,44,0,0,0,12.89-31.12h0"/></clipPath></defs><title>Asset 13</title><g id="1721108c-5cda-4547-9e6b-345c43f7193c" data-name="Layer 2"><g id="18315247-e053-4dfd-9058-0bd8be863056" data-name="Layer 1"><g class="b697b0b9-026f-438a-a0f7-c72a529b1d0e"><g class="8e131622-0821-40d7-87d1-3d94af66672c"><polyline class="1ac817b4-8ade-478a-8ee8-7d307fb39769" points="40.03 43.02 44.01 43.02 86.53 43.02 90.52 43.02"/></g></g><g class="f1c769c5-ed2c-40e0-8aed-f6bba602e312"><g class="8e131622-0821-40d7-87d1-3d94af66672c"><polyline class="da3db34d-5110-4bb8-916a-10b13ac1f496" points="68.13 4.24 66.14 7.69 44.88 44.51 42.88 47.96"/></g></g><g class="2bf1a0b4-d42b-4dce-8b14-dc8b7e4e143d"><g class="8e131622-0821-40d7-87d1-3d94af66672c"><polyline class="63bb71e3-3f38-4fe5-8ca1-67a9d6a2dce3" points="87.66 47.96 85.67 44.51 64.41 7.69 62.42 4.24"/></g></g><g class="655c9b6f-d01d-4bc5-8088-c2bbdef3b33c"><g class="8e131622-0821-40d7-87d1-3d94af66672c"><path class="f716fb5d-208c-4ba4-bd27-c8a1d08c1377" d="M115.38,72.36a43,43,0,1,0-12.6,30.42,43.06,43.06,0,0,0,12.6-30.42" transform="translate(-28.35 -28.35)"/><path class="f716fb5d-208c-4ba4-bd27-c8a1d08c1377" d="M115.33,74.49c0-.71,0-1.42,0-2.13" transform="translate(-28.35 -28.35)"/><path class="f716fb5d-208c-4ba4-bd27-c8a1d08c1377" d="M115.38,72.36q0-1.06-.06-2.13" transform="translate(-28.35 -28.35)"/></g></g><g class="793d9177-b0d7-41c7-9015-1fe711409af5"><g class="8e131622-0821-40d7-87d1-3d94af66672c"><path class="63bb71e3-3f38-4fe5-8ca1-67a9d6a2dce3" d="M157.9,72.36a43,43,0,1,0-12.6,30.42,43.06,43.06,0,0,0,12.6-30.42" transform="translate(-28.35 -28.35)"/><path class="63bb71e3-3f38-4fe5-8ca1-67a9d6a2dce3" d="M157.84,74.49q.06-1.06.06-2.13" transform="translate(-28.35 -28.35)"/><path class="63bb71e3-3f38-4fe5-8ca1-67a9d6a2dce3" d="M157.9,72.36q0-1.06-.06-2.13" transform="translate(-28.35 -28.35)"/></g></g></g></g></svg>