<svg xmlns="http://www.w3.org/2000/svg" xmlns:xlink="http://www.w3.org/1999/xlink" viewBox="0 0 132.31 132.31"><defs><style>.\32 853d12f-7d59-4e77-850f-5cdf2391a13d,.\33 68e6893-7447-467d-ac9e-86ce1ab2e68c,.\39 8cc015c-797b-463f-8171-d6fb9a20897e,.a892b02f-3b49-4323-9181-4780a12603cf,.b57b3d04-f88f-4513-858b-b3bac3ae6682,.cc5809c7-a982-4ea2-9161-fb4db057f9f1,.f9ced143-b5c4-437e-b07d-0cabf1d84998{fill:none;}.\38 d6a191b-bdc6-47e5-8f3f-b2e5d78fbf82{clip-path:url(#ceb87bc4-af67-4370-9b3a-46e9b178fdd6);}.\39 1a302c6-208b-44f4-a10e-2243e73beb9b{clip-path:url(#23267689-8d46-4d63-96c2-67044bc8bf01);}.cc5809c7-a982-4ea2-9161-fb4db057f9f1{stroke:#fff;}.\32 853d12f-7d59-4e77-850f-5cdf2391a13d,.\33 68e6893-7447-467d-ac9e-86ce1ab2e68c,.\39 8cc015c-797b-463f-8171-d6fb9a20897e,.b57b3d04-f88f-4513-858b-b3bac3ae6682,.cc5809c7-a982-4ea2-9161-fb4db057f9f1,.f9ced143-b5c4-437e-b07d-0cabf1d84998{stroke-linejoin:round;stroke-width:1.99px;}.\32 853d12f-7d59-4e77-850f-5cdf2391a13d,.\39 8cc015c-797b-463f-8171-d6fb9a20897e{stroke:#000;}.\32 853d12f-7d59-4e77-850f-5cdf2391a13d{stroke-dasharray:2.41 1.2;}.\33 ffe4942-c80a-4051-ad41-4e4df0b6c78d{clip-path:url(#adf2e541-01d0-48de-93fb-b4b716eac0a1);}.\32 cc8c4a7-07bc-4a25-8df3-533044c02372{clip-path:url(#092fee17-bcee-4f0e-b3cf-6466504626fc);}.b57b3d04-f88f-4513-858b-b3bac3ae6682{stroke:#f2b21a;}.\37 8c02d6a-e671-452e-83e6-b573201c000c{clip-path:url(#7d4ceb9b-b090-4377-ac00-a07fd74e21f9);}.f9ced143-b5c4-437e-b07d-0cabf1d84998{stroke:#d94d1a;}.\34 a333f14-75a7-4168-b9c7-99c9abe3ab1e{clip-path:url(#369f39da-0b7c-4a5d-ae64-4b60b5f1bcba);}.\34 c7c8ed8-a66e-4a9a-9714-5c9b0a93f72d{clip-path:url(#a9ad2b20-5b3d-414a-a8e0-da1b7983269f);}.\33 68e6893-7447-467d-ac9e-86ce1ab2e68c{stroke:#265999;}.fc6dad87-5fad-4abd-99e0-2f1b4bdd9b88{clip-path:url(#072d9f23-8022-4470-96a4-b1b60a0fffc5);}.\34 efc2883-15c7-44d4-bdc3-7dff12764081{clip-path:url(#be43f505-bed6-487d-bb26-1c37e6ff7304);}</style><clipPath id="ceb87bc4-af67-4370-9b3a-46e9b178fdd6" transform="translate(-13.67 -28.35)"><polyline class="a892b02f-3b49-4323-9181-4780a12603cf" points="102.15 99.81 103.56 101.22 86.18 118.6 85.51 116.45 102.15 99.81"/></clipPath><clipPath id="23267689-8d46-4d63-96c2-67044bc8bf01" transform="translate(-13.67 -28.35)"><rect class="a892b02f-3b49-4323-9181-4780a12603cf" width="173.91" height="188.58"/></clipPath><clipPath id="adf2e541-01d0-48de-93fb-b4b716eac0a1" transform="translate(-13.67 -28.35)"><polyline class="a892b02f-3b49-4323-9181-4780a12603cf" points="85.51 116.45 86.18 118.6 45.97 110.94 46.35 108.99 85.51 116.45"/></clipPath><clipPath id="092fee17-bcee-4f0e-b3cf-6466504626fc" transform="translate(-13.67 -28.35)"><polyline class="a892b02f-3b49-4323-9181-4780a12603cf" points="84.88 117.78 86.81 117.27 97.26 156.29 95.34 156.81 84.88 117.78"/></clipPath><clipPath id="7d4ceb9b-b090-4377-ac00-a07fd74e21f9" transform="translate(-13.67 -28.35)"><polyline class="a892b02f-3b49-4323-9181-4780a12603cf" points="86.81 117.27 84.88 117.78 78.21 92.88 81.03 95.7 86.81 117.27"/></clipPath><clipPath id="369f39da-0b7c-4a5d-ae64-4b60b5f1bcba" transform="translate(-13.67 -28.35)"><polyline class="a892b02f-3b49-4323-9181-4780a12603cf" points="81.03 95.7 78.21 92.88 103.11 99.55 102.6 101.48 81.03 95.7"/></clipPath><clipPath id="a9ad2b20-5b3d-414a-a8e0-da1b7983269f" transform="translate(-13.67 -28.35)"><polyline class="a892b02f-3b49-4323-9181-4780a12603cf" points="102.59 101.48 103.11 99.55 142.13 110.01 141.62 111.94 102.59 101.48"/></clipPath><clipPath id="072d9f23-8022-4470-96a4-b1b60a0fffc5" transform="translate(-13.67 -28.35)"><path class="a892b02f-3b49-4323-9181-4780a12603cf" d="M145.57,94.29a66,66,0,1,0-19.32,46.63,65.94,65.94,0,0,0,19.32-46.63h0"/></clipPath><clipPath id="be43f505-bed6-487d-bb26-1c37e6ff7304" transform="translate(-13.67 -28.35)"><path class="a892b02f-3b49-4323-9181-4780a12603cf" d="M126.74,117.52a40.9,40.9,0,1,0-12,28.92,40.89,40.89,0,0,0,12-28.92h0"/></clipPath></defs><title>Asset 10</title><g id="5f19c257-da7c-463b-b7ba-b9b8bf5dd401" data-name="Layer 2"><g id="edd8abf4-9cd6-4749-a064-50485cd6c742" data-name="Layer 1"><g class="8d6a191b-bdc6-47e5-8f3f-b2e5d78fbf82"><g class="91a302c6-208b-44f4-a10e-2243e73beb9b"><line class="cc5809c7-a982-4ea2-9161-fb4db057f9f1" x1="89.18" y1="72.17" x2="72.17" y2="89.18"/><line class="2853d12f-7d59-4e77-850f-5cdf2391a13d" x1="89.18" y1="72.17" x2="72.17" y2="89.18"/><line class="98cc015c-797b-463f-8171-d6fb9a20897e" x1="92" y1="69.35" x2="89.18" y2="72.17"/><line class="98cc015c-797b-463f-8171-d6fb9a20897e" x1="72.17" y1="89.18" x2="69.35" y2="92"/></g></g><g class="3ffe4942-c80a-4051-ad41-4e4df0b6c78d"><g class="91a302c6-208b-44f4-a10e-2243e73beb9b"><polyline class="98cc015c-797b-463f-8171-d6fb9a20897e" points="76.09 89.92 72.17 89.18 32.49 81.62 28.57 80.87"/></g></g><g class="2cc8c4a7-07bc-4a25-8df3-533044c02372"><g class="91a302c6-208b-44f4-a10e-2243e73beb9b"><polyline class="b57b3d04-f88f-4513-858b-b3bac3ae6682" points="71.14 85.33 72.17 89.18 82.63 128.2 83.66 132.05"/></g></g><g class="78c02d6a-e671-452e-83e6-b573201c000c"><g class="91a302c6-208b-44f4-a10e-2243e73beb9b"><polyline class="f9ced143-b5c4-437e-b07d-0cabf1d84998" points="73.2 93.03 72.17 89.18 65.95 65.95 64.91 62.1"/></g></g><g class="4a333f14-75a7-4168-b9c7-99c9abe3ab1e"><g class="91a302c6-208b-44f4-a10e-2243e73beb9b"><polyline class="f9ced143-b5c4-437e-b07d-0cabf1d84998" points="62.1 64.91 65.95 65.95 89.18 72.17 93.03 73.2"/></g></g><g class="4c7c8ed8-a66e-4a9a-9714-5c9b0a93f72d"><g class="91a302c6-208b-44f4-a10e-2243e73beb9b"><polyline class="368e6893-7447-467d-ac9e-86ce1ab2e68c" points="85.33 71.14 89.18 72.17 128.2 82.63 132.05 83.66"/></g></g><g class="fc6dad87-5fad-4abd-99e0-2f1b4bdd9b88"><g class="91a302c6-208b-44f4-a10e-2243e73beb9b"><path class="f9ced143-b5c4-437e-b07d-0cabf1d84998" d="M144.57,94.29a64.94,64.94,0,1,0-19,45.93,64.93,64.93,0,0,0,19-45.93" transform="translate(-13.67 -28.35)"/><path class="f9ced143-b5c4-437e-b07d-0cabf1d84998" d="M144.49,97.51c0-1.07.08-2.14.08-3.22" transform="translate(-13.67 -28.35)"/><path class="f9ced143-b5c4-437e-b07d-0cabf1d84998" d="M144.57,94.29c0-1.07,0-2.15-.08-3.22" transform="translate(-13.67 -28.35)"/></g></g><g class="4efc2883-15c7-44d4-bdc3-7dff12764081"><g class="91a302c6-208b-44f4-a10e-2243e73beb9b"><path class="368e6893-7447-467d-ac9e-86ce1ab2e68c" d="M125.75,117.52a39.9,39.9,0,1,0-11.69,28.22,39.91,39.91,0,0,0,11.69-28.22" transform="translate(-13.67 -28.35)"/><path class="368e6893-7447-467d-ac9e-86ce1ab2e68c" d="M125.7,119.5c0-.65,0-1.31,0-2" transform="translate(-13.67 -28.35)"/><path class="368e6893-7447-467d-ac9e-86ce1ab2e68c" d="M125.75,117.52c0-.66,0-1.32,0-2" transform="translate(-13.67 -28.35)"/></g></g></g></g></svg>