<svg xmlns="http://www.w3.org/2000/svg" xmlns:xlink="http://www.w3.org/1999/xlink" viewBox="0 0 120.73 112.46"><defs><style>.\35 0d2d3c4-454b-459a-931a-0bd840ff5843,.\37 193fd04-0694-4001-8c7a-8b8cbe4568bb,.\38 d96df0c-780c-423f-b091-e0de37eedcb1,.cdf1fff6-436a-4a10-8832-a1031437e1e5,.eb61a085-4fef-45ed-a355-676199349d05,.f71a9115-cf80-4688-9c7c-1d2ea187b828{fill:none;}.ea6e3278-1f31-437e-b0bb-021c54fccd98{clip-path:url(#2daf00e4-c771-46a2-a479-8af71eac3d11);}.\33 edb4142-fea0-4cfa-b4f2-539ce93107d4{clip-path:url(#4d0d8e1d-007e-4d72-a978-22807837cf97);}.cdf1fff6-436a-4a10-8832-a1031437e1e5{stroke:#fff;}.\35 0d2d3c4-454b-459a-931a-0bd840ff5843,.\37 193fd04-0694-4001-8c7a-8b8cbe4568bb,.\38 d96df0c-780c-423f-b091-e0de37eedcb1,.cdf1fff6-436a-4a10-8832-a1031437e1e5,.eb61a085-4fef-45ed-a355-676199349d05{stroke-linejoin:round;stroke-width:1.99px;}.\35 0d2d3c4-454b-459a-931a-0bd840ff5843,.\37 193fd04-0694-4001-8c7a-8b8cbe4568bb{stroke:#000;}.\37 193fd04-0694-4001-8c7a-8b8cbe4568bb{stroke-dasharray:2.36 1.18;}.ae1352e2-a40d-451e-aced-9916d7890427{clip-path:url(#83ae80e1-7423-4c20-aea1-699c2db12337);}.\34 8726b25-b5f3-4901-b579-07d75f99e78b{clip-path:url(#9d22ac3d-1fbe-4e9c-b4b7-6a176dcb0f52);}.\38 d96df0c-780c-423f-b091-e0de37eedcb1{stroke:#d94d1a;}.\37 44ef819-dc42-4114-a5a3-153e399f899e{clip-path:url(#20b53d54-4782-4588-8429-bce4864851de);}.eb61a085-4fef-45ed-a355-676199349d05{stroke:#265999;}.a6918335-64df-4db0-8307-0bed20220c25{clip-path:url(#dd580e59-8a44-4365-815d-c7df9a4009bb);}</style><clipPath id="2daf00e4-c771-46a2-a479-8af71eac3d11" transform="translate(-28.35 -28.35)"><polyline class="f71a9115-cf80-4688-9c7c-1d2ea187b828" points="128.56 79.94 128.56 77.95 145.09 77.95 145.09 79.94 128.56 79.94"/></clipPath><clipPath id="4d0d8e1d-007e-4d72-a978-22807837cf97" transform="translate(-28.35 -28.35)"><rect class="f71a9115-cf80-4688-9c7c-1d2ea187b828" width="166.34" height="165.17"/></clipPath><clipPath id="83ae80e1-7423-4c20-aea1-699c2db12337" transform="translate(-28.35 -28.35)"><polyline class="f71a9115-cf80-4688-9c7c-1d2ea187b828" points="75.23 79.94 82.67 77.95 128.56 77.95 128.56 79.94 75.23 79.94"/></clipPath><clipPath id="9d22ac3d-1fbe-4e9c-b4b7-6a176dcb0f52" transform="translate(-28.35 -28.35)"><polyline class="f71a9115-cf80-4688-9c7c-1d2ea187b828" points="82.67 77.95 75.23 79.94 121.41 53.28 122.41 55.01 82.67 77.95"/></clipPath><clipPath id="20b53d54-4782-4588-8429-bce4864851de" transform="translate(-28.35 -28.35)"><polyline class="f71a9115-cf80-4688-9c7c-1d2ea187b828" points="135.83 87.22 137.82 87.22 137.82 136.82 135.83 136.82 135.83 87.22"/></clipPath><clipPath id="dd580e59-8a44-4365-815d-c7df9a4009bb" transform="translate(-28.35 -28.35)"><path class="f71a9115-cf80-4688-9c7c-1d2ea187b828" d="M129.55,79a50.6,50.6,0,1,0-14.82,35.78A50.6,50.6,0,0,0,129.55,79h0"/></clipPath></defs><title>Asset 3</title><g id="dd22978e-c941-479c-ba88-f6c0899c1cc9" data-name="Layer 2"><g id="08899a12-6dac-47cd-803f-c84029940c69" data-name="Layer 1"><g class="ea6e3278-1f31-437e-b0bb-021c54fccd98"><g class="3edb4142-fea0-4cfa-b4f2-539ce93107d4"><line class="cdf1fff6-436a-4a10-8832-a1031437e1e5" x1="100.21" y1="50.6" x2="116.74" y2="50.6"/><line class="7193fd04-0694-4001-8c7a-8b8cbe4568bb" x1="100.21" y1="50.6" x2="116.74" y2="50.6"/><line class="50d2d3c4-454b-459a-931a-0bd840ff5843" x1="96.22" y1="50.6" x2="100.21" y2="50.6"/><line class="50d2d3c4-454b-459a-931a-0bd840ff5843" x1="116.74" y1="50.6" x2="120.73" y2="50.6"/></g></g><g class="ae1352e2-a40d-451e-aced-9916d7890427"><g class="3edb4142-fea0-4cfa-b4f2-539ce93107d4"><polyline class="50d2d3c4-454b-459a-931a-0bd840ff5843" points="46.62 50.6 50.6 50.6 100.21 50.6 104.19 50.6"/></g></g><g class="48726b25-b5f3-4901-b579-07d75f99e78b"><g class="3edb4142-fea0-4cfa-b4f2-539ce93107d4"><polyline class="8d96df0c-780c-423f-b091-e0de37eedcb1" points="47.15 52.59 50.6 50.6 93.56 25.8 97.01 23.81"/></g></g><g class="744ef819-dc42-4114-a5a3-153e399f899e"><g class="3edb4142-fea0-4cfa-b4f2-539ce93107d4"><polyline class="eb61a085-4fef-45ed-a355-676199349d05" points="108.48 54.88 108.48 58.87 108.48 108.48 108.48 112.46"/></g></g><g class="a6918335-64df-4db0-8307-0bed20220c25"><g class="3edb4142-fea0-4cfa-b4f2-539ce93107d4"><path class="eb61a085-4fef-45ed-a355-676199349d05" d="M128.55,79A49.61,49.61,0,1,0,114,114,49.57,49.57,0,0,0,128.55,79" transform="translate(-28.35 -28.35)"/><path class="eb61a085-4fef-45ed-a355-676199349d05" d="M128.49,81.41c0-.82.06-1.64.06-2.46" transform="translate(-28.35 -28.35)"/><path class="eb61a085-4fef-45ed-a355-676199349d05" d="M128.55,79q0-1.23-.06-2.46" transform="translate(-28.35 -28.35)"/></g></g></g></g></svg>